<svg width="314" height="80" viewBox="0 0 314 80" fill="none" xmlns="http://www.w3.org/2000/svg">
<rect width="314" height="80" fill="#0F63FF"/>
<path d="M83.892 49.36C82.164 49.36 80.692 48.984 79.476 48.232C78.26 47.472 77.328 46.416 76.68 45.064C76.04 43.712 75.72 42.144 75.72 40.36C75.72 38.576 76.04 37.008 76.68 35.656C77.328 34.304 78.26 33.252 79.476 32.5C80.692 31.74 82.164 31.36 83.892 31.36C85.884 31.36 87.532 31.864 88.836 32.872C90.148 33.88 91.06 35.236 91.572 36.94L89.028 37.624C88.692 36.416 88.092 35.468 87.228 34.78C86.372 34.092 85.26 33.748 83.892 33.748C82.668 33.748 81.648 34.024 80.832 34.576C80.016 35.128 79.4 35.9 78.984 36.892C78.576 37.884 78.372 39.04 78.372 40.36C78.364 41.68 78.564 42.836 78.972 43.828C79.388 44.82 80.004 45.592 80.82 46.144C81.644 46.696 82.668 46.972 83.892 46.972C85.26 46.972 86.372 46.628 87.228 45.94C88.092 45.244 88.692 44.296 89.028 43.096L91.572 43.78C91.06 45.484 90.148 46.84 88.836 47.848C87.532 48.856 85.884 49.36 83.892 49.36ZM99.8393 49.36C98.5433 49.36 97.4193 49.068 96.4673 48.484C95.5153 47.9 94.7793 47.096 94.2593 46.072C93.7473 45.04 93.4913 43.852 93.4913 42.508C93.4913 41.156 93.7553 39.968 94.2833 38.944C94.8113 37.912 95.5513 37.112 96.5033 36.544C97.4553 35.968 98.5673 35.68 99.8393 35.68C101.135 35.68 102.259 35.972 103.211 36.556C104.163 37.14 104.899 37.944 105.419 38.968C105.939 39.992 106.199 41.172 106.199 42.508C106.199 43.86 105.935 45.052 105.407 46.084C104.887 47.108 104.151 47.912 103.199 48.496C102.247 49.072 101.127 49.36 99.8393 49.36ZM99.8393 46.996C101.079 46.996 102.003 46.58 102.611 45.748C103.227 44.908 103.535 43.828 103.535 42.508C103.535 41.156 103.223 40.076 102.599 39.268C101.983 38.452 101.063 38.044 99.8393 38.044C98.9993 38.044 98.3073 38.236 97.7633 38.62C97.2193 38.996 96.8153 39.52 96.5513 40.192C96.2873 40.856 96.1553 41.628 96.1553 42.508C96.1553 43.868 96.4673 44.956 97.0913 45.772C97.7153 46.588 98.6313 46.996 99.8393 46.996ZM117.932 49V42.628C117.932 42.124 117.888 41.608 117.8 41.08C117.72 40.544 117.56 40.048 117.32 39.592C117.088 39.136 116.756 38.768 116.324 38.488C115.9 38.208 115.344 38.068 114.656 38.068C114.208 38.068 113.784 38.144 113.384 38.296C112.984 38.44 112.632 38.676 112.328 39.004C112.032 39.332 111.796 39.764 111.62 40.3C111.452 40.836 111.368 41.488 111.368 42.256L109.808 41.668C109.808 40.492 110.028 39.456 110.468 38.56C110.908 37.656 111.54 36.952 112.364 36.448C113.188 35.944 114.184 35.692 115.352 35.692C116.248 35.692 117 35.836 117.608 36.124C118.216 36.412 118.708 36.792 119.084 37.264C119.468 37.728 119.76 38.236 119.96 38.788C120.16 39.34 120.296 39.88 120.368 40.408C120.44 40.936 120.476 41.4 120.476 41.8V49H117.932ZM108.824 49V36.04H111.068V39.784H111.368V49H108.824ZM131.018 49C130.202 49.16 129.402 49.228 128.618 49.204C127.834 49.18 127.134 49.028 126.518 48.748C125.902 48.468 125.438 48.028 125.126 47.428C124.846 46.892 124.694 46.348 124.67 45.796C124.654 45.236 124.646 44.604 124.646 43.9V32.44H127.166V43.78C127.166 44.3 127.17 44.752 127.178 45.136C127.194 45.52 127.278 45.844 127.43 46.108C127.718 46.604 128.174 46.888 128.798 46.96C129.43 47.024 130.17 46.996 131.018 46.876V49ZM122.162 38.056V36.04H131.018V38.056H122.162ZM137.41 49.36C136.45 49.36 135.646 49.184 134.998 48.832C134.35 48.472 133.858 48 133.522 47.416C133.194 46.824 133.03 46.176 133.03 45.472C133.03 44.816 133.146 44.24 133.378 43.744C133.61 43.248 133.954 42.828 134.41 42.484C134.866 42.132 135.426 41.848 136.09 41.632C136.666 41.464 137.318 41.316 138.046 41.188C138.774 41.06 139.538 40.94 140.338 40.828C141.146 40.716 141.946 40.604 142.738 40.492L141.826 40.996C141.842 39.98 141.626 39.228 141.178 38.74C140.738 38.244 139.978 37.996 138.898 37.996C138.218 37.996 137.594 38.156 137.026 38.476C136.458 38.788 136.062 39.308 135.838 40.036L133.498 39.316C133.818 38.204 134.426 37.32 135.322 36.664C136.226 36.008 137.426 35.68 138.922 35.68C140.082 35.68 141.09 35.88 141.946 36.28C142.81 36.672 143.442 37.296 143.842 38.152C144.05 38.576 144.178 39.024 144.226 39.496C144.274 39.968 144.298 40.476 144.298 41.02V49H142.078V46.036L142.51 46.42C141.974 47.412 141.29 48.152 140.458 48.64C139.634 49.12 138.618 49.36 137.41 49.36ZM137.854 47.308C138.566 47.308 139.178 47.184 139.69 46.936C140.202 46.68 140.614 46.356 140.926 45.964C141.238 45.572 141.442 45.164 141.538 44.74C141.674 44.356 141.75 43.924 141.766 43.444C141.79 42.964 141.802 42.58 141.802 42.292L142.618 42.592C141.826 42.712 141.106 42.82 140.458 42.916C139.81 43.012 139.222 43.108 138.694 43.204C138.174 43.292 137.71 43.4 137.302 43.528C136.958 43.648 136.65 43.792 136.378 43.96C136.114 44.128 135.902 44.332 135.742 44.572C135.59 44.812 135.514 45.104 135.514 45.448C135.514 45.784 135.598 46.096 135.766 46.384C135.934 46.664 136.19 46.888 136.534 47.056C136.878 47.224 137.318 47.308 137.854 47.308ZM152.958 49.36C151.63 49.36 150.502 49.064 149.574 48.472C148.646 47.88 147.934 47.068 147.438 46.036C146.95 45.004 146.702 43.832 146.694 42.52C146.702 41.184 146.958 40.004 147.462 38.98C147.966 37.948 148.686 37.14 149.622 36.556C150.558 35.972 151.682 35.68 152.994 35.68C154.41 35.68 155.618 36.032 156.618 36.736C157.626 37.44 158.29 38.404 158.61 39.628L156.114 40.348C155.866 39.62 155.458 39.056 154.89 38.656C154.33 38.248 153.686 38.044 152.958 38.044C152.134 38.044 151.458 38.24 150.93 38.632C150.402 39.016 150.01 39.544 149.754 40.216C149.498 40.888 149.366 41.656 149.358 42.52C149.366 43.856 149.67 44.936 150.27 45.76C150.878 46.584 151.774 46.996 152.958 46.996C153.766 46.996 154.418 46.812 154.914 46.444C155.418 46.068 155.802 45.532 156.066 44.836L158.61 45.436C158.186 46.7 157.486 47.672 156.51 48.352C155.534 49.024 154.35 49.36 152.958 49.36ZM168.471 49C167.655 49.16 166.855 49.228 166.071 49.204C165.287 49.18 164.587 49.028 163.971 48.748C163.355 48.468 162.891 48.028 162.579 47.428C162.299 46.892 162.147 46.348 162.123 45.796C162.107 45.236 162.099 44.604 162.099 43.9V32.44H164.619V43.78C164.619 44.3 164.623 44.752 164.631 45.136C164.647 45.52 164.731 45.844 164.883 46.108C165.171 46.604 165.627 46.888 166.251 46.96C166.883 47.024 167.623 46.996 168.471 46.876V49ZM159.615 38.056V36.04H168.471V38.056H159.615ZM182.896 49.36C181.544 49.36 180.348 49.084 179.308 48.532C178.276 47.972 177.468 47.192 176.884 46.192C176.3 45.184 176.008 44 176.008 42.64V31.732L178.552 31.72V42.508C178.552 43.244 178.676 43.892 178.924 44.452C179.172 45.012 179.504 45.48 179.92 45.856C180.336 46.232 180.8 46.516 181.312 46.708C181.832 46.9 182.36 46.996 182.896 46.996C183.44 46.996 183.968 46.9 184.48 46.708C185 46.508 185.468 46.22 185.884 45.844C186.3 45.468 186.628 45 186.868 44.44C187.116 43.88 187.24 43.236 187.24 42.508V31.72H189.784V42.64C189.784 43.992 189.492 45.172 188.908 46.18C188.324 47.188 187.512 47.972 186.472 48.532C185.44 49.084 184.248 49.36 182.896 49.36ZM198.097 49.348C196.521 49.348 195.237 49 194.245 48.304C193.253 47.608 192.645 46.628 192.421 45.364L194.989 44.968C195.149 45.64 195.517 46.172 196.093 46.564C196.677 46.948 197.401 47.14 198.265 47.14C199.049 47.14 199.661 46.98 200.101 46.66C200.549 46.34 200.773 45.9 200.773 45.34C200.773 45.012 200.693 44.748 200.533 44.548C200.381 44.34 200.057 44.144 199.561 43.96C199.065 43.776 198.309 43.548 197.293 43.276C196.181 42.988 195.297 42.68 194.641 42.352C193.993 42.016 193.529 41.628 193.249 41.188C192.977 40.74 192.841 40.2 192.841 39.568C192.841 38.784 193.049 38.1 193.465 37.516C193.881 36.932 194.465 36.48 195.217 36.16C195.977 35.84 196.865 35.68 197.881 35.68C198.873 35.68 199.757 35.836 200.533 36.148C201.309 36.46 201.937 36.904 202.417 37.48C202.897 38.048 203.185 38.716 203.281 39.484L200.713 39.952C200.625 39.328 200.333 38.836 199.837 38.476C199.341 38.116 198.697 37.92 197.905 37.888C197.145 37.856 196.529 37.984 196.057 38.272C195.585 38.552 195.349 38.94 195.349 39.436C195.349 39.724 195.437 39.968 195.613 40.168C195.797 40.368 196.149 40.56 196.669 40.744C197.189 40.928 197.957 41.148 198.973 41.404C200.061 41.684 200.925 41.996 201.565 42.34C202.205 42.676 202.661 43.08 202.933 43.552C203.213 44.016 203.353 44.58 203.353 45.244C203.353 46.524 202.885 47.528 201.949 48.256C201.021 48.984 199.737 49.348 198.097 49.348Z" fill="white"/>
<path d="M228 52L225.863 49.9L234.263 41.5H216V38.5H234.263L225.863 30.1L228 28L240 40L228 52Z" fill="white"/>
</svg>
