<svg width="89" height="89" viewBox="0 0 89 89" fill="none" xmlns="http://www.w3.org/2000/svg">
<circle cx="44.5" cy="44.5" r="44.5" fill="#E8F0F7"/>
<path d="M56.9949 27.7512C56.9898 24.9383 55.0535 23.007 52.2637 23.0036C47.4452 23.0001 42.6267 23.0001 37.8083 23.0036C35.0082 23.007 33.0086 24.9933 33.0069 27.7958C32.9984 39.2774 32.9984 50.7572 33.0069 62.2388C33.0086 65.0189 34.9859 66.9932 37.7416 66.995C42.5327 67.0018 47.3221 67.0001 52.1132 66.9932C55.0586 66.9881 56.983 65.0602 56.9847 62.1064C56.9898 56.4086 56.9864 50.7125 56.9864 45.0147H56.9983C56.9983 39.2602 57.0069 33.5057 56.9949 27.7512ZM42.235 25.7545C42.389 25.5982 42.6028 25.5019 42.8406 25.5019H47.464C47.9361 25.5019 48.321 25.8868 48.321 26.3628C48.321 26.6016 48.2252 26.8164 48.0695 26.9711C47.9139 27.1274 47.7001 27.2236 47.464 27.2236H42.8406C42.3667 27.2236 41.9836 26.8388 41.9836 26.3628C41.9836 26.124 42.0794 25.9092 42.235 25.7545ZM40.6374 25.5019C41.1112 25.5019 41.4944 25.8868 41.4944 26.3628C41.4944 26.8388 41.1112 27.2236 40.6374 27.2236C40.1636 27.2236 39.7805 26.8388 39.7805 26.3628C39.7805 25.8868 40.1653 25.5019 40.6374 25.5019ZM44.9222 65.6255C43.7711 65.6306 42.8782 64.7148 42.8953 63.5464C42.9107 62.4175 43.7967 61.5222 44.9017 61.5154C46.0375 61.5068 46.9389 62.4415 46.9269 63.6117C46.915 64.744 46.0409 65.6221 44.9222 65.6255ZM54.8654 60.0548H35.4324V29.5846H54.8654V60.0548Z" fill="#0B60FF"/>
</svg>
