<svg width="87" height="87" viewBox="0 0 87 87" fill="none" xmlns="http://www.w3.org/2000/svg">
<circle opacity="0.05" cx="43.5" cy="43.5" r="43.5" fill="#0F63FF"/>
<path d="M63.9867 26.2891C63.9867 24.9026 63.0587 24 61.6533 24C51.3119 24 40.9705 24 30.6291 24C29.237 24 28.3619 24.8895 28.3619 26.2498C28.3619 27.2701 28.3619 28.2904 28.3619 29.363C27.699 29.363 27.1024 29.363 26.5191 29.363C24.9016 29.3891 24 30.2655 24 31.8483C24 40.5468 24 49.2453 24 57.9438C24 59.5134 24.875 60.3767 26.4528 60.3767C30.2976 60.3767 34.1425 60.3767 37.9874 60.3767H40.5595C40.5595 61.3447 40.5595 62.2211 40.5595 63.1105C40.5595 63.8954 40.6656 64 41.4876 64C44.6032 64 47.7189 64 50.8346 64C51.6301 64 51.7892 63.843 51.8024 63.0451C51.8024 62.1818 51.8024 61.3185 51.8024 60.3767H52.5847C54.1492 60.3767 55.7269 60.3767 57.2913 60.3767C58.8293 60.3636 59.6513 59.5396 59.6513 58.0353C59.6513 57.0412 59.6513 56.0471 59.6513 55.0137C60.3805 55.0137 61.0169 55.0137 61.6533 55.0137C63.0454 55.0007 64 54.1112 64 52.7377C64 43.9084 64 35.1053 63.9867 26.2891ZM29.4624 26.0013C29.4756 25.6874 29.9662 25.3604 30.2976 25.138C30.4833 25.0072 30.8147 25.0726 31.0799 25.0726C41.1163 25.0726 51.1395 25.0726 61.176 25.0726C62.6477 25.0726 62.8996 25.3342 62.8996 26.7992C62.8996 28.1073 62.8996 29.4153 62.8996 30.8149H62.0776C55.7401 30.8149 49.3895 30.8149 43.052 30.828C42.5747 30.828 42.23 30.7103 41.9118 30.344C41.355 29.7162 40.7981 29.1014 40.1617 28.5651C39.8568 28.3035 39.406 28.0942 39.0083 28.0811C37.4173 28.0288 35.8263 28.0549 34.2353 28.0549C33.347 28.0549 33.0156 28.395 33.0023 29.2845C33.0023 29.7162 33.0023 30.1609 32.9891 30.5925C32.9891 30.6318 32.9758 30.671 32.9493 30.7626H29.4226C29.4226 29.1668 29.3828 27.584 29.4624 26.0013ZM40.5462 58.2838V59.291C40.2943 59.3041 40.0955 59.3172 39.9098 59.3172C35.4418 59.3172 30.9871 59.3172 26.5191 59.3172C25.4849 59.3172 25.1004 58.964 25.1004 57.9699C25.1004 49.2583 25.1004 40.5337 25.1004 31.8221C25.1004 30.8542 25.4717 30.4879 26.466 30.4617C27.0759 30.4487 27.6858 30.4617 28.3487 30.4617V31.325C28.3487 38.4147 28.3487 45.4912 28.3487 52.5808C28.3487 54.2158 29.1574 55.0137 30.828 55.0137C34.3149 55.0137 37.8018 55.0137 41.302 55.0137C42.3759 55.0137 42.4819 55.1315 42.4687 56.2433C42.4289 56.2695 42.3891 56.2956 42.3494 56.3087C40.5993 56.4787 40.5462 56.5311 40.5462 58.2838ZM45.5844 46.7077C45.5844 46.8254 45.3855 46.9562 45.2529 47.0477C44.5767 47.5317 44.3381 48.2381 44.5635 49.0098C44.7491 49.6377 45.412 50.1086 46.1279 50.1347C46.8306 50.1609 47.5068 49.6638 47.7587 48.9313C47.9973 48.2381 47.7322 47.5971 47.056 47.0608C46.8704 46.9169 46.7246 46.6292 46.698 46.3937C46.645 45.792 46.6848 45.1772 46.6848 44.5625C46.6848 44.5232 46.7246 44.4971 46.7908 44.3532C48.3553 47.1393 49.88 49.86 51.4445 52.6331C49.7474 53.261 48.7531 54.412 48.7133 56.2695H43.6354C43.5161 54.5036 42.641 53.2348 40.8512 52.6069C42.4156 49.8339 43.9271 47.1262 45.465 44.4186C45.5048 44.4186 45.5578 44.4317 45.5976 44.4317C45.5976 45.1772 45.6109 45.9359 45.5844 46.7077ZM46.1279 47.8849C46.3666 47.9503 46.5522 48.2642 46.7643 48.4735C46.5522 48.6566 46.3666 48.9706 46.1279 48.9967C45.9423 49.0229 45.7037 48.722 45.3192 48.4604C45.7037 48.1727 45.9688 47.8457 46.1279 47.8849ZM50.6357 62.8882H41.6334C41.6334 61.1354 41.6202 59.4218 41.6467 57.7083C41.6467 57.5906 41.8853 57.3944 42.0179 57.3944C44.8684 57.3813 47.7057 57.3813 50.6357 57.3813V62.8882ZM58.5774 58.2184C58.5641 58.8463 58.1664 59.291 57.5565 59.291C55.6606 59.3172 53.7647 59.3041 51.7892 59.3041V57.9699C51.7892 56.675 51.4577 56.3349 50.1717 56.2956C50.0921 56.2956 49.9993 56.2825 49.9198 56.2695C49.7077 55.2492 49.9065 54.9745 50.8876 54.9745H58.5774C58.5774 56.1387 58.6039 57.1851 58.5774 58.2184ZM62.8863 52.3453C62.8863 53.6272 62.5814 53.9281 61.2953 53.9281H51.2854C51.5108 53.7842 51.5771 53.7319 51.6434 53.7057C52.5449 53.3264 52.757 52.7508 52.2797 51.8875C50.5297 48.7744 48.7796 45.6481 47.003 42.5481C46.8306 42.2603 46.4196 41.9333 46.1279 41.9464C45.8363 41.9464 45.4385 42.2865 45.2662 42.5873C43.5426 45.5958 41.8455 48.6174 40.1485 51.639C39.4723 52.8293 39.6049 53.2479 40.9175 53.8757C40.7186 53.9019 40.5993 53.9281 40.4932 53.9281C37.2184 53.9281 33.9569 53.9281 30.6821 53.9281C29.8336 53.9281 29.4093 53.5226 29.4093 52.6854C29.4093 45.8574 29.4093 39.0425 29.4093 32.2145C29.4093 32.123 29.4226 32.0445 29.4491 31.8483H31.9417C34.0497 31.8483 34.0497 31.8483 34.063 29.7946V29.0752C35.76 29.0752 37.4173 29.0621 39.0613 29.0883C39.2204 29.0883 39.3928 29.2714 39.5254 29.4022C40.1485 30.017 40.7849 30.6318 41.3682 31.2727C41.7527 31.7044 42.1903 31.8483 42.7604 31.8483C49.1906 31.8352 55.6208 31.8483 62.051 31.8221C62.7007 31.8221 62.9128 31.9529 62.9128 32.6331C62.8863 39.2256 62.8863 45.792 62.8863 52.3453Z" fill="#3C83CB"/>
<path d="M51.2585 38.7155C52.2794 39.5918 53.3268 40.4159 54.2681 41.3446C55.3553 42.4303 56.0182 43.7907 56.4424 45.2557C56.5485 45.6089 56.6546 45.7527 57.0523 45.7658C58.2853 45.8051 58.4842 46.0405 58.4975 47.257C58.4975 47.8849 58.5107 48.5258 58.4842 49.1537C58.4709 49.8077 58.1395 50.187 57.4766 50.2262C56.6678 50.2655 55.8458 50.2655 55.0238 50.2262C54.3742 50.2001 54.0029 49.7946 53.9764 49.1144C53.9499 48.3688 53.9499 47.6363 53.9764 46.8907C54.0029 46.1321 54.2813 45.9228 55.342 45.7135C54.9443 42.7835 51.5236 39.5003 48.514 39.0686C48.1428 40.1674 48.0765 40.2066 46.8568 40.2066C46.3662 40.2066 45.8889 40.2066 45.3984 40.2066C44.2847 40.2066 44.1256 40.0889 43.8074 39.0686C40.9171 39.4218 37.3904 42.8227 36.9661 45.6089C37.3639 45.792 37.8147 45.8835 38.1196 46.1452C38.5704 46.5376 38.5571 49.4414 38.1196 49.8469C37.8942 50.0562 37.5495 50.2001 37.2446 50.2262C36.5154 50.2786 35.7862 50.2655 35.057 50.2393C34.2482 50.2132 33.9035 49.86 33.8902 49.0621C33.877 48.3819 33.877 47.7148 33.8902 47.0346C33.9035 46.119 34.1819 45.7789 35.0967 45.7789C35.6138 45.7789 35.7862 45.5827 35.932 45.1118C36.701 42.6788 38.1726 40.7429 40.347 39.3433C40.5989 39.1733 40.864 39.0294 41.2485 38.7939C40.9834 38.7547 40.8243 38.7155 40.6652 38.7155C39.3659 38.7155 38.0533 38.7285 36.754 38.7024C36.4093 38.7024 36.2104 38.7939 36.0381 39.1079C35.5608 39.945 34.5266 40.2851 33.572 39.9843C32.6572 39.6965 32.0473 38.8332 32.1004 37.8914C32.1667 36.858 32.8163 36.1517 33.9035 35.9424C34.7785 35.7724 35.7464 36.2563 36.1309 37.1066C36.2634 37.3943 36.343 37.6298 36.754 37.6167C39.0079 37.5905 41.2618 37.6036 43.5157 37.6036C43.5952 37.6036 43.688 37.5775 43.7543 37.5775C43.7941 37.5251 43.8206 37.4859 43.8339 37.4467C43.9267 35.9162 44.099 35.7593 45.6635 35.7593C46.1276 35.7593 46.5916 35.7593 47.0556 35.7593C48.0367 35.7724 48.3417 36.0732 48.3682 37.0542C48.3682 37.1981 48.3814 37.3551 48.3947 37.5513C48.6068 37.5644 48.7925 37.6036 48.9781 37.6036C51.0994 37.6036 53.2207 37.6036 55.342 37.6167C55.7265 37.6167 55.9519 37.5644 56.1242 37.1327C56.469 36.2563 57.4368 35.7724 58.3251 35.9293C59.4255 36.1255 60.1282 36.845 60.1812 37.826C60.2343 38.8724 59.7305 39.6442 58.8024 39.9581C57.7948 40.2851 56.8534 39.9581 56.2568 39.0948C56.1375 38.9247 55.9121 38.7155 55.7265 38.7155C54.2283 38.7024 52.7169 38.7155 51.2585 38.7155ZM44.9873 39.1471C45.7961 39.1471 46.5651 39.1471 47.3208 39.1471C47.3208 38.3754 47.3208 37.6429 47.3208 36.8842C46.4988 36.8842 45.7431 36.8842 44.9873 36.8842C44.9873 37.6559 44.9873 38.3884 44.9873 39.1471ZM37.2976 49.1406C37.2976 48.3557 37.2976 47.6232 37.2976 46.8907C36.4756 46.8907 35.7199 46.8907 34.9907 46.8907C34.9907 47.6756 34.9907 48.4211 34.9907 49.1406C35.8127 49.1406 36.5419 49.1406 37.2976 49.1406ZM57.3705 46.9038C56.5352 46.9038 55.7795 46.9038 55.0503 46.9038C55.0503 47.6886 55.0503 48.4211 55.0503 49.1406C55.8591 49.1406 56.6015 49.1406 57.3705 49.1406C57.3705 48.3557 57.3705 47.6494 57.3705 46.9038ZM59.1206 38.0353C59.1339 37.4728 58.6698 36.9627 58.113 36.9365C57.5959 36.9104 57.0391 37.4467 57.0125 37.9699C56.986 38.5062 57.4898 39.0163 58.0467 39.0294C58.6566 39.0555 59.0941 38.637 59.1206 38.0353ZM35.2558 38.0614C35.2691 37.4336 34.805 36.9365 34.2217 36.9496C33.6914 36.9627 33.2406 37.4205 33.2141 37.9699C33.1875 38.5585 33.6251 39.0294 34.2084 39.0425C34.8316 39.0555 35.2426 38.6762 35.2558 38.0614Z" fill="#3C83CB"/>
<path d="M61.6266 27.9108C61.6399 28.7218 60.977 29.4281 60.155 29.4674C59.3595 29.5066 58.5772 28.7479 58.5905 27.937C58.5905 27.1129 59.2534 26.4589 60.1019 26.4589C60.9637 26.4589 61.6134 27.0736 61.6266 27.9108Z" fill="#3C83CB"/>
<path d="M57.9543 28.0026C57.9278 28.8266 57.2118 29.5068 56.4031 29.4676C55.5943 29.4283 54.9049 28.7089 54.9182 27.9241C54.9314 27.0739 55.6208 26.4329 56.5091 26.4591C57.3444 26.4852 57.9808 27.1523 57.9543 28.0026Z" fill="#3C83CB"/>
<path d="M54.2817 27.9239C54.295 28.7479 53.5525 29.4935 52.7305 29.4674C51.9085 29.4412 51.2456 28.761 51.2456 27.937C51.2456 27.0998 51.8953 26.4589 52.757 26.4589C53.6056 26.4589 54.2685 27.0998 54.2817 27.9239Z" fill="#3C83CB"/>
</svg>
