<svg width="80" height="80" viewBox="0 0 80 80" fill="none" xmlns="http://www.w3.org/2000/svg">
<path d="M79.9932 39.1384C79.9932 38.482 79.3395 37.9897 78.6858 37.9897C78.0322 37.9897 77.4602 38.564 77.5419 39.3025C77.6236 40.4512 77.2151 41.4358 76.398 42.1743C75.5809 42.9128 74.3553 43.4051 72.9662 43.7333C72.6394 41.9281 72.0674 40.2051 71.2503 38.5641C71.0052 38.0717 70.7601 37.5794 70.4332 37.0871C65.449 28.1435 53.356 21.9076 39.3021 21.9076C36.3605 21.9076 33.419 22.2358 30.7226 22.7282C30.5592 22.3999 30.3958 22.0717 30.2324 21.7435L10.4588 15.5897C9.80509 15.4256 9.23313 16.082 9.64167 16.6564C11.521 19.282 14.7076 24.6153 14.2174 30.2769C10.3771 33.3128 7.59894 37.0871 6.2916 41.2717H3.02324C1.38905 41.2717 0 42.5846 0 44.3076V53.4153C0 55.0564 1.30734 56.4512 3.02324 56.4512H8.0892C9.8868 59.4871 12.4198 62.1128 15.6064 64.4102V77.5384C15.6064 78.8512 16.6687 79.9999 18.0577 79.9999H27.536C28.8433 79.9999 29.9872 78.9333 29.9872 77.5384V70.482C32.9288 71.1384 36.1154 71.4666 39.3021 71.4666C42.5704 71.4666 45.6754 71.1384 48.6169 70.482V77.5384C48.6169 78.8512 49.6791 79.9999 51.0682 79.9999H60.5464C61.8538 79.9999 62.9977 78.9333 62.9977 77.5384V64.4102C69.2893 59.9794 73.2113 53.7435 73.2113 46.8512C73.2113 46.6051 73.2113 46.441 73.2113 46.1948C75.0089 45.7846 76.8065 45.1282 78.0322 43.9794C79.4212 42.6666 80.0749 41.0256 79.9932 39.1384ZM20.7541 44.0615C18.0577 44.0615 15.9333 41.8461 15.9333 39.2205C15.9333 36.5128 18.1394 34.3794 20.7541 34.3794C23.4505 34.3794 25.5749 36.5948 25.5749 39.2205C25.5749 41.8461 23.4505 44.0615 20.7541 44.0615Z" fill="#0B56E4"/>
<path d="M50.006 39.7128C60.8733 39.7128 69.7796 30.8513 69.7796 19.8564C69.7796 8.94359 60.955 0 50.006 0C39.1387 0 30.2324 8.86154 30.2324 19.8564C30.3141 30.8513 39.1387 39.7128 50.006 39.7128ZM43.7961 11.159C44.8583 10.2564 46.4108 9.68205 48.5353 9.4359V7.38462H51.6402V9.35385C53.6012 9.4359 55.5622 9.92821 57.605 10.8308L55.8074 15.0974C53.7646 14.1949 51.8853 13.7026 50.2511 13.7026C49.4341 13.7026 48.9438 13.7846 48.617 14.0308C48.2901 14.1949 48.1267 14.5231 48.1267 14.8513C48.1267 15.1795 48.2084 15.4256 48.4536 15.6718C48.6987 15.918 49.1072 16.1641 49.6792 16.4103C50.2512 16.6564 51.0682 16.9846 52.0487 17.3128C54.0915 18.0513 55.5622 18.8718 56.461 19.8564C57.3598 20.759 57.8501 21.9897 57.8501 23.4667C57.8501 25.1077 57.3598 26.5026 56.2976 27.5692C55.2354 28.6359 53.6829 29.2923 51.7219 29.5385V32.4103H48.617V29.6205C46.4925 29.5385 44.3681 29.0462 42.3254 28.1436V23.2205C43.4693 23.7949 44.6949 24.2872 46.084 24.6974C47.3913 25.1077 48.617 25.2718 49.5975 25.2718C50.4146 25.2718 51.0682 25.1897 51.4768 24.9436C51.8853 24.7795 52.0487 24.3692 52.0487 23.959C52.0487 23.6308 51.8853 23.3846 51.6402 23.1385C51.3951 22.8923 50.9048 22.6462 50.2511 22.4C49.5975 22.0718 48.6987 21.7436 47.5548 21.3333C46.3291 20.841 45.2669 20.3487 44.5315 19.7744C43.7961 19.2 43.2242 18.5436 42.8156 17.8051C42.4888 17.0667 42.3254 16.1641 42.3254 15.0974C42.2437 13.3744 42.8156 12.1436 43.7961 11.159Z" fill="#FBB040"/>
<path d="M51.9672 17.3128C50.9867 16.9846 50.1696 16.6564 49.5976 16.4103C49.0257 16.1641 48.6171 15.918 48.372 15.6718C48.1269 15.4257 48.0452 15.1795 48.0452 14.8513C48.0452 14.4411 48.2086 14.1949 48.5354 14.0308C48.8623 13.8667 49.4342 13.7026 50.1696 13.7026C51.8038 13.7026 53.6831 14.1949 55.7258 15.0975L57.5234 10.8308C55.5624 9.92823 53.5197 9.51798 51.5587 9.35388V7.38464H48.4537V9.43593C46.3293 9.68208 44.7768 10.2564 43.7146 11.159C42.6524 12.0616 42.1621 13.3744 42.1621 15.0154C42.1621 16.0821 42.3255 16.9846 42.6524 17.7231C42.9792 18.4616 43.5512 19.118 44.3683 19.6923C45.1036 20.2667 46.1659 20.759 47.3915 21.2513C48.5354 21.6616 49.4342 21.9898 50.0879 22.318C50.7416 22.6462 51.2318 22.8923 51.4769 23.0564C51.7221 23.3026 51.8855 23.5487 51.8855 23.877C51.8855 24.3693 51.7221 24.6975 51.3135 24.8616C50.905 25.0257 50.333 25.1898 49.4342 25.1898C48.4537 25.1898 47.2281 25.0257 45.9207 24.6154C44.6134 24.2052 43.306 23.7128 42.1621 23.1385V28.0616C44.2048 28.9641 46.2476 29.4564 48.4537 29.5385V32.3282H51.5587V29.4564C53.6014 29.2103 55.0721 28.5539 56.1344 27.4872C57.1966 26.4205 57.6868 25.1077 57.6868 23.3846C57.6868 21.9077 57.1966 20.677 56.2978 19.7744C55.5624 18.8718 54.0916 18.0513 51.9672 17.3128Z" fill="white"/>
<path d="M50.006 0.0820312C39.1387 0.0820312 30.2324 8.94357 30.2324 19.9384C30.2324 30.8513 39.057 39.7949 50.006 39.7949C60.955 39.7949 69.7796 30.9333 69.7796 19.9384C69.7796 8.94357 60.955 0.0820312 50.006 0.0820312ZM50.006 36.5128C40.8546 36.5128 33.4191 29.1282 33.4191 19.8564C33.4191 10.6666 40.8546 3.19998 50.006 3.19998C59.1574 3.19998 66.593 10.6666 66.593 19.8564C66.593 29.1282 59.1574 36.5128 50.006 36.5128Z" fill="#FBB040"/>
</svg>
