<svg width="80" height="80" viewBox="0 0 80 80" fill="none" xmlns="http://www.w3.org/2000/svg">
<path d="M52.4535 6.93788C52.1253 7.06287 51.7034 7.28162 51.5315 7.4535C51.1722 7.766 50.6253 8.78166 50.6253 9.10974C50.6253 9.26602 50.1409 9.48477 49.2816 9.75038C48.5472 9.98473 47.3597 10.4848 46.6253 10.8597L45.2972 11.5472L44.7503 11.2192C44.094 10.8285 42.9066 10.7973 42.2503 11.141C42.0003 11.266 41.1566 12.0316 40.3597 12.8441C39.2503 13.9847 38.9066 14.4379 38.8284 14.891C38.7034 15.5785 38.7971 16.4691 39.0628 17.1097C39.2503 17.5472 39.2035 17.7035 38.4691 19.2972C38.0316 20.2503 37.5628 21.4066 37.4222 21.891C37.2035 22.6878 37.1253 22.7817 36.6878 22.8754C36.0472 23.0004 35.219 23.641 34.9066 24.2503C34.6097 24.8128 34.4378 27.2035 34.5941 28.4848C34.6565 28.9691 34.8597 29.5941 35.0472 29.8754C35.4691 30.5004 36.3285 31.0941 36.8128 31.0941C37.1097 31.0941 37.2035 31.2347 37.4222 31.9847C37.5628 32.4848 38.0316 33.6878 38.4691 34.6566L39.2659 36.4222L39.0159 36.9691C38.6878 37.6254 38.6722 38.9223 38.969 39.5004C39.3597 40.2503 42.0628 42.7504 42.7034 42.9691C43.3753 43.1879 44.2346 43.0785 44.8753 42.6879C45.2816 42.4535 45.3441 42.4691 46.9847 43.2347C47.9066 43.6722 49.1097 44.1566 49.6409 44.2973C50.5315 44.5472 50.6097 44.5941 50.6878 45.0941C50.8284 45.7817 51.4847 46.5472 52.2659 46.891C53.2346 47.3285 56.5159 47.3129 57.4535 46.8597C58.2035 46.5004 58.6565 45.9535 58.8597 45.1566C59.0003 44.641 59.0784 44.5785 60.5941 44.0473C61.4847 43.7348 62.6722 43.266 63.2659 42.9847L64.3285 42.5004L65.0159 42.8128C66.3909 43.4222 67.1409 43.1723 68.9222 41.4535C70.5628 39.8754 71.0159 39.0629 70.8753 38.016C70.8284 37.641 70.6722 37.1254 70.5315 36.9067C70.2972 36.5004 70.3128 36.4222 70.9534 35.0785C71.3128 34.2973 71.7971 33.1097 72.0316 32.4222C72.4378 31.2816 72.5003 31.1723 72.9847 31.0473C73.766 30.8441 74.3128 30.391 74.6722 29.641C74.9534 29.0629 75.0003 28.6722 75.0003 26.9535C75.0003 24.1879 74.6409 23.4691 73.0003 22.9067C72.5003 22.7348 72.4065 22.6098 72.1722 21.8441C72.0316 21.3754 71.5472 20.2035 71.1097 19.2347L70.2972 17.4848L70.6097 16.8128C71.3128 15.391 71.0159 14.641 68.969 12.641C67.8128 11.5004 67.2659 11.0785 66.7971 10.9535C66.1409 10.7817 65.3596 10.891 64.7191 11.2347C64.3909 11.4066 64.1566 11.3442 62.8441 10.766C62.0159 10.4066 60.8441 9.93786 60.2346 9.75038C59.1253 9.39103 59.0628 9.35976 58.7347 8.46909C58.5003 7.8285 57.8284 7.17225 57.1566 6.92225C56.4378 6.67225 53.1878 6.68787 52.4535 6.93788ZM56.5628 9.84412C56.8753 10.9847 57.5003 11.5004 59.1878 12.0316C60.0316 12.2816 61.3441 12.8285 62.1097 13.2192C63.7034 14.0473 64.766 14.2035 65.5159 13.7035C65.7503 13.5629 66.0159 13.4379 66.1253 13.4379C66.2503 13.4379 66.8128 13.9223 67.4065 14.516L68.4691 15.5785L68.1409 16.1097C67.5941 17.016 67.6878 17.9847 68.5003 19.5472C68.8753 20.266 69.4222 21.5629 69.6878 22.4222C70.2816 24.2035 70.9378 25.0316 71.9378 25.2192L72.5003 25.3285V26.9535V28.5785L71.8441 28.766C70.8128 29.0316 70.2659 29.7191 69.7816 31.266C69.5628 32.016 69.0316 33.3285 68.5941 34.1879C67.6878 36.0004 67.5784 36.8754 68.1409 37.7973L68.4691 38.3285L67.3128 39.4848L66.1409 40.641L65.5472 40.2973C64.5941 39.7348 63.7503 39.8285 62.1878 40.6722C61.4535 41.0629 60.1566 41.6098 59.2972 41.891C57.5941 42.4379 56.8128 43.016 56.6409 43.8441C56.5784 44.0941 56.5159 44.391 56.4691 44.4848C56.4378 44.6254 55.9534 44.6879 54.7815 44.6879H53.1566L53.0628 44.1254C53.0003 43.8285 52.7034 43.3129 52.4065 42.9691C51.969 42.4848 51.5941 42.2973 50.3753 41.891C49.5628 41.6254 48.2346 41.0785 47.4535 40.6879C45.7816 39.8285 44.9222 39.7348 43.969 40.2973L43.4065 40.6254L42.3285 39.5941C41.7347 39.016 41.2503 38.4691 41.2503 38.3598C41.2503 38.266 41.3909 37.9067 41.5784 37.5785C42.0316 36.6879 41.891 35.8441 41.0472 34.2192C40.6565 33.4848 40.1409 32.266 39.9066 31.4848C39.4065 29.8597 38.8597 29.1566 37.7972 28.766L37.1097 28.5004L37.0628 26.9847C37.0316 25.641 37.0472 25.4535 37.2972 25.3754C38.1253 25.0941 38.9534 24.6098 39.1566 24.2816C39.2972 24.0785 39.6409 23.2035 39.9534 22.3129C40.2503 21.4379 40.7972 20.1254 41.1878 19.391C41.969 17.8754 42.0316 17.3129 41.5472 16.2816L41.2035 15.5941L42.3128 14.4848L43.4065 13.391L44.2346 13.7348C45.2972 14.2035 45.8284 14.1097 47.5159 13.2192C48.2346 12.8441 49.4222 12.3442 50.1566 12.1097C52.1878 11.4848 52.6409 11.0785 53.1722 9.48477C53.2659 9.25034 53.4847 9.21915 54.8284 9.21915H56.3909L56.5628 9.84412Z" fill="#22B573"/>
<path d="M52.6718 15.3121C50.1875 15.8433 48.2812 16.8589 46.4688 18.6714C45.2656 19.8589 44.9375 20.3121 44.3281 21.5621C43.2812 23.6714 43.0469 24.687 43.0469 27.0308C43.0469 29.2964 43.3438 30.484 44.4218 32.5777C44.9063 33.5308 45.3906 34.1558 46.4688 35.2339C48.0937 36.8433 49.1093 37.4996 51.0469 38.1715C52.8437 38.7809 55.3906 38.9371 57.2812 38.5308C58.8281 38.1871 61.0469 37.1246 62.2656 36.1402C64.1093 34.6402 65.6562 32.2183 66.25 29.9059C66.6407 28.3902 66.6718 25.7027 66.3125 24.2339C65.9687 22.7964 64.8437 20.5621 63.9063 19.4214C62.4375 17.6558 60.1093 16.1558 57.8906 15.5308C56.7969 15.2339 53.6875 15.1089 52.6718 15.3121ZM57.8281 18.1558C59.3594 18.7183 60.2656 19.3121 61.4062 20.4527C63.1875 22.2495 64.0625 24.3745 64.0625 26.9527C64.0625 29.5933 63.25 31.5777 61.4062 33.4527C57.25 37.6714 50.4218 37.0621 47.1093 32.1871C43.4688 26.812 46.2812 19.4996 52.6094 17.8902C53.9843 17.5464 56.5156 17.6714 57.8281 18.1558Z" fill="#22B573"/>
<path d="M7.65689 14.7659C6.68814 15.0785 5.81314 15.844 5.37565 16.7816L5.00064 17.5784V37.0472C5.00064 58.6566 4.93814 57.3441 6.04752 58.5003C7.20377 59.6878 6.11002 59.6097 20.2975 59.6566L33.0007 59.6878L32.9382 62.7034C32.8912 64.3441 32.7819 65.8909 32.6882 66.1097C32.5319 66.5003 32.4381 66.5316 31.1413 66.6253C27.11 66.9378 22.61 67.719 19.4537 68.6722C17.4225 69.2815 14.61 70.5472 14.0788 71.0785C13.6413 71.516 13.6413 72.391 14.0631 72.8129C14.5163 73.2659 15.1257 73.2035 16.5006 72.516C21.0788 70.2503 27.4226 69.1097 36.4381 68.9535C47.0631 68.7659 53.9851 69.7972 59.7194 72.4378C61.6413 73.3284 61.9851 73.3597 62.5006 72.7347C62.8132 72.3597 62.7663 71.4847 62.4381 71.1097C61.9851 70.6097 59.7663 69.5941 57.5006 68.844C54.3131 67.7972 50.5006 67.0785 45.9382 66.6722L43.8288 66.4847L43.7194 65.7816C43.6569 65.3909 43.5476 63.8597 43.5006 62.3909L43.3913 59.6878L56.1257 59.6566L68.86 59.6097L69.6256 59.1409C70.0944 58.844 70.5632 58.3753 70.86 57.9066L71.3288 57.1409L71.3757 51.0472L71.4225 44.9535L71.0788 44.594C70.6413 44.1253 69.8756 44.0941 69.36 44.516L68.9851 44.8128L68.9069 50.7034L68.8288 56.594L68.4537 56.8909C68.0944 57.1878 67.3913 57.1878 38.1725 57.1878H8.26626L7.89127 56.7972L7.50064 56.4222V37.1878V17.9378L7.95377 17.4847L8.40687 17.0316H21.9069H35.4226L35.7506 16.6722C36.1725 16.2191 36.1881 15.4691 35.7975 14.9846L35.5006 14.6097L21.9225 14.5784C10.6413 14.5628 8.23499 14.594 7.65689 14.7659ZM40.9851 62.3753C41.0475 63.8597 41.1413 65.3753 41.1881 65.7347L41.2975 66.4065H38.2038C35.3287 66.4065 35.1257 66.3909 35.235 66.1253C35.3131 65.9846 35.3913 64.4691 35.4381 62.7659L35.5006 59.6878H38.2038H40.8912L40.9851 62.3753Z" fill="#22B573"/>
<path d="M14.0313 43.2502C11.8125 45.4689 11.5625 45.7658 11.5625 46.2502C11.5625 46.719 11.8125 47.0314 13.9531 49.172C15.25 50.5002 16.4844 51.6095 16.6875 51.6721C17.5 51.8752 18.4062 50.9846 18.2031 50.2033C18.1406 49.9533 17.3593 49.0158 16.3125 47.9689L14.5312 46.1564L16.3438 44.3752C17.3282 43.3908 18.1719 42.4221 18.2187 42.2346C18.3906 41.5627 17.7344 40.7971 16.9531 40.7814C16.5625 40.7814 16.125 41.1564 14.0313 43.2502Z" fill="#22B573"/>
<path d="M24.6265 41.1413C24.3609 41.4225 24.0328 42.4694 23.1422 46.0162C22.189 49.8756 22.0484 50.5944 22.189 50.9538C22.5328 51.7819 23.814 51.9382 24.2828 51.2038C24.6109 50.7194 26.7515 42.0632 26.6421 41.7038C26.5015 41.2975 25.7984 40.7819 25.3609 40.7819C25.1578 40.7819 24.8297 40.9382 24.6265 41.1413Z" fill="#22B573"/>
<path d="M31.0802 40.9846C30.6896 41.2815 30.4397 41.8752 30.5334 42.2346C30.5803 42.4221 31.424 43.3908 32.4084 44.3752L34.2209 46.1564L32.4397 47.9689C31.3928 49.0158 30.6115 49.9533 30.549 50.2033C30.3458 50.9846 31.2521 51.8752 32.0646 51.6721C32.2678 51.6095 33.5021 50.5002 34.8146 49.172C36.9396 47.0314 37.1896 46.719 37.1896 46.2502C37.1896 45.7658 36.9396 45.4689 34.7209 43.2502C32.6271 41.1564 32.1896 40.7814 31.799 40.7814C31.5334 40.7814 31.2209 40.8752 31.0802 40.9846Z" fill="#22B573"/>
</svg>
