<svg width="82" height="92" viewBox="0 0 82 92" fill="none" xmlns="http://www.w3.org/2000/svg">
<path d="M67.0273 41.5326H76.7953C79.6777 41.5326 81.9996 43.8444 81.9996 46.7142V70.8684C81.9996 73.7383 79.6777 76.05 76.7953 76.05C73.913 76.05 71.5911 73.7383 71.5911 70.8684V51.8958L67.0273 41.5326Z" fill="#FBB040"/>
<path d="M2.0001 56.292L35.8555 90L75.7686 50.2607L41.9132 16.5527L2.0001 56.292Z" fill="white" stroke="#005EB8" stroke-width="4" stroke-miterlimit="10" stroke-linecap="round" stroke-linejoin="round"/>
<path d="M56.0596 41.5326L64.8668 50.2217L35.8831 79.0793L12.9844 56.2802L27.8766 41.5326H56.0596Z" fill="#FBB040"/>
<path d="M49.4916 44.0038C47.4099 44.0038 45.6484 42.3297 45.6484 40.1774V5.42078C45.6484 3.34813 47.3298 1.59436 49.4916 1.59436C51.6534 1.59436 53.3347 3.26842 53.3347 5.42078V40.1774C53.3347 42.25 51.6534 44.0038 49.4916 44.0038Z" fill="white"/>
<path d="M49.4913 3.18868C50.6923 3.18868 51.7332 4.14528 51.7332 5.42075V40.1774C51.7332 41.3731 50.7724 42.4094 49.4913 42.4094C48.2103 42.4094 47.2495 41.4528 47.2495 40.1774V5.42075C47.2495 4.225 48.2904 3.18868 49.4913 3.18868ZM49.4913 0C46.5289 0 44.0469 2.39151 44.0469 5.42075V40.1774C44.0469 43.1269 46.4488 45.5981 49.4913 45.5981C52.5338 45.5981 54.9358 43.2066 54.9358 40.1774V5.42075C54.9358 2.47123 52.5338 0 49.4913 0Z" fill="#005EB8"/>
<path d="M49.4933 45.3589C52.3676 45.3589 54.6976 43.039 54.6976 40.1773C54.6976 37.3156 52.3676 34.9957 49.4933 34.9957C46.6191 34.9957 44.2891 37.3156 44.2891 40.1773C44.2891 43.039 46.6191 45.3589 49.4933 45.3589Z" fill="white" stroke="#005EB8" stroke-width="4" stroke-miterlimit="10" stroke-linecap="round" stroke-linejoin="round"/>
</svg>
