<svg width="80" height="80" viewBox="0 0 80 80" fill="none" xmlns="http://www.w3.org/2000/svg">
<path d="M7.28125 2.67188C6.3125 2.90624 4.89063 3.73437 4.20313 4.48437C3.85939 4.85937 3.34376 5.64061 3.07812 6.21874L2.57812 7.26562V40.0156V72.75L3.15626 73.9375C3.85939 75.3594 4.76562 76.2344 6.21876 76.9219L7.26562 77.4219H40.0156H72.75L73.9375 76.8438C75.3594 76.1406 76.2344 75.2344 76.9219 73.7812L77.4219 72.7344V40V7.26562L76.9219 6.21874C76.2344 4.76561 75.3594 3.85938 73.9375 3.15624L72.75 2.57811L40.3281 2.54688C21.0938 2.54688 7.64062 2.59375 7.28125 2.67188ZM72.4062 5.18749C73.2656 5.43749 74.5625 6.73438 74.8125 7.59375C74.9219 7.96875 75 9.15625 75 10.375V12.5H40H5.00001V10.375C5.00001 9.15625 5.07812 7.96875 5.18751 7.59375C5.42189 6.79688 6.73438 5.45312 7.5 5.20312C8.32812 4.9375 71.5156 4.93749 72.4062 5.18749ZM75 43.375C75 65.2031 74.9531 71.9062 74.8125 72.4062C74.5625 73.2656 73.2656 74.5625 72.4062 74.8125C71.4688 75.0938 8.53125 75.0938 7.59375 74.8125C6.73438 74.5625 5.43751 73.2656 5.18751 72.4062C5.04689 71.9062 5.00001 65.2031 5.00001 43.375V15H40H75V43.375Z" fill="#FFB60F"/>
<path d="M7.5 8.75V10H8.75H10V8.75V7.5H8.75H7.5V8.75Z" fill="#FFB60F"/>
<path d="M12.5 8.75V10H13.75H15V8.75V7.5H13.75H12.5V8.75Z" fill="#FFB60F"/>
<path d="M17.5 8.75V10H18.75H20V8.75V7.5H18.75H17.5V8.75Z" fill="#FFB60F"/>
<path d="M30.5 19.0156C30.2031 19.25 29.9219 20.1875 28.8281 24.5312C28.0938 27.4062 27.5 29.9219 27.5 30.125C27.5 30.625 28.1719 31.25 28.7188 31.25C29.7031 31.25 29.7656 31.0938 31.1719 25.4688C31.9062 22.5938 32.5 20.0781 32.5 19.9062C32.5 19.0312 31.1875 18.4375 30.5 19.0156Z" fill="#FFB60F"/>
<path d="M12.8906 20.3906L12.5 20.7656V45V69.2344L12.8906 69.6094C13.3906 70.125 14.1094 70.125 14.6094 69.6094L15 69.2344V45V20.7656L14.6094 20.3906C14.375 20.1406 14.0469 20 13.75 20C13.4531 20 13.125 20.1406 12.8906 20.3906Z" fill="#FFB60F"/>
<path d="M22.2344 22.2344C19.2969 25.1719 19.2969 24.8281 22.2344 27.7656C24.1875 29.7188 24.5312 30 24.9688 30C25.6562 30 26.25 29.4062 26.25 28.7344C26.25 28.3125 26 27.9844 24.6562 26.6094L23.0625 25L24.5625 23.4688C25.3906 22.6406 26.1094 21.7969 26.1719 21.5938C26.4062 20.8125 25.7031 20 24.7969 20C24.5781 20 23.7344 20.7344 22.2344 22.2344Z" fill="#FFB60F"/>
<path d="M34.4375 20.1875C34.0625 20.3594 33.75 20.9375 33.75 21.4375C33.75 21.6406 34.3438 22.375 35.3438 23.375L36.9375 25L35.3438 26.625C34 27.9844 33.75 28.3125 33.75 28.7344C33.75 29.4062 34.3438 30 35.0312 30C35.4688 30 35.8125 29.7188 37.7656 27.7656C39.7656 25.7656 40 25.4844 40 25C40 24.5156 39.7656 24.2344 37.7656 22.2344C35.4531 19.9219 35.25 19.7969 34.4375 20.1875Z" fill="#FFB60F"/>
<path d="M23.75 37.5V38.75H26.25H28.75V37.5V36.25H26.25H23.75V37.5Z" fill="#FFB60F"/>
<path d="M31.25 37.5V38.75H35H38.75V37.5V36.25H35H31.25V37.5Z" fill="#FFB60F"/>
<path d="M28.75 42.5V43.75H40.625H52.5V42.5V41.25H40.625H28.75V42.5Z" fill="#FFB60F"/>
<path d="M56.25 42.5V43.75H61.875H67.5V42.5V41.25H61.875H56.25V42.5Z" fill="#FFB60F"/>
<path d="M28.75 47.5V48.75H30H31.25V47.5V46.25H30H28.75V47.5Z" fill="#FFB60F"/>
<path d="M33.75 47.5V48.75H45H56.25V47.5V46.25H45H33.75V47.5Z" fill="#FFB60F"/>
<path d="M58.75 47.5V48.75H63.125H67.5V47.5V46.25H63.125H58.75V47.5Z" fill="#FFB60F"/>
<path d="M23.75 52.5V53.75H26.25H28.75V52.5V51.25H26.25H23.75V52.5Z" fill="#FFB60F"/>
<path d="M31.25 52.5V53.75H35H38.75V52.5V51.25H35H31.25V52.5Z" fill="#FFB60F"/>
<path d="M28.75 57.5V58.75H40.625H52.5V57.5V56.25H40.625H28.75V57.5Z" fill="#FFB60F"/>
<path d="M56.25 57.5V58.75H61.875H67.5V57.5V56.25H61.875H56.25V57.5Z" fill="#FFB60F"/>
<path d="M28.75 62.5V63.75H35.625H42.5V62.5V61.25H35.625H28.75V62.5Z" fill="#FFB60F"/>
<path d="M45 62.5V63.75H46.25H47.5V62.5V61.25H46.25H45V62.5Z" fill="#FFB60F"/>
<path d="M52.5 62.5V63.75H57.5H62.5V62.5V61.25H57.5H52.5V62.5Z" fill="#FFB60F"/>
<path d="M23.75 68.75V70H26.25H28.75V68.75V67.5H26.25H23.75V68.75Z" fill="#FFB60F"/>
<path d="M31.25 68.75V70H35H38.75V68.75V67.5H35H31.25V68.75Z" fill="#FFB60F"/>
</svg>
