<svg width="80" height="80" viewBox="0 0 80 80" fill="none" xmlns="http://www.w3.org/2000/svg">
<path d="M47.6557 3.9066C44.1245 4.4066 40.7963 5.6566 37.9682 7.54722C36.1557 8.75033 35.4994 9.34409 35.3901 9.85972C35.2494 10.4691 35.4213 10.7191 37.6088 13.0628C39.7495 15.3753 39.8588 15.4066 41.3588 14.3129C43.4057 12.8128 45.5463 11.9066 47.9213 11.4847C55.515 10.1566 63.0151 15.0316 64.9057 22.516C65.3119 24.1253 65.6088 27.0316 65.3588 27.0316C65.2651 27.0316 64.7963 26.891 64.2963 26.7191C63.7963 26.5472 63.2182 26.4066 63.0151 26.4066C62.515 26.4066 61.8744 27.0785 61.8744 27.5785C61.8744 27.8128 62.7182 30.0785 63.765 32.6254C65.765 37.5785 66.062 38.0785 66.8901 37.9066C67.3901 37.8128 75.5776 32.6254 75.9838 32.1566C76.3432 31.7348 76.3276 31.0785 75.9526 30.6723C75.7807 30.4847 74.9682 30.1253 74.14 29.8441C72.9526 29.4535 72.6557 29.2972 72.7182 29.0941C72.9213 28.3753 72.9682 25.8285 72.812 24.2972C72.2651 18.8285 70.0775 14.1722 66.2338 10.3129C63.1713 7.23472 59.2807 5.14097 54.8588 4.21909C53.14 3.84409 49.2651 3.68784 47.6557 3.9066ZM54.2963 6.64097C62.2963 8.29722 68.3431 14.3441 70.0151 22.391C70.4057 24.2816 70.4838 27.5629 70.1713 29.3598C69.9838 30.4222 69.9838 30.5316 70.2651 30.9066C70.437 31.1253 70.9057 31.4222 71.3276 31.5629L72.0775 31.8128L69.7495 33.3129C68.1557 34.3284 67.3901 34.7347 67.3119 34.6097C67.1245 34.2972 65.3119 29.7972 65.3588 29.7503C65.3745 29.7347 65.6869 29.7972 66.0463 29.891C66.6401 30.0473 66.765 30.0316 67.14 29.7503C67.7338 29.3129 67.8275 28.8128 67.8432 26.4066C67.8589 24.1566 67.7026 23.016 67.0776 21.016C65.5932 16.2504 61.765 12.0473 57.2026 10.141C54.8744 9.17222 53.3119 8.85972 50.6244 8.84414C46.9838 8.82847 44.3588 9.51597 41.437 11.2659L40.1245 12.0628L39.7338 11.6878C39.515 11.5003 39.14 11.0785 38.8901 10.7503L38.437 10.1879L39.4213 9.56287C41.8432 8.0316 44.7182 6.92223 47.3431 6.50035C49.1713 6.20347 52.515 6.26597 54.2963 6.64097Z" fill="#AC11C1"/>
<path d="M22.2668 10.1562C19.9387 10.5781 18.0324 11.625 16.2512 13.4219C14.1887 15.5 13.2043 17.7187 13.0168 20.6406L12.923 22.1562L11.9074 22.2656C9.68867 22.5 7.87619 23.3594 6.31369 24.9219C2.07931 29.1719 3.34494 36.4375 8.78248 39.0469C10.3137 39.7812 11.3918 40 13.47 40H15.0012V44.6093V49.2344L15.3918 49.6093L15.7668 50H25.0012H34.2355L34.6105 49.6093L35.0012 49.2344V44.6093V40H36.2981C41.7668 40 46.2512 35.6719 46.2512 30.3907C46.2512 28.3125 45.47 26.1094 44.1575 24.3907C42.9699 22.8438 40.5793 21.2656 39.7512 21.4687C38.923 21.6875 38.5168 22.5469 38.9074 23.2813C38.9856 23.4375 39.4543 23.7812 39.9387 24.0625C42.8762 25.7187 44.3293 28.9843 43.5168 32.1094C43.1887 33.375 42.6105 34.3594 41.6731 35.3125C40.173 36.7969 38.4386 37.5 36.1418 37.5H35.0012V32.8906V28.2656L34.6105 27.8906L34.2355 27.5H25.0012H15.7668L15.3918 27.8906L15.0012 28.2656V32.9063V37.5313L13.0949 37.4687C11.3293 37.4219 11.0949 37.375 10.0793 36.9063C7.53244 35.7187 6.07931 33.2656 6.29806 30.5781C6.61056 26.9688 10.1575 24.2031 13.6731 24.8125C14.7199 24.9843 15.2981 24.8438 15.6105 24.3437C15.7825 24.0781 15.7825 23.7656 15.6105 22.5469C15.3449 20.5781 15.5637 19.1406 16.4074 17.3907C18.4231 13.2188 23.548 11.375 27.7512 13.2813C31.0481 14.7812 32.9544 17.75 32.9699 21.4375C32.9699 22.8906 33.0481 23.1094 33.6418 23.3594C34.22 23.6093 35.4074 23.375 35.9074 22.9219C36.3762 22.4844 36.3762 21.6563 35.8762 21.2031C35.6262 20.9688 35.4856 20.6094 35.4074 20C35.0481 17.25 34.1106 15.3281 32.1262 13.3594C30.5793 11.8125 29.3606 11.0781 27.4231 10.4687C26.173 10.0937 23.5325 9.92185 22.2668 10.1562ZM32.5012 33.75V37.5H25.0012H17.5012V33.75V30H25.0012H32.5012V33.75ZM32.5012 43.75V47.5H25.0012H17.5012V43.75V40H25.0012H32.5012V43.75Z" fill="#AC11C1"/>
<path d="M21.6406 32.8906C21.3906 33.125 21.25 33.4531 21.25 33.75C21.25 34.0469 21.3906 34.375 21.6406 34.6093C22.0156 35 22.0469 35 25 35C27.9531 35 27.9843 35 28.3594 34.6093C28.6093 34.375 28.75 34.0469 28.75 33.75C28.75 33.4531 28.6093 33.125 28.3594 32.8906C27.9843 32.5 27.9531 32.5 25 32.5C22.0469 32.5 22.0156 32.5 21.6406 32.8906Z" fill="#AC11C1"/>
<path d="M21.6406 42.8906C21.3906 43.125 21.25 43.4531 21.25 43.75C21.25 44.0469 21.3906 44.375 21.6406 44.6093C22.0156 45 22.0469 45 25 45C27.9531 45 27.9843 45 28.3594 44.6093C28.6093 44.375 28.75 44.0469 28.75 43.75C28.75 43.4531 28.6093 43.125 28.3594 42.8906C27.9843 42.5 27.9531 42.5 25 42.5C22.0469 42.5 22.0156 42.5 21.6406 42.8906Z" fill="#AC11C1"/>
<path d="M52.2668 36.4062C49.9387 36.8281 48.0324 37.875 46.2512 39.6719C44.1887 41.75 43.2043 43.9688 43.0168 46.8906L42.923 48.4062L41.9075 48.5156C39.6887 48.75 37.8762 49.6094 36.3137 51.1719C32.0793 55.4219 33.3449 62.6875 38.7825 65.2969C40.3137 66.0313 41.3918 66.25 43.47 66.25H45.0012V70.8594V75.4844L45.3918 75.8594L45.7668 76.25H55.0012H64.2355L64.6105 75.8594L65.0012 75.4844V70.8594V66.25H66.2981C71.7668 66.25 76.2512 61.9219 76.2512 56.6406C76.2512 52.7657 73.7356 49.0625 70.1418 47.6563C68.923 47.1875 66.845 46.8438 66.0012 46.9843C65.5168 47.0625 65.5168 47.0469 65.4074 46.2188C65.0481 43.4844 64.0949 41.5781 62.1262 39.6094C60.5793 38.0625 59.3606 37.3281 57.4231 36.7187C56.173 36.3438 53.5325 36.1719 52.2668 36.4062ZM55.8605 38.9219C57.8918 39.2969 59.9856 40.5938 61.1887 42.2188C62.4231 43.9063 62.9699 45.5781 62.9699 47.7657C62.9699 48.8594 63.0168 49.1094 63.2824 49.375C63.6887 49.7812 63.7668 49.7812 65.3918 49.5625C68.5325 49.1406 71.47 50.5938 72.8605 53.2344C74.3762 56.1562 73.923 59.2969 71.6731 61.5625C70.1731 63.0469 68.4386 63.75 66.1418 63.75H65.0012V59.1406V54.5156L64.6105 54.1406C64.2355 53.75 64.2043 53.75 61.2512 53.75C58.2981 53.75 58.2668 53.75 57.8918 54.1406C57.6419 54.375 57.5012 54.7032 57.5012 55C57.5012 55.2969 57.6419 55.625 57.8918 55.8594C58.2512 56.2344 58.3449 56.25 60.3918 56.25H62.5012V60V63.75H55.0012H47.5012V60V56.25H50.8605C54.2355 56.25 54.2355 56.25 54.6105 55.8594C54.8605 55.625 55.0012 55.2969 55.0012 55C55.0012 54.7032 54.8605 54.375 54.6105 54.1406L54.2355 53.75H50.0012H45.7668L45.3918 54.1406L45.0012 54.5156V59.1562V63.7812L43.0949 63.7187C41.3293 63.6719 41.0949 63.625 40.0793 63.1562C36.7043 61.5781 35.3449 57.8438 36.9544 54.5781C38.1887 52.0782 41.0168 50.5938 43.6731 51.0625C44.7199 51.2344 45.2981 51.0937 45.6105 50.5938C45.7825 50.3281 45.7825 50.0157 45.6105 48.7969C45.3449 46.8281 45.5637 45.3907 46.4074 43.6406C48.1106 40.125 51.9699 38.2031 55.8605 38.9219ZM62.5012 70V73.75H55.0012H47.5012V70V66.25H55.0012H62.5012V70Z" fill="#AC11C1"/>
<path d="M51.6406 59.1407C51.3906 59.375 51.25 59.7032 51.25 60C51.25 60.2969 51.3906 60.625 51.6406 60.8594C52.0156 61.25 52.0469 61.25 55 61.25C57.9531 61.25 57.9843 61.25 58.3594 60.8594C58.6093 60.625 58.75 60.2969 58.75 60C58.75 59.7032 58.6093 59.375 58.3594 59.1407C57.9843 58.75 57.9531 58.75 55 58.75C52.0469 58.75 52.0156 58.75 51.6406 59.1407Z" fill="#AC11C1"/>
<path d="M51.6406 69.1407C51.3906 69.375 51.25 69.7032 51.25 70C51.25 70.2969 51.3906 70.625 51.6406 70.8594C52.0156 71.25 52.0469 71.25 55 71.25C57.9531 71.25 57.9843 71.25 58.3594 70.8594C58.6093 70.625 58.75 70.2969 58.75 70C58.75 69.7032 58.6093 69.375 58.3594 69.1407C57.9843 68.75 57.9531 68.75 55 68.75C52.0469 68.75 52.0156 68.75 51.6406 69.1407Z" fill="#AC11C1"/>
</svg>
