<svg width="70" height="70" viewBox="0 0 70 70" fill="none" xmlns="http://www.w3.org/2000/svg">
<path d="M61.4407 70H8.63883C3.87536 70 0 66.129 0 61.371V8.62903C0 3.87097 3.87536 0 8.63883 0H61.3599C66.1234 0 69.9988 3.87097 69.9988 8.62903V61.2903C70.0795 66.129 66.2041 70 61.4407 70Z" fill="#0B56E4"/>
<path d="M7.83203 19.9193V61.2903C7.83203 61.7742 8.23572 62.1774 8.72014 62.1774H61.4412C61.9256 62.1774 62.3293 61.7742 62.3293 61.2903V19.9193H7.83203Z" fill="#F9F9FD"/>
<path d="M59.5842 12.6613C61.0557 12.6613 62.2485 11.4698 62.2485 10C62.2485 8.53025 61.0557 7.33875 59.5842 7.33875C58.1128 7.33875 56.9199 8.53025 56.9199 10C56.9199 11.4698 58.1128 12.6613 59.5842 12.6613Z" fill="#FAF9FD"/>
<path d="M50.5413 12.6613C52.0127 12.6613 53.2056 11.4698 53.2056 10C53.2056 8.53025 52.0127 7.33875 50.5413 7.33875C49.0698 7.33875 47.877 8.53025 47.877 10C47.877 11.4698 49.0698 12.6613 50.5413 12.6613Z" fill="#FAF9FD"/>
<path d="M41.4182 12.6613C42.8897 12.6613 44.0825 11.4698 44.0825 10C44.0825 8.53025 42.8897 7.33875 41.4182 7.33875C39.9468 7.33875 38.7539 8.53025 38.7539 10C38.7539 11.4698 39.9468 12.6613 41.4182 12.6613Z" fill="#FAF9FD"/>
<path d="M51.0271 42.8224V39.274L46.9095 38.3063C46.5865 37.016 46.1021 35.8063 45.4562 34.6773L47.6361 31.1289L45.1333 28.6289L41.5001 30.7256C40.3698 29.9998 39.1588 29.516 37.867 29.274L36.8174 25.1611H33.265L32.2961 29.274C31.0044 29.5966 29.7933 30.0805 28.663 30.7256L25.1106 28.5482L22.6077 31.0482L24.7876 34.5966C24.061 35.7257 23.5766 36.9353 23.3344 38.2257L19.2168 39.1934V42.7418L23.3344 43.7095C23.6573 44.9998 24.1417 46.2095 24.7876 47.3386L22.6077 50.8869L25.1106 53.4676L28.663 51.2902C29.7933 52.016 31.0044 52.4998 32.2961 52.7418L33.265 56.8547H36.8174L37.7862 52.7418C39.078 52.4192 40.2891 51.9353 41.4194 51.2902L44.9718 53.4676L47.4747 50.9676L45.2948 47.4192C46.0214 46.2902 46.5058 45.0805 46.748 43.7902L51.0271 42.8224Z" fill="#FBB040"/>
<path d="M35.0413 34.6774C31.4889 34.6774 28.6631 37.5806 28.7439 41.0483C28.7439 44.5967 31.6504 47.4193 35.1221 47.3387C38.6745 47.3387 41.5003 44.4354 41.4195 40.9677C41.4195 37.5 38.5938 34.6774 35.0413 34.6774Z" fill="#005EB8"/>
</svg>
