<svg width="80" height="80" viewBox="0 0 80 80" fill="none" xmlns="http://www.w3.org/2000/svg">
<path d="M63.9844 1.79687C63.6094 2.17187 63.5938 2.23437 63.5938 4.65625C63.5938 6.9375 63.625 7.1875 63.9218 7.56249C64.1719 7.875 64.375 7.96875 64.8437 7.96875C65.3125 7.96875 65.5156 7.875 65.7656 7.56249C66.0625 7.1875 66.0938 6.9375 66.0938 4.65625C66.0938 2.23437 66.0781 2.17187 65.7031 1.79687C65.4688 1.54687 65.1406 1.40625 64.8437 1.40625C64.5468 1.40625 64.2187 1.54687 63.9844 1.79687Z" fill="#EA8146"/>
<path d="M9.76566 2.37418C9.125 2.74918 9.07813 2.95231 9.0625 5.59293C9.0625 8.09293 9.0625 8.1398 9.45312 8.51481C9.85942 8.93668 10.5468 9.01481 10.9532 8.70231C11.4688 8.29606 11.5625 7.84293 11.5625 5.46793V3.09293L11.1094 2.6398C10.625 2.15543 10.2657 2.09293 9.76566 2.37418Z" fill="#EA8146"/>
<path d="M45.8596 4.0946C45.1721 4.50084 45.0158 5.12585 45.3909 6.00084C45.5002 6.26647 45.469 6.2821 45.1408 6.20397C43.0158 5.61022 39.1408 5.4071 37.0158 5.76647C29.7815 6.98522 23.9221 12.0165 21.6721 18.9227C20.469 22.5633 20.5002 27.1571 21.719 30.8134C22.2971 32.5477 23.3439 34.6259 23.7346 34.8446C24.2502 35.1103 24.8439 35.0165 25.2346 34.6103C25.7659 34.0945 25.719 33.6571 25.0158 32.2352C23.7033 29.5789 23.1877 27.0633 23.3283 23.9227C23.4377 21.4852 23.9221 19.6259 24.9846 17.4227C26.6721 13.9852 29.2346 11.4384 32.7346 9.75084C36.0784 8.14148 39.2659 7.68835 42.969 8.31335C44.0784 8.50084 44.7033 8.73522 44.1096 8.75084C43.6096 8.75084 43.1252 9.29772 43.1252 9.82899C43.1252 10.5009 43.2659 10.7665 43.7502 11.0165C44.1252 11.2196 44.4377 11.1883 46.5002 10.8446C49.5002 10.3602 49.4846 10.3602 49.8439 10.0009C50.4221 9.42273 50.2502 8.8446 48.8752 6.71959C48.1721 5.64148 47.4533 4.61022 47.2815 4.42273C46.8752 4.00084 46.2659 3.86022 45.8596 4.0946Z" fill="#EA8146"/>
<path d="M56.9531 8.82812C56.7031 9.06249 56.5625 9.39062 56.5625 9.6875C56.5625 9.98439 56.7031 10.3125 56.9531 10.5468C57.3281 10.9219 57.3906 10.9375 59.8125 10.9375C62.0937 10.9375 62.3437 10.9062 62.7187 10.6094C63.0312 10.3594 63.1249 10.1563 63.1249 9.6875C63.1249 9.21875 63.0312 9.01563 62.7187 8.76563C62.3437 8.46875 62.0937 8.4375 59.8125 8.4375C57.3906 8.4375 57.3281 8.45312 56.9531 8.82812Z" fill="#EA8146"/>
<path d="M66.9668 8.76563C66.3887 9.21875 66.3887 10.1563 66.9668 10.6094C67.3418 10.9062 67.5918 10.9375 69.8731 10.9375C72.2949 10.9375 72.3574 10.9219 72.7325 10.5468C72.9824 10.3125 73.1231 9.98439 73.1231 9.6875C73.1231 9.39062 72.9824 9.06249 72.7325 8.82812C72.3574 8.45312 72.2949 8.4375 69.8731 8.4375C67.5918 8.4375 67.3418 8.46875 66.9668 8.76563Z" fill="#EA8146"/>
<path d="M2.34282 9.6875C2.01469 10.0156 1.93656 10.7657 2.18656 11.2499C2.43656 11.7187 3.21781 11.875 5.31157 11.875C7.40531 11.875 8.18656 11.7187 8.43656 11.2499C8.68656 10.7657 8.60843 10.0156 8.28031 9.6875C7.99906 9.40625 7.76469 9.375 5.31157 9.375C2.85843 9.375 2.62406 9.40625 2.34282 9.6875Z" fill="#EA8146"/>
<path d="M12.4511 9.56177C12.0136 9.90555 11.8886 10.4993 12.1074 11.0461C12.4043 11.7649 13.0918 11.9212 15.6542 11.8586C17.6542 11.7962 17.8105 11.7805 18.1855 11.4212C18.7167 10.9212 18.7324 10.1868 18.2324 9.71802C17.8886 9.3899 17.7167 9.37427 15.2949 9.37427C13.4668 9.37427 12.6386 9.43677 12.4511 9.56177Z" fill="#EA8146"/>
<path d="M37.8908 11.2344C37.4532 11.4219 37.2657 11.6719 36.9064 12.5625C36.6251 13.3125 36.547 13.3594 35.4532 13.8281L34.2813 14.3125L33.5158 13.9532C33.0782 13.7657 32.5626 13.5938 32.3595 13.5938C31.9064 13.5938 28.9846 16.3906 28.8439 16.9688C28.7813 17.1875 28.9064 17.6719 29.1408 18.2344L29.547 19.125L29.1408 20.0156C28.922 20.5 28.7501 20.9844 28.7501 21.0782C28.7501 21.1875 28.3439 21.4375 27.8595 21.6563C26.3595 22.3125 26.4064 22.2344 26.4064 24.7657C26.4064 27.2969 26.4064 27.3125 27.8439 27.8906C28.5158 28.1563 28.672 28.3125 28.8439 28.7813C28.9532 29.1094 29.1564 29.5938 29.2813 29.875C29.5314 30.375 29.5158 30.4532 29.1408 31.3906C28.6095 32.6875 28.6877 32.875 30.4845 34.6094C32.0314 36.0938 32.2033 36.1563 33.5314 35.6094L34.3439 35.2657L35.4845 35.75C36.5626 36.1875 36.6251 36.25 36.9064 36.9688C37.0626 37.3906 37.3751 37.8906 37.5939 38.0782C37.9532 38.4063 38.1251 38.4375 40.0002 38.4375C41.8751 38.4375 42.047 38.4063 42.4064 38.0782C42.6251 37.8906 42.9376 37.3906 43.0939 36.9688C43.3751 36.25 43.4376 36.1875 44.5158 35.75L45.6564 35.2657L46.4689 35.6094C47.797 36.1563 47.9689 36.0938 49.4845 34.6406C50.2189 33.9375 50.922 33.125 51.047 32.8594C51.2345 32.3906 51.2189 32.2657 50.8595 31.375C50.4845 30.4532 50.4689 30.375 50.7189 29.875C50.8439 29.5938 51.047 29.1094 51.1564 28.7813C51.3283 28.3125 51.4845 28.1563 52.1564 27.8906C53.5939 27.3125 53.5939 27.2969 53.5939 24.7657C53.5939 22.2344 53.6408 22.3125 52.1564 21.6563C51.6564 21.4375 51.2501 21.1875 51.2501 21.0782C51.2501 20.9844 51.0782 20.5 50.8595 20.0156L50.4532 19.125L50.8595 18.2344C51.0939 17.6719 51.2189 17.1875 51.1564 16.9688C51.0158 16.3906 48.0939 13.5938 47.6408 13.5938C47.4376 13.5938 46.922 13.7657 46.4845 13.9532L45.7189 14.3125L44.547 13.8281C43.4532 13.3594 43.3751 13.3125 43.0939 12.5625C42.5782 11.2344 42.4689 11.1719 40.1877 11.1406C39.0939 11.1094 38.0626 11.1563 37.8908 11.2344ZM41.0782 14.3281C41.4376 15.2501 41.7501 15.5312 42.7657 15.8437C43.2657 16 44.0782 16.3437 44.5782 16.6094L45.5002 17.0782L46.3127 16.7344C46.7501 16.5625 47.1877 16.4063 47.2813 16.4063C47.3595 16.4063 47.672 16.6406 47.9532 16.9375L48.4688 17.4688L48.1408 18.2031C47.7345 19.125 47.7345 19.4688 48.1095 20.0938C48.2813 20.3594 48.5939 21.1094 48.8283 21.7344C49.3127 23.1094 49.5158 23.3437 50.422 23.6875L51.1095 23.9532L51.0626 24.8125C51.0158 25.6563 51.0002 25.6719 50.4064 25.8906C49.5314 26.1875 49.2657 26.4844 48.9845 27.4219C48.8595 27.875 48.547 28.6563 48.2813 29.1406C47.7189 30.2031 47.7189 30.375 48.1251 31.3437L48.4532 32.0782L47.8751 32.6719L47.3127 33.2501L46.6564 32.9532C45.8127 32.5782 45.2813 32.5782 44.4845 33C44.1251 33.1875 43.3439 33.5156 42.7345 33.7344C41.672 34.125 41.6251 34.1719 41.2033 35.0312L40.7657 35.9375H40.0002H39.2345L38.797 35.0312C38.3751 34.1719 38.3283 34.125 37.2657 33.7344C36.672 33.5156 35.8751 33.1875 35.5158 33C34.7189 32.5782 34.1877 32.5782 33.3439 32.9532L32.6877 33.2501L32.1251 32.6719L31.547 32.0782L31.8751 31.3437C32.2813 30.375 32.2813 30.2031 31.7189 29.1406C31.4532 28.6563 31.1408 27.875 31.0158 27.4219C30.7345 26.4844 30.4689 26.1875 29.5939 25.8906C29.0002 25.6719 28.9846 25.6563 28.9376 24.8125L28.8908 23.9532L29.5782 23.6875C30.4845 23.3437 30.6877 23.1094 31.172 21.7344C31.4064 21.1094 31.7189 20.3594 31.8908 20.0938C32.2657 19.4688 32.2657 19.125 31.8595 18.2031L31.5314 17.4688L32.047 16.9375C32.3283 16.6406 32.6408 16.4063 32.7189 16.4063C32.8127 16.4063 33.2501 16.5625 33.6877 16.7344L34.5002 17.0782L35.422 16.6094C35.922 16.3437 36.7189 16.0156 37.1877 15.8594C37.9845 15.6094 38.7501 15.0938 38.7501 14.8281C38.7501 14.7813 38.8595 14.4688 38.9845 14.1563C39.2189 13.5938 39.2345 13.5782 40.0314 13.625C40.797 13.6719 40.8283 13.6875 41.0782 14.3281Z" fill="#EA8146"/>
<path d="M37.9359 17.9533C35.2796 18.8127 33.4045 20.9689 32.9515 23.7189C32.4359 26.7971 34.0765 29.8283 36.9827 31.2033C38.0608 31.7189 38.3577 31.7971 39.6858 31.8439C40.9046 31.8908 41.3421 31.8439 42.1702 31.5626C45.5608 30.422 47.6078 27.1252 47.0452 23.7189C46.3421 19.422 41.9827 16.672 37.9359 17.9533ZM41.9827 20.5939C43.6858 21.4689 44.5921 22.9064 44.6078 24.7501C44.6234 27.3595 42.6078 29.3751 39.9983 29.3751C38.7796 29.3751 37.7952 29.0002 36.8889 28.1877C35.1858 26.6564 34.8733 24.1252 36.139 22.2345C36.6546 21.4533 37.8109 20.5783 38.6546 20.3127C39.4515 20.0626 41.2484 20.2189 41.9827 20.5939Z" fill="#EA8146"/>
<path d="M63.9218 11.8125C63.625 12.1875 63.5938 12.4375 63.5938 14.7187C63.5938 17.1406 63.6094 17.2031 63.9844 17.5782C64.2187 17.8281 64.5468 17.9688 64.8437 17.9688C65.1406 17.9688 65.4688 17.8281 65.7031 17.5782C66.0781 17.2031 66.0938 17.1406 66.0938 14.7187C66.0938 12.4375 66.0625 12.1875 65.7656 11.8125C65.5156 11.5 65.3125 11.4062 64.8437 11.4062C64.375 11.4062 64.1719 11.5 63.9218 11.8125Z" fill="#EA8146"/>
<path d="M9.45312 12.579C9.0625 12.9539 9.0625 13.0009 9.0625 15.5009C9.07813 18.1571 9.125 18.3602 9.79688 18.7196C10.3281 19.0009 10.6094 18.9383 11.1094 18.4539L11.5625 18.0009V15.6415C11.5625 13.1258 11.4532 12.6415 10.8281 12.3602C10.2501 12.0946 9.85942 12.1571 9.45312 12.579Z" fill="#EA8146"/>
<path d="M55.0782 14.7192C54.2188 15.1723 54.1876 15.7192 54.9063 17.1567C56.1406 19.6411 56.7188 22.0317 56.7188 24.766C56.7188 32.8598 51.0313 39.7192 43.0469 41.266C41.6094 41.5473 38.5157 41.5473 36.9688 41.266C35.9375 41.0785 35.7657 41.0161 36.0157 40.8754C36.625 40.5161 36.8751 40.1567 36.8751 39.6099C36.8751 38.8754 36.4219 38.4379 35.6719 38.4379C35.0313 38.4379 30.8751 39.1255 30.4219 39.2973C30.0626 39.4536 29.8438 39.8754 29.8438 40.4379C29.8438 40.9848 32.4219 45.0005 33.0313 45.391C34.0782 46.0785 35.2813 44.8598 34.6719 43.7192C34.5782 43.5473 34.5313 43.391 34.5626 43.3598C34.5938 43.3442 35.25 43.4536 36.0157 43.6099C42.2657 44.9067 48.6719 43.0785 53.2188 38.7192C57.1563 34.9379 59.2188 30.1411 59.2188 24.766C59.2188 21.7504 58.5469 18.8442 57.2657 16.2974C56.4532 14.6411 55.9063 14.2504 55.0782 14.7192Z" fill="#EA8146"/>
<path d="M5.5462 20.0626C4.09308 20.5157 2.92119 21.5626 2.32745 22.8907C1.9837 23.6564 1.96807 24.0157 1.59308 36.8751C1.17119 51.6252 1.17119 51.4064 2.20245 53.547C2.67119 54.5001 3.2962 55.2032 8.78057 60.7032L14.843 66.8126V67.8595V68.9063H13.7494C12.0619 68.9063 11.0775 69.422 10.4525 70.6564C10.0149 71.5001 10.0149 75.8595 10.4525 76.797C10.8118 77.6252 11.7181 78.3907 12.4525 78.5314C12.7806 78.5939 17.5931 78.5939 23.1712 78.547C33.89 78.4377 33.9212 78.4377 34.7337 77.6876C35.4993 77.0001 35.6243 76.422 35.6243 73.672C35.6243 70.8126 35.5305 70.3751 34.7024 69.6095C34.0619 69.0001 33.4212 68.7814 32.2337 68.7658L31.2494 68.7502V63.2345C31.2337 53.672 31.1243 53.3595 25.9681 48.9221C24.2806 47.4689 21.9837 45.3595 20.8587 44.2188C18.4681 41.7814 17.7806 41.3595 16.1087 41.3595C14.8587 41.3595 13.7806 41.7814 12.9368 42.6095C12.5149 43.0314 12.3274 43.1252 12.2806 42.9533C12.2337 42.8283 12.1712 38.8283 12.1399 34.0626C12.1087 26.3751 12.0619 25.2814 11.8274 24.4533C11.39 22.9689 10.7806 21.9063 9.88995 21.0939C8.62432 19.9377 7.09308 19.5783 5.5462 20.0626ZM7.9212 22.6408C8.45245 22.9689 9.07745 23.9377 9.38994 24.9221C9.53058 25.3751 9.6087 27.9533 9.68682 34.6876C9.78059 43.6252 9.78059 43.8439 10.1243 44.7502C10.5931 46.0001 11.0462 46.7502 12.2337 48.2188C13.5305 49.8126 18.5619 54.7814 19.0149 54.9063C19.7962 55.1564 20.7806 54.172 20.5305 53.3907C20.4837 53.2032 19.1399 51.7814 17.5775 50.2188C14.7181 47.3907 14.0619 46.547 14.0619 45.6408C14.0619 45.0314 14.8274 44.1408 15.5462 43.9064C16.5149 43.5783 16.9993 43.8907 19.4212 46.3283C20.6399 47.547 22.843 49.5783 24.3274 50.8439C25.8118 52.0939 27.2024 53.3595 27.4056 53.6408C28.5775 55.172 28.7494 56.4689 28.7494 63.3439V68.7032L25.1243 68.797C23.1243 68.8595 20.5462 68.9063 19.4212 68.9063H17.343V67.3907V65.8751L11.1087 59.6095C4.34308 52.8126 4.20245 52.6408 3.87432 50.5939C3.76495 49.8751 3.82745 46.1252 4.09308 36.7658C4.45245 24.3751 4.4837 23.8907 4.78057 23.4845C5.2337 22.8907 6.21807 22.3439 6.87432 22.3439C7.17119 22.3439 7.63994 22.4845 7.9212 22.6408ZM33.0462 73.5939V75.8595L28.4368 75.9689C25.9056 76.0314 21.3274 76.0783 18.2806 76.047L12.7337 76.0157L12.6868 73.7814C12.6712 72.5626 12.6712 71.547 12.6868 71.5314C12.765 71.4689 23.9993 71.3126 28.5149 71.3283H33.0462V73.5939Z" fill="#EA8146"/>
<path d="M29.6874 72.8128C29.2187 73.2816 29.2656 74.1097 29.7812 74.5159C30.3124 74.9378 30.6718 74.9222 31.1874 74.4847C32.0155 73.766 31.5468 72.5003 30.4531 72.5003C30.203 72.5003 29.8593 72.6409 29.6874 72.8128Z" fill="#EA8146"/>
<path d="M71.4693 20.1564C70.0005 20.7345 68.7974 22.297 68.1724 24.4533C67.938 25.2814 67.8912 26.3751 67.8599 34.0626C67.8286 38.8283 67.7662 42.8283 67.7193 42.9533C67.6724 43.1251 67.4849 43.0314 67.063 42.6095C66.2193 41.7814 65.1411 41.3595 63.8912 41.3595C62.188 41.3595 61.563 41.7502 58.6724 44.6408C57.2974 46.0157 54.9849 48.1408 53.5318 49.3751C50.6724 51.8126 49.9693 52.6564 49.3912 54.422C48.8599 56.0001 48.7661 57.4377 48.7505 63.2188V68.7032L47.5161 68.7814C46.1099 68.8595 45.4849 69.172 44.8286 70.1252C44.4693 70.6564 44.4536 70.8126 44.4068 73.4533C44.3599 75.9533 44.3912 76.2814 44.6567 76.8283C45.0318 77.5626 45.3912 77.8907 46.1411 78.2032C46.6255 78.4063 48.2349 78.4533 56.8286 78.547C62.4068 78.5939 67.2193 78.5939 67.5474 78.5314C68.2818 78.3907 69.188 77.6252 69.5474 76.797C69.938 75.9377 69.9693 71.7032 69.6099 70.8126C69.0474 69.5001 68.0318 68.922 66.2974 68.9063H65.1567V67.8595V66.8126L71.2193 60.7032C76.7818 55.1095 77.3286 54.5157 77.7974 53.5157C78.8286 51.3439 78.8286 51.6251 78.3912 36.8751C78.0318 24.0314 78.0005 23.6564 77.6724 22.8751C77.2349 21.8751 76.0943 20.7501 75.0787 20.297C73.9849 19.8126 72.4849 19.7501 71.4693 20.1564ZM74.2818 22.7032C74.6255 22.8907 75.0318 23.2345 75.2037 23.4689C75.5161 23.8907 75.5474 24.3907 75.9068 36.7501C76.1724 46.1408 76.2349 49.8751 76.1255 50.5939C75.7974 52.6408 75.6567 52.8126 68.8912 59.6095L62.6567 65.8751V67.3907V68.9063H60.5005C59.313 68.9063 56.7349 68.8595 54.7818 68.797L51.2349 68.7032L51.2974 62.5939C51.3442 58.5626 51.4224 56.2345 51.5474 55.7658C51.938 54.2814 52.5787 53.5001 55.4693 51.0314C56.9693 49.7502 59.2349 47.672 60.5005 46.3907C62.9849 43.8907 63.4849 43.5782 64.4224 43.8907C65.1411 44.1251 65.7818 44.8283 65.8756 45.5001C66.0318 46.4377 65.4849 47.2032 62.4224 50.2188C60.8599 51.7814 59.5161 53.2032 59.4693 53.3907C59.2037 54.2501 60.2505 55.1876 61.0787 54.8439C61.6411 54.6095 67.3599 48.8439 68.3442 47.5001C69.3286 46.172 69.6411 45.5314 70.0161 44.1095C70.2974 43.0001 70.313 42.3126 70.313 34.7032C70.313 28.1095 70.3599 26.2658 70.5474 25.4063C71.0943 22.8282 72.6099 21.7345 74.2818 22.7032ZM67.0005 71.5001C67.3442 71.5626 67.3599 71.5939 67.313 73.797L67.2662 76.0157L61.7193 76.047C58.6724 76.0782 54.0943 76.0314 51.563 75.9689L46.9536 75.8595L46.9068 73.7658C46.8912 72.6095 46.9068 71.5626 46.9536 71.4377C47.0161 71.2502 48.5161 71.2345 56.8442 71.3283C62.2349 71.3751 66.7974 71.4533 67.0005 71.5001Z" fill="#EA8146"/>
<path d="M48.7662 72.7816C48.2506 73.1878 48.2818 74.0159 48.813 74.4847C49.3287 74.9222 49.688 74.9378 50.2193 74.5159C51.0318 73.8753 50.5787 72.5003 49.5474 72.5003C49.2974 72.5003 48.9381 72.6253 48.7662 72.7816Z" fill="#EA8146"/>
</svg>
