<svg width="80" height="80" viewBox="0 0 80 80" fill="none" xmlns="http://www.w3.org/2000/svg">
<path d="M48.6715 4.9066C46.5934 5.39097 44.7341 6.23472 43.2184 7.37534L42.2965 8.07847L41.3278 7.7191C39.4683 7.04723 37.9528 6.82847 35.6403 6.92222C33.3902 7.00035 32.0152 7.2816 30.0465 8.06285C26.8434 9.32851 24.109 11.7504 22.6559 14.6097L22.1559 15.5785L21.0152 15.6878C18.6246 15.9066 16.8903 16.7035 15.2184 18.3753C13.6872 19.891 12.6559 22.1097 12.6559 23.9066C12.6559 24.2816 12.5778 24.3597 12.1403 24.4534C11.359 24.6254 9.82776 25.3597 8.79652 26.0628C6.73401 27.4691 4.99964 29.9534 4.37464 32.4379C3.99964 33.9066 3.96839 36.3597 4.29651 37.7816C5.04651 40.9691 7.39027 43.8597 10.3902 45.3129C12.3122 46.2504 13.2027 46.4066 16.8434 46.4066H19.9997V50.9379V55.4691H17.5309H15.0778L14.7341 54.7191C14.2027 53.5628 13.5152 52.8753 12.3902 52.3129C11.5152 51.8753 11.1872 51.8129 10.2184 51.8129C9.23405 51.8129 8.95278 51.8753 8.03089 52.3441C4.39027 54.2035 4.39027 59.2347 8.03089 61.0941C8.95278 61.5629 9.23405 61.6254 10.2184 61.6254C12.2184 61.6254 13.8747 60.5629 14.7341 58.7191L15.0621 57.9848L18.4059 57.9379C21.7027 57.891 21.7496 57.891 22.0465 57.516C22.3278 57.1723 22.3434 56.8285 22.3434 51.7816V46.4066H25.859H29.3746V52.6097V58.8285L27.0934 61.1097L24.7965 63.4066L24.0934 63.0941C23.0309 62.6254 21.4059 62.6409 20.2965 63.1566C18.4059 64.016 17.484 65.3753 17.3747 67.4379C17.3122 68.5629 17.359 68.8285 17.7027 69.5785C18.2341 70.7347 19.0778 71.6254 20.1246 72.1409C21.3434 72.7347 23.1246 72.7504 24.2965 72.1878C25.2809 71.7035 26.2341 70.766 26.7341 69.766C27.2341 68.7504 27.2653 66.8285 26.8122 65.8129L26.4997 65.1409L28.9371 62.6878C30.2809 61.3441 31.4528 60.0785 31.5465 59.891C31.6715 59.6566 31.7184 57.4691 31.7184 52.9848V46.4066H35.2341H38.7496V56.0003V65.6097L37.8903 66.0003C34.9215 67.3597 34.0465 71.2347 36.1715 73.7191C36.8434 74.5003 38.3746 75.2816 39.4683 75.4066C40.4528 75.5316 41.8278 75.1566 42.7496 74.516C45.859 72.3753 45.4059 67.5785 41.9371 65.9848L41.0934 65.6097V56.0003V46.4066H44.609H48.1246V52.9848C48.1246 57.4691 48.1715 59.6566 48.2965 59.891C48.3903 60.0785 49.5465 61.3285 50.8746 62.6566L53.2653 65.0785L52.9683 65.9379C52.1246 68.3441 53.0778 70.7972 55.3122 72.016C56.2341 72.5316 56.4371 72.5785 57.5778 72.5785C58.6246 72.5785 58.9684 72.5003 59.7184 72.1409C61.359 71.3441 62.3434 69.8597 62.4683 68.0316C62.609 65.9066 61.6246 64.1878 59.7653 63.266C58.8746 62.8285 58.5778 62.766 57.5934 62.766C56.8122 62.7816 56.2341 62.8753 55.7496 63.0941L55.0465 63.4066L52.7496 61.1097L50.4683 58.8285V52.6097V46.4066H54.0621H57.6559V51.766V57.1409L58.0152 57.4691C58.359 57.7972 58.4997 57.8129 61.6559 57.8129H64.9215L65.2184 58.5472C65.6246 59.516 66.5778 60.5472 67.5778 61.0628C68.2496 61.4222 68.5465 61.4848 69.7653 61.4848C70.984 61.4848 71.2809 61.4222 71.9528 61.0628C72.8903 60.5629 73.7341 59.7035 74.2341 58.7504C74.7653 57.7347 74.7653 55.5472 74.2496 54.5628C73.6715 53.4848 72.8903 52.7347 71.8434 52.2504C69.2965 51.0941 66.4528 52.1723 65.2653 54.7191L64.9215 55.4691H62.4683H59.9997V50.9691V46.4534L61.484 46.3597C68.359 45.9066 74.3434 40.6723 75.7184 33.9066C76.0621 32.2035 75.9528 28.7504 75.4997 27.1097C74.3434 22.8597 71.8746 19.7504 68.0934 17.8285C67.2653 17.4066 66.2965 16.9691 65.9528 16.8597C65.4528 16.7191 65.2809 16.5785 65.2184 16.266C64.859 14.516 64.5778 13.6409 63.984 12.4066C62.9215 10.2191 61.6872 8.76596 59.484 7.12534C58.6872 6.54723 56.2341 5.4066 55.0778 5.07847C53.7809 4.7191 49.9371 4.62534 48.6715 4.9066ZM54.7653 7.34409C56.7809 7.98472 58.2341 8.84409 59.6872 10.3129C61.609 12.2191 62.5778 14.1878 62.9528 16.9222C63.0309 17.516 63.1872 18.0941 63.2809 18.2035C63.3746 18.3285 63.9371 18.5785 64.4997 18.766C68.0309 19.9222 70.7184 22.1878 72.1872 25.2191C73.2809 27.4847 73.4997 28.5316 73.4997 31.1723C73.4997 33.2347 73.4684 33.4534 72.984 34.8441C71.484 39.2347 68.0465 42.4691 63.5934 43.6409L62.2653 43.9848H37.9683H13.6715L12.6559 43.6254C9.56214 42.516 7.34339 40.1254 6.64027 37.1723C5.49964 32.2972 8.78086 27.3597 13.6715 26.6409C14.8434 26.4534 15.1559 26.0472 15.1559 24.7191C15.1559 22.891 15.7027 21.4847 16.9371 20.1723C18.3278 18.7035 19.7653 18.1254 22.0309 18.1254C23.8122 18.1254 23.8434 18.1097 24.4371 16.516C24.9528 15.1254 25.7027 14.016 26.9215 12.8597C29.3434 10.5316 32.1559 9.39098 35.859 9.26596C38.1246 9.17226 39.7341 9.45345 41.484 10.2191C42.6403 10.7347 42.8434 10.7347 43.5465 10.1097C45.2965 8.57847 47.2496 7.53159 49.1403 7.12534C50.6715 6.7816 53.3122 6.89097 54.7653 7.34409ZM11.4059 54.4222C12.1715 54.8285 12.8122 55.8285 12.8122 56.6097C12.8122 57.3129 12.2341 58.3753 11.6715 58.7347C10.5778 59.4066 9.54648 59.3441 8.64027 58.5472C7.62464 57.6566 7.40589 56.6097 8.01526 55.4691C8.42152 54.6878 9.42154 54.0628 10.2341 54.0628C10.5152 54.0628 11.0309 54.2191 11.4059 54.4222ZM70.6715 54.2816C71.3278 54.5472 72.1246 55.4691 72.2653 56.0941C72.5152 57.2191 71.9215 58.4534 70.8903 58.9066C70.0152 59.3129 69.4059 59.2972 68.5934 58.8597C67.8122 58.4534 67.1872 57.4534 67.1872 56.6409C67.1872 55.8285 67.8122 54.8285 68.5934 54.4222C69.359 54.016 69.9528 53.9691 70.6715 54.2816ZM23.7341 65.516C25.8434 66.9066 24.6559 70.3128 22.1403 70.1097C20.609 69.9848 19.5309 68.5316 19.859 67.0472C20.0309 66.2816 20.4528 65.766 21.2653 65.3441C22.109 64.9066 22.8903 64.9534 23.7341 65.516ZM58.9684 65.4379C60.2184 66.1723 60.5778 67.891 59.7341 69.0316C59.1403 69.8128 58.6403 70.0785 57.6715 70.0785C56.9215 70.0785 56.6715 70.0003 56.1872 69.6254C55.4371 69.0629 55.0934 68.2816 55.1872 67.3285C55.3746 65.4691 57.3434 64.4848 58.9684 65.4379ZM41.2653 68.3285C42.5152 69.1723 42.859 70.5472 42.109 71.7972C41.2184 73.3285 39.0152 73.3753 37.8903 71.891C37.4215 71.2816 37.3903 70.0003 37.8122 69.2504C38.4997 68.0316 40.1559 67.5785 41.2653 68.3285Z" fill="#7069FA"/>
</svg>
