<svg width="540" height="336" viewBox="0 0 540 336" fill="none" xmlns="http://www.w3.org/2000/svg">
<rect width="540" height="336" rx="10" fill="white"/>
<path opacity="0.9" d="M32.223 32.2H34.983V49H32.223V32.2ZM44.4842 36.688C45.8602 36.688 46.9722 37.128 47.8202 38.008C48.6682 38.888 49.0922 40.096 49.0922 41.632V49H46.5002V41.896C46.5002 41 46.2602 40.312 45.7802 39.832C45.3002 39.352 44.6442 39.112 43.8122 39.112C42.9002 39.112 42.1642 39.4 41.6042 39.976C41.0442 40.536 40.7642 41.4 40.7642 42.568V49H38.1722V37H40.7642V38.536C41.5482 37.304 42.7882 36.688 44.4842 36.688ZM61.3871 32.2H63.9791V49H61.3871V47.272C60.4111 48.632 59.0111 49.312 57.1871 49.312C55.5391 49.312 54.1311 48.704 52.9631 47.488C51.7951 46.256 51.2111 44.76 51.2111 43C51.2111 41.224 51.7951 39.728 52.9631 38.512C54.1311 37.296 55.5391 36.688 57.1871 36.688C59.0111 36.688 60.4111 37.36 61.3871 38.704V32.2ZM54.8831 45.76C55.6031 46.48 56.5071 46.84 57.5951 46.84C58.6831 46.84 59.5871 46.48 60.3071 45.76C61.0271 45.024 61.3871 44.104 61.3871 43C61.3871 41.896 61.0271 40.984 60.3071 40.264C59.5871 39.528 58.6831 39.16 57.5951 39.16C56.5071 39.16 55.6031 39.528 54.8831 40.264C54.1631 40.984 53.8031 41.896 53.8031 43C53.8031 44.104 54.1631 45.024 54.8831 45.76ZM69.4483 34.72C69.1283 35.04 68.7443 35.2 68.2963 35.2C67.8483 35.2 67.4563 35.04 67.1203 34.72C66.8003 34.384 66.6403 33.992 66.6403 33.544C66.6403 33.096 66.8003 32.712 67.1203 32.392C67.4403 32.056 67.8323 31.888 68.2963 31.888C68.7603 31.888 69.1523 32.056 69.4723 32.392C69.7923 32.712 69.9523 33.096 69.9523 33.544C69.9523 33.992 69.7843 34.384 69.4483 34.72ZM67.0003 49V37H69.5923V49H67.0003ZM80.7378 37H83.5698L78.8898 49H75.8898L71.2098 37H74.0418L77.4018 46.12L80.7378 37ZM87.6592 34.72C87.3392 35.04 86.9552 35.2 86.5072 35.2C86.0592 35.2 85.6672 35.04 85.3312 34.72C85.0112 34.384 84.8512 33.992 84.8512 33.544C84.8512 33.096 85.0112 32.712 85.3312 32.392C85.6512 32.056 86.0432 31.888 86.5072 31.888C86.9712 31.888 87.3632 32.056 87.6832 32.392C88.0032 32.712 88.1632 33.096 88.1632 33.544C88.1632 33.992 87.9952 34.384 87.6592 34.72ZM85.2112 49V37H87.8032V49H85.2112ZM100.317 32.2H102.909V49H100.317V47.272C99.3408 48.632 97.9408 49.312 96.1168 49.312C94.4688 49.312 93.0608 48.704 91.8928 47.488C90.7248 46.256 90.1408 44.76 90.1408 43C90.1408 41.224 90.7248 39.728 91.8928 38.512C93.0608 37.296 94.4688 36.688 96.1168 36.688C97.9408 36.688 99.3408 37.36 100.317 38.704V32.2ZM93.8128 45.76C94.5328 46.48 95.4368 46.84 96.5248 46.84C97.6128 46.84 98.5168 46.48 99.2368 45.76C99.9568 45.024 100.317 44.104 100.317 43C100.317 41.896 99.9568 40.984 99.2368 40.264C98.5168 39.528 97.6128 39.16 96.5248 39.16C95.4368 39.16 94.5328 39.528 93.8128 40.264C93.0928 40.984 92.7328 41.896 92.7328 43C92.7328 44.104 93.0928 45.024 93.8128 45.76ZM114.018 37H116.61V49H114.018V47.464C113.234 48.696 111.994 49.312 110.298 49.312C108.922 49.312 107.81 48.872 106.962 47.992C106.114 47.112 105.69 45.904 105.69 44.368V37H108.282V44.104C108.282 45 108.522 45.688 109.002 46.168C109.482 46.648 110.138 46.888 110.97 46.888C111.882 46.888 112.618 46.608 113.178 46.048C113.738 45.472 114.018 44.6 114.018 43.432V37ZM129.145 37H131.737V49H129.145V47.272C128.169 48.632 126.769 49.312 124.945 49.312C123.297 49.312 121.889 48.704 120.721 47.488C119.553 46.256 118.969 44.76 118.969 43C118.969 41.224 119.553 39.728 120.721 38.512C121.889 37.296 123.297 36.688 124.945 36.688C126.769 36.688 128.169 37.36 129.145 38.704V37ZM122.641 45.76C123.361 46.48 124.265 46.84 125.353 46.84C126.441 46.84 127.345 46.48 128.065 45.76C128.785 45.024 129.145 44.104 129.145 43C129.145 41.896 128.785 40.984 128.065 40.264C127.345 39.528 126.441 39.16 125.353 39.16C124.265 39.16 123.361 39.528 122.641 40.264C121.921 40.984 121.561 41.896 121.561 43C121.561 44.104 121.921 45.024 122.641 45.76ZM134.758 49V31.48H137.35V49H134.758ZM153.056 39.496H150.08V45.256C150.08 45.752 150.192 46.112 150.416 46.336C150.64 46.544 150.968 46.664 151.4 46.696C151.848 46.712 152.4 46.704 153.056 46.672V49C151.072 49.24 149.648 49.072 148.784 48.496C147.92 47.904 147.488 46.824 147.488 45.256V39.496H145.28V37H147.488V34.408L150.08 33.64V37H153.056V39.496ZM164.418 37H167.01V49H164.418V47.272C163.442 48.632 162.042 49.312 160.218 49.312C158.57 49.312 157.162 48.704 155.994 47.488C154.826 46.256 154.242 44.76 154.242 43C154.242 41.224 154.826 39.728 155.994 38.512C157.162 37.296 158.57 36.688 160.218 36.688C162.042 36.688 163.442 37.36 164.418 38.704V37ZM157.914 45.76C158.634 46.48 159.538 46.84 160.626 46.84C161.714 46.84 162.618 46.48 163.338 45.76C164.058 45.024 164.418 44.104 164.418 43C164.418 41.896 164.058 40.984 163.338 40.264C162.618 39.528 161.714 39.16 160.626 39.16C159.538 39.16 158.634 39.528 157.914 40.264C157.194 40.984 156.834 41.896 156.834 43C156.834 44.104 157.194 45.024 157.914 45.76ZM172.624 39.016C173.28 37.528 174.512 36.784 176.32 36.784V39.592C175.328 39.528 174.464 39.768 173.728 40.312C172.992 40.84 172.624 41.72 172.624 42.952V49H170.032V37H172.624V39.016ZM187.224 37H189.768V48.448C189.768 50.272 189.168 51.672 187.968 52.648C186.768 53.624 185.312 54.112 183.6 54.112C180.832 54.112 178.936 53.144 177.912 51.208L180.144 49.912C180.768 51.144 181.936 51.76 183.648 51.76C184.768 51.76 185.64 51.464 186.264 50.872C186.904 50.296 187.224 49.488 187.224 48.448V46.984C186.248 48.376 184.856 49.072 183.048 49.072C181.352 49.072 179.92 48.472 178.752 47.272C177.584 46.056 177 44.592 177 42.88C177 41.168 177.584 39.712 178.752 38.512C179.92 37.296 181.352 36.688 183.048 36.688C184.856 36.688 186.248 37.384 187.224 38.776V37ZM180.672 45.568C181.408 46.288 182.32 46.648 183.408 46.648C184.496 46.648 185.4 46.288 186.12 45.568C186.856 44.848 187.224 43.952 187.224 42.88C187.224 41.808 186.856 40.912 186.12 40.192C185.4 39.472 184.496 39.112 183.408 39.112C182.32 39.112 181.408 39.472 180.672 40.192C179.952 40.912 179.592 41.808 179.592 42.88C179.592 43.952 179.952 44.848 180.672 45.568ZM194.829 44.104C195.021 45.016 195.461 45.72 196.149 46.216C196.837 46.696 197.677 46.936 198.669 46.936C200.045 46.936 201.077 46.44 201.765 45.448L203.901 46.696C202.717 48.44 200.965 49.312 198.645 49.312C196.693 49.312 195.117 48.72 193.917 47.536C192.717 46.336 192.117 44.824 192.117 43C192.117 41.208 192.709 39.712 193.893 38.512C195.077 37.296 196.597 36.688 198.453 36.688C200.213 36.688 201.653 37.304 202.773 38.536C203.909 39.768 204.477 41.264 204.477 43.024C204.477 43.296 204.445 43.656 204.381 44.104H194.829ZM194.805 41.992H201.861C201.685 41.016 201.277 40.28 200.637 39.784C200.013 39.288 199.277 39.04 198.429 39.04C197.469 39.04 196.669 39.304 196.029 39.832C195.389 40.36 194.981 41.08 194.805 41.992ZM213.079 39.496H210.103V45.256C210.103 45.752 210.215 46.112 210.439 46.336C210.663 46.544 210.991 46.664 211.423 46.696C211.871 46.712 212.423 46.704 213.079 46.672V49C211.095 49.24 209.671 49.072 208.807 48.496C207.943 47.904 207.511 46.824 207.511 45.256V39.496H205.303V37H207.511V34.408L210.103 33.64V37H213.079V39.496ZM228.243 39.496H225.267V45.256C225.267 45.752 225.379 46.112 225.603 46.336C225.827 46.544 226.155 46.664 226.587 46.696C227.035 46.712 227.587 46.704 228.243 46.672V49C226.259 49.24 224.835 49.072 223.971 48.496C223.107 47.904 222.675 46.824 222.675 45.256V39.496H220.467V37H222.675V34.408L225.267 33.64V37H228.243V39.496ZM233.303 39.016C233.959 37.528 235.191 36.784 236.999 36.784V39.592C236.007 39.528 235.143 39.768 234.407 40.312C233.671 40.84 233.303 41.72 233.303 42.952V49H230.711V37H233.303V39.016ZM247.856 37H250.448V49H247.856V47.272C246.88 48.632 245.48 49.312 243.656 49.312C242.008 49.312 240.6 48.704 239.432 47.488C238.264 46.256 237.68 44.76 237.68 43C237.68 41.224 238.264 39.728 239.432 38.512C240.6 37.296 242.008 36.688 243.656 36.688C245.48 36.688 246.88 37.36 247.856 38.704V37ZM241.352 45.76C242.072 46.48 242.976 46.84 244.064 46.84C245.152 46.84 246.056 46.48 246.776 45.76C247.496 45.024 247.856 44.104 247.856 43C247.856 41.896 247.496 40.984 246.776 40.264C246.056 39.528 245.152 39.16 244.064 39.16C242.976 39.16 242.072 39.528 241.352 40.264C240.632 40.984 240.272 41.896 240.272 43C240.272 44.104 240.632 45.024 241.352 45.76ZM259.133 49.312C257.325 49.312 255.813 48.704 254.597 47.488C253.397 46.272 252.797 44.776 252.797 43C252.797 41.208 253.397 39.712 254.597 38.512C255.813 37.296 257.325 36.688 259.133 36.688C260.301 36.688 261.365 36.968 262.325 37.528C263.285 38.088 264.005 38.84 264.485 39.784L262.253 41.08C261.981 40.504 261.565 40.056 261.005 39.736C260.461 39.4 259.829 39.232 259.109 39.232C258.053 39.232 257.165 39.592 256.445 40.312C255.741 41.032 255.389 41.928 255.389 43C255.389 44.072 255.741 44.968 256.445 45.688C257.165 46.408 258.053 46.768 259.109 46.768C259.813 46.768 260.445 46.6 261.005 46.264C261.581 45.928 262.013 45.48 262.301 44.92L264.533 46.192C264.021 47.152 263.285 47.912 262.325 48.472C261.365 49.032 260.301 49.312 259.133 49.312ZM277.015 49H273.919L268.999 43.456V49H266.407V32.2H268.999V42.304L273.655 37H276.823L271.543 42.88L277.015 49ZM279.837 44.104C280.029 45.016 280.469 45.72 281.157 46.216C281.845 46.696 282.685 46.936 283.677 46.936C285.053 46.936 286.085 46.44 286.773 45.448L288.909 46.696C287.725 48.44 285.973 49.312 283.653 49.312C281.701 49.312 280.125 48.72 278.925 47.536C277.725 46.336 277.125 44.824 277.125 43C277.125 41.208 277.717 39.712 278.901 38.512C280.085 37.296 281.605 36.688 283.461 36.688C285.221 36.688 286.661 37.304 287.781 38.536C288.917 39.768 289.485 41.264 289.485 43.024C289.485 43.296 289.453 43.656 289.389 44.104H279.837ZM279.813 41.992H286.869C286.693 41.016 286.285 40.28 285.645 39.784C285.021 39.288 284.285 39.04 283.437 39.04C282.477 39.04 281.677 39.304 281.037 39.832C280.397 40.36 279.989 41.08 279.813 41.992ZM294.358 39.016C295.014 37.528 296.246 36.784 298.054 36.784V39.592C297.062 39.528 296.198 39.768 295.462 40.312C294.726 40.84 294.358 41.72 294.358 42.952V49H291.766V37H294.358V39.016Z" fill="#202020"/>
<path opacity="0.9" d="M115.954 72.8V74.208H112.642V84H111.17V74.208H107.874V72.8H115.954ZM122.453 76H123.845V84H122.453V82.624C121.76 83.68 120.752 84.208 119.429 84.208C118.309 84.208 117.355 83.8027 116.565 82.992C115.776 82.1707 115.381 81.1733 115.381 80C115.381 78.8267 115.776 77.8347 116.565 77.024C117.355 76.2027 118.309 75.792 119.429 75.792C120.752 75.792 121.76 76.32 122.453 77.376V76ZM119.605 82.864C120.416 82.864 121.093 82.592 121.637 82.048C122.181 81.4933 122.453 80.8107 122.453 80C122.453 79.1893 122.181 78.512 121.637 77.968C121.093 77.4133 120.416 77.136 119.605 77.136C118.805 77.136 118.133 77.4133 117.589 77.968C117.045 78.512 116.773 79.1893 116.773 80C116.773 80.8107 117.045 81.4933 117.589 82.048C118.133 82.592 118.805 82.864 119.605 82.864ZM127.346 77.344C127.805 76.352 128.637 75.856 129.842 75.856V77.312C129.16 77.28 128.573 77.4613 128.082 77.856C127.592 78.2507 127.346 78.8853 127.346 79.76V84H125.954V76H127.346V77.344ZM137.407 76H138.783V83.664C138.783 84.848 138.383 85.7653 137.583 86.416C136.783 87.0773 135.823 87.408 134.703 87.408C133.807 87.408 133.034 87.2373 132.383 86.896C131.732 86.5653 131.242 86.0853 130.911 85.456L132.127 84.768C132.564 85.664 133.434 86.112 134.735 86.112C135.567 86.112 136.218 85.8933 136.687 85.456C137.167 85.0187 137.407 84.4213 137.407 83.664V82.528C136.703 83.5947 135.7 84.128 134.399 84.128C133.258 84.128 132.292 83.7227 131.503 82.912C130.714 82.1013 130.319 81.1147 130.319 79.952C130.319 78.7893 130.714 77.808 131.503 77.008C132.292 76.1973 133.258 75.792 134.399 75.792C135.711 75.792 136.714 76.32 137.407 77.376V76ZM132.527 81.984C133.071 82.528 133.748 82.8 134.559 82.8C135.37 82.8 136.047 82.528 136.591 81.984C137.135 81.44 137.407 80.7627 137.407 79.952C137.407 79.152 137.135 78.48 136.591 77.936C136.047 77.392 135.37 77.12 134.559 77.12C133.748 77.12 133.071 77.392 132.527 77.936C131.983 78.48 131.711 79.152 131.711 79.952C131.711 80.7627 131.983 81.44 132.527 81.984ZM141.868 80.64C142.007 81.3547 142.332 81.9093 142.844 82.304C143.367 82.6987 144.007 82.896 144.764 82.896C145.82 82.896 146.588 82.5067 147.068 81.728L148.252 82.4C147.473 83.6053 146.3 84.208 144.732 84.208C143.463 84.208 142.428 83.8133 141.628 83.024C140.839 82.224 140.444 81.216 140.444 80C140.444 78.7947 140.833 77.792 141.612 76.992C142.391 76.192 143.399 75.792 144.636 75.792C145.809 75.792 146.764 76.208 147.5 77.04C148.247 77.8613 148.62 78.8533 148.62 80.016C148.62 80.2187 148.604 80.4267 148.572 80.64H141.868ZM144.636 77.104C143.889 77.104 143.271 77.3173 142.78 77.744C142.289 78.16 141.985 78.72 141.868 79.424H147.212C147.095 78.6667 146.796 78.0907 146.316 77.696C145.836 77.3013 145.276 77.104 144.636 77.104ZM154.338 77.344H152.21V81.68C152.21 82.0747 152.284 82.3573 152.434 82.528C152.594 82.688 152.834 82.7733 153.154 82.784C153.474 82.784 153.868 82.7733 154.338 82.752V84C153.122 84.16 152.231 84.064 151.666 83.712C151.1 83.3493 150.818 82.672 150.818 81.68V77.344H149.234V76H150.818V74.176L152.21 73.76V76H154.338V77.344ZM156.913 77.888C156.625 77.888 156.379 77.7867 156.177 77.584C155.974 77.3813 155.873 77.136 155.873 76.848C155.873 76.56 155.974 76.3147 156.177 76.112C156.379 75.9093 156.625 75.808 156.913 75.808C157.211 75.808 157.457 75.9093 157.649 76.112C157.851 76.3147 157.953 76.56 157.953 76.848C157.953 77.136 157.851 77.3813 157.649 77.584C157.457 77.7867 157.211 77.888 156.913 77.888ZM156.913 84.176C156.625 84.176 156.379 84.0747 156.177 83.872C155.974 83.6693 155.873 83.424 155.873 83.136C155.873 82.848 155.974 82.6027 156.177 82.4C156.379 82.1973 156.625 82.096 156.913 82.096C157.211 82.096 157.457 82.1973 157.649 82.4C157.851 82.6027 157.953 82.848 157.953 83.136C157.953 83.424 157.851 83.6693 157.649 83.872C157.457 84.0747 157.211 84.176 156.913 84.176ZM171.107 81.008C171.107 81.8827 170.819 82.6027 170.243 83.168C169.667 83.7333 168.921 84.0693 168.003 84.176V85.6H166.995V84.192C166.121 84.128 165.374 83.888 164.755 83.472C164.147 83.056 163.705 82.496 163.427 81.792L164.707 81.056C165.07 82.048 165.833 82.608 166.995 82.736V78.864C166.515 78.6933 166.126 78.5387 165.827 78.4C165.539 78.2507 165.235 78.0533 164.915 77.808C164.595 77.5627 164.355 77.264 164.195 76.912C164.046 76.5493 163.971 76.1333 163.971 75.664C163.971 74.8 164.259 74.096 164.835 73.552C165.411 73.008 166.131 72.6933 166.995 72.608V71.2H168.003V72.624C168.643 72.7093 169.214 72.9333 169.715 73.296C170.217 73.6587 170.606 74.1493 170.883 74.768L169.635 75.472C169.326 74.6933 168.782 74.2293 168.003 74.08V77.76C168.494 77.9413 168.883 78.1013 169.171 78.24C169.459 78.3787 169.774 78.576 170.115 78.832C170.457 79.0773 170.707 79.3813 170.867 79.744C171.027 80.1067 171.107 80.528 171.107 81.008ZM165.443 75.664C165.443 76.0693 165.566 76.4 165.811 76.656C166.057 76.912 166.451 77.152 166.995 77.376V74.064C166.526 74.128 166.147 74.304 165.859 74.592C165.582 74.8693 165.443 75.2267 165.443 75.664ZM168.003 82.704C168.515 82.6293 168.91 82.4427 169.187 82.144C169.475 81.8347 169.619 81.4613 169.619 81.024C169.619 80.5867 169.486 80.24 169.219 79.984C168.963 79.7173 168.558 79.4667 168.003 79.232V82.704ZM172.24 84V82.784L176.192 78.752C177.248 77.696 177.776 76.7893 177.776 76.032C177.776 75.4027 177.584 74.912 177.2 74.56C176.816 74.208 176.347 74.032 175.792 74.032C174.736 74.032 173.968 74.5333 173.488 75.536L172.24 74.8C172.592 74.0747 173.077 73.5253 173.696 73.152C174.325 72.7787 175.019 72.592 175.776 72.592C176.715 72.592 177.531 72.9013 178.224 73.52C178.917 74.1387 179.264 74.9707 179.264 76.016C179.264 77.1467 178.597 78.3787 177.264 79.712L174.4 82.56H179.472V84H172.24ZM180.077 72.8H187.069V74.128L182.989 84H181.437L185.485 74.208H180.077V72.8ZM190.984 77.168C192.04 77.168 192.931 77.4827 193.656 78.112C194.392 78.7307 194.76 79.5893 194.76 80.688C194.76 81.776 194.387 82.6347 193.64 83.264C192.893 83.8933 191.987 84.208 190.92 84.208C190.067 84.208 189.304 84.0053 188.632 83.6C187.96 83.184 187.491 82.5867 187.224 81.808L188.488 81.088C188.637 81.632 188.925 82.048 189.352 82.336C189.779 82.6133 190.301 82.752 190.92 82.752C191.624 82.752 192.195 82.5707 192.632 82.208C193.069 81.8453 193.288 81.3387 193.288 80.688C193.288 80.0373 193.069 79.5307 192.632 79.168C192.195 78.7947 191.635 78.608 190.952 78.608H187.784L188.2 72.8H194.328V74.192H189.544L189.352 77.168H190.984ZM203.176 84H201.448L197.8 80.208V84H196.408V72.8H197.8V79.536L201.256 76H203.048L199.224 79.872L203.176 84Z" fill="#202020"/>
<rect x="84" y="92" width="426" height="38" fill="#ECECEC"/>
<rect x="84" y="92" width="121" height="38" fill="#085881"/>
<path d="M156.07 113.928C156.07 114.835 155.776 115.576 155.19 116.152C154.614 116.717 153.856 117.059 152.918 117.176V118.6H151.878V117.192C150.992 117.139 150.235 116.899 149.606 116.472C148.976 116.045 148.523 115.464 148.246 114.728L149.83 113.816C150.203 114.755 150.886 115.277 151.878 115.384V112.056C151.398 111.875 151.008 111.715 150.71 111.576C150.411 111.427 150.091 111.224 149.75 110.968C149.419 110.712 149.168 110.403 148.998 110.04C148.838 109.667 148.758 109.235 148.758 108.744C148.758 107.848 149.056 107.123 149.654 106.568C150.251 106.013 150.992 105.693 151.878 105.608V104.2H152.918V105.624C154.347 105.816 155.339 106.547 155.894 107.816L154.342 108.712C154.064 108.019 153.59 107.597 152.918 107.448V110.616C153.259 110.744 153.515 110.845 153.686 110.92C153.867 110.995 154.102 111.107 154.39 111.256C154.688 111.405 154.918 111.555 155.078 111.704C155.238 111.853 155.403 112.035 155.574 112.248C155.755 112.461 155.883 112.712 155.958 113C156.032 113.277 156.07 113.587 156.07 113.928ZM150.598 108.744C150.598 109.075 150.694 109.347 150.886 109.56C151.088 109.773 151.419 109.987 151.878 110.2V107.416C151.483 107.48 151.168 107.629 150.934 107.864C150.71 108.099 150.598 108.392 150.598 108.744ZM152.918 115.368C153.344 115.283 153.67 115.112 153.894 114.856C154.118 114.6 154.23 114.296 154.23 113.944C154.23 113.592 154.123 113.309 153.91 113.096C153.696 112.872 153.366 112.659 152.918 112.456V115.368ZM161.043 117V115.56L164.947 111.576C165.896 110.627 166.371 109.805 166.371 109.112C166.371 108.568 166.206 108.147 165.875 107.848C165.555 107.539 165.144 107.384 164.643 107.384C163.704 107.384 163.011 107.848 162.563 108.776L161.011 107.864C161.363 107.117 161.859 106.552 162.499 106.168C163.139 105.784 163.848 105.592 164.627 105.592C165.608 105.592 166.451 105.901 167.155 106.52C167.859 107.139 168.211 107.981 168.211 109.048C168.211 110.189 167.576 111.405 166.307 112.696L163.779 115.224H168.419V117H161.043ZM168.943 105.8H176.063V107.4L172.127 117H170.191L174.063 107.56H168.943V105.8ZM184.194 115.624C183.426 116.68 182.349 117.208 180.962 117.208C179.575 117.208 178.493 116.68 177.714 115.624C176.946 114.568 176.562 113.16 176.562 111.4C176.562 109.64 176.946 108.232 177.714 107.176C178.493 106.12 179.575 105.592 180.962 105.592C182.349 105.592 183.426 106.12 184.194 107.176C184.973 108.232 185.362 109.64 185.362 111.4C185.362 113.16 184.973 114.568 184.194 115.624ZM180.962 115.416C181.794 115.416 182.429 115.069 182.866 114.376C183.303 113.683 183.522 112.691 183.522 111.4C183.522 110.109 183.303 109.117 182.866 108.424C182.429 107.731 181.794 107.384 180.962 107.384C180.141 107.384 179.506 107.731 179.058 108.424C178.621 109.117 178.402 110.109 178.402 111.4C178.402 112.691 178.621 113.683 179.058 114.376C179.506 115.069 180.141 115.416 180.962 115.416ZM194.08 117H192.016L188.736 113.304V117H187.008V105.8H188.736V112.536L191.84 109H193.952L190.432 112.92L194.08 117Z" fill="white"/>
<circle cx="49" cy="111" r="19" fill="#D9D9D9"/>
<path opacity="0.9" d="M141.954 148.8V150.208H138.642V160H137.17V150.208H133.874V148.8H141.954ZM148.453 152H149.845V160H148.453V158.624C147.76 159.68 146.752 160.208 145.429 160.208C144.309 160.208 143.355 159.803 142.565 158.992C141.776 158.171 141.381 157.173 141.381 156C141.381 154.827 141.776 153.835 142.565 153.024C143.355 152.203 144.309 151.792 145.429 151.792C146.752 151.792 147.76 152.32 148.453 153.376V152ZM145.605 158.864C146.416 158.864 147.093 158.592 147.637 158.048C148.181 157.493 148.453 156.811 148.453 156C148.453 155.189 148.181 154.512 147.637 153.968C147.093 153.413 146.416 153.136 145.605 153.136C144.805 153.136 144.133 153.413 143.589 153.968C143.045 154.512 142.773 155.189 142.773 156C142.773 156.811 143.045 157.493 143.589 158.048C144.133 158.592 144.805 158.864 145.605 158.864ZM153.346 153.344C153.805 152.352 154.637 151.856 155.842 151.856V153.312C155.16 153.28 154.573 153.461 154.082 153.856C153.592 154.251 153.346 154.885 153.346 155.76V160H151.954V152H153.346V153.344ZM163.407 152H164.783V159.664C164.783 160.848 164.383 161.765 163.583 162.416C162.783 163.077 161.823 163.408 160.703 163.408C159.807 163.408 159.034 163.237 158.383 162.896C157.732 162.565 157.242 162.085 156.911 161.456L158.127 160.768C158.564 161.664 159.434 162.112 160.735 162.112C161.567 162.112 162.218 161.893 162.687 161.456C163.167 161.019 163.407 160.421 163.407 159.664V158.528C162.703 159.595 161.7 160.128 160.399 160.128C159.258 160.128 158.292 159.723 157.503 158.912C156.714 158.101 156.319 157.115 156.319 155.952C156.319 154.789 156.714 153.808 157.503 153.008C158.292 152.197 159.258 151.792 160.399 151.792C161.711 151.792 162.714 152.32 163.407 153.376V152ZM158.527 157.984C159.071 158.528 159.748 158.8 160.559 158.8C161.37 158.8 162.047 158.528 162.591 157.984C163.135 157.44 163.407 156.763 163.407 155.952C163.407 155.152 163.135 154.48 162.591 153.936C162.047 153.392 161.37 153.12 160.559 153.12C159.748 153.12 159.071 153.392 158.527 153.936C157.983 154.48 157.711 155.152 157.711 155.952C157.711 156.763 157.983 157.44 158.527 157.984ZM167.868 156.64C168.007 157.355 168.332 157.909 168.844 158.304C169.367 158.699 170.007 158.896 170.764 158.896C171.82 158.896 172.588 158.507 173.068 157.728L174.252 158.4C173.473 159.605 172.3 160.208 170.732 160.208C169.463 160.208 168.428 159.813 167.628 159.024C166.839 158.224 166.444 157.216 166.444 156C166.444 154.795 166.833 153.792 167.612 152.992C168.391 152.192 169.399 151.792 170.636 151.792C171.809 151.792 172.764 152.208 173.5 153.04C174.247 153.861 174.62 154.853 174.62 156.016C174.62 156.219 174.604 156.427 174.572 156.64H167.868ZM170.636 153.104C169.889 153.104 169.271 153.317 168.78 153.744C168.289 154.16 167.985 154.72 167.868 155.424H173.212C173.095 154.667 172.796 154.091 172.316 153.696C171.836 153.301 171.276 153.104 170.636 153.104ZM180.338 153.344H178.21V157.68C178.21 158.075 178.284 158.357 178.434 158.528C178.594 158.688 178.834 158.773 179.154 158.784C179.474 158.784 179.868 158.773 180.338 158.752V160C179.122 160.16 178.231 160.064 177.666 159.712C177.1 159.349 176.818 158.672 176.818 157.68V153.344H175.234V152H176.818V150.176L178.21 149.76V152H180.338V153.344ZM182.913 153.888C182.625 153.888 182.379 153.787 182.177 153.584C181.974 153.381 181.873 153.136 181.873 152.848C181.873 152.56 181.974 152.315 182.177 152.112C182.379 151.909 182.625 151.808 182.913 151.808C183.211 151.808 183.457 151.909 183.649 152.112C183.851 152.315 183.953 152.56 183.953 152.848C183.953 153.136 183.851 153.381 183.649 153.584C183.457 153.787 183.211 153.888 182.913 153.888ZM182.913 160.176C182.625 160.176 182.379 160.075 182.177 159.872C181.974 159.669 181.873 159.424 181.873 159.136C181.873 158.848 181.974 158.603 182.177 158.4C182.379 158.197 182.625 158.096 182.913 158.096C183.211 158.096 183.457 158.197 183.649 158.4C183.851 158.603 183.953 158.848 183.953 159.136C183.953 159.424 183.851 159.669 183.649 159.872C183.457 160.075 183.211 160.176 182.913 160.176ZM197.107 157.008C197.107 157.883 196.819 158.603 196.243 159.168C195.667 159.733 194.921 160.069 194.003 160.176V161.6H192.995V160.192C192.121 160.128 191.374 159.888 190.755 159.472C190.147 159.056 189.705 158.496 189.427 157.792L190.707 157.056C191.07 158.048 191.833 158.608 192.995 158.736V154.864C192.515 154.693 192.126 154.539 191.827 154.4C191.539 154.251 191.235 154.053 190.915 153.808C190.595 153.563 190.355 153.264 190.195 152.912C190.046 152.549 189.971 152.133 189.971 151.664C189.971 150.8 190.259 150.096 190.835 149.552C191.411 149.008 192.131 148.693 192.995 148.608V147.2H194.003V148.624C194.643 148.709 195.214 148.933 195.715 149.296C196.217 149.659 196.606 150.149 196.883 150.768L195.635 151.472C195.326 150.693 194.782 150.229 194.003 150.08V153.76C194.494 153.941 194.883 154.101 195.171 154.24C195.459 154.379 195.774 154.576 196.115 154.832C196.457 155.077 196.707 155.381 196.867 155.744C197.027 156.107 197.107 156.528 197.107 157.008ZM191.443 151.664C191.443 152.069 191.566 152.4 191.811 152.656C192.057 152.912 192.451 153.152 192.995 153.376V150.064C192.526 150.128 192.147 150.304 191.859 150.592C191.582 150.869 191.443 151.227 191.443 151.664ZM194.003 158.704C194.515 158.629 194.91 158.443 195.187 158.144C195.475 157.835 195.619 157.461 195.619 157.024C195.619 156.587 195.486 156.24 195.219 155.984C194.963 155.717 194.558 155.467 194.003 155.232V158.704ZM198.24 160V158.784L202.192 154.752C203.248 153.696 203.776 152.789 203.776 152.032C203.776 151.403 203.584 150.912 203.2 150.56C202.816 150.208 202.347 150.032 201.792 150.032C200.736 150.032 199.968 150.533 199.488 151.536L198.24 150.8C198.592 150.075 199.077 149.525 199.696 149.152C200.325 148.779 201.019 148.592 201.776 148.592C202.715 148.592 203.531 148.901 204.224 149.52C204.917 150.139 205.264 150.971 205.264 152.016C205.264 153.147 204.597 154.379 203.264 155.712L200.4 158.56H205.472V160H198.24ZM206.077 148.8H213.069V150.128L208.989 160H207.437L211.485 150.208H206.077V148.8ZM216.984 153.168C218.04 153.168 218.931 153.483 219.656 154.112C220.392 154.731 220.76 155.589 220.76 156.688C220.76 157.776 220.387 158.635 219.64 159.264C218.893 159.893 217.987 160.208 216.92 160.208C216.067 160.208 215.304 160.005 214.632 159.6C213.96 159.184 213.491 158.587 213.224 157.808L214.488 157.088C214.637 157.632 214.925 158.048 215.352 158.336C215.779 158.613 216.301 158.752 216.92 158.752C217.624 158.752 218.195 158.571 218.632 158.208C219.069 157.845 219.288 157.339 219.288 156.688C219.288 156.037 219.069 155.531 218.632 155.168C218.195 154.795 217.635 154.608 216.952 154.608H213.784L214.2 148.8H220.328V150.192H215.544L215.352 153.168H216.984ZM229.176 160H227.448L223.8 156.208V160H222.408V148.8H223.8V155.536L227.256 152H229.048L225.224 155.872L229.176 160Z" fill="#202020"/>
<rect x="84" y="168" width="426" height="38" fill="#ECECEC"/>
<rect x="84" y="168" width="147" height="38" fill="#085881"/>
<path d="M181.07 189.928C181.07 190.835 180.776 191.576 180.19 192.152C179.614 192.717 178.856 193.059 177.918 193.176V194.6H176.878V193.192C175.992 193.139 175.235 192.899 174.606 192.472C173.976 192.045 173.523 191.464 173.246 190.728L174.83 189.816C175.203 190.755 175.886 191.277 176.878 191.384V188.056C176.398 187.875 176.008 187.715 175.71 187.576C175.411 187.427 175.091 187.224 174.75 186.968C174.419 186.712 174.168 186.403 173.998 186.04C173.838 185.667 173.758 185.235 173.758 184.744C173.758 183.848 174.056 183.123 174.654 182.568C175.251 182.013 175.992 181.693 176.878 181.608V180.2H177.918V181.624C179.347 181.816 180.339 182.547 180.894 183.816L179.342 184.712C179.064 184.019 178.59 183.597 177.918 183.448V186.616C178.259 186.744 178.515 186.845 178.686 186.92C178.867 186.995 179.102 187.107 179.39 187.256C179.688 187.405 179.918 187.555 180.078 187.704C180.238 187.853 180.403 188.035 180.574 188.248C180.755 188.461 180.883 188.712 180.958 189C181.032 189.277 181.07 189.587 181.07 189.928ZM175.598 184.744C175.598 185.075 175.694 185.347 175.886 185.56C176.088 185.773 176.419 185.987 176.878 186.2V183.416C176.483 183.48 176.168 183.629 175.934 183.864C175.71 184.099 175.598 184.392 175.598 184.744ZM177.918 191.368C178.344 191.283 178.67 191.112 178.894 190.856C179.118 190.6 179.23 190.296 179.23 189.944C179.23 189.592 179.123 189.309 178.91 189.096C178.696 188.872 178.366 188.659 177.918 188.456V191.368ZM186.043 193V191.56L189.947 187.576C190.896 186.627 191.371 185.805 191.371 185.112C191.371 184.568 191.206 184.147 190.875 183.848C190.555 183.539 190.144 183.384 189.643 183.384C188.704 183.384 188.011 183.848 187.563 184.776L186.011 183.864C186.363 183.117 186.859 182.552 187.499 182.168C188.139 181.784 188.848 181.592 189.627 181.592C190.608 181.592 191.451 181.901 192.155 182.52C192.859 183.139 193.211 183.981 193.211 185.048C193.211 186.189 192.576 187.405 191.307 188.696L188.779 191.224H193.419V193H186.043ZM193.943 181.8H201.063V183.4L197.127 193H195.191L199.063 183.56H193.943V181.8ZM209.194 191.624C208.426 192.68 207.349 193.208 205.962 193.208C204.575 193.208 203.493 192.68 202.714 191.624C201.946 190.568 201.562 189.16 201.562 187.4C201.562 185.64 201.946 184.232 202.714 183.176C203.493 182.12 204.575 181.592 205.962 181.592C207.349 181.592 208.426 182.12 209.194 183.176C209.973 184.232 210.362 185.64 210.362 187.4C210.362 189.16 209.973 190.568 209.194 191.624ZM205.962 191.416C206.794 191.416 207.429 191.069 207.866 190.376C208.303 189.683 208.522 188.691 208.522 187.4C208.522 186.109 208.303 185.117 207.866 184.424C207.429 183.731 206.794 183.384 205.962 183.384C205.141 183.384 204.506 183.731 204.058 184.424C203.621 185.117 203.402 186.109 203.402 187.4C203.402 188.691 203.621 189.683 204.058 190.376C204.506 191.069 205.141 191.416 205.962 191.416ZM219.08 193H217.016L213.736 189.304V193H212.008V181.8H213.736V188.536L216.84 185H218.952L215.432 188.92L219.08 193Z" fill="white"/>
<circle cx="49" cy="187" r="19" fill="#D9D9D9"/>
<path opacity="0.9" d="M286.954 224.8V226.208H283.642V236H282.17V226.208H278.874V224.8H286.954ZM293.453 228H294.845V236H293.453V234.624C292.76 235.68 291.752 236.208 290.429 236.208C289.309 236.208 288.355 235.803 287.565 234.992C286.776 234.171 286.381 233.173 286.381 232C286.381 230.827 286.776 229.835 287.565 229.024C288.355 228.203 289.309 227.792 290.429 227.792C291.752 227.792 292.76 228.32 293.453 229.376V228ZM290.605 234.864C291.416 234.864 292.093 234.592 292.637 234.048C293.181 233.493 293.453 232.811 293.453 232C293.453 231.189 293.181 230.512 292.637 229.968C292.093 229.413 291.416 229.136 290.605 229.136C289.805 229.136 289.133 229.413 288.589 229.968C288.045 230.512 287.773 231.189 287.773 232C287.773 232.811 288.045 233.493 288.589 234.048C289.133 234.592 289.805 234.864 290.605 234.864ZM298.346 229.344C298.805 228.352 299.637 227.856 300.842 227.856V229.312C300.16 229.28 299.573 229.461 299.082 229.856C298.592 230.251 298.346 230.885 298.346 231.76V236H296.954V228H298.346V229.344ZM308.407 228H309.783V235.664C309.783 236.848 309.383 237.765 308.583 238.416C307.783 239.077 306.823 239.408 305.703 239.408C304.807 239.408 304.034 239.237 303.383 238.896C302.732 238.565 302.242 238.085 301.911 237.456L303.127 236.768C303.564 237.664 304.434 238.112 305.735 238.112C306.567 238.112 307.218 237.893 307.687 237.456C308.167 237.019 308.407 236.421 308.407 235.664V234.528C307.703 235.595 306.7 236.128 305.399 236.128C304.258 236.128 303.292 235.723 302.503 234.912C301.714 234.101 301.319 233.115 301.319 231.952C301.319 230.789 301.714 229.808 302.503 229.008C303.292 228.197 304.258 227.792 305.399 227.792C306.711 227.792 307.714 228.32 308.407 229.376V228ZM303.527 233.984C304.071 234.528 304.748 234.8 305.559 234.8C306.37 234.8 307.047 234.528 307.591 233.984C308.135 233.44 308.407 232.763 308.407 231.952C308.407 231.152 308.135 230.48 307.591 229.936C307.047 229.392 306.37 229.12 305.559 229.12C304.748 229.12 304.071 229.392 303.527 229.936C302.983 230.48 302.711 231.152 302.711 231.952C302.711 232.763 302.983 233.44 303.527 233.984ZM312.868 232.64C313.007 233.355 313.332 233.909 313.844 234.304C314.367 234.699 315.007 234.896 315.764 234.896C316.82 234.896 317.588 234.507 318.068 233.728L319.252 234.4C318.473 235.605 317.3 236.208 315.732 236.208C314.463 236.208 313.428 235.813 312.628 235.024C311.839 234.224 311.444 233.216 311.444 232C311.444 230.795 311.833 229.792 312.612 228.992C313.391 228.192 314.399 227.792 315.636 227.792C316.809 227.792 317.764 228.208 318.5 229.04C319.247 229.861 319.62 230.853 319.62 232.016C319.62 232.219 319.604 232.427 319.572 232.64H312.868ZM315.636 229.104C314.889 229.104 314.271 229.317 313.78 229.744C313.289 230.16 312.985 230.72 312.868 231.424H318.212C318.095 230.667 317.796 230.091 317.316 229.696C316.836 229.301 316.276 229.104 315.636 229.104ZM325.338 229.344H323.21V233.68C323.21 234.075 323.284 234.357 323.434 234.528C323.594 234.688 323.834 234.773 324.154 234.784C324.474 234.784 324.868 234.773 325.338 234.752V236C324.122 236.16 323.231 236.064 322.666 235.712C322.1 235.349 321.818 234.672 321.818 233.68V229.344H320.234V228H321.818V226.176L323.21 225.76V228H325.338V229.344ZM327.913 229.888C327.625 229.888 327.379 229.787 327.177 229.584C326.974 229.381 326.873 229.136 326.873 228.848C326.873 228.56 326.974 228.315 327.177 228.112C327.379 227.909 327.625 227.808 327.913 227.808C328.211 227.808 328.457 227.909 328.649 228.112C328.851 228.315 328.953 228.56 328.953 228.848C328.953 229.136 328.851 229.381 328.649 229.584C328.457 229.787 328.211 229.888 327.913 229.888ZM327.913 236.176C327.625 236.176 327.379 236.075 327.177 235.872C326.974 235.669 326.873 235.424 326.873 235.136C326.873 234.848 326.974 234.603 327.177 234.4C327.379 234.197 327.625 234.096 327.913 234.096C328.211 234.096 328.457 234.197 328.649 234.4C328.851 234.603 328.953 234.848 328.953 235.136C328.953 235.424 328.851 235.669 328.649 235.872C328.457 236.075 328.211 236.176 327.913 236.176ZM342.107 233.008C342.107 233.883 341.819 234.603 341.243 235.168C340.667 235.733 339.921 236.069 339.003 236.176V237.6H337.995V236.192C337.121 236.128 336.374 235.888 335.755 235.472C335.147 235.056 334.705 234.496 334.427 233.792L335.707 233.056C336.07 234.048 336.833 234.608 337.995 234.736V230.864C337.515 230.693 337.126 230.539 336.827 230.4C336.539 230.251 336.235 230.053 335.915 229.808C335.595 229.563 335.355 229.264 335.195 228.912C335.046 228.549 334.971 228.133 334.971 227.664C334.971 226.8 335.259 226.096 335.835 225.552C336.411 225.008 337.131 224.693 337.995 224.608V223.2H339.003V224.624C339.643 224.709 340.214 224.933 340.715 225.296C341.217 225.659 341.606 226.149 341.883 226.768L340.635 227.472C340.326 226.693 339.782 226.229 339.003 226.08V229.76C339.494 229.941 339.883 230.101 340.171 230.24C340.459 230.379 340.774 230.576 341.115 230.832C341.457 231.077 341.707 231.381 341.867 231.744C342.027 232.107 342.107 232.528 342.107 233.008ZM336.443 227.664C336.443 228.069 336.566 228.4 336.811 228.656C337.057 228.912 337.451 229.152 337.995 229.376V226.064C337.526 226.128 337.147 226.304 336.859 226.592C336.582 226.869 336.443 227.227 336.443 227.664ZM339.003 234.704C339.515 234.629 339.91 234.443 340.187 234.144C340.475 233.835 340.619 233.461 340.619 233.024C340.619 232.587 340.486 232.24 340.219 231.984C339.963 231.717 339.558 231.467 339.003 231.232V234.704ZM343.24 236V234.784L347.192 230.752C348.248 229.696 348.776 228.789 348.776 228.032C348.776 227.403 348.584 226.912 348.2 226.56C347.816 226.208 347.347 226.032 346.792 226.032C345.736 226.032 344.968 226.533 344.488 227.536L343.24 226.8C343.592 226.075 344.077 225.525 344.696 225.152C345.325 224.779 346.019 224.592 346.776 224.592C347.715 224.592 348.531 224.901 349.224 225.52C349.917 226.139 350.264 226.971 350.264 228.016C350.264 229.147 349.597 230.379 348.264 231.712L345.4 234.56H350.472V236H343.24ZM351.077 224.8H358.069V226.128L353.989 236H352.437L356.485 226.208H351.077V224.8ZM361.984 229.168C363.04 229.168 363.931 229.483 364.656 230.112C365.392 230.731 365.76 231.589 365.76 232.688C365.76 233.776 365.387 234.635 364.64 235.264C363.893 235.893 362.987 236.208 361.92 236.208C361.067 236.208 360.304 236.005 359.632 235.6C358.96 235.184 358.491 234.587 358.224 233.808L359.488 233.088C359.637 233.632 359.925 234.048 360.352 234.336C360.779 234.613 361.301 234.752 361.92 234.752C362.624 234.752 363.195 234.571 363.632 234.208C364.069 233.845 364.288 233.339 364.288 232.688C364.288 232.037 364.069 231.531 363.632 231.168C363.195 230.795 362.635 230.608 361.952 230.608H358.784L359.2 224.8H365.328V226.192H360.544L360.352 229.168H361.984ZM374.176 236H372.448L368.8 232.208V236H367.408V224.8H368.8V231.536L372.256 228H374.048L370.224 231.872L374.176 236Z" fill="#202020"/>
<rect x="84" y="244" width="426" height="38" fill="#ECECEC"/>
<rect x="84" y="244" width="292" height="38" fill="#085881"/>
<path d="M327.57 265.928C327.57 266.835 327.276 267.576 326.69 268.152C326.114 268.717 325.356 269.059 324.418 269.176V270.6H323.378V269.192C322.492 269.139 321.735 268.899 321.106 268.472C320.476 268.045 320.023 267.464 319.746 266.728L321.33 265.816C321.703 266.755 322.386 267.277 323.378 267.384V264.056C322.898 263.875 322.508 263.715 322.21 263.576C321.911 263.427 321.591 263.224 321.25 262.968C320.919 262.712 320.668 262.403 320.498 262.04C320.338 261.667 320.258 261.235 320.258 260.744C320.258 259.848 320.556 259.123 321.154 258.568C321.751 258.013 322.492 257.693 323.378 257.608V256.2H324.418V257.624C325.847 257.816 326.839 258.547 327.394 259.816L325.842 260.712C325.564 260.019 325.09 259.597 324.418 259.448V262.616C324.759 262.744 325.015 262.845 325.186 262.92C325.367 262.995 325.602 263.107 325.89 263.256C326.188 263.405 326.418 263.555 326.578 263.704C326.738 263.853 326.903 264.035 327.074 264.248C327.255 264.461 327.383 264.712 327.458 265C327.532 265.277 327.57 265.587 327.57 265.928ZM322.098 260.744C322.098 261.075 322.194 261.347 322.386 261.56C322.588 261.773 322.919 261.987 323.378 262.2V259.416C322.983 259.48 322.668 259.629 322.434 259.864C322.21 260.099 322.098 260.392 322.098 260.744ZM324.418 267.368C324.844 267.283 325.17 267.112 325.394 266.856C325.618 266.6 325.73 266.296 325.73 265.944C325.73 265.592 325.623 265.309 325.41 265.096C325.196 264.872 324.866 264.659 324.418 264.456V267.368ZM332.543 269V267.56L336.447 263.576C337.396 262.627 337.871 261.805 337.871 261.112C337.871 260.568 337.706 260.147 337.375 259.848C337.055 259.539 336.644 259.384 336.143 259.384C335.204 259.384 334.511 259.848 334.063 260.776L332.511 259.864C332.863 259.117 333.359 258.552 333.999 258.168C334.639 257.784 335.348 257.592 336.127 257.592C337.108 257.592 337.951 257.901 338.655 258.52C339.359 259.139 339.711 259.981 339.711 261.048C339.711 262.189 339.076 263.405 337.807 264.696L335.279 267.224H339.919V269H332.543ZM340.443 257.8H347.563V259.4L343.627 269H341.691L345.563 259.56H340.443V257.8ZM355.694 267.624C354.926 268.68 353.849 269.208 352.462 269.208C351.075 269.208 349.993 268.68 349.214 267.624C348.446 266.568 348.062 265.16 348.062 263.4C348.062 261.64 348.446 260.232 349.214 259.176C349.993 258.12 351.075 257.592 352.462 257.592C353.849 257.592 354.926 258.12 355.694 259.176C356.473 260.232 356.862 261.64 356.862 263.4C356.862 265.16 356.473 266.568 355.694 267.624ZM352.462 267.416C353.294 267.416 353.929 267.069 354.366 266.376C354.803 265.683 355.022 264.691 355.022 263.4C355.022 262.109 354.803 261.117 354.366 260.424C353.929 259.731 353.294 259.384 352.462 259.384C351.641 259.384 351.006 259.731 350.558 260.424C350.121 261.117 349.902 262.109 349.902 263.4C349.902 264.691 350.121 265.683 350.558 266.376C351.006 267.069 351.641 267.416 352.462 267.416ZM365.58 269H363.516L360.236 265.304V269H358.508V257.8H360.236V264.536L363.34 261H365.452L361.932 264.92L365.58 269Z" fill="white"/>
<circle cx="49" cy="263" r="19" fill="#D9D9D9"/>
</svg>
