<svg width="770" height="255" viewBox="0 0 770 255" fill="none" xmlns="http://www.w3.org/2000/svg">
<path d="M723 229L717 239.5H728.5L723 229Z" fill="#D9D9D9" stroke="#D9DBE0" stroke-width="2"/>
<path d="M761.5 238.5L767.5 228L756 228L761.5 238.5Z" fill="#D9D9D9" stroke="#D9DBE0" stroke-width="2"/>
<path d="M736.161 227.5H737.361V238H735.981V229L733.746 229.66L733.401 228.46L736.161 227.5ZM739.888 239.5H739.108L745.108 226H745.888L739.888 239.5ZM749.432 227.5H750.632V238H749.252V229L747.017 229.66L746.672 228.46L749.432 227.5Z" fill="#343636"/>
<path opacity="0.9" d="M11.9123 19L8.36025 12.88H5.09625V19H2.33625V2.2H9.05625C10.5603 2.2 11.8323 2.728 12.8723 3.784C13.9283 4.824 14.4563 6.096 14.4563 7.6C14.4563 8.672 14.1443 9.656 13.5203 10.552C12.9123 11.432 12.1123 12.072 11.1203 12.472L14.9363 19H11.9123ZM5.09625 4.792V10.408H9.05625C9.79225 10.408 10.4163 10.136 10.9283 9.592C11.4403 9.048 11.6963 8.384 11.6963 7.6C11.6963 6.816 11.4403 6.152 10.9283 5.608C10.4163 5.064 9.79225 4.792 9.05625 4.792H5.09625ZM18.2942 14.104C18.4862 15.016 18.9262 15.72 19.6142 16.216C20.3022 16.696 21.1422 16.936 22.1342 16.936C23.5102 16.936 24.5422 16.44 25.2302 15.448L27.3662 16.696C26.1822 18.44 24.4302 19.312 22.1102 19.312C20.1582 19.312 18.5822 18.72 17.3822 17.536C16.1822 16.336 15.5822 14.824 15.5822 13C15.5822 11.208 16.1742 9.712 17.3582 8.512C18.5422 7.296 20.0622 6.688 21.9182 6.688C23.6782 6.688 25.1182 7.304 26.2382 8.536C27.3742 9.768 27.9422 11.264 27.9422 13.024C27.9422 13.296 27.9102 13.656 27.8462 14.104H18.2942ZM18.2702 11.992H25.3262C25.1502 11.016 24.7422 10.28 24.1022 9.784C23.4782 9.288 22.7422 9.04 21.8942 9.04C20.9342 9.04 20.1342 9.304 19.4942 9.832C18.8542 10.36 18.4462 11.08 18.2702 11.992ZM35.8166 19.312C34.0086 19.312 32.4966 18.704 31.2806 17.488C30.0806 16.272 29.4806 14.776 29.4806 13C29.4806 11.208 30.0806 9.712 31.2806 8.512C32.4966 7.296 34.0086 6.688 35.8166 6.688C36.9846 6.688 38.0486 6.968 39.0086 7.528C39.9686 8.088 40.6886 8.84 41.1686 9.784L38.9366 11.08C38.6646 10.504 38.2486 10.056 37.6886 9.736C37.1446 9.4 36.5126 9.232 35.7926 9.232C34.7366 9.232 33.8486 9.592 33.1286 10.312C32.4246 11.032 32.0726 11.928 32.0726 13C32.0726 14.072 32.4246 14.968 33.1286 15.688C33.8486 16.408 34.7366 16.768 35.7926 16.768C36.4966 16.768 37.1286 16.6 37.6886 16.264C38.2646 15.928 38.6966 15.48 38.9846 14.92L41.2166 16.192C40.7046 17.152 39.9686 17.912 39.0086 18.472C38.0486 19.032 36.9846 19.312 35.8166 19.312ZM44.9426 14.104C45.1346 15.016 45.5746 15.72 46.2626 16.216C46.9506 16.696 47.7906 16.936 48.7826 16.936C50.1586 16.936 51.1906 16.44 51.8786 15.448L54.0146 16.696C52.8306 18.44 51.0786 19.312 48.7586 19.312C46.8066 19.312 45.2306 18.72 44.0306 17.536C42.8306 16.336 42.2306 14.824 42.2306 13C42.2306 11.208 42.8226 9.712 44.0066 8.512C45.1906 7.296 46.7106 6.688 48.5666 6.688C50.3266 6.688 51.7666 7.304 52.8866 8.536C54.0226 9.768 54.5906 11.264 54.5906 13.024C54.5906 13.296 54.5586 13.656 54.4946 14.104H44.9426ZM44.9186 11.992H51.9746C51.7986 11.016 51.3906 10.28 50.7506 9.784C50.1266 9.288 49.3906 9.04 48.5426 9.04C47.5826 9.04 46.7826 9.304 46.1426 9.832C45.5026 10.36 45.0946 11.08 44.9186 11.992ZM63.1834 6.688C64.5594 6.688 65.6714 7.128 66.5194 8.008C67.3674 8.888 67.7914 10.096 67.7914 11.632V19H65.1994V11.896C65.1994 11 64.9594 10.312 64.4794 9.832C63.9994 9.352 63.3434 9.112 62.5114 9.112C61.5994 9.112 60.8634 9.4 60.3034 9.976C59.7434 10.536 59.4634 11.4 59.4634 12.568V19H56.8714V7H59.4634V8.536C60.2474 7.304 61.4874 6.688 63.1834 6.688ZM77.2783 9.496H74.3023V15.256C74.3023 15.752 74.4143 16.112 74.6383 16.336C74.8623 16.544 75.1903 16.664 75.6223 16.696C76.0703 16.712 76.6223 16.704 77.2783 16.672V19C75.2943 19.24 73.8703 19.072 73.0063 18.496C72.1423 17.904 71.7103 16.824 71.7103 15.256V9.496H69.5023V7H71.7103V4.408L74.3023 3.64V7H77.2783V9.496ZM85.7464 19V1.48H88.3384V19H85.7464ZM93.3879 14.104C93.5799 15.016 94.0199 15.72 94.7079 16.216C95.3959 16.696 96.2359 16.936 97.2279 16.936C98.6039 16.936 99.6359 16.44 100.324 15.448L102.46 16.696C101.276 18.44 99.5239 19.312 97.2039 19.312C95.2519 19.312 93.6759 18.72 92.4759 17.536C91.2759 16.336 90.6759 14.824 90.6759 13C90.6759 11.208 91.2679 9.712 92.4519 8.512C93.6359 7.296 95.1559 6.688 97.0119 6.688C98.7719 6.688 100.212 7.304 101.332 8.536C102.468 9.768 103.036 11.264 103.036 13.024C103.036 13.296 103.004 13.656 102.94 14.104H93.3879ZM93.3639 11.992H100.42C100.244 11.016 99.8359 10.28 99.1959 9.784C98.5719 9.288 97.8359 9.04 96.9879 9.04C96.0279 9.04 95.2279 9.304 94.5879 9.832C93.9479 10.36 93.5399 11.08 93.3639 11.992ZM114.75 7H117.342V19H114.75V17.272C113.774 18.632 112.374 19.312 110.55 19.312C108.902 19.312 107.494 18.704 106.326 17.488C105.158 16.256 104.574 14.76 104.574 13C104.574 11.224 105.158 9.728 106.326 8.512C107.494 7.296 108.902 6.688 110.55 6.688C112.374 6.688 113.774 7.36 114.75 8.704V7ZM108.246 15.76C108.966 16.48 109.87 16.84 110.958 16.84C112.046 16.84 112.95 16.48 113.67 15.76C114.39 15.024 114.75 14.104 114.75 13C114.75 11.896 114.39 10.984 113.67 10.264C112.95 9.528 112.046 9.16 110.958 9.16C109.87 9.16 108.966 9.528 108.246 10.264C107.526 10.984 107.166 11.896 107.166 13C107.166 14.104 107.526 15.024 108.246 15.76ZM129.868 2.2H132.46V19H129.868V17.272C128.892 18.632 127.492 19.312 125.668 19.312C124.02 19.312 122.612 18.704 121.444 17.488C120.276 16.256 119.692 14.76 119.692 13C119.692 11.224 120.276 9.728 121.444 8.512C122.612 7.296 124.02 6.688 125.668 6.688C127.492 6.688 128.892 7.36 129.868 8.704V2.2ZM123.364 15.76C124.084 16.48 124.988 16.84 126.076 16.84C127.164 16.84 128.068 16.48 128.788 15.76C129.508 15.024 129.868 14.104 129.868 13C129.868 11.896 129.508 10.984 128.788 10.264C128.068 9.528 127.164 9.16 126.076 9.16C124.988 9.16 124.084 9.528 123.364 10.264C122.644 10.984 122.284 11.896 122.284 13C122.284 14.104 122.644 15.024 123.364 15.76ZM151.033 7H153.577V18.448C153.577 20.272 152.977 21.672 151.777 22.648C150.577 23.624 149.121 24.112 147.409 24.112C144.641 24.112 142.745 23.144 141.721 21.208L143.953 19.912C144.577 21.144 145.745 21.76 147.457 21.76C148.577 21.76 149.449 21.464 150.073 20.872C150.713 20.296 151.033 19.488 151.033 18.448V16.984C150.057 18.376 148.665 19.072 146.857 19.072C145.161 19.072 143.729 18.472 142.561 17.272C141.393 16.056 140.809 14.592 140.809 12.88C140.809 11.168 141.393 9.712 142.561 8.512C143.729 7.296 145.161 6.688 146.857 6.688C148.665 6.688 150.057 7.384 151.033 8.776V7ZM144.481 15.568C145.217 16.288 146.129 16.648 147.217 16.648C148.305 16.648 149.209 16.288 149.929 15.568C150.665 14.848 151.033 13.952 151.033 12.88C151.033 11.808 150.665 10.912 149.929 10.192C149.209 9.472 148.305 9.112 147.217 9.112C146.129 9.112 145.217 9.472 144.481 10.192C143.761 10.912 143.401 11.808 143.401 12.88C143.401 13.952 143.761 14.848 144.481 15.568ZM158.638 14.104C158.83 15.016 159.27 15.72 159.958 16.216C160.646 16.696 161.486 16.936 162.478 16.936C163.854 16.936 164.886 16.44 165.574 15.448L167.71 16.696C166.526 18.44 164.774 19.312 162.454 19.312C160.502 19.312 158.926 18.72 157.726 17.536C156.526 16.336 155.926 14.824 155.926 13C155.926 11.208 156.518 9.712 157.702 8.512C158.886 7.296 160.406 6.688 162.262 6.688C164.022 6.688 165.462 7.304 166.582 8.536C167.718 9.768 168.286 11.264 168.286 13.024C168.286 13.296 168.254 13.656 168.19 14.104H158.638ZM158.614 11.992H165.67C165.494 11.016 165.086 10.28 164.446 9.784C163.822 9.288 163.086 9.04 162.238 9.04C161.278 9.04 160.478 9.304 159.838 9.832C159.198 10.36 158.79 11.08 158.614 11.992ZM176.879 6.688C178.255 6.688 179.367 7.128 180.215 8.008C181.063 8.888 181.487 10.096 181.487 11.632V19H178.895V11.896C178.895 11 178.655 10.312 178.175 9.832C177.695 9.352 177.039 9.112 176.207 9.112C175.295 9.112 174.559 9.4 173.999 9.976C173.439 10.536 173.159 11.4 173.159 12.568V19H170.567V7H173.159V8.536C173.943 7.304 175.183 6.688 176.879 6.688ZM186.318 14.104C186.51 15.016 186.95 15.72 187.638 16.216C188.326 16.696 189.166 16.936 190.158 16.936C191.534 16.936 192.566 16.44 193.254 15.448L195.39 16.696C194.206 18.44 192.454 19.312 190.134 19.312C188.182 19.312 186.606 18.72 185.406 17.536C184.206 16.336 183.606 14.824 183.606 13C183.606 11.208 184.198 9.712 185.382 8.512C186.566 7.296 188.086 6.688 189.942 6.688C191.702 6.688 193.142 7.304 194.262 8.536C195.398 9.768 195.966 11.264 195.966 13.024C195.966 13.296 195.934 13.656 195.87 14.104H186.318ZM186.294 11.992H193.35C193.174 11.016 192.766 10.28 192.126 9.784C191.502 9.288 190.766 9.04 189.918 9.04C188.958 9.04 188.158 9.304 187.518 9.832C186.878 10.36 186.47 11.08 186.294 11.992ZM200.838 9.016C201.494 7.528 202.726 6.784 204.534 6.784V9.592C203.542 9.528 202.678 9.768 201.942 10.312C201.206 10.84 200.838 11.72 200.838 12.952V19H198.246V7H200.838V9.016ZM215.391 7H217.983V19H215.391V17.272C214.415 18.632 213.015 19.312 211.191 19.312C209.543 19.312 208.135 18.704 206.967 17.488C205.799 16.256 205.215 14.76 205.215 13C205.215 11.224 205.799 9.728 206.967 8.512C208.135 7.296 209.543 6.688 211.191 6.688C213.015 6.688 214.415 7.36 215.391 8.704V7ZM208.887 15.76C209.607 16.48 210.511 16.84 211.599 16.84C212.687 16.84 213.591 16.48 214.311 15.76C215.031 15.024 215.391 14.104 215.391 13C215.391 11.896 215.031 10.984 214.311 10.264C213.591 9.528 212.687 9.16 211.599 9.16C210.511 9.16 209.607 9.528 208.887 10.264C208.167 10.984 207.807 11.896 207.807 13C207.807 14.104 208.167 15.024 208.887 15.76ZM227.7 9.496H224.724V15.256C224.724 15.752 224.836 16.112 225.06 16.336C225.284 16.544 225.612 16.664 226.044 16.696C226.492 16.712 227.044 16.704 227.7 16.672V19C225.716 19.24 224.292 19.072 223.428 18.496C222.564 17.904 222.132 16.824 222.132 15.256V9.496H219.924V7H222.132V4.408L224.724 3.64V7H227.7V9.496ZM232.499 4.72C232.179 5.04 231.795 5.2 231.347 5.2C230.899 5.2 230.507 5.04 230.171 4.72C229.851 4.384 229.691 3.992 229.691 3.544C229.691 3.096 229.851 2.712 230.171 2.392C230.491 2.056 230.883 1.888 231.347 1.888C231.811 1.888 232.203 2.056 232.523 2.392C232.843 2.712 233.003 3.096 233.003 3.544C233.003 3.992 232.835 4.384 232.499 4.72ZM230.051 19V7H232.643V19H230.051ZM241.317 19.312C239.557 19.312 238.061 18.704 236.829 17.488C235.597 16.272 234.981 14.776 234.981 13C234.981 11.224 235.597 9.728 236.829 8.512C238.061 7.296 239.557 6.688 241.317 6.688C243.093 6.688 244.589 7.296 245.805 8.512C247.037 9.728 247.653 11.224 247.653 13C247.653 14.776 247.037 16.272 245.805 17.488C244.589 18.704 243.093 19.312 241.317 19.312ZM238.653 15.712C239.373 16.432 240.261 16.792 241.317 16.792C242.373 16.792 243.261 16.432 243.981 15.712C244.701 14.992 245.061 14.088 245.061 13C245.061 11.912 244.701 11.008 243.981 10.288C243.261 9.568 242.373 9.208 241.317 9.208C240.261 9.208 239.373 9.568 238.653 10.288C237.933 11.008 237.573 11.912 237.573 13C237.573 14.088 237.933 14.992 238.653 15.712ZM256.308 6.688C257.684 6.688 258.796 7.128 259.644 8.008C260.492 8.888 260.916 10.096 260.916 11.632V19H258.324V11.896C258.324 11 258.084 10.312 257.604 9.832C257.124 9.352 256.468 9.112 255.636 9.112C254.724 9.112 253.988 9.4 253.428 9.976C252.868 10.536 252.588 11.4 252.588 12.568V19H249.996V7H252.588V8.536C253.372 7.304 254.612 6.688 256.308 6.688ZM269.875 12.952V10.456H278.755V12.952H269.875ZM297.998 10.288C298.734 10.672 299.31 11.2 299.726 11.872C300.142 12.544 300.35 13.32 300.35 14.2C300.35 15.576 299.862 16.72 298.886 17.632C297.91 18.544 296.718 19 295.31 19H288.11V2.2H294.782C296.158 2.2 297.318 2.648 298.262 3.544C299.222 4.424 299.702 5.528 299.702 6.856C299.702 8.312 299.134 9.456 297.998 10.288ZM294.782 4.792H290.87V9.208H294.782C295.39 9.208 295.902 9 296.318 8.584C296.734 8.152 296.942 7.624 296.942 7C296.942 6.376 296.734 5.856 296.318 5.44C295.902 5.008 295.39 4.792 294.782 4.792ZM295.31 16.408C295.95 16.408 296.486 16.184 296.918 15.736C297.366 15.272 297.59 14.712 297.59 14.056C297.59 13.4 297.366 12.848 296.918 12.4C296.486 11.936 295.95 11.704 295.31 11.704H290.87V16.408H295.31ZM310.303 7H313.063L308.455 19.384C307.303 22.488 305.351 23.96 302.599 23.8V21.376C303.415 21.424 304.071 21.248 304.567 20.848C305.063 20.464 305.471 19.856 305.791 19.024L305.911 18.784L300.823 7H303.655L307.231 15.712L310.303 7ZM323.012 10.312C323.012 10.712 323.228 11.032 323.66 11.272C324.108 11.496 324.644 11.696 325.268 11.872C325.908 12.032 326.548 12.224 327.188 12.448C327.828 12.672 328.364 13.056 328.796 13.6C329.244 14.128 329.468 14.8 329.468 15.616C329.468 16.768 329.02 17.672 328.124 18.328C327.244 18.984 326.132 19.312 324.788 19.312C323.604 19.312 322.588 19.064 321.74 18.568C320.892 18.072 320.276 17.384 319.892 16.504L322.124 15.208C322.54 16.36 323.428 16.936 324.788 16.936C326.148 16.936 326.828 16.488 326.828 15.592C326.828 15.208 326.604 14.896 326.156 14.656C325.724 14.416 325.188 14.216 324.548 14.056C323.924 13.88 323.292 13.68 322.652 13.456C322.012 13.232 321.468 12.864 321.02 12.352C320.588 11.824 320.372 11.16 320.372 10.36C320.372 9.256 320.788 8.368 321.62 7.696C322.468 7.024 323.516 6.688 324.764 6.688C325.756 6.688 326.636 6.912 327.404 7.36C328.188 7.792 328.788 8.4 329.204 9.184L327.02 10.408C326.604 9.496 325.852 9.04 324.764 9.04C324.268 9.04 323.852 9.152 323.516 9.376C323.18 9.584 323.012 9.896 323.012 10.312ZM337.106 19.312C335.346 19.312 333.85 18.704 332.618 17.488C331.386 16.272 330.77 14.776 330.77 13C330.77 11.224 331.386 9.728 332.618 8.512C333.85 7.296 335.346 6.688 337.106 6.688C338.882 6.688 340.378 7.296 341.594 8.512C342.826 9.728 343.442 11.224 343.442 13C343.442 14.776 342.826 16.272 341.594 17.488C340.378 18.704 338.882 19.312 337.106 19.312ZM334.442 15.712C335.162 16.432 336.05 16.792 337.106 16.792C338.162 16.792 339.05 16.432 339.77 15.712C340.49 14.992 340.85 14.088 340.85 13C340.85 11.912 340.49 11.008 339.77 10.288C339.05 9.568 338.162 9.208 337.106 9.208C336.05 9.208 335.162 9.568 334.442 10.288C333.722 11.008 333.362 11.912 333.362 13C333.362 14.088 333.722 14.992 334.442 15.712ZM353.873 7H356.465V19H353.873V17.464C353.089 18.696 351.849 19.312 350.153 19.312C348.777 19.312 347.665 18.872 346.817 17.992C345.969 17.112 345.545 15.904 345.545 14.368V7H348.137V14.104C348.137 15 348.377 15.688 348.857 16.168C349.337 16.648 349.993 16.888 350.825 16.888C351.737 16.888 352.473 16.608 353.033 16.048C353.593 15.472 353.873 14.6 353.873 13.432V7ZM362.088 9.016C362.744 7.528 363.976 6.784 365.784 6.784V9.592C364.792 9.528 363.928 9.768 363.192 10.312C362.456 10.84 362.088 11.72 362.088 12.952V19H359.496V7H362.088V9.016ZM372.801 19.312C370.993 19.312 369.481 18.704 368.265 17.488C367.065 16.272 366.465 14.776 366.465 13C366.465 11.208 367.065 9.712 368.265 8.512C369.481 7.296 370.993 6.688 372.801 6.688C373.969 6.688 375.033 6.968 375.993 7.528C376.953 8.088 377.673 8.84 378.153 9.784L375.921 11.08C375.649 10.504 375.233 10.056 374.673 9.736C374.129 9.4 373.497 9.232 372.777 9.232C371.721 9.232 370.833 9.592 370.113 10.312C369.409 11.032 369.057 11.928 369.057 13C369.057 14.072 369.409 14.968 370.113 15.688C370.833 16.408 371.721 16.768 372.777 16.768C373.481 16.768 374.113 16.6 374.673 16.264C375.249 15.928 375.681 15.48 375.969 14.92L378.201 16.192C377.689 17.152 376.953 17.912 375.993 18.472C375.033 19.032 373.969 19.312 372.801 19.312ZM381.927 14.104C382.119 15.016 382.559 15.72 383.247 16.216C383.935 16.696 384.775 16.936 385.767 16.936C387.143 16.936 388.175 16.44 388.863 15.448L390.999 16.696C389.815 18.44 388.063 19.312 385.743 19.312C383.791 19.312 382.215 18.72 381.015 17.536C379.815 16.336 379.215 14.824 379.215 13C379.215 11.208 379.807 9.712 380.991 8.512C382.175 7.296 383.695 6.688 385.551 6.688C387.311 6.688 388.751 7.304 389.871 8.536C391.007 9.768 391.575 11.264 391.575 13.024C391.575 13.296 391.543 13.656 391.479 14.104H381.927ZM381.903 11.992H388.959C388.783 11.016 388.375 10.28 387.735 9.784C387.111 9.288 386.375 9.04 385.527 9.04C384.567 9.04 383.767 9.304 383.127 9.832C382.487 10.36 382.079 11.08 381.903 11.992Z" fill="#202020"/>
<path opacity="0.9" d="M33.3579 128.605C32.3079 129.665 31.0229 130.195 29.5029 130.195C27.9829 130.195 26.6979 129.665 25.6479 128.605C24.5979 127.545 24.0729 126.26 24.0729 124.75C24.0729 123.23 24.5979 121.945 25.6479 120.895C26.6979 119.835 27.9829 119.305 29.5029 119.305C31.0229 119.305 32.3079 119.835 33.3579 120.895C34.4179 121.945 34.9479 123.23 34.9479 124.75C34.9479 126.26 34.4179 127.545 33.3579 128.605ZM26.6079 127.66C27.3879 128.44 28.3529 128.83 29.5029 128.83C30.6529 128.83 31.6129 128.44 32.3829 127.66C33.1629 126.87 33.5529 125.9 33.5529 124.75C33.5529 123.59 33.1629 122.62 32.3829 121.84C31.6129 121.05 30.6529 120.655 29.5029 120.655C28.3529 120.655 27.3879 121.05 26.6079 121.84C25.8379 122.62 25.4529 123.59 25.4529 124.75C25.4529 125.9 25.8379 126.87 26.6079 127.66ZM40.225 122.305C41.105 122.305 41.81 122.585 42.34 123.145C42.87 123.695 43.135 124.445 43.135 125.395V130H41.83V125.47C41.83 124.86 41.665 124.39 41.335 124.06C41.005 123.72 40.55 123.55 39.97 123.55C39.32 123.55 38.795 123.755 38.395 124.165C37.995 124.565 37.795 125.185 37.795 126.025V130H36.49V122.5H37.795V123.58C38.325 122.73 39.135 122.305 40.225 122.305ZM44.9568 130V119.05H46.2618V130H44.9568ZM48.9127 121.135C48.6627 121.135 48.4527 121.05 48.2827 120.88C48.1127 120.71 48.0277 120.505 48.0277 120.265C48.0277 120.025 48.1127 119.82 48.2827 119.65C48.4527 119.47 48.6627 119.38 48.9127 119.38C49.1527 119.38 49.3577 119.47 49.5277 119.65C49.6977 119.82 49.7827 120.025 49.7827 120.265C49.7827 120.505 49.6977 120.71 49.5277 120.88C49.3577 121.05 49.1527 121.135 48.9127 121.135ZM48.2527 130V122.5H49.5577V130H48.2527ZM55.2836 122.305C56.1636 122.305 56.8686 122.585 57.3986 123.145C57.9286 123.695 58.1936 124.445 58.1936 125.395V130H56.8886V125.47C56.8886 124.86 56.7236 124.39 56.3936 124.06C56.0636 123.72 55.6086 123.55 55.0286 123.55C54.3786 123.55 53.8536 123.755 53.4536 124.165C53.0536 124.565 52.8536 125.185 52.8536 126.025V130H51.5486V122.5H52.8536V123.58C53.3836 122.73 54.1936 122.305 55.2836 122.305ZM60.9304 126.85C61.0604 127.52 61.3654 128.04 61.8454 128.41C62.3354 128.78 62.9354 128.965 63.6454 128.965C64.6354 128.965 65.3554 128.6 65.8054 127.87L66.9154 128.5C66.1854 129.63 65.0854 130.195 63.6154 130.195C62.4254 130.195 61.4554 129.825 60.7054 129.085C59.9654 128.335 59.5954 127.39 59.5954 126.25C59.5954 125.12 59.9604 124.18 60.6904 123.43C61.4204 122.68 62.3654 122.305 63.5254 122.305C64.6254 122.305 65.5204 122.695 66.2104 123.475C66.9104 124.245 67.2604 125.175 67.2604 126.265C67.2604 126.455 67.2454 126.65 67.2154 126.85H60.9304ZM63.5254 123.535C62.8254 123.535 62.2454 123.735 61.7854 124.135C61.3254 124.525 61.0404 125.05 60.9304 125.71H65.9404C65.8304 125 65.5504 124.46 65.1004 124.09C64.6504 123.72 64.1254 123.535 63.5254 123.535ZM76.0355 130.195C75.0555 130.195 74.2155 129.965 73.5155 129.505C72.8255 129.045 72.3405 128.415 72.0605 127.615L73.2605 126.925C73.6705 128.195 74.6055 128.83 76.0655 128.83C76.7855 128.83 77.3355 128.685 77.7155 128.395C78.0955 128.095 78.2855 127.7 78.2855 127.21C78.2855 126.71 78.0955 126.335 77.7155 126.085C77.3355 125.835 76.7005 125.57 75.8105 125.29C75.3705 125.15 75.0355 125.04 74.8055 124.96C74.5755 124.87 74.2855 124.74 73.9355 124.57C73.5955 124.39 73.3405 124.21 73.1705 124.03C73.0005 123.84 72.8455 123.595 72.7055 123.295C72.5755 122.995 72.5105 122.655 72.5105 122.275C72.5105 121.365 72.8305 120.645 73.4705 120.115C74.1105 119.575 74.8905 119.305 75.8105 119.305C76.6405 119.305 77.3605 119.515 77.9705 119.935C78.5905 120.355 79.0555 120.91 79.3655 121.6L78.1955 122.275C77.7455 121.195 76.9505 120.655 75.8105 120.655C75.2405 120.655 74.7805 120.795 74.4305 121.075C74.0805 121.355 73.9055 121.735 73.9055 122.215C73.9055 122.675 74.0705 123.025 74.4005 123.265C74.7305 123.505 75.3005 123.755 76.1105 124.015C76.4005 124.105 76.6055 124.17 76.7255 124.21C76.8455 124.25 77.0305 124.32 77.2805 124.42C77.5405 124.52 77.7305 124.6 77.8505 124.66C77.9705 124.72 78.1305 124.805 78.3305 124.915C78.5405 125.025 78.6955 125.13 78.7955 125.23C78.8955 125.33 79.0105 125.455 79.1405 125.605C79.2805 125.745 79.3805 125.89 79.4405 126.04C79.5005 126.19 79.5505 126.365 79.5905 126.565C79.6405 126.755 79.6655 126.96 79.6655 127.18C79.6655 128.1 79.3305 128.835 78.6605 129.385C77.9905 129.925 77.1155 130.195 76.0355 130.195ZM85.0427 123.76H83.0477V127.825C83.0477 128.195 83.1177 128.46 83.2577 128.62C83.4077 128.77 83.6327 128.85 83.9327 128.86C84.2327 128.86 84.6027 128.85 85.0427 128.83V130C83.9027 130.15 83.0677 130.06 82.5377 129.73C82.0077 129.39 81.7427 128.755 81.7427 127.825V123.76H80.2577V122.5H81.7427V120.79L83.0477 120.4V122.5H85.0427V123.76ZM92.5368 129.055C91.7668 129.815 90.8318 130.195 89.7318 130.195C88.6318 130.195 87.6968 129.815 86.9268 129.055C86.1668 128.295 85.7868 127.36 85.7868 126.25C85.7868 125.14 86.1668 124.205 86.9268 123.445C87.6968 122.685 88.6318 122.305 89.7318 122.305C90.8318 122.305 91.7668 122.685 92.5368 123.445C93.3068 124.205 93.6918 125.14 93.6918 126.25C93.6918 127.36 93.3068 128.295 92.5368 129.055ZM89.7318 128.92C90.4818 128.92 91.1118 128.665 91.6218 128.155C92.1318 127.645 92.3868 127.01 92.3868 126.25C92.3868 125.49 92.1318 124.855 91.6218 124.345C91.1118 123.835 90.4818 123.58 89.7318 123.58C88.9918 123.58 88.3668 123.835 87.8568 124.345C87.3468 124.855 87.0918 125.49 87.0918 126.25C87.0918 127.01 87.3468 127.645 87.8568 128.155C88.3668 128.665 88.9918 128.92 89.7318 128.92ZM96.5352 123.76C96.9652 122.83 97.7452 122.365 98.8752 122.365V123.73C98.2352 123.7 97.6852 123.87 97.2252 124.24C96.7652 124.61 96.5352 125.205 96.5352 126.025V130H95.2302V122.5H96.5352V123.76ZM100.657 126.85C100.787 127.52 101.092 128.04 101.572 128.41C102.062 128.78 102.662 128.965 103.372 128.965C104.362 128.965 105.082 128.6 105.532 127.87L106.642 128.5C105.912 129.63 104.812 130.195 103.342 130.195C102.152 130.195 101.182 129.825 100.432 129.085C99.692 128.335 99.322 127.39 99.322 126.25C99.322 125.12 99.687 124.18 100.417 123.43C101.147 122.68 102.092 122.305 103.252 122.305C104.352 122.305 105.247 122.695 105.937 123.475C106.637 124.245 106.987 125.175 106.987 126.265C106.987 126.455 106.972 126.65 106.942 126.85H100.657ZM103.252 123.535C102.552 123.535 101.972 123.735 101.512 124.135C101.052 124.525 100.767 125.05 100.657 125.71H105.667C105.557 125 105.277 124.46 104.827 124.09C104.377 123.72 103.852 123.535 103.252 123.535Z" fill="#202020"/>
<path opacity="0.9" d="M46.5924 152.82H41.9424V156.225H46.3974V157.545H41.9424V162H40.5474V151.5H46.5924V152.82ZM54.3567 154.5H55.6617V162H54.3567V160.71C53.7067 161.7 52.7617 162.195 51.5217 162.195C50.4717 162.195 49.5767 161.815 48.8367 161.055C48.0967 160.285 47.7267 159.35 47.7267 158.25C47.7267 157.15 48.0967 156.22 48.8367 155.46C49.5767 154.69 50.4717 154.305 51.5217 154.305C52.7617 154.305 53.7067 154.8 54.3567 155.79V154.5ZM51.6867 160.935C52.4467 160.935 53.0817 160.68 53.5917 160.17C54.1017 159.65 54.3567 159.01 54.3567 158.25C54.3567 157.49 54.1017 156.855 53.5917 156.345C53.0817 155.825 52.4467 155.565 51.6867 155.565C50.9367 155.565 50.3067 155.825 49.7967 156.345C49.2867 156.855 49.0317 157.49 49.0317 158.25C49.0317 159.01 49.2867 159.65 49.7967 160.17C50.3067 160.68 50.9367 160.935 51.6867 160.935ZM61.1639 162.195C60.0339 162.195 59.0939 161.82 58.3439 161.07C57.5939 160.31 57.2189 159.37 57.2189 158.25C57.2189 157.13 57.5939 156.195 58.3439 155.445C59.0939 154.685 60.0339 154.305 61.1639 154.305C61.9039 154.305 62.5689 154.485 63.1589 154.845C63.7489 155.195 64.1889 155.67 64.4789 156.27L63.3839 156.9C63.1939 156.5 62.8989 156.18 62.4989 155.94C62.1089 155.7 61.6639 155.58 61.1639 155.58C60.4139 155.58 59.7839 155.835 59.2739 156.345C58.7739 156.855 58.5239 157.49 58.5239 158.25C58.5239 159 58.7739 159.63 59.2739 160.14C59.7839 160.65 60.4139 160.905 61.1639 160.905C61.6639 160.905 62.1139 160.79 62.5139 160.56C62.9139 160.32 63.2189 160 63.4289 159.6L64.5389 160.245C64.2189 160.835 63.7589 161.31 63.1589 161.67C62.5589 162.02 61.8939 162.195 61.1639 162.195ZM66.6399 158.85C66.7699 159.52 67.0749 160.04 67.5549 160.41C68.0449 160.78 68.6449 160.965 69.3549 160.965C70.3449 160.965 71.0649 160.6 71.5149 159.87L72.6249 160.5C71.8949 161.63 70.7949 162.195 69.3249 162.195C68.1349 162.195 67.1649 161.825 66.4149 161.085C65.6749 160.335 65.3049 159.39 65.3049 158.25C65.3049 157.12 65.6699 156.18 66.3999 155.43C67.1299 154.68 68.0749 154.305 69.2349 154.305C70.3349 154.305 71.2299 154.695 71.9199 155.475C72.6199 156.245 72.9699 157.175 72.9699 158.265C72.9699 158.455 72.9549 158.65 72.9249 158.85H66.6399ZM69.2349 155.535C68.5349 155.535 67.9549 155.735 67.4949 156.135C67.0349 156.525 66.7499 157.05 66.6399 157.71H71.6499C71.5399 157 71.2599 156.46 70.8099 156.09C70.3599 155.72 69.8349 155.535 69.2349 155.535ZM78.61 154.305C79.66 154.305 80.555 154.69 81.295 155.46C82.035 156.22 82.405 157.15 82.405 158.25C82.405 159.35 82.035 160.285 81.295 161.055C80.555 161.815 79.66 162.195 78.61 162.195C77.37 162.195 76.425 161.7 75.775 160.71V162H74.47V151.5H75.775V155.79C76.425 154.8 77.37 154.305 78.61 154.305ZM78.445 160.935C79.195 160.935 79.825 160.68 80.335 160.17C80.845 159.65 81.1 159.01 81.1 158.25C81.1 157.49 80.845 156.855 80.335 156.345C79.825 155.825 79.195 155.565 78.445 155.565C77.685 155.565 77.05 155.825 76.54 156.345C76.03 156.855 75.775 157.49 75.775 158.25C75.775 159.01 76.03 159.65 76.54 160.17C77.05 160.68 77.685 160.935 78.445 160.935ZM90.2922 161.055C89.5222 161.815 88.5872 162.195 87.4872 162.195C86.3872 162.195 85.4522 161.815 84.6822 161.055C83.9222 160.295 83.5422 159.36 83.5422 158.25C83.5422 157.14 83.9222 156.205 84.6822 155.445C85.4522 154.685 86.3872 154.305 87.4872 154.305C88.5872 154.305 89.5222 154.685 90.2922 155.445C91.0622 156.205 91.4472 157.14 91.4472 158.25C91.4472 159.36 91.0622 160.295 90.2922 161.055ZM87.4872 160.92C88.2372 160.92 88.8672 160.665 89.3772 160.155C89.8872 159.645 90.1422 159.01 90.1422 158.25C90.1422 157.49 89.8872 156.855 89.3772 156.345C88.8672 155.835 88.2372 155.58 87.4872 155.58C86.7472 155.58 86.1222 155.835 85.6122 156.345C85.1022 156.855 84.8472 157.49 84.8472 158.25C84.8472 159.01 85.1022 159.645 85.6122 160.155C86.1222 160.665 86.7472 160.92 87.4872 160.92ZM99.3156 161.055C98.5456 161.815 97.6106 162.195 96.5106 162.195C95.4106 162.195 94.4756 161.815 93.7056 161.055C92.9456 160.295 92.5656 159.36 92.5656 158.25C92.5656 157.14 92.9456 156.205 93.7056 155.445C94.4756 154.685 95.4106 154.305 96.5106 154.305C97.6106 154.305 98.5456 154.685 99.3156 155.445C100.086 156.205 100.471 157.14 100.471 158.25C100.471 159.36 100.086 160.295 99.3156 161.055ZM96.5106 160.92C97.2606 160.92 97.8906 160.665 98.4006 160.155C98.9106 159.645 99.1656 159.01 99.1656 158.25C99.1656 157.49 98.9106 156.855 98.4006 156.345C97.8906 155.835 97.2606 155.58 96.5106 155.58C95.7706 155.58 95.1456 155.835 94.6356 156.345C94.1256 156.855 93.8706 157.49 93.8706 158.25C93.8706 159.01 94.1256 159.645 94.6356 160.155C95.1456 160.665 95.7706 160.92 96.5106 160.92ZM108.354 162H106.734L103.314 158.445V162H102.009V151.5H103.314V157.815L106.554 154.5H108.234L104.649 158.13L108.354 162Z" fill="#202020"/>
<path opacity="0.9" d="M62.9901 194L60.6351 189.98H58.1601V194H56.7651V183.5H60.9651C61.8651 183.5 62.6351 183.82 63.2751 184.46C63.9151 185.09 64.2351 185.855 64.2351 186.755C64.2351 187.435 64.0301 188.055 63.6201 188.615C63.2201 189.175 62.7001 189.57 62.0601 189.8L64.5351 194H62.9901ZM58.1601 184.805V188.72H60.9651C61.4851 188.72 61.9251 188.53 62.2851 188.15C62.6551 187.76 62.8401 187.295 62.8401 186.755C62.8401 186.215 62.6551 185.755 62.2851 185.375C61.9251 184.995 61.4851 184.805 60.9651 184.805H58.1601ZM66.3342 190.85C66.4642 191.52 66.7692 192.04 67.2492 192.41C67.7392 192.78 68.3392 192.965 69.0492 192.965C70.0392 192.965 70.7592 192.6 71.2092 191.87L72.3192 192.5C71.5892 193.63 70.4892 194.195 69.0192 194.195C67.8292 194.195 66.8592 193.825 66.1092 193.085C65.3692 192.335 64.9992 191.39 64.9992 190.25C64.9992 189.12 65.3642 188.18 66.0942 187.43C66.8242 186.68 67.7692 186.305 68.9292 186.305C70.0292 186.305 70.9242 186.695 71.6142 187.475C72.3142 188.245 72.6642 189.175 72.6642 190.265C72.6642 190.455 72.6492 190.65 72.6192 190.85H66.3342ZM68.9292 187.535C68.2292 187.535 67.6492 187.735 67.1892 188.135C66.7292 188.525 66.4442 189.05 66.3342 189.71H71.3442C71.2342 189 70.9542 188.46 70.5042 188.09C70.0542 187.72 69.5292 187.535 68.9292 187.535ZM77.7996 184.565C76.4796 184.455 75.8196 185.025 75.8196 186.275V186.5H77.7996V187.76H75.8196V194H74.5146V187.76H73.3146V186.5H74.5146V186.275C74.5146 185.265 74.7946 184.5 75.3546 183.98C75.9246 183.46 76.7396 183.235 77.7996 183.305V184.565ZM79.2981 190.85C79.4281 191.52 79.7331 192.04 80.2131 192.41C80.7031 192.78 81.3031 192.965 82.0131 192.965C83.0031 192.965 83.7231 192.6 84.1731 191.87L85.2831 192.5C84.5531 193.63 83.4531 194.195 81.9831 194.195C80.7931 194.195 79.8231 193.825 79.0731 193.085C78.3331 192.335 77.9631 191.39 77.9631 190.25C77.9631 189.12 78.3281 188.18 79.0581 187.43C79.7881 186.68 80.7331 186.305 81.8931 186.305C82.9931 186.305 83.8881 186.695 84.5781 187.475C85.2781 188.245 85.6281 189.175 85.6281 190.265C85.6281 190.455 85.6131 190.65 85.5831 190.85H79.2981ZM81.8931 187.535C81.1931 187.535 80.6131 187.735 80.1531 188.135C79.6931 188.525 79.4081 189.05 79.2981 189.71H84.3081C84.1981 189 83.9181 188.46 83.4681 188.09C83.0181 187.72 82.4931 187.535 81.8931 187.535ZM88.4332 187.76C88.8632 186.83 89.6432 186.365 90.7732 186.365V187.73C90.1332 187.7 89.5832 187.87 89.1232 188.24C88.6632 188.61 88.4332 189.205 88.4332 190.025V194H87.1282V186.5H88.4332V187.76ZM93.3551 187.76C93.7851 186.83 94.5651 186.365 95.6951 186.365V187.73C95.0551 187.7 94.5051 187.87 94.0451 188.24C93.5851 188.61 93.3551 189.205 93.3551 190.025V194H92.0501V186.5H93.3551V187.76ZM102.772 186.5H104.077V194H102.772V192.71C102.122 193.7 101.177 194.195 99.9368 194.195C98.8868 194.195 97.9918 193.815 97.2518 193.055C96.5118 192.285 96.1418 191.35 96.1418 190.25C96.1418 189.15 96.5118 188.22 97.2518 187.46C97.9918 186.69 98.8868 186.305 99.9368 186.305C101.177 186.305 102.122 186.8 102.772 187.79V186.5ZM100.102 192.935C100.862 192.935 101.497 192.68 102.007 192.17C102.517 191.65 102.772 191.01 102.772 190.25C102.772 189.49 102.517 188.855 102.007 188.345C101.497 187.825 100.862 187.565 100.102 187.565C99.3518 187.565 98.7218 187.825 98.2118 188.345C97.7018 188.855 97.4468 189.49 97.4468 190.25C97.4468 191.01 97.7018 191.65 98.2118 192.17C98.7218 192.68 99.3518 192.935 100.102 192.935ZM106.054 194V183.05H107.359V194H106.054Z" fill="#202020"/>
<path opacity="0.9" d="M15.4423 226L14.5873 223.645H9.86234L9.00734 226H7.52234L11.4373 215.5H13.0123L16.9273 226H15.4423ZM10.3423 222.34H14.1073L12.2173 217.165L10.3423 222.34ZM24.0652 215.5H25.3702V226H24.0652V224.71C23.4152 225.7 22.4702 226.195 21.2302 226.195C20.1802 226.195 19.2852 225.815 18.5452 225.055C17.8052 224.285 17.4352 223.35 17.4352 222.25C17.4352 221.15 17.8052 220.22 18.5452 219.46C19.2852 218.69 20.1802 218.305 21.2302 218.305C22.4702 218.305 23.4152 218.8 24.0652 219.79V215.5ZM21.3952 224.935C22.1552 224.935 22.7902 224.68 23.3002 224.17C23.8102 223.65 24.0652 223.01 24.0652 222.25C24.0652 221.49 23.8102 220.855 23.3002 220.345C22.7902 219.825 22.1552 219.565 21.3952 219.565C20.6452 219.565 20.0152 219.825 19.5052 220.345C18.9952 220.855 18.7402 221.49 18.7402 222.25C18.7402 223.01 18.9952 223.65 19.5052 224.17C20.0152 224.68 20.6452 224.935 21.3952 224.935ZM32.5974 218.5H34.0074L31.0074 226H29.4774L26.4774 218.5H27.8874L30.2424 224.605L32.5974 218.5ZM35.7331 222.85C35.8631 223.52 36.1681 224.04 36.6481 224.41C37.1381 224.78 37.7381 224.965 38.4481 224.965C39.4381 224.965 40.1581 224.6 40.6081 223.87L41.7181 224.5C40.9881 225.63 39.8881 226.195 38.4181 226.195C37.2281 226.195 36.2581 225.825 35.5081 225.085C34.7681 224.335 34.3981 223.39 34.3981 222.25C34.3981 221.12 34.7631 220.18 35.4931 219.43C36.2231 218.68 37.1681 218.305 38.3281 218.305C39.4281 218.305 40.3231 218.695 41.0131 219.475C41.7131 220.245 42.0631 221.175 42.0631 222.265C42.0631 222.455 42.0481 222.65 42.0181 222.85H35.7331ZM38.3281 219.535C37.6281 219.535 37.0481 219.735 36.5881 220.135C36.1281 220.525 35.8431 221.05 35.7331 221.71H40.7431C40.6331 221 40.3531 220.46 39.9031 220.09C39.4531 219.72 38.9281 219.535 38.3281 219.535ZM44.8682 219.76C45.2982 218.83 46.0782 218.365 47.2082 218.365V219.73C46.5682 219.7 46.0182 219.87 45.5582 220.24C45.0982 220.61 44.8682 221.205 44.8682 222.025V226H43.5632V218.5H44.8682V219.76ZM52.7409 219.76H50.7459V223.825C50.7459 224.195 50.8159 224.46 50.9559 224.62C51.1059 224.77 51.3309 224.85 51.6309 224.86C51.9309 224.86 52.3009 224.85 52.7409 224.83V226C51.6009 226.15 50.7659 226.06 50.2359 225.73C49.7059 225.39 49.4409 224.755 49.4409 223.825V219.76H47.9559V218.5H49.4409V216.79L50.7459 216.4V218.5H52.7409V219.76ZM54.9459 217.135C54.6959 217.135 54.4859 217.05 54.3159 216.88C54.1459 216.71 54.0609 216.505 54.0609 216.265C54.0609 216.025 54.1459 215.82 54.3159 215.65C54.4859 215.47 54.6959 215.38 54.9459 215.38C55.1859 215.38 55.3909 215.47 55.5609 215.65C55.7309 215.82 55.8159 216.025 55.8159 216.265C55.8159 216.505 55.7309 216.71 55.5609 216.88C55.3909 217.05 55.1859 217.135 54.9459 217.135ZM54.2859 226V218.5H55.5909V226H54.2859ZM58.6921 220.525C58.6921 220.815 58.8371 221.05 59.1271 221.23C59.4171 221.4 59.7671 221.54 60.1771 221.65C60.5871 221.75 60.9971 221.87 61.4071 222.01C61.8171 222.14 62.1671 222.37 62.4571 222.7C62.7471 223.02 62.8921 223.435 62.8921 223.945C62.8921 224.625 62.6271 225.17 62.0971 225.58C61.5771 225.99 60.9071 226.195 60.0871 226.195C59.3571 226.195 58.7321 226.035 58.2121 225.715C57.6921 225.395 57.3221 224.97 57.1021 224.44L58.2271 223.795C58.3471 224.155 58.5721 224.44 58.9021 224.65C59.2321 224.86 59.6271 224.965 60.0871 224.965C60.5171 224.965 60.8721 224.885 61.1521 224.725C61.4321 224.555 61.5721 224.295 61.5721 223.945C61.5721 223.655 61.4271 223.425 61.1371 223.255C60.8471 223.075 60.4971 222.935 60.0871 222.835C59.6771 222.725 59.2671 222.6 58.8571 222.46C58.4471 222.32 58.0971 222.09 57.8071 221.77C57.5171 221.45 57.3721 221.04 57.3721 220.54C57.3721 219.89 57.6221 219.355 58.1221 218.935C58.6321 218.515 59.2671 218.305 60.0271 218.305C60.6371 218.305 61.1771 218.445 61.6471 218.725C62.1271 218.995 62.4871 219.375 62.7271 219.865L61.6321 220.48C61.3621 219.84 60.8271 219.52 60.0271 219.52C59.6571 219.52 59.3421 219.61 59.0821 219.79C58.8221 219.96 58.6921 220.205 58.6921 220.525ZM65.1472 222.85C65.2772 223.52 65.5822 224.04 66.0622 224.41C66.5522 224.78 67.1522 224.965 67.8622 224.965C68.8522 224.965 69.5722 224.6 70.0222 223.87L71.1322 224.5C70.4022 225.63 69.3022 226.195 67.8322 226.195C66.6422 226.195 65.6722 225.825 64.9222 225.085C64.1822 224.335 63.8122 223.39 63.8122 222.25C63.8122 221.12 64.1772 220.18 64.9072 219.43C65.6372 218.68 66.5822 218.305 67.7422 218.305C68.8422 218.305 69.7372 218.695 70.4272 219.475C71.1272 220.245 71.4772 221.175 71.4772 222.265C71.4772 222.455 71.4622 222.65 71.4322 222.85H65.1472ZM67.7422 219.535C67.0422 219.535 66.4622 219.735 66.0022 220.135C65.5422 220.525 65.2572 221.05 65.1472 221.71H70.1572C70.0472 221 69.7672 220.46 69.3172 220.09C68.8672 219.72 68.3422 219.535 67.7422 219.535ZM81.0773 218.305C81.9173 218.305 82.5973 218.58 83.1173 219.13C83.6373 219.67 83.8973 220.405 83.8973 221.335V226H82.5923V221.38C82.5923 220.8 82.4423 220.35 82.1423 220.03C81.8423 219.71 81.4423 219.55 80.9423 219.55C80.3823 219.55 79.9323 219.74 79.5923 220.12C79.2623 220.49 79.0973 221.06 79.0973 221.83V226H77.7923V221.38C77.7923 220.8 77.6473 220.35 77.3573 220.03C77.0773 219.71 76.6923 219.55 76.2023 219.55C75.6523 219.55 75.1923 219.74 74.8223 220.12C74.4623 220.5 74.2823 221.07 74.2823 221.83V226H72.9773V218.5H74.2823V219.505C74.7923 218.705 75.5373 218.305 76.5173 218.305C77.5273 218.305 78.2623 218.73 78.7223 219.58C79.2423 218.73 80.0273 218.305 81.0773 218.305ZM86.6218 222.85C86.7518 223.52 87.0568 224.04 87.5368 224.41C88.0268 224.78 88.6268 224.965 89.3368 224.965C90.3268 224.965 91.0468 224.6 91.4968 223.87L92.6068 224.5C91.8768 225.63 90.7768 226.195 89.3068 226.195C88.1168 226.195 87.1468 225.825 86.3968 225.085C85.6568 224.335 85.2868 223.39 85.2868 222.25C85.2868 221.12 85.6518 220.18 86.3818 219.43C87.1118 218.68 88.0568 218.305 89.2168 218.305C90.3168 218.305 91.2118 218.695 91.9018 219.475C92.6018 220.245 92.9518 221.175 92.9518 222.265C92.9518 222.455 92.9368 222.65 92.9068 222.85H86.6218ZM89.2168 219.535C88.5168 219.535 87.9368 219.735 87.4768 220.135C87.0168 220.525 86.7318 221.05 86.6218 221.71H91.6318C91.5218 221 91.2418 220.46 90.7918 220.09C90.3418 219.72 89.8168 219.535 89.2168 219.535ZM98.1869 218.305C99.0669 218.305 99.7719 218.585 100.302 219.145C100.832 219.695 101.097 220.445 101.097 221.395V226H99.7919V221.47C99.7919 220.86 99.6269 220.39 99.2969 220.06C98.9669 219.72 98.5119 219.55 97.9319 219.55C97.2819 219.55 96.7569 219.755 96.3569 220.165C95.9569 220.565 95.7569 221.185 95.7569 222.025V226H94.4519V218.5H95.7569V219.58C96.2869 218.73 97.0969 218.305 98.1869 218.305ZM106.999 219.76H105.004V223.825C105.004 224.195 105.074 224.46 105.214 224.62C105.364 224.77 105.589 224.85 105.889 224.86C106.189 224.86 106.559 224.85 106.999 224.83V226C105.859 226.15 105.024 226.06 104.494 225.73C103.964 225.39 103.699 224.755 103.699 223.825V219.76H102.214V218.5H103.699V216.79L105.004 216.4V218.5H106.999V219.76Z" fill="#202020"/>
<path opacity="0.9" d="M133.227 252.195C132.467 252.195 131.797 252.035 131.217 251.715C130.637 251.395 130.212 250.93 129.942 250.32L131.127 249.63C131.437 250.43 132.137 250.83 133.227 250.83C133.897 250.83 134.422 250.67 134.802 250.35C135.182 250.03 135.372 249.555 135.372 248.925V241.5H136.752V248.925C136.752 249.975 136.417 250.785 135.747 251.355C135.087 251.915 134.247 252.195 133.227 252.195ZM144.863 244.5H146.168V252H144.863V250.71C144.213 251.7 143.268 252.195 142.028 252.195C140.978 252.195 140.083 251.815 139.343 251.055C138.603 250.285 138.233 249.35 138.233 248.25C138.233 247.15 138.603 246.22 139.343 245.46C140.083 244.69 140.978 244.305 142.028 244.305C143.268 244.305 144.213 244.8 144.863 245.79V244.5ZM142.193 250.935C142.953 250.935 143.588 250.68 144.098 250.17C144.608 249.65 144.863 249.01 144.863 248.25C144.863 247.49 144.608 246.855 144.098 246.345C143.588 245.825 142.953 245.565 142.193 245.565C141.443 245.565 140.813 245.825 140.303 246.345C139.793 246.855 139.538 247.49 139.538 248.25C139.538 249.01 139.793 249.65 140.303 250.17C140.813 250.68 141.443 250.935 142.193 250.935ZM151.88 244.305C152.76 244.305 153.465 244.585 153.995 245.145C154.525 245.695 154.79 246.445 154.79 247.395V252H153.485V247.47C153.485 246.86 153.32 246.39 152.99 246.06C152.66 245.72 152.205 245.55 151.625 245.55C150.975 245.55 150.45 245.755 150.05 246.165C149.65 246.565 149.45 247.185 149.45 248.025V252H148.145V244.5H149.45V245.58C149.98 244.73 150.79 244.305 151.88 244.305ZM162.342 241.5H163.542V252H162.162V243L159.927 243.66L159.582 242.46L162.342 241.5ZM165.258 252V250.86L168.963 247.08C169.953 246.09 170.448 245.24 170.448 244.53C170.448 243.94 170.268 243.48 169.908 243.15C169.548 242.82 169.108 242.655 168.588 242.655C167.598 242.655 166.878 243.125 166.428 244.065L165.258 243.375C165.588 242.695 166.043 242.18 166.623 241.83C167.213 241.48 167.863 241.305 168.573 241.305C169.453 241.305 170.218 241.595 170.868 242.175C171.518 242.755 171.843 243.535 171.843 244.515C171.843 245.575 171.218 246.73 169.968 247.98L167.283 250.65H172.038V252H165.258Z" fill="#202020"/>
<path opacity="0.8" d="M751.986 58.71C751.276 59.7 750.281 60.195 749.001 60.195C747.721 60.195 746.726 59.7 746.016 58.71C745.306 57.72 744.951 56.4 744.951 54.75C744.951 53.1 745.306 51.78 746.016 50.79C746.726 49.8 747.721 49.305 749.001 49.305C750.281 49.305 751.276 49.8 751.986 50.79C752.696 51.78 753.051 53.1 753.051 54.75C753.051 56.4 752.696 57.72 751.986 58.71ZM747.036 57.765C747.496 58.475 748.151 58.83 749.001 58.83C749.851 58.83 750.506 58.475 750.966 57.765C751.436 57.055 751.671 56.05 751.671 54.75C751.671 53.45 751.436 52.445 750.966 51.735C750.506 51.015 749.851 50.655 749.001 50.655C748.151 50.655 747.496 51.01 747.036 51.72C746.576 52.43 746.346 53.44 746.346 54.75C746.346 56.05 746.576 57.055 747.036 57.765Z" fill="#202020"/>
<path opacity="0.8" d="M741.071 101V99.86L744.776 96.08C745.766 95.09 746.261 94.24 746.261 93.53C746.261 92.94 746.081 92.48 745.721 92.15C745.361 91.82 744.921 91.655 744.401 91.655C743.411 91.655 742.691 92.125 742.241 93.065L741.071 92.375C741.401 91.695 741.856 91.18 742.436 90.83C743.026 90.48 743.676 90.305 744.386 90.305C745.266 90.305 746.031 90.595 746.681 91.175C747.331 91.755 747.656 92.535 747.656 93.515C747.656 94.575 747.031 95.73 745.781 96.98L743.096 99.65H747.851V101H741.071ZM752.374 94.595C753.364 94.595 754.199 94.89 754.879 95.48C755.569 96.06 755.914 96.865 755.914 97.895C755.914 98.915 755.564 99.72 754.864 100.31C754.164 100.9 753.314 101.195 752.314 101.195C751.514 101.195 750.799 101.005 750.169 100.625C749.539 100.235 749.099 99.675 748.849 98.945L750.034 98.27C750.174 98.78 750.444 99.17 750.844 99.44C751.244 99.7 751.734 99.83 752.314 99.83C752.974 99.83 753.509 99.66 753.919 99.32C754.329 98.98 754.534 98.505 754.534 97.895C754.534 97.285 754.329 96.81 753.919 96.47C753.509 96.12 752.984 95.945 752.344 95.945H749.374L749.764 90.5H755.509V91.805H751.024L750.844 94.595H752.374Z" fill="#202020"/>
<path opacity="0.8" d="M744.385 136.595C745.375 136.595 746.21 136.89 746.89 137.48C747.58 138.06 747.925 138.865 747.925 139.895C747.925 140.915 747.575 141.72 746.875 142.31C746.175 142.9 745.325 143.195 744.325 143.195C743.525 143.195 742.81 143.005 742.18 142.625C741.55 142.235 741.11 141.675 740.86 140.945L742.045 140.27C742.185 140.78 742.455 141.17 742.855 141.44C743.255 141.7 743.745 141.83 744.325 141.83C744.985 141.83 745.52 141.66 745.93 141.32C746.34 140.98 746.545 140.505 746.545 139.895C746.545 139.285 746.34 138.81 745.93 138.47C745.52 138.12 744.995 137.945 744.355 137.945H741.385L741.775 132.5H747.52V133.805H743.035L742.855 136.595H744.385ZM755.926 141.71C755.216 142.7 754.221 143.195 752.941 143.195C751.661 143.195 750.666 142.7 749.956 141.71C749.246 140.72 748.891 139.4 748.891 137.75C748.891 136.1 749.246 134.78 749.956 133.79C750.666 132.8 751.661 132.305 752.941 132.305C754.221 132.305 755.216 132.8 755.926 133.79C756.636 134.78 756.991 136.1 756.991 137.75C756.991 139.4 756.636 140.72 755.926 141.71ZM750.976 140.765C751.436 141.475 752.091 141.83 752.941 141.83C753.791 141.83 754.446 141.475 754.906 140.765C755.376 140.055 755.611 139.05 755.611 137.75C755.611 136.45 755.376 135.445 754.906 134.735C754.446 134.015 753.791 133.655 752.941 133.655C752.091 133.655 751.436 134.01 750.976 134.72C750.516 135.43 750.286 136.44 750.286 137.75C750.286 139.05 750.516 140.055 750.976 140.765Z" fill="#202020"/>
<path opacity="0.8" d="M741.975 174.5H748.53V175.745L744.705 185H743.25L747.045 175.82H741.975V174.5ZM752.2 178.595C753.19 178.595 754.025 178.89 754.705 179.48C755.395 180.06 755.74 180.865 755.74 181.895C755.74 182.915 755.39 183.72 754.69 184.31C753.99 184.9 753.14 185.195 752.14 185.195C751.34 185.195 750.625 185.005 749.995 184.625C749.365 184.235 748.925 183.675 748.675 182.945L749.86 182.27C750 182.78 750.27 183.17 750.67 183.44C751.07 183.7 751.56 183.83 752.14 183.83C752.8 183.83 753.335 183.66 753.745 183.32C754.155 182.98 754.36 182.505 754.36 181.895C754.36 181.285 754.155 180.81 753.745 180.47C753.335 180.12 752.81 179.945 752.17 179.945H749.2L749.59 174.5H755.335V175.805H750.85L750.67 178.595H752.2Z" fill="#202020"/>
<path opacity="0.9" d="M199.168 252.195C198.408 252.195 197.738 252.035 197.158 251.715C196.578 251.395 196.153 250.93 195.883 250.32L197.068 249.63C197.378 250.43 198.078 250.83 199.168 250.83C199.838 250.83 200.363 250.67 200.743 250.35C201.123 250.03 201.313 249.555 201.313 248.925V241.5H202.693V248.925C202.693 249.975 202.358 250.785 201.688 251.355C201.028 251.915 200.188 252.195 199.168 252.195ZM210.804 244.5H212.109V252H210.804V250.71C210.154 251.7 209.209 252.195 207.969 252.195C206.919 252.195 206.024 251.815 205.284 251.055C204.544 250.285 204.174 249.35 204.174 248.25C204.174 247.15 204.544 246.22 205.284 245.46C206.024 244.69 206.919 244.305 207.969 244.305C209.209 244.305 210.154 244.8 210.804 245.79V244.5ZM208.134 250.935C208.894 250.935 209.529 250.68 210.039 250.17C210.549 249.65 210.804 249.01 210.804 248.25C210.804 247.49 210.549 246.855 210.039 246.345C209.529 245.825 208.894 245.565 208.134 245.565C207.384 245.565 206.754 245.825 206.244 246.345C205.734 246.855 205.479 247.49 205.479 248.25C205.479 249.01 205.734 249.65 206.244 250.17C206.754 250.68 207.384 250.935 208.134 250.935ZM217.821 244.305C218.701 244.305 219.406 244.585 219.936 245.145C220.466 245.695 220.731 246.445 220.731 247.395V252H219.426V247.47C219.426 246.86 219.261 246.39 218.931 246.06C218.601 245.72 218.146 245.55 217.566 245.55C216.916 245.55 216.391 245.755 215.991 246.165C215.591 246.565 215.391 247.185 215.391 248.025V252H214.086V244.5H215.391V245.58C215.921 244.73 216.731 244.305 217.821 244.305ZM228.283 241.5H229.483V252H228.103V243L225.868 243.66L225.523 242.46L228.283 241.5ZM235.4 245.805C236.2 245.955 236.855 246.3 237.365 246.84C237.875 247.38 238.13 248.065 238.13 248.895C238.13 249.915 237.78 250.72 237.08 251.31C236.38 251.9 235.53 252.195 234.53 252.195C233.73 252.195 233.02 252.015 232.4 251.655C231.78 251.285 231.34 250.755 231.08 250.065L232.25 249.375C232.56 250.345 233.32 250.83 234.53 250.83C235.18 250.83 235.71 250.66 236.12 250.32C236.53 249.98 236.735 249.505 236.735 248.895C236.735 248.285 236.53 247.81 236.12 247.47C235.71 247.12 235.18 246.945 234.53 246.945H234.17L233.615 246.09L236.045 242.805H231.38V241.5H237.68V242.73L235.4 245.805Z" fill="#202020"/>
<path opacity="0.9" d="M265.331 252.195C264.571 252.195 263.901 252.035 263.321 251.715C262.741 251.395 262.316 250.93 262.046 250.32L263.231 249.63C263.541 250.43 264.241 250.83 265.331 250.83C266.001 250.83 266.526 250.67 266.906 250.35C267.286 250.03 267.476 249.555 267.476 248.925V241.5H268.856V248.925C268.856 249.975 268.521 250.785 267.851 251.355C267.191 251.915 266.351 252.195 265.331 252.195ZM276.967 244.5H278.272V252H276.967V250.71C276.317 251.7 275.372 252.195 274.132 252.195C273.082 252.195 272.187 251.815 271.447 251.055C270.707 250.285 270.337 249.35 270.337 248.25C270.337 247.15 270.707 246.22 271.447 245.46C272.187 244.69 273.082 244.305 274.132 244.305C275.372 244.305 276.317 244.8 276.967 245.79V244.5ZM274.297 250.935C275.057 250.935 275.692 250.68 276.202 250.17C276.712 249.65 276.967 249.01 276.967 248.25C276.967 247.49 276.712 246.855 276.202 246.345C275.692 245.825 275.057 245.565 274.297 245.565C273.547 245.565 272.917 245.825 272.407 246.345C271.897 246.855 271.642 247.49 271.642 248.25C271.642 249.01 271.897 249.65 272.407 250.17C272.917 250.68 273.547 250.935 274.297 250.935ZM283.984 244.305C284.864 244.305 285.569 244.585 286.099 245.145C286.629 245.695 286.894 246.445 286.894 247.395V252H285.589V247.47C285.589 246.86 285.424 246.39 285.094 246.06C284.764 245.72 284.309 245.55 283.729 245.55C283.079 245.55 282.554 245.755 282.154 246.165C281.754 246.565 281.554 247.185 281.554 248.025V252H280.249V244.5H281.554V245.58C282.084 244.73 282.894 244.305 283.984 244.305ZM294.446 241.5H295.646V252H294.266V243L292.031 243.66L291.686 242.46L294.446 241.5ZM305.208 248.7V250.005H303.933V252H302.538V250.005H297.183V248.7L300.948 241.5H302.448L298.683 248.7H302.538V245.73H303.933V248.7H305.208Z" fill="#202020"/>
<path opacity="0.9" d="M331.609 252.195C330.849 252.195 330.179 252.035 329.599 251.715C329.019 251.395 328.594 250.93 328.324 250.32L329.509 249.63C329.819 250.43 330.519 250.83 331.609 250.83C332.279 250.83 332.804 250.67 333.184 250.35C333.564 250.03 333.754 249.555 333.754 248.925V241.5H335.134V248.925C335.134 249.975 334.799 250.785 334.129 251.355C333.469 251.915 332.629 252.195 331.609 252.195ZM343.245 244.5H344.55V252H343.245V250.71C342.595 251.7 341.65 252.195 340.41 252.195C339.36 252.195 338.465 251.815 337.725 251.055C336.985 250.285 336.615 249.35 336.615 248.25C336.615 247.15 336.985 246.22 337.725 245.46C338.465 244.69 339.36 244.305 340.41 244.305C341.65 244.305 342.595 244.8 343.245 245.79V244.5ZM340.575 250.935C341.335 250.935 341.97 250.68 342.48 250.17C342.99 249.65 343.245 249.01 343.245 248.25C343.245 247.49 342.99 246.855 342.48 246.345C341.97 245.825 341.335 245.565 340.575 245.565C339.825 245.565 339.195 245.825 338.685 246.345C338.175 246.855 337.92 247.49 337.92 248.25C337.92 249.01 338.175 249.65 338.685 250.17C339.195 250.68 339.825 250.935 340.575 250.935ZM350.263 244.305C351.143 244.305 351.848 244.585 352.378 245.145C352.908 245.695 353.173 246.445 353.173 247.395V252H351.868V247.47C351.868 246.86 351.703 246.39 351.373 246.06C351.043 245.72 350.588 245.55 350.008 245.55C349.358 245.55 348.833 245.755 348.433 246.165C348.033 246.565 347.833 247.185 347.833 248.025V252H346.528V244.5H347.833V245.58C348.363 244.73 349.173 244.305 350.263 244.305ZM360.724 241.5H361.924V252H360.544V243L358.309 243.66L357.964 242.46L360.724 241.5ZM367.151 245.595C368.141 245.595 368.976 245.89 369.656 246.48C370.346 247.06 370.691 247.865 370.691 248.895C370.691 249.915 370.341 250.72 369.641 251.31C368.941 251.9 368.091 252.195 367.091 252.195C366.291 252.195 365.576 252.005 364.946 251.625C364.316 251.235 363.876 250.675 363.626 249.945L364.811 249.27C364.951 249.78 365.221 250.17 365.621 250.44C366.021 250.7 366.511 250.83 367.091 250.83C367.751 250.83 368.286 250.66 368.696 250.32C369.106 249.98 369.311 249.505 369.311 248.895C369.311 248.285 369.106 247.81 368.696 247.47C368.286 247.12 367.761 246.945 367.121 246.945H364.151L364.541 241.5H370.286V242.805H365.801L365.621 245.595H367.151Z" fill="#202020"/>
<path opacity="0.9" d="M397.646 252.195C396.886 252.195 396.216 252.035 395.636 251.715C395.056 251.395 394.631 250.93 394.361 250.32L395.546 249.63C395.856 250.43 396.556 250.83 397.646 250.83C398.316 250.83 398.841 250.67 399.221 250.35C399.601 250.03 399.791 249.555 399.791 248.925V241.5H401.171V248.925C401.171 249.975 400.836 250.785 400.166 251.355C399.506 251.915 398.666 252.195 397.646 252.195ZM409.282 244.5H410.587V252H409.282V250.71C408.632 251.7 407.687 252.195 406.447 252.195C405.397 252.195 404.502 251.815 403.762 251.055C403.022 250.285 402.652 249.35 402.652 248.25C402.652 247.15 403.022 246.22 403.762 245.46C404.502 244.69 405.397 244.305 406.447 244.305C407.687 244.305 408.632 244.8 409.282 245.79V244.5ZM406.612 250.935C407.372 250.935 408.007 250.68 408.517 250.17C409.027 249.65 409.282 249.01 409.282 248.25C409.282 247.49 409.027 246.855 408.517 246.345C408.007 245.825 407.372 245.565 406.612 245.565C405.862 245.565 405.232 245.825 404.722 246.345C404.212 246.855 403.957 247.49 403.957 248.25C403.957 249.01 404.212 249.65 404.722 250.17C405.232 250.68 405.862 250.935 406.612 250.935ZM416.299 244.305C417.179 244.305 417.884 244.585 418.414 245.145C418.944 245.695 419.209 246.445 419.209 247.395V252H417.904V247.47C417.904 246.86 417.739 246.39 417.409 246.06C417.079 245.72 416.624 245.55 416.044 245.55C415.394 245.55 414.869 245.755 414.469 246.165C414.069 246.565 413.869 247.185 413.869 248.025V252H412.564V244.5H413.869V245.58C414.399 244.73 415.209 244.305 416.299 244.305ZM426.761 241.5H427.961V252H426.581V243L424.346 243.66L424.001 242.46L426.761 241.5ZM433.173 245.13C434.223 245.13 435.088 245.46 435.768 246.12C436.448 246.77 436.788 247.615 436.788 248.655C436.788 249.695 436.448 250.545 435.768 251.205C435.088 251.865 434.223 252.195 433.173 252.195C432.113 252.195 431.243 251.865 430.563 251.205C429.893 250.545 429.558 249.695 429.558 248.655C429.558 247.845 429.768 247.145 430.188 246.555L433.563 241.5H435.153L432.678 245.16C432.898 245.14 433.063 245.13 433.173 245.13ZM431.553 250.26C431.973 250.66 432.513 250.86 433.173 250.86C433.833 250.86 434.368 250.66 434.778 250.26C435.198 249.85 435.408 249.315 435.408 248.655C435.408 247.995 435.198 247.465 434.778 247.065C434.368 246.665 433.833 246.465 433.173 246.465C432.503 246.465 431.963 246.665 431.553 247.065C431.143 247.465 430.938 247.995 430.938 248.655C430.938 249.315 431.143 249.85 431.553 250.26Z" fill="#202020"/>
<path opacity="0.9" d="M464.005 252.195C463.245 252.195 462.575 252.035 461.995 251.715C461.415 251.395 460.99 250.93 460.72 250.32L461.905 249.63C462.215 250.43 462.915 250.83 464.005 250.83C464.675 250.83 465.2 250.67 465.58 250.35C465.96 250.03 466.15 249.555 466.15 248.925V241.5H467.53V248.925C467.53 249.975 467.195 250.785 466.525 251.355C465.865 251.915 465.025 252.195 464.005 252.195ZM475.641 244.5H476.946V252H475.641V250.71C474.991 251.7 474.046 252.195 472.806 252.195C471.756 252.195 470.861 251.815 470.121 251.055C469.381 250.285 469.011 249.35 469.011 248.25C469.011 247.15 469.381 246.22 470.121 245.46C470.861 244.69 471.756 244.305 472.806 244.305C474.046 244.305 474.991 244.8 475.641 245.79V244.5ZM472.971 250.935C473.731 250.935 474.366 250.68 474.876 250.17C475.386 249.65 475.641 249.01 475.641 248.25C475.641 247.49 475.386 246.855 474.876 246.345C474.366 245.825 473.731 245.565 472.971 245.565C472.221 245.565 471.591 245.825 471.081 246.345C470.571 246.855 470.316 247.49 470.316 248.25C470.316 249.01 470.571 249.65 471.081 250.17C471.591 250.68 472.221 250.935 472.971 250.935ZM482.658 244.305C483.538 244.305 484.243 244.585 484.773 245.145C485.303 245.695 485.568 246.445 485.568 247.395V252H484.263V247.47C484.263 246.86 484.098 246.39 483.768 246.06C483.438 245.72 482.983 245.55 482.403 245.55C481.753 245.55 481.228 245.755 480.828 246.165C480.428 246.565 480.228 247.185 480.228 248.025V252H478.923V244.5H480.228V245.58C480.758 244.73 481.568 244.305 482.658 244.305ZM493.12 241.5H494.32V252H492.94V243L490.705 243.66L490.36 242.46L493.12 241.5ZM495.767 241.5H502.322V242.745L498.497 252H497.042L500.837 242.82H495.767V241.5Z" fill="#202020"/>
<path opacity="0.9" d="M529.522 252.195C528.762 252.195 528.092 252.035 527.512 251.715C526.932 251.395 526.507 250.93 526.237 250.32L527.422 249.63C527.732 250.43 528.432 250.83 529.522 250.83C530.192 250.83 530.717 250.67 531.097 250.35C531.477 250.03 531.667 249.555 531.667 248.925V241.5H533.047V248.925C533.047 249.975 532.712 250.785 532.042 251.355C531.382 251.915 530.542 252.195 529.522 252.195ZM541.158 244.5H542.463V252H541.158V250.71C540.508 251.7 539.563 252.195 538.323 252.195C537.273 252.195 536.378 251.815 535.638 251.055C534.898 250.285 534.528 249.35 534.528 248.25C534.528 247.15 534.898 246.22 535.638 245.46C536.378 244.69 537.273 244.305 538.323 244.305C539.563 244.305 540.508 244.8 541.158 245.79V244.5ZM538.488 250.935C539.248 250.935 539.883 250.68 540.393 250.17C540.903 249.65 541.158 249.01 541.158 248.25C541.158 247.49 540.903 246.855 540.393 246.345C539.883 245.825 539.248 245.565 538.488 245.565C537.738 245.565 537.108 245.825 536.598 246.345C536.088 246.855 535.833 247.49 535.833 248.25C535.833 249.01 536.088 249.65 536.598 250.17C537.108 250.68 537.738 250.935 538.488 250.935ZM548.175 244.305C549.055 244.305 549.76 244.585 550.29 245.145C550.82 245.695 551.085 246.445 551.085 247.395V252H549.78V247.47C549.78 246.86 549.615 246.39 549.285 246.06C548.955 245.72 548.5 245.55 547.92 245.55C547.27 245.55 546.745 245.755 546.345 246.165C545.945 246.565 545.745 247.185 545.745 248.025V252H544.44V244.5H545.745V245.58C546.275 244.73 547.085 244.305 548.175 244.305ZM558.637 241.5H559.837V252H558.457V243L556.222 243.66L555.877 242.46L558.637 241.5ZM567.133 246.57C567.643 246.83 568.043 247.18 568.333 247.62C568.623 248.06 568.768 248.56 568.768 249.12C568.768 250.08 568.433 250.835 567.763 251.385C567.093 251.925 566.228 252.195 565.168 252.195C564.118 252.195 563.258 251.925 562.588 251.385C561.918 250.835 561.583 250.08 561.583 249.12C561.583 248.56 561.728 248.06 562.018 247.62C562.308 247.18 562.708 246.83 563.218 246.57C562.358 246.03 561.928 245.265 561.928 244.275C561.928 243.325 562.243 242.595 562.873 242.085C563.513 241.565 564.278 241.305 565.168 241.305C566.068 241.305 566.833 241.565 567.463 242.085C568.103 242.595 568.423 243.325 568.423 244.275C568.423 245.265 567.993 246.03 567.133 246.57ZM565.168 242.64C564.638 242.64 564.193 242.78 563.833 243.06C563.483 243.34 563.308 243.755 563.308 244.305C563.308 244.835 563.488 245.25 563.848 245.55C564.208 245.84 564.648 245.985 565.168 245.985C565.688 245.985 566.128 245.84 566.488 245.55C566.848 245.25 567.028 244.835 567.028 244.305C567.028 243.755 566.853 243.34 566.503 243.06C566.153 242.78 565.708 242.64 565.168 242.64ZM565.168 250.86C565.838 250.86 566.373 250.705 566.773 250.395C567.183 250.075 567.388 249.62 567.388 249.03C567.388 248.45 567.183 248.005 566.773 247.695C566.373 247.375 565.838 247.215 565.168 247.215C564.508 247.215 563.973 247.375 563.563 247.695C563.163 248.005 562.963 248.45 562.963 249.03C562.963 249.62 563.163 250.075 563.563 250.395C563.973 250.705 564.508 250.86 565.168 250.86Z" fill="#202020"/>
<path opacity="0.9" d="M595.646 252.195C594.886 252.195 594.216 252.035 593.636 251.715C593.056 251.395 592.631 250.93 592.361 250.32L593.546 249.63C593.856 250.43 594.556 250.83 595.646 250.83C596.316 250.83 596.841 250.67 597.221 250.35C597.601 250.03 597.791 249.555 597.791 248.925V241.5H599.171V248.925C599.171 249.975 598.836 250.785 598.166 251.355C597.506 251.915 596.666 252.195 595.646 252.195ZM607.282 244.5H608.587V252H607.282V250.71C606.632 251.7 605.687 252.195 604.447 252.195C603.397 252.195 602.502 251.815 601.762 251.055C601.022 250.285 600.652 249.35 600.652 248.25C600.652 247.15 601.022 246.22 601.762 245.46C602.502 244.69 603.397 244.305 604.447 244.305C605.687 244.305 606.632 244.8 607.282 245.79V244.5ZM604.612 250.935C605.372 250.935 606.007 250.68 606.517 250.17C607.027 249.65 607.282 249.01 607.282 248.25C607.282 247.49 607.027 246.855 606.517 246.345C606.007 245.825 605.372 245.565 604.612 245.565C603.862 245.565 603.232 245.825 602.722 246.345C602.212 246.855 601.957 247.49 601.957 248.25C601.957 249.01 602.212 249.65 602.722 250.17C603.232 250.68 603.862 250.935 604.612 250.935ZM614.299 244.305C615.179 244.305 615.884 244.585 616.414 245.145C616.944 245.695 617.209 246.445 617.209 247.395V252H615.904V247.47C615.904 246.86 615.739 246.39 615.409 246.06C615.079 245.72 614.624 245.55 614.044 245.55C613.394 245.55 612.869 245.755 612.469 246.165C612.069 246.565 611.869 247.185 611.869 248.025V252H610.564V244.5H611.869V245.58C612.399 244.73 613.209 244.305 614.299 244.305ZM624.761 241.5H625.961V252H624.581V243L622.346 243.66L622.001 242.46L624.761 241.5ZM634.788 244.83C634.788 245.64 634.573 246.345 634.143 246.945H634.158L630.768 252H629.193L631.683 248.325C631.463 248.345 631.293 248.355 631.173 248.355C630.113 248.355 629.243 248.03 628.563 247.38C627.893 246.72 627.558 245.87 627.558 244.83C627.558 243.79 627.893 242.945 628.563 242.295C629.243 241.635 630.113 241.305 631.173 241.305C632.233 241.305 633.098 241.635 633.768 242.295C634.448 242.945 634.788 243.79 634.788 244.83ZM629.553 243.24C629.143 243.64 628.938 244.17 628.938 244.83C628.938 245.49 629.143 246.025 629.553 246.435C629.973 246.835 630.513 247.035 631.173 247.035C631.833 247.035 632.368 246.835 632.778 246.435C633.198 246.025 633.408 245.49 633.408 244.83C633.408 244.17 633.203 243.64 632.793 243.24C632.383 242.84 631.843 242.64 631.173 242.64C630.513 242.64 629.973 242.84 629.553 243.24Z" fill="#202020"/>
<path opacity="0.9" d="M659.249 252.195C658.489 252.195 657.819 252.035 657.239 251.715C656.659 251.395 656.234 250.93 655.964 250.32L657.149 249.63C657.459 250.43 658.159 250.83 659.249 250.83C659.919 250.83 660.444 250.67 660.824 250.35C661.204 250.03 661.394 249.555 661.394 248.925V241.5H662.774V248.925C662.774 249.975 662.439 250.785 661.769 251.355C661.109 251.915 660.269 252.195 659.249 252.195ZM670.885 244.5H672.19V252H670.885V250.71C670.235 251.7 669.29 252.195 668.05 252.195C667 252.195 666.105 251.815 665.365 251.055C664.625 250.285 664.255 249.35 664.255 248.25C664.255 247.15 664.625 246.22 665.365 245.46C666.105 244.69 667 244.305 668.05 244.305C669.29 244.305 670.235 244.8 670.885 245.79V244.5ZM668.215 250.935C668.975 250.935 669.61 250.68 670.12 250.17C670.63 249.65 670.885 249.01 670.885 248.25C670.885 247.49 670.63 246.855 670.12 246.345C669.61 245.825 668.975 245.565 668.215 245.565C667.465 245.565 666.835 245.825 666.325 246.345C665.815 246.855 665.56 247.49 665.56 248.25C665.56 249.01 665.815 249.65 666.325 250.17C666.835 250.68 667.465 250.935 668.215 250.935ZM677.902 244.305C678.782 244.305 679.487 244.585 680.017 245.145C680.547 245.695 680.812 246.445 680.812 247.395V252H679.507V247.47C679.507 246.86 679.342 246.39 679.012 246.06C678.682 245.72 678.227 245.55 677.647 245.55C676.997 245.55 676.472 245.755 676.072 246.165C675.672 246.565 675.472 247.185 675.472 248.025V252H674.167V244.5H675.472V245.58C676.002 244.73 676.812 244.305 677.902 244.305ZM685.934 252V250.86L689.639 247.08C690.629 246.09 691.124 245.24 691.124 244.53C691.124 243.94 690.944 243.48 690.584 243.15C690.224 242.82 689.784 242.655 689.264 242.655C688.274 242.655 687.554 243.125 687.104 244.065L685.934 243.375C686.264 242.695 686.719 242.18 687.299 241.83C687.889 241.48 688.539 241.305 689.249 241.305C690.129 241.305 690.894 241.595 691.544 242.175C692.194 242.755 692.519 243.535 692.519 244.515C692.519 245.575 691.894 246.73 690.644 247.98L687.959 250.65H692.714V252H685.934ZM700.868 250.71C700.158 251.7 699.163 252.195 697.883 252.195C696.603 252.195 695.608 251.7 694.898 250.71C694.188 249.72 693.833 248.4 693.833 246.75C693.833 245.1 694.188 243.78 694.898 242.79C695.608 241.8 696.603 241.305 697.883 241.305C699.163 241.305 700.158 241.8 700.868 242.79C701.578 243.78 701.933 245.1 701.933 246.75C701.933 248.4 701.578 249.72 700.868 250.71ZM695.918 249.765C696.378 250.475 697.033 250.83 697.883 250.83C698.733 250.83 699.388 250.475 699.848 249.765C700.318 249.055 700.553 248.05 700.553 246.75C700.553 245.45 700.318 244.445 699.848 243.735C699.388 243.015 698.733 242.655 697.883 242.655C697.033 242.655 696.378 243.01 695.918 243.72C695.458 244.43 695.228 245.44 695.228 246.75C695.228 248.05 695.458 249.055 695.918 249.765Z" fill="#202020"/>
<rect x="718" y="61" width="11" height="38" fill="#B9DAF3"/>
<rect x="718" y="101" width="11" height="41" fill="#B9DAF3"/>
<rect x="718" y="143" width="11" height="37" fill="#B9DAF3"/>
<rect x="718" y="182" width="11" height="37" fill="#B9DAF3"/>
<path opacity="0.9" d="M36.1057 55.5V56.82H33.0007V66H31.6207V56.82H28.5307V55.5H36.1057ZM37.6309 59.76C38.0609 58.83 38.8409 58.365 39.9709 58.365V59.73C39.3309 59.7 38.7809 59.87 38.3209 60.24C37.8609 60.61 37.6309 61.205 37.6309 62.025V66H36.3259V58.5H37.6309V59.76ZM47.0477 58.5H48.3527V66H47.0477V64.71C46.3977 65.7 45.4527 66.195 44.2127 66.195C43.1627 66.195 42.2677 65.815 41.5277 65.055C40.7877 64.285 40.4177 63.35 40.4177 62.25C40.4177 61.15 40.7877 60.22 41.5277 59.46C42.2677 58.69 43.1627 58.305 44.2127 58.305C45.4527 58.305 46.3977 58.8 47.0477 59.79V58.5ZM44.3777 64.935C45.1377 64.935 45.7727 64.68 46.2827 64.17C46.7927 63.65 47.0477 63.01 47.0477 62.25C47.0477 61.49 46.7927 60.855 46.2827 60.345C45.7727 59.825 45.1377 59.565 44.3777 59.565C43.6277 59.565 42.9977 59.825 42.4877 60.345C41.9777 60.855 41.7227 61.49 41.7227 62.25C41.7227 63.01 41.9777 63.65 42.4877 64.17C42.9977 64.68 43.6277 64.935 44.3777 64.935ZM56.5398 55.5H57.8448V66H56.5398V64.71C55.8898 65.7 54.9448 66.195 53.7048 66.195C52.6548 66.195 51.7598 65.815 51.0198 65.055C50.2798 64.285 49.9098 63.35 49.9098 62.25C49.9098 61.15 50.2798 60.22 51.0198 59.46C51.7598 58.69 52.6548 58.305 53.7048 58.305C54.9448 58.305 55.8898 58.8 56.5398 59.79V55.5ZM53.8698 64.935C54.6298 64.935 55.2648 64.68 55.7748 64.17C56.2848 63.65 56.5398 63.01 56.5398 62.25C56.5398 61.49 56.2848 60.855 55.7748 60.345C55.2648 59.825 54.6298 59.565 53.8698 59.565C53.1198 59.565 52.4898 59.825 51.9798 60.345C51.4698 60.855 51.2148 61.49 51.2148 62.25C51.2148 63.01 51.4698 63.65 51.9798 64.17C52.4898 64.68 53.1198 64.935 53.8698 64.935ZM60.737 62.85C60.867 63.52 61.172 64.04 61.652 64.41C62.142 64.78 62.742 64.965 63.452 64.965C64.442 64.965 65.162 64.6 65.612 63.87L66.722 64.5C65.992 65.63 64.892 66.195 63.422 66.195C62.232 66.195 61.262 65.825 60.512 65.085C59.772 64.335 59.402 63.39 59.402 62.25C59.402 61.12 59.767 60.18 60.497 59.43C61.227 58.68 62.172 58.305 63.332 58.305C64.432 58.305 65.327 58.695 66.017 59.475C66.717 60.245 67.067 61.175 67.067 62.265C67.067 62.455 67.052 62.65 67.022 62.85H60.737ZM63.332 59.535C62.632 59.535 62.052 59.735 61.592 60.135C61.132 60.525 60.847 61.05 60.737 61.71H65.747C65.637 61 65.357 60.46 64.907 60.09C64.457 59.72 63.932 59.535 63.332 59.535ZM75.8421 66.195C74.8621 66.195 74.0221 65.965 73.3221 65.505C72.6321 65.045 72.1471 64.415 71.8671 63.615L73.0671 62.925C73.4771 64.195 74.4121 64.83 75.8721 64.83C76.5921 64.83 77.1421 64.685 77.5221 64.395C77.9021 64.095 78.0921 63.7 78.0921 63.21C78.0921 62.71 77.9021 62.335 77.5221 62.085C77.1421 61.835 76.5071 61.57 75.6171 61.29C75.1771 61.15 74.8421 61.04 74.6121 60.96C74.3821 60.87 74.0921 60.74 73.7421 60.57C73.4021 60.39 73.1471 60.21 72.9771 60.03C72.8071 59.84 72.6521 59.595 72.5121 59.295C72.3821 58.995 72.3171 58.655 72.3171 58.275C72.3171 57.365 72.6371 56.645 73.2771 56.115C73.9171 55.575 74.6971 55.305 75.6171 55.305C76.4471 55.305 77.1671 55.515 77.7771 55.935C78.3971 56.355 78.8621 56.91 79.1721 57.6L78.0021 58.275C77.5521 57.195 76.7571 56.655 75.6171 56.655C75.0471 56.655 74.5871 56.795 74.2371 57.075C73.8871 57.355 73.7121 57.735 73.7121 58.215C73.7121 58.675 73.8771 59.025 74.2071 59.265C74.5371 59.505 75.1071 59.755 75.9171 60.015C76.2071 60.105 76.4121 60.17 76.5321 60.21C76.6521 60.25 76.8371 60.32 77.0871 60.42C77.3471 60.52 77.5371 60.6 77.6571 60.66C77.7771 60.72 77.9371 60.805 78.1371 60.915C78.3471 61.025 78.5021 61.13 78.6021 61.23C78.7021 61.33 78.8171 61.455 78.9471 61.605C79.0871 61.745 79.1871 61.89 79.2471 62.04C79.3071 62.19 79.3571 62.365 79.3971 62.565C79.4471 62.755 79.4721 62.96 79.4721 63.18C79.4721 64.1 79.1371 64.835 78.4671 65.385C77.7971 65.925 76.9221 66.195 75.8421 66.195ZM84.724 58.305C85.604 58.305 86.309 58.585 86.839 59.145C87.369 59.695 87.634 60.445 87.634 61.395V66H86.329V61.47C86.329 60.86 86.164 60.39 85.834 60.06C85.504 59.72 85.049 59.55 84.469 59.55C83.819 59.55 83.294 59.755 82.894 60.165C82.494 60.565 82.294 61.185 82.294 62.025V66H80.989V55.5H82.294V59.58C82.824 58.73 83.634 58.305 84.724 58.305ZM95.7858 65.055C95.0158 65.815 94.0808 66.195 92.9808 66.195C91.8808 66.195 90.9458 65.815 90.1758 65.055C89.4158 64.295 89.0358 63.36 89.0358 62.25C89.0358 61.14 89.4158 60.205 90.1758 59.445C90.9458 58.685 91.8808 58.305 92.9808 58.305C94.0808 58.305 95.0158 58.685 95.7858 59.445C96.5558 60.205 96.9408 61.14 96.9408 62.25C96.9408 63.36 96.5558 64.295 95.7858 65.055ZM92.9808 64.92C93.7308 64.92 94.3608 64.665 94.8708 64.155C95.3808 63.645 95.6358 63.01 95.6358 62.25C95.6358 61.49 95.3808 60.855 94.8708 60.345C94.3608 59.835 93.7308 59.58 92.9808 59.58C92.2408 59.58 91.6158 59.835 91.1058 60.345C90.5958 60.855 90.3408 61.49 90.3408 62.25C90.3408 63.01 90.5958 63.645 91.1058 64.155C91.6158 64.665 92.2408 64.92 92.9808 64.92ZM107.021 58.5H108.386L106.061 66H104.726L102.971 60.45L101.216 66H99.8813L97.5563 58.5H98.9213L100.571 64.2L102.341 58.5H103.601L105.371 64.215L107.021 58.5Z" fill="#202020"/>
<rect x="119" y="47" width="64" height="30" fill="#CEE7F8"/>
<rect x="185" y="47" width="64" height="30" fill="#CEE7F8"/>
<rect x="251" y="47" width="64" height="30" fill="#EFF8FD"/>
<rect x="317" y="47" width="64" height="30" fill="#CEE7F8"/>
<rect x="383" y="47" width="64" height="30" fill="#D9D9D9"/>
<rect x="449" y="47" width="64" height="30" fill="#D9D9D9"/>
<rect x="515" y="47" width="64" height="30" fill="#D9D9D9"/>
<rect x="581" y="47" width="64" height="30" fill="#D9D9D9"/>
<rect x="647" y="47" width="64" height="30" fill="#D9D9D9"/>
<path opacity="0.9" d="M63.1005 87.5C64.0705 87.5 64.8755 87.825 65.5155 88.475C66.1655 89.115 66.4905 89.915 66.4905 90.875C66.4905 91.825 66.1655 92.625 65.5155 93.275C64.8755 93.925 64.0705 94.25 63.1005 94.25H60.6855V98H59.2905V87.5H63.1005ZM63.1005 92.945C63.6805 92.945 64.1605 92.75 64.5405 92.36C64.9205 91.96 65.1105 91.465 65.1105 90.875C65.1105 90.275 64.9205 89.78 64.5405 89.39C64.1605 89 63.6805 88.805 63.1005 88.805H60.6855V92.945H63.1005ZM73.6419 90.5H74.9469V98H73.6419V96.71C72.9919 97.7 72.0469 98.195 70.8069 98.195C69.7569 98.195 68.8619 97.815 68.1219 97.055C67.3819 96.285 67.0119 95.35 67.0119 94.25C67.0119 93.15 67.3819 92.22 68.1219 91.46C68.8619 90.69 69.7569 90.305 70.8069 90.305C72.0469 90.305 72.9919 90.8 73.6419 91.79V90.5ZM70.9719 96.935C71.7319 96.935 72.3669 96.68 72.8769 96.17C73.3869 95.65 73.6419 95.01 73.6419 94.25C73.6419 93.49 73.3869 92.855 72.8769 92.345C72.3669 91.825 71.7319 91.565 70.9719 91.565C70.2219 91.565 69.5919 91.825 69.0819 92.345C68.5719 92.855 68.3169 93.49 68.3169 94.25C68.3169 95.01 68.5719 95.65 69.0819 96.17C69.5919 96.68 70.2219 96.935 70.9719 96.935ZM78.2291 91.76C78.6591 90.83 79.4391 90.365 80.5691 90.365V91.73C79.9291 91.7 79.3791 91.87 78.9191 92.24C78.4591 92.61 78.2291 93.205 78.2291 94.025V98H76.9241V90.5H78.2291V91.76ZM86.1017 91.76H84.1067V95.825C84.1067 96.195 84.1767 96.46 84.3167 96.62C84.4667 96.77 84.6917 96.85 84.9917 96.86C85.2917 96.86 85.6617 96.85 86.1017 96.83V98C84.9617 98.15 84.1267 98.06 83.5967 97.73C83.0667 97.39 82.8017 96.755 82.8017 95.825V91.76H81.3167V90.5H82.8017V88.79L84.1067 88.4V90.5H86.1017V91.76ZM91.4257 90.305C92.3057 90.305 93.0107 90.585 93.5407 91.145C94.0707 91.695 94.3357 92.445 94.3357 93.395V98H93.0307V93.47C93.0307 92.86 92.8657 92.39 92.5357 92.06C92.2057 91.72 91.7507 91.55 91.1707 91.55C90.5207 91.55 89.9957 91.755 89.5957 92.165C89.1957 92.565 88.9957 93.185 88.9957 94.025V98H87.6907V90.5H88.9957V91.58C89.5257 90.73 90.3357 90.305 91.4257 90.305ZM97.0725 94.85C97.2025 95.52 97.5075 96.04 97.9875 96.41C98.4775 96.78 99.0775 96.965 99.7875 96.965C100.777 96.965 101.497 96.6 101.947 95.87L103.057 96.5C102.327 97.63 101.227 98.195 99.7575 98.195C98.5675 98.195 97.5975 97.825 96.8475 97.085C96.1075 96.335 95.7375 95.39 95.7375 94.25C95.7375 93.12 96.1025 92.18 96.8325 91.43C97.5625 90.68 98.5075 90.305 99.6675 90.305C100.767 90.305 101.662 90.695 102.352 91.475C103.052 92.245 103.402 93.175 103.402 94.265C103.402 94.455 103.387 94.65 103.357 94.85H97.0725ZM99.6675 91.535C98.9675 91.535 98.3875 91.735 97.9275 92.135C97.4675 92.525 97.1825 93.05 97.0725 93.71H102.082C101.972 93 101.692 92.46 101.242 92.09C100.792 91.72 100.267 91.535 99.6675 91.535ZM106.208 91.76C106.638 90.83 107.418 90.365 108.548 90.365V91.73C107.908 91.7 107.358 91.87 106.898 92.24C106.438 92.61 106.208 93.205 106.208 94.025V98H104.903V90.5H106.208V91.76Z" fill="#202020"/>
<rect x="119" y="79" width="64" height="30" fill="#CEE7F8"/>
<rect x="185" y="79" width="64" height="30" fill="#CEE7F8"/>
<rect x="251" y="79" width="64" height="30" fill="#EFF8FD"/>
<rect x="317" y="79" width="64" height="30" fill="#EFF8FD"/>
<rect x="383" y="79" width="64" height="30" fill="#D9D9D9"/>
<rect x="449" y="79" width="64" height="30" fill="#D9D9D9"/>
<rect x="515" y="79" width="64" height="30" fill="#D9D9D9"/>
<rect x="581" y="79" width="64" height="30" fill="#D9D9D9"/>
<rect x="647" y="79" width="64" height="30" fill="#D9D9D9"/>
<rect x="119" y="111" width="64" height="30" fill="#EFF8FD"/>
<rect x="185" y="111" width="64" height="30" fill="#EFF8FD"/>
<rect x="251" y="111" width="64" height="30" fill="#EFF8FD"/>
<rect x="317" y="111" width="64" height="30" fill="#CEE7F8"/>
<rect x="383" y="111" width="64" height="30" fill="#D9D9D9"/>
<rect x="449" y="111" width="64" height="30" fill="#D9D9D9"/>
<rect x="515" y="111" width="64" height="30" fill="#D9D9D9"/>
<rect x="581" y="111" width="64" height="30" fill="#D9D9D9"/>
<rect x="647" y="111" width="64" height="30" fill="#D9D9D9"/>
<rect x="119" y="143" width="64" height="30" fill="#EFF8FD"/>
<rect x="185" y="143" width="64" height="30" fill="#EFF8FD"/>
<rect x="251" y="143" width="64" height="30" fill="#CEE7F8"/>
<rect x="317" y="143" width="64" height="30" fill="#EFF8FD"/>
<rect x="383" y="143" width="64" height="30" fill="#D9D9D9"/>
<rect x="449" y="143" width="64" height="30" fill="#D9D9D9"/>
<rect x="515" y="143" width="64" height="30" fill="#D9D9D9"/>
<rect x="581" y="143" width="64" height="30" fill="#D9D9D9"/>
<rect x="647" y="143" width="64" height="30" fill="#D9D9D9"/>
<rect x="119" y="175" width="64" height="30" fill="#EFF8FD"/>
<rect x="185" y="175" width="64" height="30" fill="#EFF8FD"/>
<rect x="251" y="175" width="64" height="30" fill="#CEE7F8"/>
<rect x="317" y="175" width="64" height="30" fill="#CEE7F8"/>
<rect x="383" y="175" width="64" height="30" fill="#CEE7F8"/>
<rect x="449" y="175" width="64" height="30" fill="#D9D9D9"/>
<rect x="515" y="175" width="64" height="30" fill="#D9D9D9"/>
<rect x="581" y="175" width="64" height="30" fill="#D9D9D9"/>
<rect x="647" y="175" width="64" height="30" fill="#D9D9D9"/>
<rect x="119" y="207" width="64" height="30" fill="#CEE7F8"/>
<rect x="185" y="207" width="64" height="30" fill="#EFF8FD"/>
<rect x="251" y="207" width="64" height="30" fill="#CEE7F8"/>
<rect x="317" y="207" width="64" height="30" fill="#EFF8FD"/>
<rect x="383" y="207" width="64" height="30" fill="#CEE7F8"/>
<rect x="449" y="207" width="64" height="30" fill="#D9D9D9"/>
<rect x="515" y="207" width="64" height="30" fill="#D9D9D9"/>
<rect x="581" y="207" width="64" height="30" fill="#D9D9D9"/>
<rect x="647" y="207" width="64" height="30" fill="#D9D9D9"/>
</svg>
