<svg width="340" height="323" viewBox="0 0 340 323" fill="none" xmlns="http://www.w3.org/2000/svg">
<rect width="340" height="323" rx="31" fill="white"/>
<path opacity="0.9" d="M45.4357 49L41.8837 42.88H38.6197V49H35.8597V32.2H42.5797C44.0837 32.2 45.3557 32.728 46.3957 33.784C47.4517 34.824 47.9797 36.096 47.9797 37.6C47.9797 38.672 47.6677 39.656 47.0437 40.552C46.4357 41.432 45.6357 42.072 44.6437 42.472L48.4597 49H45.4357ZM38.6197 34.792V40.408H42.5797C43.3157 40.408 43.9397 40.136 44.4517 39.592C44.9637 39.048 45.2197 38.384 45.2197 37.6C45.2197 36.816 44.9637 36.152 44.4517 35.608C43.9397 35.064 43.3157 34.792 42.5797 34.792H38.6197ZM51.8176 44.104C52.0096 45.016 52.4496 45.72 53.1376 46.216C53.8256 46.696 54.6656 46.936 55.6576 46.936C57.0336 46.936 58.0656 46.44 58.7536 45.448L60.8896 46.696C59.7056 48.44 57.9536 49.312 55.6336 49.312C53.6816 49.312 52.1056 48.72 50.9056 47.536C49.7056 46.336 49.1056 44.824 49.1056 43C49.1056 41.208 49.6976 39.712 50.8816 38.512C52.0656 37.296 53.5856 36.688 55.4416 36.688C57.2016 36.688 58.6416 37.304 59.7616 38.536C60.8976 39.768 61.4656 41.264 61.4656 43.024C61.4656 43.296 61.4336 43.656 61.3696 44.104H51.8176ZM51.7936 41.992H58.8496C58.6736 41.016 58.2656 40.28 57.6256 39.784C57.0016 39.288 56.2656 39.04 55.4176 39.04C54.4576 39.04 53.6576 39.304 53.0176 39.832C52.3776 40.36 51.9696 41.08 51.7936 41.992ZM73.2281 37H75.7721V48.448C75.7721 50.272 75.1721 51.672 73.9721 52.648C72.7721 53.624 71.3161 54.112 69.6041 54.112C66.8361 54.112 64.9401 53.144 63.9161 51.208L66.1481 49.912C66.7721 51.144 67.9401 51.76 69.6521 51.76C70.7721 51.76 71.6441 51.464 72.2681 50.872C72.9081 50.296 73.2281 49.488 73.2281 48.448V46.984C72.2521 48.376 70.8601 49.072 69.0521 49.072C67.3561 49.072 65.9241 48.472 64.7561 47.272C63.5881 46.056 63.0041 44.592 63.0041 42.88C63.0041 41.168 63.5881 39.712 64.7561 38.512C65.9241 37.296 67.3561 36.688 69.0521 36.688C70.8601 36.688 72.2521 37.384 73.2281 38.776V37ZM66.6761 45.568C67.4121 46.288 68.3241 46.648 69.4121 46.648C70.5001 46.648 71.4041 46.288 72.1241 45.568C72.8601 44.848 73.2281 43.952 73.2281 42.88C73.2281 41.808 72.8601 40.912 72.1241 40.192C71.4041 39.472 70.5001 39.112 69.4121 39.112C68.3241 39.112 67.4121 39.472 66.6761 40.192C65.9561 40.912 65.5961 41.808 65.5961 42.88C65.5961 43.952 65.9561 44.848 66.6761 45.568ZM81.2413 34.72C80.9213 35.04 80.5373 35.2 80.0893 35.2C79.6413 35.2 79.2493 35.04 78.9133 34.72C78.5933 34.384 78.4333 33.992 78.4333 33.544C78.4333 33.096 78.5933 32.712 78.9133 32.392C79.2333 32.056 79.6253 31.888 80.0893 31.888C80.5533 31.888 80.9453 32.056 81.2653 32.392C81.5853 32.712 81.7453 33.096 81.7453 33.544C81.7453 33.992 81.5773 34.384 81.2413 34.72ZM78.7933 49V37H81.3853V49H78.7933ZM90.0588 49.312C88.2988 49.312 86.8028 48.704 85.5708 47.488C84.3388 46.272 83.7228 44.776 83.7228 43C83.7228 41.224 84.3388 39.728 85.5708 38.512C86.8028 37.296 88.2988 36.688 90.0588 36.688C91.8348 36.688 93.3308 37.296 94.5468 38.512C95.7788 39.728 96.3948 41.224 96.3948 43C96.3948 44.776 95.7788 46.272 94.5468 47.488C93.3308 48.704 91.8348 49.312 90.0588 49.312ZM87.3948 45.712C88.1148 46.432 89.0028 46.792 90.0588 46.792C91.1148 46.792 92.0028 46.432 92.7228 45.712C93.4428 44.992 93.8028 44.088 93.8028 43C93.8028 41.912 93.4428 41.008 92.7228 40.288C92.0028 39.568 91.1148 39.208 90.0588 39.208C89.0028 39.208 88.1148 39.568 87.3948 40.288C86.6748 41.008 86.3148 41.912 86.3148 43C86.3148 44.088 86.6748 44.992 87.3948 45.712ZM105.051 36.688C106.427 36.688 107.539 37.128 108.387 38.008C109.235 38.888 109.659 40.096 109.659 41.632V49H107.067V41.896C107.067 41 106.827 40.312 106.347 39.832C105.867 39.352 105.211 39.112 104.379 39.112C103.467 39.112 102.731 39.4 102.171 39.976C101.611 40.536 101.331 41.4 101.331 42.568V49H98.7386V37H101.331V38.536C102.115 37.304 103.355 36.688 105.051 36.688ZM132.274 37H135.01L131.242 49H128.698L126.202 40.912L123.682 49H121.138L117.37 37H120.105L122.434 45.28L124.954 37H127.426L129.922 45.28L132.274 37ZM139.366 34.72C139.046 35.04 138.662 35.2 138.214 35.2C137.766 35.2 137.374 35.04 137.038 34.72C136.718 34.384 136.558 33.992 136.558 33.544C136.558 33.096 136.718 32.712 137.038 32.392C137.358 32.056 137.75 31.888 138.214 31.888C138.678 31.888 139.07 32.056 139.39 32.392C139.71 32.712 139.87 33.096 139.87 33.544C139.87 33.992 139.702 34.384 139.366 34.72ZM136.918 49V37H139.51V49H136.918ZM144.778 40.312C144.778 40.712 144.994 41.032 145.426 41.272C145.874 41.496 146.41 41.696 147.034 41.872C147.674 42.032 148.314 42.224 148.954 42.448C149.594 42.672 150.13 43.056 150.562 43.6C151.01 44.128 151.234 44.8 151.234 45.616C151.234 46.768 150.786 47.672 149.89 48.328C149.01 48.984 147.898 49.312 146.554 49.312C145.37 49.312 144.354 49.064 143.506 48.568C142.658 48.072 142.042 47.384 141.658 46.504L143.89 45.208C144.306 46.36 145.194 46.936 146.554 46.936C147.914 46.936 148.594 46.488 148.594 45.592C148.594 45.208 148.37 44.896 147.922 44.656C147.49 44.416 146.954 44.216 146.314 44.056C145.69 43.88 145.058 43.68 144.418 43.456C143.778 43.232 143.234 42.864 142.786 42.352C142.354 41.824 142.138 41.16 142.138 40.36C142.138 39.256 142.554 38.368 143.386 37.696C144.234 37.024 145.282 36.688 146.53 36.688C147.522 36.688 148.402 36.912 149.17 37.36C149.954 37.792 150.554 38.4 150.97 39.184L148.786 40.408C148.37 39.496 147.618 39.04 146.53 39.04C146.034 39.04 145.618 39.152 145.282 39.376C144.946 39.584 144.778 39.896 144.778 40.312ZM155.247 44.104C155.439 45.016 155.879 45.72 156.567 46.216C157.255 46.696 158.095 46.936 159.087 46.936C160.463 46.936 161.495 46.44 162.183 45.448L164.319 46.696C163.135 48.44 161.383 49.312 159.063 49.312C157.111 49.312 155.535 48.72 154.335 47.536C153.135 46.336 152.535 44.824 152.535 43C152.535 41.208 153.127 39.712 154.311 38.512C155.495 37.296 157.015 36.688 158.871 36.688C160.631 36.688 162.071 37.304 163.191 38.536C164.327 39.768 164.895 41.264 164.895 43.024C164.895 43.296 164.863 43.656 164.799 44.104H155.247ZM155.223 41.992H162.279C162.103 41.016 161.695 40.28 161.055 39.784C160.431 39.288 159.695 39.04 158.847 39.04C157.887 39.04 157.087 39.304 156.447 39.832C155.807 40.36 155.399 41.08 155.223 41.992ZM173.176 49V31.48H175.768V49H173.176ZM180.818 44.104C181.01 45.016 181.45 45.72 182.138 46.216C182.826 46.696 183.666 46.936 184.658 46.936C186.034 46.936 187.066 46.44 187.754 45.448L189.89 46.696C188.706 48.44 186.954 49.312 184.634 49.312C182.682 49.312 181.106 48.72 179.906 47.536C178.706 46.336 178.106 44.824 178.106 43C178.106 41.208 178.698 39.712 179.882 38.512C181.066 37.296 182.586 36.688 184.442 36.688C186.202 36.688 187.642 37.304 188.762 38.536C189.898 39.768 190.466 41.264 190.466 43.024C190.466 43.296 190.434 43.656 190.37 44.104H180.818ZM180.794 41.992H187.85C187.674 41.016 187.266 40.28 186.626 39.784C186.002 39.288 185.266 39.04 184.418 39.04C183.458 39.04 182.658 39.304 182.018 39.832C181.378 40.36 180.97 41.08 180.794 41.992ZM202.18 37H204.772V49H202.18V47.272C201.204 48.632 199.804 49.312 197.98 49.312C196.332 49.312 194.924 48.704 193.756 47.488C192.588 46.256 192.004 44.76 192.004 43C192.004 41.224 192.588 39.728 193.756 38.512C194.924 37.296 196.332 36.688 197.98 36.688C199.804 36.688 201.204 37.36 202.18 38.704V37ZM195.676 45.76C196.396 46.48 197.3 46.84 198.388 46.84C199.476 46.84 200.38 46.48 201.1 45.76C201.82 45.024 202.18 44.104 202.18 43C202.18 41.896 201.82 40.984 201.1 40.264C200.38 39.528 199.476 39.16 198.388 39.16C197.3 39.16 196.396 39.528 195.676 40.264C194.956 40.984 194.596 41.896 194.596 43C194.596 44.104 194.956 45.024 195.676 45.76ZM217.297 32.2H219.889V49H217.297V47.272C216.321 48.632 214.921 49.312 213.097 49.312C211.449 49.312 210.041 48.704 208.873 47.488C207.705 46.256 207.121 44.76 207.121 43C207.121 41.224 207.705 39.728 208.873 38.512C210.041 37.296 211.449 36.688 213.097 36.688C214.921 36.688 216.321 37.36 217.297 38.704V32.2ZM210.793 45.76C211.513 46.48 212.417 46.84 213.505 46.84C214.593 46.84 215.497 46.48 216.217 45.76C216.937 45.024 217.297 44.104 217.297 43C217.297 41.896 216.937 40.984 216.217 40.264C215.497 39.528 214.593 39.16 213.505 39.16C212.417 39.16 211.513 39.528 210.793 40.264C210.073 40.984 209.713 41.896 209.713 43C209.713 44.104 210.073 45.024 210.793 45.76ZM235.606 39.496H232.63V45.256C232.63 45.752 232.742 46.112 232.966 46.336C233.19 46.544 233.518 46.664 233.95 46.696C234.398 46.712 234.95 46.704 235.606 46.672V49C233.622 49.24 232.198 49.072 231.334 48.496C230.47 47.904 230.038 46.824 230.038 45.256V39.496H227.83V37H230.038V34.408L232.63 33.64V37H235.606V39.496ZM240.667 39.016C241.323 37.528 242.555 36.784 244.363 36.784V39.592C243.371 39.528 242.507 39.768 241.771 40.312C241.035 40.84 240.667 41.72 240.667 42.952V49H238.075V37H240.667V39.016ZM255.219 37H257.811V49H255.219V47.272C254.243 48.632 252.843 49.312 251.019 49.312C249.371 49.312 247.963 48.704 246.795 47.488C245.627 46.256 245.043 44.76 245.043 43C245.043 41.224 245.627 39.728 246.795 38.512C247.963 37.296 249.371 36.688 251.019 36.688C252.843 36.688 254.243 37.36 255.219 38.704V37ZM248.715 45.76C249.435 46.48 250.339 46.84 251.427 46.84C252.515 46.84 253.419 46.48 254.139 45.76C254.859 45.024 255.219 44.104 255.219 43C255.219 41.896 254.859 40.984 254.139 40.264C253.419 39.528 252.515 39.16 251.427 39.16C250.339 39.16 249.435 39.528 248.715 40.264C247.995 40.984 247.635 41.896 247.635 43C247.635 44.104 247.995 45.024 248.715 45.76ZM266.496 49.312C264.688 49.312 263.176 48.704 261.96 47.488C260.76 46.272 260.16 44.776 260.16 43C260.16 41.208 260.76 39.712 261.96 38.512C263.176 37.296 264.688 36.688 266.496 36.688C267.664 36.688 268.728 36.968 269.688 37.528C270.648 38.088 271.368 38.84 271.848 39.784L269.616 41.08C269.344 40.504 268.928 40.056 268.368 39.736C267.824 39.4 267.192 39.232 266.472 39.232C265.416 39.232 264.528 39.592 263.808 40.312C263.104 41.032 262.752 41.928 262.752 43C262.752 44.072 263.104 44.968 263.808 45.688C264.528 46.408 265.416 46.768 266.472 46.768C267.176 46.768 267.808 46.6 268.368 46.264C268.944 45.928 269.376 45.48 269.664 44.92L271.896 46.192C271.384 47.152 270.648 47.912 269.688 48.472C268.728 49.032 267.664 49.312 266.496 49.312ZM284.378 49H281.282L276.362 43.456V49H273.77V32.2H276.362V42.304L281.018 37H284.186L278.906 42.88L284.378 49ZM287.2 44.104C287.392 45.016 287.832 45.72 288.52 46.216C289.208 46.696 290.048 46.936 291.04 46.936C292.416 46.936 293.448 46.44 294.136 45.448L296.272 46.696C295.088 48.44 293.336 49.312 291.016 49.312C289.064 49.312 287.488 48.72 286.288 47.536C285.088 46.336 284.488 44.824 284.488 43C284.488 41.208 285.08 39.712 286.264 38.512C287.448 37.296 288.968 36.688 290.824 36.688C292.584 36.688 294.024 37.304 295.144 38.536C296.28 39.768 296.848 41.264 296.848 43.024C296.848 43.296 296.816 43.656 296.752 44.104H287.2ZM287.176 41.992H294.232C294.056 41.016 293.648 40.28 293.008 39.784C292.384 39.288 291.648 39.04 290.8 39.04C289.84 39.04 289.04 39.304 288.4 39.832C287.76 40.36 287.352 41.08 287.176 41.992ZM301.721 39.016C302.377 37.528 303.609 36.784 305.417 36.784V39.592C304.425 39.528 303.561 39.768 302.825 40.312C302.089 40.84 301.721 41.72 301.721 42.952V49H299.129V37H301.721V39.016Z" fill="#202020"/>
<path opacity="0.9" d="M45.4165 86L44.4365 83.18H38.4765L37.4965 86H34.9965L40.0765 72H42.8365L47.8965 86H45.4165ZM39.2365 81.02H43.6765L41.4565 74.7L39.2365 81.02ZM57.802 72H60.102V86H58.302L51.702 76.5V86H49.402V72H51.202L57.802 81.5V72ZM65.118 83.8H71.558V86H62.258V84.1L68.538 74.2H62.398V72H71.398V73.9L65.118 83.8Z" fill="#645962"/>
<path opacity="0.9" d="M231.043 73.8H232.323V85H230.851V75.4L228.467 76.104L228.099 74.824L231.043 73.8ZM237.898 78.168C238.954 78.168 239.845 78.4827 240.57 79.112C241.306 79.7307 241.674 80.5893 241.674 81.688C241.674 82.776 241.301 83.6347 240.554 84.264C239.807 84.8933 238.901 85.208 237.834 85.208C236.981 85.208 236.218 85.0053 235.546 84.6C234.874 84.184 234.405 83.5867 234.138 82.808L235.402 82.088C235.551 82.632 235.839 83.048 236.266 83.336C236.693 83.6133 237.215 83.752 237.834 83.752C238.538 83.752 239.109 83.5707 239.546 83.208C239.983 82.8453 240.202 82.3387 240.202 81.688C240.202 81.0373 239.983 80.5307 239.546 80.168C239.109 79.7947 238.549 79.608 237.866 79.608H234.698L235.114 73.8H241.242V75.192H236.458L236.266 78.168H237.898ZM246.57 77.672C247.69 77.672 248.612 78.024 249.338 78.728C250.063 79.4213 250.426 80.3227 250.426 81.432C250.426 82.5413 250.063 83.448 249.338 84.152C248.612 84.856 247.69 85.208 246.57 85.208C245.439 85.208 244.511 84.856 243.786 84.152C243.071 83.448 242.714 82.5413 242.714 81.432C242.714 80.568 242.938 79.8213 243.386 79.192L246.986 73.8H248.682L246.042 77.704C246.276 77.6827 246.452 77.672 246.57 77.672ZM244.842 83.144C245.29 83.5707 245.866 83.784 246.57 83.784C247.274 83.784 247.844 83.5707 248.282 83.144C248.73 82.7067 248.954 82.136 248.954 81.432C248.954 80.728 248.73 80.1627 248.282 79.736C247.844 79.3093 247.274 79.096 246.57 79.096C245.855 79.096 245.279 79.3093 244.842 79.736C244.404 80.1627 244.186 80.728 244.186 81.432C244.186 82.136 244.404 82.7067 244.842 83.144ZM252.315 86.6H251.483L257.883 72.2H258.715L252.315 86.6ZM259.904 85V83.784L263.856 79.752C264.912 78.696 265.44 77.7893 265.44 77.032C265.44 76.4027 265.248 75.912 264.864 75.56C264.48 75.208 264.011 75.032 263.456 75.032C262.4 75.032 261.632 75.5333 261.152 76.536L259.904 75.8C260.256 75.0747 260.741 74.5253 261.36 74.152C261.989 73.7787 262.683 73.592 263.44 73.592C264.379 73.592 265.195 73.9013 265.888 74.52C266.581 75.1387 266.928 75.9707 266.928 77.016C266.928 78.1467 266.261 79.3787 264.928 80.712L262.064 83.56H267.136V85H259.904ZM271.961 78.168C273.017 78.168 273.907 78.4827 274.633 79.112C275.369 79.7307 275.737 80.5893 275.737 81.688C275.737 82.776 275.363 83.6347 274.617 84.264C273.87 84.8933 272.963 85.208 271.897 85.208C271.043 85.208 270.281 85.0053 269.609 84.6C268.937 84.184 268.467 83.5867 268.201 82.808L269.465 82.088C269.614 82.632 269.902 83.048 270.329 83.336C270.755 83.6133 271.278 83.752 271.897 83.752C272.601 83.752 273.171 83.5707 273.609 83.208C274.046 82.8453 274.265 82.3387 274.265 81.688C274.265 81.0373 274.046 80.5307 273.609 80.168C273.171 79.7947 272.611 79.608 271.929 79.608H268.761L269.177 73.8H275.305V75.192H270.521L270.329 78.168H271.961ZM284.271 83.624C283.514 84.68 282.452 85.208 281.087 85.208C279.722 85.208 278.66 84.68 277.903 83.624C277.146 82.568 276.767 81.16 276.767 79.4C276.767 77.64 277.146 76.232 277.903 75.176C278.66 74.12 279.722 73.592 281.087 73.592C282.452 73.592 283.514 74.12 284.271 75.176C285.028 76.232 285.407 77.64 285.407 79.4C285.407 81.16 285.028 82.568 284.271 83.624ZM278.991 82.616C279.482 83.3733 280.18 83.752 281.087 83.752C281.994 83.752 282.692 83.3733 283.183 82.616C283.684 81.8587 283.935 80.7867 283.935 79.4C283.935 78.0133 283.684 76.9413 283.183 76.184C282.692 75.416 281.994 75.032 281.087 75.032C280.18 75.032 279.482 75.4107 278.991 76.168C278.5 76.9253 278.255 78.0027 278.255 79.4C278.255 80.7867 278.5 81.8587 278.991 82.616Z" fill="#645962"/>
<rect x="35" y="97" width="252" height="5" fill="#ECECEC"/>
<rect x="35" y="97" width="69" height="5" fill="#085881"/>
<path opacity="0.9" d="M230.348 123.8H231.628V135H230.156V125.4L227.772 126.104L227.404 124.824L230.348 123.8ZM241.107 133.624C240.349 134.68 239.288 135.208 237.923 135.208C236.557 135.208 235.496 134.68 234.739 133.624C233.981 132.568 233.603 131.16 233.603 129.4C233.603 127.64 233.981 126.232 234.739 125.176C235.496 124.12 236.557 123.592 237.923 123.592C239.288 123.592 240.349 124.12 241.107 125.176C241.864 126.232 242.243 127.64 242.243 129.4C242.243 131.16 241.864 132.568 241.107 133.624ZM235.827 132.616C236.317 133.373 237.016 133.752 237.923 133.752C238.829 133.752 239.528 133.373 240.019 132.616C240.52 131.859 240.771 130.787 240.771 129.4C240.771 128.013 240.52 126.941 240.019 126.184C239.528 125.416 238.829 125.032 237.923 125.032C237.016 125.032 236.317 125.411 235.827 126.168C235.336 126.925 235.091 128.003 235.091 129.4C235.091 130.787 235.336 131.859 235.827 132.616ZM251.121 127.352C251.121 128.216 250.892 128.968 250.433 129.608H250.449L246.833 135H245.153L247.809 131.08C247.574 131.101 247.393 131.112 247.265 131.112C246.134 131.112 245.206 130.765 244.481 130.072C243.766 129.368 243.409 128.461 243.409 127.352C243.409 126.243 243.766 125.341 244.481 124.648C245.206 123.944 246.134 123.592 247.265 123.592C248.396 123.592 249.318 123.944 250.033 124.648C250.758 125.341 251.121 126.243 251.121 127.352ZM245.537 125.656C245.1 126.083 244.881 126.648 244.881 127.352C244.881 128.056 245.1 128.627 245.537 129.064C245.985 129.491 246.561 129.704 247.265 129.704C247.969 129.704 248.54 129.491 248.977 129.064C249.425 128.627 249.649 128.056 249.649 127.352C249.649 126.648 249.43 126.083 248.993 125.656C248.556 125.229 247.98 125.016 247.265 125.016C246.561 125.016 245.985 125.229 245.537 125.656ZM253.01 136.6H252.178L258.578 122.2H259.41L253.01 136.6ZM260.599 135V133.784L264.551 129.752C265.607 128.696 266.135 127.789 266.135 127.032C266.135 126.403 265.943 125.912 265.559 125.56C265.175 125.208 264.706 125.032 264.151 125.032C263.095 125.032 262.327 125.533 261.847 126.536L260.599 125.8C260.951 125.075 261.437 124.525 262.055 124.152C262.685 123.779 263.378 123.592 264.135 123.592C265.074 123.592 265.89 123.901 266.583 124.52C267.277 125.139 267.623 125.971 267.623 127.016C267.623 128.147 266.957 129.379 265.623 130.712L262.759 133.56H267.831V135H260.599ZM272.656 128.168C273.712 128.168 274.603 128.483 275.328 129.112C276.064 129.731 276.432 130.589 276.432 131.688C276.432 132.776 276.059 133.635 275.312 134.264C274.565 134.893 273.659 135.208 272.592 135.208C271.739 135.208 270.976 135.005 270.304 134.6C269.632 134.184 269.163 133.587 268.896 132.808L270.16 132.088C270.309 132.632 270.597 133.048 271.024 133.336C271.451 133.613 271.973 133.752 272.592 133.752C273.296 133.752 273.867 133.571 274.304 133.208C274.741 132.845 274.96 132.339 274.96 131.688C274.96 131.037 274.741 130.531 274.304 130.168C273.867 129.795 273.307 129.608 272.624 129.608H269.456L269.872 123.8H276V125.192H271.216L271.024 128.168H272.656ZM284.966 133.624C284.209 134.68 283.148 135.208 281.782 135.208C280.417 135.208 279.356 134.68 278.598 133.624C277.841 132.568 277.462 131.16 277.462 129.4C277.462 127.64 277.841 126.232 278.598 125.176C279.356 124.12 280.417 123.592 281.782 123.592C283.148 123.592 284.209 124.12 284.966 125.176C285.724 126.232 286.102 127.64 286.102 129.4C286.102 131.16 285.724 132.568 284.966 133.624ZM279.686 132.616C280.177 133.373 280.876 133.752 281.782 133.752C282.689 133.752 283.388 133.373 283.878 132.616C284.38 131.859 284.63 130.787 284.63 129.4C284.63 128.013 284.38 126.941 283.878 126.184C283.388 125.416 282.689 125.032 281.782 125.032C280.876 125.032 280.177 125.411 279.686 126.168C279.196 126.925 278.95 128.003 278.95 129.4C278.95 130.787 279.196 131.859 279.686 132.616Z" fill="#645962"/>
<path opacity="0.9" d="M43.5083 134L42.5283 131.18H36.5683L35.5883 134H33.0883L38.1683 120H40.9283L45.9883 134H43.5083ZM37.3283 129.02H41.7683L39.5483 122.7L37.3283 129.02ZM52.2813 121.82C50.7079 121.673 49.9213 122.333 49.9213 123.8V124H52.2813V126.08H49.9213V134H47.7613V126.08H46.2413V124H47.7613V123.8C47.7613 122.427 48.1413 121.387 48.9013 120.68C49.6746 119.96 50.8013 119.647 52.2813 119.74V121.82ZM55.7052 125.68C56.2518 124.44 57.2785 123.82 58.7852 123.82V126.16C57.9585 126.107 57.2385 126.307 56.6252 126.76C56.0118 127.2 55.7052 127.933 55.7052 128.96V134H53.5452V124H55.7052V125.68ZM62.4211 122.1C62.1544 122.367 61.8344 122.5 61.4611 122.5C61.0878 122.5 60.7611 122.367 60.4811 122.1C60.2144 121.82 60.0811 121.493 60.0811 121.12C60.0811 120.747 60.2144 120.427 60.4811 120.16C60.7478 119.88 61.0744 119.74 61.4611 119.74C61.8478 119.74 62.1744 119.88 62.4411 120.16C62.7078 120.427 62.8411 120.747 62.8411 121.12C62.8411 121.493 62.7011 121.82 62.4211 122.1ZM60.3811 134V124H62.5411V134H60.3811ZM69.7691 134.26C68.2624 134.26 67.0024 133.753 65.9891 132.74C64.9891 131.727 64.4891 130.48 64.4891 129C64.4891 127.507 64.9891 126.26 65.9891 125.26C67.0024 124.247 68.2624 123.74 69.7691 123.74C70.7424 123.74 71.6291 123.973 72.4291 124.44C73.2291 124.907 73.8291 125.533 74.2291 126.32L72.3691 127.4C72.1424 126.92 71.7957 126.547 71.3291 126.28C70.8757 126 70.3491 125.86 69.7491 125.86C68.8691 125.86 68.1291 126.16 67.5291 126.76C66.9424 127.36 66.6491 128.107 66.6491 129C66.6491 129.893 66.9424 130.64 67.5291 131.24C68.1291 131.84 68.8691 132.14 69.7491 132.14C70.3357 132.14 70.8624 132 71.3291 131.72C71.8091 131.44 72.1691 131.067 72.4091 130.6L74.2691 131.66C73.8424 132.46 73.2291 133.093 72.4291 133.56C71.6291 134.027 70.7424 134.26 69.7691 134.26ZM83.5941 124H85.7541V134H83.5941V132.56C82.7807 133.693 81.6141 134.26 80.0941 134.26C78.7207 134.26 77.5474 133.753 76.5741 132.74C75.6007 131.713 75.1141 130.467 75.1141 129C75.1141 127.52 75.6007 126.273 76.5741 125.26C77.5474 124.247 78.7207 123.74 80.0941 123.74C81.6141 123.74 82.7807 124.3 83.5941 125.42V124ZM78.1741 131.3C78.7741 131.9 79.5274 132.2 80.4341 132.2C81.3407 132.2 82.0941 131.9 82.6941 131.3C83.2941 130.687 83.5941 129.92 83.5941 129C83.5941 128.08 83.2941 127.32 82.6941 126.72C82.0941 126.107 81.3407 125.8 80.4341 125.8C79.5274 125.8 78.7741 126.107 78.1741 126.72C77.5741 127.32 77.2741 128.08 77.2741 129C77.2741 129.92 77.5741 130.687 78.1741 131.3Z" fill="#5E5963"/>
<rect x="35" y="145" width="252" height="5" fill="#ECECEC"/>
<rect x="35" y="145" width="116" height="5" fill="#085881"/>
<path opacity="0.9" d="M222.919 176.208C223.463 176.485 223.889 176.859 224.199 177.328C224.508 177.797 224.663 178.331 224.663 178.928C224.663 179.952 224.305 180.757 223.591 181.344C222.876 181.92 221.953 182.208 220.823 182.208C219.703 182.208 218.785 181.92 218.071 181.344C217.356 180.757 216.999 179.952 216.999 178.928C216.999 178.331 217.153 177.797 217.463 177.328C217.772 176.859 218.199 176.485 218.743 176.208C217.825 175.632 217.367 174.816 217.367 173.76C217.367 172.747 217.703 171.968 218.375 171.424C219.057 170.869 219.873 170.592 220.823 170.592C221.783 170.592 222.599 170.869 223.271 171.424C223.953 171.968 224.295 172.747 224.295 173.76C224.295 174.816 223.836 175.632 222.919 176.208ZM220.823 172.016C220.257 172.016 219.783 172.165 219.399 172.464C219.025 172.763 218.839 173.205 218.839 173.792C218.839 174.357 219.031 174.8 219.415 175.12C219.799 175.429 220.268 175.584 220.823 175.584C221.377 175.584 221.847 175.429 222.231 175.12C222.615 174.8 222.807 174.357 222.807 173.792C222.807 173.205 222.62 172.763 222.247 172.464C221.873 172.165 221.399 172.016 220.823 172.016ZM220.823 180.784C221.537 180.784 222.108 180.619 222.535 180.288C222.972 179.947 223.191 179.461 223.191 178.832C223.191 178.213 222.972 177.739 222.535 177.408C222.108 177.067 221.537 176.896 220.823 176.896C220.119 176.896 219.548 177.067 219.111 177.408C218.684 177.739 218.471 178.213 218.471 178.832C218.471 179.461 218.684 179.947 219.111 180.288C219.548 180.619 220.119 180.784 220.823 180.784ZM233.426 174.352C233.426 175.216 233.196 175.968 232.738 176.608H232.754L229.138 182H227.458L230.114 178.08C229.879 178.101 229.698 178.112 229.57 178.112C228.439 178.112 227.511 177.765 226.786 177.072C226.071 176.368 225.714 175.461 225.714 174.352C225.714 173.243 226.071 172.341 226.786 171.648C227.511 170.944 228.439 170.592 229.57 170.592C230.7 170.592 231.623 170.944 232.338 171.648C233.063 172.341 233.426 173.243 233.426 174.352ZM227.842 172.656C227.404 173.083 227.186 173.648 227.186 174.352C227.186 175.056 227.404 175.627 227.842 176.064C228.29 176.491 228.866 176.704 229.57 176.704C230.274 176.704 230.844 176.491 231.282 176.064C231.73 175.627 231.954 175.056 231.954 174.352C231.954 173.648 231.735 173.083 231.298 172.656C230.86 172.229 230.284 172.016 229.57 172.016C228.866 172.016 228.29 172.229 227.842 172.656ZM234.357 182V180.784L238.309 176.752C239.365 175.696 239.893 174.789 239.893 174.032C239.893 173.403 239.701 172.912 239.317 172.56C238.933 172.208 238.464 172.032 237.909 172.032C236.853 172.032 236.085 172.533 235.605 173.536L234.357 172.8C234.709 172.075 235.195 171.525 235.813 171.152C236.443 170.779 237.136 170.592 237.893 170.592C238.832 170.592 239.648 170.901 240.341 171.52C241.035 172.139 241.381 172.971 241.381 174.016C241.381 175.147 240.715 176.379 239.381 177.712L236.517 180.56H241.589V182H234.357ZM243.659 183.6H242.827L249.227 169.2H250.059L243.659 183.6ZM253.84 170.8H255.12V182H253.648V172.4L251.264 173.104L250.896 171.824L253.84 170.8ZM264.599 180.624C263.842 181.68 262.78 182.208 261.415 182.208C260.05 182.208 258.988 181.68 258.231 180.624C257.474 179.568 257.095 178.16 257.095 176.4C257.095 174.64 257.474 173.232 258.231 172.176C258.988 171.12 260.05 170.592 261.415 170.592C262.78 170.592 263.842 171.12 264.599 172.176C265.356 173.232 265.735 174.64 265.735 176.4C265.735 178.16 265.356 179.568 264.599 180.624ZM259.319 179.616C259.81 180.373 260.508 180.752 261.415 180.752C262.322 180.752 263.02 180.373 263.511 179.616C264.012 178.859 264.263 177.787 264.263 176.4C264.263 175.013 264.012 173.941 263.511 173.184C263.02 172.416 262.322 172.032 261.415 172.032C260.508 172.032 259.81 172.411 259.319 173.168C258.828 173.925 258.583 175.003 258.583 176.4C258.583 177.787 258.828 178.859 259.319 179.616ZM274.677 180.624C273.92 181.68 272.858 182.208 271.493 182.208C270.128 182.208 269.066 181.68 268.309 180.624C267.552 179.568 267.173 178.16 267.173 176.4C267.173 174.64 267.552 173.232 268.309 172.176C269.066 171.12 270.128 170.592 271.493 170.592C272.858 170.592 273.92 171.12 274.677 172.176C275.434 173.232 275.813 174.64 275.813 176.4C275.813 178.16 275.434 179.568 274.677 180.624ZM269.397 179.616C269.888 180.373 270.586 180.752 271.493 180.752C272.4 180.752 273.098 180.373 273.589 179.616C274.09 178.859 274.341 177.787 274.341 176.4C274.341 175.013 274.09 173.941 273.589 173.184C273.098 172.416 272.4 172.032 271.493 172.032C270.586 172.032 269.888 172.411 269.397 173.168C268.906 173.925 268.661 175.003 268.661 176.4C268.661 177.787 268.906 178.859 269.397 179.616ZM284.755 180.624C283.998 181.68 282.937 182.208 281.571 182.208C280.206 182.208 279.145 181.68 278.387 180.624C277.63 179.568 277.251 178.16 277.251 176.4C277.251 174.64 277.63 173.232 278.387 172.176C279.145 171.12 280.206 170.592 281.571 170.592C282.937 170.592 283.998 171.12 284.755 172.176C285.513 173.232 285.891 174.64 285.891 176.4C285.891 178.16 285.513 179.568 284.755 180.624ZM279.475 179.616C279.966 180.373 280.665 180.752 281.571 180.752C282.478 180.752 283.177 180.373 283.667 179.616C284.169 178.859 284.419 177.787 284.419 176.4C284.419 175.013 284.169 173.941 283.667 173.184C283.177 172.416 282.478 172.032 281.571 172.032C280.665 172.032 279.966 172.411 279.475 173.168C278.985 173.925 278.739 175.003 278.739 176.4C278.739 177.787 278.985 178.859 279.475 179.616Z" fill="#645962"/>
<path opacity="0.9" d="M44.3423 182L43.3623 179.18H37.4023L36.4223 182H33.9223L39.0023 168H41.7623L46.8223 182H44.3423ZM38.1623 177.02H42.6023L40.3823 170.7L38.1623 177.02ZM50.0105 174.76C50.0105 175.093 50.1905 175.36 50.5505 175.56C50.9239 175.747 51.3705 175.913 51.8905 176.06C52.4239 176.193 52.9572 176.353 53.4905 176.54C54.0239 176.727 54.4705 177.047 54.8305 177.5C55.2039 177.94 55.3905 178.5 55.3905 179.18C55.3905 180.14 55.0172 180.893 54.2705 181.44C53.5372 181.987 52.6105 182.26 51.4905 182.26C50.5039 182.26 49.6572 182.053 48.9505 181.64C48.2439 181.227 47.7305 180.653 47.4105 179.92L49.2705 178.84C49.6172 179.8 50.3572 180.28 51.4905 180.28C52.6239 180.28 53.1905 179.907 53.1905 179.16C53.1905 178.84 53.0039 178.58 52.6305 178.38C52.2705 178.18 51.8239 178.013 51.2905 177.88C50.7705 177.733 50.2439 177.567 49.7105 177.38C49.1772 177.193 48.7239 176.887 48.3505 176.46C47.9905 176.02 47.8105 175.467 47.8105 174.8C47.8105 173.88 48.1572 173.14 48.8505 172.58C49.5572 172.02 50.4305 171.74 51.4705 171.74C52.2972 171.74 53.0305 171.927 53.6705 172.3C54.3239 172.66 54.8239 173.167 55.1705 173.82L53.3505 174.84C53.0039 174.08 52.3772 173.7 51.4705 173.7C51.0572 173.7 50.7105 173.793 50.4305 173.98C50.1505 174.153 50.0105 174.413 50.0105 174.76ZM59.2121 170.1C58.9454 170.367 58.6254 170.5 58.2521 170.5C57.8788 170.5 57.5521 170.367 57.2721 170.1C57.0054 169.82 56.8721 169.493 56.8721 169.12C56.8721 168.747 57.0054 168.427 57.2721 168.16C57.5388 167.88 57.8654 167.74 58.2521 167.74C58.6388 167.74 58.9654 167.88 59.2321 168.16C59.4988 168.427 59.6321 168.747 59.6321 169.12C59.6321 169.493 59.4921 169.82 59.2121 170.1ZM57.1721 182V172H59.3321V182H57.1721ZM69.7601 172H71.9201V182H69.7601V180.56C68.9467 181.693 67.7801 182.26 66.2601 182.26C64.8867 182.26 63.7134 181.753 62.7401 180.74C61.7667 179.713 61.2801 178.467 61.2801 177C61.2801 175.52 61.7667 174.273 62.7401 173.26C63.7134 172.247 64.8867 171.74 66.2601 171.74C67.7801 171.74 68.9467 172.3 69.7601 173.42V172ZM64.3401 179.3C64.9401 179.9 65.6934 180.2 66.6001 180.2C67.5067 180.2 68.2601 179.9 68.8601 179.3C69.4601 178.687 69.7601 177.92 69.7601 177C69.7601 176.08 69.4601 175.32 68.8601 174.72C68.2601 174.107 67.5067 173.8 66.6001 173.8C65.6934 173.8 64.9401 174.107 64.3401 174.72C63.7401 175.32 63.4401 176.08 63.4401 177C63.4401 177.92 63.7401 178.687 64.3401 179.3Z" fill="#5E5963"/>
<rect x="35" y="193" width="252" height="5" fill="#ECECEC"/>
<rect x="35" y="193" width="221" height="5" fill="#085881"/>
<path opacity="0.9" d="M36.9051 227.8H43.1051V230H34.6051V216H43.0051V218.2H36.9051V221.84H42.5051V224.02H36.9051V227.8ZM51.8105 220H53.9705V230H51.8105V228.72C51.1572 229.747 50.1239 230.26 48.7105 230.26C47.5639 230.26 46.6372 229.893 45.9305 229.16C45.2239 228.427 44.8705 227.42 44.8705 226.14V220H47.0305V225.92C47.0305 226.667 47.2305 227.24 47.6305 227.64C48.0305 228.04 48.5772 228.24 49.2705 228.24C50.0305 228.24 50.6439 228.007 51.1105 227.54C51.5772 227.06 51.8105 226.333 51.8105 225.36V220ZM58.6563 221.68C59.203 220.44 60.2297 219.82 61.7363 219.82V222.16C60.9097 222.107 60.1897 222.307 59.5763 222.76C58.963 223.2 58.6563 223.933 58.6563 224.96V230H56.4963V220H58.6563V221.68ZM67.5835 230.26C66.1168 230.26 64.8702 229.753 63.8435 228.74C62.8168 227.727 62.3035 226.48 62.3035 225C62.3035 223.52 62.8168 222.273 63.8435 221.26C64.8702 220.247 66.1168 219.74 67.5835 219.74C69.0635 219.74 70.3102 220.247 71.3235 221.26C72.3502 222.273 72.8635 223.52 72.8635 225C72.8635 226.48 72.3502 227.727 71.3235 228.74C70.3102 229.753 69.0635 230.26 67.5835 230.26ZM65.3635 227.26C65.9635 227.86 66.7035 228.16 67.5835 228.16C68.4635 228.16 69.2035 227.86 69.8035 227.26C70.4035 226.66 70.7035 225.907 70.7035 225C70.7035 224.093 70.4035 223.34 69.8035 222.74C69.2035 222.14 68.4635 221.84 67.5835 221.84C66.7035 221.84 65.9635 222.14 65.3635 222.74C64.7635 223.34 64.4635 224.093 64.4635 225C64.4635 225.907 64.7635 226.66 65.3635 227.26ZM80.4766 219.74C81.85 219.74 83.0233 220.253 83.9966 221.28C84.97 222.293 85.4566 223.533 85.4566 225C85.4566 226.48 84.97 227.727 83.9966 228.74C83.0233 229.753 81.85 230.26 80.4766 230.26C78.9566 230.26 77.79 229.7 76.9766 228.58V234H74.8166V220H76.9766V221.44C77.79 220.307 78.9566 219.74 80.4766 219.74ZM77.8766 227.3C78.4766 227.9 79.23 228.2 80.1366 228.2C81.0433 228.2 81.7966 227.9 82.3966 227.3C82.9966 226.687 83.2966 225.92 83.2966 225C83.2966 224.08 82.9966 223.32 82.3966 222.72C81.7966 222.107 81.0433 221.8 80.1366 221.8C79.23 221.8 78.4766 222.107 77.8766 222.72C77.2766 223.32 76.9766 224.08 76.9766 225C76.9766 225.92 77.2766 226.687 77.8766 227.3ZM89.1143 225.92C89.2743 226.68 89.641 227.267 90.2143 227.68C90.7876 228.08 91.4876 228.28 92.3143 228.28C93.461 228.28 94.321 227.867 94.8943 227.04L96.6743 228.08C95.6876 229.533 94.2276 230.26 92.2943 230.26C90.6676 230.26 89.3543 229.767 88.3543 228.78C87.3543 227.78 86.8543 226.52 86.8543 225C86.8543 223.507 87.3476 222.26 88.3343 221.26C89.321 220.247 90.5876 219.74 92.1343 219.74C93.601 219.74 94.801 220.253 95.7343 221.28C96.681 222.307 97.1543 223.553 97.1543 225.02C97.1543 225.247 97.1276 225.547 97.0743 225.92H89.1143ZM89.0943 224.16H94.9743C94.8276 223.347 94.4876 222.733 93.9543 222.32C93.4343 221.907 92.821 221.7 92.1143 221.7C91.3143 221.7 90.6476 221.92 90.1143 222.36C89.581 222.8 89.241 223.4 89.0943 224.16Z" fill="#5E5963"/>
<rect x="35" y="241" width="252" height="5" fill="#ECECEC"/>
<rect x="35" y="241" width="74" height="5" fill="#085881"/>
<rect x="222" y="220" width="62" height="10" rx="5" fill="#D9D9D9"/>
<path opacity="0.9" d="M43.6977 278L42.7177 275.18H36.7577L35.7777 278H33.2777L38.3577 264H41.1177L46.1777 278H43.6977ZM37.5177 273.02H41.9577L39.7377 266.7L37.5177 273.02ZM58.4632 267.74C59.5965 267.74 60.5099 268.107 61.2032 268.84C61.8965 269.573 62.2432 270.56 62.2432 271.8V278H60.0832V271.94C60.0832 271.247 59.9099 270.713 59.5632 270.34C59.2165 269.953 58.7432 269.76 58.1432 269.76C57.4765 269.76 56.9432 269.98 56.5432 270.42C56.1565 270.86 55.9632 271.52 55.9632 272.4V278H53.8032V271.94C53.8032 271.247 53.6365 270.713 53.3032 270.34C52.9832 269.953 52.5232 269.76 51.9232 269.76C51.2699 269.76 50.7365 269.987 50.3232 270.44C49.9099 270.88 49.7032 271.533 49.7032 272.4V278H47.5432V268H49.7032V269.2C50.3432 268.227 51.2965 267.74 52.5632 267.74C53.8432 267.74 54.7899 268.267 55.4032 269.32C56.0699 268.267 57.0899 267.74 58.4632 267.74ZM66.2549 273.92C66.4149 274.68 66.7816 275.267 67.3549 275.68C67.9283 276.08 68.6283 276.28 69.4549 276.28C70.6016 276.28 71.4616 275.867 72.0349 275.04L73.8149 276.08C72.8283 277.533 71.3683 278.26 69.4349 278.26C67.8083 278.26 66.4949 277.767 65.4949 276.78C64.4949 275.78 63.9949 274.52 63.9949 273C63.9949 271.507 64.4883 270.26 65.4749 269.26C66.4616 268.247 67.7283 267.74 69.2749 267.74C70.7416 267.74 71.9416 268.253 72.8749 269.28C73.8216 270.307 74.2949 271.553 74.2949 273.02C74.2949 273.247 74.2683 273.547 74.2149 273.92H66.2549ZM66.2349 272.16H72.1149C71.9683 271.347 71.6283 270.733 71.0949 270.32C70.5749 269.907 69.9616 269.7 69.2549 269.7C68.4549 269.7 67.7883 269.92 67.2549 270.36C66.7216 270.8 66.3816 271.4 66.2349 272.16ZM78.3555 269.68C78.9022 268.44 79.9289 267.82 81.4355 267.82V270.16C80.6089 270.107 79.8889 270.307 79.2755 270.76C78.6622 271.2 78.3555 271.933 78.3555 272.96V278H76.1955V268H78.3555V269.68ZM85.0715 266.1C84.8048 266.367 84.4848 266.5 84.1115 266.5C83.7382 266.5 83.4115 266.367 83.1315 266.1C82.8648 265.82 82.7315 265.493 82.7315 265.12C82.7315 264.747 82.8648 264.427 83.1315 264.16C83.3982 263.88 83.7248 263.74 84.1115 263.74C84.4982 263.74 84.8248 263.88 85.0915 264.16C85.3582 264.427 85.4915 264.747 85.4915 265.12C85.4915 265.493 85.3515 265.82 85.0715 266.1ZM83.0315 278V268H85.1915V278H83.0315ZM92.4195 278.26C90.9128 278.26 89.6528 277.753 88.6395 276.74C87.6395 275.727 87.1395 274.48 87.1395 273C87.1395 271.507 87.6395 270.26 88.6395 269.26C89.6528 268.247 90.9128 267.74 92.4195 267.74C93.3928 267.74 94.2795 267.973 95.0795 268.44C95.8795 268.907 96.4795 269.533 96.8795 270.32L95.0195 271.4C94.7928 270.92 94.4461 270.547 93.9795 270.28C93.5261 270 92.9995 269.86 92.3995 269.86C91.5195 269.86 90.7795 270.16 90.1795 270.76C89.5928 271.36 89.2995 272.107 89.2995 273C89.2995 273.893 89.5928 274.64 90.1795 275.24C90.7795 275.84 91.5195 276.14 92.3995 276.14C92.9861 276.14 93.5128 276 93.9795 275.72C94.4595 275.44 94.8195 275.067 95.0595 274.6L96.9195 275.66C96.4928 276.46 95.8795 277.093 95.0795 277.56C94.2795 278.027 93.3928 278.26 92.4195 278.26ZM106.244 268H108.404V278H106.244V276.56C105.431 277.693 104.264 278.26 102.744 278.26C101.371 278.26 100.198 277.753 99.2245 276.74C98.2511 275.713 97.7645 274.467 97.7645 273C97.7645 271.52 98.2511 270.273 99.2245 269.26C100.198 268.247 101.371 267.74 102.744 267.74C104.264 267.74 105.431 268.3 106.244 269.42V268ZM100.824 275.3C101.424 275.9 102.178 276.2 103.084 276.2C103.991 276.2 104.744 275.9 105.344 275.3C105.944 274.687 106.244 273.92 106.244 273C106.244 272.08 105.944 271.32 105.344 270.72C104.744 270.107 103.991 269.8 103.084 269.8C102.178 269.8 101.424 270.107 100.824 270.72C100.224 271.32 99.9245 272.08 99.9245 273C99.9245 273.92 100.224 274.687 100.824 275.3ZM112.804 270.76C112.804 271.093 112.984 271.36 113.344 271.56C113.717 271.747 114.164 271.913 114.684 272.06C115.217 272.193 115.75 272.353 116.284 272.54C116.817 272.727 117.264 273.047 117.624 273.5C117.997 273.94 118.184 274.5 118.184 275.18C118.184 276.14 117.81 276.893 117.064 277.44C116.33 277.987 115.404 278.26 114.284 278.26C113.297 278.26 112.45 278.053 111.744 277.64C111.037 277.227 110.524 276.653 110.204 275.92L112.064 274.84C112.41 275.8 113.15 276.28 114.284 276.28C115.417 276.28 115.984 275.907 115.984 275.16C115.984 274.84 115.797 274.58 115.424 274.38C115.064 274.18 114.617 274.013 114.084 273.88C113.564 273.733 113.037 273.567 112.504 273.38C111.97 273.193 111.517 272.887 111.144 272.46C110.784 272.02 110.604 271.467 110.604 270.8C110.604 269.88 110.95 269.14 111.644 268.58C112.35 268.02 113.224 267.74 114.264 267.74C115.09 267.74 115.824 267.927 116.464 268.3C117.117 268.66 117.617 269.167 117.964 269.82L116.144 270.84C115.797 270.08 115.17 269.7 114.264 269.7C113.85 269.7 113.504 269.793 113.224 269.98C112.944 270.153 112.804 270.413 112.804 270.76Z" fill="#5E5963"/>
<rect x="33" y="290" width="252" height="5" fill="#ECECEC"/>
<rect x="33" y="290" width="202" height="5" fill="#085881"/>
<rect x="210" y="269" width="74" height="11" rx="5.5" fill="#D9D9D9"/>
</svg>
