<svg width="342" height="324" viewBox="0 0 342 324" fill="none" xmlns="http://www.w3.org/2000/svg">
<rect width="342" height="324" rx="31" fill="white"/>
<path opacity="0.8" d="M83.9458 281.592H89.1458V283H82.4578V271.8H89.0658V273.208H83.9458V276.648H88.6658V278.04H83.9458V281.592ZM97.2503 275H98.6423V283H97.2503V281.624C96.557 282.68 95.549 283.208 94.2263 283.208C93.1063 283.208 92.1516 282.803 91.3623 281.992C90.573 281.171 90.1783 280.173 90.1783 279C90.1783 277.827 90.573 276.835 91.3623 276.024C92.1516 275.203 93.1063 274.792 94.2263 274.792C95.549 274.792 96.557 275.32 97.2503 276.376V275ZM94.4023 281.864C95.213 281.864 95.8903 281.592 96.4343 281.048C96.9783 280.493 97.2503 279.811 97.2503 279C97.2503 278.189 96.9783 277.512 96.4343 276.968C95.8903 276.413 95.213 276.136 94.4023 276.136C93.6023 276.136 92.9303 276.413 92.3863 276.968C91.8423 277.512 91.5703 278.189 91.5703 279C91.5703 279.811 91.8423 280.493 92.3863 281.048C92.9303 281.592 93.6023 281.864 94.4023 281.864ZM101.936 277.16C101.936 277.469 102.09 277.72 102.4 277.912C102.709 278.093 103.082 278.243 103.52 278.36C103.957 278.467 104.394 278.595 104.832 278.744C105.269 278.883 105.642 279.128 105.952 279.48C106.261 279.821 106.416 280.264 106.416 280.808C106.416 281.533 106.133 282.115 105.568 282.552C105.013 282.989 104.298 283.208 103.424 283.208C102.645 283.208 101.978 283.037 101.424 282.696C100.869 282.355 100.474 281.901 100.24 281.336L101.44 280.648C101.568 281.032 101.808 281.336 102.16 281.56C102.512 281.784 102.933 281.896 103.424 281.896C103.882 281.896 104.261 281.811 104.56 281.64C104.858 281.459 105.008 281.181 105.008 280.808C105.008 280.499 104.853 280.253 104.544 280.072C104.234 279.88 103.861 279.731 103.424 279.624C102.986 279.507 102.549 279.373 102.112 279.224C101.674 279.075 101.301 278.829 100.992 278.488C100.682 278.147 100.528 277.709 100.528 277.176C100.528 276.483 100.794 275.912 101.328 275.464C101.872 275.016 102.549 274.792 103.36 274.792C104.01 274.792 104.586 274.941 105.088 275.24C105.6 275.528 105.984 275.933 106.24 276.456L105.072 277.112C104.784 276.429 104.213 276.088 103.36 276.088C102.965 276.088 102.629 276.184 102.352 276.376C102.074 276.557 101.936 276.819 101.936 277.16ZM112.103 276.344H109.975V280.68C109.975 281.075 110.05 281.357 110.199 281.528C110.359 281.688 110.599 281.773 110.919 281.784C111.239 281.784 111.634 281.773 112.103 281.752V283C110.887 283.16 109.997 283.064 109.431 282.712C108.866 282.349 108.583 281.672 108.583 280.68V276.344H106.999V275H108.583V273.176L109.975 272.76V275H112.103V276.344Z" fill="#202020"/>
<path opacity="0.8" d="M157.054 283L153.838 271.8H155.406L157.966 281.016L160.686 271.8H162.19L164.91 281.016L167.47 271.8H169.038L165.822 283H164.094L161.438 274.056L158.782 283H157.054ZM170.516 279.64C170.655 280.355 170.98 280.909 171.492 281.304C172.015 281.699 172.655 281.896 173.412 281.896C174.468 281.896 175.236 281.507 175.716 280.728L176.9 281.4C176.122 282.605 174.948 283.208 173.38 283.208C172.111 283.208 171.076 282.813 170.276 282.024C169.487 281.224 169.092 280.216 169.092 279C169.092 277.795 169.482 276.792 170.26 275.992C171.039 275.192 172.047 274.792 173.284 274.792C174.458 274.792 175.412 275.208 176.148 276.04C176.895 276.861 177.268 277.853 177.268 279.016C177.268 279.219 177.252 279.427 177.22 279.64H170.516ZM173.284 276.104C172.538 276.104 171.919 276.317 171.428 276.744C170.938 277.16 170.634 277.72 170.516 278.424H175.86C175.743 277.667 175.444 277.091 174.964 276.696C174.484 276.301 173.924 276.104 173.284 276.104ZM179.756 277.16C179.756 277.469 179.911 277.72 180.22 277.912C180.529 278.093 180.903 278.243 181.34 278.36C181.777 278.467 182.215 278.595 182.652 278.744C183.089 278.883 183.463 279.128 183.772 279.48C184.081 279.821 184.236 280.264 184.236 280.808C184.236 281.533 183.953 282.115 183.388 282.552C182.833 282.989 182.119 283.208 181.244 283.208C180.465 283.208 179.799 283.037 179.244 282.696C178.689 282.355 178.295 281.901 178.06 281.336L179.26 280.648C179.388 281.032 179.628 281.336 179.98 281.56C180.332 281.784 180.753 281.896 181.244 281.896C181.703 281.896 182.081 281.811 182.38 281.64C182.679 281.459 182.828 281.181 182.828 280.808C182.828 280.499 182.673 280.253 182.364 280.072C182.055 279.88 181.681 279.731 181.244 279.624C180.807 279.507 180.369 279.373 179.932 279.224C179.495 279.075 179.121 278.829 178.812 278.488C178.503 278.147 178.348 277.709 178.348 277.176C178.348 276.483 178.615 275.912 179.148 275.464C179.692 275.016 180.369 274.792 181.18 274.792C181.831 274.792 182.407 274.941 182.908 275.24C183.42 275.528 183.804 275.933 184.06 276.456L182.892 277.112C182.604 276.429 182.033 276.088 181.18 276.088C180.785 276.088 180.449 276.184 180.172 276.376C179.895 276.557 179.756 276.819 179.756 277.16ZM189.924 276.344H187.796V280.68C187.796 281.075 187.87 281.357 188.02 281.528C188.18 281.688 188.42 281.773 188.74 281.784C189.06 281.784 189.454 281.773 189.924 281.752V283C188.708 283.16 187.817 283.064 187.252 282.712C186.686 282.349 186.404 281.672 186.404 280.68V276.344H184.82V275H186.404V273.176L187.796 272.76V275H189.924V276.344Z" fill="#202020"/>
<path opacity="0.8" d="M237.659 283.208C235.963 283.208 234.561 282.648 233.451 281.528C232.353 280.408 231.803 279.032 231.803 277.4C231.803 275.768 232.353 274.392 233.451 273.272C234.561 272.152 235.963 271.592 237.659 271.592C238.683 271.592 239.622 271.837 240.475 272.328C241.339 272.819 242.011 273.48 242.491 274.312L241.195 275.064C240.875 274.445 240.395 273.955 239.755 273.592C239.126 273.219 238.427 273.032 237.659 273.032C236.369 273.032 235.313 273.448 234.491 274.28C233.681 275.112 233.275 276.152 233.275 277.4C233.275 278.637 233.681 279.672 234.491 280.504C235.313 281.336 236.369 281.752 237.659 281.752C238.427 281.752 239.126 281.571 239.755 281.208C240.395 280.835 240.875 280.344 241.195 279.736L242.491 280.472C242.022 281.304 241.355 281.971 240.491 282.472C239.627 282.963 238.683 283.208 237.659 283.208ZM244.977 279.64C245.116 280.355 245.441 280.909 245.953 281.304C246.476 281.699 247.116 281.896 247.873 281.896C248.929 281.896 249.697 281.507 250.177 280.728L251.361 281.4C250.583 282.605 249.409 283.208 247.841 283.208C246.572 283.208 245.537 282.813 244.737 282.024C243.948 281.224 243.553 280.216 243.553 279C243.553 277.795 243.943 276.792 244.721 275.992C245.5 275.192 246.508 274.792 247.745 274.792C248.919 274.792 249.873 275.208 250.609 276.04C251.356 276.861 251.729 277.853 251.729 279.016C251.729 279.219 251.713 279.427 251.681 279.64H244.977ZM247.745 276.104C246.999 276.104 246.38 276.317 245.889 276.744C245.399 277.16 245.095 277.72 244.977 278.424H250.321C250.204 277.667 249.905 277.091 249.425 276.696C248.945 276.301 248.385 276.104 247.745 276.104ZM257.313 274.792C258.252 274.792 259.004 275.091 259.569 275.688C260.135 276.275 260.417 277.075 260.417 278.088V283H259.025V278.168C259.025 277.517 258.849 277.016 258.497 276.664C258.145 276.301 257.66 276.12 257.041 276.12C256.348 276.12 255.788 276.339 255.361 276.776C254.935 277.203 254.721 277.864 254.721 278.76V283H253.329V275H254.721V276.152C255.287 275.245 256.151 274.792 257.313 274.792ZM266.713 276.344H264.585V280.68C264.585 281.075 264.659 281.357 264.809 281.528C264.969 281.688 265.209 281.773 265.529 281.784C265.849 281.784 266.243 281.773 266.713 281.752V283C265.497 283.16 264.606 283.064 264.041 282.712C263.475 282.349 263.193 281.672 263.193 280.68V276.344H261.609V275H263.193V273.176L264.585 272.76V275H266.713V276.344ZM269.8 276.344C270.258 275.352 271.09 274.856 272.296 274.856V276.312C271.613 276.28 271.026 276.461 270.536 276.856C270.045 277.251 269.8 277.885 269.8 278.76V283H268.408V275H269.8V276.344ZM279.844 275H281.236V283H279.844V281.624C279.151 282.68 278.143 283.208 276.82 283.208C275.7 283.208 274.745 282.803 273.956 281.992C273.167 281.171 272.772 280.173 272.772 279C272.772 277.827 273.167 276.835 273.956 276.024C274.745 275.203 275.7 274.792 276.82 274.792C278.143 274.792 279.151 275.32 279.844 276.376V275ZM276.996 281.864C277.807 281.864 278.484 281.592 279.028 281.048C279.572 280.493 279.844 279.811 279.844 279C279.844 278.189 279.572 277.512 279.028 276.968C278.484 276.413 277.807 276.136 276.996 276.136C276.196 276.136 275.524 276.413 274.98 276.968C274.436 277.512 274.164 278.189 274.164 279C274.164 279.811 274.436 280.493 274.98 281.048C275.524 281.592 276.196 281.864 276.996 281.864ZM283.345 283V271.32H284.737V283H283.345Z" fill="#202020"/>
<path d="M55.5369 102.008C55.5369 102.883 55.2489 103.603 54.6729 104.168C54.0969 104.733 53.3502 105.069 52.4329 105.176V106.6H51.4249V105.192C50.5502 105.128 49.8035 104.888 49.1849 104.472C48.5769 104.056 48.1342 103.496 47.8569 102.792L49.1369 102.056C49.4995 103.048 50.2622 103.608 51.4249 103.736V99.864C50.9449 99.6933 50.5555 99.5387 50.2569 99.4C49.9689 99.2507 49.6649 99.0533 49.3449 98.808C49.0249 98.5627 48.7849 98.264 48.6249 97.912C48.4755 97.5493 48.4009 97.1333 48.4009 96.664C48.4009 95.8 48.6889 95.096 49.2649 94.552C49.8409 94.008 50.5609 93.6933 51.4249 93.608V92.2H52.4329V93.624C53.0729 93.7093 53.6435 93.9333 54.1449 94.296C54.6462 94.6587 55.0355 95.1493 55.3129 95.768L54.0649 96.472C53.7555 95.6933 53.2115 95.2293 52.4329 95.08V98.76C52.9235 98.9413 53.3129 99.1013 53.6009 99.24C53.8889 99.3787 54.2035 99.576 54.5449 99.832C54.8862 100.077 55.1369 100.381 55.2969 100.744C55.4569 101.107 55.5369 101.528 55.5369 102.008ZM49.8729 96.664C49.8729 97.0693 49.9955 97.4 50.2409 97.656C50.4862 97.912 50.8809 98.152 51.4249 98.376V95.064C50.9555 95.128 50.5769 95.304 50.2889 95.592C50.0115 95.8693 49.8729 96.2267 49.8729 96.664ZM52.4329 103.704C52.9449 103.629 53.3395 103.443 53.6169 103.144C53.9049 102.835 54.0489 102.461 54.0489 102.024C54.0489 101.587 53.9155 101.24 53.6489 100.984C53.3929 100.717 52.9875 100.467 52.4329 100.232V103.704ZM60.6698 105V103.784L64.6218 99.752C65.6778 98.696 66.2058 97.7893 66.2058 97.032C66.2058 96.4027 66.0138 95.912 65.6298 95.56C65.2458 95.208 64.7764 95.032 64.2218 95.032C63.1658 95.032 62.3978 95.5333 61.9178 96.536L60.6698 95.8C61.0218 95.0747 61.5071 94.5253 62.1258 94.152C62.7551 93.7787 63.4484 93.592 64.2057 93.592C65.1444 93.592 65.9604 93.9013 66.6538 94.52C67.3471 95.1387 67.6938 95.9707 67.6938 97.016C67.6938 98.1467 67.0271 99.3787 65.6938 100.712L62.8298 103.56H67.9018V105H60.6698ZM69.1073 105V103.784L73.0593 99.752C74.1153 98.696 74.6433 97.7893 74.6433 97.032C74.6433 96.4027 74.4513 95.912 74.0673 95.56C73.6833 95.208 73.2139 95.032 72.6593 95.032C71.6033 95.032 70.8353 95.5333 70.3553 96.536L69.1073 95.8C69.4593 95.0747 69.9446 94.5253 70.5633 94.152C71.1926 93.7787 71.8859 93.592 72.6432 93.592C73.5819 93.592 74.3979 93.9013 75.0913 94.52C75.7846 95.1387 76.1313 95.9707 76.1313 97.016C76.1313 98.1467 75.4646 99.3787 74.1313 100.712L71.2673 103.56H76.3393V105H69.1073ZM80.1048 103.352L79.0648 107.24H77.8648L78.5048 103.352H80.1048ZM89.9596 101.48V102.872H88.5996V105H87.1116V102.872H81.3996V101.48L85.4156 93.8H87.0156L82.9996 101.48H87.1116V98.312H88.5996V101.48H89.9596ZM93.0899 93.8H94.3699V105H92.8979V95.4L90.5139 96.104L90.1459 94.824L93.0899 93.8ZM103.849 103.624C103.092 104.68 102.03 105.208 100.665 105.208C99.2997 105.208 98.2383 104.68 97.481 103.624C96.7237 102.568 96.345 101.16 96.345 99.4C96.345 97.64 96.7237 96.232 97.481 95.176C98.2383 94.12 99.2997 93.592 100.665 93.592C102.03 93.592 103.092 94.12 103.849 95.176C104.606 96.232 104.985 97.64 104.985 99.4C104.985 101.16 104.606 102.568 103.849 103.624ZM98.569 102.616C99.0597 103.373 99.7583 103.752 100.665 103.752C101.572 103.752 102.27 103.373 102.761 102.616C103.262 101.859 103.513 100.787 103.513 99.4C103.513 98.0133 103.262 96.9413 102.761 96.184C102.27 95.416 101.572 95.032 100.665 95.032C99.7583 95.032 99.0597 95.4107 98.569 96.168C98.0783 96.9253 97.833 98.0027 97.833 99.4C97.833 100.787 98.0783 101.859 98.569 102.616Z" fill="#666666"/>
<path d="M265.474 129.008C265.474 129.883 265.186 130.603 264.61 131.168C264.034 131.733 263.288 132.069 262.37 132.176V133.6H261.362V132.192C260.488 132.128 259.741 131.888 259.122 131.472C258.514 131.056 258.072 130.496 257.794 129.792L259.074 129.056C259.437 130.048 260.2 130.608 261.362 130.736V126.864C260.882 126.693 260.493 126.539 260.194 126.4C259.906 126.251 259.602 126.053 259.282 125.808C258.962 125.563 258.722 125.264 258.562 124.912C258.413 124.549 258.338 124.133 258.338 123.664C258.338 122.8 258.626 122.096 259.202 121.552C259.778 121.008 260.498 120.693 261.362 120.608V119.2H262.37V120.624C263.01 120.709 263.581 120.933 264.082 121.296C264.584 121.659 264.973 122.149 265.25 122.768L264.002 123.472C263.693 122.693 263.149 122.229 262.37 122.08V125.76C262.861 125.941 263.25 126.101 263.538 126.24C263.826 126.379 264.141 126.576 264.482 126.832C264.824 127.077 265.074 127.381 265.234 127.744C265.394 128.107 265.474 128.528 265.474 129.008ZM259.81 123.664C259.81 124.069 259.933 124.4 260.178 124.656C260.424 124.912 260.818 125.152 261.362 125.376V122.064C260.893 122.128 260.514 122.304 260.226 122.592C259.949 122.869 259.81 123.227 259.81 123.664ZM262.37 130.704C262.882 130.629 263.277 130.443 263.554 130.144C263.842 129.835 263.986 129.461 263.986 129.024C263.986 128.587 263.853 128.24 263.586 127.984C263.33 127.717 262.925 127.467 262.37 127.232V130.704ZM274.351 125.168C275.407 125.168 276.298 125.483 277.023 126.112C277.759 126.731 278.127 127.589 278.127 128.688C278.127 129.776 277.754 130.635 277.007 131.264C276.261 131.893 275.354 132.208 274.287 132.208C273.434 132.208 272.671 132.005 271.999 131.6C271.327 131.184 270.858 130.587 270.591 129.808L271.855 129.088C272.005 129.632 272.293 130.048 272.719 130.336C273.146 130.613 273.669 130.752 274.287 130.752C274.991 130.752 275.562 130.571 275.999 130.208C276.437 129.845 276.655 129.339 276.655 128.688C276.655 128.037 276.437 127.531 275.999 127.168C275.562 126.795 275.002 126.608 274.319 126.608H271.151L271.567 120.8H277.695V122.192H272.911L272.719 125.168H274.351ZM286.661 130.624C285.904 131.68 284.843 132.208 283.478 132.208C282.112 132.208 281.051 131.68 280.294 130.624C279.536 129.568 279.158 128.16 279.158 126.4C279.158 124.64 279.536 123.232 280.294 122.176C281.051 121.12 282.112 120.592 283.478 120.592C284.843 120.592 285.904 121.12 286.661 122.176C287.419 123.232 287.798 124.64 287.798 126.4C287.798 128.16 287.419 129.568 286.661 130.624ZM281.382 129.616C281.872 130.373 282.571 130.752 283.478 130.752C284.384 130.752 285.083 130.373 285.574 129.616C286.075 128.859 286.326 127.787 286.326 126.4C286.326 125.013 286.075 123.941 285.574 123.184C285.083 122.416 284.384 122.032 283.478 122.032C282.571 122.032 281.872 122.411 281.382 123.168C280.891 123.925 280.646 125.003 280.646 126.4C280.646 127.787 280.891 128.859 281.382 129.616ZM291.167 130.352L290.127 134.24H288.927L289.567 130.352H291.167ZM301.022 128.48V129.872H299.662V132H298.174V129.872H292.462V128.48L296.478 120.8H298.078L294.062 128.48H298.174V125.312H299.662V128.48H301.022ZM304.152 120.8H305.432V132H303.96V122.4L301.576 123.104L301.208 121.824L304.152 120.8ZM314.911 130.624C314.154 131.68 313.093 132.208 311.728 132.208C310.362 132.208 309.301 131.68 308.544 130.624C307.786 129.568 307.408 128.16 307.408 126.4C307.408 124.64 307.786 123.232 308.544 122.176C309.301 121.12 310.362 120.592 311.728 120.592C313.093 120.592 314.154 121.12 314.911 122.176C315.669 123.232 316.048 124.64 316.048 126.4C316.048 128.16 315.669 129.568 314.911 130.624ZM309.632 129.616C310.122 130.373 310.821 130.752 311.728 130.752C312.634 130.752 313.333 130.373 313.824 129.616C314.325 128.859 314.576 127.787 314.576 126.4C314.576 125.013 314.325 123.941 313.824 123.184C313.333 122.416 312.634 122.032 311.728 122.032C310.821 122.032 310.122 122.411 309.632 123.168C309.141 123.925 308.896 125.003 308.896 126.4C308.896 127.787 309.141 128.859 309.632 129.616Z" fill="#666666"/>
<path d="M36.6931 211.008C36.6931 211.883 36.4051 212.603 35.8291 213.168C35.2531 213.733 34.5065 214.069 33.5891 214.176V215.6H32.5811V214.192C31.7065 214.128 30.9598 213.888 30.3411 213.472C29.7331 213.056 29.2905 212.496 29.0131 211.792L30.2931 211.056C30.6558 212.048 31.4185 212.608 32.5811 212.736V208.864C32.1011 208.693 31.7118 208.539 31.4131 208.4C31.1251 208.251 30.8211 208.053 30.5011 207.808C30.1811 207.563 29.9411 207.264 29.7811 206.912C29.6318 206.549 29.5571 206.133 29.5571 205.664C29.5571 204.8 29.8451 204.096 30.4211 203.552C30.9971 203.008 31.7171 202.693 32.5811 202.608V201.2H33.5891V202.624C34.2291 202.709 34.7998 202.933 35.3011 203.296C35.8025 203.659 36.1918 204.149 36.4691 204.768L35.2211 205.472C34.9118 204.693 34.3678 204.229 33.5891 204.08V207.76C34.0798 207.941 34.4691 208.101 34.7571 208.24C35.0451 208.379 35.3598 208.576 35.7011 208.832C36.0425 209.077 36.2931 209.381 36.4531 209.744C36.6131 210.107 36.6931 210.528 36.6931 211.008ZM31.0291 205.664C31.0291 206.069 31.1518 206.4 31.3971 206.656C31.6425 206.912 32.0371 207.152 32.5811 207.376V204.064C32.1118 204.128 31.7331 204.304 31.4451 204.592C31.1678 204.869 31.0291 205.227 31.0291 205.664ZM33.5891 212.704C34.1011 212.629 34.4958 212.443 34.7731 212.144C35.0611 211.835 35.2051 211.461 35.2051 211.024C35.2051 210.587 35.0718 210.24 34.8051 209.984C34.5491 209.717 34.1438 209.467 33.5891 209.232V212.704ZM41.826 214V212.784L45.778 208.752C46.834 207.696 47.362 206.789 47.362 206.032C47.362 205.403 47.17 204.912 46.786 204.56C46.402 204.208 45.9327 204.032 45.378 204.032C44.322 204.032 43.554 204.533 43.074 205.536L41.826 204.8C42.178 204.075 42.6633 203.525 43.282 203.152C43.9113 202.779 44.6047 202.592 45.362 202.592C46.3007 202.592 47.1167 202.901 47.81 203.52C48.5033 204.139 48.85 204.971 48.85 206.016C48.85 207.147 48.1833 208.379 46.85 209.712L43.986 212.56H49.058V214H41.826ZM49.663 202.8H56.655V204.128L52.575 214H51.023L55.071 204.208H49.663V202.8ZM57.9485 212.352L56.9085 216.24H55.7085L56.3485 212.352H57.9485ZM67.8034 210.48V211.872H66.4434V214H64.9554V211.872H59.2434V210.48L63.2594 202.8H64.8594L60.8434 210.48H64.9554V207.312H66.4434V210.48H67.8034ZM70.9336 202.8H72.2136V214H70.7416V204.4L68.3576 205.104L67.9896 203.824L70.9336 202.8ZM81.6927 212.624C80.9354 213.68 79.8741 214.208 78.5088 214.208C77.1434 214.208 76.0821 213.68 75.3248 212.624C74.5674 211.568 74.1888 210.16 74.1888 208.4C74.1888 206.64 74.5674 205.232 75.3248 204.176C76.0821 203.12 77.1434 202.592 78.5088 202.592C79.8741 202.592 80.9354 203.12 81.6927 204.176C82.4501 205.232 82.8288 206.64 82.8288 208.4C82.8288 210.16 82.4501 211.568 81.6927 212.624ZM76.4128 211.616C76.9034 212.373 77.6021 212.752 78.5088 212.752C79.4154 212.752 80.1141 212.373 80.6048 211.616C81.1061 210.859 81.3568 209.787 81.3568 208.4C81.3568 207.013 81.1061 205.941 80.6048 205.184C80.1141 204.416 79.4154 204.032 78.5088 204.032C77.6021 204.032 76.9034 204.411 76.4128 205.168C75.9221 205.925 75.6768 207.003 75.6768 208.4C75.6768 209.787 75.9221 210.859 76.4128 211.616Z" fill="#666666"/>
<path d="M139.5 133L119 100H109.5" stroke="#D9DBE0" stroke-width="2"/>
<path d="M217 154.926L246.137 126.207L255.652 128.62" stroke="#D9DBE0" stroke-width="2"/>
<path d="M132.347 193.5L96.5015 213.219L88 208.311" stroke="#D9DBE0" stroke-width="2"/>
<path opacity="0.9" d="M59.5333 58L55.9813 51.88H52.7173V58H49.9573V41.2H56.6773C58.1813 41.2 59.4533 41.728 60.4933 42.784C61.5493 43.824 62.0773 45.096 62.0773 46.6C62.0773 47.672 61.7653 48.656 61.1413 49.552C60.5333 50.432 59.7333 51.072 58.7413 51.472L62.5573 58H59.5333ZM52.7173 43.792V49.408H56.6773C57.4133 49.408 58.0373 49.136 58.5493 48.592C59.0613 48.048 59.3173 47.384 59.3173 46.6C59.3173 45.816 59.0613 45.152 58.5493 44.608C58.0373 44.064 57.4133 43.792 56.6773 43.792H52.7173ZM65.9153 53.104C66.1073 54.016 66.5473 54.72 67.2353 55.216C67.9233 55.696 68.7633 55.936 69.7553 55.936C71.1313 55.936 72.1633 55.44 72.8513 54.448L74.9873 55.696C73.8033 57.44 72.0513 58.312 69.7313 58.312C67.7793 58.312 66.2033 57.72 65.0033 56.536C63.8033 55.336 63.2033 53.824 63.2033 52C63.2033 50.208 63.7953 48.712 64.9793 47.512C66.1633 46.296 67.6833 45.688 69.5393 45.688C71.2993 45.688 72.7393 46.304 73.8593 47.536C74.9953 48.768 75.5633 50.264 75.5633 52.024C75.5633 52.296 75.5313 52.656 75.4673 53.104H65.9153ZM65.8913 50.992H72.9473C72.7713 50.016 72.3633 49.28 71.7233 48.784C71.0993 48.288 70.3633 48.04 69.5153 48.04C68.5553 48.04 67.7553 48.304 67.1153 48.832C66.4753 49.36 66.0673 50.08 65.8913 50.992ZM85.5113 46H88.3433L83.6633 58H80.6633L75.9833 46H78.8153L82.1753 55.12L85.5113 46ZM91.5559 53.104C91.7479 54.016 92.1879 54.72 92.8759 55.216C93.5639 55.696 94.4039 55.936 95.3959 55.936C96.7719 55.936 97.8039 55.44 98.4919 54.448L100.628 55.696C99.4439 57.44 97.6919 58.312 95.3719 58.312C93.4199 58.312 91.8439 57.72 90.6439 56.536C89.4439 55.336 88.8439 53.824 88.8439 52C88.8439 50.208 89.4359 48.712 90.6199 47.512C91.8039 46.296 93.3239 45.688 95.1799 45.688C96.9399 45.688 98.3799 46.304 99.4999 47.536C100.636 48.768 101.204 50.264 101.204 52.024C101.204 52.296 101.172 52.656 101.108 53.104H91.5559ZM91.5319 50.992H98.5879C98.4119 50.016 98.0039 49.28 97.3639 48.784C96.7399 48.288 96.0039 48.04 95.1559 48.04C94.1959 48.04 93.3959 48.304 92.7559 48.832C92.1159 49.36 91.7079 50.08 91.5319 50.992ZM109.797 45.688C111.173 45.688 112.285 46.128 113.133 47.008C113.981 47.888 114.405 49.096 114.405 50.632V58H111.813V50.896C111.813 50 111.573 49.312 111.093 48.832C110.613 48.352 109.957 48.112 109.125 48.112C108.213 48.112 107.477 48.4 106.917 48.976C106.357 49.536 106.077 50.4 106.077 51.568V58H103.485V46H106.077V47.536C106.861 46.304 108.101 45.688 109.797 45.688ZM125.284 46H127.876V58H125.284V56.464C124.5 57.696 123.26 58.312 121.564 58.312C120.188 58.312 119.076 57.872 118.228 56.992C117.38 56.112 116.956 54.904 116.956 53.368V46H119.548V53.104C119.548 54 119.788 54.688 120.268 55.168C120.748 55.648 121.404 55.888 122.236 55.888C123.148 55.888 123.884 55.608 124.444 55.048C125.004 54.472 125.284 53.6 125.284 52.432V46ZM132.947 53.104C133.139 54.016 133.579 54.72 134.267 55.216C134.955 55.696 135.795 55.936 136.787 55.936C138.163 55.936 139.195 55.44 139.883 54.448L142.019 55.696C140.835 57.44 139.083 58.312 136.763 58.312C134.811 58.312 133.235 57.72 132.035 56.536C130.835 55.336 130.235 53.824 130.235 52C130.235 50.208 130.827 48.712 132.011 47.512C133.195 46.296 134.715 45.688 136.571 45.688C138.331 45.688 139.771 46.304 140.891 47.536C142.027 48.768 142.595 50.264 142.595 52.024C142.595 52.296 142.563 52.656 142.499 53.104H132.947ZM132.923 50.992H139.979C139.803 50.016 139.395 49.28 138.755 48.784C138.131 48.288 137.395 48.04 136.547 48.04C135.587 48.04 134.787 48.304 134.147 48.832C133.507 49.36 133.099 50.08 132.923 50.992ZM153.203 49.312C153.203 49.712 153.419 50.032 153.851 50.272C154.299 50.496 154.835 50.696 155.459 50.872C156.099 51.032 156.739 51.224 157.379 51.448C158.019 51.672 158.555 52.056 158.987 52.6C159.435 53.128 159.659 53.8 159.659 54.616C159.659 55.768 159.211 56.672 158.315 57.328C157.435 57.984 156.323 58.312 154.979 58.312C153.795 58.312 152.779 58.064 151.931 57.568C151.083 57.072 150.467 56.384 150.083 55.504L152.315 54.208C152.731 55.36 153.619 55.936 154.979 55.936C156.339 55.936 157.019 55.488 157.019 54.592C157.019 54.208 156.795 53.896 156.347 53.656C155.915 53.416 155.379 53.216 154.739 53.056C154.115 52.88 153.483 52.68 152.843 52.456C152.203 52.232 151.659 51.864 151.211 51.352C150.779 50.824 150.563 50.16 150.563 49.36C150.563 48.256 150.979 47.368 151.811 46.696C152.659 46.024 153.707 45.688 154.955 45.688C155.947 45.688 156.827 45.912 157.595 46.36C158.379 46.792 158.979 47.4 159.395 48.184L157.211 49.408C156.795 48.496 156.043 48.04 154.955 48.04C154.459 48.04 154.043 48.152 153.707 48.376C153.371 48.584 153.203 48.896 153.203 49.312ZM168.109 45.688C169.485 45.688 170.597 46.128 171.445 47.008C172.293 47.888 172.717 49.096 172.717 50.632V58H170.125V50.896C170.125 50 169.885 49.312 169.405 48.832C168.925 48.352 168.269 48.112 167.437 48.112C166.525 48.112 165.789 48.4 165.229 48.976C164.669 49.536 164.389 50.4 164.389 51.568V58H161.797V41.2H164.389V47.536C165.173 46.304 166.413 45.688 168.109 45.688ZM185.012 46H187.604V58H185.012V56.272C184.036 57.632 182.636 58.312 180.812 58.312C179.164 58.312 177.756 57.704 176.588 56.488C175.42 55.256 174.836 53.76 174.836 52C174.836 50.224 175.42 48.728 176.588 47.512C177.756 46.296 179.164 45.688 180.812 45.688C182.636 45.688 184.036 46.36 185.012 47.704V46ZM178.508 54.76C179.228 55.48 180.132 55.84 181.22 55.84C182.308 55.84 183.212 55.48 183.932 54.76C184.652 54.024 185.012 53.104 185.012 52C185.012 50.896 184.652 49.984 183.932 49.264C183.212 48.528 182.308 48.16 181.22 48.16C180.132 48.16 179.228 48.528 178.508 49.264C177.788 49.984 177.428 50.896 177.428 52C177.428 53.104 177.788 54.024 178.508 54.76ZM193.217 48.016C193.873 46.528 195.105 45.784 196.913 45.784V48.592C195.921 48.528 195.057 48.768 194.321 49.312C193.585 49.84 193.217 50.72 193.217 51.952V58H190.625V46H193.217V48.016ZM200.306 53.104C200.498 54.016 200.938 54.72 201.626 55.216C202.314 55.696 203.154 55.936 204.146 55.936C205.522 55.936 206.554 55.44 207.242 54.448L209.378 55.696C208.194 57.44 206.442 58.312 204.122 58.312C202.17 58.312 200.594 57.72 199.394 56.536C198.194 55.336 197.594 53.824 197.594 52C197.594 50.208 198.186 48.712 199.37 47.512C200.554 46.296 202.074 45.688 203.93 45.688C205.69 45.688 207.13 46.304 208.25 47.536C209.386 48.768 209.954 50.264 209.954 52.024C209.954 52.296 209.922 52.656 209.858 53.104H200.306ZM200.282 50.992H207.338C207.162 50.016 206.754 49.28 206.114 48.784C205.49 48.288 204.754 48.04 203.906 48.04C202.946 48.04 202.146 48.304 201.506 48.832C200.866 49.36 200.458 50.08 200.282 50.992Z" fill="#202020"/>
<circle cx="171.5" cy="176.5" r="41.5" stroke="url(#paint0_angular_1551_298)" stroke-width="22"/>
<rect x="68" y="275" width="8" height="8" fill="#4275AC"/>
<rect x="140" y="275" width="8" height="8" fill="#FCAB32"/>
<rect x="218" y="275" width="8" height="8" fill="#EC4838"/>
<defs>
<radialGradient id="paint0_angular_1551_298" cx="0" cy="0" r="1" gradientUnits="userSpaceOnUse" gradientTransform="translate(171.5 176.5) rotate(90) scale(52.5)">
<stop stop-color="#FFBA31"/>
<stop offset="0.50455" stop-color="#EB4338"/>
<stop offset="1" stop-color="#337AB7"/>
</radialGradient>
</defs>
</svg>
