<svg width="712" height="315" viewBox="0 0 712 315" fill="none" xmlns="http://www.w3.org/2000/svg">
<rect width="712" height="315" rx="31" fill="white"/>
<path opacity="0.9" d="M40.5298 59.312C38.9138 59.312 37.5378 58.944 36.4018 58.208C35.2818 57.472 34.4978 56.464 34.0498 55.184L36.4258 53.792C37.0978 55.68 38.4898 56.624 40.6018 56.624C41.6418 56.624 42.4178 56.424 42.9298 56.024C43.4578 55.608 43.7218 55.072 43.7218 54.416C43.7218 53.728 43.4418 53.208 42.8818 52.856C42.3218 52.488 41.3298 52.088 39.9058 51.656C39.1058 51.416 38.4578 51.192 37.9618 50.984C37.4658 50.776 36.9378 50.488 36.3778 50.12C35.8338 49.736 35.4258 49.264 35.1538 48.704C34.8818 48.144 34.7458 47.488 34.7458 46.736C34.7458 45.248 35.2738 44.072 36.3298 43.208C37.3858 42.328 38.6578 41.888 40.1458 41.888C41.4898 41.888 42.6658 42.216 43.6738 42.872C44.6818 43.528 45.4578 44.432 46.0018 45.584L43.6738 46.928C42.9698 45.36 41.7938 44.576 40.1458 44.576C39.3458 44.576 38.7058 44.768 38.2258 45.152C37.7458 45.52 37.5058 46.024 37.5058 46.664C37.5058 47.288 37.7458 47.784 38.2258 48.152C38.7218 48.504 39.6098 48.88 40.8898 49.28C41.5298 49.488 41.9938 49.648 42.2818 49.76C42.5858 49.856 43.0018 50.016 43.5298 50.24C44.0738 50.464 44.4818 50.688 44.7538 50.912C45.0258 51.136 45.3138 51.416 45.6178 51.752C45.9378 52.088 46.1618 52.472 46.2898 52.904C46.4178 53.336 46.4818 53.824 46.4818 54.368C46.4818 55.888 45.9298 57.096 44.8258 57.992C43.7378 58.872 42.3058 59.312 40.5298 59.312ZM58.5238 47H61.1158V59H58.5238V57.272C57.5478 58.632 56.1478 59.312 54.3238 59.312C52.6758 59.312 51.2678 58.704 50.0998 57.488C48.9318 56.256 48.3478 54.76 48.3478 53C48.3478 51.224 48.9318 49.728 50.0998 48.512C51.2678 47.296 52.6758 46.688 54.3238 46.688C56.1478 46.688 57.5478 47.36 58.5238 48.704V47ZM52.0198 55.76C52.7398 56.48 53.6438 56.84 54.7318 56.84C55.8198 56.84 56.7238 56.48 57.4438 55.76C58.1638 55.024 58.5238 54.104 58.5238 53C58.5238 51.896 58.1638 50.984 57.4438 50.264C56.7238 49.528 55.8198 49.16 54.7318 49.16C53.6438 49.16 52.7398 49.528 52.0198 50.264C51.2998 50.984 50.9398 51.896 50.9398 53C50.9398 54.104 51.2998 55.024 52.0198 55.76ZM64.137 59V41.48H66.729V59H64.137ZM71.7786 54.104C71.9706 55.016 72.4106 55.72 73.0986 56.216C73.7866 56.696 74.6266 56.936 75.6186 56.936C76.9946 56.936 78.0266 56.44 78.7146 55.448L80.8506 56.696C79.6666 58.44 77.9146 59.312 75.5946 59.312C73.6426 59.312 72.0666 58.72 70.8666 57.536C69.6666 56.336 69.0666 54.824 69.0666 53C69.0666 51.208 69.6586 49.712 70.8426 48.512C72.0266 47.296 73.5466 46.688 75.4026 46.688C77.1626 46.688 78.6026 47.304 79.7226 48.536C80.8586 49.768 81.4266 51.264 81.4266 53.024C81.4266 53.296 81.3946 53.656 81.3306 54.104H71.7786ZM71.7546 51.992H78.8106C78.6346 51.016 78.2266 50.28 77.5866 49.784C76.9626 49.288 76.2266 49.04 75.3786 49.04C74.4186 49.04 73.6186 49.304 72.9786 49.832C72.3386 50.36 71.9306 51.08 71.7546 51.992ZM85.5666 50.312C85.5666 50.712 85.7826 51.032 86.2146 51.272C86.6626 51.496 87.1986 51.696 87.8226 51.872C88.4626 52.032 89.1026 52.224 89.7426 52.448C90.3826 52.672 90.9186 53.056 91.3506 53.6C91.7986 54.128 92.0226 54.8 92.0226 55.616C92.0226 56.768 91.5746 57.672 90.6786 58.328C89.7986 58.984 88.6866 59.312 87.3426 59.312C86.1586 59.312 85.1426 59.064 84.2946 58.568C83.4466 58.072 82.8306 57.384 82.4466 56.504L84.6786 55.208C85.0946 56.36 85.9826 56.936 87.3426 56.936C88.7026 56.936 89.3826 56.488 89.3826 55.592C89.3826 55.208 89.1586 54.896 88.7106 54.656C88.2786 54.416 87.7426 54.216 87.1026 54.056C86.4786 53.88 85.8466 53.68 85.2066 53.456C84.5666 53.232 84.0226 52.864 83.5746 52.352C83.1426 51.824 82.9266 51.16 82.9266 50.36C82.9266 49.256 83.3426 48.368 84.1746 47.696C85.0226 47.024 86.0706 46.688 87.3186 46.688C88.3106 46.688 89.1906 46.912 89.9586 47.36C90.7426 47.792 91.3426 48.4 91.7586 49.184L89.5746 50.408C89.1586 49.496 88.4066 49.04 87.3186 49.04C86.8226 49.04 86.4066 49.152 86.0706 49.376C85.7346 49.584 85.5666 49.896 85.5666 50.312ZM102.893 49.016C103.549 47.528 104.781 46.784 106.589 46.784V49.592C105.597 49.528 104.733 49.768 103.997 50.312C103.261 50.84 102.893 51.72 102.893 52.952V59H100.301V47H102.893V49.016ZM109.982 54.104C110.174 55.016 110.614 55.72 111.302 56.216C111.99 56.696 112.83 56.936 113.822 56.936C115.198 56.936 116.23 56.44 116.918 55.448L119.054 56.696C117.87 58.44 116.118 59.312 113.798 59.312C111.846 59.312 110.27 58.72 109.07 57.536C107.87 56.336 107.27 54.824 107.27 53C107.27 51.208 107.862 49.712 109.046 48.512C110.23 47.296 111.75 46.688 113.606 46.688C115.366 46.688 116.806 47.304 117.926 48.536C119.062 49.768 119.63 51.264 119.63 53.024C119.63 53.296 119.598 53.656 119.534 54.104H109.982ZM109.958 51.992H117.014C116.838 51.016 116.43 50.28 115.79 49.784C115.166 49.288 114.43 49.04 113.582 49.04C112.622 49.04 111.822 49.304 111.182 49.832C110.542 50.36 110.134 51.08 109.958 51.992ZM128.702 46.688C130.35 46.688 131.758 47.304 132.926 48.536C134.094 49.752 134.678 51.24 134.678 53C134.678 54.776 134.094 56.272 132.926 57.488C131.758 58.704 130.35 59.312 128.702 59.312C126.878 59.312 125.478 58.64 124.502 57.296V63.8H121.91V47H124.502V48.728C125.478 47.368 126.878 46.688 128.702 46.688ZM125.582 55.76C126.302 56.48 127.206 56.84 128.294 56.84C129.382 56.84 130.286 56.48 131.006 55.76C131.726 55.024 132.086 54.104 132.086 53C132.086 51.896 131.726 50.984 131.006 50.264C130.286 49.528 129.382 49.16 128.294 49.16C127.206 49.16 126.302 49.528 125.582 50.264C124.862 50.984 124.502 51.896 124.502 53C124.502 54.104 124.862 55.024 125.582 55.76ZM139.121 50.312C139.121 50.712 139.337 51.032 139.769 51.272C140.217 51.496 140.753 51.696 141.377 51.872C142.017 52.032 142.657 52.224 143.297 52.448C143.937 52.672 144.473 53.056 144.905 53.6C145.353 54.128 145.577 54.8 145.577 55.616C145.577 56.768 145.129 57.672 144.233 58.328C143.353 58.984 142.241 59.312 140.897 59.312C139.713 59.312 138.697 59.064 137.849 58.568C137.001 58.072 136.385 57.384 136.001 56.504L138.233 55.208C138.649 56.36 139.537 56.936 140.897 56.936C142.257 56.936 142.937 56.488 142.937 55.592C142.937 55.208 142.713 54.896 142.265 54.656C141.833 54.416 141.297 54.216 140.657 54.056C140.033 53.88 139.401 53.68 138.761 53.456C138.121 53.232 137.577 52.864 137.129 52.352C136.697 51.824 136.481 51.16 136.481 50.36C136.481 49.256 136.897 48.368 137.729 47.696C138.577 47.024 139.625 46.688 140.873 46.688C141.865 46.688 142.745 46.912 143.513 47.36C144.297 47.792 144.897 48.4 145.313 49.184L143.129 50.408C142.713 49.496 141.961 49.04 140.873 49.04C140.377 49.04 139.961 49.152 139.625 49.376C139.289 49.584 139.121 49.896 139.121 50.312ZM156.304 44.72C155.984 45.04 155.6 45.2 155.152 45.2C154.704 45.2 154.312 45.04 153.976 44.72C153.656 44.384 153.496 43.992 153.496 43.544C153.496 43.096 153.656 42.712 153.976 42.392C154.296 42.056 154.688 41.888 155.152 41.888C155.616 41.888 156.008 42.056 156.328 42.392C156.648 42.712 156.808 43.096 156.808 43.544C156.808 43.992 156.64 44.384 156.304 44.72ZM153.856 59V47H156.448V59H153.856ZM165.769 46.688C167.145 46.688 168.257 47.128 169.105 48.008C169.953 48.888 170.377 50.096 170.377 51.632V59H167.785V51.896C167.785 51 167.545 50.312 167.065 49.832C166.585 49.352 165.929 49.112 165.097 49.112C164.185 49.112 163.449 49.4 162.889 49.976C162.329 50.536 162.049 51.4 162.049 52.568V59H159.457V47H162.049V48.536C162.833 47.304 164.073 46.688 165.769 46.688ZM182.672 42.2H185.264V59H182.672V57.272C181.696 58.632 180.296 59.312 178.472 59.312C176.824 59.312 175.416 58.704 174.248 57.488C173.08 56.256 172.496 54.76 172.496 53C172.496 51.224 173.08 49.728 174.248 48.512C175.416 47.296 176.824 46.688 178.472 46.688C180.296 46.688 181.696 47.36 182.672 48.704V42.2ZM176.168 55.76C176.888 56.48 177.792 56.84 178.88 56.84C179.968 56.84 180.872 56.48 181.592 55.76C182.312 55.024 182.672 54.104 182.672 53C182.672 51.896 182.312 50.984 181.592 50.264C180.872 49.528 179.968 49.16 178.88 49.16C177.792 49.16 176.888 49.528 176.168 50.264C175.448 50.984 175.088 51.896 175.088 53C175.088 54.104 175.448 55.024 176.168 55.76ZM190.733 44.72C190.413 45.04 190.029 45.2 189.581 45.2C189.133 45.2 188.741 45.04 188.405 44.72C188.085 44.384 187.925 43.992 187.925 43.544C187.925 43.096 188.085 42.712 188.405 42.392C188.725 42.056 189.117 41.888 189.581 41.888C190.045 41.888 190.437 42.056 190.757 42.392C191.077 42.712 191.237 43.096 191.237 43.544C191.237 43.992 191.069 44.384 190.733 44.72ZM188.285 59V47H190.877V59H188.285ZM202.023 47H204.855L200.175 59H197.175L192.495 47H195.327L198.687 56.12L202.023 47ZM208.944 44.72C208.624 45.04 208.24 45.2 207.792 45.2C207.344 45.2 206.952 45.04 206.616 44.72C206.296 44.384 206.136 43.992 206.136 43.544C206.136 43.096 206.296 42.712 206.616 42.392C206.936 42.056 207.328 41.888 207.792 41.888C208.256 41.888 208.648 42.056 208.968 42.392C209.288 42.712 209.448 43.096 209.448 43.544C209.448 43.992 209.28 44.384 208.944 44.72ZM206.496 59V47H209.088V59H206.496ZM221.602 42.2H224.194V59H221.602V57.272C220.626 58.632 219.226 59.312 217.402 59.312C215.754 59.312 214.346 58.704 213.178 57.488C212.01 56.256 211.426 54.76 211.426 53C211.426 51.224 212.01 49.728 213.178 48.512C214.346 47.296 215.754 46.688 217.402 46.688C219.226 46.688 220.626 47.36 221.602 48.704V42.2ZM215.098 55.76C215.818 56.48 216.722 56.84 217.81 56.84C218.898 56.84 219.802 56.48 220.522 55.76C221.242 55.024 221.602 54.104 221.602 53C221.602 51.896 221.242 50.984 220.522 50.264C219.802 49.528 218.898 49.16 217.81 49.16C216.722 49.16 215.818 49.528 215.098 50.264C214.378 50.984 214.018 51.896 214.018 53C214.018 54.104 214.378 55.024 215.098 55.76ZM235.303 47H237.895V59H235.303V57.464C234.519 58.696 233.279 59.312 231.583 59.312C230.207 59.312 229.095 58.872 228.247 57.992C227.399 57.112 226.975 55.904 226.975 54.368V47H229.567V54.104C229.567 55 229.807 55.688 230.287 56.168C230.767 56.648 231.423 56.888 232.255 56.888C233.167 56.888 233.903 56.608 234.463 56.048C235.023 55.472 235.303 54.6 235.303 53.432V47ZM250.43 47H253.022V59H250.43V57.272C249.454 58.632 248.054 59.312 246.23 59.312C244.582 59.312 243.174 58.704 242.006 57.488C240.838 56.256 240.254 54.76 240.254 53C240.254 51.224 240.838 49.728 242.006 48.512C243.174 47.296 244.582 46.688 246.23 46.688C248.054 46.688 249.454 47.36 250.43 48.704V47ZM243.926 55.76C244.646 56.48 245.55 56.84 246.638 56.84C247.726 56.84 248.63 56.48 249.35 55.76C250.07 55.024 250.43 54.104 250.43 53C250.43 51.896 250.07 50.984 249.35 50.264C248.63 49.528 247.726 49.16 246.638 49.16C245.55 49.16 244.646 49.528 243.926 50.264C243.206 50.984 242.846 51.896 242.846 53C242.846 54.104 243.206 55.024 243.926 55.76ZM256.043 59V41.48H258.635V59H256.043ZM274.341 49.496H271.365V55.256C271.365 55.752 271.477 56.112 271.701 56.336C271.925 56.544 272.253 56.664 272.685 56.696C273.133 56.712 273.685 56.704 274.341 56.672V59C272.357 59.24 270.933 59.072 270.069 58.496C269.205 57.904 268.773 56.824 268.773 55.256V49.496H266.565V47H268.773V44.408L271.365 43.64V47H274.341V49.496ZM285.704 47H288.296V59H285.704V57.272C284.728 58.632 283.328 59.312 281.504 59.312C279.856 59.312 278.448 58.704 277.28 57.488C276.112 56.256 275.528 54.76 275.528 53C275.528 51.224 276.112 49.728 277.28 48.512C278.448 47.296 279.856 46.688 281.504 46.688C283.328 46.688 284.728 47.36 285.704 48.704V47ZM279.2 55.76C279.92 56.48 280.824 56.84 281.912 56.84C283 56.84 283.904 56.48 284.624 55.76C285.344 55.024 285.704 54.104 285.704 53C285.704 51.896 285.344 50.984 284.624 50.264C283.904 49.528 283 49.16 281.912 49.16C280.824 49.16 279.92 49.528 279.2 50.264C278.48 50.984 278.12 51.896 278.12 53C278.12 54.104 278.48 55.024 279.2 55.76ZM293.909 49.016C294.565 47.528 295.797 46.784 297.605 46.784V49.592C296.613 49.528 295.749 49.768 295.013 50.312C294.277 50.84 293.909 51.72 293.909 52.952V59H291.317V47H293.909V49.016ZM308.509 47H311.053V58.448C311.053 60.272 310.453 61.672 309.253 62.648C308.053 63.624 306.597 64.112 304.885 64.112C302.117 64.112 300.221 63.144 299.197 61.208L301.429 59.912C302.053 61.144 303.221 61.76 304.933 61.76C306.053 61.76 306.925 61.464 307.549 60.872C308.189 60.296 308.509 59.488 308.509 58.448V56.984C307.533 58.376 306.141 59.072 304.333 59.072C302.637 59.072 301.205 58.472 300.037 57.272C298.869 56.056 298.285 54.592 298.285 52.88C298.285 51.168 298.869 49.712 300.037 48.512C301.205 47.296 302.637 46.688 304.333 46.688C306.141 46.688 307.533 47.384 308.509 48.776V47ZM301.957 55.568C302.693 56.288 303.605 56.648 304.693 56.648C305.781 56.648 306.685 56.288 307.405 55.568C308.141 54.848 308.509 53.952 308.509 52.88C308.509 51.808 308.141 50.912 307.405 50.192C306.685 49.472 305.781 49.112 304.693 49.112C303.605 49.112 302.693 49.472 301.957 50.192C301.237 50.912 300.877 51.808 300.877 52.88C300.877 53.952 301.237 54.848 301.957 55.568ZM316.115 54.104C316.307 55.016 316.747 55.72 317.435 56.216C318.123 56.696 318.963 56.936 319.955 56.936C321.331 56.936 322.363 56.44 323.051 55.448L325.187 56.696C324.003 58.44 322.251 59.312 319.931 59.312C317.979 59.312 316.403 58.72 315.203 57.536C314.003 56.336 313.403 54.824 313.403 53C313.403 51.208 313.995 49.712 315.179 48.512C316.363 47.296 317.883 46.688 319.739 46.688C321.499 46.688 322.939 47.304 324.059 48.536C325.195 49.768 325.763 51.264 325.763 53.024C325.763 53.296 325.731 53.656 325.667 54.104H316.115ZM316.09 51.992H323.147C322.971 51.016 322.563 50.28 321.923 49.784C321.299 49.288 320.563 49.04 319.715 49.04C318.755 49.04 317.955 49.304 317.315 49.832C316.675 50.36 316.267 51.08 316.09 51.992ZM334.364 49.496H331.388V55.256C331.388 55.752 331.5 56.112 331.724 56.336C331.948 56.544 332.276 56.664 332.708 56.696C333.156 56.712 333.708 56.704 334.364 56.672V59C332.38 59.24 330.956 59.072 330.092 58.496C329.228 57.904 328.796 56.824 328.796 55.256V49.496H326.588V47H328.796V44.408L331.388 43.64V47H334.364V49.496ZM349.528 49.496H346.552V55.256C346.552 55.752 346.664 56.112 346.888 56.336C347.112 56.544 347.44 56.664 347.872 56.696C348.32 56.712 348.872 56.704 349.528 56.672V59C347.544 59.24 346.12 59.072 345.256 58.496C344.392 57.904 343.96 56.824 343.96 55.256V49.496H341.752V47H343.96V44.408L346.552 43.64V47H349.528V49.496ZM354.588 49.016C355.244 47.528 356.476 46.784 358.284 46.784V49.592C357.292 49.528 356.428 49.768 355.692 50.312C354.956 50.84 354.588 51.72 354.588 52.952V59H351.996V47H354.588V49.016ZM369.141 47H371.733V59H369.141V57.272C368.165 58.632 366.765 59.312 364.941 59.312C363.293 59.312 361.885 58.704 360.717 57.488C359.549 56.256 358.965 54.76 358.965 53C358.965 51.224 359.549 49.728 360.717 48.512C361.885 47.296 363.293 46.688 364.941 46.688C366.765 46.688 368.165 47.36 369.141 48.704V47ZM362.637 55.76C363.357 56.48 364.261 56.84 365.349 56.84C366.437 56.84 367.341 56.48 368.061 55.76C368.781 55.024 369.141 54.104 369.141 53C369.141 51.896 368.781 50.984 368.061 50.264C367.341 49.528 366.437 49.16 365.349 49.16C364.261 49.16 363.357 49.528 362.637 50.264C361.917 50.984 361.557 51.896 361.557 53C361.557 54.104 361.917 55.024 362.637 55.76ZM380.418 59.312C378.61 59.312 377.098 58.704 375.882 57.488C374.682 56.272 374.082 54.776 374.082 53C374.082 51.208 374.682 49.712 375.882 48.512C377.098 47.296 378.61 46.688 380.418 46.688C381.586 46.688 382.65 46.968 383.61 47.528C384.57 48.088 385.29 48.84 385.77 49.784L383.538 51.08C383.266 50.504 382.85 50.056 382.29 49.736C381.746 49.4 381.114 49.232 380.394 49.232C379.338 49.232 378.45 49.592 377.73 50.312C377.026 51.032 376.674 51.928 376.674 53C376.674 54.072 377.026 54.968 377.73 55.688C378.45 56.408 379.338 56.768 380.394 56.768C381.098 56.768 381.73 56.6 382.29 56.264C382.866 55.928 383.298 55.48 383.586 54.92L385.818 56.192C385.306 57.152 384.57 57.912 383.61 58.472C382.65 59.032 381.586 59.312 380.418 59.312ZM398.3 59H395.204L390.284 53.456V59H387.692V42.2H390.284V52.304L394.94 47H398.108L392.828 52.88L398.3 59ZM401.122 54.104C401.314 55.016 401.754 55.72 402.442 56.216C403.13 56.696 403.97 56.936 404.962 56.936C406.338 56.936 407.37 56.44 408.058 55.448L410.194 56.696C409.01 58.44 407.258 59.312 404.938 59.312C402.986 59.312 401.41 58.72 400.21 57.536C399.01 56.336 398.41 54.824 398.41 53C398.41 51.208 399.002 49.712 400.186 48.512C401.37 47.296 402.89 46.688 404.746 46.688C406.506 46.688 407.946 47.304 409.066 48.536C410.202 49.768 410.77 51.264 410.77 53.024C410.77 53.296 410.738 53.656 410.674 54.104H401.122ZM401.098 51.992H408.154C407.978 51.016 407.57 50.28 406.93 49.784C406.306 49.288 405.57 49.04 404.722 49.04C403.762 49.04 402.962 49.304 402.322 49.832C401.682 50.36 401.274 51.08 401.098 51.992ZM415.643 49.016C416.299 47.528 417.531 46.784 419.339 46.784V49.592C418.347 49.528 417.483 49.768 416.747 50.312C416.011 50.84 415.643 51.72 415.643 52.952V59H413.051V47H415.643V49.016Z" fill="#202020"/>
<rect x="115" y="104" width="533" height="47" fill="#D9D9D9"/>
<rect x="30" y="104" width="395" height="47" fill="#085881"/>
<path d="M326.679 132.26C326.679 133.353 326.319 134.253 325.599 134.96C324.879 135.667 323.946 136.087 322.799 136.22V138H321.539V136.24C320.446 136.16 319.512 135.86 318.739 135.34C317.979 134.82 317.426 134.12 317.079 133.24L318.679 132.32C319.132 133.56 320.086 134.26 321.539 134.42V129.58C320.939 129.367 320.452 129.173 320.079 129C319.719 128.813 319.339 128.567 318.939 128.26C318.539 127.953 318.239 127.58 318.039 127.14C317.852 126.687 317.759 126.167 317.759 125.58C317.759 124.5 318.119 123.62 318.839 122.94C319.559 122.26 320.459 121.867 321.539 121.76V120H322.799V121.78C323.599 121.887 324.312 122.167 324.939 122.62C325.566 123.073 326.052 123.687 326.399 124.46L324.839 125.34C324.452 124.367 323.772 123.787 322.799 123.6V128.2C323.412 128.427 323.899 128.627 324.259 128.8C324.619 128.973 325.012 129.22 325.439 129.54C325.866 129.847 326.179 130.227 326.379 130.68C326.579 131.133 326.679 131.66 326.679 132.26ZM319.599 125.58C319.599 126.087 319.752 126.5 320.059 126.82C320.366 127.14 320.859 127.44 321.539 127.72V123.58C320.952 123.66 320.479 123.88 320.119 124.24C319.772 124.587 319.599 125.033 319.599 125.58ZM322.799 134.38C323.439 134.287 323.932 134.053 324.279 133.68C324.639 133.293 324.819 132.827 324.819 132.28C324.819 131.733 324.652 131.3 324.319 130.98C323.999 130.647 323.492 130.333 322.799 130.04V134.38ZM343.555 131.6V133.34H341.855V136H339.995V133.34H332.855V131.6L337.875 122H339.875L334.855 131.6H339.995V127.64H341.855V131.6H343.555ZM344.599 136V134.48L349.539 129.44C350.859 128.12 351.519 126.987 351.519 126.04C351.519 125.253 351.279 124.64 350.799 124.2C350.319 123.76 349.732 123.54 349.039 123.54C347.719 123.54 346.759 124.167 346.159 125.42L344.599 124.5C345.039 123.593 345.646 122.907 346.419 122.44C347.206 121.973 348.072 121.74 349.019 121.74C350.192 121.74 351.212 122.127 352.079 122.9C352.946 123.673 353.379 124.713 353.379 126.02C353.379 127.433 352.546 128.973 350.879 130.64L347.299 134.2H353.639V136H344.599ZM364.51 134.28C363.564 135.6 362.237 136.26 360.53 136.26C358.824 136.26 357.497 135.6 356.55 134.28C355.604 132.96 355.13 131.2 355.13 129C355.13 126.8 355.604 125.04 356.55 123.72C357.497 122.4 358.824 121.74 360.53 121.74C362.237 121.74 363.564 122.4 364.51 123.72C365.457 125.04 365.93 126.8 365.93 129C365.93 131.2 365.457 132.96 364.51 134.28ZM357.91 133.02C358.524 133.967 359.397 134.44 360.53 134.44C361.664 134.44 362.537 133.967 363.15 133.02C363.777 132.073 364.09 130.733 364.09 129C364.09 127.267 363.777 125.927 363.15 124.98C362.537 124.02 361.664 123.54 360.53 123.54C359.397 123.54 358.524 124.013 357.91 124.96C357.297 125.907 356.99 127.253 356.99 129C356.99 130.733 357.297 132.073 357.91 133.02ZM377.108 134.28C376.161 135.6 374.835 136.26 373.128 136.26C371.421 136.26 370.095 135.6 369.148 134.28C368.201 132.96 367.728 131.2 367.728 129C367.728 126.8 368.201 125.04 369.148 123.72C370.095 122.4 371.421 121.74 373.128 121.74C374.835 121.74 376.161 122.4 377.108 123.72C378.055 125.04 378.528 126.8 378.528 129C378.528 131.2 378.055 132.96 377.108 134.28ZM370.508 133.02C371.121 133.967 371.995 134.44 373.128 134.44C374.261 134.44 375.135 133.967 375.748 133.02C376.375 132.073 376.688 130.733 376.688 129C376.688 127.267 376.375 125.927 375.748 124.98C375.135 124.02 374.261 123.54 373.128 123.54C371.995 123.54 371.121 124.013 370.508 124.96C369.895 125.907 369.588 127.253 369.588 129C369.588 130.733 369.895 132.073 370.508 133.02ZM389.706 134.28C388.759 135.6 387.432 136.26 385.726 136.26C384.019 136.26 382.692 135.6 381.746 134.28C380.799 132.96 380.326 131.2 380.326 129C380.326 126.8 380.799 125.04 381.746 123.72C382.692 122.4 384.019 121.74 385.726 121.74C387.432 121.74 388.759 122.4 389.706 123.72C390.652 125.04 391.126 126.8 391.126 129C391.126 131.2 390.652 132.96 389.706 134.28ZM383.106 133.02C383.719 133.967 384.592 134.44 385.726 134.44C386.859 134.44 387.732 133.967 388.346 133.02C388.972 132.073 389.286 130.733 389.286 129C389.286 127.267 388.972 125.927 388.346 124.98C387.732 124.02 386.859 123.54 385.726 123.54C384.592 123.54 383.719 124.013 383.106 124.96C382.492 125.907 382.186 127.253 382.186 129C382.186 130.733 382.492 132.073 383.106 133.02ZM402.303 134.28C401.357 135.6 400.03 136.26 398.323 136.26C396.617 136.26 395.29 135.6 394.343 134.28C393.397 132.96 392.923 131.2 392.923 129C392.923 126.8 393.397 125.04 394.343 123.72C395.29 122.4 396.617 121.74 398.323 121.74C400.03 121.74 401.357 122.4 402.303 123.72C403.25 125.04 403.723 126.8 403.723 129C403.723 131.2 403.25 132.96 402.303 134.28ZM395.703 133.02C396.317 133.967 397.19 134.44 398.323 134.44C399.457 134.44 400.33 133.967 400.943 133.02C401.57 132.073 401.883 130.733 401.883 129C401.883 127.267 401.57 125.927 400.943 124.98C400.33 124.02 399.457 123.54 398.323 123.54C397.19 123.54 396.317 124.013 395.703 124.96C395.09 125.907 394.783 127.253 394.783 129C394.783 130.733 395.09 132.073 395.703 133.02Z" fill="white"/>
<path opacity="0.7" d="M37.1657 172.022C38.0897 172.022 38.8691 172.297 39.5037 172.848C40.1477 173.389 40.4697 174.141 40.4697 175.102C40.4697 176.054 40.1431 176.805 39.4897 177.356C38.8364 177.907 38.0431 178.182 37.1097 178.182C36.3631 178.182 35.6957 178.005 35.1077 177.65C34.5197 177.286 34.1091 176.763 33.8757 176.082L34.9817 175.452C35.1124 175.928 35.3644 176.292 35.7377 176.544C36.1111 176.787 36.5684 176.908 37.1097 176.908C37.7257 176.908 38.2251 176.749 38.6077 176.432C38.9904 176.115 39.1817 175.671 39.1817 175.102C39.1817 174.533 38.9904 174.089 38.6077 173.772C38.2251 173.445 37.7351 173.282 37.1377 173.282H34.3657L34.7297 168.2H40.0917V169.418H35.9057L35.7377 172.022H37.1657ZM47.9372 176.796C47.2745 177.72 46.3459 178.182 45.1512 178.182C43.9565 178.182 43.0279 177.72 42.3652 176.796C41.7025 175.872 41.3712 174.64 41.3712 173.1C41.3712 171.56 41.7025 170.328 42.3652 169.404C43.0279 168.48 43.9565 168.018 45.1512 168.018C46.3459 168.018 47.2745 168.48 47.9372 169.404C48.5999 170.328 48.9312 171.56 48.9312 173.1C48.9312 174.64 48.5999 175.872 47.9372 176.796ZM43.3172 175.914C43.7465 176.577 44.3579 176.908 45.1512 176.908C45.9445 176.908 46.5559 176.577 46.9852 175.914C47.4239 175.251 47.6432 174.313 47.6432 173.1C47.6432 171.887 47.4239 170.949 46.9852 170.286C46.5559 169.614 45.9445 169.278 45.1512 169.278C44.3579 169.278 43.7465 169.609 43.3172 170.272C42.8879 170.935 42.6732 171.877 42.6732 173.1C42.6732 174.313 42.8879 175.251 43.3172 175.914ZM56.4056 178H54.8936L51.7016 174.682V178H50.4836V168.2H51.7016V174.094L54.7256 171H56.2936L52.9476 174.388L56.4056 178Z" fill="#202020"/>
<line x1="45.5" y1="151" x2="45.5" y2="159" stroke="#ABABAB"/>
<path opacity="0.7" d="M94.4312 168.2H95.5512V178H94.2632V169.6L92.1772 170.216L91.8552 169.096L94.4312 168.2ZM103.845 176.796C103.183 177.72 102.254 178.182 101.059 178.182C99.8647 178.182 98.9361 177.72 98.2734 176.796C97.6107 175.872 97.2794 174.64 97.2794 173.1C97.2794 171.56 97.6107 170.328 98.2734 169.404C98.9361 168.48 99.8647 168.018 101.059 168.018C102.254 168.018 103.183 168.48 103.845 169.404C104.508 170.328 104.839 171.56 104.839 173.1C104.839 174.64 104.508 175.872 103.845 176.796ZM99.2254 175.914C99.6547 176.577 100.266 176.908 101.059 176.908C101.853 176.908 102.464 176.577 102.893 175.914C103.332 175.251 103.551 174.313 103.551 173.1C103.551 171.887 103.332 170.949 102.893 170.286C102.464 169.614 101.853 169.278 101.059 169.278C100.266 169.278 99.6547 169.609 99.2254 170.272C98.7961 170.935 98.5814 171.877 98.5814 173.1C98.5814 174.313 98.7961 175.251 99.2254 175.914ZM112.664 176.796C112.001 177.72 111.072 178.182 109.878 178.182C108.683 178.182 107.754 177.72 107.092 176.796C106.429 175.872 106.098 174.64 106.098 173.1C106.098 171.56 106.429 170.328 107.092 169.404C107.754 168.48 108.683 168.018 109.878 168.018C111.072 168.018 112.001 168.48 112.664 169.404C113.326 170.328 113.658 171.56 113.658 173.1C113.658 174.64 113.326 175.872 112.664 176.796ZM108.044 175.914C108.473 176.577 109.084 176.908 109.878 176.908C110.671 176.908 111.282 176.577 111.712 175.914C112.15 175.251 112.37 174.313 112.37 173.1C112.37 171.887 112.15 170.949 111.712 170.286C111.282 169.614 110.671 169.278 109.878 169.278C109.084 169.278 108.473 169.609 108.044 170.272C107.614 170.935 107.4 171.877 107.4 173.1C107.4 174.313 107.614 175.251 108.044 175.914ZM121.132 178H119.62L116.428 174.682V178H115.21V168.2H116.428V174.094L119.452 171H121.02L117.674 174.388L121.132 178Z" fill="#202020"/>
<line x1="107.5" y1="151" x2="107.5" y2="159" stroke="#ABABAB"/>
<path opacity="0.7" d="M159.163 168.2H160.283V178H158.995V169.6L156.909 170.216L156.587 169.096L159.163 168.2ZM165.161 172.022C166.085 172.022 166.864 172.297 167.499 172.848C168.143 173.389 168.465 174.141 168.465 175.102C168.465 176.054 168.138 176.805 167.485 177.356C166.832 177.907 166.038 178.182 165.105 178.182C164.358 178.182 163.691 178.005 163.103 177.65C162.515 177.286 162.104 176.763 161.871 176.082L162.977 175.452C163.108 175.928 163.36 176.292 163.733 176.544C164.106 176.787 164.564 176.908 165.105 176.908C165.721 176.908 166.22 176.749 166.603 176.432C166.986 176.115 167.177 175.671 167.177 175.102C167.177 174.533 166.986 174.089 166.603 173.772C166.22 173.445 165.73 173.282 165.133 173.282H162.361L162.725 168.2H168.087V169.418H163.901L163.733 172.022H165.161ZM175.932 176.796C175.27 177.72 174.341 178.182 173.146 178.182C171.952 178.182 171.023 177.72 170.36 176.796C169.698 175.872 169.366 174.64 169.366 173.1C169.366 171.56 169.698 170.328 170.36 169.404C171.023 168.48 171.952 168.018 173.146 168.018C174.341 168.018 175.27 168.48 175.932 169.404C176.595 170.328 176.926 171.56 176.926 173.1C176.926 174.64 176.595 175.872 175.932 176.796ZM171.312 175.914C171.742 176.577 172.353 176.908 173.146 176.908C173.94 176.908 174.551 176.577 174.98 175.914C175.419 175.251 175.638 174.313 175.638 173.1C175.638 171.887 175.419 170.949 174.98 170.286C174.551 169.614 173.94 169.278 173.146 169.278C172.353 169.278 171.742 169.609 171.312 170.272C170.883 170.935 170.668 171.877 170.668 173.1C170.668 174.313 170.883 175.251 171.312 175.914ZM184.401 178H182.889L179.697 174.682V178H178.479V168.2H179.697V174.094L182.721 171H184.289L180.943 174.388L184.401 178Z" fill="#202020"/>
<line x1="171.5" y1="151" x2="171.5" y2="159" stroke="#ABABAB"/>
<path opacity="0.7" d="M221.035 178V176.936L224.493 173.408C225.417 172.484 225.879 171.691 225.879 171.028C225.879 170.477 225.711 170.048 225.375 169.74C225.039 169.432 224.629 169.278 224.143 169.278C223.219 169.278 222.547 169.717 222.127 170.594L221.035 169.95C221.343 169.315 221.768 168.835 222.309 168.508C222.86 168.181 223.467 168.018 224.129 168.018C224.951 168.018 225.665 168.289 226.271 168.83C226.878 169.371 227.181 170.099 227.181 171.014C227.181 172.003 226.598 173.081 225.431 174.248L222.925 176.74H227.363V178H221.035ZM234.973 176.796C234.311 177.72 233.382 178.182 232.187 178.182C230.993 178.182 230.064 177.72 229.401 176.796C228.739 175.872 228.407 174.64 228.407 173.1C228.407 171.56 228.739 170.328 229.401 169.404C230.064 168.48 230.993 168.018 232.187 168.018C233.382 168.018 234.311 168.48 234.973 169.404C235.636 170.328 235.967 171.56 235.967 173.1C235.967 174.64 235.636 175.872 234.973 176.796ZM230.353 175.914C230.783 176.577 231.394 176.908 232.187 176.908C232.981 176.908 233.592 176.577 234.021 175.914C234.46 175.251 234.679 174.313 234.679 173.1C234.679 171.887 234.46 170.949 234.021 170.286C233.592 169.614 232.981 169.278 232.187 169.278C231.394 169.278 230.783 169.609 230.353 170.272C229.924 170.935 229.709 171.877 229.709 173.1C229.709 174.313 229.924 175.251 230.353 175.914ZM243.792 176.796C243.129 177.72 242.2 178.182 241.006 178.182C239.811 178.182 238.882 177.72 238.22 176.796C237.557 175.872 237.226 174.64 237.226 173.1C237.226 171.56 237.557 170.328 238.22 169.404C238.882 168.48 239.811 168.018 241.006 168.018C242.2 168.018 243.129 168.48 243.792 169.404C244.454 170.328 244.786 171.56 244.786 173.1C244.786 174.64 244.454 175.872 243.792 176.796ZM239.172 175.914C239.601 176.577 240.212 176.908 241.006 176.908C241.799 176.908 242.41 176.577 242.84 175.914C243.278 175.251 243.498 174.313 243.498 173.1C243.498 171.887 243.278 170.949 242.84 170.286C242.41 169.614 241.799 169.278 241.006 169.278C240.212 169.278 239.601 169.609 239.172 170.272C238.742 170.935 238.528 171.877 238.528 173.1C238.528 174.313 238.742 175.251 239.172 175.914ZM252.26 178H250.748L247.556 174.682V178H246.338V168.2H247.556V174.094L250.58 171H252.148L248.802 174.388L252.26 178Z" fill="#202020"/>
<line x1="235.5" y1="151" x2="235.5" y2="159" stroke="#ABABAB"/>
<path opacity="0.7" d="M287.753 178V176.936L291.211 173.408C292.135 172.484 292.597 171.691 292.597 171.028C292.597 170.477 292.429 170.048 292.093 169.74C291.757 169.432 291.346 169.278 290.861 169.278C289.937 169.278 289.265 169.717 288.845 170.594L287.753 169.95C288.061 169.315 288.486 168.835 289.027 168.508C289.578 168.181 290.184 168.018 290.847 168.018C291.668 168.018 292.382 168.289 292.989 168.83C293.596 169.371 293.899 170.099 293.899 171.014C293.899 172.003 293.316 173.081 292.149 174.248L289.643 176.74H294.081V178H287.753ZM298.302 172.022C299.226 172.022 300.006 172.297 300.64 172.848C301.284 173.389 301.606 174.141 301.606 175.102C301.606 176.054 301.28 176.805 300.626 177.356C299.973 177.907 299.18 178.182 298.246 178.182C297.5 178.182 296.832 178.005 296.244 177.65C295.656 177.286 295.246 176.763 295.012 176.082L296.118 175.452C296.249 175.928 296.501 176.292 296.874 176.544C297.248 176.787 297.705 176.908 298.246 176.908C298.862 176.908 299.362 176.749 299.744 176.432C300.127 176.115 300.318 175.671 300.318 175.102C300.318 174.533 300.127 174.089 299.744 173.772C299.362 173.445 298.872 173.282 298.274 173.282H295.502L295.866 168.2H301.228V169.418H297.042L296.874 172.022H298.302ZM309.074 176.796C308.411 177.72 307.483 178.182 306.288 178.182C305.093 178.182 304.165 177.72 303.502 176.796C302.839 175.872 302.508 174.64 302.508 173.1C302.508 171.56 302.839 170.328 303.502 169.404C304.165 168.48 305.093 168.018 306.288 168.018C307.483 168.018 308.411 168.48 309.074 169.404C309.737 170.328 310.068 171.56 310.068 173.1C310.068 174.64 309.737 175.872 309.074 176.796ZM304.454 175.914C304.883 176.577 305.495 176.908 306.288 176.908C307.081 176.908 307.693 176.577 308.122 175.914C308.561 175.251 308.78 174.313 308.78 173.1C308.78 171.887 308.561 170.949 308.122 170.286C307.693 169.614 307.081 169.278 306.288 169.278C305.495 169.278 304.883 169.609 304.454 170.272C304.025 170.935 303.81 171.877 303.81 173.1C303.81 174.313 304.025 175.251 304.454 175.914ZM317.542 178H316.03L312.838 174.682V178H311.62V168.2H312.838V174.094L315.862 171H317.43L314.084 174.388L317.542 178Z" fill="#202020"/>
<line x1="301.5" y1="151" x2="301.5" y2="159" stroke="#ABABAB"/>
<path opacity="0.7" d="M355.832 172.218C356.579 172.358 357.19 172.68 357.666 173.184C358.142 173.688 358.38 174.327 358.38 175.102C358.38 176.054 358.054 176.805 357.4 177.356C356.747 177.907 355.954 178.182 355.02 178.182C354.274 178.182 353.611 178.014 353.032 177.678C352.454 177.333 352.043 176.838 351.8 176.194L352.892 175.55C353.182 176.455 353.891 176.908 355.02 176.908C355.627 176.908 356.122 176.749 356.504 176.432C356.887 176.115 357.078 175.671 357.078 175.102C357.078 174.533 356.887 174.089 356.504 173.772C356.122 173.445 355.627 173.282 355.02 173.282H354.684L354.166 172.484L356.434 169.418H352.08V168.2H357.96V169.348L355.832 172.218ZM366.096 176.796C365.434 177.72 364.505 178.182 363.31 178.182C362.116 178.182 361.187 177.72 360.524 176.796C359.862 175.872 359.53 174.64 359.53 173.1C359.53 171.56 359.862 170.328 360.524 169.404C361.187 168.48 362.116 168.018 363.31 168.018C364.505 168.018 365.434 168.48 366.096 169.404C366.759 170.328 367.09 171.56 367.09 173.1C367.09 174.64 366.759 175.872 366.096 176.796ZM361.476 175.914C361.906 176.577 362.517 176.908 363.31 176.908C364.104 176.908 364.715 176.577 365.144 175.914C365.583 175.251 365.802 174.313 365.802 173.1C365.802 171.887 365.583 170.949 365.144 170.286C364.715 169.614 364.104 169.278 363.31 169.278C362.517 169.278 361.906 169.609 361.476 170.272C361.047 170.935 360.832 171.877 360.832 173.1C360.832 174.313 361.047 175.251 361.476 175.914ZM374.915 176.796C374.252 177.72 373.323 178.182 372.129 178.182C370.934 178.182 370.005 177.72 369.343 176.796C368.68 175.872 368.349 174.64 368.349 173.1C368.349 171.56 368.68 170.328 369.343 169.404C370.005 168.48 370.934 168.018 372.129 168.018C373.323 168.018 374.252 168.48 374.915 169.404C375.577 170.328 375.909 171.56 375.909 173.1C375.909 174.64 375.577 175.872 374.915 176.796ZM370.295 175.914C370.724 176.577 371.335 176.908 372.129 176.908C372.922 176.908 373.533 176.577 373.963 175.914C374.401 175.251 374.621 174.313 374.621 173.1C374.621 171.887 374.401 170.949 373.963 170.286C373.533 169.614 372.922 169.278 372.129 169.278C371.335 169.278 370.724 169.609 370.295 170.272C369.865 170.935 369.651 171.877 369.651 173.1C369.651 174.313 369.865 175.251 370.295 175.914ZM383.383 178H381.871L378.679 174.682V178H377.461V168.2H378.679V174.094L381.703 171H383.271L379.925 174.388L383.383 178Z" fill="#202020"/>
<line x1="368.5" y1="151" x2="368.5" y2="159" stroke="#ABABAB"/>
<path opacity="0.7" d="M422.632 172.218C423.379 172.358 423.99 172.68 424.466 173.184C424.942 173.688 425.18 174.327 425.18 175.102C425.18 176.054 424.853 176.805 424.2 177.356C423.547 177.907 422.753 178.182 421.82 178.182C421.073 178.182 420.411 178.014 419.832 177.678C419.253 177.333 418.843 176.838 418.6 176.194L419.692 175.55C419.981 176.455 420.691 176.908 421.82 176.908C422.427 176.908 422.921 176.749 423.304 176.432C423.687 176.115 423.878 175.671 423.878 175.102C423.878 174.533 423.687 174.089 423.304 173.772C422.921 173.445 422.427 173.282 421.82 173.282H421.484L420.966 172.484L423.234 169.418H418.88V168.2H424.76V169.348L422.632 172.218ZM429.343 172.022C430.267 172.022 431.047 172.297 431.681 172.848C432.325 173.389 432.647 174.141 432.647 175.102C432.647 176.054 432.321 176.805 431.667 177.356C431.014 177.907 430.221 178.182 429.287 178.182C428.541 178.182 427.873 178.005 427.285 177.65C426.697 177.286 426.287 176.763 426.053 176.082L427.159 175.452C427.29 175.928 427.542 176.292 427.915 176.544C428.289 176.787 428.746 176.908 429.287 176.908C429.903 176.908 430.403 176.749 430.785 176.432C431.168 176.115 431.359 175.671 431.359 175.102C431.359 174.533 431.168 174.089 430.785 173.772C430.403 173.445 429.913 173.282 429.315 173.282H426.543L426.907 168.2H432.269V169.418H428.083L427.915 172.022H429.343ZM440.115 176.796C439.452 177.72 438.524 178.182 437.329 178.182C436.134 178.182 435.206 177.72 434.543 176.796C433.88 175.872 433.549 174.64 433.549 173.1C433.549 171.56 433.88 170.328 434.543 169.404C435.206 168.48 436.134 168.018 437.329 168.018C438.524 168.018 439.452 168.48 440.115 169.404C440.778 170.328 441.109 171.56 441.109 173.1C441.109 174.64 440.778 175.872 440.115 176.796ZM435.495 175.914C435.924 176.577 436.536 176.908 437.329 176.908C438.122 176.908 438.734 176.577 439.163 175.914C439.602 175.251 439.821 174.313 439.821 173.1C439.821 171.887 439.602 170.949 439.163 170.286C438.734 169.614 438.122 169.278 437.329 169.278C436.536 169.278 435.924 169.609 435.495 170.272C435.066 170.935 434.851 171.877 434.851 173.1C434.851 174.313 435.066 175.251 435.495 175.914ZM448.583 178H447.071L443.879 174.682V178H442.661V168.2H443.879V174.094L446.903 171H448.471L445.125 174.388L448.583 178Z" fill="#202020"/>
<line x1="433.5" y1="151" x2="433.5" y2="159" stroke="#ABABAB"/>
<path opacity="0.7" d="M490.92 174.92V176.138H489.73V178H488.428V176.138H483.43V174.92L486.944 168.2H488.344L484.83 174.92H488.428V172.148H489.73V174.92H490.92ZM498.411 176.796C497.748 177.72 496.82 178.182 495.625 178.182C494.43 178.182 493.502 177.72 492.839 176.796C492.176 175.872 491.845 174.64 491.845 173.1C491.845 171.56 492.176 170.328 492.839 169.404C493.502 168.48 494.43 168.018 495.625 168.018C496.82 168.018 497.748 168.48 498.411 169.404C499.074 170.328 499.405 171.56 499.405 173.1C499.405 174.64 499.074 175.872 498.411 176.796ZM493.791 175.914C494.22 176.577 494.832 176.908 495.625 176.908C496.418 176.908 497.03 176.577 497.459 175.914C497.898 175.251 498.117 174.313 498.117 173.1C498.117 171.887 497.898 170.949 497.459 170.286C497.03 169.614 496.418 169.278 495.625 169.278C494.832 169.278 494.22 169.609 493.791 170.272C493.362 170.935 493.147 171.877 493.147 173.1C493.147 174.313 493.362 175.251 493.791 175.914ZM507.229 176.796C506.567 177.72 505.638 178.182 504.443 178.182C503.249 178.182 502.32 177.72 501.657 176.796C500.995 175.872 500.663 174.64 500.663 173.1C500.663 171.56 500.995 170.328 501.657 169.404C502.32 168.48 503.249 168.018 504.443 168.018C505.638 168.018 506.567 168.48 507.229 169.404C507.892 170.328 508.223 171.56 508.223 173.1C508.223 174.64 507.892 175.872 507.229 176.796ZM502.609 175.914C503.039 176.577 503.65 176.908 504.443 176.908C505.237 176.908 505.848 176.577 506.277 175.914C506.716 175.251 506.935 174.313 506.935 173.1C506.935 171.887 506.716 170.949 506.277 170.286C505.848 169.614 505.237 169.278 504.443 169.278C503.65 169.278 503.039 169.609 502.609 170.272C502.18 170.935 501.965 171.877 501.965 173.1C501.965 174.313 502.18 175.251 502.609 175.914ZM515.698 178H514.186L510.994 174.682V178H509.776V168.2H510.994V174.094L514.018 171H515.586L512.24 174.388L515.698 178Z" fill="#202020"/>
<line x1="499.5" y1="151" x2="499.5" y2="159" stroke="#ABABAB"/>
<path opacity="0.7" d="M557.651 174.92V176.138H556.461V178H555.159V176.138H550.161V174.92L553.675 168.2H555.075L551.561 174.92H555.159V172.148H556.461V174.92H557.651ZM561.726 172.022C562.65 172.022 563.43 172.297 564.064 172.848C564.708 173.389 565.03 174.141 565.03 175.102C565.03 176.054 564.704 176.805 564.05 177.356C563.397 177.907 562.604 178.182 561.67 178.182C560.924 178.182 560.256 178.005 559.668 177.65C559.08 177.286 558.67 176.763 558.436 176.082L559.542 175.452C559.673 175.928 559.925 176.292 560.298 176.544C560.672 176.787 561.129 176.908 561.67 176.908C562.286 176.908 562.786 176.749 563.168 176.432C563.551 176.115 563.742 175.671 563.742 175.102C563.742 174.533 563.551 174.089 563.168 173.772C562.786 173.445 562.296 173.282 561.698 173.282H558.926L559.29 168.2H564.652V169.418H560.466L560.298 172.022H561.726ZM572.498 176.796C571.835 177.72 570.906 178.182 569.712 178.182C568.517 178.182 567.588 177.72 566.926 176.796C566.263 175.872 565.932 174.64 565.932 173.1C565.932 171.56 566.263 170.328 566.926 169.404C567.588 168.48 568.517 168.018 569.712 168.018C570.906 168.018 571.835 168.48 572.498 169.404C573.16 170.328 573.492 171.56 573.492 173.1C573.492 174.64 573.16 175.872 572.498 176.796ZM567.878 175.914C568.307 176.577 568.918 176.908 569.712 176.908C570.505 176.908 571.116 176.577 571.546 175.914C571.984 175.251 572.204 174.313 572.204 173.1C572.204 171.887 571.984 170.949 571.546 170.286C571.116 169.614 570.505 169.278 569.712 169.278C568.918 169.278 568.307 169.609 567.878 170.272C567.448 170.935 567.234 171.877 567.234 173.1C567.234 174.313 567.448 175.251 567.878 175.914ZM580.966 178H579.454L576.262 174.682V178H575.044V168.2H576.262V174.094L579.286 171H580.854L577.508 174.388L580.966 178Z" fill="#202020"/>
<line x1="565.5" y1="151" x2="565.5" y2="159" stroke="#ABABAB"/>
<path opacity="0.7" d="M619.257 172.022C620.181 172.022 620.96 172.297 621.595 172.848C622.239 173.389 622.561 174.141 622.561 175.102C622.561 176.054 622.234 176.805 621.581 177.356C620.927 177.907 620.134 178.182 619.201 178.182C618.454 178.182 617.787 178.005 617.199 177.65C616.611 177.286 616.2 176.763 615.967 176.082L617.073 175.452C617.203 175.928 617.455 176.292 617.829 176.544C618.202 176.787 618.659 176.908 619.201 176.908C619.817 176.908 620.316 176.749 620.699 176.432C621.081 176.115 621.273 175.671 621.273 175.102C621.273 174.533 621.081 174.089 620.699 173.772C620.316 173.445 619.826 173.282 619.229 173.282H616.457L616.821 168.2H622.183V169.418H617.997L617.829 172.022H619.257ZM630.028 176.796C629.365 177.72 628.437 178.182 627.242 178.182C626.047 178.182 625.119 177.72 624.456 176.796C623.793 175.872 623.462 174.64 623.462 173.1C623.462 171.56 623.793 170.328 624.456 169.404C625.119 168.48 626.047 168.018 627.242 168.018C628.437 168.018 629.365 168.48 630.028 169.404C630.691 170.328 631.022 171.56 631.022 173.1C631.022 174.64 630.691 175.872 630.028 176.796ZM625.408 175.914C625.837 176.577 626.449 176.908 627.242 176.908C628.035 176.908 628.647 176.577 629.076 175.914C629.515 175.251 629.734 174.313 629.734 173.1C629.734 171.887 629.515 170.949 629.076 170.286C628.647 169.614 628.035 169.278 627.242 169.278C626.449 169.278 625.837 169.609 625.408 170.272C624.979 170.935 624.764 171.877 624.764 173.1C624.764 174.313 624.979 175.251 625.408 175.914ZM638.846 176.796C638.184 177.72 637.255 178.182 636.06 178.182C634.866 178.182 633.937 177.72 633.274 176.796C632.612 175.872 632.28 174.64 632.28 173.1C632.28 171.56 632.612 170.328 633.274 169.404C633.937 168.48 634.866 168.018 636.06 168.018C637.255 168.018 638.184 168.48 638.846 169.404C639.509 170.328 639.84 171.56 639.84 173.1C639.84 174.64 639.509 175.872 638.846 176.796ZM634.226 175.914C634.656 176.577 635.267 176.908 636.06 176.908C636.854 176.908 637.465 176.577 637.894 175.914C638.333 175.251 638.552 174.313 638.552 173.1C638.552 171.887 638.333 170.949 637.894 170.286C637.465 169.614 636.854 169.278 636.06 169.278C635.267 169.278 634.656 169.609 634.226 170.272C633.797 170.935 633.582 171.877 633.582 173.1C633.582 174.313 633.797 175.251 634.226 175.914ZM647.315 178H645.803L642.611 174.682V178H641.393V168.2H642.611V174.094L645.635 171H647.203L643.857 174.388L647.315 178Z" fill="#202020"/>
<line x1="631.5" y1="151" x2="631.5" y2="159" stroke="#ABABAB"/>
<path opacity="0.7" d="M361.792 274.208C360.096 274.208 358.693 273.648 357.584 272.528C356.485 271.408 355.936 270.032 355.936 268.4C355.936 266.768 356.485 265.392 357.584 264.272C358.693 263.152 360.096 262.592 361.792 262.592C362.816 262.592 363.755 262.837 364.608 263.328C365.472 263.819 366.144 264.48 366.624 265.312L365.328 266.064C365.008 265.445 364.528 264.955 363.888 264.592C363.259 264.219 362.56 264.032 361.792 264.032C360.501 264.032 359.445 264.448 358.624 265.28C357.813 266.112 357.408 267.152 357.408 268.4C357.408 269.637 357.813 270.672 358.624 271.504C359.445 272.336 360.501 272.752 361.792 272.752C362.56 272.752 363.259 272.571 363.888 272.208C364.528 271.835 365.008 271.344 365.328 270.736L366.624 271.472C366.155 272.304 365.488 272.971 364.624 273.472C363.76 273.963 362.816 274.208 361.792 274.208ZM374.886 272.992C374.065 273.803 373.067 274.208 371.894 274.208C370.721 274.208 369.723 273.803 368.902 272.992C368.091 272.181 367.686 271.184 367.686 270C367.686 268.816 368.091 267.819 368.902 267.008C369.723 266.197 370.721 265.792 371.894 265.792C373.067 265.792 374.065 266.197 374.886 267.008C375.707 267.819 376.118 268.816 376.118 270C376.118 271.184 375.707 272.181 374.886 272.992ZM371.894 272.848C372.694 272.848 373.366 272.576 373.91 272.032C374.454 271.488 374.726 270.811 374.726 270C374.726 269.189 374.454 268.512 373.91 267.968C373.366 267.424 372.694 267.152 371.894 267.152C371.105 267.152 370.438 267.424 369.894 267.968C369.35 268.512 369.078 269.189 369.078 270C369.078 270.811 369.35 271.488 369.894 272.032C370.438 272.576 371.105 272.848 371.894 272.848ZM386.399 265.792C387.295 265.792 388.02 266.085 388.575 266.672C389.13 267.248 389.407 268.032 389.407 269.024V274H388.015V269.072C388.015 268.453 387.855 267.973 387.535 267.632C387.215 267.291 386.788 267.12 386.255 267.12C385.658 267.12 385.178 267.323 384.815 267.728C384.463 268.123 384.287 268.731 384.287 269.552V274H382.895V269.072C382.895 268.453 382.74 267.973 382.431 267.632C382.132 267.291 381.722 267.12 381.199 267.12C380.612 267.12 380.122 267.323 379.727 267.728C379.343 268.133 379.151 268.741 379.151 269.552V274H377.759V266H379.151V267.072C379.695 266.219 380.49 265.792 381.535 265.792C382.612 265.792 383.396 266.245 383.887 267.152C384.442 266.245 385.279 265.792 386.399 265.792ZM395.753 265.792C396.873 265.792 397.828 266.203 398.617 267.024C399.407 267.835 399.801 268.827 399.801 270C399.801 271.173 399.407 272.171 398.617 272.992C397.828 273.803 396.873 274.208 395.753 274.208C394.431 274.208 393.423 273.68 392.729 272.624V277.2H391.337V266H392.729V267.376C393.423 266.32 394.431 265.792 395.753 265.792ZM395.577 272.864C396.377 272.864 397.049 272.592 397.593 272.048C398.137 271.493 398.409 270.811 398.409 270C398.409 269.189 398.137 268.512 397.593 267.968C397.049 267.413 396.377 267.136 395.577 267.136C394.767 267.136 394.089 267.413 393.545 267.968C393.001 268.512 392.729 269.189 392.729 270C392.729 270.811 393.001 271.493 393.545 272.048C394.089 272.592 394.767 272.864 395.577 272.864ZM401.462 274V262.32H402.854V274H401.462ZM405.954 270.64C406.093 271.355 406.418 271.909 406.93 272.304C407.453 272.699 408.093 272.896 408.85 272.896C409.906 272.896 410.674 272.507 411.154 271.728L412.338 272.4C411.559 273.605 410.386 274.208 408.818 274.208C407.549 274.208 406.514 273.813 405.714 273.024C404.925 272.224 404.53 271.216 404.53 270C404.53 268.795 404.919 267.792 405.698 266.992C406.477 266.192 407.485 265.792 408.722 265.792C409.895 265.792 410.85 266.208 411.586 267.04C412.333 267.861 412.706 268.853 412.706 270.016C412.706 270.219 412.69 270.427 412.658 270.64H405.954ZM408.722 267.104C407.975 267.104 407.357 267.317 406.866 267.744C406.375 268.16 406.071 268.72 405.954 269.424H411.298C411.181 268.667 410.882 268.091 410.402 267.696C409.922 267.301 409.362 267.104 408.722 267.104ZM418.424 267.344H416.296V271.68C416.296 272.075 416.37 272.357 416.52 272.528C416.68 272.688 416.92 272.773 417.24 272.784C417.56 272.784 417.954 272.773 418.424 272.752V274C417.208 274.16 416.317 274.064 415.752 273.712C415.186 273.349 414.904 272.672 414.904 271.68V267.344H413.32V266H414.904V264.176L416.296 263.76V266H418.424V267.344ZM420.641 270.64C420.78 271.355 421.105 271.909 421.617 272.304C422.14 272.699 422.78 272.896 423.537 272.896C424.593 272.896 425.361 272.507 425.841 271.728L427.025 272.4C426.247 273.605 425.073 274.208 423.505 274.208C422.236 274.208 421.201 273.813 420.401 273.024C419.612 272.224 419.217 271.216 419.217 270C419.217 268.795 419.607 267.792 420.385 266.992C421.164 266.192 422.172 265.792 423.409 265.792C424.583 265.792 425.537 266.208 426.273 267.04C427.02 267.861 427.393 268.853 427.393 270.016C427.393 270.219 427.377 270.427 427.345 270.64H420.641ZM423.409 267.104C422.663 267.104 422.044 267.317 421.553 267.744C421.063 268.16 420.759 268.72 420.641 269.424H425.985C425.868 268.667 425.569 268.091 425.089 267.696C424.609 267.301 424.049 267.104 423.409 267.104ZM435.602 262.8H436.994V274H435.602V272.624C434.909 273.68 433.901 274.208 432.578 274.208C431.458 274.208 430.503 273.803 429.714 272.992C428.925 272.171 428.53 271.173 428.53 270C428.53 268.827 428.925 267.835 429.714 267.024C430.503 266.203 431.458 265.792 432.578 265.792C433.901 265.792 434.909 266.32 435.602 267.376V262.8ZM432.754 272.864C433.565 272.864 434.242 272.592 434.786 272.048C435.33 271.493 435.602 270.811 435.602 270C435.602 269.189 435.33 268.512 434.786 267.968C434.242 267.413 433.565 267.136 432.754 267.136C431.954 267.136 431.282 267.413 430.738 267.968C430.194 268.512 429.922 269.189 429.922 270C429.922 270.811 430.194 271.493 430.738 272.048C431.282 272.592 431.954 272.864 432.754 272.864ZM443.247 269.76V268.416H449.087V269.76H443.247ZM462.649 262.8V264.208H459.337V274H457.865V264.208H454.569V262.8H462.649ZM469.149 266H470.541V274H469.149V272.624C468.455 273.68 467.447 274.208 466.125 274.208C465.005 274.208 464.05 273.803 463.261 272.992C462.471 272.171 462.077 271.173 462.077 270C462.077 268.827 462.471 267.835 463.261 267.024C464.05 266.203 465.005 265.792 466.125 265.792C467.447 265.792 468.455 266.32 469.149 267.376V266ZM466.301 272.864C467.111 272.864 467.789 272.592 468.333 272.048C468.877 271.493 469.149 270.811 469.149 270C469.149 269.189 468.877 268.512 468.333 267.968C467.789 267.413 467.111 267.136 466.301 267.136C465.501 267.136 464.829 267.413 464.285 267.968C463.741 268.512 463.469 269.189 463.469 270C463.469 270.811 463.741 271.493 464.285 272.048C464.829 272.592 465.501 272.864 466.301 272.864ZM474.042 267.344C474.5 266.352 475.332 265.856 476.538 265.856V267.312C475.855 267.28 475.268 267.461 474.778 267.856C474.287 268.251 474.042 268.885 474.042 269.76V274H472.65V266H474.042V267.344ZM484.102 266H485.478V273.664C485.478 274.848 485.078 275.765 484.278 276.416C483.478 277.077 482.518 277.408 481.398 277.408C480.502 277.408 479.729 277.237 479.078 276.896C478.428 276.565 477.937 276.085 477.606 275.456L478.822 274.768C479.26 275.664 480.129 276.112 481.43 276.112C482.262 276.112 482.913 275.893 483.382 275.456C483.862 275.019 484.102 274.421 484.102 273.664V272.528C483.398 273.595 482.396 274.128 481.094 274.128C479.953 274.128 478.988 273.723 478.198 272.912C477.409 272.101 477.014 271.115 477.014 269.952C477.014 268.789 477.409 267.808 478.198 267.008C478.988 266.197 479.953 265.792 481.094 265.792C482.406 265.792 483.409 266.32 484.102 267.376V266ZM479.222 271.984C479.766 272.528 480.444 272.8 481.254 272.8C482.065 272.8 482.742 272.528 483.286 271.984C483.83 271.44 484.102 270.763 484.102 269.952C484.102 269.152 483.83 268.48 483.286 267.936C482.742 267.392 482.065 267.12 481.254 267.12C480.444 267.12 479.766 267.392 479.222 267.936C478.678 268.48 478.406 269.152 478.406 269.952C478.406 270.763 478.678 271.44 479.222 271.984ZM488.563 270.64C488.702 271.355 489.027 271.909 489.539 272.304C490.062 272.699 490.702 272.896 491.459 272.896C492.515 272.896 493.283 272.507 493.763 271.728L494.947 272.4C494.169 273.605 492.995 274.208 491.427 274.208C490.158 274.208 489.123 273.813 488.323 273.024C487.534 272.224 487.139 271.216 487.139 270C487.139 268.795 487.529 267.792 488.307 266.992C489.086 266.192 490.094 265.792 491.331 265.792C492.505 265.792 493.459 266.208 494.195 267.04C494.942 267.861 495.315 268.853 495.315 270.016C495.315 270.219 495.299 270.427 495.267 270.64H488.563ZM491.331 267.104C490.585 267.104 489.966 267.317 489.475 267.744C488.985 268.16 488.681 268.72 488.563 269.424H493.907C493.79 268.667 493.491 268.091 493.011 267.696C492.531 267.301 491.971 267.104 491.331 267.104ZM501.033 267.344H498.905V271.68C498.905 272.075 498.98 272.357 499.129 272.528C499.289 272.688 499.529 272.773 499.849 272.784C500.169 272.784 500.564 272.773 501.033 272.752V274C499.817 274.16 498.926 274.064 498.361 273.712C497.796 273.349 497.513 272.672 497.513 271.68V267.344H495.929V266H497.513V264.176L498.905 263.76V266H501.033V267.344Z" fill="#202020"/>
<rect x="328" y="259" width="17" height="16" fill="#085881"/>
<path opacity="0.7" d="M571.016 261.8V273H569.544V264.248L565.88 270.344H565.688L562.024 264.264V273H560.536V261.8H562.216L565.784 267.72L569.336 261.8H571.016ZM579.891 265H581.283V273H579.891V271.624C579.198 272.68 578.19 273.208 576.867 273.208C575.747 273.208 574.792 272.803 574.003 271.992C573.214 271.171 572.819 270.173 572.819 269C572.819 267.827 573.214 266.835 574.003 266.024C574.792 265.203 575.747 264.792 576.867 264.792C578.19 264.792 579.198 265.32 579.891 266.376V265ZM577.043 271.864C577.854 271.864 578.531 271.592 579.075 271.048C579.619 270.493 579.891 269.811 579.891 269C579.891 268.189 579.619 267.512 579.075 266.968C578.531 266.413 577.854 266.136 577.043 266.136C576.243 266.136 575.571 266.413 575.027 266.968C574.483 267.512 574.211 268.189 574.211 269C574.211 269.811 574.483 270.493 575.027 271.048C575.571 271.592 576.243 271.864 577.043 271.864ZM590.336 273H588.704L586.464 269.976L584.208 273H582.576L585.648 268.888L582.752 265H584.4L586.464 267.784L588.528 265H590.16L587.28 268.872L590.336 273ZM592.33 263.544C592.064 263.544 591.84 263.453 591.658 263.272C591.477 263.091 591.386 262.872 591.386 262.616C591.386 262.36 591.477 262.141 591.658 261.96C591.84 261.768 592.064 261.672 592.33 261.672C592.586 261.672 592.805 261.768 592.986 261.96C593.168 262.141 593.258 262.36 593.258 262.616C593.258 262.872 593.168 263.091 592.986 263.272C592.805 263.453 592.586 263.544 592.33 263.544ZM591.626 273V265H593.018V273H591.626ZM603.782 264.792C604.678 264.792 605.403 265.085 605.958 265.672C606.513 266.248 606.79 267.032 606.79 268.024V273H605.398V268.072C605.398 267.453 605.238 266.973 604.918 266.632C604.598 266.291 604.171 266.12 603.638 266.12C603.041 266.12 602.561 266.323 602.198 266.728C601.846 267.123 601.67 267.731 601.67 268.552V273H600.278V268.072C600.278 267.453 600.123 266.973 599.814 266.632C599.515 266.291 599.105 266.12 598.582 266.12C597.995 266.12 597.505 266.323 597.11 266.728C596.726 267.133 596.534 267.741 596.534 268.552V273H595.142V265H596.534V266.072C597.078 265.219 597.873 264.792 598.918 264.792C599.995 264.792 600.779 265.245 601.27 266.152C601.825 265.245 602.662 264.792 603.782 264.792ZM614.24 265H615.632V273H614.24V271.848C613.675 272.755 612.811 273.208 611.648 273.208C610.709 273.208 609.957 272.915 609.392 272.328C608.827 271.731 608.544 270.925 608.544 269.912V265H609.936V269.832C609.936 270.483 610.112 270.989 610.464 271.352C610.816 271.704 611.301 271.88 611.92 271.88C612.613 271.88 613.173 271.667 613.6 271.24C614.027 270.803 614.24 270.136 614.24 269.24V265ZM626.391 264.792C627.287 264.792 628.013 265.085 628.567 265.672C629.122 266.248 629.399 267.032 629.399 268.024V273H628.007V268.072C628.007 267.453 627.847 266.973 627.527 266.632C627.207 266.291 626.781 266.12 626.247 266.12C625.65 266.12 625.17 266.323 624.807 266.728C624.455 267.123 624.279 267.731 624.279 268.552V273H622.887V268.072C622.887 267.453 622.733 266.973 622.423 266.632C622.125 266.291 621.714 266.12 621.191 266.12C620.605 266.12 620.114 266.323 619.719 266.728C619.335 267.133 619.143 267.741 619.143 268.552V273H617.751V265H619.143V266.072C619.687 265.219 620.482 264.792 621.527 264.792C622.605 264.792 623.389 265.245 623.879 266.152C624.434 265.245 625.271 264.792 626.391 264.792ZM642.641 261.8V263.208H639.329V273H637.857V263.208H634.561V261.8H642.641ZM649.141 265H650.533V273H649.141V271.624C648.448 272.68 647.44 273.208 646.117 273.208C644.997 273.208 644.042 272.803 643.253 271.992C642.464 271.171 642.069 270.173 642.069 269C642.069 267.827 642.464 266.835 643.253 266.024C644.042 265.203 644.997 264.792 646.117 264.792C647.44 264.792 648.448 265.32 649.141 266.376V265ZM646.293 271.864C647.104 271.864 647.781 271.592 648.325 271.048C648.869 270.493 649.141 269.811 649.141 269C649.141 268.189 648.869 267.512 648.325 266.968C647.781 266.413 647.104 266.136 646.293 266.136C645.493 266.136 644.821 266.413 644.277 266.968C643.733 267.512 643.461 268.189 643.461 269C643.461 269.811 643.733 270.493 644.277 271.048C644.821 271.592 645.493 271.864 646.293 271.864ZM654.034 266.344C654.493 265.352 655.325 264.856 656.53 264.856V266.312C655.847 266.28 655.261 266.461 654.77 266.856C654.279 267.251 654.034 267.885 654.034 268.76V273H652.642V265H654.034V266.344ZM664.094 265H665.47V272.664C665.47 273.848 665.07 274.765 664.27 275.416C663.47 276.077 662.51 276.408 661.39 276.408C660.494 276.408 659.721 276.237 659.07 275.896C658.42 275.565 657.929 275.085 657.598 274.456L658.814 273.768C659.252 274.664 660.121 275.112 661.422 275.112C662.254 275.112 662.905 274.893 663.374 274.456C663.854 274.019 664.094 273.421 664.094 272.664V271.528C663.39 272.595 662.388 273.128 661.086 273.128C659.945 273.128 658.98 272.723 658.19 271.912C657.401 271.101 657.006 270.115 657.006 268.952C657.006 267.789 657.401 266.808 658.19 266.008C658.98 265.197 659.945 264.792 661.086 264.792C662.398 264.792 663.401 265.32 664.094 266.376V265ZM659.214 270.984C659.758 271.528 660.436 271.8 661.246 271.8C662.057 271.8 662.734 271.528 663.278 270.984C663.822 270.44 664.094 269.763 664.094 268.952C664.094 268.152 663.822 267.48 663.278 266.936C662.734 266.392 662.057 266.12 661.246 266.12C660.436 266.12 659.758 266.392 659.214 266.936C658.67 267.48 658.398 268.152 658.398 268.952C658.398 269.763 658.67 270.44 659.214 270.984ZM668.555 269.64C668.694 270.355 669.019 270.909 669.531 271.304C670.054 271.699 670.694 271.896 671.451 271.896C672.507 271.896 673.275 271.507 673.755 270.728L674.939 271.4C674.161 272.605 672.987 273.208 671.419 273.208C670.15 273.208 669.115 272.813 668.315 272.024C667.526 271.224 667.131 270.216 667.131 269C667.131 267.795 667.521 266.792 668.299 265.992C669.078 265.192 670.086 264.792 671.323 264.792C672.497 264.792 673.451 265.208 674.187 266.04C674.934 266.861 675.307 267.853 675.307 269.016C675.307 269.219 675.291 269.427 675.259 269.64H668.555ZM671.323 266.104C670.577 266.104 669.958 266.317 669.467 266.744C668.977 267.16 668.673 267.72 668.555 268.424H673.899C673.782 267.667 673.483 267.091 673.003 266.696C672.523 266.301 671.963 266.104 671.323 266.104ZM681.025 266.344H678.897V270.68C678.897 271.075 678.972 271.357 679.121 271.528C679.281 271.688 679.521 271.773 679.841 271.784C680.161 271.784 680.556 271.773 681.025 271.752V273C679.809 273.16 678.919 273.064 678.353 272.712C677.788 272.349 677.505 271.672 677.505 270.68V266.344H675.921V265H677.505V263.176L678.897 262.76V265H681.025V266.344Z" fill="#202020"/>
<rect x="532" y="259" width="17" height="16" fill="#ECECEC"/>
</svg>
