<svg width="342" height="324" viewBox="0 0 342 324" fill="none" xmlns="http://www.w3.org/2000/svg">
<rect width="342" height="324" rx="31" fill="white"/>
<path opacity="0.9" d="M42.9633 42.2V44.84H38.2353V59H35.4753V44.84H30.7233V42.2H42.9633ZM44.72 54.104C44.912 55.016 45.352 55.72 46.04 56.216C46.728 56.696 47.568 56.936 48.56 56.936C49.936 56.936 50.968 56.44 51.656 55.448L53.792 56.696C52.608 58.44 50.856 59.312 48.536 59.312C46.584 59.312 45.008 58.72 43.808 57.536C42.608 56.336 42.008 54.824 42.008 53C42.008 51.208 42.6 49.712 43.784 48.512C44.968 47.296 46.488 46.688 48.344 46.688C50.104 46.688 51.544 47.304 52.664 48.536C53.8 49.768 54.368 51.264 54.368 53.024C54.368 53.296 54.336 53.656 54.272 54.104H44.72ZM44.696 51.992H51.752C51.576 51.016 51.168 50.28 50.528 49.784C49.904 49.288 49.168 49.04 48.32 49.04C47.36 49.04 46.56 49.304 45.92 49.832C45.28 50.36 44.872 51.08 44.696 51.992ZM66.0824 47H68.6744V59H66.0824V57.272C65.1064 58.632 63.7064 59.312 61.8824 59.312C60.2344 59.312 58.8264 58.704 57.6584 57.488C56.4904 56.256 55.9064 54.76 55.9064 53C55.9064 51.224 56.4904 49.728 57.6584 48.512C58.8264 47.296 60.2344 46.688 61.8824 46.688C63.7064 46.688 65.1064 47.36 66.0824 48.704V47ZM59.5784 55.76C60.2984 56.48 61.2024 56.84 62.2904 56.84C63.3784 56.84 64.2824 56.48 65.0024 55.76C65.7224 55.024 66.0824 54.104 66.0824 53C66.0824 51.896 65.7224 50.984 65.0024 50.264C64.2824 49.528 63.3784 49.16 62.2904 49.16C61.2024 49.16 60.2984 49.528 59.5784 50.264C58.8584 50.984 58.4984 51.896 58.4984 53C58.4984 54.104 58.8584 55.024 59.5784 55.76ZM84.7996 46.688C86.1596 46.688 87.2556 47.128 88.0876 48.008C88.9196 48.888 89.3356 50.072 89.3356 51.56V59H86.7436V51.728C86.7436 50.896 86.5356 50.256 86.1196 49.808C85.7036 49.344 85.1356 49.112 84.4156 49.112C83.6156 49.112 82.9756 49.376 82.4956 49.904C82.0316 50.432 81.7996 51.224 81.7996 52.28V59H79.2076V51.728C79.2076 50.896 79.0076 50.256 78.6076 49.808C78.2236 49.344 77.6716 49.112 76.9516 49.112C76.1676 49.112 75.5276 49.384 75.0316 49.928C74.5356 50.456 74.2876 51.24 74.2876 52.28V59H71.6956V47H74.2876V48.44C75.0556 47.272 76.1996 46.688 77.7196 46.688C79.2556 46.688 80.3916 47.32 81.1276 48.584C81.9276 47.32 83.1516 46.688 84.7996 46.688ZM104.902 46.688C106.55 46.688 107.958 47.304 109.126 48.536C110.294 49.752 110.878 51.24 110.878 53C110.878 54.776 110.294 56.272 109.126 57.488C107.958 58.704 106.55 59.312 104.902 59.312C103.078 59.312 101.678 58.64 100.702 57.296V63.8H98.1097V47H100.702V48.728C101.678 47.368 103.078 46.688 104.902 46.688ZM101.782 55.76C102.502 56.48 103.406 56.84 104.494 56.84C105.582 56.84 106.486 56.48 107.206 55.76C107.926 55.024 108.286 54.104 108.286 53C108.286 51.896 107.926 50.984 107.206 50.264C106.486 49.528 105.582 49.16 104.494 49.16C103.406 49.16 102.502 49.528 101.782 50.264C101.062 50.984 100.702 51.896 100.702 53C100.702 54.104 101.062 55.024 101.782 55.76ZM115.267 54.104C115.459 55.016 115.899 55.72 116.587 56.216C117.275 56.696 118.115 56.936 119.107 56.936C120.483 56.936 121.515 56.44 122.203 55.448L124.339 56.696C123.155 58.44 121.403 59.312 119.083 59.312C117.131 59.312 115.555 58.72 114.355 57.536C113.155 56.336 112.555 54.824 112.555 53C112.555 51.208 113.147 49.712 114.331 48.512C115.515 47.296 117.035 46.688 118.891 46.688C120.651 46.688 122.091 47.304 123.211 48.536C124.347 49.768 124.915 51.264 124.915 53.024C124.915 53.296 124.883 53.656 124.819 54.104H115.267ZM115.243 51.992H122.299C122.123 51.016 121.715 50.28 121.075 49.784C120.451 49.288 119.715 49.04 118.867 49.04C117.907 49.04 117.107 49.304 116.467 49.832C115.827 50.36 115.419 51.08 115.243 51.992ZM129.788 49.016C130.444 47.528 131.676 46.784 133.484 46.784V49.592C132.492 49.528 131.628 49.768 130.892 50.312C130.156 50.84 129.788 51.72 129.788 52.952V59H127.196V47H129.788V49.016ZM141.687 44.384C139.799 44.208 138.855 45 138.855 46.76V47H141.687V49.496H138.855V59H136.263V49.496H134.439V47H136.263V46.76C136.263 45.112 136.719 43.864 137.631 43.016C138.559 42.152 139.911 41.776 141.687 41.888V44.384ZM148.305 59.312C146.545 59.312 145.049 58.704 143.817 57.488C142.585 56.272 141.969 54.776 141.969 53C141.969 51.224 142.585 49.728 143.817 48.512C145.049 47.296 146.545 46.688 148.305 46.688C150.081 46.688 151.577 47.296 152.793 48.512C154.025 49.728 154.641 51.224 154.641 53C154.641 54.776 154.025 56.272 152.793 57.488C151.577 58.704 150.081 59.312 148.305 59.312ZM145.641 55.712C146.361 56.432 147.249 56.792 148.305 56.792C149.361 56.792 150.249 56.432 150.969 55.712C151.689 54.992 152.049 54.088 152.049 53C152.049 51.912 151.689 51.008 150.969 50.288C150.249 49.568 149.361 49.208 148.305 49.208C147.249 49.208 146.361 49.568 145.641 50.288C144.921 51.008 144.561 51.912 144.561 53C144.561 54.088 144.921 54.992 145.641 55.712ZM159.577 49.016C160.233 47.528 161.465 46.784 163.273 46.784V49.592C162.281 49.528 161.417 49.768 160.681 50.312C159.945 50.84 159.577 51.72 159.577 52.952V59H156.985V47H159.577V49.016ZM178.292 46.688C179.652 46.688 180.748 47.128 181.58 48.008C182.412 48.888 182.828 50.072 182.828 51.56V59H180.236V51.728C180.236 50.896 180.028 50.256 179.612 49.808C179.196 49.344 178.628 49.112 177.908 49.112C177.108 49.112 176.468 49.376 175.988 49.904C175.524 50.432 175.292 51.224 175.292 52.28V59H172.7V51.728C172.7 50.896 172.5 50.256 172.1 49.808C171.716 49.344 171.164 49.112 170.444 49.112C169.66 49.112 169.02 49.384 168.524 49.928C168.028 50.456 167.78 51.24 167.78 52.28V59H165.188V47H167.78V48.44C168.548 47.272 169.692 46.688 171.212 46.688C172.748 46.688 173.884 47.32 174.62 48.584C175.42 47.32 176.644 46.688 178.292 46.688ZM195.106 47H197.698V59H195.106V57.272C194.13 58.632 192.73 59.312 190.906 59.312C189.258 59.312 187.85 58.704 186.682 57.488C185.514 56.256 184.93 54.76 184.93 53C184.93 51.224 185.514 49.728 186.682 48.512C187.85 47.296 189.258 46.688 190.906 46.688C192.73 46.688 194.13 47.36 195.106 48.704V47ZM188.602 55.76C189.322 56.48 190.226 56.84 191.314 56.84C192.402 56.84 193.306 56.48 194.026 55.76C194.746 55.024 195.106 54.104 195.106 53C195.106 51.896 194.746 50.984 194.026 50.264C193.306 49.528 192.402 49.16 191.314 49.16C190.226 49.16 189.322 49.528 188.602 50.264C187.882 50.984 187.522 51.896 187.522 53C187.522 54.104 187.882 55.024 188.602 55.76ZM207.031 46.688C208.407 46.688 209.519 47.128 210.367 48.008C211.215 48.888 211.639 50.096 211.639 51.632V59H209.047V51.896C209.047 51 208.807 50.312 208.327 49.832C207.847 49.352 207.191 49.112 206.359 49.112C205.447 49.112 204.711 49.4 204.151 49.976C203.591 50.536 203.311 51.4 203.311 52.568V59H200.719V47H203.311V48.536C204.095 47.304 205.335 46.688 207.031 46.688ZM220.094 59.312C218.286 59.312 216.774 58.704 215.558 57.488C214.358 56.272 213.758 54.776 213.758 53C213.758 51.208 214.358 49.712 215.558 48.512C216.774 47.296 218.286 46.688 220.094 46.688C221.262 46.688 222.326 46.968 223.286 47.528C224.246 48.088 224.966 48.84 225.446 49.784L223.214 51.08C222.942 50.504 222.526 50.056 221.966 49.736C221.422 49.4 220.79 49.232 220.07 49.232C219.014 49.232 218.126 49.592 217.406 50.312C216.702 51.032 216.35 51.928 216.35 53C216.35 54.072 216.702 54.968 217.406 55.688C218.126 56.408 219.014 56.768 220.07 56.768C220.774 56.768 221.406 56.6 221.966 56.264C222.542 55.928 222.974 55.48 223.262 54.92L225.494 56.192C224.982 57.152 224.246 57.912 223.286 58.472C222.326 59.032 221.262 59.312 220.094 59.312ZM229.22 54.104C229.412 55.016 229.852 55.72 230.54 56.216C231.228 56.696 232.068 56.936 233.06 56.936C234.436 56.936 235.468 56.44 236.156 55.448L238.292 56.696C237.108 58.44 235.356 59.312 233.036 59.312C231.084 59.312 229.508 58.72 228.308 57.536C227.108 56.336 226.508 54.824 226.508 53C226.508 51.208 227.1 49.712 228.284 48.512C229.468 47.296 230.988 46.688 232.844 46.688C234.604 46.688 236.044 47.304 237.164 48.536C238.3 49.768 238.868 51.264 238.868 53.024C238.868 53.296 238.836 53.656 238.772 54.104H229.22ZM229.196 51.992H236.252C236.076 51.016 235.668 50.28 235.028 49.784C234.404 49.288 233.668 49.04 232.82 49.04C231.86 49.04 231.06 49.304 230.42 49.832C229.78 50.36 229.372 51.08 229.196 51.992Z" fill="#202020"/>
<path opacity="0.9" d="M40.3598 93.064C41.5758 93.352 42.5598 93.92 43.3118 94.768C44.0798 95.6 44.4637 96.648 44.4637 97.912C44.4637 99.592 43.8958 100.912 42.7598 101.872C41.6238 102.832 40.2318 103.312 38.5838 103.312C37.3038 103.312 36.1518 103.016 35.1278 102.424C34.1198 101.832 33.3918 100.968 32.9438 99.832L35.2958 98.464C35.7918 99.904 36.8878 100.624 38.5838 100.624C39.5438 100.624 40.3038 100.384 40.8638 99.904C41.4238 99.408 41.7038 98.744 41.7038 97.912C41.7038 97.08 41.4238 96.424 40.8638 95.944C40.3038 95.464 39.5438 95.224 38.5838 95.224H37.9598L36.8558 93.568L40.4798 88.792H33.4478V86.2H43.7678V88.552L40.3598 93.064ZM59.2854 97.408V99.976H57.3654V103H54.5814V99.976H46.3254V97.408L52.1094 86.2H55.1094L49.3254 97.408H54.5814V93.04H57.3654V97.408H59.2854ZM67.7113 93.064C68.9273 93.352 69.9113 93.92 70.6633 94.768C71.4313 95.6 71.8153 96.648 71.8153 97.912C71.8153 99.592 71.2473 100.912 70.1113 101.872C68.9753 102.832 67.5833 103.312 65.9353 103.312C64.6553 103.312 63.5033 103.016 62.4793 102.424C61.4713 101.832 60.7433 100.968 60.2953 99.832L62.6473 98.464C63.1433 99.904 64.2393 100.624 65.9353 100.624C66.8953 100.624 67.6553 100.384 68.2153 99.904C68.7753 99.408 69.0553 98.744 69.0553 97.912C69.0553 97.08 68.7753 96.424 68.2153 95.944C67.6553 95.464 66.8953 95.224 65.9353 95.224H65.3113L64.2073 93.568L67.8313 88.792H60.7993V86.2H71.1193V88.552L67.7113 93.064Z" fill="#202020"/>
<path opacity="0.8" d="M35.9856 122.204C36.6949 122.372 37.2689 122.703 37.7076 123.198C38.1556 123.683 38.3796 124.295 38.3796 125.032C38.3796 126.012 38.0482 126.782 37.3856 127.342C36.7229 127.902 35.9109 128.182 34.9496 128.182C34.2029 128.182 33.5309 128.009 32.9336 127.664C32.3456 127.319 31.9209 126.815 31.6596 126.152L33.0316 125.354C33.3209 126.194 33.9602 126.614 34.9496 126.614C35.5096 126.614 35.9529 126.474 36.2796 126.194C36.6062 125.905 36.7696 125.517 36.7696 125.032C36.7696 124.547 36.6062 124.164 36.2796 123.884C35.9529 123.604 35.5096 123.464 34.9496 123.464H34.5856L33.9416 122.498L36.0556 119.712H31.9536V118.2H37.9736V119.572L35.9856 122.204ZM43.2727 122.204C43.982 122.372 44.556 122.703 44.9947 123.198C45.4427 123.683 45.6667 124.295 45.6667 125.032C45.6667 126.012 45.3353 126.782 44.6727 127.342C44.01 127.902 43.198 128.182 42.2367 128.182C41.49 128.182 40.818 128.009 40.2207 127.664C39.6327 127.319 39.208 126.815 38.9467 126.152L40.3187 125.354C40.608 126.194 41.2473 126.614 42.2367 126.614C42.7967 126.614 43.24 126.474 43.5667 126.194C43.8933 125.905 44.0567 125.517 44.0567 125.032C44.0567 124.547 43.8933 124.164 43.5667 123.884C43.24 123.604 42.7967 123.464 42.2367 123.464H41.8727L41.2287 122.498L43.3427 119.712H39.2407V118.2H45.2607V119.572L43.2727 122.204ZM50.3534 121.854C49.9241 122.283 49.3827 122.498 48.7294 122.498C48.0761 122.498 47.5301 122.283 47.0914 121.854C46.6527 121.415 46.4334 120.883 46.4334 120.258C46.4334 119.633 46.6527 119.105 47.0914 118.676C47.5301 118.237 48.0761 118.018 48.7294 118.018C49.3827 118.018 49.9241 118.233 50.3534 118.662C50.7921 119.091 51.0114 119.623 51.0114 120.258C51.0114 120.883 50.7921 121.415 50.3534 121.854ZM48.7154 121.266C49.0141 121.266 49.2567 121.168 49.4434 120.972C49.6301 120.776 49.7234 120.538 49.7234 120.258C49.7234 119.969 49.6301 119.726 49.4434 119.53C49.2567 119.334 49.0141 119.236 48.7154 119.236C48.4261 119.236 48.1881 119.334 48.0014 119.53C47.8147 119.726 47.7214 119.969 47.7214 120.258C47.7214 120.538 47.8147 120.776 48.0014 120.972C48.1881 121.168 48.4261 121.266 48.7154 121.266ZM47.2594 126.558L53.7134 119.376L54.4694 119.81L48.0154 127.006L47.2594 126.558ZM53.2094 128.168C52.5561 128.168 52.0101 127.953 51.5714 127.524C51.1327 127.085 50.9134 126.553 50.9134 125.928C50.9134 125.303 51.1327 124.775 51.5714 124.346C52.0101 123.907 52.5561 123.688 53.2094 123.688C53.8534 123.688 54.3947 123.907 54.8334 124.346C55.2721 124.775 55.4914 125.303 55.4914 125.928C55.4914 126.553 55.2721 127.085 54.8334 127.524C54.3947 127.953 53.8534 128.168 53.2094 128.168ZM53.1954 126.936C53.4941 126.936 53.7367 126.838 53.9234 126.642C54.1101 126.446 54.2034 126.208 54.2034 125.928C54.2034 125.639 54.1101 125.396 53.9234 125.2C53.7367 125.004 53.4941 124.906 53.1954 124.906C52.9061 124.906 52.6681 125.004 52.4814 125.2C52.2947 125.396 52.2014 125.639 52.2014 125.928C52.2014 126.208 52.2947 126.446 52.4814 126.642C52.6681 126.838 52.9061 126.936 53.1954 126.936ZM63.8784 128.182C62.8517 128.182 61.979 127.827 61.2604 127.118C60.5417 126.409 60.1824 125.536 60.1824 124.5C60.1824 123.464 60.5417 122.591 61.2604 121.882C61.979 121.173 62.8517 120.818 63.8784 120.818C64.9144 120.818 65.787 121.173 66.4964 121.882C67.215 122.591 67.5744 123.464 67.5744 124.5C67.5744 125.536 67.215 126.409 66.4964 127.118C65.787 127.827 64.9144 128.182 63.8784 128.182ZM62.3244 126.082C62.7444 126.502 63.2624 126.712 63.8784 126.712C64.4944 126.712 65.0124 126.502 65.4324 126.082C65.8524 125.662 66.0624 125.135 66.0624 124.5C66.0624 123.865 65.8524 123.338 65.4324 122.918C65.0124 122.498 64.4944 122.288 63.8784 122.288C63.2624 122.288 62.7444 122.498 62.3244 122.918C61.9044 123.338 61.6944 123.865 61.6944 124.5C61.6944 125.135 61.9044 125.662 62.3244 126.082ZM72.3635 119.474C71.2621 119.371 70.7115 119.833 70.7115 120.86V121H72.3635V122.456H70.7115V128H69.1995V122.456H68.1355V121H69.1995V120.86C69.1995 119.899 69.4655 119.171 69.9975 118.676C70.5388 118.172 71.3275 117.953 72.3635 118.018V119.474ZM79.7162 121.896C80.6495 121.896 81.4382 122.176 82.0822 122.736C82.7262 123.287 83.0482 124.052 83.0482 125.032C83.0482 126.012 82.7169 126.782 82.0542 127.342C81.3915 127.902 80.5795 128.182 79.6182 128.182C78.8435 128.182 78.1575 128.005 77.5602 127.65C76.9629 127.286 76.5382 126.763 76.2862 126.082L77.6722 125.284C77.9335 126.171 78.5822 126.614 79.6182 126.614C80.1689 126.614 80.6075 126.474 80.9342 126.194C81.2702 125.905 81.4382 125.517 81.4382 125.032C81.4382 124.547 81.2749 124.164 80.9482 123.884C80.6215 123.604 80.1875 123.464 79.6462 123.464H76.7902L77.1682 118.2H82.6282V119.712H78.6522L78.4842 121.896H79.7162ZM85.843 118.2H87.243V128H85.633V119.922L83.659 120.482L83.267 119.11L85.843 118.2ZM88.7279 128V126.74L92.1439 123.254C92.9746 122.423 93.3899 121.705 93.3899 121.098C93.3899 120.622 93.2453 120.253 92.9559 119.992C92.6759 119.721 92.3166 119.586 91.8779 119.586C91.0566 119.586 90.4499 119.992 90.0579 120.804L88.6999 120.006C89.0079 119.353 89.4419 118.858 90.0019 118.522C90.5619 118.186 91.1826 118.018 91.8639 118.018C92.7226 118.018 93.4599 118.289 94.0759 118.83C94.6919 119.371 94.9999 120.109 94.9999 121.042C94.9999 122.041 94.4446 123.105 93.3339 124.234L91.1219 126.446H95.1819V128H88.7279ZM103.992 122.456H102.256V125.816C102.256 126.105 102.321 126.315 102.452 126.446C102.583 126.567 102.774 126.637 103.026 126.656C103.287 126.665 103.609 126.661 103.992 126.642V128C102.835 128.14 102.004 128.042 101.5 127.706C100.996 127.361 100.744 126.731 100.744 125.816V122.456H99.4561V121H100.744V119.488L102.256 119.04V121H103.992V122.456ZM110.62 121H112.132V128H110.62V126.992C110.051 127.785 109.234 128.182 108.17 128.182C107.209 128.182 106.388 127.827 105.706 127.118C105.025 126.399 104.684 125.527 104.684 124.5C104.684 123.464 105.025 122.591 105.706 121.882C106.388 121.173 107.209 120.818 108.17 120.818C109.234 120.818 110.051 121.21 110.62 121.994V121ZM106.826 126.11C107.246 126.53 107.774 126.74 108.408 126.74C109.043 126.74 109.57 126.53 109.99 126.11C110.41 125.681 110.62 125.144 110.62 124.5C110.62 123.856 110.41 123.324 109.99 122.904C109.57 122.475 109.043 122.26 108.408 122.26C107.774 122.26 107.246 122.475 106.826 122.904C106.406 123.324 106.196 123.856 106.196 124.5C106.196 125.144 106.406 125.681 106.826 126.11ZM115.212 122.932C115.212 123.165 115.338 123.352 115.59 123.492C115.851 123.623 116.164 123.739 116.528 123.842C116.901 123.935 117.274 124.047 117.648 124.178C118.021 124.309 118.334 124.533 118.586 124.85C118.847 125.158 118.978 125.55 118.978 126.026C118.978 126.698 118.716 127.225 118.194 127.608C117.68 127.991 117.032 128.182 116.248 128.182C115.557 128.182 114.964 128.037 114.47 127.748C113.975 127.459 113.616 127.057 113.392 126.544L114.694 125.788C114.936 126.46 115.454 126.796 116.248 126.796C117.041 126.796 117.438 126.535 117.438 126.012C117.438 125.788 117.307 125.606 117.046 125.466C116.794 125.326 116.481 125.209 116.108 125.116C115.744 125.013 115.375 124.897 115.002 124.766C114.628 124.635 114.311 124.421 114.05 124.122C113.798 123.814 113.672 123.427 113.672 122.96C113.672 122.316 113.914 121.798 114.4 121.406C114.894 121.014 115.506 120.818 116.234 120.818C116.812 120.818 117.326 120.949 117.774 121.21C118.231 121.462 118.581 121.817 118.824 122.274L117.55 122.988C117.307 122.456 116.868 122.19 116.234 122.19C115.944 122.19 115.702 122.255 115.506 122.386C115.31 122.507 115.212 122.689 115.212 122.932ZM126.413 128H124.607L121.737 124.766V128H120.225V118.2H121.737V124.094L124.453 121H126.301L123.221 124.43L126.413 128ZM128.296 122.932C128.296 123.165 128.422 123.352 128.674 123.492C128.935 123.623 129.248 123.739 129.612 123.842C129.985 123.935 130.358 124.047 130.732 124.178C131.105 124.309 131.418 124.533 131.67 124.85C131.931 125.158 132.062 125.55 132.062 126.026C132.062 126.698 131.8 127.225 131.278 127.608C130.764 127.991 130.116 128.182 129.332 128.182C128.641 128.182 128.048 128.037 127.554 127.748C127.059 127.459 126.7 127.057 126.476 126.544L127.778 125.788C128.02 126.46 128.538 126.796 129.332 126.796C130.125 126.796 130.522 126.535 130.522 126.012C130.522 125.788 130.391 125.606 130.13 125.466C129.878 125.326 129.565 125.209 129.192 125.116C128.828 125.013 128.459 124.897 128.086 124.766C127.712 124.635 127.395 124.421 127.134 124.122C126.882 123.814 126.756 123.427 126.756 122.96C126.756 122.316 126.998 121.798 127.484 121.406C127.978 121.014 128.59 120.818 129.318 120.818C129.896 120.818 130.41 120.949 130.858 121.21C131.315 121.462 131.665 121.817 131.908 122.274L130.634 122.988C130.391 122.456 129.952 122.19 129.318 122.19C129.028 122.19 128.786 122.255 128.59 122.386C128.394 122.507 128.296 122.689 128.296 122.932ZM138.403 122.176C138.785 121.308 139.504 120.874 140.559 120.874V122.512C139.98 122.475 139.476 122.615 139.047 122.932C138.617 123.24 138.403 123.753 138.403 124.472V128H136.891V121H138.403V122.176ZM142.538 125.144C142.65 125.676 142.906 126.087 143.308 126.376C143.709 126.656 144.199 126.796 144.778 126.796C145.58 126.796 146.182 126.507 146.584 125.928L147.83 126.656C147.139 127.673 146.117 128.182 144.764 128.182C143.625 128.182 142.706 127.837 142.006 127.146C141.306 126.446 140.956 125.564 140.956 124.5C140.956 123.455 141.301 122.582 141.992 121.882C142.682 121.173 143.569 120.818 144.652 120.818C145.678 120.818 146.518 121.177 147.172 121.896C147.834 122.615 148.166 123.487 148.166 124.514C148.166 124.673 148.147 124.883 148.11 125.144H142.538ZM142.524 123.912H146.64C146.537 123.343 146.299 122.913 145.926 122.624C145.562 122.335 145.132 122.19 144.638 122.19C144.078 122.19 143.611 122.344 143.238 122.652C142.864 122.96 142.626 123.38 142.524 123.912ZM157.14 120.818C157.934 120.818 158.573 121.075 159.058 121.588C159.544 122.101 159.786 122.792 159.786 123.66V128H158.274V123.758C158.274 123.273 158.153 122.899 157.91 122.638C157.668 122.367 157.336 122.232 156.916 122.232C156.45 122.232 156.076 122.386 155.796 122.694C155.526 123.002 155.39 123.464 155.39 124.08V128H153.878V123.758C153.878 123.273 153.762 122.899 153.528 122.638C153.304 122.367 152.982 122.232 152.562 122.232C152.105 122.232 151.732 122.391 151.442 122.708C151.153 123.016 151.008 123.473 151.008 124.08V128H149.496V121H151.008V121.84C151.456 121.159 152.124 120.818 153.01 120.818C153.906 120.818 154.569 121.187 154.998 121.924C155.465 121.187 156.179 120.818 157.14 120.818ZM166.948 121H168.46V128H166.948V126.992C166.379 127.785 165.562 128.182 164.498 128.182C163.537 128.182 162.716 127.827 162.034 127.118C161.353 126.399 161.012 125.527 161.012 124.5C161.012 123.464 161.353 122.591 162.034 121.882C162.716 121.173 163.537 120.818 164.498 120.818C165.562 120.818 166.379 121.21 166.948 121.994V121ZM163.154 126.11C163.574 126.53 164.102 126.74 164.736 126.74C165.371 126.74 165.898 126.53 166.318 126.11C166.738 125.681 166.948 125.144 166.948 124.5C166.948 123.856 166.738 123.324 166.318 122.904C165.898 122.475 165.371 122.26 164.736 122.26C164.102 122.26 163.574 122.475 163.154 122.904C162.734 123.324 162.524 123.856 162.524 124.5C162.524 125.144 162.734 125.681 163.154 126.11ZM171.651 119.67C171.464 119.857 171.24 119.95 170.979 119.95C170.717 119.95 170.489 119.857 170.293 119.67C170.106 119.474 170.013 119.245 170.013 118.984C170.013 118.723 170.106 118.499 170.293 118.312C170.479 118.116 170.708 118.018 170.979 118.018C171.249 118.018 171.478 118.116 171.665 118.312C171.851 118.499 171.945 118.723 171.945 118.984C171.945 119.245 171.847 119.474 171.651 119.67ZM170.223 128V121H171.735V128H170.223ZM177.172 120.818C177.975 120.818 178.624 121.075 179.118 121.588C179.613 122.101 179.86 122.806 179.86 123.702V128H178.348V123.856C178.348 123.333 178.208 122.932 177.928 122.652C177.648 122.372 177.266 122.232 176.78 122.232C176.248 122.232 175.819 122.4 175.492 122.736C175.166 123.063 175.002 123.567 175.002 124.248V128H173.49V121H175.002V121.896C175.46 121.177 176.183 120.818 177.172 120.818ZM182.916 119.67C182.73 119.857 182.506 119.95 182.244 119.95C181.983 119.95 181.754 119.857 181.558 119.67C181.372 119.474 181.278 119.245 181.278 118.984C181.278 118.723 181.372 118.499 181.558 118.312C181.745 118.116 181.974 118.018 182.244 118.018C182.515 118.018 182.744 118.116 182.93 118.312C183.117 118.499 183.21 118.723 183.21 118.984C183.21 119.245 183.112 119.474 182.916 119.67ZM181.488 128V121H183V128H181.488ZM188.438 120.818C189.241 120.818 189.889 121.075 190.384 121.588C190.879 122.101 191.126 122.806 191.126 123.702V128H189.614V123.856C189.614 123.333 189.474 122.932 189.194 122.652C188.914 122.372 188.531 122.232 188.046 122.232C187.514 122.232 187.085 122.4 186.758 122.736C186.431 123.063 186.268 123.567 186.268 124.248V128H184.756V121H186.268V121.896C186.725 121.177 187.449 120.818 188.438 120.818ZM198.326 121H199.81V127.678C199.81 128.742 199.46 129.559 198.76 130.128C198.06 130.697 197.211 130.982 196.212 130.982C194.597 130.982 193.491 130.417 192.894 129.288L194.196 128.532C194.56 129.251 195.241 129.61 196.24 129.61C196.893 129.61 197.402 129.437 197.766 129.092C198.139 128.756 198.326 128.285 198.326 127.678V126.824C197.757 127.636 196.945 128.042 195.89 128.042C194.901 128.042 194.065 127.692 193.384 126.992C192.703 126.283 192.362 125.429 192.362 124.43C192.362 123.431 192.703 122.582 193.384 121.882C194.065 121.173 194.901 120.818 195.89 120.818C196.945 120.818 197.757 121.224 198.326 122.036V121ZM194.504 125.998C194.933 126.418 195.465 126.628 196.1 126.628C196.735 126.628 197.262 126.418 197.682 125.998C198.111 125.578 198.326 125.055 198.326 124.43C198.326 123.805 198.111 123.282 197.682 122.862C197.262 122.442 196.735 122.232 196.1 122.232C195.465 122.232 194.933 122.442 194.504 122.862C194.084 123.282 193.874 123.805 193.874 124.43C193.874 125.055 194.084 125.578 194.504 125.998Z" fill="#202020"/>
<rect x="30" y="144" width="281" height="5" fill="#D9D9D9"/>
<rect x="30" y="144" width="71" height="5" fill="#085881"/>
<path opacity="0.9" d="M45.059 191.16C43.659 192.56 41.9457 193.26 39.919 193.26C37.8923 193.26 36.1723 192.56 34.759 191.16C33.359 189.747 32.659 188.027 32.659 186C32.659 183.973 33.359 182.26 34.759 180.86C36.1723 179.447 37.8923 178.74 39.919 178.74C41.9457 178.74 43.659 179.447 45.059 180.86C46.4723 182.26 47.179 183.973 47.179 186C47.179 188.027 46.4723 189.747 45.059 191.16ZM36.379 189.6C37.339 190.547 38.519 191.02 39.919 191.02C41.319 191.02 42.4923 190.547 43.439 189.6C44.399 188.64 44.879 187.44 44.879 186C44.879 184.56 44.399 183.367 43.439 182.42C42.4923 181.46 41.319 180.98 39.919 180.98C38.519 180.98 37.339 181.46 36.379 182.42C35.4323 183.367 34.959 184.56 34.959 186C34.959 187.44 35.4323 188.64 36.379 189.6ZM51.297 184.68C51.8436 183.44 52.8703 182.82 54.377 182.82V185.16C53.5503 185.107 52.8303 185.307 52.217 185.76C51.6036 186.2 51.297 186.933 51.297 187.96V193H49.137V183H51.297V184.68ZM63.4641 183H65.5841V192.54C65.5841 194.06 65.0841 195.227 64.0841 196.04C63.0841 196.853 61.8708 197.26 60.4441 197.26C58.1375 197.26 56.5575 196.453 55.7041 194.84L57.5641 193.76C58.0841 194.787 59.0575 195.3 60.4841 195.3C61.4175 195.3 62.1441 195.053 62.6641 194.56C63.1975 194.08 63.4641 193.407 63.4641 192.54V191.32C62.6508 192.48 61.4908 193.06 59.9841 193.06C58.5708 193.06 57.3775 192.56 56.4041 191.56C55.4308 190.547 54.9441 189.327 54.9441 187.9C54.9441 186.473 55.4308 185.26 56.4041 184.26C57.3775 183.247 58.5708 182.74 59.9841 182.74C61.4908 182.74 62.6508 183.32 63.4641 184.48V183ZM58.0041 190.14C58.6175 190.74 59.3775 191.04 60.2841 191.04C61.1908 191.04 61.9441 190.74 62.5441 190.14C63.1575 189.54 63.4641 188.793 63.4641 187.9C63.4641 187.007 63.1575 186.26 62.5441 185.66C61.9441 185.06 61.1908 184.76 60.2841 184.76C59.3775 184.76 58.6175 185.06 58.0041 185.66C57.4041 186.26 57.1041 187.007 57.1041 187.9C57.1041 188.793 57.4041 189.54 58.0041 190.14ZM78.7618 182.74C80.1351 182.74 81.3085 183.253 82.2818 184.28C83.2551 185.293 83.7418 186.533 83.7418 188C83.7418 189.48 83.2551 190.727 82.2818 191.74C81.3085 192.753 80.1351 193.26 78.7618 193.26C77.2418 193.26 76.0751 192.7 75.2618 191.58V197H73.1018V183H75.2618V184.44C76.0751 183.307 77.2418 182.74 78.7618 182.74ZM76.1618 190.3C76.7618 190.9 77.5151 191.2 78.4218 191.2C79.3285 191.2 80.0818 190.9 80.6818 190.3C81.2818 189.687 81.5818 188.92 81.5818 188C81.5818 187.08 81.2818 186.32 80.6818 185.72C80.0818 185.107 79.3285 184.8 78.4218 184.8C77.5151 184.8 76.7618 185.107 76.1618 185.72C75.5618 186.32 75.2618 187.08 75.2618 188C75.2618 188.92 75.5618 189.687 76.1618 190.3ZM87.3995 188.92C87.5595 189.68 87.9261 190.267 88.4995 190.68C89.0728 191.08 89.7728 191.28 90.5995 191.28C91.7461 191.28 92.6061 190.867 93.1795 190.04L94.9595 191.08C93.9728 192.533 92.5128 193.26 90.5795 193.26C88.9528 193.26 87.6395 192.767 86.6395 191.78C85.6395 190.78 85.1395 189.52 85.1395 188C85.1395 186.507 85.6328 185.26 86.6195 184.26C87.6061 183.247 88.8728 182.74 90.4195 182.74C91.8861 182.74 93.0861 183.253 94.0195 184.28C94.9661 185.307 95.4395 186.553 95.4395 188.02C95.4395 188.247 95.4128 188.547 95.3595 188.92H87.3995ZM87.3795 187.16H93.2595C93.1128 186.347 92.7728 185.733 92.2395 185.32C91.7195 184.907 91.1061 184.7 90.3995 184.7C89.5995 184.7 88.9328 184.92 88.3995 185.36C87.8661 185.8 87.5261 186.4 87.3795 187.16ZM99.5001 184.68C100.047 183.44 101.073 182.82 102.58 182.82V185.16C101.753 185.107 101.033 185.307 100.42 185.76C99.8067 186.2 99.5001 186.933 99.5001 187.96V193H97.3401V183H99.5001V184.68ZM109.416 180.82C107.843 180.673 107.056 181.333 107.056 182.8V183H109.416V185.08H107.056V193H104.896V185.08H103.376V183H104.896V182.8C104.896 181.427 105.276 180.387 106.036 179.68C106.809 178.96 107.936 178.647 109.416 178.74V180.82ZM114.931 193.26C113.465 193.26 112.218 192.753 111.191 191.74C110.165 190.727 109.651 189.48 109.651 188C109.651 186.52 110.165 185.273 111.191 184.26C112.218 183.247 113.465 182.74 114.931 182.74C116.411 182.74 117.658 183.247 118.671 184.26C119.698 185.273 120.211 186.52 120.211 188C120.211 189.48 119.698 190.727 118.671 191.74C117.658 192.753 116.411 193.26 114.931 193.26ZM112.711 190.26C113.311 190.86 114.051 191.16 114.931 191.16C115.811 191.16 116.551 190.86 117.151 190.26C117.751 189.66 118.051 188.907 118.051 188C118.051 187.093 117.751 186.34 117.151 185.74C116.551 185.14 115.811 184.84 114.931 184.84C114.051 184.84 113.311 185.14 112.711 185.74C112.111 186.34 111.811 187.093 111.811 188C111.811 188.907 112.111 189.66 112.711 190.26ZM124.324 184.68C124.871 183.44 125.898 182.82 127.404 182.82V185.16C126.578 185.107 125.858 185.307 125.244 185.76C124.631 186.2 124.324 186.933 124.324 187.96V193H122.164V183H124.324V184.68ZM139.92 182.74C141.054 182.74 141.967 183.107 142.66 183.84C143.354 184.573 143.7 185.56 143.7 186.8V193H141.54V186.94C141.54 186.247 141.367 185.713 141.02 185.34C140.674 184.953 140.2 184.76 139.6 184.76C138.934 184.76 138.4 184.98 138 185.42C137.614 185.86 137.42 186.52 137.42 187.4V193H135.26V186.94C135.26 186.247 135.094 185.713 134.76 185.34C134.44 184.953 133.98 184.76 133.38 184.76C132.727 184.76 132.194 184.987 131.78 185.44C131.367 185.88 131.16 186.533 131.16 187.4V193H129V183H131.16V184.2C131.8 183.227 132.754 182.74 134.02 182.74C135.3 182.74 136.247 183.267 136.86 184.32C137.527 183.267 138.547 182.74 139.92 182.74ZM153.932 183H156.092V193H153.932V191.56C153.119 192.693 151.952 193.26 150.432 193.26C149.059 193.26 147.885 192.753 146.912 191.74C145.939 190.713 145.452 189.467 145.452 188C145.452 186.52 145.939 185.273 146.912 184.26C147.885 183.247 149.059 182.74 150.432 182.74C151.952 182.74 153.119 183.3 153.932 184.42V183ZM148.512 190.3C149.112 190.9 149.865 191.2 150.772 191.2C151.679 191.2 152.432 190.9 153.032 190.3C153.632 189.687 153.932 188.92 153.932 188C153.932 187.08 153.632 186.32 153.032 185.72C152.432 185.107 151.679 184.8 150.772 184.8C149.865 184.8 149.112 185.107 148.512 185.72C147.912 186.32 147.612 187.08 147.612 188C147.612 188.92 147.912 189.687 148.512 190.3ZM163.87 182.74C165.016 182.74 165.943 183.107 166.65 183.84C167.356 184.573 167.71 185.58 167.71 186.86V193H165.55V187.08C165.55 186.333 165.35 185.76 164.95 185.36C164.55 184.96 164.003 184.76 163.31 184.76C162.55 184.76 161.936 185 161.47 185.48C161.003 185.947 160.77 186.667 160.77 187.64V193H158.61V183H160.77V184.28C161.423 183.253 162.456 182.74 163.87 182.74ZM174.755 193.26C173.249 193.26 171.989 192.753 170.975 191.74C169.975 190.727 169.475 189.48 169.475 188C169.475 186.507 169.975 185.26 170.975 184.26C171.989 183.247 173.249 182.74 174.755 182.74C175.729 182.74 176.615 182.973 177.415 183.44C178.215 183.907 178.815 184.533 179.215 185.32L177.355 186.4C177.129 185.92 176.782 185.547 176.315 185.28C175.862 185 175.335 184.86 174.735 184.86C173.855 184.86 173.115 185.16 172.515 185.76C171.929 186.36 171.635 187.107 171.635 188C171.635 188.893 171.929 189.64 172.515 190.24C173.115 190.84 173.855 191.14 174.735 191.14C175.322 191.14 175.849 191 176.315 190.72C176.795 190.44 177.155 190.067 177.395 189.6L179.255 190.66C178.829 191.46 178.215 192.093 177.415 192.56C176.615 193.027 175.729 193.26 174.755 193.26ZM182.36 188.92C182.52 189.68 182.887 190.267 183.46 190.68C184.034 191.08 184.734 191.28 185.56 191.28C186.707 191.28 187.567 190.867 188.14 190.04L189.92 191.08C188.934 192.533 187.474 193.26 185.54 193.26C183.914 193.26 182.6 192.767 181.6 191.78C180.6 190.78 180.1 189.52 180.1 188C180.1 186.507 180.594 185.26 181.58 184.26C182.567 183.247 183.834 182.74 185.38 182.74C186.847 182.74 188.047 183.253 188.98 184.28C189.927 185.307 190.4 186.553 190.4 188.02C190.4 188.247 190.374 188.547 190.32 188.92H182.36ZM182.34 187.16H188.22C188.074 186.347 187.734 185.733 187.2 185.32C186.68 184.907 186.067 184.7 185.36 184.7C184.56 184.7 183.894 184.92 183.36 185.36C182.827 185.8 182.487 186.4 182.34 187.16Z" fill="#202020"/>
<path opacity="0.9" d="M43.4175 223.624C43.4175 224.904 43.0815 226.032 42.4095 227.008L37.1055 235H33.9375L37.7775 229.36H37.4895C35.7455 229.36 34.3135 228.832 33.1935 227.776C32.0895 226.704 31.5375 225.32 31.5375 223.624C31.5375 221.928 32.0895 220.552 33.1935 219.496C34.3135 218.424 35.7455 217.888 37.4895 217.888C39.2335 217.888 40.6575 218.424 41.7615 219.496C42.8655 220.552 43.4175 221.928 43.4175 223.624ZM34.2975 223.624C34.2975 224.552 34.5935 225.304 35.1855 225.88C35.7935 226.456 36.5615 226.744 37.4895 226.744C38.4175 226.744 39.1775 226.464 39.7695 225.904C40.3615 225.328 40.6575 224.568 40.6575 223.624C40.6575 222.68 40.3615 221.928 39.7695 221.368C39.1775 220.792 38.4175 220.504 37.4895 220.504C36.5615 220.504 35.7935 220.792 35.1855 221.368C34.5935 221.928 34.2975 222.68 34.2975 223.624ZM48.7436 218.2H51.1436V235H48.3836V221.152L44.9996 222.112L44.3276 219.76L48.7436 218.2ZM65.3533 232.936C64.2013 234.52 62.5853 235.312 60.5053 235.312C58.4253 235.312 56.8013 234.52 55.6333 232.936C54.4813 231.352 53.9053 229.24 53.9053 226.6C53.9053 223.96 54.4813 221.848 55.6333 220.264C56.8013 218.68 58.4253 217.888 60.5053 217.888C62.5853 217.888 64.2013 218.68 65.3533 220.264C66.5213 221.848 67.1053 223.96 67.1053 226.6C67.1053 229.24 66.5213 231.352 65.3533 232.936ZM60.5053 232.624C61.7533 232.624 62.7053 232.104 63.3613 231.064C64.0173 230.024 64.3453 228.536 64.3453 226.6C64.3453 224.664 64.0173 223.176 63.3613 222.136C62.7053 221.096 61.7533 220.576 60.5053 220.576C59.2733 220.576 58.3213 221.096 57.6493 222.136C56.9933 223.176 56.6653 224.664 56.6653 226.6C56.6653 228.536 56.9933 230.024 57.6493 231.064C58.3213 232.104 59.2733 232.624 60.5053 232.624Z" fill="#202020"/>
<path opacity="0.8" d="M33.8686 253.896C34.8019 253.896 35.5906 254.176 36.2346 254.736C36.8786 255.287 37.2006 256.052 37.2006 257.032C37.2006 258.012 36.8692 258.782 36.2066 259.342C35.5439 259.902 34.7319 260.182 33.7706 260.182C32.9959 260.182 32.3099 260.005 31.7126 259.65C31.1152 259.286 30.6906 258.763 30.4386 258.082L31.8246 257.284C32.0859 258.171 32.7346 258.614 33.7706 258.614C34.3212 258.614 34.7599 258.474 35.0866 258.194C35.4226 257.905 35.5906 257.517 35.5906 257.032C35.5906 256.547 35.4272 256.164 35.1006 255.884C34.7739 255.604 34.3399 255.464 33.7986 255.464H30.9426L31.3206 250.2H36.7806V251.712H32.8046L32.6366 253.896H33.8686ZM44.6667 258.796C43.9947 259.72 43.052 260.182 41.8387 260.182C40.6254 260.182 39.678 259.72 38.9967 258.796C38.3247 257.872 37.9887 256.64 37.9887 255.1C37.9887 253.56 38.3247 252.328 38.9967 251.404C39.678 250.48 40.6254 250.018 41.8387 250.018C43.052 250.018 43.9947 250.48 44.6667 251.404C45.348 252.328 45.6887 253.56 45.6887 255.1C45.6887 256.64 45.348 257.872 44.6667 258.796ZM41.8387 258.614C42.5667 258.614 43.122 258.311 43.5047 257.704C43.8874 257.097 44.0787 256.229 44.0787 255.1C44.0787 253.971 43.8874 253.103 43.5047 252.496C43.122 251.889 42.5667 251.586 41.8387 251.586C41.12 251.586 40.5647 251.889 40.1727 252.496C39.79 253.103 39.5987 253.971 39.5987 255.1C39.5987 256.229 39.79 257.097 40.1727 257.704C40.5647 258.311 41.12 258.614 41.8387 258.614ZM50.5936 253.854C50.1643 254.283 49.623 254.498 48.9696 254.498C48.3163 254.498 47.7703 254.283 47.3316 253.854C46.893 253.415 46.6736 252.883 46.6736 252.258C46.6736 251.633 46.893 251.105 47.3316 250.676C47.7703 250.237 48.3163 250.018 48.9696 250.018C49.623 250.018 50.1643 250.233 50.5936 250.662C51.0323 251.091 51.2516 251.623 51.2516 252.258C51.2516 252.883 51.0323 253.415 50.5936 253.854ZM48.9556 253.266C49.2543 253.266 49.497 253.168 49.6836 252.972C49.8703 252.776 49.9636 252.538 49.9636 252.258C49.9636 251.969 49.8703 251.726 49.6836 251.53C49.497 251.334 49.2543 251.236 48.9556 251.236C48.6663 251.236 48.4283 251.334 48.2416 251.53C48.055 251.726 47.9616 251.969 47.9616 252.258C47.9616 252.538 48.055 252.776 48.2416 252.972C48.4283 253.168 48.6663 253.266 48.9556 253.266ZM47.4996 258.558L53.9536 251.376L54.7096 251.81L48.2556 259.006L47.4996 258.558ZM53.4496 260.168C52.7963 260.168 52.2503 259.953 51.8116 259.524C51.373 259.085 51.1536 258.553 51.1536 257.928C51.1536 257.303 51.373 256.775 51.8116 256.346C52.2503 255.907 52.7963 255.688 53.4496 255.688C54.0936 255.688 54.635 255.907 55.0736 256.346C55.5123 256.775 55.7316 257.303 55.7316 257.928C55.7316 258.553 55.5123 259.085 55.0736 259.524C54.635 259.953 54.0936 260.168 53.4496 260.168ZM53.4356 258.936C53.7343 258.936 53.977 258.838 54.1636 258.642C54.3503 258.446 54.4436 258.208 54.4436 257.928C54.4436 257.639 54.3503 257.396 54.1636 257.2C53.977 257.004 53.7343 256.906 53.4356 256.906C53.1463 256.906 52.9083 257.004 52.7216 257.2C52.535 257.396 52.4416 257.639 52.4416 257.928C52.4416 258.208 52.535 258.446 52.7216 258.642C52.9083 258.838 53.1463 258.936 53.4356 258.936ZM64.1186 260.182C63.092 260.182 62.2193 259.827 61.5006 259.118C60.782 258.409 60.4226 257.536 60.4226 256.5C60.4226 255.464 60.782 254.591 61.5006 253.882C62.2193 253.173 63.092 252.818 64.1186 252.818C65.1546 252.818 66.0273 253.173 66.7366 253.882C67.4553 254.591 67.8146 255.464 67.8146 256.5C67.8146 257.536 67.4553 258.409 66.7366 259.118C66.0273 259.827 65.1546 260.182 64.1186 260.182ZM62.5646 258.082C62.9846 258.502 63.5026 258.712 64.1186 258.712C64.7346 258.712 65.2526 258.502 65.6726 258.082C66.0926 257.662 66.3026 257.135 66.3026 256.5C66.3026 255.865 66.0926 255.338 65.6726 254.918C65.2526 254.498 64.7346 254.288 64.1186 254.288C63.5026 254.288 62.9846 254.498 62.5646 254.918C62.1446 255.338 61.9346 255.865 61.9346 256.5C61.9346 257.135 62.1446 257.662 62.5646 258.082ZM72.6037 251.474C71.5024 251.371 70.9517 251.833 70.9517 252.86V253H72.6037V254.456H70.9517V260H69.4397V254.456H68.3757V253H69.4397V252.86C69.4397 251.899 69.7057 251.171 70.2377 250.676C70.779 250.172 71.5677 249.953 72.6037 250.018V251.474ZM78.8644 250.2H80.2644V260H78.6544V251.922L76.6804 252.482L76.2884 251.11L78.8644 250.2ZM87.2374 254.904C88.1988 255.436 88.6794 256.229 88.6794 257.284C88.6794 258.18 88.3668 258.889 87.7414 259.412C87.1161 259.925 86.2854 260.182 85.2494 260.182C84.2134 260.182 83.3781 259.925 82.7434 259.412C82.1181 258.889 81.8054 258.18 81.8054 257.284C81.8054 256.78 81.9314 256.323 82.1834 255.912C82.4354 255.492 82.7901 255.156 83.2474 254.904C82.5101 254.419 82.1414 253.728 82.1414 252.832C82.1414 251.936 82.4401 251.245 83.0374 250.76C83.6348 250.265 84.3721 250.018 85.2494 250.018C86.1174 250.018 86.8501 250.265 87.4474 250.76C88.0541 251.245 88.3574 251.936 88.3574 252.832C88.3574 253.728 87.9841 254.419 87.2374 254.904ZM85.2494 251.544C84.8108 251.544 84.4514 251.661 84.1714 251.894C83.8914 252.127 83.7514 252.463 83.7514 252.902C83.7514 253.322 83.8914 253.653 84.1714 253.896C84.4608 254.139 84.8201 254.26 85.2494 254.26C85.6694 254.26 86.0241 254.139 86.3134 253.896C86.6028 253.653 86.7474 253.322 86.7474 252.902C86.7474 252.463 86.6028 252.127 86.3134 251.894C86.0334 251.661 85.6788 251.544 85.2494 251.544ZM85.2494 258.656C85.7908 258.656 86.2294 258.525 86.5654 258.264C86.9014 257.993 87.0694 257.615 87.0694 257.13C87.0694 256.645 86.9014 256.271 86.5654 256.01C86.2294 255.739 85.7908 255.604 85.2494 255.604C84.6988 255.604 84.2554 255.739 83.9194 256.01C83.5834 256.271 83.4154 256.645 83.4154 257.13C83.4154 257.615 83.5834 257.993 83.9194 258.264C84.2554 258.525 84.6988 258.656 85.2494 258.656ZM89.3236 260V258.74L92.7396 255.254C93.5703 254.423 93.9856 253.705 93.9856 253.098C93.9856 252.622 93.841 252.253 93.5516 251.992C93.2716 251.721 92.9123 251.586 92.4736 251.586C91.6523 251.586 91.0456 251.992 90.6536 252.804L89.2956 252.006C89.6036 251.353 90.0376 250.858 90.5976 250.522C91.1576 250.186 91.7783 250.018 92.4596 250.018C93.3183 250.018 94.0556 250.289 94.6716 250.83C95.2876 251.371 95.5956 252.109 95.5956 253.042C95.5956 254.041 95.0403 255.105 93.9296 256.234L91.7176 258.446H95.7776V260H89.3236ZM103.401 258.796C102.729 259.72 101.786 260.182 100.573 260.182C99.3598 260.182 98.4124 259.72 97.7311 258.796C97.0591 257.872 96.7231 256.64 96.7231 255.1C96.7231 253.56 97.0591 252.328 97.7311 251.404C98.4124 250.48 99.3598 250.018 100.573 250.018C101.786 250.018 102.729 250.48 103.401 251.404C104.082 252.328 104.423 253.56 104.423 255.1C104.423 256.64 104.082 257.872 103.401 258.796ZM100.573 258.614C101.301 258.614 101.856 258.311 102.239 257.704C102.622 257.097 102.813 256.229 102.813 255.1C102.813 253.971 102.622 253.103 102.239 252.496C101.856 251.889 101.301 251.586 100.573 251.586C99.8544 251.586 99.2991 251.889 98.9071 252.496C98.5244 253.103 98.3331 253.971 98.3331 255.1C98.3331 256.229 98.5244 257.097 98.9071 257.704C99.2991 258.311 99.8544 258.614 100.573 258.614Z" fill="#202020"/>
<rect x="31" y="277" width="281" height="5" fill="#D9D9D9"/>
<rect x="30" y="277" width="167" height="5" fill="#6ED477"/>
<rect x="120" y="250" width="97" height="12" rx="6" fill="#D9D9D9"/>
</svg>
