<svg width="64" height="64" viewBox="0 0 64 64" fill="none" xmlns="http://www.w3.org/2000/svg">
<g id="python-Custom_software_services_2.svg">
<g id="Clip path group">
<mask id="mask0_7029_221" style="mask-type:luminance" maskUnits="userSpaceOnUse" x="4" y="4" width="56" height="56">
<g id="clip0_1_6241">
<path id="Vector" d="M4.28826 4.28906H59.7109V59.7117H4.28826V4.28906Z" fill="white"/>
</g>
</mask>
<g mask="url(#mask0_7029_221)">
<g id="Group">
<path id="Vector_2" d="M4.28906 53.1091V51.4854H23.7736V53.1091C23.7736 55.795 21.5883 57.9802 18.9024 57.9802H9.16019C6.47431 57.9802 4.28906 55.795 4.28906 53.1091Z" fill="#1265FF"/>
<path id="Vector_3" d="M23.7736 35.248H4.28906V48.2377H23.7736V35.248Z" fill="#1265FF"/>
<path id="Vector_4" d="M4.28906 30.3771C4.28906 27.6912 6.47431 25.5059 9.16019 25.5059H18.9024C21.5883 25.5059 23.7736 27.6912 23.7736 30.3771V32.0007H4.28906V30.3771Z" fill="#1265FF"/>
<path id="Vector_5" fill-rule="evenodd" clip-rule="evenodd" d="M18.9024 22.2586C23.3787 22.2586 27.021 25.9009 27.021 30.3772V38.4957H59.7117V10.8926C59.7117 8.20672 57.5265 6.02148 54.8406 6.02148H9.16019C6.47431 6.02148 4.28906 8.20672 4.28906 10.8926V23.9237C5.65019 22.8933 7.3255 22.2586 9.16019 22.2586H18.9024ZM32.6602 21.9745C32.6602 16.5892 37.0353 12.2071 42.4131 12.2071C47.7906 12.2071 52.1657 16.5892 52.1657 21.9745C52.1657 27.3595 47.7906 31.7416 42.4131 31.7416C37.0353 31.7416 32.6602 27.3595 32.6602 21.9745ZM41.6901 26.0558L48.0067 19.7334C48.6292 19.11 48.6288 18.0998 48.0054 17.4768C47.382 16.8539 46.3718 16.8543 45.7489 17.4777L39.8104 23.4211L38.1266 21.7376C37.5036 21.1143 36.4929 21.1143 35.87 21.7376C35.2467 22.3606 35.2467 23.3712 35.87 23.9942L37.9321 26.0567C38.4337 26.5582 39.101 26.8346 39.8104 26.8346H39.8112C40.521 26.8346 41.188 26.5578 41.6901 26.0558Z" fill="#1265FF"/>
<path id="Vector_6" d="M54.8431 48.238H27.0234V41.7432H59.7142V43.3669C59.7142 46.0528 57.5289 48.238 54.8431 48.238Z" fill="#1265FF"/>
<path id="Vector_7" d="M27.0245 53.1091V51.4854H41.8332L42.9158 54.7328H48.241C49.1383 54.7328 49.8647 55.4592 49.8647 56.3565C49.8647 57.2538 49.1383 57.9802 48.241 57.9802H25.3594C26.3898 56.6191 27.0245 54.9438 27.0245 53.1091Z" fill="#1265FF"/>
</g>
</g>
</g>
</g>
</svg>
