<svg width="84" height="84" viewBox="0 0 84 84" fill="none" xmlns="http://www.w3.org/2000/svg">
<g clip-path="url(#clip0_4616_3258)">
<path d="M25.3333 0.187607C25.281 0.275033 25.0178 1.60702 24.7375 3.11471L24.2645 5.88325L22.4593 6.37352C21.4608 6.63667 20.619 6.82952 20.602 6.81152C20.1991 6.18067 16.9394 2.465 16.7816 2.465C16.4311 2.465 11.8917 5.14611 11.7872 5.40925C11.6997 5.6724 11.9449 6.4781 12.9786 9.38721L13.5391 10.9643L12.2594 12.226C11.5583 12.9272 10.9455 13.5057 10.8752 13.5057C10.8229 13.5057 9.68377 13.1029 8.35178 12.6297C7.00266 12.1395 5.7581 11.7537 5.5481 11.7889C5.30297 11.824 4.79468 12.5252 3.83041 14.2077C3.07614 15.5045 2.46329 16.6609 2.46329 16.7834C2.46329 16.924 6.16096 20.2007 6.80981 20.6037C6.82694 20.6216 6.63494 21.4625 6.37181 22.4611L5.88152 24.2662L3.11299 24.7393C1.60615 25.0196 0.274172 25.2827 0.185887 25.335C-0.0943947 25.5099 -0.0421097 31.1181 0.238172 31.3289C0.3436 31.4344 1.67558 31.7147 3.16528 31.9769C4.65497 32.24 5.88152 32.4681 5.89952 32.4852C5.91667 32.5031 6.09239 33.1512 6.30238 33.9226C6.49524 34.6941 6.70523 35.4825 6.75838 35.6755C6.84581 35.9557 6.44296 36.3765 4.65497 37.8483C3.44471 38.8657 2.46329 39.794 2.46329 39.9165C2.46329 40.2843 5.28497 45.0516 5.51297 45.0516C5.61839 45.0516 6.88009 44.6136 8.33464 44.0874L10.9635 43.1231L12.2603 44.4199L13.5743 45.7339L12.6631 48.2402C12.1549 49.6244 11.752 50.9041 11.752 51.0969C11.752 51.3772 12.3126 51.7802 14.1006 52.8147C15.3803 53.5509 16.5888 54.1638 16.7645 54.1638C16.9745 54.1638 17.7811 53.3401 18.8851 51.9909L20.6722 49.8353L22.1096 50.2381C22.8982 50.4662 23.6696 50.659 23.8445 50.659C24.2302 50.659 24.2473 50.6941 24.7385 53.5509C25.317 56.9683 24.9133 56.6178 28.2964 56.6178C30.3818 56.6178 31.2055 56.5654 31.346 56.3898C31.4335 56.2843 31.7137 55.0055 31.9769 53.5681C32.222 52.1136 32.4852 50.8869 32.5555 50.8338C32.6609 50.7463 34.2732 50.2904 35.7449 49.9226C35.8854 49.8876 36.7966 50.8166 37.8131 52.0081C38.8117 53.1995 39.7759 54.1638 39.9337 54.1638C40.3014 54.1638 44.8759 51.5521 44.9804 51.2899C45.0328 51.1672 44.6299 49.8704 44.1044 48.4158L43.1214 45.7698L44.4353 44.4558L45.7493 43.1419L48.4133 44.1061C49.8678 44.6316 51.1646 45.0353 51.2873 44.9822C51.5504 44.8767 54.1612 40.3202 54.1612 39.9345C54.1612 39.7768 53.1798 38.8306 51.9883 37.8311C50.5166 36.6217 49.8326 35.9386 49.885 35.7628C49.9373 35.6231 50.1481 34.8689 50.341 34.0983C50.551 33.327 50.7618 32.6437 50.8313 32.5564C50.8835 32.4861 52.1101 32.2237 53.5655 31.9778C55.003 31.7147 56.2818 31.4344 56.4043 31.3469C56.562 31.2072 56.6143 30.3826 56.6143 28.2972C56.6143 24.915 56.9648 25.3008 53.5475 24.7402C50.7438 24.2671 50.6555 24.249 50.6555 23.8641C50.6555 23.7065 50.4626 22.9179 50.2346 22.1294L49.8156 20.6919L51.9883 18.8867C53.2501 17.8531 54.1612 16.9762 54.1612 16.7834C54.1612 16.6257 53.5475 15.4163 52.8121 14.1194C51.7783 12.3143 51.3746 11.7537 51.1124 11.7537C50.9024 11.7537 49.6226 12.1566 48.2384 12.6649L45.7321 13.576L44.4182 12.262L43.1214 10.9652L44.0856 8.33636C44.6111 6.88181 44.9968 5.58497 44.9616 5.4444C44.8562 5.16412 40.2997 2.465 39.9148 2.465C39.7922 2.465 38.8631 3.44642 37.8466 4.65584C36.3749 6.44381 35.954 6.84667 35.6737 6.75924C35.4809 6.70695 34.6924 6.4961 33.9209 6.30325C33.1495 6.09325 32.5015 5.91753 32.4835 5.90039C32.4664 5.8824 32.2384 4.65584 31.9752 3.16615C31.712 1.67644 31.4317 0.344462 31.3272 0.221891C31.1164 -0.0403908 25.509 -0.0926758 25.3333 0.187607ZM31.9932 23.3207L37.6014 28.9289L39.2659 27.2644C40.1771 26.3532 41.0539 25.5998 41.1936 25.5998C41.8768 25.5998 41.8948 25.7747 41.8948 33.6791C41.8948 40.4085 41.8596 41.3728 41.6146 41.6179C41.3694 41.8631 40.4051 41.8982 33.6757 41.8982C25.7722 41.8982 25.5965 41.8803 25.5965 41.1971C25.5965 41.0566 26.3498 40.1805 27.261 39.2693L28.9264 37.6032L23.3182 31.9949C20.2333 28.91 17.71 26.2642 17.71 26.1245C17.71 25.7739 25.7713 17.7125 26.1218 17.7125C26.2624 17.7125 28.9084 20.2359 31.9932 23.3207Z" fill="black"/>
<path d="M56.9304 41.8622C55.9841 42.1254 55.1424 42.4237 55.0379 42.5282C54.8982 42.6688 54.8982 43.2293 55.0207 44.5262C55.1261 45.5076 55.2135 46.4538 55.2135 46.6296C55.2135 46.9278 53.2859 48.2418 52.8299 48.259C52.7244 48.259 51.8835 47.7336 50.9725 47.1027C50.0433 46.4538 49.1845 45.9285 49.0448 45.9285C48.7465 45.9285 45.9257 48.7501 45.9257 49.0655C45.9257 49.1882 46.4511 50.0469 47.1 50.9761C47.7308 51.8873 48.2562 52.7289 48.2562 52.8335C48.239 53.2895 46.9242 55.2171 46.6268 55.2171C46.452 55.2171 45.5048 55.1298 44.5063 55.0243C43.0697 54.8837 42.666 54.9018 42.5083 55.0774C42.2803 55.3055 41.3691 58.5823 41.3691 59.1429C41.3691 59.3529 41.9648 59.7214 43.3843 60.3875L45.3993 61.3337V62.7171V64.0842L43.3843 65.0304C41.7368 65.7838 41.3691 66.029 41.3691 66.3274C41.3863 66.7653 42.3326 70.253 42.4731 70.4108C42.5435 70.463 43.56 70.4278 44.7343 70.3233C46.3293 70.2008 46.9251 70.2008 47.0297 70.3584C47.1 70.4639 47.4325 71.0064 47.766 71.585L48.3797 72.6016L47.153 74.3364C46.47 75.3007 45.9265 76.1766 45.9265 76.2992C45.9265 76.6326 48.7833 79.4011 49.1159 79.4011C49.2908 79.4011 50.1497 78.8929 51.0435 78.262C51.9195 77.6312 52.7082 77.1229 52.7964 77.1229C52.8667 77.1229 53.4453 77.4031 54.0752 77.7537L55.2315 78.3846L55.091 80.0844C55.0207 81.0134 54.9684 82.0471 54.9512 82.3797V82.9754L57.0367 83.5539C58.4732 83.9397 59.1924 84.0622 59.3501 83.9397C59.4555 83.8522 59.9286 82.9411 60.4017 81.9246L61.2434 80.0844L62.6981 80.1366L64.1697 80.1889L64.9934 81.994C65.4666 82.9754 65.9226 83.8694 66.0099 83.9569C66.1326 84.0794 66.9211 83.9397 68.2711 83.5539L70.3745 82.9933V81.9417C70.3745 81.3631 70.3223 80.3294 70.2519 79.6635L70.1465 78.4368L71.2153 77.8231C71.8111 77.4897 72.4068 77.1923 72.5121 77.1572C72.6348 77.122 73.3881 77.56 74.1948 78.1386C76.491 79.768 76.1225 79.786 77.9807 77.9286L79.593 76.3163L78.945 75.3521C78.5943 74.8267 78.0338 74.0381 77.7005 73.5821C77.3678 73.1261 77.1218 72.6529 77.157 72.5304C77.1921 72.4079 77.4895 71.8121 77.823 71.2164L78.4367 70.1475L79.6632 70.253C80.3292 70.3233 81.363 70.3756 81.9415 70.3756H82.9932L83.5537 68.2722C83.9395 66.923 84.0792 66.1344 83.9567 66.011C83.8692 65.9236 82.9752 65.4676 81.9938 64.9945L80.1887 64.1708L80.1363 62.6991L80.0841 61.2445L81.9243 60.4036C82.9409 59.9305 83.852 59.4574 83.9395 59.352C84.062 59.1943 83.9395 58.476 83.5537 57.0386L82.9752 54.9532H82.3795C82.046 54.9703 81.0123 55.0234 80.0841 55.0929L78.3843 55.2334L77.7535 54.0772C77.403 53.4463 77.1227 52.8677 77.1227 52.7983C77.1227 52.711 77.631 51.9224 78.2618 51.0456C78.8927 50.1516 79.401 49.2927 79.401 49.1179C79.401 48.7673 76.6145 45.9285 76.2818 45.9285C76.1593 45.9285 75.2653 46.4719 74.319 47.155L72.5979 48.3815L71.5641 47.7678C71.0036 47.4344 70.4603 47.1019 70.3376 47.0316C70.1799 46.9261 70.1799 46.4007 70.3205 44.7362C70.4259 43.5619 70.4603 42.5454 70.4079 42.4931C70.2503 42.3354 66.7626 41.3891 66.3246 41.3711C66.0263 41.3711 65.7811 41.7388 65.0277 43.3862L64.0814 45.4014H62.7143H61.3301L60.3829 43.3871C59.2789 41.0556 59.5069 41.1611 56.9304 41.8622ZM64.7997 52.6929C64.8699 52.8858 64.5014 53.3589 63.6426 54.235C62.9594 54.9181 62.3981 55.5669 62.3981 55.6543C62.3981 55.7598 64.2906 57.7226 66.6039 60.036C68.9174 62.3494 70.8099 64.3122 70.8099 64.4176C70.8099 64.6456 64.6411 70.8145 64.4131 70.8145C64.3077 70.8145 62.3449 68.9219 60.0315 66.6085C57.7181 64.2951 55.7552 62.4025 55.6499 62.4025C55.5624 62.4025 54.9135 62.963 54.2304 63.647C53.3544 64.5059 52.8813 64.8737 52.6884 64.8043C52.4433 64.6988 52.4082 63.9976 52.4082 58.6705C52.4082 55.3586 52.4604 52.5892 52.5307 52.5369C52.583 52.4666 55.3524 52.4144 58.6644 52.4144C63.9931 52.4126 64.6943 52.447 64.7997 52.6929Z" fill="#039BE5"/>
</g>
<defs>
<clipPath id="clip0_4616_3258">
<rect width="84" height="84" fill="white"/>
</clipPath>
</defs>
</svg>
