<svg width="30" height="26" viewBox="0 0 30 26" fill="none" xmlns="http://www.w3.org/2000/svg">
<path d="M16.3774 11.0808C16.1713 12.0747 15.9933 12.9306 15.8059 13.7774C15.3562 15.8849 14.8971 17.9925 14.4474 20.1092C14.4287 20.1828 14.4193 20.2565 14.4006 20.3301C14.3162 20.6614 14.1944 20.9835 13.7541 20.8915C13.3231 20.7902 13.3418 20.4405 13.4168 20.1092C13.7166 18.6919 14.0258 17.2654 14.335 15.8481C14.6816 14.2651 15.0283 12.6822 15.3656 11.09C15.4312 10.7955 15.6185 10.5746 15.909 10.6666C16.1151 10.7219 16.2556 10.9611 16.3774 11.0808Z" fill="white"/>
<path d="M9.42815 15.7559C10.2058 16.4093 10.9647 17.0443 11.7236 17.6793C11.8735 17.8082 12.0983 17.9094 12.1639 18.0751C12.2482 18.2684 12.2951 18.5905 12.1827 18.7193C12.089 18.839 11.7517 18.8298 11.5456 18.7745C11.3863 18.7377 11.2551 18.5537 11.1146 18.434C10.2339 17.6978 9.3532 16.9707 8.48187 16.2344C8.06963 15.8847 8.06026 15.5994 8.4725 15.2497C9.43752 14.4306 10.4213 13.6207 11.3863 12.8108C11.6486 12.5899 11.9484 12.4611 12.2014 12.7556C12.4731 13.0685 12.2951 13.3446 12.014 13.5747C11.2832 14.1729 10.5618 14.7803 9.84039 15.3877C9.69985 15.4982 9.58742 15.6086 9.42815 15.7559Z" fill="white"/>
<path d="M20.6227 15.7649C19.7139 15.0103 18.8895 14.3108 18.0556 13.6206C17.9432 13.5193 17.7652 13.4089 17.7558 13.2893C17.7277 13.1052 17.7745 12.7647 17.8682 12.7279C18.0837 12.6634 18.4116 12.6634 18.5709 12.7923C19.3767 13.4181 20.1543 14.0899 20.9319 14.7434C21.1662 14.9459 21.4098 15.1299 21.644 15.3416C21.9251 15.5993 21.9251 15.8938 21.644 16.1423C20.6227 17.0166 19.5828 17.8817 18.5428 18.7376C18.2992 18.9401 18.0181 18.9953 17.8027 18.7284C17.5965 18.4707 17.6621 18.213 17.9057 18.0013C18.7208 17.3111 19.5453 16.6301 20.3604 15.9398C20.4354 15.8938 20.501 15.857 20.6227 15.7649Z" fill="white"/>
<path d="M14.9999 25.9809C11.1774 25.9809 7.3454 25.9349 3.52281 25.9993C1.649 26.0269 -0.00932958 24.582 3.95087e-05 22.5297C0.0375158 16.1794 0.0281468 9.82915 3.95087e-05 3.47889C-0.00932958 1.38054 1.67711 -0.00915784 3.52281 4.54355e-05C11.1774 0.0460618 18.8225 0.0460618 26.4771 4.54355e-05C28.3321 -0.00915784 30.0186 1.38054 29.9998 3.47889C29.9717 9.82915 29.9717 16.1794 29.9998 22.5297C30.0092 24.5912 28.3509 26.0361 26.4771 25.9993C22.6545 25.9349 18.8319 25.9809 14.9999 25.9809ZM28.988 7.82283C19.6283 7.82283 10.3435 7.82283 1.04938 7.82283C1.04001 7.96088 1.02127 8.06212 1.02127 8.17256C1.02127 12.9859 1.02127 17.8084 1.02127 22.6217C1.02127 22.861 1.04001 23.1187 1.10559 23.3488C1.45225 24.4808 2.3142 25.033 3.68209 25.0422C11.2055 25.0422 18.7382 25.033 26.2616 25.0514C27.8168 25.0606 29.0255 24.1495 28.9974 22.3548C28.9411 17.6887 28.9786 13.0319 28.9786 8.36583C28.988 8.19097 28.988 8.02531 28.988 7.82283ZM1.04001 6.79207C10.3716 6.79207 19.6564 6.79207 28.9505 6.79207C28.9505 5.44839 28.9599 4.14152 28.9411 2.82545C28.9411 2.62298 28.8193 2.4113 28.7257 2.22724C28.2104 1.2793 27.3484 0.96639 26.3084 0.96639C18.7757 0.96639 11.2336 0.96639 3.70083 0.975593C3.43849 0.975593 3.16679 0.994 2.91382 1.04002C1.98629 1.19647 1.11496 1.97875 1.06811 2.87147C0.993162 4.15993 1.04001 5.45759 1.04001 6.79207Z" fill="white"/>
<path d="M3.67322 5.44808C2.80189 5.45728 2.08984 4.75784 2.08984 3.91113C2.08984 3.07364 2.78316 2.39259 3.63574 2.38339C4.4977 2.37419 5.23786 3.08284 5.22849 3.92034C5.22849 4.74863 4.51644 5.43888 3.67322 5.44808ZM3.66385 4.46333C4.01987 4.42652 4.22599 4.23325 4.21663 3.89273C4.20726 3.55221 3.9824 3.34973 3.64511 3.35894C3.30782 3.36814 3.09234 3.57061 3.1017 3.92034C3.11107 4.27006 3.33593 4.43572 3.66385 4.46333Z" fill="white"/>
<path d="M14.8332 3.92976C14.8332 4.78567 14.1774 5.44831 13.3154 5.45751C12.4253 5.46671 11.732 4.80408 11.7227 3.94817C11.7227 3.09227 12.4253 2.40202 13.2967 2.41122C14.1586 2.42043 14.8332 3.08306 14.8332 3.92976ZM12.7345 3.90216C12.7345 4.27029 12.9313 4.48196 13.2686 4.49116C13.6058 4.50037 13.8307 4.2979 13.8401 3.95737C13.8494 3.62606 13.6621 3.41438 13.306 3.40518C12.95 3.39597 12.7626 3.58924 12.7345 3.90216Z" fill="white"/>
<path d="M6.92197 3.93922C6.9126 3.06491 7.59654 2.39307 8.47724 2.39307C9.32982 2.40227 10.0231 3.07411 10.0325 3.91161C10.0419 4.75831 9.32982 5.44856 8.44913 5.44856C7.58717 5.44856 6.93134 4.80433 6.92197 3.93922ZM9.02064 3.94842C9.01128 3.58029 8.81452 3.38702 8.46787 3.38702C8.13058 3.38702 7.90572 3.58949 7.90572 3.93001C7.90572 4.26133 8.12121 4.47301 8.46787 4.47301C8.81452 4.47301 9.00191 4.27974 9.02064 3.94842Z" fill="white"/>
</svg>
