<svg width="16" height="30" viewBox="0 0 16 30" fill="none" xmlns="http://www.w3.org/2000/svg">
<path d="M15.996 15.0124C15.996 18.8061 15.996 22.5999 15.996 26.3936C15.996 28.0703 15.1226 29.363 13.655 29.8314C13.2859 29.9438 12.8897 29.9813 12.5025 29.9906C9.50425 30 6.49698 30 3.49871 30C1.40982 29.9813 0.0052267 28.52 0.0052267 26.3374C0.0052267 19.6585 0.0052267 12.9797 0.0052267 6.30079C0.0052267 5.16735 -0.0307885 4.01517 0.086261 2.8911C0.257333 1.27993 1.5989 0.0340806 3.16556 0.0247133C6.38893 -0.00338853 9.6213 -0.0127558 12.8447 0.0247133C14.6454 0.0434479 15.996 1.60778 15.996 3.58428C16.005 7.39676 15.996 11.1999 15.996 15.0124ZM0.743539 5.18608C0.743539 11.7525 0.743539 18.2815 0.743539 24.8012C5.6146 24.8012 10.4406 24.8012 15.2757 24.8012C15.2757 18.2441 15.2757 11.7244 15.2757 5.18608C10.4226 5.18608 5.59659 5.18608 0.743539 5.18608ZM15.2937 4.42733C15.2937 4.11821 15.2937 3.85593 15.2937 3.59365C15.2937 1.84197 14.2313 0.727259 12.5475 0.717892C9.51325 0.708525 6.48797 0.736626 3.45369 0.708525C1.69794 0.68979 0.32036 2.17919 0.779555 4.42733C5.59659 4.42733 10.4136 4.42733 15.2937 4.42733ZM15.2487 25.588C10.4046 25.588 5.56958 25.588 0.707524 25.588C0.707524 25.944 0.707524 26.2531 0.707524 26.5622C0.725532 28.061 1.76997 29.2413 3.21058 29.26C6.40694 29.2975 9.60329 29.2881 12.7996 29.26C14.0242 29.2506 15.0236 28.3607 15.2397 27.1149C15.3207 26.6371 15.2487 26.1313 15.2487 25.588Z" fill="white"/>
<path d="M6.21875 19.977C6.41683 19.1995 6.58791 18.497 6.76798 17.785C7.45227 15.1247 8.13656 12.4644 8.82986 9.80413C8.90189 9.52311 8.88388 9.02664 9.35208 9.17652C9.78426 9.30766 9.55016 9.69172 9.47813 9.97274C8.65878 13.1763 7.83043 16.38 7.01109 19.5742C6.96607 19.7428 6.95706 19.9302 6.86702 20.0613C6.78599 20.1737 6.60591 20.258 6.47986 20.2486C6.38082 20.2393 6.29078 20.0613 6.21875 19.977Z" fill="white"/>
<path d="M13.2131 14.7032C12.1956 13.9258 11.2232 13.1951 10.2598 12.4551C10.1878 12.3989 10.0797 12.3614 10.0527 12.2865C9.9897 12.1179 9.97169 11.9305 9.93568 11.7526C10.1068 11.7432 10.3318 11.6589 10.4489 11.7432C10.9531 12.0804 11.4213 12.4645 11.9075 12.8298C12.5468 13.3169 13.1951 13.7946 13.8343 14.2911C14.2485 14.6096 14.2575 14.8063 13.8523 15.1154C12.7539 15.9585 11.6464 16.7828 10.5479 17.6258C10.3408 17.7851 10.1158 17.935 9.92667 17.6446C9.7556 17.3729 9.96269 17.1949 10.1698 17.0357C11.0972 16.3425 12.0156 15.64 12.9339 14.9374C13.006 14.8906 13.087 14.8157 13.2131 14.7032Z" fill="white"/>
<path d="M2.78731 14.7314C3.75072 15.4621 4.6511 16.1459 5.56048 16.8391C5.67753 16.9327 5.8396 16.9983 5.91163 17.1201C6.00167 17.2793 6.02868 17.4854 6.08271 17.6727C5.89363 17.6727 5.65953 17.757 5.53347 17.6727C4.69612 17.0732 3.87677 16.4363 3.05743 15.8087C2.73329 15.5651 2.40015 15.3122 2.07601 15.0593C1.78789 14.8345 1.79689 14.5909 2.07601 14.3755C3.2285 13.4949 4.37198 12.6238 5.53347 11.7714C5.65052 11.6871 5.89363 11.7714 6.08271 11.7714C6.02868 11.9587 6.02868 12.221 5.91163 12.324C5.01125 13.0453 4.07486 13.7291 3.15647 14.4317C3.04842 14.5066 2.94938 14.6003 2.78731 14.7314Z" fill="white"/>
<path d="M7.97416 2.91906C7.51497 2.91906 7.04677 2.94717 6.58757 2.90033C6.45252 2.89096 6.32646 2.69425 6.19141 2.57247C6.32646 2.46007 6.45252 2.26335 6.58757 2.25399C7.53297 2.22588 8.46937 2.22588 9.41477 2.25399C9.54983 2.25399 9.67588 2.46007 9.81094 2.57247C9.67588 2.68488 9.54983 2.88159 9.41477 2.89096C8.93757 2.94717 8.45136 2.91906 7.97416 2.91906Z" fill="white"/>
<path d="M7.98197 27.7422C7.52278 27.7422 7.05458 27.7703 6.59539 27.7235C6.45132 27.7141 6.32527 27.5174 6.19922 27.405C6.33428 27.2926 6.46033 27.0865 6.59539 27.0865C7.54079 27.0584 8.47718 27.0584 9.42258 27.0865C9.55764 27.0865 9.6927 27.2926 9.81875 27.405C9.68369 27.5174 9.56664 27.7141 9.42258 27.7235C8.94538 27.7703 8.45918 27.7422 7.98197 27.7422Z" fill="white"/>
</svg>
