<svg width="30" height="30" viewBox="0 0 30 30" fill="none" xmlns="http://www.w3.org/2000/svg">
<path d="M29.9901 1.71681C29.9901 0.676913 29.294 0 28.24 0C20.4839 0 12.7279 0 4.97183 0C3.92774 0 3.27146 0.667103 3.27146 1.68738C3.27146 2.45258 3.27146 3.21779 3.27146 4.02224C2.77428 4.02224 2.32681 4.02224 1.88929 4.02224C0.676168 4.04186 0 4.69915 0 5.8862C0 12.4101 0 18.9339 0 25.4578C0 26.6351 0.656281 27.2825 1.83958 27.2825C4.72323 27.2825 7.60689 27.2825 10.4906 27.2825H12.4196C12.4196 28.0085 12.4196 28.6658 12.4196 29.3329C12.4196 29.9215 12.4992 30 13.1157 30C15.4524 30 17.7892 30 20.126 30C20.7226 30 20.8419 29.8823 20.8518 29.2838C20.8518 28.6364 20.8518 27.9889 20.8518 27.2825H21.4385C22.6119 27.2825 23.7952 27.2825 24.9685 27.2825C26.122 27.2727 26.7385 26.6547 26.7385 25.5265C26.7385 24.7809 26.7385 24.0353 26.7385 23.2603C27.2854 23.2603 27.7627 23.2603 28.24 23.2603C29.2841 23.2505 30 22.5834 30 21.5533C30 14.9313 30 8.32897 29.9901 1.71681ZM4.09678 1.50098C4.10673 1.26553 4.47464 1.02027 4.72323 0.853499C4.86245 0.755396 5.11104 0.804447 5.30991 0.804447C12.8373 0.804447 20.3547 0.804447 27.882 0.804447C28.9857 0.804447 29.1747 1.00065 29.1747 2.09941C29.1747 3.08044 29.1747 4.06148 29.1747 5.11118H28.5582C23.8051 5.11118 19.0421 5.11118 14.289 5.12099C13.9311 5.12099 13.6725 5.0327 13.4339 4.75801C13.0162 4.28712 12.5986 3.82603 12.1213 3.42381C11.8926 3.2276 11.5545 3.07063 11.2562 3.06082C10.063 3.02158 8.86974 3.0412 7.6765 3.0412C7.01027 3.0412 6.76168 3.29627 6.75174 3.96337C6.75174 4.28712 6.75174 4.62067 6.7418 4.94441C6.7418 4.97384 6.73185 5.00327 6.71197 5.07194H4.06695C4.06695 3.87508 4.03712 2.68803 4.09678 1.50098ZM12.4097 25.7129V26.4683C12.2207 26.4781 12.0716 26.4879 11.9324 26.4879C8.58137 26.4879 5.2403 26.4879 1.88929 26.4879C1.11369 26.4879 0.825323 26.223 0.825323 25.4774C0.825323 18.9438 0.825323 12.4003 0.825323 5.86658C0.825323 5.14061 1.10375 4.86593 1.84952 4.8463C2.30693 4.83649 2.76434 4.8463 3.26152 4.8463V5.49379C3.26152 10.811 3.26152 16.1184 3.26152 21.4356C3.26152 22.6619 3.86808 23.2603 5.12098 23.2603C7.73616 23.2603 10.3513 23.2603 12.9765 23.2603C13.7819 23.2603 13.8615 23.3486 13.8515 24.1825C13.8217 24.2021 13.7918 24.2217 13.762 24.2315C12.4495 24.3591 12.4097 24.3983 12.4097 25.7129ZM16.1883 17.0307C16.1883 17.119 16.0391 17.2171 15.9397 17.2858C15.4325 17.6488 15.2536 18.1785 15.4226 18.7574C15.5618 19.2283 16.059 19.5814 16.596 19.601C17.123 19.6207 17.6301 19.2479 17.819 18.6985C17.998 18.1785 17.7991 17.6978 17.292 17.2956C17.1528 17.1877 17.0434 16.9719 17.0235 16.7953C16.9838 16.344 17.0136 15.8829 17.0136 15.4218C17.0136 15.3924 17.0434 15.3728 17.0931 15.2649C18.2665 17.3545 19.41 19.395 20.5834 21.4748C19.3106 21.9457 18.5648 22.809 18.535 24.2021H14.7265C14.6371 22.8777 13.9808 21.9261 12.6384 21.4552C13.8117 19.3754 14.9453 17.3447 16.0988 15.3139C16.1286 15.3139 16.1684 15.3237 16.1982 15.3237C16.1982 15.8829 16.2082 16.4519 16.1883 17.0307ZM16.596 17.9137C16.7749 17.9627 16.9142 18.1982 17.0733 18.3551C16.9142 18.4925 16.7749 18.7279 16.596 18.7475C16.4567 18.7672 16.2778 18.5415 15.9894 18.3453C16.2778 18.1295 16.4766 17.8842 16.596 17.9137ZM19.9768 29.1661H13.2251C13.2251 27.8515 13.2151 26.5664 13.235 25.2812C13.235 25.1929 13.414 25.0458 13.5134 25.0458C15.6513 25.036 17.7792 25.036 19.9768 25.036V29.1661ZM25.933 25.6638C25.9231 26.1347 25.6248 26.4683 25.1674 26.4683C23.7454 26.4879 22.3235 26.4781 20.8419 26.4781V25.4774C20.8419 24.5062 20.5933 24.2511 19.6288 24.2217C19.5691 24.2217 19.4995 24.2119 19.4398 24.2021C19.2807 23.4369 19.4299 23.2309 20.1657 23.2309H25.933C25.933 24.104 25.9529 24.8888 25.933 25.6638ZM29.1647 21.259C29.1647 22.2204 28.936 22.446 27.9715 22.446H20.464C20.6331 22.3381 20.6828 22.2989 20.7325 22.2793C21.4087 21.9948 21.5678 21.5631 21.2098 20.9156C19.8972 18.5808 18.5847 16.2361 17.2522 13.9111C17.123 13.6952 16.8147 13.45 16.596 13.4598C16.3772 13.4598 16.0789 13.7148 15.9496 13.9405C14.6569 16.1969 13.3842 18.463 12.1114 20.7292C11.6042 21.622 11.7037 21.9359 12.6881 22.4068C12.5389 22.4264 12.4495 22.446 12.3699 22.446C9.91382 22.446 7.46768 22.446 5.0116 22.446C4.37521 22.446 4.05701 22.1419 4.05701 21.5141C4.05701 16.3931 4.05701 11.2819 4.05701 6.16089C4.05701 6.09222 4.06695 6.03336 4.08684 5.8862H5.95625C7.53729 5.8862 7.53729 5.8862 7.54723 4.34598V3.80641C8.82002 3.80641 10.063 3.7966 11.296 3.81622C11.4153 3.81622 11.5446 3.95356 11.644 4.05167C12.1114 4.51275 12.5887 4.97384 13.0262 5.45455C13.3146 5.77829 13.6427 5.8862 14.0703 5.8862C18.8929 5.87639 23.7156 5.8862 28.5383 5.86658C29.0255 5.86658 29.1846 5.96468 29.1846 6.47482C29.1647 11.4192 29.1647 16.344 29.1647 21.259Z" fill="white"/>
<path d="M20.4452 11.0365C21.2109 11.6938 21.9964 12.3118 22.7024 13.0083C23.5178 13.8226 24.015 14.8429 24.3332 15.9416C24.4127 16.2065 24.4923 16.3144 24.7906 16.3242C25.7153 16.3537 25.8645 16.5303 25.8744 17.4426C25.8744 17.9135 25.8844 18.3942 25.8645 18.8651C25.8545 19.3556 25.606 19.6401 25.1088 19.6696C24.5022 19.699 23.8857 19.699 23.2692 19.6696C22.782 19.6499 22.5035 19.3458 22.4836 18.8357C22.4638 18.2765 22.4638 17.7271 22.4836 17.1679C22.5035 16.5989 22.7124 16.442 23.5078 16.285C23.2095 14.0875 20.6441 11.6251 18.3869 11.3013C18.1084 12.1254 18.0587 12.1548 17.1439 12.1548C16.776 12.1548 16.418 12.1548 16.0501 12.1548C15.2148 12.1548 15.0955 12.0666 14.8569 11.3013C12.6892 11.5662 10.0441 14.1169 9.72594 16.2065C10.0243 16.3439 10.3623 16.4125 10.591 16.6087C10.9291 16.9031 10.9192 19.0809 10.591 19.3851C10.422 19.542 10.1635 19.6499 9.93476 19.6696C9.38786 19.7088 8.84096 19.699 8.29406 19.6794C7.68749 19.6598 7.42896 19.3949 7.41902 18.7964C7.40907 18.2863 7.40907 17.786 7.41902 17.2758C7.42896 16.5891 7.63778 16.3341 8.32389 16.3341C8.71169 16.3341 8.84096 16.1869 8.95034 15.8337C9.52707 14.009 10.6308 12.5571 12.2616 11.5074C12.4505 11.3798 12.6494 11.2719 12.9377 11.0953C12.7389 11.0659 12.6195 11.0365 12.5002 11.0365C11.5257 11.0365 10.5413 11.0463 9.56684 11.0267C9.30831 11.0267 9.15916 11.0953 9.02989 11.3308C8.67192 11.9586 7.89631 12.2137 7.18037 11.9881C6.49426 11.7722 6.03685 11.1248 6.07662 10.4184C6.12634 9.6434 6.61358 9.11365 7.42896 8.95668C8.08524 8.82915 8.81113 9.19213 9.09949 9.8298C9.19893 10.0456 9.25859 10.2222 9.56684 10.2124C11.2573 10.1928 12.9477 10.2026 14.6381 10.2026C14.6978 10.2026 14.7674 10.183 14.8171 10.183C14.8469 10.1437 14.8668 10.1143 14.8768 10.0849C14.9464 8.93706 15.0756 8.81934 16.249 8.81934C16.597 8.81934 16.945 8.81934 17.2931 8.81934C18.0289 8.82915 18.2576 9.05478 18.2775 9.79056C18.2775 9.89847 18.2874 10.0162 18.2974 10.1634C18.4565 10.1732 18.5957 10.2026 18.7349 10.2026C20.3259 10.2026 21.9169 10.2026 23.5078 10.2124C23.7962 10.2124 23.9653 10.1732 24.0945 9.84942C24.3531 9.19213 25.0789 8.82915 25.7452 8.94687C26.5705 9.09402 27.0975 9.63359 27.1373 10.3694C27.1771 11.1542 26.7992 11.733 26.1031 11.9685C25.3474 12.2137 24.6414 11.9685 24.194 11.321C24.1045 11.1934 23.9354 11.0365 23.7962 11.0365C22.6726 11.0267 21.539 11.0365 20.4452 11.0365ZM15.7419 11.3602C16.3484 11.3602 16.9251 11.3602 17.4919 11.3602C17.4919 10.7814 17.4919 10.232 17.4919 9.66302C16.8754 9.66302 16.3086 9.66302 15.7419 9.66302C15.7419 10.2418 15.7419 10.7912 15.7419 11.3602ZM9.97453 18.8553C9.97453 18.2667 9.97453 17.7173 9.97453 17.1679C9.35803 17.1679 8.79124 17.1679 8.24434 17.1679C8.24434 17.7565 8.24434 18.3157 8.24434 18.8553C8.86085 18.8553 9.40775 18.8553 9.97453 18.8553ZM25.0292 17.1777C24.4028 17.1777 23.836 17.1777 23.2891 17.1777C23.2891 17.7664 23.2891 18.3157 23.2891 18.8553C23.8956 18.8553 24.4525 18.8553 25.0292 18.8553C25.0292 18.2667 25.0292 17.7369 25.0292 17.1777ZM26.3418 10.5263C26.3517 10.1045 26.0037 9.72189 25.5861 9.70227C25.1983 9.68265 24.7806 10.0849 24.7607 10.4773C24.7409 10.8795 25.1187 11.2621 25.5363 11.2719C25.9938 11.2915 26.3219 10.9776 26.3418 10.5263ZM8.44321 10.546C8.45316 10.0751 8.10513 9.70227 7.66761 9.71208C7.26986 9.72189 6.93178 10.0652 6.91189 10.4773C6.892 10.9187 7.22014 11.2719 7.65766 11.2817C8.12502 11.2915 8.43327 11.007 8.44321 10.546Z" fill="white"/>
<path d="M28.2225 2.93319C28.2325 3.54143 27.7353 4.07118 27.1188 4.10062C26.5222 4.13005 25.9355 3.56105 25.9454 2.95281C25.9454 2.33476 26.4426 1.84424 27.079 1.84424C27.7254 1.84424 28.2126 2.30532 28.2225 2.93319Z" fill="white"/>
<path d="M25.4647 3.00195C25.4449 3.62 24.9079 4.13014 24.3013 4.10071C23.6948 4.07128 23.1777 3.53171 23.1876 2.94309C23.1976 2.30542 23.7147 1.82471 24.3809 1.84433C25.0073 1.86395 25.4846 2.36428 25.4647 3.00195Z" fill="white"/>
<path d="M22.7107 2.943C22.7206 3.56105 22.1638 4.12024 21.5473 4.10062C20.9308 4.08099 20.4336 3.57086 20.4336 2.95281C20.4336 2.32494 20.9208 1.84424 21.5672 1.84424C22.2036 1.84424 22.7007 2.32494 22.7107 2.943Z" fill="white"/>
</svg>
