<svg width="84" height="84" viewBox="0 0 84 84" fill="none" xmlns="http://www.w3.org/2000/svg">
<g clip-path="url(#clip0_4616_3273)">
<path d="M2.334 0.575569C1.61057 0.82834 0.772285 1.68511 0.361715 2.58047L0 3.39766V41.8482V80.2986L0.410572 81.1747C0.641143 81.6417 1.15029 82.3036 1.52828 82.6344L2.25172 83.2182H42H81.7483L82.4717 82.6344C82.8497 82.3036 83.3588 81.6417 83.5895 81.1747L84 80.2986V41.8482V3.39766L83.5895 2.52159C83.3588 2.05463 82.8497 1.39276 82.4717 1.06182L81.7483 0.478114L42.2803 0.439541C20.5645 0.419239 2.58085 0.478116 2.334 0.575569ZM57.5675 4.87773C58.4545 5.38429 59.1617 6.39639 59.4248 7.50593C60.1645 10.5818 57.6823 13.5217 55.0852 12.6456C52.5703 11.8081 51.6823 8.03177 53.4745 5.7538C54.4765 4.48792 56.2355 4.11841 57.5675 4.87773ZM68.0708 4.83915C68.9092 5.28684 69.6823 6.39639 69.9445 7.50593C70.6843 10.5818 68.202 13.5217 65.6048 12.6456C64.0595 12.139 63.0565 10.5432 63.0403 8.59619C63.0403 6.99938 63.7963 5.59747 65.0948 4.79956C65.7695 4.37118 67.2325 4.39047 68.0708 4.83915ZM78.5915 4.83915C79.4297 5.28684 80.2028 6.39639 80.4652 7.50593C81.2048 10.5818 78.7225 13.5217 76.1255 12.6456C74.58 12.139 73.5772 10.5432 73.5608 8.59619C73.5608 6.99938 74.3168 5.59747 75.6155 4.79956C76.29 4.37118 77.7532 4.39047 78.5915 4.83915ZM80.6297 48.078V79.2277H42H3.36943V48.078V16.9285H42H80.6297V48.078Z" fill="black"/>
<path d="M38.9594 25.417C34.8005 25.9236 29.9345 27.5386 26.8445 29.4085L26.0723 29.8755L27.8148 33.4184L29.5411 36.9418L30.6263 36.3775C38.1553 32.3667 46.8013 32.5616 54.2483 36.884L56.0568 37.9357L59.1623 35.4821C62.0714 33.2042 62.2523 33.0092 61.9565 32.7565C61.0359 31.9393 58.4876 30.1872 57.0416 29.3689C54.0331 27.6553 50.8111 26.4677 47.4253 25.7865C45.9125 25.4749 40.3728 25.2414 38.9594 25.417Z" fill="#039BE5"/>
<path d="M21.4341 33.2822C13.0341 40.3689 7.64269 52.0694 7.05041 64.4703L6.93555 66.7677H10.4044H13.8896V65.8134C13.8896 64.2948 14.3498 60.5763 14.7776 58.5713C15.5833 54.7748 17.1287 50.8421 19.1498 47.4353C20.4158 45.3137 23.3087 41.7891 25.1173 40.1932C25.8244 39.57 26.3669 39.0055 26.3498 38.9477C26.1029 38.2858 23.0129 32.1138 22.9307 32.1138C22.8647 32.1138 22.1901 32.6397 21.4341 33.2822Z" fill="#039BE5"/>
<path d="M60.2468 39.7844C42.9532 53.4898 35.3425 59.8761 34.1263 61.7064C31.4143 65.7751 32.5972 71.8111 36.5425 74.1277C37.7588 74.8291 37.8412 74.8484 39.6 74.8484C41.244 74.8484 41.5235 74.7896 42.378 74.3226C43.89 73.4851 44.5148 72.7654 46.5043 69.6113C50.0545 64.0047 66.6575 35.1524 66.4603 34.9381C66.4277 34.9178 63.6325 37.0781 60.2468 39.7844Z" fill="#039BE5"/>
<path d="M66.3459 42.9974C65.2445 44.9252 64.3574 46.5403 64.3574 46.5798C64.3574 46.6184 64.8503 47.5148 65.4425 48.5655C68.0731 53.2381 69.5354 58.2418 69.9794 64.0819L70.1765 66.7689H73.5948H77.0139V65.6402C77.0139 63.7326 76.5374 59.5655 76.0436 57.1322C74.8274 51.2332 72.3451 45.2957 69.2379 40.8179L68.3183 39.4922L66.3459 42.9974Z" fill="#039BE5"/>
</g>
<defs>
<clipPath id="clip0_4616_3273">
<rect width="84" height="84" fill="white"/>
</clipPath>
</defs>
</svg>
