<svg width="81" height="63" viewBox="0 0 81 63" fill="none" xmlns="http://www.w3.org/2000/svg">
<path d="M6.29676 61.1868C6.01697 61.1868 5.66723 61.1162 5.45739 60.9042L1.95998 58.2193C1.61023 57.9367 1.40039 57.5128 1.40039 57.0889V52.0724C1.40039 51.2952 2.02992 50.6593 2.79935 50.6593H25.8823C26.6517 50.6593 27.2812 51.2952 27.2812 52.0724V53.4148H53.7216V52.0724C53.7216 51.2952 54.3512 50.6593 55.1206 50.6593H78.2035C78.9729 50.6593 79.6025 51.2952 79.6025 52.0724V57.0889C79.6025 57.5128 79.3926 57.9367 79.0429 58.2193L75.5455 60.9042C75.3356 61.1162 74.9859 61.1868 74.7061 61.1868H6.29676Z" fill="white"/>
<path d="M78.2021 52.0724V57.0889L74.7047 59.7738H6.29534L2.79793 57.0889V52.0724H25.8808V54.8279H55.1192V52.0724H78.2021ZM78.2021 49.2462H55.1192C53.5803 49.2462 52.3212 50.4473 52.3212 52.0017H28.6788C28.6788 50.4473 27.4197 49.2462 25.8808 49.2462H2.79793C1.25907 49.2462 0 50.518 0 52.0724V57.0889C0 57.9367 0.419689 58.7846 1.11917 59.3498L4.61658 62.0347C5.10622 62.388 5.6658 62.5999 6.29534 62.5999H74.7047C75.3342 62.5999 75.8938 62.388 76.3834 62.0347L79.8808 59.3498C80.5803 58.7846 81 58.0074 81 57.0889V52.0724C81 50.518 79.7409 49.2462 78.2021 49.2462Z" fill="#005EB8"/>
<path d="M67.4434 43.9589L67.4434 4.39233L13.5133 4.39233L13.5133 43.9589L67.4434 43.9589Z" fill="#FBB040"/>
<path d="M59.1769 11.3048H21.8945V37.0937H59.1769V11.3048Z" fill="#FAF9FD"/>
<path d="M21.8947 33.985L34.6253 21.4084L55.7496 42.0396H20.4258V33.985H21.8947Z" fill="#FBB040"/>
<path d="M42.1094 35.1154L52.112 27.626L61.2052 35.1154V43.17H42.1094V35.1154Z" fill="#FBB040"/>
<path d="M46.4454 23.4573C48.2997 23.4573 49.8029 21.9389 49.8029 20.0659C49.8029 18.1928 48.2997 16.6744 46.4454 16.6744C44.5911 16.6744 43.0879 18.1928 43.0879 20.0659C43.0879 21.9389 44.5911 23.4573 46.4454 23.4573Z" fill="#FBB040"/>
<path d="M63.5136 0H17.4877C13.7105 0 10.6328 3.1088 10.6328 6.92415V48.3984H70.2986V6.8535C70.2986 3.03815 67.2908 0 63.5136 0ZM64.7028 42.746H16.2986V6.8535C16.2986 6.14695 16.8582 5.58171 17.5577 5.58171H63.5836C64.2831 5.58171 64.8427 6.14695 64.8427 6.8535V42.746H64.7028Z" fill="#0B56E4"/>
</svg>
