<svg width="84" height="82" viewBox="0 0 84 82" fill="none" xmlns="http://www.w3.org/2000/svg">
<g clip-path="url(#clip0_4614_5759)">
<mask id="mask0_4614_5759" style="mask-type:luminance" maskUnits="userSpaceOnUse" x="0" y="0" width="84" height="84">
<path d="M84 0H0V84H84V0Z" fill="white"/>
</mask>
<g mask="url(#mask0_4614_5759)">
<path d="M79.8004 23.1462H67.6418C66.1774 23.1462 64.9902 24.3364 64.9902 25.7979V48.8263C64.9902 50.2906 66.1774 51.4781 67.6418 51.4781H79.8004C81.2619 51.4781 82.4492 50.2906 82.4492 48.8263V25.7979C82.4492 24.3364 81.2619 23.1462 79.8004 23.1462ZM79.6659 25.7979V46.3257H67.7597L67.6418 25.9322L79.6659 25.7979ZM72.394 48.758C72.394 48.0312 72.9861 47.4334 73.7183 47.4334C74.4533 47.4334 75.0454 48.0312 75.0454 48.758C75.0454 49.4902 74.4533 50.0853 73.7183 50.0853C72.9861 50.0853 72.394 49.4902 72.394 48.758Z" fill="#039BE5"/>
<path d="M20.7048 38.6532V45.4948H18.5001C16.9619 45.4948 15.7169 46.7427 15.7169 48.2809C15.7169 49.8194 16.9619 51.064 18.5001 51.064H36.6448C38.1833 51.064 39.431 49.8194 39.431 48.2809C39.431 46.7427 38.1833 45.4948 36.6448 45.4948H34.4403V38.6532H48.4085C51.2684 38.6532 53.594 36.328 53.594 33.4677V5.18531C53.594 2.32538 51.2684 0 48.4085 0H6.73645C3.87617 0 1.55078 2.32538 1.55078 5.18531V33.4677C1.55078 36.328 3.87617 38.6532 6.73645 38.6532H20.7048ZM7.12015 5.56937H48.0248V33.0839H7.12015V5.56937Z" fill="black" fill-opacity="0.87"/>
<path d="M61.5383 53.2441H31.1524C28.2786 53.2441 25.9395 55.583 25.9395 58.4567V78.7872C25.9395 81.6608 28.2786 83.9998 31.1524 83.9998H61.5383C64.4119 83.9998 66.7509 81.6608 66.7509 78.7872V58.4567C66.751 55.583 64.4119 53.2441 61.5383 53.2441ZM29.5236 70.5719C28.446 70.5719 27.574 69.7025 27.574 68.6219C27.574 67.5417 28.446 66.6696 29.5236 66.6696C30.5985 66.6696 31.476 67.5418 31.476 68.6219C31.476 69.7025 30.5985 70.5719 29.5236 70.5719ZM62.5747 78.7873C62.5747 79.3575 62.1087 79.8238 61.5383 79.8238H32.9103V57.4204H61.5384C62.1087 57.4204 62.5748 57.8865 62.5748 58.457L62.5747 78.7873Z" fill="#039BE5"/>
<path d="M8.80131 71.241V47.4666V42.9285H4.625V73.3305C4.625 74.4823 5.55999 75.4173 6.71199 75.4173H20.705V71.241H19.7452H8.80131Z" fill="black" fill-opacity="0.87"/>
<path d="M74.705 61.199V71.2409H71.0526H70.293V75.4172H76.7947C77.9463 75.4172 78.8814 74.4822 78.8814 73.3304V55.457H74.705V61.199Z" fill="black" fill-opacity="0.87"/>
</g>
</g>
<defs>
<clipPath id="clip0_4614_5759">
<rect width="84" height="82" fill="white"/>
</clipPath>
</defs>
</svg>
