<svg width="130" height="130" viewBox="0 0 130 130" fill="none" xmlns="http://www.w3.org/2000/svg">
<circle cx="65" cy="65" r="65" fill="white"/>
<circle cx="65" cy="65" r="64.25" stroke="#202020" stroke-opacity="0.5" stroke-width="1.5"/>
<path d="M61.0412 70.1987C60.0358 71.2193 59.0451 72.225 58.084 73.2456C57.9509 73.3935 57.877 73.7337 57.9509 73.9408C58.6163 75.9228 58.2023 77.6089 56.7237 79.0732C54.0917 81.6912 51.4745 84.3535 48.8278 86.9567C46.3585 89.3824 42.381 88.4654 41.2721 85.2114C40.6954 83.5105 41.0355 81.913 42.2923 80.6262C45.013 77.8456 47.778 75.0945 50.543 72.373C51.8738 71.0566 53.5003 70.7903 55.2598 71.3672C55.659 71.5003 55.9104 71.4855 56.2209 71.1749C57.1672 70.1987 58.1431 69.2669 59.1486 68.2907C55.8217 64.1197 54.5501 59.4606 55.5703 54.2838C56.4131 49.9944 58.6902 46.5629 62.2685 44.0337C69.0554 39.1971 78.4594 40.2473 84.0634 46.4446C89.7413 52.7159 89.7856 62.1525 84.1817 68.5569C78.7847 74.6951 68.7744 76.4404 61.0412 70.1987ZM77.2469 57.5377C77.2469 59.4014 77.2469 61.2798 77.2469 63.1435C77.2469 64.2084 77.7201 64.7853 78.5777 64.8148C79.4796 64.8296 80.0267 64.2232 80.0267 63.1583C80.0415 59.4162 80.0267 55.6741 80.0267 51.9468C80.0267 50.8819 79.4649 50.2459 78.5925 50.2607C77.7497 50.2754 77.2469 50.8819 77.2321 51.932C77.2469 53.7957 77.2469 55.6741 77.2469 57.5377ZM70.7558 58.8837C70.7558 57.4342 70.7558 55.9847 70.7558 54.5352C70.7558 53.6478 70.1791 53.0117 69.4102 52.997C68.6561 52.9822 68.0203 53.633 68.0203 54.5056C68.0055 57.449 68.0055 60.4072 68.0203 63.3505C68.0203 64.2676 68.597 64.8148 69.425 64.8C70.253 64.7853 70.7558 64.238 70.7558 63.2914C70.7558 61.8419 70.7558 60.3628 70.7558 58.8837ZM75.3839 59.8599C75.3839 58.721 75.3986 57.5969 75.3839 56.458C75.3691 55.467 74.8516 54.8902 74.0087 54.8902C73.1511 54.8902 72.6632 55.4374 72.6484 56.458C72.6484 58.721 72.6484 60.9988 72.6484 63.2618C72.6484 64.2824 73.1216 64.8148 73.994 64.8148C74.8516 64.8148 75.3543 64.2676 75.3691 63.2618C75.3986 62.1377 75.3839 60.9988 75.3839 59.8599ZM66.1573 61.2355C66.1573 60.5255 66.172 59.8155 66.1573 59.1056C66.1277 58.2477 65.5658 57.6709 64.7969 57.6561C63.9985 57.6413 63.3922 58.2477 63.3775 59.1204C63.3479 60.5403 63.3479 61.975 63.3775 63.3949C63.3922 64.238 63.9689 64.8148 64.7526 64.8148C65.5806 64.8296 66.1425 64.2824 66.172 63.3653C66.172 62.6702 66.1573 61.9454 66.1573 61.2355Z" fill="#202020" fill-opacity="0.5"/>
</svg>
