<svg width="130" height="130" viewBox="0 0 130 130" fill="none" xmlns="http://www.w3.org/2000/svg">
<circle cx="65" cy="65" r="65" fill="white"/>
<circle cx="65" cy="65" r="64.25" stroke="#202020" stroke-opacity="0.5" stroke-width="1.5"/>
<path d="M54.9827 46.5818C53.0457 46.5818 51.2861 46.5818 49.4379 46.5818C49.4379 47.0254 49.4526 47.4394 49.4379 47.8386C49.3935 48.7702 48.876 49.2877 47.9444 49.3025C46.1257 49.3172 44.2923 49.3172 42.4735 49.3025C41.5716 49.3025 41.0393 48.7997 41.0245 47.8978C40.9949 46.0791 40.9949 44.2456 41.0097 42.4269C41.0245 41.5841 41.5568 41.037 42.4144 41.0222C44.2627 40.9926 46.111 40.9926 47.9592 41.0222C48.8316 41.037 49.3787 41.5841 49.4231 42.4564C49.4526 42.8705 49.4231 43.2845 49.4231 43.7576C53.1936 43.7576 56.9345 43.7576 60.7345 43.7576C61.4738 42.1016 62.7307 41.0222 64.6677 41.037C66.5751 41.037 67.8319 42.072 68.586 43.7872C72.3269 43.7872 76.0678 43.7872 79.8975 43.7872C79.8975 43.3732 79.8827 42.9887 79.8975 42.6043C79.9418 41.5988 80.4741 41.037 81.4648 41.0222C83.2392 41.0074 85.0135 41.0074 86.7878 41.0222C87.8081 41.037 88.3404 41.5545 88.3404 42.5747C88.3552 44.3047 88.3552 46.0199 88.3404 47.7499C88.3256 48.8293 87.8377 49.3025 86.7287 49.3025C84.9987 49.3025 83.2835 49.3025 81.5535 49.3025C80.4446 49.3025 79.927 48.7997 79.9123 47.6908C79.9123 47.3507 79.9123 47.0106 79.9123 46.6114C78.0936 46.6114 76.334 46.6114 74.4266 46.6114C74.8406 46.9219 75.1511 47.1585 75.4616 47.395C79.6905 50.648 81.9971 54.9656 82.5886 60.2443C82.6181 60.4808 82.8695 60.7914 83.0913 60.9096C84.8213 61.7968 85.7085 63.4824 85.4127 65.3603C85.1318 67.0903 83.6827 68.5245 81.9675 68.7611C80.0749 69.0273 78.3745 68.0957 77.5465 66.3658C76.6593 64.4731 77.3395 62.1813 79.2025 61.1166C79.7496 60.8061 79.8235 60.4661 79.7644 59.9485C79.0694 54.0045 74.6927 48.8589 68.9113 47.2176C68.7487 47.1732 68.586 47.1289 68.4381 47.0845C66.5603 50.0713 62.8046 50.0418 60.9563 47.1141C55.1601 48.5484 50.6651 53.3982 49.7484 59.2388C49.7188 59.3867 49.6892 59.5197 49.6596 59.6676C49.5266 60.3182 49.5414 60.8061 50.2807 61.2202C51.9515 62.1665 52.5577 64.1035 51.9811 65.9665C51.4488 67.7113 49.7484 68.8646 47.8409 68.7907C46.0222 68.7168 44.4549 67.4451 44.0113 65.656C43.5529 63.8521 44.3514 61.9447 46.0222 61.0871C46.6285 60.7766 46.7616 60.4217 46.8355 59.8155C47.5452 54.4037 50.0737 50.0418 54.5982 46.8923C54.6722 46.8332 54.7461 46.774 54.9827 46.5818Z" fill="#8F8F8F"/>
<path d="M63.3054 53.4577C63.3054 55.5425 63.3054 57.6422 63.3054 59.727C63.3054 61.7232 63.2907 63.7193 63.3202 65.7155C63.3202 66.1442 63.2019 66.366 62.8027 66.5583C61.0284 67.4602 60.1855 69.3529 60.6439 71.2011C61.1171 73.0642 62.8027 74.395 64.6806 74.395C66.5732 74.3802 68.244 73.0494 68.7024 71.1863C69.1608 69.3233 68.2884 67.5046 66.5288 66.5287C66.307 66.4104 66.0557 66.0851 66.0409 65.8485C66.0113 61.7823 66.0261 57.7161 66.0261 53.6499C66.0261 53.5908 66.0557 53.5168 66.1 53.3394C66.2775 53.5612 66.4105 53.709 66.5288 53.8865C69.9149 58.9581 73.3009 64.0446 76.687 69.1311C77.308 70.0626 77.3228 70.5949 76.6278 71.3194C74.2177 73.8479 72.6947 76.8199 71.9997 80.2355C71.9849 80.3094 71.9406 80.3686 71.9554 80.3538C67.1203 79.6736 62.3148 79.718 57.3762 80.339C57.2727 79.925 57.11 79.3188 56.9474 78.7125C56.1785 76.0362 54.8625 73.6704 52.9847 71.6299C51.9644 70.521 51.9348 70.1809 52.7777 68.9241C56.075 63.9707 59.3871 59.0025 62.6844 54.0491C62.8323 53.8273 62.9949 53.6203 63.1428 53.3985C63.2019 53.4281 63.2611 53.4429 63.3054 53.4577Z" fill="#8F8F8F"/>
<path d="M64.6805 88.3384C62.0929 88.3384 59.5053 88.3384 56.9177 88.3384C55.4095 88.3384 54.8181 87.4808 55.4391 86.1352C56.4002 84.0356 58.0267 82.7935 60.3777 82.7492C63.2314 82.69 66.0852 82.7048 68.9389 82.7344C71.2603 82.764 73.3156 84.3313 74.0549 86.5197C74.3802 87.4955 73.7296 88.3236 72.5615 88.3384C70.6837 88.3532 68.8206 88.3384 66.9428 88.3384C66.2035 88.3384 65.4346 88.3384 64.6805 88.3384Z" fill="#8F8F8F"/>
<path d="M66.0254 70.2548C66.0106 70.9941 65.4043 71.6151 64.6798 71.6299C63.9257 71.6447 63.3047 70.9941 63.3047 70.2104C63.3195 69.4711 63.9257 68.8501 64.6502 68.8353C65.4191 68.8205 66.0401 69.4711 66.0254 70.2548Z" fill="#8F8F8F"/>
</svg>
