<svg width="130" height="130" viewBox="0 0 130 130" fill="none" xmlns="http://www.w3.org/2000/svg">
<circle cx="65" cy="65" r="65" fill="white"/>
<circle cx="65" cy="65" r="64.25" stroke="#202020" stroke-opacity="0.5" stroke-width="1.5"/>
<path d="M48.3123 41.4393C48.3705 42.437 48.2541 43.4738 48.4868 44.4323C49.1075 46.9558 51.0859 48.6186 53.6655 48.6382C60.9972 48.6968 68.3483 48.7164 75.6799 48.6382C78.8415 48.599 81.0138 46.1733 81.0138 43.0043C81.0138 42.4957 81.0138 41.9675 81.0138 41.4589C85.2227 40.6373 88.3455 43.1999 88.3455 47.484C88.3455 61.823 88.3455 76.1816 88.3455 90.5206C88.3455 94.3352 86.0761 96.6239 82.3327 96.6239C70.5594 96.6239 58.7861 96.6239 47.0321 96.6239C43.2693 96.6239 41.0194 94.3352 41 90.5206C41 76.1816 41 61.823 41 47.484C41 43.1803 44.1033 40.6373 48.3123 41.4393ZM69.5314 83.5173C68.678 84.3194 67.9603 84.9845 67.2815 85.6692C66.3117 86.6473 66.2341 87.6841 67.0681 88.4861C67.8246 89.2295 68.9301 89.1708 69.803 88.2514C70.5012 87.5276 71.1025 86.7451 71.9365 85.7865C72.4602 86.4517 72.7511 86.8429 73.0809 87.195C73.43 87.5863 73.7985 87.9384 74.167 88.3101C75.0205 89.1317 76.1066 89.1903 76.8437 88.4861C77.6583 87.7036 77.6195 86.6473 76.7273 85.7279C76.0097 84.9845 75.2726 84.2998 74.4192 83.4782C75.2726 82.6762 76.0291 82.0111 76.7273 81.2873C77.6389 80.3483 77.6583 79.3115 76.8437 78.529C76.0678 77.7857 75.0399 77.8248 74.1864 78.7051C73.4688 79.4484 72.8093 80.2309 72.0141 81.1503C71.1025 80.1527 70.4236 79.3702 69.6866 78.6464C68.872 77.8248 67.844 77.8052 67.0875 78.529C66.2923 79.2919 66.2729 80.3287 67.1263 81.209C67.844 81.9524 68.6198 82.6566 69.5314 83.5173ZM71.8783 59.1039C71.0443 58.1845 70.346 57.3237 69.5702 56.5608C68.7944 55.8174 67.747 55.8761 67.0487 56.5608C66.3311 57.2846 66.2729 58.3018 67.0293 59.1039C68.2319 60.3754 69.4732 61.6274 70.734 62.8402C71.471 63.5445 72.4602 63.564 73.1778 62.8402C75.0593 61.0014 76.9213 59.143 78.7251 57.2259C79.7337 56.15 79.1518 54.409 77.7165 54.2525C77.154 54.1938 76.3782 54.5459 75.9321 54.9567C74.5744 56.2087 73.333 57.578 71.8783 59.1039ZM71.8977 70.0586C71.0637 69.1588 70.3848 68.3372 69.609 67.5743C68.8138 66.8113 67.7082 66.8309 67.0099 67.5743C66.3117 68.3176 66.2923 69.3153 67.0487 70.1173C68.2319 71.3693 69.4344 72.5821 70.6758 73.7754C71.4322 74.5188 72.4602 74.5383 73.1972 73.795C75.0787 71.9562 76.9407 70.0978 78.7445 68.2002C79.7531 67.1439 79.113 65.3637 77.6777 65.2464C77.1346 65.1877 76.3976 65.5202 75.9709 65.9115C74.6325 67.1634 73.3912 68.5328 71.8977 70.0586ZM55.5663 72.543C56.6913 72.543 57.8163 72.5626 58.9412 72.543C60.202 72.5235 60.9778 71.8192 60.9972 70.7042C60.9972 69.5891 60.2408 68.8458 58.98 68.8458C56.7301 68.8262 54.4608 68.8262 52.2108 68.8458C50.9695 68.8653 50.1355 69.6087 50.1355 70.6846C50.1161 71.7605 50.9501 72.5235 52.1721 72.5626C53.297 72.543 54.4414 72.543 55.5663 72.543ZM55.5663 59.632C56.7689 59.632 57.952 59.6516 59.1546 59.632C60.2602 59.6125 60.9584 58.9474 60.9778 57.9301C61.0166 56.8934 60.3571 56.0718 59.3098 56.0522C56.8271 55.9935 54.325 55.9935 51.8423 56.0522C50.7949 56.0718 50.0773 56.9325 50.1161 57.9106C50.1549 58.9083 50.8919 59.6125 51.9587 59.632C53.1806 59.6516 54.3832 59.632 55.5663 59.632ZM55.6439 81.7176C54.422 81.7176 53.1806 81.6981 51.9587 81.7176C50.8919 81.7372 50.1549 82.461 50.1355 83.4587C50.1161 84.4368 50.8337 85.2779 51.8811 85.2975C54.3444 85.3366 56.7883 85.3366 59.2516 85.2975C60.3765 85.2779 61.036 84.4759 60.9972 83.4C60.9584 82.3827 60.2602 81.7176 59.1546 81.7176C57.9714 81.7176 56.8077 81.7176 55.6439 81.7176Z" fill="#8F8F8F"/>
<path d="M64.6833 44.9605C61.192 44.9605 57.7007 44.9605 54.2095 44.9605C52.425 44.9605 51.785 44.178 52.0371 42.3783C52.425 39.7374 54.578 37.7812 57.1964 37.703C57.3904 37.703 57.5844 37.6638 57.7783 37.703C58.8839 37.8595 59.5434 37.5269 60.2222 36.4705C62.414 32.9494 67.5733 33.2624 69.4741 36.9596C69.8038 37.6247 70.1917 37.703 70.8124 37.7421C71.8016 37.7812 72.8296 37.7812 73.7606 38.0551C75.9135 38.7006 77.3682 40.8329 77.4264 43.0825C77.4458 44.1976 76.67 44.98 75.448 44.9996C71.8598 44.9605 68.2715 44.9605 64.6833 44.9605Z" fill="#8F8F8F"/>
</svg>
