<svg width="130" height="130" viewBox="0 0 130 130" fill="none" xmlns="http://www.w3.org/2000/svg">
<circle cx="65" cy="65" r="64.25" fill="white" stroke="#3C83CB" stroke-width="1.5"/>
<g clip-path="url(#clip0_1159_422)">
<rect x="46" y="41" width="38.1818" height="47.3455" fill="#3C83CB"/>
<path d="M77.1331 84.5952C77.1331 85.8552 77.1331 87.0707 77.1331 88.3455C66.7507 88.3455 56.4107 88.3455 46 88.3455C46 72.5735 46 56.8164 46 41C53.1194 41 60.2529 41 67.4852 41C67.4852 41.2372 67.4852 41.504 67.4852 41.756C67.4852 44.7206 67.4852 47.6853 67.4852 50.6499C67.4852 51.9989 67.9514 52.4732 69.2368 52.4732C71.5958 52.4732 73.9407 52.4732 76.2997 52.4732C76.5539 52.4732 76.8082 52.4732 77.119 52.4732C77.119 55.3044 77.119 58.0912 77.119 60.9373C74.0537 60.626 71.2427 61.382 68.7989 63.3683C66.3552 65.3398 64.9708 67.9931 64.4764 71.2098C59.928 71.2098 55.4219 71.2098 50.8592 71.2098C50.8592 72.2178 50.8592 73.1665 50.8592 74.1744C55.3795 74.1744 59.8856 74.1744 64.3776 74.1744C65.9738 81.26 70.1691 84.7434 77.1331 84.5952ZM72.4857 55.2007C65.2392 55.2007 58.0351 55.2007 50.831 55.2007C50.831 56.1938 50.831 57.1129 50.831 58.0616C58.0775 58.0616 65.2816 58.0616 72.4857 58.0616C72.4857 57.0684 72.4857 56.1494 72.4857 55.2007ZM65.0273 63.2349C60.2529 63.2349 55.549 63.2349 50.831 63.2349C50.831 64.2132 50.831 65.1471 50.831 66.1106C55.5772 66.1106 60.2952 66.1106 65.0273 66.1106C65.0273 65.1471 65.0273 64.2132 65.0273 63.2349ZM50.831 82.2531C55.6055 82.2531 60.3094 82.2531 65.0132 82.2531C65.0132 81.2451 65.0132 80.2964 65.0132 79.3626C60.267 79.3626 55.5631 79.3626 50.831 79.3626C50.831 80.3409 50.831 81.26 50.831 82.2531ZM50.831 49.9829C54.7721 49.9829 58.6708 49.9829 62.5977 49.9829C62.5977 48.9897 62.5977 48.041 62.5977 47.0775C58.6566 47.0775 54.7579 47.0775 50.831 47.0775C50.831 48.041 50.831 48.9749 50.831 49.9829Z" fill="white"/>
<path d="M67.2891 72.7366C67.2891 67.8153 71.0748 63.8426 75.7645 63.8723C80.426 63.9019 84.1976 67.8597 84.1834 72.7366C84.1834 77.6579 80.3977 81.6009 75.6939 81.5861C71.0324 81.5712 67.2891 77.6283 67.2891 72.7366ZM72.0918 72.1585C71.5127 73.0034 70.99 73.7742 70.4391 74.5747C71.5692 75.4196 72.6427 76.2645 73.7586 77.0502C74.3519 77.4652 75.0441 77.3614 75.5667 76.8426C75.9623 76.4424 76.3154 76.0273 76.6827 75.6123C78.18 73.9373 79.6632 72.2622 81.1746 70.5576C80.4684 69.8609 79.7903 69.2087 79.0982 68.5268C77.502 70.3056 75.934 72.0695 74.3519 73.8335C73.5891 73.2554 72.8828 72.7366 72.0918 72.1585Z" fill="white"/>
<path d="M70.3828 49.4048C70.3828 47.4778 70.3828 45.5656 70.3828 43.4607C72.0779 45.4914 73.6741 47.3888 75.3692 49.4048C73.6176 49.4048 72.0214 49.4048 70.3828 49.4048Z" fill="white"/>
</g>
<rect x="46.5" y="41.5" width="37.1818" height="46.3455" stroke="#3C83CB"/>
<defs>
<clipPath id="clip0_1159_422">
<rect x="46" y="41" width="38.1818" height="47.3455" fill="white"/>
</clipPath>
</defs>
</svg>
