<svg width="130" height="130" viewBox="0 0 130 130" fill="none" xmlns="http://www.w3.org/2000/svg">
<circle cx="65" cy="65" r="65" fill="white"/>
<circle cx="65" cy="65" r="64.25" stroke="#202020" stroke-opacity="0.5" stroke-width="1.5"/>
<path d="M41.0149 54.9199C56.8164 54.9199 72.5145 54.9199 88.316 54.9199C88.316 55.217 88.316 55.4696 88.316 55.737C88.316 65.0961 88.2864 74.4553 88.3308 83.7996C88.3456 86.3696 86.3944 88.3603 83.7928 88.3455C71.0363 88.286 58.2798 88.286 45.5233 88.3455C42.9365 88.3455 40.9853 86.3845 41.0001 83.7996C41.0592 74.4404 41.0149 65.0813 41.0149 55.737C41.0149 55.4844 41.0149 55.2467 41.0149 54.9199ZM70.1938 60.6245C70.179 59.8075 69.7355 59.2578 69.1295 59.1241C68.4052 58.9755 67.8287 59.2875 67.5035 60.0749C64.7837 66.448 62.0639 72.8211 59.3588 79.2091C58.9597 80.1451 59.2406 80.9621 60.0092 81.2741C60.7631 81.5712 61.4874 81.2147 61.8865 80.3085C64.5915 73.9799 67.2966 67.6513 69.9868 61.3227C70.0903 61.0405 70.1642 60.7582 70.1938 60.6245ZM77.688 70.2065C77.4811 70.3848 77.3185 70.5333 77.1559 70.667C75.5003 72.0041 73.8448 73.3114 72.204 74.6633C71.5389 75.2129 71.4354 76.0151 71.9084 76.6391C72.3814 77.263 73.224 77.3819 73.8744 76.8768C76.1655 75.0495 78.4567 73.2222 80.733 71.3653C81.5312 70.7116 81.5312 69.7757 80.7478 69.1369C78.4567 67.2651 76.1507 65.4081 73.83 63.5808C73.2092 63.0906 72.3814 63.2243 71.9232 63.8185C71.465 64.3979 71.5389 65.2001 72.1301 65.7498C72.3223 65.928 72.544 66.0915 72.7657 66.2697C74.3769 67.5473 76.0029 68.8695 77.688 70.2065ZM51.6576 70.2362C51.8793 70.058 51.9976 69.9391 52.1306 69.8351C53.801 68.4832 55.4713 67.1611 57.1416 65.7943C57.8068 65.2447 57.9102 64.4425 57.452 63.8185C57.0086 63.2243 56.1512 63.0609 55.5452 63.5363C53.1949 65.4081 50.8446 67.2799 48.5239 69.1963C47.844 69.7608 47.8883 70.6671 48.5387 71.2761C48.8491 71.5584 49.1891 71.8109 49.5143 72.0784C51.4802 73.6531 53.4314 75.2278 55.3974 76.8025C56.1069 77.367 56.9347 77.2927 57.4372 76.6688C57.9398 76.0449 57.8068 75.2278 57.1268 74.6484C56.9347 74.485 56.7425 74.3364 56.5503 74.1879C54.9391 72.8657 53.3279 71.5733 51.6576 70.2362Z" fill="#8F8F8F"/>
<path d="M88.3311 52.1121C72.5296 52.1121 56.8315 52.1121 41.0744 52.1121C41.0596 51.8745 41.03 51.6516 41.03 51.4436C41.03 49.4084 41.0152 47.388 41.03 45.3528C41.03 42.7678 42.7595 41 45.3167 41C58.221 41 71.1254 41 84.0297 41C86.5573 41 88.3016 42.753 88.3164 45.2785C88.3311 47.5366 88.3311 49.7798 88.3311 52.1121ZM77.2006 46.5264C75.8702 46.5264 74.5399 46.5115 73.2243 46.5264C72.2635 46.5412 71.6575 47.076 71.6427 47.908C71.6279 48.7696 72.2488 49.3341 73.2539 49.349C75.8555 49.3638 78.4718 49.3638 81.0734 49.349C82.049 49.349 82.7289 48.7547 82.7289 47.9377C82.7289 47.1206 82.049 46.5412 81.0586 46.5412C79.7578 46.5264 78.4718 46.5264 77.2006 46.5264ZM48.0217 49.349C48.7164 49.3638 49.3964 48.725 49.4407 47.9971C49.4851 47.2692 48.8051 46.5561 48.0661 46.5264C47.3713 46.5115 46.6914 47.1503 46.647 47.8782C46.6027 48.6062 47.2826 49.3341 48.0217 49.349ZM60.5269 47.9674C60.5417 47.2692 59.9061 46.5858 59.1966 46.5412C58.4723 46.4966 57.748 47.18 57.7332 47.908C57.7184 48.6062 58.354 49.2895 59.0636 49.3341C59.7879 49.3935 60.5122 48.7102 60.5269 47.9674ZM54.9395 47.908C54.9247 47.1652 54.3187 46.5412 53.5944 46.5412C52.8405 46.5412 52.2197 47.1949 52.2345 47.9674C52.2492 48.7102 52.8553 49.3341 53.5796 49.349C54.3334 49.349 54.9543 48.6953 54.9395 47.908Z" fill="#8F8F8F"/>
</svg>
