<svg width="64" height="64" viewBox="0 0 64 64" fill="none" xmlns="http://www.w3.org/2000/svg">
<g id="angular-Custom_software_services_1.svg">
<g id="Clip path group">
<mask id="mask0_7029_186" style="mask-type:luminance" maskUnits="userSpaceOnUse" x="4" y="4" width="56" height="56">
<g id="clip0_1_3999">
<path id="Vector" d="M60 4H4V60H60V4Z" fill="white"/>
</g>
</mask>
<g mask="url(#mask0_7029_186)">
<g id="Group">
<path id="Vector_2" d="M48.4063 54.9688H43.0255L41.9317 51.6875H22.0683L20.9745 54.9688H15.5937C14.6871 54.9688 13.9531 55.7028 13.9531 56.6094C13.9531 57.516 14.6871 58.25 15.5937 58.25H48.4063C49.3129 58.25 50.0469 57.516 50.0469 56.6094C50.0469 55.7028 49.3129 54.9688 48.4063 54.9688Z" fill="#1265FF"/>
<path id="Vector_3" d="M48.4063 15.5938C47.501 15.5938 46.7656 16.3291 46.7656 17.2344C46.7656 18.1398 47.501 18.875 48.4063 18.875C49.3116 18.875 50.0469 18.1398 50.0469 17.2344C50.0469 16.3291 49.3116 15.5938 48.4063 15.5938Z" fill="#1265FF"/>
<path id="Vector_4" d="M54.9687 5.75H8.92187C6.20801 5.75 4 7.958 4 10.6719V38.5625H13.9531V33.6406C13.9531 32.734 14.6871 32 15.5937 32H18.1286C18.2982 31.5227 18.4922 31.0545 18.7118 30.5948L16.9187 28.8003C16.2778 28.1595 16.2778 27.1213 16.9187 26.4804L21.5585 21.8405C22.1994 21.1997 23.2376 21.1997 23.8785 21.8405L25.6729 23.6349C26.1326 23.4153 26.6005 23.2201 27.0781 23.0501V20.5156C27.0781 19.609 27.8121 18.875 28.7187 18.875H35.2813C36.1879 18.875 36.9219 19.609 36.9219 20.5156V23.0505C37.3991 23.2201 37.8674 23.4158 38.3271 23.6349L40.1215 21.8405C40.7624 21.2001 41.8006 21.2001 42.4415 21.8405L47.0813 26.4804C47.7222 27.1213 47.7222 28.1599 47.0813 28.8003L45.2882 30.5948C45.5078 31.0549 45.7018 31.5227 45.8714 32H48.4063C49.3129 32 50.0469 32.734 50.0469 33.6406V38.5625H60V10.6719C60 7.958 57.6826 5.75 54.9687 5.75ZM48.4063 22.1563C45.6924 22.1563 43.4844 19.9483 43.4844 17.2344C43.4844 14.5205 45.6924 12.3125 48.4063 12.3125C51.1201 12.3125 53.3281 14.5205 53.3281 17.2344C53.3281 19.9483 51.1201 22.1563 48.4063 22.1563Z" fill="#1265FF"/>
<path id="Vector_5" d="M27.0781 36.9219C27.0781 37.4888 27.2089 38.0357 27.3964 38.5625H36.6036C36.7911 38.0357 36.9219 37.4888 36.9219 36.9219C36.9219 34.208 34.7139 32 32 32C29.2857 32 27.0781 34.208 27.0781 36.9219Z" fill="#1265FF"/>
<path id="Vector_6" d="M20.9288 34.0508C20.7416 34.7749 20.0879 35.2812 19.3394 35.2812H17.2344V38.5625H24.0126C23.9024 38.022 23.7968 37.479 23.7968 36.9219C23.7968 32.399 27.4772 28.7187 32 28.7187C36.5228 28.7187 40.2031 32.399 40.2031 36.9219C40.2031 37.479 40.0976 38.022 39.9873 38.5625H46.7656V35.2812H44.6606C43.912 35.2812 43.2583 34.7749 43.0712 34.0508C42.8097 33.0335 42.4013 32.0495 41.8566 31.1267C41.4767 30.4829 41.581 29.6625 42.1094 29.1336L43.6014 27.6404L41.2814 25.3204L39.7882 26.8136C39.2593 27.3442 38.4373 27.4498 37.7934 27.0653C36.8723 26.5222 35.89 26.1121 34.871 25.8506C34.1469 25.6635 33.6406 25.0098 33.6406 24.2612V22.1562H30.3594V24.2612C30.3594 25.0098 29.853 25.6635 29.1289 25.8506C28.1099 26.1121 27.1276 26.5222 26.2065 27.0653C25.5656 27.4498 24.7419 27.3442 24.2117 26.8136L22.7185 25.3204L20.3985 27.6404L21.8905 29.1336C22.419 29.6625 22.5232 30.4829 22.1434 31.1267C21.5986 32.0495 21.1902 33.0335 20.9288 34.0508Z" fill="#1265FF"/>
<path id="Vector_7" d="M4 43.4844C4 46.1983 6.20801 48.4063 8.92187 48.4063H54.9687C57.6826 48.4063 60 46.1983 60 43.4844V41.8438H4V43.4844Z" fill="#1265FF"/>
</g>
</g>
</g>
</g>
</svg>
