<svg width="612" height="432" viewBox="0 0 612 432" fill="none" xmlns="http://www.w3.org/2000/svg">
<path d="M68.16 418.84L67.42 422.3H70.06V424.3H67L66.2 428H64.02L64.82 424.3H60.9L60.1 428H57.92L58.72 424.3H55.62V422.3H59.14L59.88 418.84H56.8V416.84H60.3L61.08 413.2H63.26L62.48 416.84H66.4L67.18 413.2H69.36L68.58 416.84H71.24V418.84H68.16ZM65.98 418.84H62.06L61.32 422.3H65.24L65.98 418.84ZM73.3614 424.96V423.24L80.0814 413.6H82.8414V422.98H84.7014V424.96H82.8414V428H80.6014V424.96H73.3614ZM80.7014 415.92L75.9814 422.98H80.7014V415.92ZM91.4306 414.1C92.9106 414.1 94.204 414.387 95.3106 414.96C96.4306 415.52 97.2906 416.333 97.8906 417.4C98.504 418.453 98.8106 419.687 98.8106 421.1C98.8106 422.513 98.504 423.74 97.8906 424.78C97.2906 425.82 96.4306 426.62 95.3106 427.18C94.204 427.727 92.9106 428 91.4306 428H86.8906V414.1H91.4306ZM91.4306 426.14C93.0573 426.14 94.304 425.7 95.1706 424.82C96.0373 423.94 96.4706 422.7 96.4706 421.1C96.4706 419.487 96.0373 418.227 95.1706 417.32C94.304 416.413 93.0573 415.96 91.4306 415.96H89.1706V426.14H91.4306ZM100.73 417.02C100.81 415.78 101.284 414.813 102.15 414.12C103.03 413.427 104.15 413.08 105.51 413.08C106.444 413.08 107.25 413.247 107.93 413.58C108.61 413.913 109.124 414.367 109.47 414.94C109.817 415.513 109.99 416.16 109.99 416.88C109.99 417.707 109.77 418.413 109.33 419C108.89 419.587 108.364 419.98 107.75 420.18V420.26C108.537 420.5 109.15 420.94 109.59 421.58C110.03 422.207 110.25 423.013 110.25 424C110.25 424.787 110.07 425.487 109.71 426.1C109.35 426.713 108.817 427.2 108.11 427.56C107.404 427.907 106.557 428.08 105.57 428.08C104.13 428.08 102.944 427.713 102.01 426.98C101.09 426.233 100.597 425.167 100.53 423.78H102.73C102.784 424.487 103.057 425.067 103.55 425.52C104.044 425.96 104.71 426.18 105.55 426.18C106.364 426.18 106.99 425.96 107.43 425.52C107.87 425.067 108.09 424.487 108.09 423.78C108.09 422.847 107.79 422.187 107.19 421.8C106.604 421.4 105.697 421.2 104.47 421.2H103.95V419.32H104.49C105.57 419.307 106.39 419.127 106.95 418.78C107.524 418.433 107.81 417.887 107.81 417.14C107.81 416.5 107.604 415.993 107.19 415.62C106.777 415.233 106.19 415.04 105.43 415.04C104.684 415.04 104.104 415.233 103.69 415.62C103.277 415.993 103.03 416.46 102.95 417.02H100.73ZM113.905 424.9C115.185 423.793 116.192 422.887 116.925 422.18C117.672 421.46 118.292 420.713 118.785 419.94C119.279 419.167 119.525 418.393 119.525 417.62C119.525 416.82 119.332 416.193 118.945 415.74C118.572 415.287 117.979 415.06 117.165 415.06C116.379 415.06 115.765 415.313 115.325 415.82C114.899 416.313 114.672 416.98 114.645 417.82H112.445C112.485 416.3 112.939 415.14 113.805 414.34C114.685 413.527 115.799 413.12 117.145 413.12C118.599 413.12 119.732 413.52 120.545 414.32C121.372 415.12 121.785 416.187 121.785 417.52C121.785 418.48 121.539 419.407 121.045 420.3C120.565 421.18 119.985 421.973 119.305 422.68C118.639 423.373 117.785 424.18 116.745 425.1L115.845 425.9H122.185V427.8H112.465V426.14L113.905 424.9ZM127.028 424.04C127.162 424.707 127.448 425.213 127.888 425.56C128.328 425.907 128.922 426.08 129.668 426.08C130.615 426.08 131.308 425.707 131.748 424.96C132.188 424.213 132.408 422.94 132.408 421.14C132.088 421.593 131.635 421.947 131.048 422.2C130.475 422.44 129.848 422.56 129.168 422.56C128.302 422.56 127.515 422.387 126.808 422.04C126.102 421.68 125.542 421.153 125.128 420.46C124.728 419.753 124.528 418.9 124.528 417.9C124.528 416.433 124.955 415.267 125.808 414.4C126.675 413.52 127.862 413.08 129.368 413.08C131.182 413.08 132.468 413.687 133.228 414.9C134.002 416.1 134.388 417.947 134.388 420.44C134.388 422.16 134.242 423.567 133.948 424.66C133.668 425.753 133.175 426.58 132.468 427.14C131.762 427.7 130.782 427.98 129.528 427.98C128.102 427.98 127.002 427.607 126.228 426.86C125.455 426.113 125.022 425.173 124.928 424.04H127.028ZM129.568 420.64C130.368 420.64 130.995 420.393 131.448 419.9C131.915 419.393 132.148 418.727 132.148 417.9C132.148 416.98 131.902 416.267 131.408 415.76C130.928 415.24 130.268 414.98 129.428 414.98C128.588 414.98 127.922 415.247 127.428 415.78C126.948 416.3 126.708 416.987 126.708 417.84C126.708 418.653 126.942 419.327 127.408 419.86C127.888 420.38 128.608 420.64 129.568 420.64ZM138.144 424.9C139.424 423.793 140.43 422.887 141.164 422.18C141.91 421.46 142.53 420.713 143.024 419.94C143.517 419.167 143.764 418.393 143.764 417.62C143.764 416.82 143.57 416.193 143.184 415.74C142.81 415.287 142.217 415.06 141.404 415.06C140.617 415.06 140.004 415.313 139.564 415.82C139.137 416.313 138.91 416.98 138.884 417.82H136.684C136.724 416.3 137.177 415.14 138.044 414.34C138.924 413.527 140.037 413.12 141.384 413.12C142.837 413.12 143.97 413.52 144.784 414.32C145.61 415.12 146.024 416.187 146.024 417.52C146.024 418.48 145.777 419.407 145.284 420.3C144.804 421.18 144.224 421.973 143.544 422.68C142.877 423.373 142.024 424.18 140.984 425.1L140.084 425.9H146.424V427.8H136.704V426.14L138.144 424.9Z" fill="#33475B"/>
<rect width="200" height="394" fill="#4D3292"/>
<rect x="202" width="150" height="394" fill="#F29339"/>
<path d="M243.16 418.84L242.42 422.3H245.06V424.3H242L241.2 428H239.02L239.82 424.3H235.9L235.1 428H232.92L233.72 424.3H230.62V422.3H234.14L234.88 418.84H231.8V416.84H235.3L236.08 413.2H238.26L237.48 416.84H241.4L242.18 413.2H244.36L243.58 416.84H246.24V418.84H243.16ZM240.98 418.84H237.06L236.32 422.3H240.24L240.98 418.84ZM248.641 420.52C248.641 418.213 249.028 416.413 249.801 415.12C250.588 413.813 251.935 413.16 253.841 413.16C255.748 413.16 257.088 413.813 257.861 415.12C258.648 416.413 259.041 418.213 259.041 420.52C259.041 422.853 258.648 424.68 257.861 426C257.088 427.307 255.748 427.96 253.841 427.96C251.935 427.96 250.588 427.307 249.801 426C249.028 424.68 248.641 422.853 248.641 420.52ZM256.801 420.52C256.801 419.44 256.728 418.527 256.581 417.78C256.448 417.033 256.168 416.427 255.741 415.96C255.315 415.48 254.681 415.24 253.841 415.24C253.001 415.24 252.368 415.48 251.941 415.96C251.515 416.427 251.228 417.033 251.081 417.78C250.948 418.527 250.881 419.44 250.881 420.52C250.881 421.64 250.948 422.58 251.081 423.34C251.215 424.1 251.495 424.713 251.921 425.18C252.361 425.647 253.001 425.88 253.841 425.88C254.681 425.88 255.315 425.647 255.741 425.18C256.181 424.713 256.468 424.1 256.601 423.34C256.735 422.58 256.801 421.64 256.801 420.52ZM261.454 420.52C261.454 418.213 261.841 416.413 262.614 415.12C263.401 413.813 264.747 413.16 266.654 413.16C268.561 413.16 269.901 413.813 270.674 415.12C271.461 416.413 271.854 418.213 271.854 420.52C271.854 422.853 271.461 424.68 270.674 426C269.901 427.307 268.561 427.96 266.654 427.96C264.747 427.96 263.401 427.307 262.614 426C261.841 424.68 261.454 422.853 261.454 420.52ZM269.614 420.52C269.614 419.44 269.541 418.527 269.394 417.78C269.261 417.033 268.981 416.427 268.554 415.96C268.127 415.48 267.494 415.24 266.654 415.24C265.814 415.24 265.181 415.48 264.754 415.96C264.327 416.427 264.041 417.033 263.894 417.78C263.761 418.527 263.694 419.44 263.694 420.52C263.694 421.64 263.761 422.58 263.894 423.34C264.027 424.1 264.307 424.713 264.734 425.18C265.174 425.647 265.814 425.88 266.654 425.88C267.494 425.88 268.127 425.647 268.554 425.18C268.994 424.713 269.281 424.1 269.414 423.34C269.547 422.58 269.614 421.64 269.614 420.52ZM276.726 420.38C275.34 419.687 274.646 418.593 274.646 417.1C274.646 416.38 274.826 415.72 275.186 415.12C275.546 414.52 276.086 414.047 276.806 413.7C277.526 413.34 278.406 413.16 279.446 413.16C280.473 413.16 281.346 413.34 282.066 413.7C282.8 414.047 283.346 414.52 283.706 415.12C284.066 415.72 284.246 416.38 284.246 417.1C284.246 417.847 284.053 418.507 283.666 419.08C283.293 419.64 282.793 420.073 282.166 420.38C282.926 420.66 283.526 421.12 283.966 421.76C284.406 422.387 284.626 423.127 284.626 423.98C284.626 424.847 284.406 425.613 283.966 426.28C283.526 426.947 282.913 427.46 282.126 427.82C281.34 428.18 280.446 428.36 279.446 428.36C278.446 428.36 277.553 428.18 276.766 427.82C275.993 427.46 275.386 426.947 274.946 426.28C274.506 425.613 274.286 424.847 274.286 423.98C274.286 423.113 274.506 422.367 274.946 421.74C275.386 421.113 275.98 420.66 276.726 420.38ZM282.066 417.38C282.066 416.633 281.833 416.06 281.366 415.66C280.9 415.26 280.26 415.06 279.446 415.06C278.646 415.06 278.013 415.26 277.546 415.66C277.08 416.06 276.846 416.64 276.846 417.4C276.846 418.067 277.086 418.613 277.566 419.04C278.06 419.453 278.686 419.66 279.446 419.66C280.206 419.66 280.833 419.447 281.326 419.02C281.82 418.593 282.066 418.047 282.066 417.38ZM279.446 421.38C278.566 421.38 277.846 421.6 277.286 422.04C276.74 422.467 276.466 423.087 276.466 423.9C276.466 424.66 276.733 425.28 277.266 425.76C277.8 426.227 278.526 426.46 279.446 426.46C280.353 426.46 281.066 426.22 281.586 425.74C282.12 425.26 282.386 424.647 282.386 423.9C282.386 423.1 282.113 422.48 281.566 422.04C281.033 421.6 280.326 421.38 279.446 421.38ZM286.72 415.5V413.42H290.88V428H288.58V415.5H286.72ZM293.553 421.02C293.553 419.66 293.866 418.44 294.493 417.36C295.133 416.28 295.993 415.44 297.073 414.84C298.166 414.227 299.359 413.92 300.653 413.92C302.133 413.92 303.446 414.287 304.593 415.02C305.753 415.74 306.593 416.767 307.113 418.1H304.373C304.013 417.367 303.513 416.82 302.873 416.46C302.233 416.1 301.493 415.92 300.653 415.92C299.733 415.92 298.913 416.127 298.193 416.54C297.473 416.953 296.906 417.547 296.493 418.32C296.093 419.093 295.893 419.993 295.893 421.02C295.893 422.047 296.093 422.947 296.493 423.72C296.906 424.493 297.473 425.093 298.193 425.52C298.913 425.933 299.733 426.14 300.653 426.14C301.493 426.14 302.233 425.96 302.873 425.6C303.513 425.24 304.013 424.693 304.373 423.96H307.113C306.593 425.293 305.753 426.32 304.593 427.04C303.446 427.76 302.133 428.12 300.653 428.12C299.346 428.12 298.153 427.82 297.073 427.22C295.993 426.607 295.133 425.76 294.493 424.68C293.866 423.6 293.553 422.38 293.553 421.02ZM318.161 425.16H312.341L311.341 428H308.961L313.941 414.08H316.581L321.561 428H319.161L318.161 425.16ZM317.521 423.3L315.261 416.84L312.981 423.3H317.521Z" fill="#33475B"/>
<rect x="354" width="128" height="394" fill="#1FD9EF"/>
<path d="M384.16 418.84L383.42 422.3H386.06V424.3H383L382.2 428H380.02L380.82 424.3H376.9L376.1 428H373.92L374.72 424.3H371.62V422.3H375.14L375.88 418.84H372.8V416.84H376.3L377.08 413.2H379.26L378.48 416.84H382.4L383.18 413.2H385.36L384.58 416.84H387.24V418.84H384.16ZM381.98 418.84H378.06L377.32 422.3H381.24L381.98 418.84ZM389.341 415.5V413.42H393.501V428H391.201V415.5H389.341ZM405.114 414.1V415.96H399.214V420.06H403.814V421.92H399.214V428H396.934V414.1H405.114ZM411.767 414.1C413.247 414.1 414.54 414.387 415.647 414.96C416.767 415.52 417.627 416.333 418.227 417.4C418.84 418.453 419.147 419.687 419.147 421.1C419.147 422.513 418.84 423.74 418.227 424.78C417.627 425.82 416.767 426.62 415.647 427.18C414.54 427.727 413.247 428 411.767 428H407.227V414.1H411.767ZM411.767 426.14C413.393 426.14 414.64 425.7 415.507 424.82C416.373 423.94 416.807 422.7 416.807 421.1C416.807 419.487 416.373 418.227 415.507 417.32C414.64 416.413 413.393 415.96 411.767 415.96H409.507V426.14H411.767ZM423.946 424.04C424.08 424.707 424.366 425.213 424.806 425.56C425.246 425.907 425.84 426.08 426.586 426.08C427.533 426.08 428.226 425.707 428.666 424.96C429.106 424.213 429.326 422.94 429.326 421.14C429.006 421.593 428.553 421.947 427.966 422.2C427.393 422.44 426.766 422.56 426.086 422.56C425.22 422.56 424.433 422.387 423.726 422.04C423.02 421.68 422.46 421.153 422.046 420.46C421.646 419.753 421.446 418.9 421.446 417.9C421.446 416.433 421.873 415.267 422.726 414.4C423.593 413.52 424.78 413.08 426.286 413.08C428.1 413.08 429.386 413.687 430.146 414.9C430.92 416.1 431.306 417.947 431.306 420.44C431.306 422.16 431.16 423.567 430.866 424.66C430.586 425.753 430.093 426.58 429.386 427.14C428.68 427.7 427.7 427.98 426.446 427.98C425.02 427.98 423.92 427.607 423.146 426.86C422.373 426.113 421.94 425.173 421.846 424.04H423.946ZM426.486 420.64C427.286 420.64 427.913 420.393 428.366 419.9C428.833 419.393 429.066 418.727 429.066 417.9C429.066 416.98 428.82 416.267 428.326 415.76C427.846 415.24 427.186 414.98 426.346 414.98C425.506 414.98 424.84 415.247 424.346 415.78C423.866 416.3 423.626 416.987 423.626 417.84C423.626 418.653 423.86 419.327 424.326 419.86C424.806 420.38 425.526 420.64 426.486 420.64ZM436.382 415.94V420.02H441.182V421.88H436.382V426.14H441.782V428H434.102V414.08H441.782V415.94H436.382ZM452.77 414.1V415.96H446.87V420.06H451.47V421.92H446.87V428H444.59V414.1H452.77Z" fill="#33475B"/>
<rect x="484" width="128" height="394" fill="#35B872"/>
<path d="M518.16 418.84L517.42 422.3H520.06V424.3H517L516.2 428H514.02L514.82 424.3H510.9L510.1 428H507.92L508.72 424.3H505.62V422.3H509.14L509.88 418.84H506.8V416.84H510.3L511.08 413.2H513.26L512.48 416.84H516.4L517.18 413.2H519.36L518.58 416.84H521.24V418.84H518.16ZM515.98 418.84H512.06L511.32 422.3H515.24L515.98 418.84ZM523.601 417.02C523.681 415.78 524.155 414.813 525.021 414.12C525.901 413.427 527.021 413.08 528.381 413.08C529.315 413.08 530.121 413.247 530.801 413.58C531.481 413.913 531.995 414.367 532.341 414.94C532.688 415.513 532.861 416.16 532.861 416.88C532.861 417.707 532.641 418.413 532.201 419C531.761 419.587 531.235 419.98 530.621 420.18V420.26C531.408 420.5 532.021 420.94 532.461 421.58C532.901 422.207 533.121 423.013 533.121 424C533.121 424.787 532.941 425.487 532.581 426.1C532.221 426.713 531.688 427.2 530.981 427.56C530.275 427.907 529.428 428.08 528.441 428.08C527.001 428.08 525.815 427.713 524.881 426.98C523.961 426.233 523.468 425.167 523.401 423.78H525.601C525.655 424.487 525.928 425.067 526.421 425.52C526.915 425.96 527.581 426.18 528.421 426.18C529.235 426.18 529.861 425.96 530.301 425.52C530.741 425.067 530.961 424.487 530.961 423.78C530.961 422.847 530.661 422.187 530.061 421.8C529.475 421.4 528.568 421.2 527.341 421.2H526.821V419.32H527.361C528.441 419.307 529.261 419.127 529.821 418.78C530.395 418.433 530.681 417.887 530.681 417.14C530.681 416.5 530.475 415.993 530.061 415.62C529.648 415.233 529.061 415.04 528.301 415.04C527.555 415.04 526.975 415.233 526.561 415.62C526.148 415.993 525.901 416.46 525.821 417.02H523.601ZM544.916 415.38H538.216V419.36C538.496 418.987 538.91 418.673 539.456 418.42C540.016 418.167 540.61 418.04 541.236 418.04C542.356 418.04 543.263 418.28 543.956 418.76C544.663 419.24 545.163 419.847 545.456 420.58C545.763 421.313 545.916 422.087 545.916 422.9C545.916 423.887 545.723 424.767 545.336 425.54C544.963 426.3 544.396 426.9 543.636 427.34C542.89 427.78 541.97 428 540.876 428C539.423 428 538.256 427.64 537.376 426.92C536.496 426.2 535.97 425.247 535.796 424.06H538.016C538.163 424.687 538.49 425.187 538.996 425.56C539.503 425.92 540.136 426.1 540.896 426.1C541.843 426.1 542.55 425.813 543.016 425.24C543.496 424.667 543.736 423.907 543.736 422.96C543.736 422 543.496 421.267 543.016 420.76C542.536 420.24 541.83 419.98 540.896 419.98C540.243 419.98 539.69 420.147 539.236 420.48C538.796 420.8 538.476 421.24 538.276 421.8H536.116V413.38H544.916V415.38ZM556.03 420.86C556.777 420.993 557.41 421.387 557.93 422.04C558.45 422.693 558.71 423.433 558.71 424.26C558.71 424.967 558.523 425.607 558.15 426.18C557.79 426.74 557.263 427.187 556.57 427.52C555.877 427.84 555.07 428 554.15 428H548.59V414.1H553.89C554.837 414.1 555.65 414.26 556.33 414.58C557.01 414.9 557.523 415.333 557.87 415.88C558.217 416.413 558.39 417.013 558.39 417.68C558.39 418.48 558.177 419.147 557.75 419.68C557.323 420.213 556.75 420.607 556.03 420.86ZM550.87 419.94H553.69C554.437 419.94 555.017 419.773 555.43 419.44C555.857 419.093 556.07 418.6 556.07 417.96C556.07 417.333 555.857 416.847 555.43 416.5C555.017 416.14 554.437 415.96 553.69 415.96H550.87V419.94ZM553.95 426.14C554.723 426.14 555.33 425.953 555.77 425.58C556.21 425.207 556.43 424.687 556.43 424.02C556.43 423.34 556.197 422.8 555.73 422.4C555.263 422 554.643 421.8 553.87 421.8H550.87V426.14H553.95ZM563.348 420.38C561.961 419.687 561.268 418.593 561.268 417.1C561.268 416.38 561.448 415.72 561.808 415.12C562.168 414.52 562.708 414.047 563.428 413.7C564.148 413.34 565.028 413.16 566.068 413.16C567.094 413.16 567.968 413.34 568.688 413.7C569.421 414.047 569.967 414.52 570.328 415.12C570.688 415.72 570.868 416.38 570.868 417.1C570.868 417.847 570.674 418.507 570.288 419.08C569.914 419.64 569.414 420.073 568.788 420.38C569.548 420.66 570.148 421.12 570.588 421.76C571.028 422.387 571.248 423.127 571.248 423.98C571.248 424.847 571.028 425.613 570.588 426.28C570.148 426.947 569.534 427.46 568.748 427.82C567.961 428.18 567.068 428.36 566.068 428.36C565.068 428.36 564.174 428.18 563.388 427.82C562.614 427.46 562.008 426.947 561.568 426.28C561.128 425.613 560.908 424.847 560.908 423.98C560.908 423.113 561.128 422.367 561.568 421.74C562.008 421.113 562.601 420.66 563.348 420.38ZM568.688 417.38C568.688 416.633 568.454 416.06 567.988 415.66C567.521 415.26 566.881 415.06 566.068 415.06C565.268 415.06 564.634 415.26 564.168 415.66C563.701 416.06 563.468 416.64 563.468 417.4C563.468 418.067 563.708 418.613 564.188 419.04C564.681 419.453 565.308 419.66 566.068 419.66C566.828 419.66 567.454 419.447 567.948 419.02C568.441 418.593 568.688 418.047 568.688 417.38ZM566.068 421.38C565.188 421.38 564.468 421.6 563.908 422.04C563.361 422.467 563.088 423.087 563.088 423.9C563.088 424.66 563.354 425.28 563.888 425.76C564.421 426.227 565.148 426.46 566.068 426.46C566.974 426.46 567.688 426.22 568.208 425.74C568.741 425.26 569.008 424.647 569.008 423.9C569.008 423.1 568.734 422.48 568.188 422.04C567.654 421.6 566.948 421.38 566.068 421.38ZM582.881 415.18L577.321 428H575.021L580.641 415.42H573.241V413.48H582.881V415.18ZM586.093 424.9C587.373 423.793 588.379 422.887 589.113 422.18C589.859 421.46 590.479 420.713 590.973 419.94C591.466 419.167 591.713 418.393 591.713 417.62C591.713 416.82 591.519 416.193 591.133 415.74C590.759 415.287 590.166 415.06 589.353 415.06C588.566 415.06 587.953 415.313 587.513 415.82C587.086 416.313 586.859 416.98 586.833 417.82H584.633C584.673 416.3 585.126 415.14 585.993 414.34C586.873 413.527 587.986 413.12 589.333 413.12C590.786 413.12 591.919 413.52 592.733 414.32C593.559 415.12 593.973 416.187 593.973 417.52C593.973 418.48 593.726 419.407 593.233 420.3C592.753 421.18 592.173 421.973 591.493 422.68C590.826 423.373 589.973 424.18 588.933 425.1L588.033 425.9H594.373V427.8H584.653V426.14L586.093 424.9Z" fill="#33475B"/>
</svg>
