<svg width="84" height="84" viewBox="0 0 84 84" fill="none" xmlns="http://www.w3.org/2000/svg">
<g clip-path="url(#clip0_4616_3279)">
<mask id="mask0_4616_3279" style="mask-type:luminance" maskUnits="userSpaceOnUse" x="0" y="0" width="84" height="84">
<path d="M84 0H0V84H84V0Z" fill="white"/>
</mask>
<g mask="url(#mask0_4616_3279)">
<path d="M78.7756 36.7755C76.2887 36.7755 74.2037 38.5227 73.6795 40.8535H59.5882L54.2154 31.5999L65.3298 20.4857C66.1302 20.9643 67.0475 21.2199 68.0042 21.2199C69.3996 21.2199 70.7114 20.6763 71.6983 19.6896C72.6851 18.7028 73.2284 17.3909 73.2284 15.9954C73.2284 14.6 72.685 13.2883 71.6983 12.3016C70.7117 11.3149 69.3996 10.7712 68.0042 10.7712C66.6088 10.7712 65.2969 11.3146 64.31 12.3014C62.5866 14.025 62.3219 16.6633 63.5153 18.6685L52.8816 29.3023L51.1393 26.3012H43.2506V10.2959C45.5292 9.73383 47.2242 7.67369 47.2242 5.22408C47.2241 2.34347 44.8805 0 41.9999 0C39.1193 0 36.7756 2.34347 36.7756 5.22424C36.7756 7.65007 38.4374 9.69445 40.6823 10.2798V26.3012H32.8607L31.1183 29.3024L20.4857 18.6698C20.9642 17.8697 21.2198 16.952 21.2198 15.9954C21.2198 14.6 20.6764 13.2883 19.6896 12.3014C18.7028 11.3146 17.391 10.7712 15.9954 10.7712C14.6 10.7712 13.2882 11.3147 12.3016 12.3014C11.3149 13.2881 10.7712 14.6 10.7712 15.9954C10.7712 17.3909 11.3146 18.7028 12.3014 19.6894C13.2882 20.6763 14.6 21.2197 15.9954 21.2197C16.952 21.2197 17.8693 20.964 18.6698 20.4855L29.7844 31.5999L24.4115 40.8534H10.3202C9.79618 38.5224 7.71094 36.7754 5.22408 36.7754C2.34347 36.7755 0 39.119 0 41.9997C0 44.8803 2.34347 47.2239 5.22425 47.2239C7.61201 47.2239 9.62932 45.613 10.2503 43.4214H24.511L29.746 52.4375L18.6685 63.515C16.6633 62.3215 14.0252 62.586 12.3016 64.3098C11.3147 65.2965 10.7714 66.6084 10.7714 68.0039C10.7714 69.3993 11.3149 70.711 12.3016 71.6978C13.2884 72.6846 14.6003 73.228 15.9956 73.228C17.3911 73.228 18.703 72.6846 19.6896 71.6978C20.6765 70.7109 21.2198 69.399 21.2198 68.0038C21.2198 67.047 20.9642 66.1298 20.4857 65.3294L31.0799 54.735L32.8607 57.8022H40.6823V73.7194C38.4372 74.3048 36.7756 76.3493 36.7756 78.7749C36.7756 81.6555 39.119 83.9994 41.9999 83.9994C44.8806 83.9994 47.2241 81.6558 47.2241 78.7749C47.2241 76.3252 45.529 74.265 43.2505 73.7031V57.8022H51.1391L52.9199 54.7352L63.5155 65.3308C62.3221 67.3359 62.5866 69.9743 64.3102 71.6978C65.297 72.6846 66.6089 73.228 68.0044 73.228C69.3997 73.228 70.7116 72.6844 71.6983 71.6978C72.6851 70.7109 73.2284 69.399 73.2284 68.0038C73.2284 66.6083 72.6851 65.2964 71.6983 64.3095C69.9748 62.586 67.3364 62.3215 65.3314 63.515L54.254 52.4375L59.489 43.4213H73.7497C74.3707 45.6128 76.3878 47.2238 78.7758 47.2238C81.6564 47.2238 84.0001 44.8803 84.0001 41.9995C84 39.1188 81.6562 36.7755 78.7756 36.7755ZM66.126 14.1174C66.6277 13.6155 67.2947 13.3393 68.0044 13.3393C68.7138 13.3393 69.3809 13.6155 69.8826 14.1173C70.3842 14.6188 70.6607 15.286 70.6607 15.9954C70.6607 16.705 70.3844 17.372 69.8826 17.8739C69.3809 18.3757 68.7139 18.6519 68.0044 18.6519C67.2948 18.6519 66.6277 18.3757 66.126 17.8739C65.0903 16.838 65.0903 15.153 66.126 14.1174ZM17.8736 17.8736C17.3719 18.3755 16.705 18.6518 15.9953 18.6518C15.2858 18.6518 14.6188 18.3755 14.1173 17.8736C13.6154 17.3719 13.3391 16.705 13.3391 15.9953C13.3391 15.2859 13.6154 14.6188 14.117 14.1173C14.6185 13.6156 15.2858 13.339 15.9953 13.339C16.7048 13.339 17.3719 13.6154 17.8738 14.1173C18.3755 14.6188 18.6517 15.2859 18.6517 15.9953C18.6517 16.705 18.3755 17.372 17.8736 17.8736ZM5.22425 44.656C3.75966 44.656 2.56807 43.4644 2.56807 41.9998C2.56807 40.5353 3.75966 39.3437 5.22425 39.3437C6.68882 39.3437 7.88041 40.5353 7.88041 41.9998C7.88041 43.4644 6.68882 44.656 5.22425 44.656ZM17.8736 69.8823C17.3719 70.3841 16.705 70.6604 15.9953 70.6604C15.2858 70.6604 14.6188 70.3841 14.117 69.8823C13.6154 69.3805 13.3391 68.7137 13.3391 68.004C13.3391 67.2945 13.6154 66.6274 14.1173 66.1258C14.6351 65.6079 15.3152 65.349 15.9953 65.349C16.6757 65.349 17.3557 65.608 17.8736 66.1258C18.3755 66.6274 18.6517 67.2943 18.6517 68.004C18.6517 68.7135 18.3755 69.3808 17.8736 69.8823ZM66.126 66.1259C67.1617 65.0903 68.847 65.0903 69.8825 66.1259C70.3843 66.6275 70.6606 67.2945 70.6606 68.0043C70.6606 68.7136 70.3843 69.3808 69.8825 69.8825C69.3808 70.3841 68.7138 70.6605 68.0042 70.6605C67.2947 70.6605 66.6276 70.3843 66.1259 69.8824C65.0905 68.8467 65.0903 67.1618 66.126 66.1259ZM39.3438 5.22424C39.3438 3.75965 40.5354 2.56808 42 2.56808C43.4646 2.56808 44.6562 3.75965 44.6562 5.22424C44.6562 6.68883 43.4646 7.88042 42 7.88042C40.5354 7.88042 39.3438 6.68866 39.3438 5.22424ZM44.656 78.7754C44.656 80.2402 43.4645 81.4318 41.9999 81.4318C40.5353 81.4318 39.3437 80.2402 39.3437 78.7754C39.3437 77.3109 40.5353 76.1193 41.9999 76.1193C43.4645 76.1193 44.656 77.3109 44.656 78.7754ZM49.6604 55.2345H34.3394L26.6852 42.0519L34.3394 28.869H49.6604L57.3145 42.0519L49.6604 55.2345ZM78.7756 44.656C77.311 44.656 76.1195 43.4644 76.1195 41.9998C76.1195 40.5353 77.311 39.3437 78.7756 39.3437C80.2404 39.3437 81.4319 40.5353 81.4319 41.9998C81.4319 43.4644 80.2404 44.656 78.7756 44.656Z" fill="black" fill-opacity="0.87"/>
<path d="M43.4228 40.8542H40.6836V43.4223H43.4228V40.8542Z" fill="#039BE5"/>
<path d="M47.1891 40.8542H44.6211V43.4223H47.1891V40.8542Z" fill="#039BE5"/>
<path d="M39.4852 40.8542H36.7461V43.4223H39.4852V40.8542Z" fill="#039BE5"/>
</g>
</g>
<defs>
<clipPath id="clip0_4616_3279">
<rect width="84" height="84" fill="white"/>
</clipPath>
</defs>
</svg>
