<svg width="112" height="68" viewBox="0 0 112 68" fill="none" xmlns="http://www.w3.org/2000/svg">
<path d="M26.6913 17.9745H47.6269V19.6394H28.6104V32.1697H46.4929V33.8345H28.6104V47.5915H47.845V49.2564H26.6913V17.9745ZM49.5024 17.9745H51.7268L61.584 31.7315L71.6593 17.9745L85.3633 0.5L62.8489 33.1773L74.4507 49.2564H72.1391L61.584 34.6231L50.9854 49.2564H48.7173L60.4064 33.1773L49.5024 17.9745ZM75.2794 19.6394V17.9745H99.1373V19.6394H88.1461V49.2564H86.227V19.6394H75.2794ZM0.5 17.9745H2.89887L35.9779 67.5L22.3079 49.2564L2.50633 20.3404L2.4191 49.2564H0.5V17.9745ZM98.9439 47.0891C98.5518 47.0891 98.2578 46.7851 98.2578 46.3923C98.2578 45.9995 98.5518 45.6956 98.9439 45.6956C99.3407 45.6956 99.6301 45.9995 99.6301 46.3923C99.6301 46.7851 99.3407 47.0891 98.9439 47.0891ZM100.83 45.256H101.857C101.871 45.8125 102.277 46.1866 102.874 46.1866C103.542 46.1866 103.92 45.7844 103.92 45.0316V40.2618H104.965V45.0362C104.965 46.3923 104.181 47.1733 102.883 47.1733C101.665 47.1733 100.83 46.4157 100.83 45.256ZM106.333 45.1952H107.369C107.458 45.8359 108.083 46.2427 108.984 46.2427C109.824 46.2427 110.44 45.8078 110.44 45.2093C110.44 44.6949 110.048 44.3862 109.157 44.1758L108.289 43.9654C107.07 43.6801 106.515 43.0909 106.515 42.0996C106.515 40.8978 107.495 40.0982 108.965 40.0982C110.333 40.0982 111.332 40.8978 111.393 42.0341H110.375C110.277 41.4122 109.736 41.0241 108.951 41.0241C108.125 41.0241 107.574 41.4215 107.574 42.0294C107.574 42.5111 107.929 42.787 108.807 42.9927L109.549 43.1751C110.931 43.4978 111.5 44.0589 111.5 45.0737C111.5 46.3643 110.501 47.1733 108.905 47.1733C107.411 47.1733 106.408 46.4017 106.333 45.1952Z" fill="black"/>
</svg>
