<svg width="352" height="432" viewBox="0 0 352 432" fill="none" xmlns="http://www.w3.org/2000/svg">
<path d="M67.16 418.84L66.42 422.3H69.06V424.3H66L65.2 428H63.02L63.82 424.3H59.9L59.1 428H56.92L57.72 424.3H54.62V422.3H58.14L58.88 418.84H55.8V416.84H59.3L60.08 413.2H62.26L61.48 416.84H65.4L66.18 413.2H68.36L67.58 416.84H70.24V418.84H67.16ZM64.98 418.84H61.06L60.32 422.3H64.24L64.98 418.84ZM80.3814 420.86C81.1281 420.993 81.7614 421.387 82.2814 422.04C82.8014 422.693 83.0614 423.433 83.0614 424.26C83.0614 424.967 82.8747 425.607 82.5014 426.18C82.1414 426.74 81.6147 427.187 80.9214 427.52C80.2281 427.84 79.4214 428 78.5014 428H72.9414V414.1H78.2414C79.1881 414.1 80.0014 414.26 80.6814 414.58C81.3614 414.9 81.8747 415.333 82.2214 415.88C82.5681 416.413 82.7414 417.013 82.7414 417.68C82.7414 418.48 82.5281 419.147 82.1014 419.68C81.6747 420.213 81.1014 420.607 80.3814 420.86ZM75.2214 419.94H78.0414C78.7881 419.94 79.3681 419.773 79.7814 419.44C80.2081 419.093 80.4214 418.6 80.4214 417.96C80.4214 417.333 80.2081 416.847 79.7814 416.5C79.3681 416.14 78.7881 415.96 78.0414 415.96H75.2214V419.94ZM78.3014 426.14C79.0747 426.14 79.6814 425.953 80.1214 425.58C80.5614 425.207 80.7814 424.687 80.7814 424.02C80.7814 423.34 80.5481 422.8 80.0814 422.4C79.6147 422 78.9947 421.8 78.2214 421.8H75.2214V426.14H78.3014ZM84.9591 424.96V423.24L91.6791 413.6H94.4391V422.98H96.2991V424.96H94.4391V428H92.1991V424.96H84.9591ZM92.2991 415.92L87.5791 422.98H92.2991V415.92ZM98.1883 420.52C98.1883 418.213 98.5749 416.413 99.3483 415.12C100.135 413.813 101.482 413.16 103.388 413.16C105.295 413.16 106.635 413.813 107.408 415.12C108.195 416.413 108.588 418.213 108.588 420.52C108.588 422.853 108.195 424.68 107.408 426C106.635 427.307 105.295 427.96 103.388 427.96C101.482 427.96 100.135 427.307 99.3483 426C98.5749 424.68 98.1883 422.853 98.1883 420.52ZM106.348 420.52C106.348 419.44 106.275 418.527 106.128 417.78C105.995 417.033 105.715 416.427 105.288 415.96C104.862 415.48 104.228 415.24 103.388 415.24C102.548 415.24 101.915 415.48 101.488 415.96C101.062 416.427 100.775 417.033 100.628 417.78C100.495 418.527 100.428 419.44 100.428 420.52C100.428 421.64 100.495 422.58 100.628 423.34C100.762 424.1 101.042 424.713 101.468 425.18C101.908 425.647 102.548 425.88 103.388 425.88C104.228 425.88 104.862 425.647 105.288 425.18C105.728 424.713 106.015 424.1 106.148 423.34C106.282 422.58 106.348 421.64 106.348 420.52ZM120.241 415.18L114.681 428H112.381L118.001 415.42H110.601V413.48H120.241V415.18ZM122.152 417.02C122.232 415.78 122.706 414.813 123.572 414.12C124.452 413.427 125.572 413.08 126.932 413.08C127.866 413.08 128.672 413.247 129.352 413.58C130.032 413.913 130.546 414.367 130.892 414.94C131.239 415.513 131.412 416.16 131.412 416.88C131.412 417.707 131.192 418.413 130.752 419C130.312 419.587 129.786 419.98 129.172 420.18V420.26C129.959 420.5 130.572 420.94 131.012 421.58C131.452 422.207 131.672 423.013 131.672 424C131.672 424.787 131.492 425.487 131.132 426.1C130.772 426.713 130.239 427.2 129.532 427.56C128.826 427.907 127.979 428.08 126.992 428.08C125.552 428.08 124.366 427.713 123.432 426.98C122.512 426.233 122.019 425.167 121.952 423.78H124.152C124.206 424.487 124.479 425.067 124.972 425.52C125.466 425.96 126.132 426.18 126.972 426.18C127.786 426.18 128.412 425.96 128.852 425.52C129.292 425.067 129.512 424.487 129.512 423.78C129.512 422.847 129.212 422.187 128.612 421.8C128.026 421.4 127.119 421.2 125.892 421.2H125.372V419.32H125.912C126.992 419.307 127.812 419.127 128.372 418.78C128.946 418.433 129.232 417.887 129.232 417.14C129.232 416.5 129.026 415.993 128.612 415.62C128.199 415.233 127.612 415.04 126.852 415.04C126.106 415.04 125.526 415.233 125.112 415.62C124.699 415.993 124.452 416.46 124.372 417.02H122.152ZM136.527 420.38C135.141 419.687 134.447 418.593 134.447 417.1C134.447 416.38 134.627 415.72 134.987 415.12C135.347 414.52 135.887 414.047 136.607 413.7C137.327 413.34 138.207 413.16 139.247 413.16C140.274 413.16 141.147 413.34 141.867 413.7C142.601 414.047 143.147 414.52 143.507 415.12C143.867 415.72 144.047 416.38 144.047 417.1C144.047 417.847 143.854 418.507 143.467 419.08C143.094 419.64 142.594 420.073 141.967 420.38C142.727 420.66 143.327 421.12 143.767 421.76C144.207 422.387 144.427 423.127 144.427 423.98C144.427 424.847 144.207 425.613 143.767 426.28C143.327 426.947 142.714 427.46 141.927 427.82C141.141 428.18 140.247 428.36 139.247 428.36C138.247 428.36 137.354 428.18 136.567 427.82C135.794 427.46 135.187 426.947 134.747 426.28C134.307 425.613 134.087 424.847 134.087 423.98C134.087 423.113 134.307 422.367 134.747 421.74C135.187 421.113 135.781 420.66 136.527 420.38ZM141.867 417.38C141.867 416.633 141.634 416.06 141.167 415.66C140.701 415.26 140.061 415.06 139.247 415.06C138.447 415.06 137.814 415.26 137.347 415.66C136.881 416.06 136.647 416.64 136.647 417.4C136.647 418.067 136.887 418.613 137.367 419.04C137.861 419.453 138.487 419.66 139.247 419.66C140.007 419.66 140.634 419.447 141.127 419.02C141.621 418.593 141.867 418.047 141.867 417.38ZM139.247 421.38C138.367 421.38 137.647 421.6 137.087 422.04C136.541 422.467 136.267 423.087 136.267 423.9C136.267 424.66 136.534 425.28 137.067 425.76C137.601 426.227 138.327 426.46 139.247 426.46C140.154 426.46 140.867 426.22 141.387 425.74C141.921 425.26 142.187 424.647 142.187 423.9C142.187 423.1 141.914 422.48 141.367 422.04C140.834 421.6 140.127 421.38 139.247 421.38Z" fill="#33475B"/>
<rect width="200" height="394" fill="#B40738"/>
<rect x="202" width="150" height="394" fill="#38BA23"/>
<path d="M243.16 418.84L242.42 422.3H245.06V424.3H242L241.2 428H239.02L239.82 424.3H235.9L235.1 428H232.92L233.72 424.3H230.62V422.3H234.14L234.88 418.84H231.8V416.84H235.3L236.08 413.2H238.26L237.48 416.84H241.4L242.18 413.2H244.36L243.58 416.84H246.24V418.84H243.16ZM240.98 418.84H237.06L236.32 422.3H240.24L240.98 418.84ZM248.601 417.02C248.681 415.78 249.155 414.813 250.021 414.12C250.901 413.427 252.021 413.08 253.381 413.08C254.315 413.08 255.121 413.247 255.801 413.58C256.481 413.913 256.995 414.367 257.341 414.94C257.688 415.513 257.861 416.16 257.861 416.88C257.861 417.707 257.641 418.413 257.201 419C256.761 419.587 256.235 419.98 255.621 420.18V420.26C256.408 420.5 257.021 420.94 257.461 421.58C257.901 422.207 258.121 423.013 258.121 424C258.121 424.787 257.941 425.487 257.581 426.1C257.221 426.713 256.688 427.2 255.981 427.56C255.275 427.907 254.428 428.08 253.441 428.08C252.001 428.08 250.815 427.713 249.881 426.98C248.961 426.233 248.468 425.167 248.401 423.78H250.601C250.655 424.487 250.928 425.067 251.421 425.52C251.915 425.96 252.581 426.18 253.421 426.18C254.235 426.18 254.861 425.96 255.301 425.52C255.741 425.067 255.961 424.487 255.961 423.78C255.961 422.847 255.661 422.187 255.061 421.8C254.475 421.4 253.568 421.2 252.341 421.2H251.821V419.32H252.361C253.441 419.307 254.261 419.127 254.821 418.78C255.395 418.433 255.681 417.887 255.681 417.14C255.681 416.5 255.475 415.993 255.061 415.62C254.648 415.233 254.061 415.04 253.301 415.04C252.555 415.04 251.975 415.233 251.561 415.62C251.148 415.993 250.901 416.46 250.821 417.02H248.601ZM262.976 420.38C261.59 419.687 260.896 418.593 260.896 417.1C260.896 416.38 261.076 415.72 261.436 415.12C261.796 414.52 262.336 414.047 263.056 413.7C263.776 413.34 264.656 413.16 265.696 413.16C266.723 413.16 267.596 413.34 268.316 413.7C269.05 414.047 269.596 414.52 269.956 415.12C270.316 415.72 270.496 416.38 270.496 417.1C270.496 417.847 270.303 418.507 269.916 419.08C269.543 419.64 269.043 420.073 268.416 420.38C269.176 420.66 269.776 421.12 270.216 421.76C270.656 422.387 270.876 423.127 270.876 423.98C270.876 424.847 270.656 425.613 270.216 426.28C269.776 426.947 269.163 427.46 268.376 427.82C267.59 428.18 266.696 428.36 265.696 428.36C264.696 428.36 263.803 428.18 263.016 427.82C262.243 427.46 261.636 426.947 261.196 426.28C260.756 425.613 260.536 424.847 260.536 423.98C260.536 423.113 260.756 422.367 261.196 421.74C261.636 421.113 262.23 420.66 262.976 420.38ZM268.316 417.38C268.316 416.633 268.083 416.06 267.616 415.66C267.15 415.26 266.51 415.06 265.696 415.06C264.896 415.06 264.263 415.26 263.796 415.66C263.33 416.06 263.096 416.64 263.096 417.4C263.096 418.067 263.336 418.613 263.816 419.04C264.31 419.453 264.936 419.66 265.696 419.66C266.456 419.66 267.083 419.447 267.576 419.02C268.07 418.593 268.316 418.047 268.316 417.38ZM265.696 421.38C264.816 421.38 264.096 421.6 263.536 422.04C262.99 422.467 262.716 423.087 262.716 423.9C262.716 424.66 262.983 425.28 263.516 425.76C264.05 426.227 264.776 426.46 265.696 426.46C266.603 426.46 267.316 426.22 267.836 425.74C268.37 425.26 268.636 424.647 268.636 423.9C268.636 423.1 268.363 422.48 267.816 422.04C267.283 421.6 266.576 421.38 265.696 421.38ZM281.01 420.86C281.757 420.993 282.39 421.387 282.91 422.04C283.43 422.693 283.69 423.433 283.69 424.26C283.69 424.967 283.504 425.607 283.13 426.18C282.77 426.74 282.244 427.187 281.55 427.52C280.857 427.84 280.05 428 279.13 428H273.57V414.1H278.87C279.817 414.1 280.63 414.26 281.31 414.58C281.99 414.9 282.504 415.333 282.85 415.88C283.197 416.413 283.37 417.013 283.37 417.68C283.37 418.48 283.157 419.147 282.73 419.68C282.304 420.213 281.73 420.607 281.01 420.86ZM275.85 419.94H278.67C279.417 419.94 279.997 419.773 280.41 419.44C280.837 419.093 281.05 418.6 281.05 417.96C281.05 417.333 280.837 416.847 280.41 416.5C279.997 416.14 279.417 415.96 278.67 415.96H275.85V419.94ZM278.93 426.14C279.704 426.14 280.31 425.953 280.75 425.58C281.19 425.207 281.41 424.687 281.41 424.02C281.41 423.34 281.177 422.8 280.71 422.4C280.244 422 279.624 421.8 278.85 421.8H275.85V426.14H278.93ZM294.548 425.16H288.728L287.728 428H285.348L290.328 414.08H292.968L297.948 428H295.548L294.548 425.16ZM293.908 423.3L291.648 416.84L289.368 423.3H293.908ZM301.073 424.9C302.353 423.793 303.36 422.887 304.093 422.18C304.84 421.46 305.46 420.713 305.953 419.94C306.447 419.167 306.693 418.393 306.693 417.62C306.693 416.82 306.5 416.193 306.113 415.74C305.74 415.287 305.147 415.06 304.333 415.06C303.547 415.06 302.933 415.313 302.493 415.82C302.067 416.313 301.84 416.98 301.813 417.82H299.613C299.653 416.3 300.107 415.14 300.973 414.34C301.853 413.527 302.967 413.12 304.313 413.12C305.767 413.12 306.9 413.52 307.713 414.32C308.54 415.12 308.953 416.187 308.953 417.52C308.953 418.48 308.707 419.407 308.213 420.3C307.733 421.18 307.153 421.973 306.473 422.68C305.807 423.373 304.953 424.18 303.913 425.1L303.013 425.9H309.353V427.8H299.633V426.14L301.073 424.9ZM311.316 417.02C311.396 415.78 311.87 414.813 312.736 414.12C313.616 413.427 314.736 413.08 316.096 413.08C317.03 413.08 317.836 413.247 318.516 413.58C319.196 413.913 319.71 414.367 320.056 414.94C320.403 415.513 320.576 416.16 320.576 416.88C320.576 417.707 320.356 418.413 319.916 419C319.476 419.587 318.95 419.98 318.336 420.18V420.26C319.123 420.5 319.736 420.94 320.176 421.58C320.616 422.207 320.836 423.013 320.836 424C320.836 424.787 320.656 425.487 320.296 426.1C319.936 426.713 319.403 427.2 318.696 427.56C317.99 427.907 317.143 428.08 316.156 428.08C314.716 428.08 313.53 427.713 312.596 426.98C311.676 426.233 311.183 425.167 311.116 423.78H313.316C313.37 424.487 313.643 425.067 314.136 425.52C314.63 425.96 315.296 426.18 316.136 426.18C316.95 426.18 317.576 425.96 318.016 425.52C318.456 425.067 318.676 424.487 318.676 423.78C318.676 422.847 318.376 422.187 317.776 421.8C317.19 421.4 316.283 421.2 315.056 421.2H314.536V419.32H315.076C316.156 419.307 316.976 419.127 317.536 418.78C318.11 418.433 318.396 417.887 318.396 417.14C318.396 416.5 318.19 415.993 317.776 415.62C317.363 415.233 316.776 415.04 316.016 415.04C315.27 415.04 314.69 415.233 314.276 415.62C313.863 415.993 313.616 416.46 313.536 417.02H311.316Z" fill="#33475B"/>
</svg>
