<svg width="368" height="31" viewBox="0 0 368 31" fill="none" xmlns="http://www.w3.org/2000/svg">
<path d="M12.68 30.6C10.5467 30.6 8.62 30.2267 6.9 29.48C5.19333 28.72 3.78667 27.64 2.68 26.24C1.58667 24.8267 0.893333 23.1467 0.6 21.2L6.28 20.36C6.68 22.0133 7.50667 23.2867 8.76 24.18C10.0133 25.0733 11.44 25.52 13.04 25.52C13.9333 25.52 14.8 25.38 15.64 25.1C16.48 24.82 17.1667 24.4067 17.7 23.86C18.2467 23.3133 18.52 22.64 18.52 21.84C18.52 21.5467 18.4733 21.2667 18.38 21C18.3 20.72 18.16 20.46 17.96 20.22C17.76 19.98 17.4733 19.7533 17.1 19.54C16.74 19.3267 16.28 19.1333 15.72 18.96L8.24 16.76C7.68 16.6 7.02667 16.3733 6.28 16.08C5.54667 15.7867 4.83333 15.3667 4.14 14.82C3.44667 14.2733 2.86667 13.5533 2.4 12.66C1.94667 11.7533 1.72 10.6133 1.72 9.24C1.72 7.30666 2.20667 5.7 3.18 4.42C4.15333 3.14 5.45333 2.18666 7.08 1.56C8.70667 0.933332 10.5067 0.626665 12.48 0.639999C14.4667 0.666665 16.24 1.00667 17.8 1.66C19.36 2.31333 20.6667 3.26667 21.72 4.52C22.7733 5.76 23.5333 7.28 24 9.08L18.12 10.08C17.9067 9.14666 17.5133 8.36 16.94 7.72C16.3667 7.08 15.68 6.59333 14.88 6.26C14.0933 5.92667 13.2667 5.74667 12.4 5.72C11.5467 5.69333 10.74 5.81333 9.98 6.08C9.23333 6.33333 8.62 6.70667 8.14 7.2C7.67333 7.69333 7.44 8.28 7.44 8.96C7.44 9.58667 7.63333 10.1 8.02 10.5C8.40667 10.8867 8.89333 11.2 9.48 11.44C10.0667 11.68 10.6667 11.88 11.28 12.04L16.28 13.4C17.0267 13.6 17.8533 13.8667 18.76 14.2C19.6667 14.52 20.5333 14.9733 21.36 15.56C22.2 16.1333 22.8867 16.8933 23.42 17.84C23.9667 18.7867 24.24 19.9867 24.24 21.44C24.24 22.9867 23.9133 24.34 23.26 25.5C22.62 26.6467 21.7533 27.6 20.66 28.36C19.5667 29.1067 18.3267 29.6667 16.94 30.04C15.5667 30.4133 14.1467 30.6 12.68 30.6ZM36.6359 30V1.2H42.0759V13.04H54.9559V1.2H60.3959V30H54.9559V18.12H42.0759V30H36.6359ZM85.7309 30.6C83.4109 30.6 81.3709 30.1333 79.6109 29.2C77.8509 28.2533 76.4776 26.9267 75.4909 25.22C74.5043 23.5133 74.0109 21.5067 74.0109 19.2V1.24L79.5309 1.2V19.16C79.5309 20.1067 79.6909 20.9667 80.0109 21.74C80.3309 22.5133 80.7709 23.18 81.3309 23.74C81.9043 24.3 82.5643 24.7333 83.3109 25.04C84.0709 25.3333 84.8776 25.48 85.7309 25.48C86.6109 25.48 87.4243 25.3267 88.1709 25.02C88.9309 24.7133 89.5909 24.28 90.1509 23.72C90.7109 23.16 91.1443 22.4933 91.4509 21.72C91.7709 20.9467 91.9309 20.0933 91.9309 19.16V1.2H97.4509V19.2C97.4509 21.5067 96.9576 23.5133 95.9709 25.22C94.9843 26.9267 93.6109 28.2533 91.8509 29.2C90.0909 30.1333 88.0509 30.6 85.7309 30.6ZM111.034 30V1.2H122.554C124.608 1.2 126.268 1.61333 127.534 2.44C128.801 3.25333 129.728 4.28 130.314 5.52C130.901 6.76 131.194 8.01333 131.194 9.28C131.194 10.8933 130.828 12.2333 130.094 13.3C129.374 14.3667 128.381 15.08 127.114 15.44V14.44C128.914 14.8133 130.261 15.6467 131.154 16.94C132.061 18.2333 132.514 19.68 132.514 21.28C132.514 23 132.194 24.5133 131.554 25.82C130.928 27.1267 129.968 28.1533 128.674 28.9C127.381 29.6333 125.754 30 123.794 30H111.034ZM116.554 24.88H123.234C123.968 24.88 124.621 24.7267 125.194 24.42C125.768 24.1 126.214 23.66 126.534 23.1C126.868 22.5267 127.034 21.8533 127.034 21.08C127.034 20.4 126.894 19.7933 126.614 19.26C126.334 18.7267 125.908 18.3067 125.334 18C124.774 17.68 124.074 17.52 123.234 17.52H116.554V24.88ZM116.554 12.44H122.474C123.088 12.44 123.634 12.3333 124.114 12.12C124.594 11.9067 124.974 11.58 125.254 11.14C125.534 10.6867 125.674 10.1067 125.674 9.4C125.674 8.52 125.401 7.78 124.854 7.18C124.308 6.58 123.514 6.28 122.474 6.28H116.554V12.44ZM144.503 30V1.2H149.943V13.04H162.823V1.2H168.263V30H162.823V18.12H149.943V30H144.503ZM179.878 30L188.678 1.2H196.798L205.598 30H199.998L192.158 4.6H193.198L185.478 30H179.878ZM185.158 24V18.92H200.358V24H185.158ZM217.583 30V1.2H223.023V24.92H235.423V30H217.583ZM247.223 30V1.2H252.663V24.92H265.063V30H247.223ZM288.043 30.6C285.163 30.6 282.676 29.9733 280.583 28.72C278.503 27.4667 276.896 25.7133 275.763 23.46C274.643 21.2067 274.083 18.5867 274.083 15.6C274.083 12.6133 274.643 9.99333 275.763 7.74C276.896 5.48667 278.503 3.73333 280.583 2.48C282.676 1.22667 285.163 0.599999 288.043 0.599999C290.923 0.599999 293.403 1.22667 295.483 2.48C297.576 3.73333 299.183 5.48667 300.303 7.74C301.436 9.99333 302.003 12.6133 302.003 15.6C302.003 18.5867 301.436 21.2067 300.303 23.46C299.183 25.7133 297.576 27.4667 295.483 28.72C293.403 29.9733 290.923 30.6 288.043 30.6ZM288.043 25.48C289.869 25.5067 291.389 25.1133 292.603 24.3C293.816 23.4867 294.723 22.3333 295.323 20.84C295.936 19.3467 296.243 17.6 296.243 15.6C296.243 13.6 295.936 11.8667 295.323 10.4C294.723 8.93333 293.816 7.79333 292.603 6.98C291.389 6.16667 289.869 5.74667 288.043 5.72C286.216 5.69333 284.696 6.08666 283.483 6.9C282.269 7.71333 281.356 8.86666 280.743 10.36C280.143 11.8533 279.843 13.6 279.843 15.6C279.843 17.6 280.143 19.3333 280.743 20.8C281.356 22.2667 282.269 23.4067 283.483 24.22C284.696 25.0333 286.216 25.4533 288.043 25.48ZM319.824 30V18.28L309.984 1.2H316.344L322.584 12.04L328.824 1.2H335.184L325.344 18.28V30H319.824ZM355.649 30.6C353.515 30.6 351.589 30.2267 349.869 29.48C348.162 28.72 346.755 27.64 345.649 26.24C344.555 24.8267 343.862 23.1467 343.569 21.2L349.249 20.36C349.649 22.0133 350.475 23.2867 351.729 24.18C352.982 25.0733 354.409 25.52 356.009 25.52C356.902 25.52 357.769 25.38 358.609 25.1C359.449 24.82 360.135 24.4067 360.669 23.86C361.215 23.3133 361.489 22.64 361.489 21.84C361.489 21.5467 361.442 21.2667 361.349 21C361.269 20.72 361.129 20.46 360.929 20.22C360.729 19.98 360.442 19.7533 360.069 19.54C359.709 19.3267 359.249 19.1333 358.689 18.96L351.209 16.76C350.649 16.6 349.995 16.3733 349.249 16.08C348.515 15.7867 347.802 15.3667 347.109 14.82C346.415 14.2733 345.835 13.5533 345.369 12.66C344.915 11.7533 344.689 10.6133 344.689 9.24C344.689 7.30666 345.175 5.7 346.149 4.42C347.122 3.14 348.422 2.18666 350.049 1.56C351.675 0.933332 353.475 0.626665 355.449 0.639999C357.435 0.666665 359.209 1.00667 360.769 1.66C362.329 2.31333 363.635 3.26667 364.689 4.52C365.742 5.76 366.502 7.28 366.969 9.08L361.089 10.08C360.875 9.14666 360.482 8.36 359.909 7.72C359.335 7.08 358.649 6.59333 357.849 6.26C357.062 5.92667 356.235 5.74667 355.369 5.72C354.515 5.69333 353.709 5.81333 352.949 6.08C352.202 6.33333 351.589 6.70667 351.109 7.2C350.642 7.69333 350.409 8.28 350.409 8.96C350.409 9.58667 350.602 10.1 350.989 10.5C351.375 10.8867 351.862 11.2 352.449 11.44C353.035 11.68 353.635 11.88 354.249 12.04L359.249 13.4C359.995 13.6 360.822 13.8667 361.729 14.2C362.635 14.52 363.502 14.9733 364.329 15.56C365.169 16.1333 365.855 16.8933 366.389 17.84C366.935 18.7867 367.209 19.9867 367.209 21.44C367.209 22.9867 366.882 24.34 366.229 25.5C365.589 26.6467 364.722 27.6 363.629 28.36C362.535 29.1067 361.295 29.6667 359.909 30.04C358.535 30.4133 357.115 30.6 355.649 30.6Z" fill="white"/>
</svg>
