<svg width="94" height="84" viewBox="0 0 94 84" fill="none" xmlns="http://www.w3.org/2000/svg">
<g clip-path="url(#clip0_4616_3261)">
<path d="M93.6432 10.441C93.3539 9.92972 92.9269 9.63438 92.4769 9.63438H36.0437L35.4337 4.97193C35.0442 1.99793 33.3697 0 31.2664 0H27.0305C26.1896 0 25.5078 1.01101 25.5078 2.25806C25.5078 3.5051 26.1896 4.51611 27.0305 4.51611H31.2664C31.8959 4.51611 32.3361 5.00807 32.4439 5.8324L39.3078 58.288C39.5756 60.3341 40.1159 62.1742 40.8718 63.7476L38.7529 66.4188C37.8395 65.515 36.7381 65.032 35.54 65.032C32.0913 65.032 28.915 69.0258 28.3087 74.1239C28.0018 76.7056 28.43 79.2541 29.4835 81.116C30.5357 82.9757 32.0763 84 33.8217 84C37.2704 84 40.4467 80.0066 41.053 74.9082C41.2614 73.1544 41.1299 71.4169 40.6945 69.8986L43.0412 66.9399C44.6388 68.604 46.6257 69.5481 48.8194 69.5481H73.5176C72.8418 70.8849 72.3617 72.4436 72.1619 74.1239C71.8549 76.7056 72.2832 79.2541 73.3366 81.116C74.3889 82.9757 75.9294 84 77.6747 84C81.1236 84 84.2998 80.0066 84.9061 74.9082C85.2131 72.3264 84.7849 69.7779 83.7311 67.916C82.6789 66.0565 81.1384 65.0324 79.3929 65.0324H48.8194C45.4619 65.0324 42.9017 62.0474 42.2973 57.4278L41.9923 55.0965H81.1116C85.4711 55.0965 89.4868 50.0452 90.2535 43.5961L93.9766 12.2844C94.0545 11.6272 93.9326 10.9525 93.6432 10.441ZM81.3985 70.8186C81.8788 71.6677 82.0596 72.8413 81.907 74.1239C81.5615 77.0292 79.6235 79.4837 77.6747 79.4837C76.8452 79.4837 76.133 79.0322 75.6696 78.2131C75.1892 77.364 75.0085 76.1904 75.1612 74.9078C75.5065 72.0025 77.4446 69.5481 79.3932 69.5481C80.2228 69.5481 80.9349 69.9995 81.3985 70.8186ZM38.0539 74.1239C37.7083 77.0292 35.7703 79.4837 33.8217 79.4837C32.9921 79.4837 32.2798 79.0322 31.8164 78.2131C31.3361 77.364 31.1553 76.1904 31.308 74.9078C31.6534 72.0025 33.5914 69.5481 35.54 69.5481C36.3696 69.5481 37.0818 69.9995 37.5453 70.8186C38.0257 71.6677 38.2064 72.8415 38.0539 74.1239ZM87.2543 42.8121C86.7536 47.0229 83.9405 50.5805 81.1116 50.5805H41.4013L36.6346 14.1505H90.6622L87.2543 42.8121Z" fill="black"/>
<path d="M65.7507 45.428C65.84 45.4515 65.9289 45.4626 66.0169 45.4626C66.7419 45.4626 67.3844 44.6916 67.5146 43.5963L70.0919 21.9189C70.238 20.6909 69.6849 19.5197 68.8567 19.3032C68.0294 19.0877 67.2389 19.9065 67.0929 21.135L64.5156 42.8123C64.3696 44.0404 64.9226 45.2115 65.7507 45.428Z" fill="#039BE5"/>
<path d="M72.2468 45.428C72.3361 45.4515 72.425 45.4626 72.513 45.4626C73.238 45.4626 73.8805 44.6916 74.0107 43.5963L76.588 21.9189C76.734 20.6909 76.181 19.5197 75.3528 19.3032C74.5255 19.0877 73.735 19.9065 73.589 21.135L71.0117 42.8123C70.8657 44.0404 71.4187 45.2115 72.2468 45.428Z" fill="#039BE5"/>
<path d="M78.7449 45.428C78.8342 45.4515 78.9231 45.4626 79.011 45.4626C79.7361 45.4626 80.3786 44.6916 80.5087 43.5963L83.0861 21.9189C83.232 20.6909 82.6791 19.5197 81.8509 19.3032C81.0236 19.0877 80.233 19.9065 80.0871 21.135L77.5097 42.8123C77.3636 44.0404 77.9168 45.2115 78.7449 45.428Z" fill="#039BE5"/>
<path d="M46.2605 45.428C46.3498 45.4515 46.4388 45.4626 46.5266 45.4626C47.2516 45.4626 47.8942 44.6916 48.0243 43.5963L50.6018 21.9189C50.7478 20.6909 50.1947 19.5197 49.3665 19.3032C48.539 19.0877 47.7486 19.9065 47.6027 21.135L45.0253 42.8123C44.8794 44.0404 45.4323 45.2115 46.2605 45.428Z" fill="#039BE5"/>
<path d="M52.7585 45.428C52.8478 45.4515 52.9369 45.4626 53.0247 45.4626C53.7497 45.4626 54.3922 44.6916 54.5224 43.5963L57.0999 21.9189C57.2458 20.6909 56.6927 19.5197 55.8646 19.3032C55.0371 19.0877 54.2467 19.9065 54.1007 21.135L51.5234 42.8123C51.3774 44.0404 51.9304 45.2115 52.7585 45.428Z" fill="#039BE5"/>
<path d="M59.2546 45.428C59.3439 45.4515 59.4328 45.4626 59.5208 45.4626C60.2458 45.4626 60.8883 44.6916 61.0185 43.5963L63.5959 21.9189C63.7419 20.6909 63.1888 19.5197 62.3607 19.3032C61.5332 19.0877 60.7428 19.9065 60.5968 21.135L58.0195 42.8123C57.8735 44.0404 58.4265 45.2115 59.2546 45.428Z" fill="#039BE5"/>
<path d="M30.6571 28.7525C30.6571 27.5054 29.9753 26.4944 29.1344 26.4944H6.39573C5.5548 26.4944 4.87305 27.5054 4.87305 28.7525C4.87305 29.9995 5.5548 31.0105 6.39573 31.0105H29.1344C29.9753 31.0105 30.6571 29.9995 30.6571 28.7525Z" fill="black"/>
<path d="M33.9045 57.6558C33.9045 56.4087 33.2227 55.3977 32.3818 55.3977H16.14C15.299 55.3977 14.6172 56.4087 14.6172 57.6558C14.6172 58.9028 15.299 59.9138 16.14 59.9138H32.3818C33.2227 59.9138 33.9045 58.9028 33.9045 57.6558Z" fill="black"/>
<path d="M32.2798 43.2039C32.2798 41.9569 31.598 40.9458 30.7571 40.9458H11.2668C10.4259 40.9458 9.74414 41.9569 9.74414 43.2039C9.74414 44.4509 10.4259 45.462 11.2668 45.462H30.7571C31.598 45.462 32.2798 44.4509 32.2798 43.2039Z" fill="black"/>
<path d="M29.0324 14.3011C29.0324 13.054 28.3507 12.043 27.5098 12.043H1.52268C0.681754 12.043 0 13.054 0 14.3011C0 15.548 0.681754 16.559 1.52268 16.559H27.5098C28.3507 16.559 29.0324 15.548 29.0324 14.3011Z" fill="black"/>
</g>
<defs>
<clipPath id="clip0_4616_3261">
<rect width="94" height="84" fill="white"/>
</clipPath>
</defs>
</svg>
