<svg width="185" height="16" viewBox="0 0 185 16" fill="none" xmlns="http://www.w3.org/2000/svg">
<path d="M6.84 15.3C5.77333 15.3 4.81 15.1133 3.95 14.74C3.09667 14.36 2.39333 13.82 1.84 13.12C1.29333 12.4133 0.946667 11.5733 0.8 10.6L3.64 10.18C3.84 11.0067 4.25333 11.6433 4.88 12.09C5.50667 12.5367 6.22 12.76 7.02 12.76C7.46667 12.76 7.9 12.69 8.32 12.55C8.74 12.41 9.08333 12.2033 9.35 11.93C9.62333 11.6567 9.76 11.32 9.76 10.92C9.76 10.7733 9.73667 10.6333 9.69 10.5C9.65 10.36 9.58 10.23 9.48 10.11C9.38 9.99 9.23667 9.87667 9.05 9.77C8.87 9.66333 8.64 9.56667 8.36 9.48L4.62 8.38C4.34 8.3 4.01333 8.18667 3.64 8.04C3.27333 7.89333 2.91667 7.68333 2.57 7.41C2.22333 7.13667 1.93333 6.77667 1.7 6.33C1.47333 5.87667 1.36 5.30667 1.36 4.62C1.36 3.65333 1.60333 2.85 2.09 2.21C2.57667 1.57 3.22667 1.09333 4.04 0.779999C4.85333 0.466666 5.75333 0.313332 6.74 0.319999C7.73333 0.333333 8.62 0.503333 9.4 0.829999C10.18 1.15667 10.8333 1.63333 11.36 2.26C11.8867 2.88 12.2667 3.64 12.5 4.54L9.56 5.04C9.45333 4.57333 9.25667 4.18 8.97 3.86C8.68333 3.54 8.34 3.29667 7.94 3.13C7.54667 2.96333 7.13333 2.87333 6.7 2.86C6.27333 2.84667 5.87 2.90667 5.49 3.04C5.11667 3.16667 4.81 3.35333 4.57 3.6C4.33667 3.84667 4.22 4.14 4.22 4.48C4.22 4.79333 4.31667 5.05 4.51 5.25C4.70333 5.44333 4.94667 5.6 5.24 5.72C5.53333 5.84 5.83333 5.94 6.14 6.02L8.64 6.7C9.01333 6.8 9.42667 6.93333 9.88 7.1C10.3333 7.26 10.7667 7.48667 11.18 7.78C11.6 8.06667 11.9433 8.44667 12.21 8.92C12.4833 9.39333 12.62 9.99333 12.62 10.72C12.62 11.4933 12.4567 12.17 12.13 12.75C11.81 13.3233 11.3767 13.8 10.83 14.18C10.2833 14.5533 9.66333 14.8333 8.97 15.02C8.28333 15.2067 7.57333 15.3 6.84 15.3ZM18.818 15V0.599999H21.538V6.52H27.978V0.599999H30.698V15H27.978V9.06H21.538V15H18.818ZM43.3655 15.3C42.2055 15.3 41.1855 15.0667 40.3055 14.6C39.4255 14.1267 38.7388 13.4633 38.2455 12.61C37.7521 11.7567 37.5055 10.7533 37.5055 9.6V0.619999L40.2655 0.599999V9.58C40.2655 10.0533 40.3455 10.4833 40.5055 10.87C40.6655 11.2567 40.8855 11.59 41.1655 11.87C41.4521 12.15 41.7821 12.3667 42.1555 12.52C42.5355 12.6667 42.9388 12.74 43.3655 12.74C43.8055 12.74 44.2121 12.6633 44.5855 12.51C44.9655 12.3567 45.2955 12.14 45.5755 11.86C45.8555 11.58 46.0721 11.2467 46.2255 10.86C46.3855 10.4733 46.4655 10.0467 46.4655 9.58V0.599999H49.2255V9.6C49.2255 10.7533 48.9788 11.7567 48.4855 12.61C47.9921 13.4633 47.3055 14.1267 46.4255 14.6C45.5455 15.0667 44.5255 15.3 43.3655 15.3ZM56.0172 15V0.599999H61.7772C62.8039 0.599999 63.6339 0.806666 64.2672 1.22C64.9005 1.62667 65.3639 2.14 65.6572 2.76C65.9505 3.38 66.0972 4.00667 66.0972 4.64C66.0972 5.44667 65.9139 6.11667 65.5472 6.65C65.1872 7.18333 64.6905 7.54 64.0572 7.72V7.22C64.9572 7.40667 65.6305 7.82333 66.0772 8.47C66.5305 9.11667 66.7572 9.84 66.7572 10.64C66.7572 11.5 66.5972 12.2567 66.2772 12.91C65.9639 13.5633 65.4839 14.0767 64.8372 14.45C64.1905 14.8167 63.3772 15 62.3972 15H56.0172ZM58.7772 12.44H62.1172C62.4839 12.44 62.8105 12.3633 63.0972 12.21C63.3839 12.05 63.6072 11.83 63.7672 11.55C63.9339 11.2633 64.0172 10.9267 64.0172 10.54C64.0172 10.2 63.9472 9.89667 63.8072 9.63C63.6672 9.36333 63.4539 9.15333 63.1672 9C62.8872 8.84 62.5372 8.76 62.1172 8.76H58.7772V12.44ZM58.7772 6.22H61.7372C62.0439 6.22 62.3172 6.16667 62.5572 6.06C62.7972 5.95333 62.9872 5.79 63.1272 5.57C63.2672 5.34333 63.3372 5.05333 63.3372 4.7C63.3372 4.26 63.2005 3.89 62.9272 3.59C62.6539 3.29 62.2572 3.14 61.7372 3.14H58.7772V6.22ZM72.7516 15V0.599999H75.4716V6.52H81.9116V0.599999H84.6316V15H81.9116V9.06H75.4716V15H72.7516ZM90.4391 15L94.8391 0.599999H98.8991L103.299 15H100.499L96.5791 2.3H97.0991L93.2391 15H90.4391ZM93.0791 12V9.46H100.679V12H93.0791ZM109.291 15V0.599999H112.011V12.46H118.211V15H109.291ZM124.112 15V0.599999H126.832V12.46H133.032V15H124.112ZM144.521 15.3C143.081 15.3 141.838 14.9867 140.791 14.36C139.751 13.7333 138.948 12.8567 138.381 11.73C137.821 10.6033 137.541 9.29333 137.541 7.8C137.541 6.30667 137.821 4.99667 138.381 3.87C138.948 2.74333 139.751 1.86667 140.791 1.24C141.838 0.613333 143.081 0.3 144.521 0.3C145.961 0.3 147.201 0.613333 148.241 1.24C149.288 1.86667 150.091 2.74333 150.651 3.87C151.218 4.99667 151.501 6.30667 151.501 7.8C151.501 9.29333 151.218 10.6033 150.651 11.73C150.091 12.8567 149.288 13.7333 148.241 14.36C147.201 14.9867 145.961 15.3 144.521 15.3ZM144.521 12.74C145.435 12.7533 146.195 12.5567 146.801 12.15C147.408 11.7433 147.861 11.1667 148.161 10.42C148.468 9.67333 148.621 8.8 148.621 7.8C148.621 6.8 148.468 5.93333 148.161 5.2C147.861 4.46667 147.408 3.89667 146.801 3.49C146.195 3.08333 145.435 2.87333 144.521 2.86C143.608 2.84667 142.848 3.04333 142.241 3.45C141.635 3.85667 141.178 4.43333 140.871 5.18C140.571 5.92667 140.421 6.8 140.421 7.8C140.421 8.8 140.571 9.66667 140.871 10.4C141.178 11.1333 141.635 11.7033 142.241 12.11C142.848 12.5167 143.608 12.7267 144.521 12.74ZM160.412 15V9.14L155.492 0.599999H158.672L161.792 6.02L164.912 0.599999H168.092L163.172 9.14V15H160.412ZM178.324 15.3C177.258 15.3 176.294 15.1133 175.434 14.74C174.581 14.36 173.878 13.82 173.324 13.12C172.778 12.4133 172.431 11.5733 172.284 10.6L175.124 10.18C175.324 11.0067 175.738 11.6433 176.364 12.09C176.991 12.5367 177.704 12.76 178.504 12.76C178.951 12.76 179.384 12.69 179.804 12.55C180.224 12.41 180.568 12.2033 180.834 11.93C181.108 11.6567 181.244 11.32 181.244 10.92C181.244 10.7733 181.221 10.6333 181.174 10.5C181.134 10.36 181.064 10.23 180.964 10.11C180.864 9.99 180.721 9.87667 180.534 9.77C180.354 9.66333 180.124 9.56667 179.844 9.48L176.104 8.38C175.824 8.3 175.498 8.18667 175.124 8.04C174.758 7.89333 174.401 7.68333 174.054 7.41C173.708 7.13667 173.418 6.77667 173.184 6.33C172.958 5.87667 172.844 5.30667 172.844 4.62C172.844 3.65333 173.088 2.85 173.574 2.21C174.061 1.57 174.711 1.09333 175.524 0.779999C176.338 0.466666 177.238 0.313332 178.224 0.319999C179.218 0.333333 180.104 0.503333 180.884 0.829999C181.664 1.15667 182.318 1.63333 182.844 2.26C183.371 2.88 183.751 3.64 183.984 4.54L181.044 5.04C180.938 4.57333 180.741 4.18 180.454 3.86C180.168 3.54 179.824 3.29667 179.424 3.13C179.031 2.96333 178.618 2.87333 178.184 2.86C177.758 2.84667 177.354 2.90667 176.974 3.04C176.601 3.16667 176.294 3.35333 176.054 3.6C175.821 3.84667 175.704 4.14 175.704 4.48C175.704 4.79333 175.801 5.05 175.994 5.25C176.188 5.44333 176.431 5.6 176.724 5.72C177.018 5.84 177.318 5.94 177.624 6.02L180.124 6.7C180.498 6.8 180.911 6.93333 181.364 7.1C181.818 7.26 182.251 7.48667 182.664 7.78C183.084 8.06667 183.428 8.44667 183.694 8.92C183.968 9.39333 184.104 9.99333 184.104 10.72C184.104 11.4933 183.941 12.17 183.614 12.75C183.294 13.3233 182.861 13.8 182.314 14.18C181.768 14.5533 181.148 14.8333 180.454 15.02C179.768 15.2067 179.058 15.3 178.324 15.3Z" fill="white"/>
</svg>
