<svg width="350" height="432" viewBox="0 0 350 432" fill="none" xmlns="http://www.w3.org/2000/svg">
<rect width="200" height="394" fill="#36C31C"/>
<path d="M58.096 417.96L57.184 422.28H60.496V424.2H56.776L55.744 429H53.656L54.688 424.2H49.648L48.616 429H46.528L47.56 424.2H43.792V422.28H47.968L48.88 417.96H45.16V416.04H49.288L50.32 411.24H52.408L51.376 416.04H56.416L57.448 411.24H59.536L58.504 416.04H61.84V417.96H58.096ZM56.008 417.96H50.968L50.056 422.28H55.096L56.008 417.96ZM64.5483 415.824C64.6443 414.336 65.2123 413.176 66.2523 412.344C67.3083 411.512 68.6523 411.096 70.2843 411.096C71.4043 411.096 72.3723 411.296 73.1883 411.696C74.0043 412.096 74.6203 412.64 75.0363 413.328C75.4523 414.016 75.6603 414.792 75.6603 415.656C75.6603 416.648 75.3963 417.496 74.8683 418.2C74.3403 418.904 73.7083 419.376 72.9723 419.616V419.712C73.9163 420 74.6523 420.528 75.1803 421.296C75.7083 422.048 75.9723 423.016 75.9723 424.2C75.9723 425.144 75.7563 425.984 75.3243 426.72C74.8923 427.456 74.2523 428.04 73.4043 428.472C72.5563 428.888 71.5403 429.096 70.3563 429.096C68.6283 429.096 67.2043 428.656 66.0843 427.776C64.9803 426.88 64.3883 425.6 64.3083 423.936H66.9483C67.0123 424.784 67.3403 425.48 67.9323 426.024C68.5243 426.552 69.3243 426.816 70.3323 426.816C71.3083 426.816 72.0603 426.552 72.5883 426.024C73.1163 425.48 73.3803 424.784 73.3803 423.936C73.3803 422.816 73.0203 422.024 72.3003 421.56C71.5963 421.08 70.5083 420.84 69.0363 420.84H68.4123V418.584H69.0603C70.3563 418.568 71.3403 418.352 72.0123 417.936C72.7003 417.52 73.0443 416.864 73.0443 415.968C73.0443 415.2 72.7963 414.592 72.3003 414.144C71.8043 413.68 71.1003 413.448 70.1883 413.448C69.2923 413.448 68.5963 413.68 68.1003 414.144C67.6043 414.592 67.3083 415.152 67.2123 415.824H64.5483ZM88.2543 415.56C88.0783 414.824 87.7583 414.272 87.2943 413.904C86.8303 413.536 86.1823 413.352 85.3503 413.352C84.0863 413.352 83.1423 413.84 82.5183 414.816C81.8943 415.776 81.5663 417.376 81.5343 419.616C81.9503 418.912 82.5583 418.368 83.3583 417.984C84.1583 417.6 85.0223 417.408 85.9503 417.408C87.0063 417.408 87.9343 417.64 88.7343 418.104C89.5503 418.552 90.1823 419.208 90.6302 420.072C91.0943 420.936 91.3263 421.968 91.3263 423.168C91.3263 424.288 91.1023 425.288 90.6543 426.168C90.2223 427.048 89.5743 427.744 88.7103 428.256C87.8463 428.752 86.8063 429 85.5903 429C83.9423 429 82.6463 428.64 81.7023 427.92C80.7743 427.184 80.1183 426.152 79.7343 424.824C79.3663 423.496 79.1823 421.84 79.1823 419.856C79.1823 414 81.2463 411.072 85.3743 411.072C86.9743 411.072 88.2303 411.504 89.1423 412.368C90.0703 413.232 90.6143 414.296 90.7743 415.56H88.2543ZM85.3503 419.712C84.3743 419.712 83.5423 420.008 82.8543 420.6C82.1823 421.176 81.8463 422.016 81.8463 423.12C81.8463 424.224 82.1583 425.104 82.7823 425.76C83.4223 426.4 84.3103 426.72 85.4463 426.72C86.4543 426.72 87.2463 426.408 87.8223 425.784C88.4143 425.16 88.7103 424.328 88.7103 423.288C88.7103 422.2 88.4223 421.336 87.8463 420.696C87.2863 420.04 86.4543 419.712 85.3503 419.712ZM93.6927 420.624C93.6927 418.992 94.0687 417.528 94.8207 416.232C95.5887 414.936 96.6207 413.928 97.9167 413.208C99.2287 412.472 100.661 412.104 102.213 412.104C103.989 412.104 105.565 412.544 106.941 413.424C108.333 414.288 109.341 415.52 109.965 417.12H106.677C106.245 416.24 105.645 415.584 104.877 415.152C104.109 414.72 103.221 414.504 102.213 414.504C101.109 414.504 100.125 414.752 99.2607 415.248C98.3967 415.744 97.7167 416.456 97.2207 417.384C96.7407 418.312 96.5007 419.392 96.5007 420.624C96.5007 421.856 96.7407 422.936 97.2207 423.864C97.7167 424.792 98.3967 425.512 99.2607 426.024C100.125 426.52 101.109 426.768 102.213 426.768C103.221 426.768 104.109 426.552 104.877 426.12C105.645 425.688 106.245 425.032 106.677 424.152H109.965C109.341 425.752 108.333 426.984 106.941 427.848C105.565 428.712 103.989 429.144 102.213 429.144C100.645 429.144 99.2127 428.784 97.9167 428.064C96.6207 427.328 95.5887 426.312 94.8207 425.016C94.0687 423.72 93.6927 422.256 93.6927 420.624ZM112.759 415.824C112.855 414.336 113.423 413.176 114.463 412.344C115.519 411.512 116.863 411.096 118.495 411.096C119.615 411.096 120.583 411.296 121.399 411.696C122.215 412.096 122.831 412.64 123.247 413.328C123.663 414.016 123.871 414.792 123.871 415.656C123.871 416.648 123.607 417.496 123.079 418.2C122.551 418.904 121.919 419.376 121.183 419.616V419.712C122.127 420 122.863 420.528 123.391 421.296C123.919 422.048 124.183 423.016 124.183 424.2C124.183 425.144 123.967 425.984 123.535 426.72C123.103 427.456 122.463 428.04 121.615 428.472C120.767 428.888 119.751 429.096 118.567 429.096C116.839 429.096 115.415 428.656 114.295 427.776C113.191 426.88 112.599 425.6 112.519 423.936H115.159C115.223 424.784 115.551 425.48 116.143 426.024C116.735 426.552 117.535 426.816 118.543 426.816C119.519 426.816 120.271 426.552 120.799 426.024C121.327 425.48 121.591 424.784 121.591 423.936C121.591 422.816 121.231 422.024 120.511 421.56C119.807 421.08 118.719 420.84 117.247 420.84H116.623V418.584H117.271C118.567 418.568 119.551 418.352 120.223 417.936C120.911 417.52 121.255 416.864 121.255 415.968C121.255 415.2 121.007 414.592 120.511 414.144C120.015 413.68 119.311 413.448 118.399 413.448C117.503 413.448 116.807 413.68 116.311 414.144C115.815 414.592 115.519 415.152 115.423 415.824H112.759ZM126.697 414V411.504H131.689V429H128.929V414H126.697ZM134.896 420.624C134.896 418.992 135.272 417.528 136.024 416.232C136.792 414.936 137.824 413.928 139.12 413.208C140.432 412.472 141.864 412.104 143.416 412.104C145.192 412.104 146.768 412.544 148.144 413.424C149.536 414.288 150.544 415.52 151.168 417.12H147.88C147.448 416.24 146.848 415.584 146.08 415.152C145.312 414.72 144.424 414.504 143.416 414.504C142.312 414.504 141.328 414.752 140.464 415.248C139.6 415.744 138.92 416.456 138.424 417.384C137.944 418.312 137.704 419.392 137.704 420.624C137.704 421.856 137.944 422.936 138.424 423.864C138.92 424.792 139.6 425.512 140.464 426.024C141.328 426.52 142.312 426.768 143.416 426.768C144.424 426.768 145.312 426.552 146.08 426.12C146.848 425.688 147.448 425.032 147.88 424.152H151.168C150.544 425.752 149.536 426.984 148.144 427.848C146.768 428.712 145.192 429.144 143.416 429.144C141.848 429.144 140.416 428.784 139.12 428.064C137.824 427.328 136.792 426.312 136.024 425.016C135.272 423.72 134.896 422.256 134.896 420.624Z" fill="#33475B"/>
<rect x="200" width="150" height="394" fill="#00B67A"/>
<path d="M234.096 417.96L233.184 422.28H236.496V424.2H232.776L231.744 429H229.656L230.688 424.2H225.648L224.616 429H222.528L223.56 424.2H219.792V422.28H223.968L224.88 417.96H221.16V416.04H225.288L226.32 411.24H228.408L227.376 416.04H232.416L233.448 411.24H235.536L234.504 416.04H237.84V417.96H234.096ZM232.008 417.96H226.968L226.056 422.28H231.096L232.008 417.96ZM240.596 420.024C240.596 417.256 241.06 415.096 241.988 413.544C242.932 411.976 244.548 411.192 246.836 411.192C249.124 411.192 250.732 411.976 251.66 413.544C252.604 415.096 253.076 417.256 253.076 420.024C253.076 422.824 252.604 425.016 251.66 426.6C250.732 428.168 249.124 428.952 246.836 428.952C244.548 428.952 242.932 428.168 241.988 426.6C241.06 425.016 240.596 422.824 240.596 420.024ZM250.388 420.024C250.388 418.728 250.3 417.632 250.124 416.736C249.964 415.84 249.628 415.112 249.116 414.552C248.604 413.976 247.844 413.688 246.836 413.688C245.828 413.688 245.068 413.976 244.556 414.552C244.044 415.112 243.7 415.84 243.524 416.736C243.364 417.632 243.284 418.728 243.284 420.024C243.284 421.368 243.364 422.496 243.524 423.408C243.684 424.32 244.02 425.056 244.532 425.616C245.06 426.176 245.828 426.456 246.836 426.456C247.844 426.456 248.604 426.176 249.116 425.616C249.644 425.056 249.988 424.32 250.148 423.408C250.308 422.496 250.388 421.368 250.388 420.024ZM255.971 420.024C255.971 417.256 256.435 415.096 257.363 413.544C258.307 411.976 259.923 411.192 262.211 411.192C264.499 411.192 266.107 411.976 267.035 413.544C267.979 415.096 268.451 417.256 268.451 420.024C268.451 422.824 267.979 425.016 267.035 426.6C266.107 428.168 264.499 428.952 262.211 428.952C259.923 428.952 258.307 428.168 257.363 426.6C256.435 425.016 255.971 422.824 255.971 420.024ZM265.763 420.024C265.763 418.728 265.675 417.632 265.499 416.736C265.339 415.84 265.003 415.112 264.491 414.552C263.979 413.976 263.219 413.688 262.211 413.688C261.203 413.688 260.443 413.976 259.931 414.552C259.419 415.112 259.075 415.84 258.899 416.736C258.739 417.632 258.659 418.728 258.659 420.024C258.659 421.368 258.739 422.496 258.899 423.408C259.059 424.32 259.395 425.056 259.907 425.616C260.435 426.176 261.203 426.456 262.211 426.456C263.219 426.456 263.979 426.176 264.491 425.616C265.019 425.056 265.363 424.32 265.523 423.408C265.683 422.496 265.763 421.368 265.763 420.024ZM280.634 420.432C281.53 420.592 282.29 421.064 282.914 421.848C283.538 422.632 283.85 423.52 283.85 424.512C283.85 425.36 283.626 426.128 283.178 426.816C282.746 427.488 282.114 428.024 281.282 428.424C280.45 428.808 279.482 429 278.378 429H271.706V412.32H278.066C279.202 412.32 280.178 412.512 280.994 412.896C281.81 413.28 282.426 413.8 282.842 414.456C283.258 415.096 283.466 415.816 283.466 416.616C283.466 417.576 283.21 418.376 282.698 419.016C282.186 419.656 281.498 420.128 280.634 420.432ZM274.442 419.328H277.826C278.722 419.328 279.418 419.128 279.914 418.728C280.426 418.312 280.682 417.72 280.682 416.952C280.682 416.2 280.426 415.616 279.914 415.2C279.418 414.768 278.722 414.552 277.826 414.552H274.442V419.328ZM278.138 426.768C279.066 426.768 279.794 426.544 280.322 426.096C280.85 425.648 281.114 425.024 281.114 424.224C281.114 423.408 280.834 422.76 280.274 422.28C279.714 421.8 278.97 421.56 278.042 421.56H274.442V426.768H278.138ZM295.871 415.56C295.695 414.824 295.375 414.272 294.911 413.904C294.447 413.536 293.799 413.352 292.967 413.352C291.703 413.352 290.759 413.84 290.135 414.816C289.511 415.776 289.183 417.376 289.151 419.616C289.567 418.912 290.175 418.368 290.975 417.984C291.775 417.6 292.639 417.408 293.567 417.408C294.623 417.408 295.551 417.64 296.351 418.104C297.167 418.552 297.799 419.208 298.247 420.072C298.711 420.936 298.943 421.968 298.943 423.168C298.943 424.288 298.719 425.288 298.271 426.168C297.839 427.048 297.191 427.744 296.327 428.256C295.463 428.752 294.423 429 293.207 429C291.559 429 290.263 428.64 289.319 427.92C288.391 427.184 287.735 426.152 287.351 424.824C286.983 423.496 286.799 421.84 286.799 419.856C286.799 414 288.863 411.072 292.991 411.072C294.591 411.072 295.847 411.504 296.759 412.368C297.687 413.232 298.231 414.296 298.391 415.56H295.871ZM292.967 419.712C291.991 419.712 291.159 420.008 290.471 420.6C289.799 421.176 289.463 422.016 289.463 423.12C289.463 424.224 289.775 425.104 290.399 425.76C291.039 426.4 291.927 426.72 293.063 426.72C294.071 426.72 294.863 426.408 295.439 425.784C296.031 425.16 296.327 424.328 296.327 423.288C296.327 422.2 296.039 421.336 295.463 420.696C294.903 420.04 294.071 419.712 292.967 419.712ZM312.95 413.616L306.278 429H303.518L310.262 413.904H301.382V411.576H312.95V413.616ZM325.708 425.592H318.724L317.524 429H314.668L320.644 412.296H323.812L329.788 429H326.908L325.708 425.592ZM324.94 423.36L322.228 415.608L319.492 423.36H324.94Z" fill="#33475B"/>
</svg>
