<svg width="60" height="60" viewBox="0 0 60 60" fill="none" xmlns="http://www.w3.org/2000/svg">
<path d="M30.3146 60C15.5582 60 0.143943 48.9949 0.000953982 30.2719C-0.142035 10.7485 15.8155 0.0864172 30.0287 0.000663008C48.1883 -0.113676 60.1136 14.5789 59.9992 29.986C59.8848 43.4209 50.6191 60 30.3146 60ZM13.5277 31.0151C9.69561 31.0151 5.9207 31.0151 2.0028 31.0151C2.23158 37.3895 4.40502 42.9349 8.26572 47.7086C10.4678 46.0792 12.6126 44.5357 14.7288 42.9349C14.929 42.7634 15.0148 42.3061 14.9576 41.9916C14.643 39.7906 14.2141 37.561 13.9281 35.36C13.6993 33.9021 13.6421 32.4729 13.5277 31.0151ZM8.23713 12.2921C4.40502 17.0943 2.23158 22.6398 2.0314 28.9856C5.9779 28.9856 9.72421 28.9856 13.4991 28.9856C13.5563 28.8712 13.5849 28.8141 13.5849 28.7569C13.7565 25.0409 14.1283 21.3535 15.0148 17.7518C15.072 17.5517 14.9004 17.1801 14.7288 17.0657C12.6126 15.4936 10.4678 13.95 8.23713 12.2921ZM58.0545 28.9856C57.8257 22.5826 55.6523 17.0372 51.7916 12.2921C49.561 13.9214 47.4447 15.465 45.3857 17.0657C45.1855 17.2373 45.0711 17.6946 45.1283 18.009C45.4429 20.2101 45.8719 22.4397 46.1578 24.6407C46.358 26.0699 46.4152 27.5278 46.5582 29.0142C50.3903 28.9856 54.1652 28.9856 58.0545 28.9856ZM58.0545 31.0151C54.1366 31.0151 50.3617 31.0151 46.5296 31.0151C46.501 31.3009 46.4724 31.5582 46.4438 31.8155C46.0434 35.017 45.7003 38.247 45.1855 41.4485C45.0139 42.449 45.2427 42.8777 46.0434 43.4209C47.9881 44.7643 49.8184 46.2507 51.763 47.7657C55.6523 42.9349 57.8257 37.3895 58.0545 31.0151ZM29.0277 2.00159C28.7132 2.05876 28.4272 2.08735 28.1698 2.1731C25.7962 2.77338 23.9945 4.2312 22.4502 6.06062C20.0766 8.9191 18.6181 12.2349 17.5028 15.7223C17.3312 16.2654 17.56 16.4655 17.989 16.637C19.2759 17.1229 20.5056 17.6946 21.8211 18.0948C24.1375 18.8094 26.5111 19.2668 29.0277 19.2954C29.0277 13.5212 29.0277 7.80429 29.0277 2.00159ZM31.0296 57.8847C31.1726 57.9133 31.2584 57.9419 31.3442 57.9133C31.4872 57.8847 31.6587 57.8561 31.8017 57.8276C34.1753 57.2273 36.0056 55.798 37.5213 53.9686C39.9235 51.1102 41.382 47.7372 42.5259 44.2212C42.6975 43.6781 42.4401 43.478 42.0112 43.3065C40.2667 42.6777 38.5222 41.9059 36.7492 41.4485C34.8903 40.9912 32.9742 40.8196 31.001 40.5052C31.0296 46.4794 31.0296 52.1964 31.0296 57.8847ZM29.0277 58.1706C29.0277 52.1964 29.0277 46.4794 29.0277 40.6767C25.024 40.8482 21.2777 41.7629 17.7602 43.5352C17.5886 43.621 17.4742 44.0783 17.56 44.2784C18.3894 46.9939 19.4761 49.6237 21.0489 51.9963C22.3358 53.94 23.8229 55.7123 25.882 56.8557C26.8257 57.3702 27.8838 57.6846 29.0277 58.1706ZM31.0296 19.3239C35.0333 19.1524 38.751 18.2377 42.2399 16.5226C42.4115 16.4369 42.5831 15.9224 42.4973 15.7223C41.4392 13.2354 40.4383 10.7199 39.18 8.31882C38.0361 6.14638 36.3488 4.34554 34.1753 3.1164C33.2316 2.60187 32.1735 2.28744 31.0296 1.83009C31.0296 7.80429 31.0296 13.4927 31.0296 19.3239ZM15.358 28.957C20.1624 28.957 24.5951 28.957 29.0563 28.957C29.0563 26.3558 29.0563 23.8403 29.0563 21.2105C24.7667 21.1248 20.763 20.01 16.6735 18.152C16.2159 21.8966 15.787 25.3839 15.358 28.957ZM31.0582 21.2391C31.0582 23.9261 31.0582 26.4415 31.0582 28.9856C35.548 28.9856 39.9807 28.9856 44.3848 28.9856C44.7279 27.0132 43.8128 19.6384 43.0407 18.2949C39.2658 20.0671 35.2907 21.0962 31.0582 21.2391ZM16.8737 41.7629C20.7916 39.9049 24.8239 38.9045 28.9991 38.733C28.9991 36.0746 28.9991 33.5305 28.9991 30.9865C24.4807 30.9865 20.0766 30.9865 15.5582 30.9865C15.5582 34.6454 16.0157 38.1613 16.8737 41.7629ZM31.0296 38.7616C35.3193 38.8473 39.323 39.9335 43.2123 41.7344C44.013 38.1041 44.5278 34.5882 44.4992 31.0151C39.9235 31.0151 35.4622 31.0151 31.0296 31.0151C31.0296 33.6163 31.0296 36.1318 31.0296 38.7616ZM37.6071 2.97347C38.9512 4.86007 40.4383 6.68949 41.6108 8.74759C42.7833 10.8057 43.584 13.0639 44.6422 15.4364C46.5582 13.8928 48.5029 12.3493 50.4761 10.7771C46.7012 6.861 42.4401 4.31696 37.6071 2.97347ZM22.6218 56.97C19.1615 53.4827 17.1596 49.2521 15.5868 44.4499C13.5277 46.0792 11.6117 47.6228 9.60982 49.2236C13.3561 53.1111 17.6172 55.6551 22.6218 56.97ZM22.6504 3.03064C17.6458 4.34554 13.3561 6.88958 9.60982 10.7771C11.6403 12.3778 13.5849 13.9214 15.6154 15.5508C17.1596 10.7199 19.1901 6.4894 22.6504 3.03064ZM44.6136 44.5642C43.5554 46.9368 42.7547 49.195 41.6108 51.2245C40.4669 53.254 38.9512 55.112 37.6071 56.9986C42.4687 55.6265 46.7298 53.0825 50.4761 49.195C48.4743 47.6228 46.5296 46.0792 44.6136 44.5642Z" fill="#DF2F2F"/>
</svg>
