<svg width="56" height="60" viewBox="0 0 56 60" fill="none" xmlns="http://www.w3.org/2000/svg">
<path d="M11.6895 45.1298C9.83591 46.3173 7.8646 46.6438 5.80503 46.1095C2.59798 45.2485 0.685522 43.0219 0.126495 39.786C-0.403109 36.7282 0.744367 34.2344 3.30412 32.4234C3.92199 31.9781 4.48102 31.5031 5.15774 31.1766C7.71749 29.8703 9.18861 27.7625 10.3361 25.1796C12.5134 20.3702 15.0437 15.739 17.2209 10.9296C18.5744 7.96079 21.2518 7.42642 23.6645 8.07954C26.3419 8.79205 28.578 10.2764 30.5493 12.1171C35.9631 17.1046 39.8174 23.0718 41.5239 30.3453C41.9947 32.4234 42.1418 34.5313 41.4062 36.6094C40.6412 38.8063 39.1113 39.8454 36.7869 39.9938C33.2268 40.2313 29.6372 40.5875 26.0771 40.8547C24.2823 41.0032 22.4581 41.1219 20.4868 41.2704C20.8693 41.8641 21.1636 42.3391 21.4872 42.7844C23.5762 45.9016 25.6946 49.0188 27.7542 52.1361C29.6961 55.0751 28.4309 58.4892 25.1062 59.4986C23.3114 60.033 21.193 59.172 19.9572 57.3908C17.3681 53.5908 14.8083 49.761 12.2486 45.961C12.1014 45.6641 11.8955 45.4266 11.6895 45.1298ZM18.8392 14.9968C19.0746 16.0952 19.2217 17.4015 19.6042 18.6484C21.4284 24.5265 24.6648 29.4547 29.1076 33.6406C30.7553 35.2141 32.5795 36.5203 34.7567 37.2922C37.1694 38.1532 39.1407 37.025 39.3761 34.4125C39.4938 32.8391 39.4349 31.1469 39.023 29.6328C37.3459 23.4281 33.8446 18.3218 29.2253 13.9874C27.4011 12.2952 25.4004 10.8405 22.9289 10.2467C20.9282 9.74205 19.3982 10.7217 19.0746 12.6514C18.898 13.364 18.898 14.0765 18.8392 14.9968ZM30.9612 38.0938C23.6939 32.7203 19.0157 25.7734 16.809 17.1046C16.7208 17.1937 16.6325 17.2827 16.6031 17.4015C14.6906 21.2906 12.7782 25.2093 10.9245 29.1281C10.8068 29.3953 10.9245 29.9 11.1011 30.1969C12.9547 32.9875 14.8377 35.7485 16.6913 38.5688C17.0738 39.1329 17.4563 39.2516 18.0742 39.1922C19.4571 39.0438 20.8399 38.9547 22.2228 38.836C25.0473 38.5688 27.9013 38.3313 30.9612 38.0938ZM9.0415 31.2656C7.45269 32.3641 5.8933 33.4031 4.36333 34.5016C2.21549 36.075 1.68589 39.0141 3.06874 41.3297C4.59871 43.8532 7.42327 44.8626 9.83591 43.5266C11.6013 42.5469 13.2489 41.3001 14.9848 40.1125C12.9841 37.1141 11.0422 34.2344 9.0415 31.2656ZM13.6608 43.7938C13.7785 44.0016 13.8374 44.1501 13.9256 44.2688C16.5442 48.1876 19.1628 52.0767 21.8109 55.9955C22.7524 57.3908 24.0764 57.6876 25.3121 56.8861C26.5479 56.0548 26.7244 54.6298 25.7829 53.2048C23.2526 49.4939 20.7222 45.7829 18.2507 42.0422C17.78 41.3297 17.2798 41.3297 16.7208 41.7157C15.7204 42.3688 14.72 43.0813 13.6608 43.7938Z" fill="#FE9321"/>
<path d="M43.5547 16.303C43.2605 16.0358 42.7309 15.7092 42.7015 15.3827C42.672 14.9374 42.9368 14.2545 43.2899 14.017C45.7614 12.2952 48.3211 10.6623 50.8515 8.97014C50.9397 8.91076 50.9986 8.85139 51.0869 8.8217C51.6753 8.55451 52.2638 8.55451 52.6462 9.17795C52.9993 9.74202 52.9405 10.3655 52.352 10.7514C49.704 12.5327 47.056 14.2842 44.408 16.0061C44.202 16.1249 43.9666 16.1546 43.5547 16.303Z" fill="#FE9321"/>
<path d="M45.8197 21.528C48.1735 21.9436 50.5273 22.3889 52.9105 22.8046C53.6166 22.9233 54.3228 23.0124 54.9995 23.1608C55.7056 23.3093 56.1175 23.7546 55.9704 24.4968C55.8233 25.239 55.2643 25.5655 54.4993 25.4468C51.5276 24.9124 48.556 24.3483 45.6137 23.814C44.8782 23.6655 44.378 23.2796 44.4957 22.5077C44.5839 21.7655 45.0841 21.4686 45.8197 21.528Z" fill="#FE9321"/>
<path d="M39.9345 1.66697C39.6697 4.33886 39.4343 7.04043 39.1401 9.71233C39.0518 10.4248 38.6693 10.9592 37.8749 10.9295C37.1688 10.8998 36.8157 10.3061 36.904 9.44514C37.1688 6.83262 37.4336 4.19042 37.6689 1.5779C37.7866 0.47946 38.1985 -0.0549185 38.9635 0.00445687C39.6991 0.0341445 39.9933 0.538835 39.9345 1.66697Z" fill="#FE9321"/>
<path d="M27.0182 18.8859C29.8722 19.0343 32.1966 20.7562 33.0793 23.4578C33.8737 25.9218 32.9616 28.8015 30.9314 30.2859C30.2253 30.7906 29.4897 30.7906 29.1367 30.2266C28.7247 29.5734 28.8719 28.9797 29.4603 28.5047C29.6074 28.3859 29.7545 28.2672 29.8722 28.1484C30.9609 27.0797 31.3139 25.7734 30.9314 24.289C30.5489 22.7749 29.5192 21.8249 28.0186 21.4687C27.0182 21.2312 26.0767 21.4093 25.1646 21.914C24.3114 22.389 23.6641 22.2703 23.311 21.6171C22.9874 20.964 23.2227 20.3109 24.076 19.8952C25.0469 19.4796 26.0473 19.2124 27.0182 18.8859Z" fill="#FE9321"/>
</svg>
