<svg width="60" height="60" viewBox="0 0 60 60" fill="none" xmlns="http://www.w3.org/2000/svg">
<path d="M29.9573 53.3284C27.7985 53.3284 25.662 53.3507 23.5033 53.3284C21.4113 53.3062 19.8757 51.9274 20.0315 49.8592C20.1873 48.0134 19.4751 47.0349 18.0285 45.9452C11.5967 41.0082 8.85936 34.3366 10.3505 26.3974C11.9751 17.8132 17.3386 12.3203 25.9291 10.4522C37.1012 8.02819 47.7169 15.2558 49.7421 26.5975C51.122 34.2699 47.8727 42.1201 41.1962 46.5456C40.2614 47.1683 39.8608 47.8132 40.0166 48.8584C40.0611 49.2143 40.0389 49.5923 40.0166 49.9704C39.9721 51.9274 38.5923 53.3062 36.6338 53.3284C34.4083 53.3507 32.1828 53.3284 29.9573 53.3284ZM26.1071 51.1046C26.1071 47.1238 26.1962 43.2988 26.0404 39.496C25.9959 38.6064 25.2614 37.6946 24.6828 36.894C24.4825 36.6272 23.8148 36.6939 23.3697 36.6049C21.4335 36.2491 20.2095 34.3811 20.6769 32.4685C21.122 30.6005 23.1917 29.533 25.0389 30.2002C26.8638 30.8451 27.754 32.9578 26.8638 34.7591C26.5522 35.404 26.6413 35.8266 26.9751 36.3603C27.7095 37.4945 28.4217 38.6064 28.3772 40.1186C28.2659 43.3655 28.3327 46.6346 28.3549 49.9037C28.3549 50.304 28.3994 50.682 28.4217 51.0823C29.5567 51.0823 30.5804 51.0823 31.6932 51.0823C31.6932 47.7243 31.76 44.4329 31.6709 41.1416C31.6264 39.407 31.8935 37.8503 32.984 36.4715C33.4291 35.9155 33.5181 35.404 33.162 34.6924C32.2941 32.9355 33.2065 30.8896 35.0092 30.2447C36.8341 29.5997 38.8371 30.5782 39.3712 32.4018C39.9276 34.2476 38.8371 36.3825 36.9232 36.516C35.4098 36.6272 34.9202 37.5167 34.3861 38.5174C34.1413 38.9845 33.9632 39.5627 33.9632 40.0742C33.9187 43.41 33.941 46.7458 33.941 50.0816C33.941 50.3929 33.9855 50.7265 34.0077 51.149C34.8757 51.149 35.6769 51.149 36.5003 51.149C37.4128 51.149 37.8356 50.6598 37.8356 49.748C37.8356 49.0141 37.9024 48.258 37.8134 47.5241C37.7021 46.4567 38.1249 45.8562 39.0597 45.3225C45.4914 41.5864 48.9187 34.1142 47.6056 26.8644C45.6917 16.2565 34.8979 9.82953 24.5493 13.0986C15.8697 15.8562 10.662 24.9518 12.665 33.7806C13.8223 38.851 16.6487 42.7206 21.0997 45.3447C21.9454 45.834 22.346 46.4122 22.257 47.3907C22.1902 48.1913 22.2347 49.0141 22.2347 49.8369C22.2347 50.6375 22.6353 51.1045 23.4365 51.1268C24.26 51.1268 25.1057 51.1046 26.1071 51.1046ZM23.7036 34.6034C23.8594 34.6034 24.0151 34.5812 24.1709 34.5812C24.4157 34.1364 24.9054 33.6472 24.8608 33.2246C24.8163 32.8466 24.2154 32.3129 23.7926 32.2684C23.1249 32.1794 22.6576 32.7354 22.8134 33.4248C22.9469 33.8473 23.4143 34.2031 23.7036 34.6034ZM37.346 33.5805C37.346 33.4248 37.3683 33.2691 37.3683 33.0912C36.9454 32.8021 36.5003 32.2684 36.0997 32.2684C35.7436 32.2906 35.1873 32.8466 35.076 33.2691C34.8979 33.9585 35.4766 34.4478 36.122 34.3588C36.5671 34.3366 36.9454 33.8696 37.346 33.5805Z" fill="#1265FF"/>
<path d="M30.0014 56.6642C27.8872 56.6642 25.7952 56.6642 23.681 56.6642C22.8798 56.6642 22.2344 56.4196 22.2344 55.53C22.2566 54.6182 22.9243 54.4403 23.7032 54.4403C27.8872 54.4625 32.0712 54.4625 36.2329 54.4403C37.0118 54.4403 37.7017 54.6182 37.724 55.5078C37.7462 56.4863 37.0341 56.6642 36.1884 56.6642C34.1409 56.6642 32.0712 56.6642 30.0014 56.6642Z" fill="#1265FF"/>
<path d="M29.9781 60C28.6205 60 27.2407 60 25.8831 60C25.0819 60 24.4588 59.7331 24.481 58.8436C24.5033 58.0208 25.1264 57.7761 25.8831 57.7761C28.665 57.7984 31.4247 57.7761 34.2066 57.7761C34.9855 57.7761 35.5641 58.0652 35.5641 58.8881C35.5641 59.7109 34.9855 60 34.2288 60C32.7822 60 31.3802 60 29.9781 60Z" fill="#1265FF"/>
<path d="M9.4591 8.27283C9.8597 8.51745 10.1935 8.65088 10.4383 8.89551C11.3953 9.8073 12.33 10.7636 13.2647 11.6976C13.7989 12.2313 14.0214 12.8318 13.4205 13.4322C12.8196 14.0326 12.2187 13.788 11.6846 13.2543C10.7054 12.298 9.70391 11.364 8.8137 10.3188C8.56889 10.0297 8.47987 9.42924 8.5689 9.05118C8.63566 8.78432 9.12528 8.56193 9.4591 8.27283Z" fill="#1265FF"/>
<path d="M47.3593 13.7657C46.4024 13.7435 45.8237 12.765 46.4246 12.0978C47.5151 10.8525 48.7169 9.69605 49.9632 8.60636C50.1857 8.40621 50.9202 8.56188 51.2095 8.78427C51.4543 8.98442 51.6101 9.74053 51.432 9.91844C50.2748 11.2083 49.0285 12.4092 47.8044 13.6323C47.6932 13.7657 47.4483 13.7435 47.3593 13.7657Z" fill="#1265FF"/>
<path d="M31.1128 3.26906C31.1128 4.00294 31.2463 4.7813 31.0683 5.4707C30.957 5.91547 30.3783 6.24905 30.0223 6.62711C29.6439 6.24905 28.9985 5.89323 28.954 5.49293C28.8205 4.02518 28.8872 2.55743 28.9095 1.06743C28.9318 0.378034 29.3769 -0.133456 30.0445 0.0222145C30.4674 0.111169 30.957 0.644898 31.0683 1.06743C31.224 1.75683 31.0905 2.53519 31.1128 3.26906Z" fill="#1265FF"/>
<path d="M3.18341 31.0897C2.51575 31.0897 1.8481 31.0897 1.20269 31.0897C0.468274 31.0675 -0.110361 30.6894 0.0231697 29.9778C0.11219 29.5553 0.713081 28.9771 1.13593 28.9326C2.56026 28.7992 4.00685 28.7992 5.43118 28.9326C5.85403 28.9771 6.47718 29.5553 6.54394 29.9778C6.69973 30.6894 6.12109 31.0897 5.38667 31.112C4.65225 31.112 3.91783 31.0897 3.18341 31.0897Z" fill="#1265FF"/>
<path d="M56.6857 28.8881C57.4201 28.8881 58.1546 28.8658 58.889 28.8881C59.5789 28.9103 60.113 29.3329 59.9572 29.9778C59.8459 30.4003 59.2673 31.0008 58.8445 31.023C57.4201 31.1564 55.9735 31.1564 54.5492 31.023C54.1264 30.9785 53.5032 30.4226 53.4142 30C53.2584 29.2884 53.837 28.8881 54.5715 28.8658C55.2836 28.8658 55.9958 28.8881 56.6857 28.8881Z" fill="#1265FF"/>
</svg>
