<svg width="55" height="60" viewBox="0 0 55 60" fill="none" xmlns="http://www.w3.org/2000/svg">
<g clip-path="url(#clip0_1119_278)">
<path d="M50.3747 27.8853C51.9412 29.8033 51.8923 30.9098 50.1299 32.6557C49.5669 33.2213 48.9795 33.8115 48.4165 34.3771C46.7031 36.0984 45.5772 36.1475 43.7659 34.5738C42.7133 34.9918 41.6364 35.3853 40.6083 35.8525C40.388 35.9508 40.2167 36.2951 40.1677 36.541C39.8985 38.4098 39.0173 39.1967 37.1326 39.1967C35.9087 39.1967 34.7093 39.1967 33.4855 39.1967C32.0413 39.1721 30.9399 38.1639 30.8664 36.7131C30.842 36.1475 30.6706 35.9262 30.1321 35.7541C29.153 35.4344 28.2474 34.9918 27.2438 34.5492C27.097 34.6967 26.8767 34.8689 26.6809 35.041C25.6283 35.9016 24.1842 35.9016 23.2051 34.9426C22.2016 33.9836 21.198 32.9754 20.2434 31.9672C19.2643 30.9344 19.2398 29.5082 20.1944 28.4262C20.5861 28.0082 20.6595 27.6885 20.3658 27.2213C20.1455 26.8771 19.9986 26.5082 19.8762 26.1148C19.5091 25.082 19.2888 24.0738 17.7712 24.0738C16.7676 24.0738 16.0089 22.7459 15.9844 21.541C15.9109 20.2623 15.9109 18.9836 15.9599 17.7049C16.0089 16.1066 16.9879 15.0738 18.5545 15C19.044 14.9754 19.2888 14.8279 19.3867 14.3361C19.4601 13.9672 19.607 13.623 19.7783 13.2787C20.2679 12.1967 20.8308 11.2869 19.7783 10.0574C19.0685 9.24591 19.4356 8.06558 20.2189 7.22951C21.1735 6.19673 22.1771 5.21312 23.1806 4.2541C24.2087 3.2705 25.6283 3.24591 26.7053 4.22951C27.1704 4.64755 27.4886 4.69673 27.9781 4.35246C28.2719 4.13115 28.639 4.0082 28.9817 3.88525C30.0342 3.54099 30.9399 3.24591 31.0623 1.7705C31.1357 0.66394 32.2372 5.92321e-06 33.3631 -0.0245842C34.7583 -0.0491744 36.1535 -0.0737646 37.5487 -0.0245842C38.9684 5.92321e-06 39.9719 0.983613 40.0698 2.45902C40.1188 3.09837 40.3636 3.31968 40.902 3.46722C41.2692 3.56558 41.6119 3.68853 41.9546 3.86066C42.9336 4.40165 43.7903 4.7705 44.8918 3.81148C45.6996 3.09837 46.8745 3.39345 47.7067 4.15574C48.7592 5.13935 49.7627 6.14755 50.7418 7.20492C51.7454 8.28689 51.7209 9.68853 50.6929 10.8197C50.3747 11.1885 50.3012 11.4344 50.5705 11.8525C50.8153 12.2213 50.9866 12.6148 51.109 13.0328C51.4517 14.0902 51.6964 15.0246 53.1895 15.0984C54.2176 15.1475 54.8785 16.1312 54.9274 17.2377C55.0008 18.7623 55.0008 20.2869 54.9274 21.8361C54.8785 23.1393 53.8994 24.0738 52.5776 24.1475C51.9412 24.1721 51.6964 24.3934 51.5006 25.0082C51.2314 26.0164 50.7908 26.9262 50.3747 27.8853ZM30.842 33.6148C30.842 32.1148 30.793 30.8607 30.8664 29.6312C30.9154 28.8197 30.6461 28.3771 29.9363 27.959C23.352 24.0492 23.1562 14.4836 29.5692 10.3771C30.4014 9.83607 31.307 9.44263 32.2616 9.95902C33.2162 10.4754 33.2897 11.4344 33.2897 12.3934C33.2652 14.459 33.2652 16.5246 33.2897 18.5656C33.3141 19.7213 34.2443 20.7541 35.3457 20.8771C36.3004 21 37.3529 20.1885 37.6221 19.0574C37.72 18.6885 37.7445 18.3197 37.7445 17.9508C37.7445 15.9836 37.6955 14.0164 37.72 12.0492C37.7445 9.95902 39.1397 9.12296 40.9755 10.082C44.2064 11.7541 46.5318 16.2049 46.0912 19.7951C45.6506 23.5328 43.8638 26.3361 40.6083 28.2049C40.4125 28.3279 40.1677 28.5984 40.1433 28.7951C40.0943 30.3197 40.1188 31.8443 40.1188 33.5902C41.1713 33.0738 42.1014 32.6557 42.9826 32.1639C43.7659 31.7213 44.3778 31.7705 44.9652 32.4344C45.259 32.7787 45.6261 33.0492 45.7975 33.2213C46.9234 32.0902 47.9514 31.0328 49.1019 29.8771C48.955 29.7787 48.6858 29.6066 48.4655 29.4098C47.4129 28.3771 47.4619 28.2541 48.0983 26.9262C48.6858 25.6967 49.2243 24.4426 49.6159 23.1393C49.8851 22.3033 50.2768 21.9098 51.109 21.959C51.3293 21.959 51.5496 21.9344 51.7699 21.959C52.4063 22.0328 52.6755 21.8115 52.651 21.123C52.6021 20.3853 52.651 19.623 52.651 18.8853C52.651 17.1394 52.8469 17.2869 51.1335 17.3115C50.4236 17.3115 49.9586 17.0902 49.6893 16.4016C49.1019 14.8771 48.4899 13.3525 47.8046 11.8525C47.5109 11.2131 47.6088 10.7213 48.0738 10.2541C48.441 9.88525 48.7837 9.49181 49.0284 9.24591C47.927 8.11476 46.9234 7.05738 45.6751 5.7541C45.3814 6.14755 45.1366 6.71312 44.7205 6.98361C44.3533 7.22951 43.7169 7.37705 43.3008 7.22951C41.7343 6.66394 40.2412 5.92624 38.6746 5.33607C38.0627 5.09017 37.769 4.69673 37.7445 4.08197C37.72 3.73771 37.72 3.39345 37.7445 3.04919C37.7935 2.55738 37.5732 2.38525 37.1081 2.38525C36.2269 2.40984 35.3702 2.38525 34.489 2.38525C33.1673 2.38525 33.1428 2.38525 33.1673 3.68853C33.1673 4.57378 32.8736 5.11476 31.9679 5.43443C30.5482 5.92624 29.153 6.54099 27.7823 7.18033C27.097 7.50001 26.5095 7.50001 26.02 6.90984C25.7018 6.54099 25.4325 6.09837 25.0409 5.5082C24.0618 6.56558 23.352 7.35246 22.6177 8.11476C21.5162 9.24591 21.6141 9.0246 22.6177 10.0328C23.1806 10.5984 23.4009 11.1148 23.0338 11.9262C22.3729 13.3279 21.8099 14.7787 21.2714 16.2295C21.0022 16.9672 20.5861 17.3853 19.7783 17.3115C19.4601 17.2869 19.1419 17.2623 18.8482 17.3361C18.6524 17.3853 18.3342 17.6312 18.3342 17.8033C18.2852 19.1557 18.3097 20.5328 18.3097 21.9836C18.7992 21.9836 19.1664 21.9836 19.5336 21.9836C20.8064 21.9836 20.9287 22.1803 21.3449 23.3853C21.8099 24.7377 22.3974 26.041 23.0093 27.3197C23.3275 28.0082 23.352 28.5492 22.789 29.0902C22.5442 29.3361 22.2505 29.5574 22.0792 29.8279C21.9568 30.0246 21.9078 30.418 22.0057 30.541C22.9114 31.5738 23.8415 32.5574 24.7961 33.5902C25.2367 33.1721 25.4815 32.9508 25.7263 32.7049C26.7298 31.7213 26.9256 31.6967 28.1495 32.3607C29.0062 32.7541 29.8384 33.123 30.842 33.6148ZM30.8909 12.3197C30.5238 12.5656 30.279 12.7131 30.0832 12.8853C25.5549 16.6967 26.5095 23.9508 31.919 26.3607C32.8736 26.7787 33.2162 27.3443 33.2162 28.3525C33.1673 30.8853 33.2162 33.418 33.1918 35.9508C33.1918 36.7377 33.4365 37.0082 34.2198 36.959C35.1255 36.9098 36.0311 36.9098 36.9123 36.959C37.6221 37.0082 37.8179 36.7131 37.7935 36.0246C37.769 33.4426 37.7935 30.8361 37.769 28.2541C37.769 27.3689 38.0872 26.8279 38.9194 26.459C42.6644 24.8115 44.5247 20.9754 43.5211 16.9918C43.0316 15.0492 41.9301 13.4754 40.0453 12.3197C40.0453 14.6066 40.1188 16.7459 40.0209 18.8361C39.9474 20.6557 38.9684 21.9836 37.3529 22.8197C35.8108 23.6066 34.3422 23.3853 32.9715 22.4016C31.5028 21.3689 30.9154 19.8689 30.9154 18.123C30.8909 16.2541 30.8909 14.3607 30.8909 12.3197Z" fill="#40C110"/>
<path d="M10.9173 43.7706C10.9173 46.6231 10.9173 49.7214 10.9173 52.8444C10.9907 52.8936 11.0397 52.9427 11.0886 52.9427C14.6868 52.7214 17.9422 54.1968 21.3201 55.0083C24.3063 55.7214 27.2435 56.5575 30.2052 57.3936C32.041 57.91 33.7055 57.5411 35.272 56.5329C36.1287 55.9673 36.9609 55.3772 37.7931 54.7624C38.6498 54.1722 39.3107 54.1722 39.7513 54.7624C40.2164 55.4018 40.045 56.0411 39.1883 56.6313C37.8421 57.5165 36.5203 58.4509 35.1007 59.2132C33.3873 60.1477 31.527 60.1723 29.6667 59.6559C24.4042 58.2296 19.1416 56.8034 13.879 55.4263C12.9734 55.2296 11.9943 55.328 11.0152 55.328C10.8194 55.328 10.5991 55.6231 10.4767 55.8444C9.84031 56.8526 9.00809 57.4182 7.78423 57.4182C6.16874 57.4182 4.55326 57.4427 2.93777 57.3936C1.27333 57.3444 0.049474 56.1641 0.0249969 54.4919C-0.0239573 50.3116 -0.0239573 46.1313 0.0249969 41.9263C0.049474 40.2296 1.32228 39.0001 3.0112 38.9755C4.62669 38.9509 6.24218 38.9755 7.85766 38.9755C8.78779 38.9755 9.5221 39.3936 10.134 40.0821C10.4033 40.4018 10.6236 40.9919 10.9173 41.0411C11.6761 41.1395 12.4594 41.0903 13.2181 40.9182C14.8336 40.5247 16.4002 39.9345 18.0401 39.5903C20.9284 39.0001 23.4985 39.8854 25.8728 41.4837C26.24 41.7296 26.6316 41.9509 26.9008 42.2706C27.9778 43.5493 29.3485 43.8936 30.964 43.746C32.1634 43.6231 33.3873 43.7706 34.6111 43.7214C36.0797 43.6723 37.377 44.0165 38.4785 45.0493C41.5626 43.4509 44.5978 41.8526 47.6819 40.3034C50.3988 38.9263 53.2626 40.1559 53.9235 43.0083C54.3152 44.7296 53.7032 46.1804 52.3815 47.2378C51.0597 48.3198 49.6156 49.2542 48.2204 50.2378C47.6084 50.6804 46.9965 50.705 46.4825 50.0903C46.0174 49.5493 46.1888 48.8608 46.8986 48.3198C48.0735 47.4591 49.2729 46.6231 50.4478 45.7624C50.8149 45.4919 51.1821 45.1477 51.4024 44.7788C51.794 44.1149 51.794 43.4018 51.3045 42.7624C50.8149 42.1722 50.1541 41.8772 49.3953 42.1477C48.8078 42.3444 48.2693 42.6395 47.7063 42.91C45.2586 44.1641 42.8109 45.4427 40.3387 46.6723C39.8247 46.9182 39.6289 47.1886 39.6289 47.8034C39.7023 50.4591 37.8666 52.328 35.272 52.328C31.9676 52.3526 28.6877 52.328 25.3833 52.328C24.3797 52.328 23.9391 51.9591 23.9636 51.1477C23.9881 50.2378 24.5755 50.0411 25.3588 50.0411C28.4918 50.0411 31.6494 50.0411 34.7825 50.0411C35.1496 50.0411 35.5168 49.9919 35.8839 49.8936C36.8875 49.5985 37.426 48.7624 37.3036 47.7788C37.1812 46.7952 36.4469 46.1067 35.4189 46.0821C33.5831 46.0575 31.7473 46.0083 29.9115 46.0821C28.3939 46.1559 27.1946 45.6641 26.0686 44.6067C24.0125 42.6395 21.6138 41.4591 18.6521 41.8034C18.0157 41.8772 17.3792 42.0247 16.7428 42.1722C14.8092 42.6886 12.9244 43.2296 10.9173 43.7706ZM8.49407 48.1722C8.49407 46.2296 8.46959 44.3116 8.49407 42.369C8.49407 41.6067 8.20034 41.2624 7.44155 41.287C6.09531 41.287 4.77355 41.3116 3.42731 41.287C2.64404 41.287 2.30137 41.6067 2.30137 42.4182C2.32584 46.2788 2.30137 50.1641 2.30137 54.0247C2.30137 54.787 2.61957 55.1804 3.40283 55.1559C4.70012 55.1313 6.02188 55.1313 7.31917 55.1559C8.15139 55.1804 8.49407 54.8362 8.46959 54.0001C8.46959 52.0329 8.49407 50.0903 8.49407 48.1722Z" fill="#40C110"/>
<path d="M43.13 51.2458C43.7908 51.3442 44.2069 51.7131 44.2804 52.4016C44.3293 53.0163 43.7174 53.6065 43.1055 53.6065C42.4936 53.6065 41.9306 52.9918 41.9795 52.3524C42.004 51.7377 42.5425 51.2458 43.13 51.2458Z" fill="#40C110"/>
</g>
<defs>
<clipPath id="clip0_1119_278">
<rect width="55" height="60" fill="white"/>
</clipPath>
</defs>
</svg>
