<svg width="60" height="60" viewBox="0 0 60 60" fill="none" xmlns="http://www.w3.org/2000/svg">
<g clip-path="url(#clip0_1119_500)">
<path d="M9.9696 7.54183C9.9696 7.1465 9.9696 6.90321 9.9696 6.65993C10.0304 5.50433 10.4255 5.07858 11.5502 5.07858C12.4316 5.07858 13.3131 5.04817 14.1641 5.07858C14.8328 5.10899 15.1368 4.89612 15.3495 4.2575C16.8997 -0.030391 22.0669 -1.39887 25.3799 1.70301C26.2918 2.55451 26.8693 3.80134 27.7204 5.07858C28.4498 5.07858 29.4529 5.07858 30.4863 5.07858C32.1884 5.07858 32.4012 5.26104 32.4316 6.93362C32.4316 7.08568 32.462 7.23773 32.462 7.54183C33.7082 7.54183 34.924 7.54183 36.1702 7.54183C38.997 7.57224 41.3678 9.30565 42.1581 12.0122C42.3708 12.742 42.462 13.5327 42.462 14.3234C42.4924 18.9154 42.462 23.5074 42.462 28.0994C42.462 28.3426 42.4924 28.6163 42.4316 28.8596C42.31 29.5287 41.9453 30.0152 41.1854 30.0456C40.4559 30.0456 40.0608 29.5895 39.9392 28.89C39.8784 28.5859 39.9088 28.2818 39.9088 27.9473C39.9088 23.3857 39.848 18.8241 39.9392 14.2626C40 11.7385 38.3283 9.91386 35.6231 10.0051C34.5897 10.0355 33.5866 10.0051 32.4012 10.0051C32.4012 10.5525 32.4316 11.0086 32.4012 11.4648C32.31 13.4111 30.8207 14.9924 28.8754 15.0228C23.7386 15.0532 18.6322 15.0836 13.4954 15.0228C11.4894 14.9924 10.0304 13.3502 9.90881 11.1911C9.87842 10.8566 9.90881 10.5221 9.90881 9.91386C8.20669 10.0355 6.53495 9.97468 4.95441 10.3092C3.31307 10.6437 2.40122 12.2555 2.40122 14.2322C2.40122 20.0406 2.40122 25.849 2.40122 31.6878C2.40122 36.3406 2.40122 40.9934 2.40122 45.6462C2.40122 48.5961 3.92097 50.0862 6.83891 50.0862C12.1884 50.0862 17.538 50.0862 22.8571 50.0862C23.1611 50.0862 23.4954 50.0862 23.7994 50.1166C24.4985 50.1774 24.8632 50.5728 24.8936 51.2722C24.924 51.9716 24.5289 52.3974 23.8906 52.519C23.617 52.5798 23.3435 52.5494 23.0395 52.5494C17.538 52.5494 12.0365 52.5494 6.53495 52.5494C2.67477 52.5494 0 49.8733 0 45.9808C0 35.3675 0 24.7238 0 14.1105C0 10.1876 2.67477 7.54183 6.59574 7.54183C7.68997 7.54183 8.78419 7.54183 9.9696 7.54183ZM12.5228 7.51142C12.5228 8.75826 12.5228 9.85303 12.5228 10.9782C12.5228 12.073 12.9483 12.4988 14.0426 12.5292C14.9848 12.5596 15.9271 12.5292 16.8389 12.5292C20.6079 12.5292 24.4073 12.5292 28.1763 12.5292C29.3313 12.5292 29.9088 12.1642 29.9696 11.3127C30.0304 10.0659 29.9696 8.81908 29.9696 7.51142C28.9058 7.51142 27.9027 7.51142 26.8997 7.51142C25.3495 7.51142 25.076 7.26814 24.8936 5.7172C24.6505 3.71011 22.6444 2.21999 20.6687 2.58492C18.7538 2.94984 17.8116 4.01421 17.4468 6.17336C17.2644 7.23773 16.9605 7.51142 15.9271 7.51142C14.8632 7.54183 13.769 7.51142 12.5228 7.51142Z" fill="#764582"/>
<path d="M60.0005 35.7019C59.9701 37.0095 59.423 37.9523 58.6023 38.7734C53.6175 43.7607 48.6023 48.748 43.6175 53.7353C42.5233 54.8301 41.3987 55.8641 40.3957 56.9893C39.6054 57.8712 38.6631 58.3273 37.5081 58.5402C35.1069 58.966 32.7361 59.4525 30.3653 59.9087C28.9671 60.1824 28.2984 59.5438 28.572 58.1753C29.1191 55.4383 29.6358 52.671 30.2133 49.934C30.3045 49.4779 30.6388 49.0217 30.9732 48.6872C37.265 42.3618 43.5568 36.0668 49.8485 29.7718C51.6115 28.008 53.7999 28.008 55.5628 29.7718C56.6571 30.8362 57.7209 31.931 58.8151 33.0258C59.575 33.8164 59.9701 34.7592 60.0005 35.7019ZM31.3075 57.2021C33.4656 56.7764 35.4413 56.3811 37.4169 55.9553C37.7817 55.8641 38.1768 55.6512 38.4504 55.4079C44.5902 49.2954 50.73 43.1525 56.8698 37.0095C57.7209 36.1276 57.7513 35.5498 56.9002 34.6983C55.8972 33.6644 54.8941 32.6608 53.8607 31.6573C53.04 30.8362 52.4321 30.8362 51.6115 31.6573C45.4413 37.8306 39.3014 43.9736 33.1312 50.1469C32.8881 50.3902 32.6753 50.7551 32.6145 51.0896C32.1586 53.0359 31.7634 55.0126 31.3075 57.2021Z" fill="#764582"/>
<path d="M21.2159 22.5342C17.2038 22.5342 13.1612 22.5342 9.14905 22.5342C8.48036 22.5342 7.90285 22.4126 7.5989 21.7131C7.29495 20.9833 7.72048 20.223 8.48036 20.071C8.78431 20.0102 9.08826 20.0406 9.42261 20.0406C17.2949 20.0406 25.1673 20.0406 33.0092 20.0406C33.2524 20.0406 33.4956 20.0406 33.7691 20.0406C34.529 20.071 34.9545 20.5271 34.9545 21.2266C34.9849 21.9564 34.529 22.4734 33.7387 22.5038C32.8573 22.5342 32.0062 22.5038 31.1247 22.5038C27.8421 22.5342 24.529 22.5342 21.2159 22.5342Z" fill="#764582"/>
<path d="M21.2759 27.5823C25.1664 27.5823 29.0874 27.5823 32.978 27.5823C33.2515 27.5823 33.5251 27.5823 33.8291 27.6127C34.5889 27.6431 34.9841 28.1601 34.9841 28.8291C34.9841 29.4677 34.5889 29.9239 33.8898 30.0455C33.6771 30.0759 33.4643 30.0759 33.2212 30.0759C25.2272 30.0759 17.2333 30.0759 9.23939 30.0759C8.99623 30.0759 8.72267 30.1064 8.47951 30.0455C7.84121 29.8935 7.41568 29.4677 7.47647 28.7683C7.50687 28.0993 7.902 27.6735 8.60109 27.6127C8.90504 27.5823 9.23939 27.5823 9.54334 27.5823C13.4643 27.5823 17.3853 27.5823 21.2759 27.5823Z" fill="#764582"/>
<path d="M21.2773 35.0633C25.2591 35.0633 29.2712 35.0633 33.253 35.0633C33.6177 35.0633 34.0736 35.0329 34.3168 35.2457C34.6208 35.5194 34.9855 36.0364 34.9247 36.3709C34.8335 36.7967 34.3472 37.1616 33.9825 37.4961C33.8305 37.6178 33.4961 37.5569 33.253 37.5569C25.2591 37.5569 17.2651 37.5569 9.27121 37.5569C9.11924 37.5569 8.96726 37.5569 8.81529 37.5569C8.02501 37.4961 7.44751 36.9791 7.5083 36.2493C7.56909 35.489 8.02501 35.0937 8.81529 35.0937C10.5782 35.0937 12.3107 35.0937 14.0736 35.0937C16.4749 35.0633 18.8761 35.0633 21.2773 35.0633Z" fill="#764582"/>
</g>
<defs>
<clipPath id="clip0_1119_500">
<rect width="60" height="60" fill="white"/>
</clipPath>
</defs>
</svg>
