<svg width="62" height="53" viewBox="0 0 62 53" fill="none" xmlns="http://www.w3.org/2000/svg">
<path d="M10.9466 12.1248C10.9466 13.0572 11.0032 13.9613 10.9184 14.8372C10.8901 15.2327 10.6076 15.7696 10.2968 15.9391C10.0425 16.0804 9.42091 15.9108 9.16663 15.6848C6.56724 13.4527 3.9961 11.1924 1.42496 8.93205C0.803372 8.36697 0.831626 7.77363 1.45322 7.2368C3.9961 5.00471 6.53898 2.74437 9.13837 0.54054C9.42091 0.286252 10.0425 0.116727 10.3533 0.257998C10.6641 0.399269 10.8901 0.964354 10.9466 1.35991C11.0314 2.20754 10.9749 3.08342 10.9749 4.10057C12.9809 4.10057 14.9305 4.01581 16.88 4.12883C18.0667 4.21359 19.3664 4.41137 20.4118 4.91995C23.322 6.30441 24.8195 8.73427 24.9607 11.9835C25.0173 13.1419 24.9607 14.3004 24.9607 15.6283C28.9446 12.2378 32.8719 12.1813 36.9688 15.6283C36.9688 14.5264 36.9688 13.5092 36.9688 12.4921C36.9688 7.46283 40.3593 4.07232 45.4168 4.07232C47.2251 4.07232 49.0051 4.07232 50.9547 4.07232C50.9547 3.16818 50.8981 2.32056 50.9829 1.47293C51.0394 1.02086 51.2372 0.371015 51.548 0.257998C51.9435 0.116727 52.5934 0.34276 52.9324 0.625303C55.4471 2.77263 57.9052 4.9482 60.3916 7.12378C61.1827 7.83013 61.1827 8.33871 60.3916 9.01681C57.9052 11.2206 55.3906 13.4245 52.8759 15.5718C52.5651 15.8543 51.887 16.0239 51.5762 15.8826C51.2654 15.7131 51.0677 15.0915 51.0112 14.6677C50.9264 13.8483 50.9829 13.0289 50.9829 12.0965C49.4854 12.0965 48.0727 12.0118 46.66 12.1248C45.5863 12.2095 44.993 13.0854 44.993 14.3569C44.993 18.3125 44.993 22.2963 44.993 26.2519C44.993 26.4779 44.993 26.7322 44.993 26.9583C44.9648 27.6081 44.654 28.0602 43.9759 28.0602C43.3543 28.0602 43.0435 27.6364 43.0152 27.0148C43.0152 26.8452 43.0152 26.6757 43.0152 26.5062C43.0152 22.4658 43.0152 18.4537 43.0152 14.4134C43.0152 11.7575 44.654 10.1187 47.3099 10.0905C48.6661 10.0905 50.0505 10.0905 51.4067 10.0905C52.7629 10.0905 52.989 10.3448 53.0172 11.7292C53.0172 12.04 53.0172 12.3226 53.0172 12.8594C54.9102 11.1924 56.662 9.66666 58.4985 8.08442C56.6903 6.50219 54.9668 4.97646 53.0172 3.2812C53.0172 3.93105 53.0172 4.35486 53.0172 4.80693C53.0455 5.68281 52.6217 6.07837 51.7458 6.07837C49.655 6.07837 47.5359 6.07837 45.4451 6.07837C41.5177 6.07837 39.0314 8.56475 39.0314 12.4921C39.0314 14.6959 39.0314 16.8997 39.0314 19.0753C39.0314 22.4658 39.1726 23.0874 37.1666 26.3367C40.4158 27.8624 42.8739 30.2358 44.4844 33.4002C45.5298 32.4396 46.547 31.5354 47.6207 30.5748C46.4905 28.0037 46.8013 25.6021 49.3442 23.8503C51.0677 22.6636 53.2998 22.8049 55.0233 24.0763C56.9445 25.5173 57.3684 27.4668 56.3512 30.6878C58.103 31.7615 59.4874 33.2024 60.2786 35.152C61.0697 37.1015 61.2109 39.1076 60.8154 41.1136C60.3633 43.374 58.4138 44.9562 56.1252 44.9845C53.3563 45.0127 50.5873 45.0127 47.8467 44.9845C47.2533 44.9845 46.66 44.8149 46.0102 44.7019C46.0102 45.9169 45.9537 47.16 46.0102 48.375C46.2079 52.0763 43.7216 53.6585 40.3028 52.7261C37.3644 51.9068 34.4259 51.1439 31.4592 50.3528C31.1767 50.268 30.8094 50.2963 30.5268 50.381C27.3624 51.2004 24.1979 52.1045 21.0052 52.8391C18.0102 53.5455 16.0607 51.8785 16.0607 48.7988C16.0607 47.4426 16.0607 46.0581 16.0607 44.9845C12.5289 44.9845 9.05361 45.0975 5.57834 44.9562C3.03546 44.8432 1.19893 42.6111 1.05766 40.0682C0.85988 36.0561 2.18783 32.8351 5.69136 30.6878C4.75897 27.156 5.21103 25.2348 7.3301 23.8503C9.16663 22.6354 11.427 22.7484 13.1787 24.1328C15.0153 25.5738 15.4391 27.7494 14.4219 30.5465C15.4391 31.4789 16.4562 32.3831 17.5581 33.372C19.1969 30.264 21.5985 27.8341 24.65 26.4497C24.0849 24.8392 23.3785 23.3417 23.1242 21.7877C22.8699 20.262 23.0677 18.6798 23.0395 17.0975C23.0112 15.035 23.1242 12.9442 22.8699 10.9098C22.4744 7.99966 20.0445 6.07837 17.0778 6.02186C14.987 5.99361 12.8679 6.02186 10.7771 6.02186C9.27964 6.02186 9.08186 5.82408 9.05361 4.29835C9.05361 4.04407 9.05361 3.76152 9.05361 3.25295C8.03646 4.12883 7.16058 4.89169 6.28469 5.65456C5.40881 6.41742 4.53293 7.18029 3.60054 7.99966C5.40881 9.5819 7.13232 11.1076 9.05361 12.8029C9.05361 12.1248 9.05361 11.6445 9.05361 11.1641C9.05361 10.4578 9.39266 10.0057 10.1273 10.0057C11.879 9.97746 13.6591 9.92095 15.4108 10.034C17.4169 10.147 18.9991 11.8705 18.9991 13.9048C19.0274 18.5102 18.9991 23.0874 19.0274 27.6929C19.0274 28.4275 18.8013 28.9926 17.982 28.9643C17.1626 28.9361 17.0213 28.3145 17.0213 27.6081C17.0213 23.257 17.0213 18.8775 17.0213 14.5264C17.0213 12.6899 16.3432 12.0118 14.4784 12.0118C13.433 12.0118 12.4159 12.0118 11.3705 12.0118C11.2292 12.0683 11.1727 12.0965 10.9466 12.1248ZM23.9153 43.374C24.0849 43.4022 24.1414 43.4305 24.1979 43.4305C28.6338 42.3003 33.0697 41.1984 37.4774 40.0682C37.6752 40.0117 37.8164 39.7292 38.0142 39.6162C38.3533 39.4184 38.7771 39.0793 39.0879 39.1358C39.3987 39.2206 39.6247 39.7009 39.8507 40.04C40.0485 40.3225 40.0768 40.7181 40.3028 40.9441C41.5742 42.1025 42.1393 43.4305 41.7155 45.1257C41.2917 46.8492 40.105 47.7816 38.438 48.2337C37.3361 48.5162 36.2624 48.827 35.1888 49.1096C35.1888 49.1943 35.1888 49.2791 35.1888 49.3639C37.3926 49.929 39.5682 50.5788 41.8003 51.0026C43.1565 51.2569 43.8911 50.494 43.8911 49.0248C43.9193 45.8603 44.0324 42.6959 43.8628 39.5314C43.5803 34.1348 40.8396 30.2923 35.9234 28.0884C35.5843 27.9189 35.0193 27.9754 34.652 28.1449C32.1373 29.3599 29.6792 29.3599 27.1646 28.1449C26.7973 27.9754 26.2322 27.9189 25.8931 28.0884C20.9204 30.3488 18.208 34.2196 17.9537 39.6444C17.8124 42.7241 17.8972 45.8321 17.9254 48.9401C17.9254 50.6636 18.8013 51.3417 20.5248 50.9744C21.4572 50.7766 22.3896 50.494 23.322 50.2397C28.323 48.9118 33.2957 47.5556 38.2968 46.1994C39.4834 45.8886 40.1333 44.7584 39.879 43.6848C39.5964 42.4981 38.5228 41.8482 37.2796 42.159C33.9456 42.9784 30.6116 43.8543 27.2493 44.7019C25.6106 45.1257 24.0001 45.6061 22.3331 45.9451C21.9658 46.0299 21.4007 45.7473 21.0899 45.4648C20.9204 45.2953 21.0334 44.5041 21.2029 44.4476C22.1071 44.0238 21.9093 43.2892 21.9093 42.5829C21.9093 41.9048 21.9375 41.2549 21.9093 40.5768C21.881 39.8139 21.9941 39.0793 22.9264 39.0793C23.8023 39.0793 23.9153 39.7857 23.8871 40.5203C23.9153 41.4809 23.9153 42.4416 23.9153 43.374ZM51.8023 43.0349C53.1585 43.0349 54.5429 43.0632 55.8991 43.0349C57.3684 43.0067 58.5268 42.1873 58.7811 40.7463C59.3179 37.6101 58.555 34.5304 55.5036 32.6091C54.995 32.2983 54.5994 32.2418 54.0626 32.5526C52.8194 33.2024 51.435 33.372 50.22 32.7221C49.0334 32.1005 48.2422 32.4961 47.5076 33.2307C46.8295 33.9088 46.2645 34.6717 45.7276 35.491C45.5298 35.8018 45.5016 36.3104 45.5298 36.706C45.6146 38.1187 45.8406 39.5314 45.8971 40.9441C45.9536 42.5829 46.3492 43.0067 48.0162 43.0349C49.2594 43.0632 50.5308 43.0349 51.8023 43.0349ZM9.84473 43.0349C10.4381 43.0349 11.0314 43.0632 11.653 43.0349C12.6702 43.0067 13.7156 43.0067 14.7327 42.8937C15.6086 42.7806 16.0042 42.3003 15.9759 41.3114C15.9194 40.0117 15.8911 38.6838 16.2019 37.4406C16.5975 35.9431 16.0324 34.926 15.1283 33.9653C14.648 33.4567 14.0829 33.0612 13.546 32.6091C13.094 32.2418 12.6702 32.2135 12.1051 32.5243C10.7206 33.2307 9.25139 33.2872 7.89519 32.5526C7.18883 32.1853 6.73676 32.3266 6.17168 32.6939C3.57229 34.4456 2.78117 36.9885 2.95069 39.9552C3.03546 41.7917 4.25039 42.9784 6.08691 43.0067C7.3301 43.0632 8.60154 43.0349 9.84473 43.0349ZM36.9123 21.1096C36.9405 17.8321 34.2846 15.0915 31.0354 15.0632C27.7297 15.0067 24.9607 17.6909 24.9325 20.9966C24.9042 24.2741 27.5601 26.9865 30.8376 27.043C34.1434 27.0995 36.884 24.4436 36.9123 21.1096ZM54.9102 28.0037C54.882 26.3932 53.4975 25.037 51.887 25.037C50.2765 25.0652 48.9203 26.4214 48.9203 28.0319C48.9203 29.6989 50.3331 31.0834 52.0001 31.0269C53.5823 30.9986 54.9102 29.6424 54.9102 28.0037ZM9.92949 25.0652C8.319 25.0652 6.93454 26.4214 6.93454 28.0319C6.93454 29.6424 8.26249 31.0269 9.87298 31.0551C11.5117 31.0834 12.9244 29.6707 12.9244 28.0319C12.9244 26.3932 11.5682 25.0652 9.92949 25.0652Z" fill="#05AAAC"/>
</svg>
