<svg width="40" height="36" viewBox="0 0 40 36" fill="none" xmlns="http://www.w3.org/2000/svg">
<g id="Frame" clip-path="url(#clip0_1096_222)">
<g id="Group">
<path id="Vector" d="M27.0519 23.5217C26.3478 29.5331 21.7368 32.9487 17.3075 34.0189C14.4454 34.702 11.6062 34.5198 8.81229 33.7456C8.42614 33.6318 8.199 33.7001 7.92643 33.9506C6.42728 35.2713 4.65556 35.9088 2.70212 36.0227C2.36141 36.0454 1.90712 35.8405 1.70269 35.59C1.43012 35.2485 1.7254 34.8842 1.92983 34.5426C2.38412 33.7912 2.86112 32.9942 3.08827 32.1745C3.33812 31.2181 3.15641 30.3528 2.45226 29.4648C-1.61361 24.3642 -0.500604 17.647 4.99627 13.7532C7.31314 12.1138 9.90258 11.2485 12.7192 11.0208C12.81 11.0208 12.8782 10.998 12.9917 10.9752C13.2416 8.6982 14.0366 6.64887 15.513 4.89555C17.9207 2.02648 21.0326 0.500859 24.7351 0.113762C28.8236 -0.318876 32.4807 0.774103 35.6834 3.30162C38.5 5.53312 40.09 8.42496 39.9991 12.091C39.931 14.4591 39.1814 16.6223 37.6368 18.3984C36.6601 19.5141 36.7055 20.6527 37.1144 21.8823C37.3188 22.4971 37.7958 23.0208 38.0911 23.59C38.2501 23.8861 38.4091 24.3187 38.3182 24.5919C38.2501 24.8196 37.7731 25.0018 37.4551 25.0018C35.3654 25.0246 33.5709 24.2276 31.9809 22.9297C31.8447 22.8158 31.6175 22.702 31.4585 22.7248C30.0502 22.9525 28.6419 23.2257 27.2336 23.4762C27.1882 23.4762 27.1201 23.499 27.0519 23.5217ZM4.0877 34.1783C4.29213 34.1327 4.4057 34.1327 4.49656 34.11C5.60956 33.7229 6.60899 33.1308 7.42671 32.2656C7.722 31.9468 8.01728 31.8557 8.47157 31.9468C9.81172 32.2656 11.1746 32.6299 12.5374 32.7665C16.0809 33.1536 19.2609 32.1745 21.9866 29.8974C25.8708 26.6413 26.6203 21.2675 23.6902 17.2826C21.0553 13.7305 17.3529 12.3415 13.0599 12.5009C10.1979 12.6147 7.563 13.5711 5.31427 15.4155C3.15641 17.2371 1.74812 19.4458 1.58912 22.3149C1.45283 24.9107 2.42955 27.0967 4.0877 29.0322C4.33756 29.3282 4.51927 29.7381 4.61013 30.1251C4.92813 31.5141 4.67827 32.8121 4.0877 34.1783ZM14.6045 10.9069C15.5357 11.0663 16.4216 11.1802 17.2847 11.3851C18.1706 11.6128 19.011 11.9771 19.8742 12.2504C20.1922 12.3642 20.5556 12.4781 20.8963 12.4781C24.7578 12.5009 28.5965 12.4781 32.4579 12.4781C32.6397 12.4781 32.8441 12.4553 33.0258 12.5009C33.4574 12.5919 33.7527 12.8196 33.7527 13.2978C33.7527 13.776 33.4347 14.0037 33.0031 14.0948C32.8214 14.1403 32.6397 14.1176 32.4352 14.1176C29.5051 14.1176 26.5522 14.1176 23.6221 14.1176C23.3949 14.1176 23.1905 14.1403 22.8498 14.1403C25.2575 16.2352 26.6658 18.7627 27.0065 21.8823C28.4829 21.8139 29.8912 21.5862 31.2541 21.1081C31.8219 20.9031 32.2535 20.9487 32.7078 21.4269C33.5709 22.3377 34.6158 22.9297 35.8424 23.2257C35.6607 22.5198 35.4108 21.8367 35.32 21.1536C35.1609 19.8785 35.2518 18.6944 36.2285 17.6242C37.5005 16.258 38.182 14.5502 38.3637 12.6602C38.659 9.44962 37.387 6.87657 35.0474 4.80446C32.3217 2.41357 29.0735 1.3889 25.4846 1.59384C21.714 1.82154 18.5567 3.32439 16.2626 6.44393C15.2859 7.76462 14.6953 9.24469 14.6045 10.9069Z" fill="#33475B"/>
<path id="Vector_2" d="M13.5374 25.0245C15.5817 25.0245 17.6033 25.0245 19.6476 25.0245C19.8974 25.0245 20.1927 25.0245 20.3517 25.1611C20.5561 25.3205 20.7151 25.6165 20.7151 25.867C20.7151 26.0719 20.5107 26.3452 20.329 26.5046C20.17 26.6184 19.8974 26.6412 19.6703 26.6412C15.559 26.6412 11.425 26.6412 7.31367 26.6412C7.2001 26.6412 7.10924 26.664 6.99567 26.6412C6.56409 26.5501 6.24609 26.3224 6.24609 25.867C6.24609 25.366 6.56409 25.1156 7.01838 25.0473C7.33638 25.0017 7.6771 25.0245 8.01781 25.0245C9.88039 25.0245 11.6975 25.0245 13.5374 25.0245Z" fill="#33475B"/>
<path id="Vector_3" d="M15.1042 20.3794C16.6714 20.3794 18.216 20.3794 19.7833 20.3794C20.4647 20.3794 20.76 20.6071 20.7373 21.1536C20.7146 21.7456 20.3285 21.905 19.806 21.905C16.6487 21.905 13.4914 21.905 10.3114 21.905C9.69814 21.905 9.38014 21.6545 9.35742 21.1764C9.35742 20.6754 9.67542 20.4022 10.3341 20.4022C11.9469 20.3794 13.5369 20.3794 15.1042 20.3794Z" fill="#33475B"/>
<path id="Vector_4" d="M6.24609 21.1308C6.31424 20.6982 6.49595 20.3794 6.99567 20.3794C7.47267 20.3794 7.79067 20.6754 7.79067 21.1308C7.79067 21.5862 7.44995 21.905 6.99567 21.8822C6.51867 21.8822 6.33695 21.5635 6.24609 21.1308Z" fill="#33475B"/>
<path id="Vector_5" d="M28.0736 9.35856C26.4836 9.35856 24.9163 9.35856 23.3263 9.35856C22.8039 9.35856 22.4177 9.22194 22.3723 8.62991C22.3496 8.08342 22.6449 7.85571 23.3263 7.85571C26.4836 7.85571 29.6409 7.85571 32.8209 7.85571C33.4342 7.85571 33.7522 8.12896 33.7522 8.60714C33.7522 9.08531 33.4342 9.35856 32.8209 9.35856C31.2309 9.35856 29.6409 9.35856 28.0736 9.35856Z" fill="#33475B"/>
<path id="Vector_6" d="M19.9886 7.83301C20.4883 7.85578 20.7609 8.10625 20.7609 8.6072C20.7609 9.08538 20.511 9.33585 20.034 9.33585C19.5343 9.33585 19.2617 9.08538 19.2617 8.58443C19.2617 8.10625 19.5343 7.87855 19.9886 7.83301Z" fill="#33475B"/>
</g>
</g>
<defs>
<clipPath id="clip0_1096_222">
<rect width="40" height="36" fill="white"/>
</clipPath>
</defs>
</svg>
