<svg width="31" height="40" viewBox="0 0 31 40" fill="none" xmlns="http://www.w3.org/2000/svg">
<g id="Frame" clip-path="url(#clip0_1096_236)">
<g id="Group">
<path id="Vector" d="M25.7216 24.478C26.8975 27.2705 28.0234 29.9874 29.1493 32.6793C29.5997 33.7359 30.025 34.7925 30.4754 35.8491C30.7006 36.3774 30.7256 36.8805 30.3253 37.3334C29.9249 37.7862 29.4245 37.8868 28.8241 37.6856C28.4237 37.5346 27.9734 37.4591 27.548 37.3585C26.3971 37.0566 26.3971 37.0566 25.7216 38.0629C25.4714 38.4403 25.2212 38.7925 24.996 39.1698C24.6957 39.673 24.2954 40.0503 23.6699 40C23.0194 39.9497 22.6941 39.4969 22.4689 38.9183C21.1429 35.7484 19.8168 32.5786 18.4657 29.434C18.3906 29.2327 18.2906 29.0315 18.1655 28.7799C17.7902 29.3082 17.4399 29.7862 17.0896 30.239C16.0387 31.5472 14.9128 31.5472 13.887 30.239C13.5117 29.7862 13.1864 29.283 12.7861 28.7547C11.6352 31.4466 10.5343 34.0629 9.43342 36.6541C9.08314 37.4843 8.73286 38.3145 8.38257 39.1447C7.88217 40.2264 6.78128 40.3019 6.10574 39.3208C5.70541 38.717 5.28007 38.1384 4.90477 37.4843C4.67959 37.1069 4.42939 37.0315 4.02906 37.1572C3.40356 37.3334 2.75303 37.4591 2.12753 37.6856C1.55206 37.8868 1.07668 37.8113 0.676359 37.3837C0.251016 36.9308 0.276036 36.4025 0.501218 35.8491C1.77725 32.8554 3.02826 29.8365 4.27926 26.8428C4.57951 26.0881 4.90477 25.3585 5.25505 24.5032C4.65457 24.4277 4.12914 24.3774 3.5787 24.2767C2.02745 24 1.50202 23.0692 2.07749 21.5849C2.32769 20.9057 2.62793 20.2516 2.92817 19.5723C3.12834 19.1195 3.02826 18.7673 2.62793 18.4654C2.05247 18.0378 1.477 17.6352 0.926561 17.2076C-0.374489 16.1761 -0.399509 15.0944 0.8515 14.0126C1.32688 13.6101 1.87733 13.2579 2.37773 12.8554C3.12834 12.2767 3.15336 12.2013 2.77805 11.2956C2.57789 10.7925 2.32769 10.2893 2.10251 9.78619C1.37692 8.02518 2.05247 6.94342 3.954 6.81763C4.50445 6.76732 5.05489 6.717 5.60533 6.66669C6.23084 6.61637 6.53108 6.26417 6.58112 5.63524C6.65618 4.88052 6.70622 4.12581 6.85634 3.39625C7.13156 2.03776 8.00727 1.55977 9.30832 2.03776C9.9088 2.23902 10.4843 2.5409 11.0597 2.79247C12.0605 3.22015 12.1856 3.16983 12.8612 2.28933C13.2615 1.76103 13.6118 1.18241 14.0622 0.704424C14.9629 -0.301865 15.9136 -0.301865 16.8144 0.704424C17.3398 1.28304 17.7902 1.96229 18.2405 2.59122C18.5658 3.04405 18.9661 3.14468 19.4415 2.91826C19.9919 2.66669 20.5424 2.38996 21.1178 2.16354C22.8943 1.40883 23.9701 2.08807 24.1203 4.02518C24.1453 4.50317 24.2203 4.98115 24.2704 5.4843C24.3705 6.38996 24.5206 6.56606 25.4463 6.66669C26.1719 6.74216 26.8975 6.79247 27.5981 6.94342C28.8491 7.22015 29.2994 8.02518 28.8991 9.25788C28.6739 9.96229 28.3737 10.6667 28.0484 11.3208C27.7482 11.9497 27.8483 12.4025 28.4237 12.7799C29.0242 13.1824 29.6247 13.6101 30.1501 14.0881C31.201 15.0189 31.176 16.0503 30.1251 16.956C29.5997 17.4088 29.0242 17.8113 28.4237 18.2139C27.8733 18.5912 27.6731 19.0189 27.9984 19.673C28.2986 20.2516 28.5488 20.8805 28.799 21.4843C29.3745 22.9686 28.8491 23.8994 27.2978 24.1761C26.8725 24.3774 26.3471 24.4025 25.7216 24.478ZM15.5133 30.0126C15.7135 29.8365 15.9136 29.7359 16.0387 29.5598C16.4641 29.0315 16.8394 28.4528 17.2647 27.9245C18.0904 26.8679 18.841 26.6415 20.092 27.1447C20.7425 27.3962 21.368 27.7233 22.0186 27.9749C22.594 28.2013 22.8192 28.0755 22.9193 27.4466C23.0194 26.717 23.0694 25.9874 23.1945 25.283C23.3697 24.0503 23.845 23.5472 25.071 23.3459C25.8216 23.2201 26.5973 23.1698 27.3479 23.044C27.7982 22.9686 28.0735 22.7673 27.8232 22.239C27.523 21.6101 27.2728 20.956 26.9976 20.3019C26.4722 18.9937 26.6723 18.2139 27.7982 17.3585C28.2736 17.0063 28.774 16.6793 29.2244 16.3019C29.95 15.7233 29.9249 15.522 29.1994 14.9434C28.724 14.5661 28.1986 14.239 27.7232 13.8617C26.6723 13.0566 26.4722 12.3019 26.9475 11.0692C27.2228 10.39 27.498 9.73587 27.7982 9.05662C28.0484 8.50317 27.7982 8.27675 27.2978 8.20128C26.5973 8.10065 25.8967 8.02518 25.1961 7.94971C23.9701 7.82392 23.3446 7.2453 23.1695 6.0126C23.0694 5.28304 22.9944 4.57864 22.9193 3.84908C22.8442 3.19499 22.6691 3.0692 22.0686 3.29562C21.4181 3.54719 20.7926 3.84908 20.1421 4.10065C18.866 4.60379 18.1655 4.40254 17.3148 3.34593C16.8644 2.81763 16.5141 2.26417 16.0888 1.73587C15.6134 1.1321 15.3632 1.1321 14.9128 1.73587C14.4375 2.31449 14.0371 2.94342 13.5617 3.54719C12.9613 4.27675 12.2107 4.60379 11.2849 4.22644C10.4843 3.92455 9.68362 3.59751 8.908 3.27046C8.35755 3.04405 8.15739 3.29562 8.10735 3.77361C8.00727 4.50317 7.95723 5.20757 7.85715 5.93713C7.68201 7.27046 7.08152 7.82392 5.75545 7.97486C5.12995 8.05034 4.47943 8.12581 3.85392 8.20128C3.05328 8.32706 2.95319 8.45285 3.25344 9.23273C3.47862 9.8365 3.77886 10.39 4.00404 10.9937C4.52947 12.3019 4.3293 13.0315 3.22842 13.8868C2.67797 14.3145 2.12753 14.6918 1.57709 15.0944C1.1017 15.4466 1.12672 15.8239 1.57709 16.151C2.12753 16.5786 2.72801 16.9812 3.27846 17.4088C4.30428 18.2139 4.50445 18.9686 4.02906 20.2013C3.75384 20.8805 3.47862 21.5598 3.17838 22.2139C2.92817 22.7422 3.17838 22.9686 3.65376 23.044C4.15416 23.1195 4.65457 23.195 5.15497 23.2201C7.03148 23.3208 7.60695 23.8239 7.88217 25.6856C7.95723 26.2642 8.00727 26.8176 8.08233 27.3962C8.18241 28.1258 8.35755 28.2264 9.0331 27.9749C9.6586 27.7233 10.2841 27.4214 10.9096 27.1698C12.1606 26.6667 12.9112 26.8931 13.7369 27.9749C14.1372 28.5032 14.5125 29.0566 14.9128 29.5598C15.088 29.6856 15.2881 29.8365 15.5133 30.0126ZM19.3164 28.1258C20.8426 31.7484 22.2938 35.1698 23.795 38.717C24.3204 37.912 24.7708 37.2327 25.2212 36.5786C25.7466 35.7988 26.1219 35.6478 27.0726 35.8994C27.7982 36.1006 28.5488 36.2767 29.3995 36.5032C27.7732 32.5786 26.1719 28.7799 24.5956 24.9812C24.3705 25.6856 24.2704 26.3648 24.2203 27.044C24.0952 29.0315 23.0194 29.7107 21.2179 28.956C20.6174 28.7296 20.067 28.478 19.3164 28.1258ZM6.5561 25.0063C6.50606 25.0063 6.45602 25.0063 6.40598 24.9812C4.80469 28.7799 3.22842 32.5786 1.62713 36.4277C1.75223 36.4529 1.77725 36.4528 1.80227 36.4528C2.47781 36.2767 3.15336 36.1006 3.8289 35.9245C4.90477 35.6478 5.25505 35.7736 5.85554 36.7044C6.28088 37.3334 6.6812 37.9623 7.1816 38.717C8.68282 35.1698 10.134 31.7484 11.6602 28.1761C11.335 28.3019 11.1348 28.3774 10.9597 28.4528C10.3592 28.7044 9.75868 29.0063 9.13318 29.1824C8.00727 29.5095 7.23165 29.0818 6.9314 27.9245C6.83132 27.5723 6.8063 27.195 6.75626 26.8176C6.70622 26.2139 6.63116 25.6101 6.5561 25.0063Z" fill="#33475B"/>
<path id="Vector_2" d="M15.4892 24.8553C10.4351 24.8553 6.33177 20.7295 6.30675 15.6478C6.28173 10.566 10.4601 6.36475 15.5142 6.36475C20.5683 6.36475 24.7466 10.5912 24.6966 15.6478C24.6465 20.7547 20.5432 24.8553 15.4892 24.8553ZM23.4456 15.6226C23.4456 11.1698 19.9177 7.64777 15.4892 7.64777C11.0856 7.64777 7.58278 11.1698 7.55776 15.5723C7.53274 20 11.0856 23.5975 15.4641 23.5975C19.8927 23.5975 23.4456 20.0503 23.4456 15.6226Z" fill="#33475B"/>
<path id="Vector_3" d="M15.5125 19.0691C14.887 19.5219 14.2865 19.9747 13.686 20.4024C13.2356 20.7295 12.7603 20.8301 12.2849 20.503C11.8095 20.1508 11.7594 19.6729 11.9346 19.1446C12.1347 18.6163 12.2849 18.0628 12.485 17.5093C12.6352 17.132 12.5851 16.8804 12.2098 16.6288C11.6844 16.3018 11.209 15.8993 10.7086 15.5471C10.2833 15.2452 10.1331 14.8175 10.2833 14.3395C10.4334 13.8364 10.8087 13.61 11.3341 13.61C11.9846 13.61 12.6602 13.6351 13.3107 13.5848C13.5109 13.5597 13.7861 13.3584 13.8611 13.1823C14.1113 12.6037 14.2865 11.9747 14.4616 11.371C14.6117 10.8427 14.962 10.5156 15.5125 10.5156C16.0629 10.5156 16.4382 10.8427 16.5883 11.3961C16.7635 11.9747 16.9386 12.5785 17.1888 13.132C17.2639 13.3332 17.5641 13.5345 17.7643 13.5597C18.3898 13.61 19.0403 13.5848 19.6658 13.5848C20.1912 13.5848 20.5665 13.7861 20.7417 14.2892C20.9168 14.8175 20.7417 15.2452 20.2913 15.5722C19.7659 15.9496 19.2655 16.3269 18.7401 16.7043C18.4649 16.9056 18.3898 17.0817 18.5149 17.4339C18.7401 18.0376 18.8902 18.6414 19.1154 19.2452C19.2905 19.7483 19.1904 20.176 18.7901 20.503C18.3648 20.8301 17.8894 20.8049 17.439 20.503C16.8135 20.0251 16.188 19.5722 15.5125 19.0691ZM17.7643 19.1697C17.5641 18.5156 17.414 18.0628 17.2639 17.5848C16.9636 16.6791 17.0637 16.4024 17.8143 15.849C18.2147 15.5471 18.615 15.2452 19.1404 14.8427C18.4148 14.8427 17.8894 14.8175 17.364 14.8427C16.6634 14.8678 16.2631 14.5408 16.0379 13.8867C15.8628 13.3836 15.7126 12.8552 15.4875 12.1508C15.2623 12.8552 15.0871 13.3584 14.937 13.8615C14.7368 14.5156 14.3365 14.8427 13.636 14.8175C13.1105 14.7924 12.5601 14.8175 11.8345 14.8175C12.41 15.2452 12.8353 15.5722 13.2607 15.8741C13.9362 16.3773 14.0363 16.7043 13.7861 17.5345C13.636 18.0376 13.4608 18.5156 13.2607 19.1949C13.8611 18.7672 14.3115 18.4402 14.7368 18.1131C15.2623 17.7106 15.7627 17.7106 16.2881 18.1131C16.7385 18.415 17.1888 18.742 17.7643 19.1697Z" fill="#33475B"/>
</g>
</g>
<defs>
<clipPath id="clip0_1096_236">
<rect width="31" height="40" fill="white"/>
</clipPath>
</defs>
</svg>
