<svg width="36" height="40" viewBox="0 0 36 40" fill="none" xmlns="http://www.w3.org/2000/svg">
<g id="Frame" clip-path="url(#clip0_1096_108)">
<g id="Group">
<path id="Vector" d="M3.75694 22.255C2.85337 22.1815 1.85469 22.0834 0.832233 21.9854C0.285337 21.9609 0 21.6668 0 21.0785C0 19.4854 0 17.8677 0 16.2746C0 15.7109 0.214003 15.3923 0.808455 15.3432C1.64069 15.2942 2.44914 15.1717 3.28137 15.1226C3.70938 15.0981 3.92338 14.9511 4.08983 14.4854C4.4465 13.407 4.89828 12.353 5.37384 11.3481C5.56407 10.956 5.51651 10.7354 5.25495 10.4168C4.68428 9.73049 4.16116 9.04421 3.59049 8.35794C3.2576 7.94127 3.28137 7.59814 3.66182 7.20598C4.80317 6.05402 5.92074 4.87755 7.06209 3.72559C7.41876 3.35794 7.75165 3.35794 8.1321 3.67657C8.84544 4.28931 9.55879 4.92657 10.2959 5.49029C10.4386 5.61284 10.7239 5.63735 10.9141 5.56382C12.0317 5.09814 13.1255 4.58343 14.2431 4.14225C14.5284 4.0197 14.6473 3.89716 14.6711 3.57853C14.7424 2.62265 14.8375 1.66676 14.9089 0.71088C14.9564 0.245194 15.1704 -0.0244141 15.646 -0.0244141C17.2153 9.57437e-05 18.7847 9.57437e-05 20.3778 9.57437e-05C21.0198 9.57437e-05 21.1387 0.441272 21.1863 0.955978C21.2576 1.81382 21.3765 2.69617 21.4003 3.55402C21.424 3.94617 21.5905 4.04421 21.9234 4.16676C23.0172 4.60794 24.0872 5.07363 25.1334 5.58833C25.4188 5.73539 25.609 5.68637 25.823 5.49029C26.4888 4.90206 27.2021 4.31382 27.8679 3.72559C28.2959 3.33343 28.6764 3.35794 29.0806 3.77461C30.1744 4.92657 31.2682 6.05402 32.3857 7.18147C32.7662 7.57363 32.8137 7.94127 32.4571 8.38245C31.7913 9.19127 31.1493 10.0246 30.5548 10.7354C31.0779 12.1079 31.5535 13.4315 32.0766 14.7305C32.148 14.9021 32.4571 15.0491 32.6949 15.0736C33.5746 15.1962 34.4544 15.2697 35.3342 15.3432C35.8098 15.3923 36.0238 15.6128 36.0238 16.103C36.0238 17.7942 36.0238 19.4854 36.0238 21.1766C36.0238 21.7648 35.7147 21.9364 35.2391 21.9854C34.3355 22.0834 33.432 22.1325 32.5284 22.255C32.362 22.2795 32.1242 22.4266 32.0766 22.5981C31.5535 23.8726 31.0779 25.1717 30.5548 26.5442C31.1017 27.2305 31.7437 28.0393 32.3857 28.8236C32.8613 29.4119 32.8375 29.6325 32.3144 30.1226C31.5297 30.8579 30.7213 31.5932 29.9128 32.3285C29.4135 32.7697 29.1044 32.7207 28.7001 32.1815C27.4161 30.3677 26.1559 28.5295 24.8719 26.7158C24.539 26.2501 24.6103 25.907 24.967 25.5148C26.7503 23.554 27.6539 21.2011 27.6539 18.505C27.6539 14.1177 24.6103 10.0981 20.4967 8.99519C15.0515 7.59814 9.67768 10.9315 8.48877 16.5442C7.79921 19.8285 8.58388 22.8187 10.7715 25.3432C11.3897 26.054 11.4135 26.1521 10.8904 26.9364C9.74901 28.6521 8.58388 30.3677 7.44254 32.0589C6.9432 32.7942 6.70542 32.8187 6.03963 32.2305C5.25495 31.5197 4.49406 30.8334 3.70938 30.1226C3.23382 29.6815 3.21004 29.4119 3.61427 28.8972C4.18494 28.1619 4.77939 27.4756 5.35007 26.7158C5.46896 26.5687 5.49273 26.2501 5.4214 26.0785C4.89828 24.853 4.35139 23.603 3.75694 22.255ZM26.0845 26.2501C26.7503 27.206 27.4161 28.1619 28.0819 29.1177C28.5099 29.7305 28.9617 30.3677 29.4373 31.0295C30.0317 30.4903 30.6024 29.9756 31.1731 29.4364C30.531 28.6275 29.9366 27.8677 29.3184 27.1325C28.9617 26.7158 28.9617 26.3481 29.247 25.907C30.0317 24.6324 30.6024 23.2599 30.9115 21.7893C31.0066 21.3236 31.2682 21.0295 31.7675 21.005C32.6235 20.956 33.5033 20.8579 34.3593 20.7599C34.502 20.7354 34.7398 20.5393 34.7398 20.4413C34.7635 19.1913 34.7635 17.9413 34.7635 16.6423C33.8362 16.5687 32.9564 16.4707 32.0766 16.3972C31.5297 16.3481 31.0542 16.2501 30.9115 15.5638C30.6262 14.0687 30.0317 12.7207 29.247 11.4462C28.9617 10.9805 28.9855 10.6128 29.3421 10.2207C29.9842 9.46088 30.5786 8.70108 31.1731 7.96578C30.2219 6.98539 29.3184 6.02951 28.391 5.07363C27.6539 5.71088 26.8692 6.34814 26.1321 7.0099C25.7754 7.32853 25.4663 7.35304 25.0383 7.08343C23.7781 6.2501 22.3989 5.63735 20.9485 5.29421C20.4491 5.14716 20.2114 4.90206 20.2114 4.38735C20.2114 3.94617 20.14 3.505 20.1162 3.08833C19.9736 1.32363 19.9736 1.32363 18.2378 1.32363C17.6909 1.32363 17.144 1.32363 16.5971 1.32363C16.4544 1.32363 16.288 1.37264 16.1453 1.39715C16.0502 2.42657 15.9551 3.38245 15.8838 4.36284C15.8362 4.87755 15.5984 5.09814 15.1466 5.2697C13.7913 5.80892 12.4597 6.34814 11.1519 7.0099C10.6288 7.27951 10.2721 7.255 9.84412 6.86284C9.13078 6.22559 8.39366 5.61284 7.75165 5.07363C6.80053 6.05402 5.87318 6.98539 4.92206 7.94127C5.51651 8.67657 6.11096 9.43637 6.72919 10.1717C7.08587 10.5883 7.06209 10.956 6.82431 11.4707C6.22986 12.6717 5.68296 13.8972 5.25495 15.1717C4.87451 16.2746 4.89828 16.3236 3.78071 16.3972C2.97226 16.4462 2.1638 16.5687 1.35535 16.6423C1.35535 18.0638 1.35535 19.3874 1.35535 20.7109C2.30647 20.8089 3.23382 20.956 4.16116 20.9805C4.80317 21.005 4.9934 21.3236 5.2074 21.8874C5.70674 23.2354 6.25363 24.5834 6.84808 25.8825C7.08587 26.3972 7.10964 26.7403 6.72919 27.1815C6.11096 27.9168 5.51651 28.6766 4.89828 29.4609C5.49273 30.0001 6.06341 30.5148 6.63408 31.0295C7.72787 29.4119 8.79789 27.8432 9.84412 26.2746C5.35007 20.8824 6.65786 13.7256 10.9141 10.0246C15.0753 6.39715 21.4716 6.56872 25.4188 10.3923C29.5561 14.4119 30.1982 21.3726 26.0845 26.2501Z" fill="#33475B"/>
<path id="Vector_2" d="M17.5479 37.5981C17.5716 38.0148 17.643 38.603 17.6667 39.2158C17.6905 39.804 17.3338 40.0736 16.7632 39.9266C13.1727 39.0442 11.9362 34.2893 14.5518 31.3972C14.6707 31.2746 14.7658 31.1275 14.9085 31.054C15.7883 30.6128 15.8121 29.853 15.7883 28.9707C15.7407 26.3481 15.7645 23.7256 15.7883 21.103C15.7883 20.6864 15.6694 20.4658 15.2889 20.2452C13.458 19.2403 12.6733 17.5736 12.7447 15.4903C12.7922 13.3089 13.7671 11.6668 15.7883 10.8089C16.7156 10.3923 17.1198 10.7109 17.0485 11.7648C17.001 12.4021 16.9534 13.0638 16.8821 13.7011C16.8345 14.0687 16.9296 14.2648 17.2863 14.2893C17.5478 14.2893 17.8094 14.2893 18.071 14.2893C18.4276 14.2893 18.5465 14.0687 18.5228 13.7256C18.4514 13.0148 18.4039 12.3285 18.3563 11.6177C18.3087 10.8579 18.6179 10.5638 19.3074 10.7599C21.1146 11.2501 22.2797 12.4021 22.7077 14.2648C23.1833 16.2746 22.7077 18.1374 21.1621 19.4609C20.3299 20.1717 20.1634 20.8825 20.1872 21.8874C20.2348 24.4364 20.211 27.0099 20.1872 29.5834C20.1872 30.0001 20.3061 30.2207 20.6866 30.4413C22.6364 31.5442 23.3973 33.3334 23.207 35.5638C23.0406 37.5981 22.0181 39.0687 20.1872 39.853C19.2599 40.2452 18.9032 40.0001 18.9745 38.9462C19.0221 38.3334 19.0459 37.7452 19.1172 37.157C19.2123 36.5197 18.8794 36.3481 18.3801 36.3236C17.6192 36.2746 17.5241 36.3972 17.5479 37.5981ZM16.3352 38.3579C16.2876 37.6717 16.2638 37.0589 16.1925 36.4707C16.1449 35.9805 16.3352 35.6864 16.7394 35.4658C17.6667 34.9266 18.6179 34.853 19.5928 35.2942C20.4012 35.6619 20.5439 35.9315 20.425 36.8383C20.3774 37.2795 20.3537 37.7452 20.3299 38.3334C21.6377 37.3285 22.1132 36.0785 21.9943 34.6325C21.8755 33.1374 21.1621 31.9854 19.7592 31.4217C19.141 31.1766 18.9508 30.8334 18.9508 30.1717C18.9745 26.9119 18.9745 23.6275 18.9508 20.3677C18.9508 19.755 19.0934 19.3874 19.6403 19.0687C21.4712 17.9658 22.137 15.5638 21.1621 13.7011C20.853 13.0883 20.4012 12.6226 19.6879 12.304C19.7354 12.9903 19.7592 13.5785 19.8305 14.1423C19.8781 14.5834 19.7592 14.9021 19.3788 15.1472C18.285 15.8089 17.1674 15.8334 16.0498 15.1717C15.6694 14.9511 15.5029 14.657 15.5743 14.1913C15.6456 13.603 15.6694 13.0393 15.7169 12.3775C15.5505 12.4756 15.4792 12.5001 15.4078 12.5491C13.1727 14.4119 13.6958 18.2109 16.3827 19.3138C16.8821 19.5099 17.0961 19.804 17.0961 20.3923C17.0723 23.7746 17.0723 27.1324 17.0961 30.5148C17.0961 30.956 16.9772 31.2501 16.5967 31.4707C14.9323 32.4756 14.2427 33.9217 14.5518 35.8824C14.6945 36.9364 15.2652 37.7942 16.3352 38.3579Z" fill="#33475B"/>
</g>
</g>
<defs>
<clipPath id="clip0_1096_108">
<rect width="36" height="40" fill="white"/>
</clipPath>
</defs>
</svg>
