<svg width="36" height="40" viewBox="0 0 36 40" fill="none" xmlns="http://www.w3.org/2000/svg">
<g id="Frame" clip-path="url(#clip0_1096_549)">
<g id="Group">
<path id="Vector" d="M6.9632 28.4061C8.17421 28.164 9.33018 27.8412 10.5137 27.7336C12.1375 27.5453 13.6788 27.9488 15.11 28.702C16.1283 29.24 17.2017 29.4821 18.3577 29.4821C19.8439 29.4821 21.3302 29.5359 22.8164 29.6166C24.3027 29.6973 25.4036 30.5043 26.2017 31.7685C26.7247 31.5264 27.2476 31.3112 27.743 31.0691C29.0091 30.4774 30.2751 29.8856 31.5412 29.3207C33.11 28.6213 34.8715 29.1324 35.7522 30.4505C36.0825 30.9615 36.0274 31.3112 35.5045 31.6609C31.5962 34.1357 27.743 36.6643 23.7522 39.0315C21.743 40.2151 19.4586 40.1882 17.2017 39.5426C14.8072 38.8701 12.3852 38.2514 9.99073 37.552C8.72467 37.1754 7.76137 37.7941 6.77054 38.359C6.66045 38.4128 6.63293 38.6818 6.60541 38.8432C6.52284 39.3543 6.27513 39.5964 5.69715 39.5964C4.01825 39.5426 2.33935 39.5157 0.660452 39.4619C0.027424 39.435 -0.110191 39.0584 -0.0826677 38.5204C0.027424 35.2655 0.109993 31.9837 0.220085 28.7289C0.220085 28.3254 0.220085 27.895 0.247608 27.4915C0.247608 27.0073 0.495314 26.7383 0.990727 26.7383C2.72467 26.7652 4.43109 26.819 6.16504 26.8728C6.66045 26.8997 6.93568 27.1687 6.90816 27.7067C6.9632 27.9757 6.9632 28.2447 6.9632 28.4061ZM6.7155 36.745C6.79807 36.7719 6.82559 36.7988 6.82559 36.7988C6.90816 36.7719 6.99073 36.745 7.0733 36.7181C8.28431 35.9918 9.52284 36.0187 10.8715 36.4222C13.4036 37.1754 15.9632 37.9017 18.5228 38.4935C20.2568 38.897 21.9907 38.6818 23.5595 37.7134C26.532 35.8573 29.477 33.9743 32.4494 32.0913C33.0825 31.6878 33.7155 31.2843 34.376 30.8539C33.6054 30.2622 32.8348 30.2084 32.0366 30.5581C30.9907 31.0422 29.9173 31.5264 28.8715 32.0106C28.1283 32.3603 27.3852 32.71 26.6696 33.0328C26.8348 34.3509 26.7247 34.4854 25.4586 34.4585C24.6605 34.4585 23.8898 34.4585 23.0916 34.4316C21.5504 34.4047 19.9816 34.3509 18.4403 34.2971C18.1375 34.2702 17.7247 34.1626 17.5595 33.9474C17.2017 33.517 17.6146 32.9521 18.3027 32.979C20.2293 33.0328 22.1283 33.0866 24.0549 33.1404C24.4403 33.1404 24.8531 33.1404 25.266 33.1404C25.266 33.0597 25.2935 33.0059 25.2935 32.9521C25.2935 32.8714 25.266 32.7907 25.2109 32.71C24.7155 31.5264 23.7797 30.9347 22.4861 30.8809C21.6054 30.8271 20.7522 30.8539 19.8715 30.8271C17.8072 30.8002 15.8256 30.5581 13.899 29.6166C11.7522 28.5406 9.52284 28.8096 7.43109 29.9394C7.23843 30.047 6.99073 30.2891 6.99073 30.4505C6.82559 32.5486 6.77054 34.6737 6.7155 36.745ZM5.61458 28.164C4.23843 28.164 2.97238 28.164 1.65128 28.164C1.56871 31.4995 1.45862 34.8082 1.37605 38.1707C2.72467 38.1707 4.01825 38.1707 5.36687 38.1707C5.42192 34.862 5.53201 31.5802 5.61458 28.164Z" fill="#33475B"/>
<path id="Vector_2" d="M8.72474 18.1843C8.72474 12.9119 13.0734 8.71558 18.4679 8.71558C23.8348 8.74248 28.1835 13.0195 28.1559 18.265C28.1284 23.5105 23.7523 27.7337 18.3578 27.7068C13.0183 27.7068 8.69722 23.4298 8.72474 18.1843ZM26.7798 18.2112C26.8899 14.0955 23.422 10.0068 18.4128 10.0068C13.789 10.0068 10.0183 13.7189 10.0183 18.2381C10.0183 22.7035 13.789 26.4156 18.4128 26.4156C23.477 26.4156 26.8899 22.3 26.7798 18.2112Z" fill="#33475B"/>
<path id="Vector_3" d="M19.1004 3.73907C19.1004 4.70746 19.1004 5.70276 19.1004 6.67115C19.1004 7.12845 18.9628 7.47814 18.4674 7.50504C17.9169 7.53194 17.7793 7.18225 17.7793 6.72495C17.7793 4.76126 17.7793 2.77068 17.7793 0.806994C17.7793 0.376597 17.9169 0 18.4398 0C18.9353 0.0268998 19.1004 0.349697 19.1004 0.806994C19.1004 1.77539 19.1004 2.77068 19.1004 3.73907Z" fill="#33475B"/>
<path id="Vector_4" d="M14.0635 5.35306C14.0635 5.83725 14.091 6.32145 14.0635 6.77874C14.0359 7.18224 13.8708 7.47814 13.4029 7.47814C12.935 7.47814 12.7148 7.20914 12.7148 6.75185C12.7148 5.81035 12.7148 4.86886 12.7148 3.95427C12.7148 3.52387 12.9625 3.25487 13.3754 3.25487C13.7882 3.22797 14.0359 3.52387 14.0635 3.92737C14.091 4.41156 14.0635 4.89576 14.0635 5.35306Z" fill="#33475B"/>
<path id="Vector_5" d="M22.7895 5.32609C22.7895 4.86879 22.7069 4.3846 22.817 3.9542C22.8721 3.6852 23.2023 3.30861 23.45 3.28171C23.8354 3.20101 24.1106 3.5238 24.1106 3.9542C24.1106 4.89569 24.1106 5.86409 24.1106 6.80558C24.1106 7.20908 23.9179 7.47807 23.4776 7.47807C23.0372 7.47807 22.817 7.23598 22.817 6.80558C22.7895 6.32138 22.7895 5.83719 22.7895 5.32609Z" fill="#33475B"/>
<path id="Vector_6" d="M21.3299 16.0591C21.1923 16.2205 20.9721 16.5971 20.6969 16.6509C20.229 16.7585 20.0088 16.4088 19.9538 15.9246C19.8712 15.3059 19.5685 14.8217 18.9354 14.6065C18.385 14.4451 17.8345 14.5258 17.3941 14.9293C16.9263 15.3597 16.8162 15.8977 17.0088 16.4626C17.2015 17.0275 17.6143 17.3503 18.1923 17.4579C18.5776 17.5117 18.9905 17.5386 19.3758 17.6731C20.5042 18.0497 21.2474 19.045 21.2749 20.1479C21.3024 21.4122 20.6694 22.4343 19.4859 22.8916C19.1281 23.0261 18.963 23.1606 18.9905 23.5372C19.018 23.9676 18.7978 24.2904 18.3574 24.2904C17.9171 24.2904 17.6419 23.9945 17.6969 23.5372C17.7519 23.1337 17.5593 22.9723 17.2015 22.8109C16.2657 22.3805 15.7703 21.6274 15.5776 20.659C15.4951 20.1748 15.6052 19.7982 16.1006 19.6906C16.651 19.583 16.8437 19.9327 16.9263 20.4169C17.0363 21.2239 17.5593 21.7081 18.3299 21.7619C19.1006 21.8157 19.7061 21.3853 19.8987 20.6052C20.1189 19.7444 19.4308 18.8836 18.44 18.8298C16.9538 18.7491 15.9354 17.9152 15.6327 16.5702C15.3574 15.3328 15.963 14.0954 17.1464 13.5305C17.5042 13.3691 17.7244 13.2077 17.6694 12.7773C17.6143 12.32 17.8896 12.051 18.3574 12.051C18.7703 12.051 19.018 12.3469 18.963 12.7504C18.9079 13.1808 19.1281 13.2884 19.4859 13.4498C20.5868 13.8802 21.1648 14.7141 21.3299 16.0591Z" fill="#33475B"/>
</g>
</g>
<defs>
<clipPath id="clip0_1096_549">
<rect width="36" height="40" fill="white"/>
</clipPath>
</defs>
</svg>
