<svg width="40" height="40" viewBox="0 0 40 40" fill="none" xmlns="http://www.w3.org/2000/svg">
<g id="Group 1000009868">
<rect id="Rectangle 18593" width="40" height="40" fill="white"/>
<g id="Group">
<path id="Vector" d="M7.46809 9.00301C7.52267 7.93886 7.52267 6.92927 7.6591 5.94697C8.06839 2.31792 11.943 -0.519827 15.5175 0.0804662C18.6554 0.598902 20.62 2.42707 21.4931 5.45582C21.6296 5.97426 21.6569 6.51998 21.6841 7.03842C21.7114 7.666 21.6841 8.32086 21.6841 8.97573C22.2026 9.05759 22.6937 9.11216 23.1576 9.24859C24.9585 9.79431 26.1318 11.4588 26.1863 13.5052C26.2136 14.1328 26.2682 14.7331 26.2955 15.3607C26.3228 15.77 26.4865 15.9882 26.8958 16.1247C27.6052 16.343 28.3147 16.6158 28.9695 16.9705C29.3788 17.1888 29.6517 17.1616 30.0064 16.916C30.9614 16.2611 30.9614 16.2611 31.78 17.0797C32.4894 17.7891 33.1716 18.4986 33.881 19.1534C34.3176 19.5627 34.3995 19.9993 33.9902 20.4359C33.5263 20.9543 33.5263 21.4182 33.881 22.0185C34.2357 22.5642 34.454 23.2191 34.645 23.8466C34.7542 24.2286 34.9452 24.3651 35.2999 24.3924C36.4186 24.5561 36.5005 24.6379 36.5005 25.7839C36.5005 26.739 36.4732 27.6667 36.5005 28.6217C36.5278 29.3311 36.2822 29.7131 35.6 29.7404C34.9179 29.7677 34.6723 30.0951 34.5086 30.7227C34.3449 31.3503 34.072 31.9233 33.7719 32.4963C33.5536 32.9056 33.5809 33.1785 33.8264 33.5332C34.4813 34.4609 34.4813 34.4882 33.6627 35.3068C32.9806 35.9889 32.2711 36.6711 31.6163 37.3532C31.1797 37.8171 30.7431 37.9263 30.2793 37.4897C29.7881 37.0258 29.3242 37.0531 28.7512 37.3805C28.1782 37.708 27.5506 37.9263 26.8958 38.1173C26.4865 38.2264 26.3501 38.4174 26.2955 38.7994C26.1318 39.9181 26.0499 40 24.9039 40C23.9762 40 23.0484 40 22.1207 40C21.2203 40 21.0293 39.9181 20.9474 39.0177C20.8928 38.3901 20.5927 38.1718 20.047 38.0081C19.4194 37.8171 18.7918 37.5715 18.2188 37.2441C17.8095 37.0258 17.5367 37.0804 17.1819 37.326C16.2269 37.9808 16.2269 37.9808 15.4083 37.1622C14.6989 36.4528 14.0168 35.7434 13.3073 35.0612C12.898 34.6792 12.7616 34.2699 13.1709 33.8333C13.7166 33.2603 13.7166 32.6873 13.2527 32.087C13.1163 31.896 13.0345 31.6777 12.9526 31.4595C12.4887 30.3407 12.4887 30.3407 11.2336 30.3407C9.97841 30.3407 8.69597 30.3407 7.44081 30.3407C4.87592 30.2862 3.02046 28.4853 3.02046 25.8385C2.99318 21.7456 2.99318 17.6527 3.02046 13.5325C3.02046 10.913 4.60306 9.33045 7.46809 9.00301ZM24.8493 14.2147C25.1768 11.9226 23.8397 10.34 21.6296 10.34C16.9364 10.34 12.2704 10.34 7.57724 10.34C5.58536 10.34 4.30291 11.5133 4.30291 13.5052C4.24834 17.6254 4.27562 21.7456 4.30291 25.8931C4.3302 27.6121 5.36707 28.84 6.97695 29.0037C8.20482 29.1129 9.45998 29.031 10.7424 29.031C10.7424 27.9396 10.7424 26.9027 10.7424 25.8658C10.7424 24.6925 10.797 24.6106 11.9703 24.4469C12.3796 24.3924 12.5433 24.2014 12.6524 23.8466C12.8435 23.2463 13.0345 22.5915 13.3619 22.073C13.7166 21.4727 13.7166 20.9816 13.2527 20.4904C12.8435 20.0539 12.9253 19.6173 13.3619 19.208C14.044 18.5804 14.6716 17.8983 15.3265 17.2434C16.2542 16.3157 16.2542 16.3157 17.3457 17.0251C17.6458 17.2434 17.8914 17.2434 18.2188 17.0797C18.8737 16.7523 19.5831 16.4248 20.2926 16.2065C20.7564 16.0701 20.9201 15.8245 20.9747 15.3607C21.1111 14.3784 21.2476 14.2692 22.2571 14.2692C23.103 14.2147 23.9762 14.2147 24.8493 14.2147ZM14.4533 19.9174C14.5625 20.0812 14.617 20.1903 14.6989 20.2994C15.1901 20.8452 15.1901 21.3363 14.7535 21.9639C14.3715 22.5369 14.044 23.2191 13.8803 23.8739C13.6347 24.9108 13.3346 25.7839 12.0249 25.6748C12.0249 26.6571 12.0249 27.5575 12.0249 28.458C12.1886 28.5126 12.3523 28.6217 12.516 28.6217C13.2527 28.649 13.5256 29.0583 13.6893 29.7404C13.853 30.4226 14.0986 31.1047 14.4533 31.705C14.9718 32.6055 15.4902 33.4513 14.426 34.2426C15.1355 34.9521 15.7903 35.6069 16.4452 36.2618C16.5816 36.1799 16.7454 36.1254 16.8545 35.9889C17.3729 35.5251 17.8095 35.5797 18.4098 35.9617C19.0647 36.3709 19.8287 36.7257 20.5927 36.8894C21.575 37.1077 22.1753 37.5443 22.2299 38.5811C22.2299 38.6084 22.2844 38.6357 22.3117 38.6903C23.2122 38.6903 24.0853 38.6903 24.9858 38.6903C25.0403 38.4993 25.1495 38.3355 25.1495 38.1991C25.1495 37.4624 25.6133 37.2168 26.2682 37.0258C27.0595 36.8348 27.8508 36.562 28.5329 36.1527C29.3515 35.6069 30.0337 35.5524 30.7431 36.2345C30.7704 36.2618 30.825 36.2345 30.7158 36.2345C31.4253 35.5251 32.0801 34.8975 32.7623 34.2426C32.7077 34.1335 32.6259 33.9971 32.544 33.8879C32.0801 33.3695 32.1347 32.9056 32.4894 32.3326C32.8714 31.7323 33.1989 31.0502 33.3899 30.3407C33.6354 29.3311 33.9083 28.4307 35.218 28.5398C35.218 27.5575 35.218 26.6571 35.218 25.7567C35.0543 25.7021 34.9179 25.6202 34.7815 25.6202C33.9902 25.5929 33.7173 25.1018 33.5536 24.4196C33.3626 23.6829 33.0897 22.9189 32.6804 22.2913C32.1074 21.4455 32.0256 20.7633 32.7623 20.0266C32.7623 19.9447 32.7896 19.9993 32.7623 20.0266C32.0801 19.3172 31.4253 18.6623 30.7977 18.0074C30.7158 18.062 30.5794 18.1166 30.4975 18.1984C29.9518 18.6896 29.4607 18.6896 28.8331 18.2803C28.2328 17.871 27.5506 17.5708 26.8412 17.4071C25.8043 17.1616 24.9858 16.8614 25.0949 15.579C24.0853 15.579 23.1849 15.579 22.2844 15.579C22.2299 15.77 22.148 15.9337 22.1207 16.0974C22.0934 16.7795 21.7387 17.0251 21.1111 17.2161C20.3471 17.4344 19.5558 17.6527 18.9282 18.0893C18.0551 18.6623 17.3184 18.7987 16.5271 18.0347C16.4998 18.0074 16.4452 18.0347 16.4725 18.0347C15.7631 18.635 15.1355 19.2626 14.4533 19.9174ZM8.85968 9.00301C9.73284 9.00301 10.5241 9.00301 11.3973 9.00301C11.3973 8.45729 11.37 7.93886 11.3973 7.44771C11.4246 6.92927 11.4519 6.41084 11.6156 5.94697C12.134 4.50081 13.6347 3.65494 15.1628 3.9278C16.7181 4.20066 17.8095 5.42854 17.8368 6.98384C17.8641 7.666 17.8368 8.34815 17.8368 9.00301C18.7372 9.00301 19.5558 9.00301 20.4017 9.00301C20.4017 8.239 20.4563 7.52956 20.4017 6.79284C20.2107 4.36438 18.9828 2.61807 16.7454 1.71763C14.5079 0.81719 12.4342 1.25377 10.6606 2.86365C8.8324 4.5281 8.6414 6.71098 8.85968 9.00301ZM16.5271 9.00301C16.5271 8.26629 16.5544 7.58414 16.5271 6.92927C16.4725 5.91969 15.7358 5.21025 14.7535 5.15568C13.7439 5.1011 12.8707 5.64683 12.7343 6.65641C12.6252 7.42042 12.707 8.21172 12.707 9.00301C14.0168 9.00301 15.2446 9.00301 16.5271 9.00301Z" fill="#33475B"/>
<path id="Vector_2" d="M15.2441 27.0938C15.2441 22.4551 19.0096 18.6897 23.621 18.7169C28.2323 18.7169 31.9978 22.4824 31.9978 27.1211C31.9978 31.7324 28.205 35.4979 23.5664 35.4706C19.0096 35.4706 15.2441 31.7051 15.2441 27.0938ZM28.587 32.0871C30.6335 30.259 31.2884 26.9573 30.1423 24.2833C28.969 21.5274 26.0221 19.7538 23.0752 19.9994C19.9646 20.2723 17.427 22.4551 16.6903 25.4839C16.1173 27.8305 17.0996 31.023 18.6822 32.0053C19.5826 29.6859 21.3562 28.3489 23.621 28.3489C25.8857 28.3762 27.6593 29.6859 28.587 32.0871ZM23.5664 34.3792C23.5937 34.3246 23.5937 34.27 23.621 34.1882C24.7943 34.1609 25.8857 33.888 26.9499 33.3696C27.4137 33.1513 27.4956 32.8511 27.3319 32.3873C27.2773 32.2781 27.25 32.1417 27.1954 32.0326C26.5679 30.5318 25.0671 29.5768 23.43 29.6587C21.8474 29.7405 20.4285 30.832 19.9373 32.36C19.8009 32.8238 19.8009 33.2059 20.3466 33.3696C21.4108 33.7243 22.475 34.0517 23.5664 34.3792Z" fill="#33475B"/>
<path id="Vector_3" d="M26.8419 24.5017C26.8419 26.2753 25.3957 27.7487 23.6221 27.7487C21.8485 27.7487 20.4023 26.3026 20.4023 24.529C20.4023 22.7827 21.8485 21.3365 23.5948 21.3092C25.3684 21.2819 26.8419 22.7281 26.8419 24.5017ZM23.6494 26.439C24.7135 26.4117 25.5594 25.5658 25.5594 24.5017C25.5594 23.4102 24.659 22.5371 23.5675 22.5644C22.5034 22.5917 21.6575 23.4921 21.6848 24.529C21.7121 25.6204 22.6125 26.4663 23.6494 26.439Z" fill="#33475B"/>
</g>
</g>
</svg>
