<svg width="40" height="40" viewBox="0 0 40 40" fill="none" xmlns="http://www.w3.org/2000/svg">
<g id="Group 1000009864">
<rect id="Rectangle 18589" width="40" height="40" fill="white"/>
<g id="Group">
<path id="Vector" d="M20.8194 33C13.7853 32.8678 8.61075 30.5139 4.24474 26.3617C3.05891 25.2245 1.98088 23.955 0.983701 22.6591C-0.336884 20.9664 -0.309933 19.0622 0.95675 17.3432C4.35254 12.7942 8.61075 9.40894 14.2165 7.84854C20.7655 5.99723 26.8294 7.24025 32.4082 10.9429C34.9416 12.6091 37.0707 14.7513 38.9033 17.158C40.2509 18.93 40.3856 20.8342 39.1459 22.5004C35.6693 27.2609 31.1954 30.752 25.3471 32.2595C23.5953 32.7091 21.7627 32.8678 20.8194 33ZM20.9003 30.1172C21.7896 29.9586 23.6223 29.7734 25.3202 29.2709C30.1444 27.8957 33.7558 24.8278 36.6664 20.94C37.2055 20.2259 37.1785 19.6176 36.5317 18.9035C35.1842 17.4225 33.9175 15.8357 32.3813 14.5662C27.6919 10.652 22.2748 9.03868 16.1569 10.3082C10.6321 11.4454 6.53555 14.6984 3.27451 19.0622C2.7894 19.697 2.8433 20.3582 3.35536 20.9929C3.94828 21.7334 4.56815 22.5004 5.21496 23.2145C9.17672 27.4989 14.0009 30.0114 20.9003 30.1172Z" fill="#33475B"/>
<path id="Vector_2" d="M12.7346 19.9616C12.7615 15.7036 15.7261 12.7679 20.0651 12.7944C24.2964 12.8208 27.3418 15.9152 27.3418 20.1732C27.3149 24.3783 24.2964 27.2346 19.8495 27.2082C15.6722 27.1817 12.7076 24.1667 12.7346 19.9616ZM24.4042 20.0145C24.4042 17.502 22.5985 15.6771 20.0651 15.6507C17.4779 15.6242 15.5913 17.4227 15.5913 19.9616C15.5913 22.4741 17.397 24.299 19.9304 24.3254C22.5177 24.3519 24.3773 22.5534 24.4042 20.0145Z" fill="#33475B"/>
</g>
</g>
</svg>
