<svg width="23" height="26" viewBox="0 0 23 26" fill="none" xmlns="http://www.w3.org/2000/svg">
<path d="M4.09703 7.19363C4.29902 7.19363 4.46452 7.0451 4.49258 6.83491C4.77029 4.96278 5.02558 4.70215 6.82656 4.49757C7.03416 4.47236 7.19406 4.29859 7.19406 4.0968C7.19406 3.89222 7.03697 3.72407 6.82938 3.69324C5.03961 3.44382 4.81798 3.22522 4.49258 1.35592C4.4561 1.14854 4.2962 1 4.09703 1C3.89224 1 3.72954 1.14854 3.69587 1.35872C3.42376 3.22802 3.16848 3.48866 1.3703 3.69324C1.1571 3.72127 1 3.88943 1 4.0968C1 4.29859 1.15148 4.46675 1.36469 4.49757C3.15726 4.7526 3.37607 4.96839 3.69587 6.8377C3.73795 7.04789 3.90066 7.19363 4.09703 7.19363Z" fill="url(#paint0_linear_7825_50886)"/>
<path d="M4.09703 7.19363C4.29902 7.19363 4.46452 7.0451 4.49258 6.83491C4.77029 4.96278 5.02558 4.70215 6.82656 4.49757C7.03416 4.47236 7.19406 4.29859 7.19406 4.0968C7.19406 3.89222 7.03697 3.72407 6.82938 3.69324C5.03961 3.44382 4.81798 3.22522 4.49258 1.35592C4.4561 1.14854 4.2962 1 4.09703 1C3.89224 1 3.72954 1.14854 3.69587 1.35872C3.42376 3.22802 3.16848 3.48866 1.3703 3.69324C1.1571 3.72127 1 3.88943 1 4.0968C1 4.29859 1.15148 4.46675 1.36469 4.49757C3.15726 4.7526 3.37607 4.96839 3.69587 6.8377C3.73795 7.04789 3.90066 7.19363 4.09703 7.19363Z" fill="url(#paint1_linear_7825_50886)"/>
<path d="M4.09703 7.19363C4.29902 7.19363 4.46452 7.0451 4.49258 6.83491C4.77029 4.96278 5.02558 4.70215 6.82656 4.49757C7.03416 4.47236 7.19406 4.29859 7.19406 4.0968C7.19406 3.89222 7.03697 3.72407 6.82938 3.69324C5.03961 3.44382 4.81798 3.22522 4.49258 1.35592C4.4561 1.14854 4.2962 1 4.09703 1C3.89224 1 3.72954 1.14854 3.69587 1.35872C3.42376 3.22802 3.16848 3.48866 1.3703 3.69324C1.1571 3.72127 1 3.88943 1 4.0968C1 4.29859 1.15148 4.46675 1.36469 4.49757C3.15726 4.7526 3.37607 4.96839 3.69587 6.8377C3.73795 7.04789 3.90066 7.19363 4.09703 7.19363Z" fill="url(#paint2_linear_7825_50886)"/>
<path d="M4.09703 7.19363C4.29902 7.19363 4.46452 7.0451 4.49258 6.83491C4.77029 4.96278 5.02558 4.70215 6.82656 4.49757C7.03416 4.47236 7.19406 4.29859 7.19406 4.0968C7.19406 3.89222 7.03697 3.72407 6.82938 3.69324C5.03961 3.44382 4.81798 3.22522 4.49258 1.35592C4.4561 1.14854 4.2962 1 4.09703 1C3.89224 1 3.72954 1.14854 3.69587 1.35872C3.42376 3.22802 3.16848 3.48866 1.3703 3.69324C1.1571 3.72127 1 3.88943 1 4.0968C1 4.29859 1.15148 4.46675 1.36469 4.49757C3.15726 4.7526 3.37607 4.96839 3.69587 6.8377C3.73795 7.04789 3.90066 7.19363 4.09703 7.19363Z" stroke="url(#paint3_linear_7825_50886)" stroke-width="0.140832"/>
<path d="M4.09703 7.19363C4.29902 7.19363 4.46452 7.0451 4.49258 6.83491C4.77029 4.96278 5.02558 4.70215 6.82656 4.49757C7.03416 4.47236 7.19406 4.29859 7.19406 4.0968C7.19406 3.89222 7.03697 3.72407 6.82938 3.69324C5.03961 3.44382 4.81798 3.22522 4.49258 1.35592C4.4561 1.14854 4.2962 1 4.09703 1C3.89224 1 3.72954 1.14854 3.69587 1.35872C3.42376 3.22802 3.16848 3.48866 1.3703 3.69324C1.1571 3.72127 1 3.88943 1 4.0968C1 4.29859 1.15148 4.46675 1.36469 4.49757C3.15726 4.7526 3.37607 4.96839 3.69587 6.8377C3.73795 7.04789 3.90066 7.19363 4.09703 7.19363Z" stroke="url(#paint4_linear_7825_50886)" stroke-width="0.140832"/>
<path d="M13.3868 22.8214C13.9928 22.8214 14.4893 22.3758 14.5735 21.7452C15.4066 16.1288 16.1725 15.3469 21.5755 14.7332C22.1982 14.6576 22.6779 14.1363 22.6779 13.5309C22.6779 12.9171 22.2067 12.4127 21.5839 12.3202C16.2146 11.5719 15.5497 10.9161 14.5735 5.30824C14.464 4.68609 13.9843 4.24048 13.3868 4.24048C12.7725 4.24048 12.2843 4.68609 12.1834 5.31665C11.367 10.9246 10.6012 11.7065 5.2066 12.3202C4.56699 12.4043 4.0957 12.9088 4.0957 13.5309C4.0957 14.1363 4.55016 14.6407 5.18977 14.7332C10.5675 15.4983 11.2239 16.1456 12.1834 21.7536C12.3096 22.3841 12.7977 22.8214 13.3868 22.8214Z" fill="url(#paint5_linear_7825_50886)" stroke="url(#paint6_linear_7825_50886)" stroke-width="0.422496"/>
<path d="M4.09703 25C4.29902 25 4.46452 24.8515 4.49258 24.6413C4.77029 22.7692 5.02558 22.5085 6.82656 22.304C7.03416 22.2788 7.19406 22.105 7.19406 21.9032C7.19406 21.6986 7.03697 21.5305 6.82938 21.4996C5.03961 21.2502 4.81798 21.0316 4.49258 19.1623C4.4561 18.9549 4.2962 18.8064 4.09703 18.8064C3.89224 18.8064 3.72954 18.9549 3.69587 19.1651C3.42376 21.0344 3.16848 21.2951 1.3703 21.4996C1.1571 21.5277 1 21.6958 1 21.9032C1 22.105 1.15148 22.2732 1.36469 22.304C3.15726 22.559 3.37607 22.7748 3.69587 24.6441C3.73795 24.8543 3.90066 25 4.09703 25Z" fill="url(#paint7_linear_7825_50886)"/>
<path d="M4.09703 25C4.29902 25 4.46452 24.8515 4.49258 24.6413C4.77029 22.7692 5.02558 22.5085 6.82656 22.304C7.03416 22.2788 7.19406 22.105 7.19406 21.9032C7.19406 21.6986 7.03697 21.5305 6.82938 21.4996C5.03961 21.2502 4.81798 21.0316 4.49258 19.1623C4.4561 18.9549 4.2962 18.8064 4.09703 18.8064C3.89224 18.8064 3.72954 18.9549 3.69587 19.1651C3.42376 21.0344 3.16848 21.2951 1.3703 21.4996C1.1571 21.5277 1 21.6958 1 21.9032C1 22.105 1.15148 22.2732 1.36469 22.304C3.15726 22.559 3.37607 22.7748 3.69587 24.6441C3.73795 24.8543 3.90066 25 4.09703 25Z" fill="url(#paint8_linear_7825_50886)"/>
<path d="M4.09703 25C4.29902 25 4.46452 24.8515 4.49258 24.6413C4.77029 22.7692 5.02558 22.5085 6.82656 22.304C7.03416 22.2788 7.19406 22.105 7.19406 21.9032C7.19406 21.6986 7.03697 21.5305 6.82938 21.4996C5.03961 21.2502 4.81798 21.0316 4.49258 19.1623C4.4561 18.9549 4.2962 18.8064 4.09703 18.8064C3.89224 18.8064 3.72954 18.9549 3.69587 19.1651C3.42376 21.0344 3.16848 21.2951 1.3703 21.4996C1.1571 21.5277 1 21.6958 1 21.9032C1 22.105 1.15148 22.2732 1.36469 22.304C3.15726 22.559 3.37607 22.7748 3.69587 24.6441C3.73795 24.8543 3.90066 25 4.09703 25Z" fill="url(#paint9_linear_7825_50886)"/>
<path d="M4.09703 25C4.29902 25 4.46452 24.8515 4.49258 24.6413C4.77029 22.7692 5.02558 22.5085 6.82656 22.304C7.03416 22.2788 7.19406 22.105 7.19406 21.9032C7.19406 21.6986 7.03697 21.5305 6.82938 21.4996C5.03961 21.2502 4.81798 21.0316 4.49258 19.1623C4.4561 18.9549 4.2962 18.8064 4.09703 18.8064C3.89224 18.8064 3.72954 18.9549 3.69587 19.1651C3.42376 21.0344 3.16848 21.2951 1.3703 21.4996C1.1571 21.5277 1 21.6958 1 21.9032C1 22.105 1.15148 22.2732 1.36469 22.304C3.15726 22.559 3.37607 22.7748 3.69587 24.6441C3.73795 24.8543 3.90066 25 4.09703 25Z" stroke="url(#paint10_linear_7825_50886)" stroke-width="0.140832"/>
<path d="M4.09703 25C4.29902 25 4.46452 24.8515 4.49258 24.6413C4.77029 22.7692 5.02558 22.5085 6.82656 22.304C7.03416 22.2788 7.19406 22.105 7.19406 21.9032C7.19406 21.6986 7.03697 21.5305 6.82938 21.4996C5.03961 21.2502 4.81798 21.0316 4.49258 19.1623C4.4561 18.9549 4.2962 18.8064 4.09703 18.8064C3.89224 18.8064 3.72954 18.9549 3.69587 19.1651C3.42376 21.0344 3.16848 21.2951 1.3703 21.4996C1.1571 21.5277 1 21.6958 1 21.9032C1 22.105 1.15148 22.2732 1.36469 22.304C3.15726 22.559 3.37607 22.7748 3.69587 24.6441C3.73795 24.8543 3.90066 25 4.09703 25Z" stroke="url(#paint11_linear_7825_50886)" stroke-width="0.140832"/>
<defs>
<linearGradient id="paint0_linear_7825_50886" x1="4.09703" y1="1" x2="4.09703" y2="7.19363" gradientUnits="userSpaceOnUse">
<stop offset="0.445833" stop-color="#7424DC"/>
<stop offset="1" stop-color="white"/>
</linearGradient>
<linearGradient id="paint1_linear_7825_50886" x1="4.09703" y1="1" x2="4.09703" y2="7.19363" gradientUnits="userSpaceOnUse">
<stop offset="0.445833" stop-color="#A159FF"/>
<stop offset="1" stop-color="white"/>
</linearGradient>
<linearGradient id="paint2_linear_7825_50886" x1="4.09703" y1="1" x2="4.09703" y2="7.19363" gradientUnits="userSpaceOnUse">
<stop offset="0.445833" stop-color="#504EE4"/>
<stop offset="1" stop-color="white"/>
</linearGradient>
<linearGradient id="paint3_linear_7825_50886" x1="1.98584" y1="0.435272" x2="6.77396" y2="6.63194" gradientUnits="userSpaceOnUse">
<stop/>
<stop offset="0.0001" stop-color="#7424DC"/>
<stop offset="1" stop-color="white"/>
</linearGradient>
<linearGradient id="paint4_linear_7825_50886" x1="1.98584" y1="0.435272" x2="6.77396" y2="6.63194" gradientUnits="userSpaceOnUse">
<stop offset="0.0001" stop-color="#504EE4"/>
<stop offset="1" stop-color="white"/>
</linearGradient>
<linearGradient id="paint5_linear_7825_50886" x1="13.3868" y1="4.24048" x2="13.3868" y2="22.8214" gradientUnits="userSpaceOnUse">
<stop offset="0.445833" stop-color="#504EE4"/>
<stop offset="1" stop-color="white"/>
</linearGradient>
<linearGradient id="paint6_linear_7825_50886" x1="7.05325" y1="2.54629" x2="21.4176" y2="21.1363" gradientUnits="userSpaceOnUse">
<stop offset="0.0001" stop-color="#504EE4"/>
<stop offset="1" stop-color="white"/>
</linearGradient>
<linearGradient id="paint7_linear_7825_50886" x1="4.09703" y1="18.8064" x2="4.09703" y2="25" gradientUnits="userSpaceOnUse">
<stop offset="0.445833" stop-color="#7424DC"/>
<stop offset="1" stop-color="white"/>
</linearGradient>
<linearGradient id="paint8_linear_7825_50886" x1="4.09703" y1="18.8064" x2="4.09703" y2="25" gradientUnits="userSpaceOnUse">
<stop offset="0.445833" stop-color="#A159FF"/>
<stop offset="1" stop-color="white"/>
</linearGradient>
<linearGradient id="paint9_linear_7825_50886" x1="4.09703" y1="18.8064" x2="4.09703" y2="25" gradientUnits="userSpaceOnUse">
<stop offset="0.445833" stop-color="#504EE4"/>
<stop offset="1" stop-color="white"/>
</linearGradient>
<linearGradient id="paint10_linear_7825_50886" x1="1.98584" y1="18.2417" x2="6.77396" y2="24.4383" gradientUnits="userSpaceOnUse">
<stop/>
<stop offset="0.0001" stop-color="#7424DC"/>
<stop offset="1" stop-color="white"/>
</linearGradient>
<linearGradient id="paint11_linear_7825_50886" x1="1.98584" y1="18.2417" x2="6.77396" y2="24.4383" gradientUnits="userSpaceOnUse">
<stop offset="0.0001" stop-color="#504EE4"/>
<stop offset="1" stop-color="white"/>
</linearGradient>
</defs>
</svg>
