<svg width="80" height="79" viewBox="0 0 80 79" fill="none" xmlns="http://www.w3.org/2000/svg">
<g id="Frame" clip-path="url(#clip0_969_189)">
<g id="Group">
<path id="Vector" d="M62.8706 19.9825C64.9412 16.847 66.9311 13.8443 68.9211 10.8682C70.8303 8.0249 73.6 7.01514 76.3698 8.21091C79.6505 9.59267 81.0219 13.3394 79.1395 16.3687C76.9076 19.9825 74.4874 23.4901 72.1479 27.0508C70.0505 30.2395 67.8992 33.4016 65.8555 36.6169C65.4521 37.2281 65.2101 38.105 65.2908 38.8224C66.0706 45.1732 66.958 51.5241 67.8185 57.8749C68.0337 59.4161 68.3026 60.9307 68.4101 62.4719C68.6253 65.262 66.6084 67.7067 63.4084 67.9724C57.0891 68.4507 51.2538 70.736 45.2572 72.4366C38.1849 74.4561 31.1664 76.6351 24.1211 78.7077C20.5984 79.744 17.9362 78.256 16.8605 74.775C11.4017 56.7588 5.9429 38.7958 0.457189 20.8063C-0.779786 16.7672 0.51097 14.296 4.65215 13.0471C7.47568 12.1968 10.2992 11.373 13.1227 10.5759C13.7681 10.3898 14.1446 10.1507 14.1984 9.35352C14.3059 7.14801 16.1883 5.1285 18.4202 4.8362C25.5194 3.90616 32.5916 3.02927 39.6908 2.12581C44.6925 1.48807 49.6942 0.823754 54.6958 0.0797243C57.5463 -0.345436 60.316 1.6475 60.7194 4.62362C61.3647 9.43324 61.9832 14.2429 62.6286 19.0791C62.6286 19.2916 62.7362 19.5308 62.8706 19.9825ZM52.1412 36.1917C48.4303 36.6966 45.1227 37.1218 41.8152 37.5735C40.874 37.7064 40.0404 37.5735 39.9328 36.4575C39.8253 35.4477 40.5513 35.1288 41.4656 35.0225C45.311 34.5442 49.1832 34.0394 53.0286 33.4813C53.5664 33.4016 54.2118 33.0562 54.5076 32.631C56.4437 29.8143 58.3261 26.9711 60.1816 24.1013C60.4236 23.7027 60.5311 23.1181 60.4774 22.6663C59.7513 16.9798 58.9984 11.2933 58.2454 5.58023C57.9496 3.42786 56.9009 2.44468 54.7496 2.68383C51.1194 3.08242 47.4891 3.61386 43.8589 4.09217C38.6421 4.78305 33.3984 5.44737 28.1816 6.13825C25.0891 6.53684 21.9698 6.90885 18.9042 7.41373C17.1832 7.70603 16.5379 8.90179 16.7799 10.629C17.2908 14.3491 17.7479 18.0693 18.232 21.7894C18.8774 26.7851 19.5496 31.7807 20.195 36.7763C20.8673 41.9048 21.5664 47.0067 22.2656 52.1352C22.9648 57.3434 23.6639 62.5516 24.39 67.7598C24.632 69.4605 25.8421 70.2577 27.5362 70.0451C31.9194 69.4605 36.3026 68.9025 40.6858 68.3179C48.0807 67.3613 55.4757 66.4047 62.8706 65.448C65.237 65.1292 66.0706 64.0928 65.7479 61.7545C64.9681 55.8022 64.1614 49.85 63.3547 43.8978C63.2471 43.0474 63.0858 42.2237 62.8706 41.1076C62.037 42.33 61.4185 43.3663 60.7194 44.3229C59.1597 46.4753 57.7345 48.7339 55.9328 50.6737C54.3463 52.401 52.3832 53.7827 50.5816 55.2974C49.1026 56.5463 47.5967 56.7323 46.1715 55.8022C44.8 54.9253 44.316 53.4107 44.8807 51.5772C45.1496 50.7003 45.4185 49.8234 45.7412 48.7605C43.4824 49.0262 41.4656 49.292 39.4488 49.5311C35.953 49.9829 32.4572 50.4346 28.9614 50.8863C28.0471 51.0192 27.2942 50.7269 27.1866 49.7437C27.1059 48.8402 27.7244 48.4151 28.6118 48.3354C29.9026 48.1759 31.1933 47.9899 32.4572 47.8305C36.7866 47.2459 41.1429 46.6613 45.4723 46.1298C46.3866 46.0236 46.8168 45.7047 47.1126 44.7746C47.4622 43.6055 48.0807 42.516 48.7261 41.4531C49.7479 39.7524 50.8773 38.1315 52.1412 36.1917ZM40.39 71.1611C40.39 71.0814 40.39 71.0017 40.39 70.922C36.5446 71.4268 32.6992 71.852 28.8538 72.4632C25.1429 73.0743 22.3194 71.4534 21.7278 68.185C21.5933 67.441 21.4858 66.6969 21.4051 65.9529C20.4639 58.7783 19.5765 51.5772 18.6084 44.4026C17.6673 37.2546 16.6992 30.1332 15.7311 22.9852C15.274 19.6105 14.8169 16.2624 14.3597 12.7814C11.1328 13.7911 7.95971 14.6946 4.81349 15.6778C2.71601 16.3155 2.15131 17.4581 2.79668 19.5308C6.10425 30.4255 9.4387 41.3202 12.7463 52.2149C15.0051 59.6021 17.237 66.9892 19.4958 74.3764C20.0605 76.1833 21.2706 76.8476 23.0723 76.3162C28.8538 74.589 34.6353 72.8618 40.39 71.1611ZM55.879 46.9802C61.4454 38.5567 66.9311 30.2661 72.4437 21.9223C70.6152 20.7531 68.8673 19.6105 67.0118 18.4147C61.4454 26.8116 55.9597 35.1288 50.4471 43.4726C52.2757 44.6684 53.9967 45.7844 55.879 46.9802ZM71.0185 12.5422C72.8202 13.7114 74.5681 14.8275 76.316 15.9701C77.3379 14.7477 77.7681 13.5254 77.0958 12.0905C76.5311 10.8947 75.5631 10.2836 74.2185 10.257C72.7126 10.2836 71.6908 11.0276 71.0185 12.5422ZM54.0774 48.8934C52.437 47.8305 50.958 46.8739 49.3446 45.8375C49.0219 46.9004 48.7799 47.7242 48.5916 48.4151C49.8286 49.2122 50.9042 49.9031 52.0337 50.6472C52.6253 50.1423 53.2706 49.5843 54.0774 48.8934ZM69.4858 14.668C69.1093 15.2526 68.7866 15.7309 68.437 16.2889C70.2656 17.4581 72.0404 18.6007 73.869 19.7699C74.2454 19.1588 74.5412 18.6805 74.8908 18.149C73.0891 16.9798 71.3681 15.8904 69.4858 14.668ZM48 51.0458C47.8118 51.0989 47.6505 51.1786 47.4622 51.2318C47.4891 52.0289 47.5429 52.8261 47.5698 53.6233C48.3765 53.331 49.1563 53.0653 49.9631 52.773C49.9362 52.6135 49.9362 52.4807 49.9093 52.3212C49.2639 51.9226 48.6185 51.4709 48 51.0458Z" fill="black"/>
<path id="Vector_2" d="M26.137 27.9277C25.1958 28.034 24.3085 27.8745 24.2009 26.8117C24.1202 25.8285 24.9269 25.5362 25.8143 25.4033C29.5253 24.925 33.2362 24.3936 36.9471 23.9152C41.3303 23.3307 45.7135 22.7726 50.0967 22.2146C51.253 22.0552 52.3824 21.9223 53.5387 21.7629C54.4261 21.6566 55.179 22.0552 55.1253 22.9055C55.0984 23.4104 54.3723 24.1544 53.8614 24.2607C51.5488 24.6859 49.1824 24.925 46.8429 25.2439C41.7606 25.9082 36.6782 26.5725 31.569 27.2368C29.7404 27.4494 27.9387 27.6885 26.137 27.9277Z" fill="black"/>
<path id="Vector_3" d="M32.3763 15.4652C31.5427 15.5183 30.6553 15.5449 30.4939 14.4554C30.3326 13.3394 31.1124 13.0471 32.0536 12.9142C35.8452 12.4359 39.6637 11.9045 43.4553 11.4262C45.9292 11.1073 48.4032 10.7884 50.8771 10.4696C51.3074 10.4164 51.8183 10.2038 52.1948 10.3633C52.7326 10.5759 53.1628 11.0542 53.6469 11.3996C53.2704 11.8513 52.9746 12.6485 52.5175 12.7282C50.42 13.1534 48.2956 13.366 46.1712 13.6583C41.5729 14.2694 36.9746 14.8806 32.3763 15.4652Z" fill="black"/>
<path id="Vector_4" d="M29.8504 62.4188C29.6084 62.1531 28.8555 61.6747 28.8555 61.223C28.8824 60.7447 29.5815 59.921 30.0656 59.8412C33.2387 59.3098 36.4387 58.9112 39.6387 58.6189C40.1227 58.5658 40.6874 59.2832 41.2252 59.6552C40.8756 60.1335 40.5529 60.9839 40.1227 61.037C36.8958 61.5685 33.5882 61.9405 29.8504 62.4188Z" fill="black"/>
<path id="Vector_5" d="M27.6178 39.407C26.7305 39.4336 25.8162 39.5133 25.7086 38.3175C25.601 37.1483 26.4347 36.9889 27.3489 36.856C28.9355 36.67 30.5221 36.4309 32.1086 36.2183C32.9691 36.112 33.6414 36.3246 33.8027 37.2812C33.9372 38.2112 33.3725 38.663 32.512 38.7958C30.8716 39.0084 29.2313 39.1944 27.6178 39.407Z" fill="black"/>
</g>
</g>
<defs>
<clipPath id="clip0_969_189">
<rect width="80" height="79" fill="white"/>
</clipPath>
</defs>
</svg>
