<svg width="80" height="80" viewBox="0 0 80 80" fill="none" xmlns="http://www.w3.org/2000/svg">
<g id="Frame" clip-path="url(#clip0_969_299)">
<g id="Group">
<path id="Vector" d="M68.8031 54.0569C68.1582 51.783 66.3781 50.3101 63.9273 50.5426C62.0956 50.7235 60.2123 51.2403 58.5613 52.0413C55.9814 53.2817 53.5564 54.8579 51.0798 56.3049C48.7322 57.6486 46.4103 59.0181 43.8821 60.4651C44.6303 56.6925 43.2888 54.2119 40.4768 53.4367C36.8908 52.4289 33.3565 51.292 29.7963 50.2326C28.5322 49.845 27.2681 49.4057 25.9524 49.2507C23.5274 48.9664 21.4378 50 19.3997 51.1628C16.3555 52.9199 13.3113 54.677 10.2156 56.4858C10.0092 56.1499 9.8028 55.8656 9.64801 55.5814C8.3839 53.4625 6.81022 52.9974 4.69477 54.1861C3.68864 54.7545 2.68252 55.323 1.67639 55.9173C0.0769059 56.8992 -0.439057 58.5271 0.43808 60.1292C3.84343 66.2532 7.27458 72.3514 10.7573 78.4238C11.6861 80.0258 13.3629 80.4134 15.014 79.5607C16.1491 78.9664 17.2843 78.3204 18.3678 77.6744C20.0705 76.6408 20.509 74.9871 19.6061 73.23C19.3481 72.7132 19.0385 72.1964 18.7547 71.7054C19.7093 70.9561 20.509 70.4651 21.6699 70.801C26.2104 72.0672 30.7767 73.23 35.2914 74.5478C38.8515 75.5814 42.1021 75.2196 45.2236 73.1266C48.4742 70.9561 51.8537 68.9923 55.1817 66.9509C58.974 64.5995 62.7922 62.2739 66.5845 59.9225C68.5709 58.6563 69.4481 56.3049 68.8031 54.0569ZM16.3813 75.8656C15.401 76.3049 14.4981 76.8992 13.4145 77.4935C13.1308 77.1576 12.8212 76.8217 12.6148 76.46C9.777 71.4729 6.93921 66.46 4.10141 61.447C2.39874 58.4238 2.42454 58.4238 5.39132 56.77C6.88761 55.9432 6.88761 55.9432 7.71315 57.416C10.7831 62.8682 13.8531 68.3463 16.9747 73.7726C17.568 74.8321 17.439 75.3747 16.3813 75.8656ZM65.1398 57.7519C62.044 59.6899 58.9482 61.5762 55.8267 63.4884C51.6216 66.0724 47.4165 68.6305 43.2372 71.2662C41.1733 72.584 39.0063 72.8165 36.7102 72.1705C31.8344 70.8527 26.9586 69.5866 22.1085 68.1912C20.8186 67.8295 19.7093 67.8036 18.6258 68.6305C18.2904 68.8889 17.8776 69.0439 17.4132 69.3023C15.401 65.7364 13.4661 62.2998 11.4797 58.8114C11.7635 58.6047 11.9698 58.3979 12.2278 58.2687C15.0914 56.615 17.955 54.9871 20.7928 53.3075C23.321 51.8088 25.8234 51.3695 28.7386 52.5065C32.273 53.876 35.9879 54.832 39.6254 55.9173C41.1217 56.3566 41.8441 57.3643 41.5603 58.7597C41.3023 59.9483 40.0124 60.6202 38.5677 60.2326C36.2975 59.6383 34.0272 59.0181 31.757 58.3979C31.499 58.3204 31.2668 58.2946 31.0089 58.2171C30.1833 57.9845 29.4868 58.1912 29.2546 59.0181C28.9708 59.9483 29.5384 60.4651 30.3897 60.6977C33.0727 61.4212 35.7299 62.2222 38.4387 62.8424C41.6377 63.5659 44.6819 63.2558 47.5455 61.3437C49.8931 59.7933 52.3955 58.4496 54.8463 57.0284C56.807 55.8915 58.7676 54.7287 60.8057 53.7468C61.7086 53.3075 62.7664 53.1783 63.7725 53.0233C64.9592 52.8682 65.8621 53.385 66.2749 54.5737C66.7135 55.8656 66.2749 57.0543 65.1398 57.7519Z" fill="black"/>
<path id="Vector_2" d="M38.5155 17.3127C41.9724 17.3644 41.9724 17.3644 43.0301 14.1602C43.3655 13.1783 43.6235 12.1964 43.9847 11.2403C44.449 10.0259 45.3778 9.43155 46.6677 9.43155C47.9834 9.45739 48.8863 10.0775 49.2991 11.292C49.8666 12.9199 50.4342 14.522 50.8728 16.1757C51.1307 17.106 51.6209 17.3644 52.5238 17.3385C54.0717 17.261 55.6196 17.2868 57.1675 17.3127C58.8186 17.3385 59.8763 18.0362 60.2891 19.3023C60.7018 20.5685 60.2375 21.7571 58.9218 22.739C57.6061 23.721 56.3162 24.7029 54.9489 25.6073C54.2781 26.0465 54.2007 26.5375 54.4587 27.2093C55.0005 28.7339 55.5164 30.2843 56.0066 31.8347C56.4968 33.4109 56.1872 34.5737 55.0263 35.4005C54.0459 36.1241 52.627 36.0724 51.4403 35.2197C50.1246 34.2636 48.7831 33.3334 47.4932 32.3256C46.8225 31.783 46.3581 31.8605 45.7131 32.3514C44.449 33.3334 43.1591 34.2378 41.8692 35.168C40.5793 36.0982 39.212 36.1757 38.1801 35.4264C37.1224 34.6512 36.7612 33.385 37.2513 31.8347C37.6899 30.4135 38.1285 28.9664 38.6702 27.5711C39.0314 26.6409 38.9798 26.0207 38.0253 25.4522C36.7354 24.677 35.5745 23.721 34.362 22.8424C32.9689 21.8088 32.5561 20.7494 32.9689 19.4057C33.3816 18.062 34.4136 17.3644 36.1678 17.3385C36.9676 17.2868 37.7415 17.2868 38.5155 17.3127ZM39.6248 33.1008C39.728 33.1783 39.857 33.2817 39.9601 33.3592C41.5338 32.2222 43.1075 31.0595 44.707 29.9225C46.1259 28.9148 47.1836 28.9148 48.6025 29.8967C49.5055 30.5427 50.3826 31.2403 51.2855 31.8863C51.9821 32.4031 52.7302 32.8682 53.4268 33.3592C53.5558 32.7649 53.4784 32.3514 53.3752 31.9638C52.9108 30.5427 52.4206 29.1215 51.9563 27.7003C51.3629 25.8398 51.6983 24.8321 53.2462 23.6951C54.5877 22.7132 55.955 21.7313 57.2965 20.7235C57.5029 20.5685 57.6577 20.3359 57.9414 19.9742C57.3997 19.9225 57.0643 19.845 56.7289 19.845C55.0521 19.845 53.3752 19.8708 51.6983 19.845C50.0472 19.8191 49.2991 19.2248 48.7315 17.7003C48.5509 17.1835 48.3961 16.6409 48.2156 16.1241C47.7512 14.7287 47.2868 13.3592 46.7193 11.7055C46.4355 12.2222 46.2807 12.4031 46.2033 12.6357C45.6615 14.2894 45.1456 15.969 44.578 17.6486C44.0621 19.199 43.1849 19.8708 41.5338 19.8967C39.857 19.9225 38.1801 19.8967 36.5032 19.8967C36.1678 19.8967 35.8324 19.9742 35.0843 20.0775C36.8644 21.3695 38.3091 22.429 39.728 23.4884C41.6628 24.9096 41.9466 25.7881 41.1985 28.0104C40.7083 29.6899 40.1665 31.3954 39.6248 33.1008Z" fill="black"/>
<path id="Vector_3" d="M20.3819 29.354C20.8462 27.9587 21.3106 26.615 21.7234 25.2713C22.1103 24.0052 22.8843 23.23 24.2 23.2041C25.5157 23.1783 26.3154 23.9277 26.7024 25.1938C27.1152 26.5375 27.5795 27.8811 28.0697 29.354C29.4886 29.354 30.9591 29.3798 32.4038 29.354C33.6679 29.3282 34.6482 29.8191 35.0352 31.0078C35.448 32.1964 35.0868 33.2817 34.0033 34.0569C33.023 34.7545 32.0168 35.4264 31.1139 36.2016C30.8301 36.4341 30.6753 37.0543 30.7527 37.4419C31.0365 38.6563 31.4235 39.845 31.8362 41.0078C32.2748 42.1964 31.862 43.1266 30.9591 43.8501C30.0562 44.5736 29.05 44.5736 28.0955 43.9276C27.0378 43.2041 25.9801 42.4548 24.9739 41.6537C24.4322 41.2403 24.0452 41.2403 23.5292 41.6537C22.6263 42.3773 21.6718 43.0233 20.743 43.7209C19.7111 44.4961 18.6276 44.6253 17.5441 43.8243C16.4864 43.0491 16.409 41.938 16.7443 40.801C17.0539 39.7416 17.4151 38.6822 17.8021 37.6227C18.06 36.9251 18.0342 36.4599 17.3119 36.0207C16.3316 35.4264 15.4028 34.7028 14.4999 34.0052C13.597 33.3075 13.0294 32.4289 13.4164 31.2145C13.8291 29.9742 14.6805 29.3282 16.022 29.354C17.4151 29.3798 18.8598 29.354 20.3819 29.354ZM16.4864 31.938C16.4606 32.0413 16.409 32.1189 16.3832 32.2222C17.2861 32.8682 18.1632 33.5401 19.0662 34.186C20.6914 35.3747 20.9494 36.1499 20.3045 38.0362C19.9433 39.1214 19.6079 40.2067 19.2468 41.3178C19.4531 41.3178 19.5047 41.3178 19.5305 41.292C20.4593 40.6202 21.4138 39.9483 22.3425 39.2765C23.7872 38.2429 24.6386 38.2429 26.0833 39.2765C27.0636 39.9742 28.0181 40.6977 29.2564 41.5762C28.7663 40.0517 28.4051 38.8889 28.0439 37.7003C27.5537 36.1499 27.8375 35.2972 29.1016 34.3411C30.082 33.6176 31.0623 32.8941 32.0684 32.1705C30.9075 31.9121 29.824 31.9121 28.7147 31.9121C26.6508 31.9121 26.0059 31.447 25.3351 29.4832C24.9739 28.4238 24.6386 27.3385 24.1742 25.9432C23.684 27.4935 23.3487 28.6822 22.9359 29.8708C22.4457 31.3437 21.6202 31.9121 20.0465 31.938C18.8856 31.938 17.6989 31.938 16.4864 31.938Z" fill="black"/>
<path id="Vector_4" d="M69.0346 23.1783C70.2987 23.2817 71.1243 23.9277 71.5112 25.1421C71.8724 26.2791 72.182 27.4677 72.6206 28.553C72.7754 28.9147 73.2913 29.3023 73.6783 29.3282C74.9166 29.4315 76.1807 29.354 77.419 29.3799C78.6315 29.3799 79.4571 29.9483 79.8698 31.0853C80.2568 32.1964 79.9214 33.1266 79.0443 33.8502C78.1672 34.5478 77.29 35.2713 76.3355 35.814C75.3294 36.3825 75.252 37.0801 75.6647 38.0362C76.0259 38.9147 76.2839 39.8191 76.5677 40.7235C76.9546 41.938 76.8515 43.0233 75.7679 43.8501C74.7876 44.6253 73.7299 44.5478 72.4658 43.6434C71.5628 42.9974 70.6341 42.3773 69.7828 41.6538C69.241 41.1887 68.854 41.2662 68.3381 41.6796C67.4351 42.4031 66.4806 43.075 65.5519 43.7468C64.52 44.4961 63.4364 44.677 62.3529 43.8501C61.321 43.075 61.192 42.0155 61.5274 40.8269C61.6048 40.5427 61.708 40.2584 61.8112 39.9742C62.1207 38.8631 62.9205 37.5969 62.6109 36.6925C62.3013 35.7881 60.9082 35.2455 60.0053 34.5478C59.6183 34.2636 59.2313 34.0052 58.896 33.6693C58.1478 32.9458 57.9414 32.0672 58.2768 31.0853C58.638 30.0517 59.3861 29.4574 60.4954 29.4057C61.7338 29.354 62.9979 29.3282 64.2362 29.4057C65.0875 29.4574 65.4487 29.1215 65.6551 28.3204C65.9388 27.2093 66.3258 26.0982 66.687 25.0129C66.9966 23.8502 67.8479 23.2817 69.0346 23.1783ZM69.1378 26.3308C69.0604 26.3566 68.9572 26.3566 68.8798 26.3824C68.5187 27.5194 68.1575 28.6564 67.7705 29.7933C67.2546 31.3695 66.4548 31.938 64.8295 31.938C63.617 31.938 62.4045 31.938 61.192 31.938C62.0949 32.8682 62.9979 33.5659 63.9266 34.2377C65.3971 35.323 65.6551 36.0982 65.1133 37.8812C64.7521 39.044 64.391 40.1809 63.9782 41.4729C64.262 41.3179 64.391 41.2662 64.4942 41.1887C65.3713 40.5685 66.2226 39.9225 67.0998 39.3023C68.5187 38.2688 69.4216 38.2429 70.8405 39.2507C71.8466 39.9742 72.827 40.6977 74.0653 41.5762C73.6267 40.1809 73.2397 39.0439 72.9043 37.907C72.311 36.0207 72.569 35.323 74.1427 34.1602C75.0714 33.4884 75.9743 32.8166 77.2126 31.8863C75.5873 31.8863 74.3748 31.8863 73.1365 31.8863C71.5886 31.8863 70.7631 31.292 70.2729 29.8191C69.886 28.6822 69.5248 27.5194 69.1378 26.3308Z" fill="black"/>
<path id="Vector_5" d="M45.404 3.54007C45.404 2.76487 45.275 1.96384 45.4556 1.24033C45.5846 0.72353 46.2038 -0.0516643 46.5133 1.52569e-05C47.0293 0.0775346 47.8548 0.67185 47.9064 1.11113C48.087 2.71319 48.087 4.36694 47.9064 5.96901C47.8548 6.40828 47.0551 6.97676 46.5391 7.05428C46.2295 7.10596 45.5846 6.33077 45.4556 5.83981C45.275 5.11629 45.404 4.31526 45.404 3.54007Z" fill="black"/>
<path id="Vector_6" d="M31.4202 5.99484C31.833 6.25324 32.22 6.40828 32.478 6.66668C33.5357 7.67443 34.5418 8.70802 35.5737 9.74161C36.1671 10.3359 36.3993 11.0078 35.7543 11.6538C35.0836 12.3256 34.3612 12.1706 33.7421 11.5504C32.7101 10.5168 31.6266 9.53489 30.6979 8.42378C30.4141 8.08787 30.3109 7.39019 30.4141 6.92507C30.4915 6.58916 31.0333 6.33076 31.4202 5.99484Z" fill="black"/>
<path id="Vector_7" d="M63.0254 7.15764C63.0254 8.2946 59.3621 12.1189 58.5365 12.0414C58.1238 12.0155 57.5562 11.7313 57.4272 11.4212C57.2466 11.0336 57.2982 10.3101 57.5562 10C58.6655 8.75971 59.8522 7.59692 61.0906 6.48581C61.3485 6.25325 61.9935 6.22741 62.3547 6.38245C62.69 6.51165 62.9222 7.00261 63.0254 7.15764Z" fill="black"/>
<path id="Vector_8" d="M7.55882 59.6899C7.55882 60.4393 6.93967 61.0595 6.19152 61.0595C5.44337 61.0595 4.82422 60.4393 4.82422 59.6899C4.82422 58.9406 5.44337 58.3204 6.19152 58.3204C6.93967 58.3204 7.55882 58.9148 7.55882 59.6899Z" fill="black"/>
</g>
</g>
<defs>
<clipPath id="clip0_969_299">
<rect width="80" height="80" fill="white"/>
</clipPath>
</defs>
</svg>
