<svg width="51" height="80" viewBox="0 0 51 80" fill="none" xmlns="http://www.w3.org/2000/svg">
<g id="Frame" clip-path="url(#clip0_969_518)">
<g id="Group">
<path id="Vector" d="M25.4877 51.6161C33.2096 51.6161 40.9568 51.6161 48.6787 51.6161C50.7984 51.6161 50.9751 51.7912 50.9751 53.8668C50.9751 55.0422 50.9499 56.1926 50.9751 57.3679C51.0003 58.2182 50.647 58.7934 49.8395 58.9184C47.2151 59.3435 45.7767 60.744 44.8934 63.3198C44.313 64.9953 44.2626 66.1707 45.1206 67.6461C46.3571 69.7968 46.2814 69.8468 44.5402 71.5474C43.5812 72.4977 42.6223 73.4229 41.6886 74.3732C41.0325 75.0735 40.3007 75.1985 39.5436 74.6733C37.55 73.2979 35.7331 73.1229 33.361 74.2482C31.4936 75.1235 30.459 76.0488 29.9795 77.9744C29.4748 80 29.3487 79.975 27.3046 79.975C25.7905 79.975 24.2764 79.95 22.7623 79.975C21.9043 80 21.2987 79.5999 21.1977 78.8246C20.8192 76.0988 19.2294 74.7734 16.6302 73.8731C15.0404 73.3229 13.8544 73.2229 12.5169 74.1232C12.0627 74.4233 11.558 74.7484 11.0533 74.8234C10.5486 74.8984 9.81675 74.8484 9.46346 74.5483C8.05029 73.2979 6.6876 71.9975 5.47632 70.5721C5.12303 70.1719 5.02209 69.1216 5.29968 68.6965C6.73807 66.5708 6.73807 64.6952 5.6025 62.3195C4.79498 60.6189 3.93699 59.7187 2.19577 59.2685C-0.05015 58.6933 -0.024915 58.5933 -0.024915 56.2926C-0.024915 55.2923 0.025555 54.292 -0.024915 53.2917C-0.10062 52.0913 0.505021 51.6411 1.6406 51.6411C3.91175 51.6411 6.1829 51.6411 8.45406 51.6411C14.1319 51.6161 19.8098 51.6161 25.4877 51.6161ZM10.7252 72.2476C11.7094 71.7724 12.6178 71.3473 13.5011 70.8471C14.3843 70.322 15.1666 70.322 16.075 70.8972C16.9078 71.4223 17.8415 72.0225 18.8004 72.1475C21.5006 72.5227 22.7876 74.0982 23.1661 76.5989C23.2923 77.3492 23.696 77.4992 24.3774 77.4992C27.557 77.5492 27.5822 77.5742 28.5411 74.4733C28.844 73.523 29.3739 73.0478 30.2824 72.7227C31.9226 72.1475 33.5124 71.3723 35.1527 70.7971C35.7836 70.5721 36.6164 70.547 37.2472 70.7471C38.3071 71.0972 39.266 71.7224 40.3007 72.2476C41.1334 71.3973 41.9409 70.5971 42.7232 69.7968C42.8746 69.6468 43.0008 69.4967 43.1522 69.2967C42.8999 68.7715 42.698 68.1963 42.3699 67.7212C41.2344 66.1207 41.0577 64.5702 42.3699 62.9697C42.6475 62.6196 42.8494 62.1694 42.9251 61.7193C43.3793 58.9684 44.843 57.2679 47.745 56.8928C48.0226 56.8678 48.3506 56.3176 48.4263 55.9425C48.5273 55.3673 48.4516 54.7421 48.4516 54.0169C44.5906 54.0169 40.8811 54.0169 37.1968 54.0169C36.9444 54.0169 36.7173 54.0919 36.4902 54.1169C35.4051 61.5942 31.5189 65.4955 25.2606 65.4204C19.3304 65.3454 15.3937 61.2441 14.5357 54.0919C10.5738 54.0919 6.6119 54.0919 2.65 54.0919C2.34718 56.6177 2.34718 56.6177 4.6688 57.3679C4.99686 57.468 5.29968 57.568 5.62773 57.643C6.51096 57.8681 6.99042 58.3932 7.29324 59.2935C7.84841 60.944 8.52976 62.5445 9.31205 64.095C9.69057 64.8953 9.76628 65.5455 9.33728 66.3207C8.80735 67.296 8.32788 68.2963 7.84842 69.2466C8.83258 70.347 9.74104 71.2723 10.7252 72.2476ZM17.1854 54.1419C16.9835 57.468 18.2957 59.9687 21.0211 61.6693C24.0241 63.5699 27.1785 63.5198 30.131 61.5942C32.7554 59.8687 34.0424 57.3929 33.8405 54.1419C28.2383 54.1419 22.7623 54.1419 17.1854 54.1419Z" fill="black"/>
<path id="Vector_2" d="M10.8783 24.2076C10.8783 17.8806 14.4364 12.5789 20.0134 10.3032C25.3884 8.10253 31.672 9.37793 35.8357 13.5292C39.9743 17.6305 41.4127 23.9575 39.0911 29.0591C38.2583 30.9097 36.8956 32.6102 35.5077 34.1357C33.6655 36.1613 32.5804 38.362 32.8328 41.1379C33.287 45.9144 29.956 49.3154 24.2024 48.6402C20.4424 48.2151 18.0198 45.6893 18.2217 41.9381C18.3983 38.6121 17.3637 35.9612 14.9916 33.6355C12.2915 30.9847 10.7521 27.7587 10.8783 24.2076ZM26.7764 37.2116C28.0129 37.2116 29.0475 37.2366 30.1074 37.1866C30.3345 37.1866 30.7383 37.0116 30.7887 36.8365C31.571 34.5358 33.2618 32.8853 34.8516 31.1847C39.2172 26.5083 38.1826 18.7809 33.5141 14.7296C28.9466 10.7534 21.8051 10.8284 17.3132 14.9047C12.7709 19.0309 11.9886 26.5833 16.0262 31.0097C17.7422 32.8603 19.6348 34.6358 20.3162 37.1366C21.6789 37.1366 22.9154 37.1366 24.2529 37.1366C24.2529 35.186 24.2529 33.3354 24.2529 31.4598C24.2276 29.6843 24.6819 27.7837 22.8145 26.4583C22.5873 26.3082 22.6631 25.2579 22.9406 24.9828C23.2182 24.6827 23.9753 24.7077 24.48 24.8078C24.8585 24.9078 25.1866 25.3329 25.5398 25.633C25.9184 25.3079 26.196 24.8828 26.5492 24.8078C27.0539 24.7077 27.8615 24.6827 28.0886 24.9578C28.3662 25.3329 28.3409 26.1082 28.1391 26.5833C27.8362 27.2585 26.8773 27.8087 26.8521 28.4339C26.6754 31.3348 26.7764 34.1857 26.7764 37.2116ZM30.2588 39.7874C27.0035 39.7874 23.8996 39.7874 20.7704 39.7874C20.7704 40.4376 20.7704 41.0128 20.7704 41.613C23.95 41.613 27.0792 41.613 30.2588 41.613C30.2588 40.9878 30.2588 40.4376 30.2588 39.7874ZM29.6027 44.2888C26.8016 44.2888 24.1267 44.2888 21.3761 44.2888C23.1173 46.8897 27.9876 46.8646 29.6027 44.2888Z" fill="black"/>
<path id="Vector_3" d="M26.7489 3.07596C26.7489 3.75117 26.9003 4.45139 26.6984 5.05158C26.5217 5.52673 25.9161 6.12691 25.4871 6.12691C25.0833 6.12691 24.3768 5.47671 24.3011 5.05158C24.1496 3.77618 24.1496 2.47577 24.3011 1.20038C24.3515 0.750234 24.9824 0.150047 25.4619 0.0500156C26.2189 -0.125039 26.6984 0.475148 26.7489 1.22538C26.7993 1.82557 26.7489 2.45077 26.7489 3.07596Z" fill="black"/>
<path id="Vector_4" d="M13.4515 10.6283C13.1992 10.9284 12.972 11.4036 12.6188 11.5536C12.2655 11.7037 11.6346 11.6536 11.357 11.4036C10.3224 10.5033 9.31296 9.52798 8.45497 8.47765C8.20262 8.17756 8.25309 7.37731 8.50544 7.07721C8.75779 6.77712 9.66625 6.52704 9.89337 6.7271C11.1046 7.75242 12.1645 8.90278 13.2749 10.0281C13.3506 10.1532 13.3506 10.3532 13.4515 10.6283Z" fill="black"/>
<path id="Vector_5" d="M4.66922 24.9828C4.01311 24.9828 3.2813 25.1078 2.67566 24.9328C2.22143 24.8078 1.56532 24.2326 1.59055 23.9075C1.61579 23.4323 2.14572 22.6571 2.54948 22.6321C3.91217 22.457 5.3001 22.457 6.66279 22.6071C7.09179 22.6571 7.72266 23.4073 7.72266 23.8324C7.72266 24.2326 7.04132 24.7827 6.53662 24.9328C5.98145 25.1329 5.3001 24.9828 4.66922 24.9828Z" fill="black"/>
<path id="Vector_6" d="M46.3084 24.9828C45.6775 24.9828 44.9962 25.1329 44.441 24.9328C43.9615 24.7577 43.3559 24.2326 43.2802 23.7824C43.2297 23.4323 43.8606 22.6571 44.2391 22.6071C45.6271 22.457 47.0655 22.457 48.4786 22.6071C48.8571 22.6571 49.3871 23.4323 49.4123 23.9075C49.4123 24.2576 48.7562 24.7827 48.302 24.9328C47.6963 25.1329 46.9897 24.9828 46.3084 24.9828Z" fill="black"/>
<path id="Vector_7" d="M37.5508 10.6033C37.677 10.3032 37.7274 10.0782 37.8536 9.9281C38.863 8.87777 39.8472 7.77743 40.9575 6.85214C41.2351 6.62707 42.1688 6.75211 42.4716 7.0522C42.7492 7.32729 42.7997 8.22757 42.5473 8.55267C41.6893 9.603 40.6799 10.5533 39.6453 11.4536C39.3677 11.6786 38.7368 11.7287 38.3835 11.5786C38.0302 11.4036 37.8031 10.9034 37.5508 10.6033Z" fill="black"/>
<path id="Vector_8" d="M13.4741 36.9365C13.2975 37.3367 13.247 37.6368 13.0451 37.8368C12.1114 38.7871 11.2282 39.8124 10.1683 40.6127C9.84027 40.8628 8.95705 40.7878 8.52805 40.5377C7.89717 40.1626 7.92241 39.4623 8.45235 38.9372C9.36081 38.0119 10.244 37.0616 11.2282 36.2363C11.531 35.9862 12.1871 35.9112 12.5909 36.0363C12.9694 36.1363 13.1965 36.6365 13.4741 36.9365Z" fill="black"/>
<path id="Vector_9" d="M42.9749 39.8625C42.6973 40.1876 42.4702 40.6627 42.1169 40.8128C41.7636 40.9628 41.1328 40.9128 40.8552 40.6877C39.8205 39.7874 38.8111 38.8371 37.9532 37.7618C37.7008 37.4617 37.8017 36.5864 38.0793 36.2613C38.3064 35.9862 39.2401 35.8362 39.4925 36.0613C40.6281 37.0116 41.6627 38.1369 42.6973 39.2123C42.8235 39.3373 42.874 39.5624 42.9749 39.8625Z" fill="black"/>
</g>
</g>
<defs>
<clipPath id="clip0_969_518">
<rect width="51" height="80" fill="white"/>
</clipPath>
</defs>
</svg>
