<svg width="81" height="80" viewBox="0 0 81 80" fill="none" xmlns="http://www.w3.org/2000/svg">
<g id="Frame" clip-path="url(#clip0_969_381)">
<g id="Group">
<path id="Vector" d="M21.5595 50.566C25.536 49.1347 29.5386 48.2238 33.672 48.5621C37.0991 48.8224 40.5 49.3689 43.8748 49.9414C45.5229 50.2277 46.9094 50.2537 48.3483 49.1607C50.3627 47.6513 52.534 46.35 54.653 44.9967C57.9493 42.9408 61.2979 43.5394 63.6524 46.5322C67.6027 44.9447 70.4019 45.6213 72.4424 48.6923C74.2476 48.0156 76.0788 47.9115 77.8839 48.7443C79.2443 49.3689 80.3954 50.2277 80.5 51.8673C80.6046 53.4288 79.6628 54.4437 78.4594 55.2505C75.5294 57.2023 72.5733 59.1021 69.6171 61.028C63.4693 65.0358 57.2953 69.0176 51.1475 73.0514C47.485 75.4717 43.5608 75.836 39.4274 74.6129C36.4189 73.728 33.4627 72.7391 30.4019 72.0885C27.655 71.5159 24.8296 71.5159 22.3182 73.1034C21.9258 73.3637 21.5072 73.8842 21.4549 74.3526C20.9055 77.6838 18.2894 79.974 14.9408 80C12.3247 80 9.70863 80 7.09254 80C3.35154 79.974 0.630804 77.5537 0.578483 73.8321C0.473839 66.4151 0.473839 58.998 0.578483 51.581C0.630804 48.2238 2.74984 45.8816 6.12459 45.5953C9.31622 45.3351 12.5602 45.3871 15.778 45.5433C18.5772 45.6734 20.4084 47.3129 21.2456 49.9935C21.2979 50.1757 21.4026 50.3058 21.5595 50.566ZM21.4549 70.6832C22.5013 70.2668 23.2861 69.7983 24.0971 69.6422C27.001 69.1477 29.9048 69.1997 32.7564 70.0325C35.0062 70.7092 37.2561 71.3598 39.4797 72.0625C43.3515 73.2596 46.9094 72.9213 50.3888 70.5791C58.9173 64.8796 67.5504 59.3364 76.1311 53.7411C76.5235 53.4808 76.9683 53.2466 77.3345 52.9603C78.1455 52.3097 78.1194 51.8152 77.2299 51.2687C75.8957 50.4359 74.5092 50.4359 73.1488 51.1906C72.4686 51.581 71.8146 52.0234 71.1606 52.4398C68.4922 54.1574 65.8499 55.9271 63.1292 57.5667C62.6844 57.8269 61.8734 57.7749 61.3764 57.5407C61.1148 57.4105 61.1148 56.5517 61.2194 56.0573C61.2717 55.771 61.7688 55.5368 62.0827 55.3286C64.4634 53.715 66.8702 52.1796 69.1985 50.514C70.1665 49.8373 70.0618 49.2128 68.9892 48.6923C67.5242 47.9896 66.0592 48.0156 64.6465 48.9265C61.5072 50.9824 58.3941 53.0124 55.2547 55.0683C54.9931 55.2505 54.6269 55.5107 54.5746 55.797C53.9467 59.0241 51.4876 60.0651 48.7145 60.4294C44.4503 60.9759 40.1861 60.5595 35.948 60.013C35.0324 59.8829 34.4045 59.5446 34.5092 58.5556C34.6138 57.6187 35.3201 57.4366 36.1573 57.5407C37.7531 57.6968 39.3489 57.9571 40.9709 57.9831C43.7178 58.0091 46.4647 58.0091 49.1854 57.8009C50.3103 57.7228 51.5922 57.2023 51.88 55.9011C52.1416 54.704 51.3044 53.8972 49.4209 53.4027C48.636 53.1945 47.7989 53.1425 46.9879 53.0124C42.9591 52.3878 38.9303 51.607 34.8754 51.1386C30.4804 50.6181 26.2162 51.4249 22.0827 52.9863C21.7426 53.1165 21.4026 53.8191 21.4026 54.2615C21.3502 57.9831 21.3764 61.7306 21.3764 65.4522C21.4549 67.1438 21.4549 68.8094 21.4549 70.6832ZM18.9957 62.6415C18.9957 59.0501 18.9957 55.4327 18.9696 51.8412C18.9434 49.525 17.4261 47.9896 15.1239 47.9896C12.377 47.9636 9.63015 47.9636 6.88326 47.9896C4.65958 48.0156 3.08993 49.5251 3.08993 51.7372C3.06377 59.0761 3.06377 66.3891 3.08993 73.728C3.08993 75.9922 4.5811 77.4236 6.88326 77.4496C9.55167 77.4756 12.1939 77.3455 14.8623 77.4756C17.2691 77.6057 19.0481 75.5238 19.0219 73.3117C18.9696 69.7463 18.9957 66.1809 18.9957 62.6415ZM53.9205 52.9343C56.0919 51.529 58.3679 50.0976 60.5916 48.6142C61.481 48.0156 61.481 47.339 60.4869 47.0007C59.4666 46.6363 58.1063 46.2199 57.2953 46.6103C54.8623 47.7814 52.6387 49.3169 50.3103 50.7482C51.5922 51.529 52.6648 52.1796 53.9205 52.9343Z" fill="black"/>
<path id="Vector_2" d="M35.4756 32.1405C36.1034 31.2557 36.4958 30.527 37.0452 29.9805C38.0917 28.9135 37.987 28.0026 37.5423 26.5712C36.8359 24.3591 35.5279 23.7606 33.5135 23.7345C32.3624 23.7085 31.7869 23.11 31.8392 21.8868C31.8915 20.5856 31.8654 19.2843 31.8392 17.9831C31.8392 17.0982 32.2578 16.4476 33.1211 16.4997C35.9465 16.7079 37.2022 15.0683 37.8039 12.674C37.9347 12.1796 37.8824 11.529 37.6469 11.0865C37.2284 10.3318 36.6005 9.70722 36.0773 9.00455C35.5802 8.32791 35.5802 7.65127 36.1819 7.02668C37.1237 6.06376 38.0393 5.07482 38.9811 4.11191C39.6613 3.38321 40.3677 3.27912 41.1263 3.98178C41.1525 4.00781 41.2048 4.03383 41.231 4.05986C42.9053 6.50618 44.9981 6.21991 47.1695 4.89265C47.5881 4.6324 47.9282 3.98178 47.9805 3.48731C48.3467 0.052049 48.3206 0.0260244 51.8261 0.0520491C55.2009 0.0780739 55.4363 -0.676643 55.6979 3.33116C55.7503 4.18998 55.9334 4.97072 57.0583 5.02277C57.2153 5.02277 57.3984 5.12687 57.5292 5.23097C59.3343 6.58426 60.7732 5.95966 62.2382 4.58035C63.4677 3.40924 63.8863 3.53936 65.0635 4.76252C65.8745 5.59532 66.6855 6.45413 67.4965 7.28692C68.0982 7.91152 68.3075 8.66623 67.6796 9.23878C65.6391 11.0865 65.4298 13.0124 66.8686 15.3286C67.2611 15.9532 67.4965 16.3435 68.229 16.4476C72.2316 17.0202 71.8654 16.4476 71.9177 20.6897C71.97 24.5673 71.6561 23.7345 68.6476 24.203C67.8366 24.3331 67.3657 24.5153 67.2087 25.3221C67.1302 25.7905 66.9733 26.2589 66.6855 26.6493C65.7176 27.9506 65.9268 29.0696 67.0779 30.1366C67.418 30.4489 67.6796 30.8653 67.9674 31.2557C68.4645 31.9323 68.4906 32.609 67.8628 33.2596C66.8948 34.2485 65.9268 35.2635 64.9589 36.2785C64.331 36.9291 63.5724 37.0332 62.9968 36.4086C61.1917 34.4047 59.282 34.2746 56.9798 35.6278C56.2996 36.0442 55.8811 36.2524 55.8811 37.0592C55.8811 37.8399 55.8549 38.6727 55.5671 39.3494C55.3578 39.8699 54.73 40.5205 54.2329 40.5986C52.7679 40.7547 51.2767 40.6506 49.7856 40.6506C48.8438 40.6506 48.3206 40.026 48.3991 39.2453C48.6607 36.5908 47.3265 35.3156 44.9197 34.6389C44.0825 34.4047 43.5855 34.2746 42.8791 34.8471C39.6352 37.4496 40.1584 37.1893 37.4376 34.4047C36.7836 33.702 36.1819 32.9473 35.4756 32.1405ZM40.2892 33.702C41.1786 33.0254 41.9373 32.2967 42.8529 31.8022C43.3762 31.542 44.161 31.4639 44.7104 31.6721C46.2539 32.2186 47.7712 32.8953 49.21 33.65C49.7333 33.9102 50.2303 34.5088 50.4134 35.0553C50.7012 35.9922 50.7274 37.0072 50.8582 38.0221C51.6692 38.0221 52.4278 38.0221 53.265 38.0221C53.3696 37.0332 53.3696 36.0442 53.6312 35.1594C53.8144 34.5869 54.2591 33.9362 54.7823 33.676C56.2473 32.9473 57.7908 32.3487 59.3343 31.8543C59.9098 31.6721 60.6424 31.7762 61.2179 31.9323C61.6888 32.0625 62.1074 32.4789 62.4736 32.8692C63.4154 33.8582 64.2002 33.8061 64.9327 32.661C65.0635 32.4528 65.2205 32.2707 65.3775 32.0625C65.0897 31.6721 64.9066 31.3338 64.6188 31.0735C62.9968 29.5641 62.5783 27.9766 64.1479 26.1548C64.3572 25.8946 64.5403 25.5303 64.5665 25.218C64.7758 22.4333 66.5024 21.5745 69.04 21.6265C69.1185 21.6265 69.1708 21.5485 69.2754 21.4964C69.2754 20.7157 69.2754 19.9089 69.2754 19.1021C68.3336 18.972 67.4703 18.998 66.7117 18.7378C66.0315 18.5036 65.2205 18.1132 64.9327 17.5407C64.1479 16.0573 63.5724 14.4697 63.0492 12.8822C62.866 12.3097 62.9445 11.529 63.2323 11.0085C63.7293 10.0976 64.4618 9.34288 65.142 8.48406C64.5926 7.88549 64.0694 7.31295 63.52 6.7404C62.7352 7.33897 62.0027 7.83344 61.3487 8.40599C60.4854 9.18673 59.7267 9.23878 58.6803 8.61418C57.5815 7.96357 56.352 7.44307 55.0962 7.10475C53.9713 6.81848 53.4743 6.21991 53.3958 5.1529C53.3173 4.26805 53.2127 3.38321 53.1342 2.47235C52.2447 2.47235 51.5122 2.47235 50.7274 2.47235C50.5966 3.53936 50.4658 4.5283 50.3611 5.51724C50.2826 6.37606 49.7856 6.76643 49.0008 7.0527C47.6142 7.54717 46.2015 8.01562 44.9458 8.71828C43.9779 9.23878 43.35 9.10865 42.6175 8.45804C41.8588 7.78139 41.0478 7.13077 40.2369 6.45413C39.6352 7.10475 39.1381 7.62524 38.6672 8.11971C39.3212 8.97853 39.8444 9.73325 40.4461 10.4099C41.1786 11.2167 41.1263 11.9453 40.6554 12.8822C39.9752 14.2355 39.5828 15.6929 38.9288 17.0462C38.6934 17.5407 38.144 18.0872 37.6469 18.2433C36.6528 18.5817 35.5541 18.6597 34.5338 18.8159C34.5338 19.7267 34.5338 20.5075 34.5338 21.2622C35.6325 21.4444 36.679 21.5224 37.6731 21.8087C38.1701 21.9649 38.6934 22.4333 38.9027 22.9018C39.5567 24.3071 40.0014 25.8165 40.6816 27.1958C41.1263 28.0807 41.1786 28.7833 40.5246 29.5641C39.8968 30.3188 39.3212 31.1256 38.6934 31.9323C39.2166 32.583 39.7136 33.1034 40.2892 33.702Z" fill="black"/>
<path id="Vector_3" d="M10.9893 75.3156C8.21622 75.3156 5.94022 73.0514 5.91406 70.2668C5.91406 67.404 8.1639 65.1659 11.0416 65.1659C13.8408 65.1659 16.1168 67.4301 16.143 70.1887C16.1691 72.9994 13.8408 75.3156 10.9893 75.3156ZM13.5792 70.1887C13.553 68.7834 12.4281 67.6903 10.9893 67.6903C9.55043 67.6903 8.42551 68.7833 8.42551 70.2147C8.42551 71.6981 9.55043 72.7651 11.0939 72.7391C12.5589 72.7131 13.6054 71.62 13.5792 70.1887Z" fill="black"/>
<path id="Vector_4" d="M49.3672 23.11C51.4077 21.028 53.2128 19.1802 55.0441 17.3325C55.7504 16.6298 56.4568 15.9271 57.1631 15.2245C57.791 14.5738 58.5235 14.1054 59.2822 14.9122C60.0147 15.6929 59.5438 16.3956 58.9159 17.0462C56.169 19.7528 53.4483 22.5114 50.7014 25.218C49.7334 26.1809 49.1056 26.1809 48.1638 25.27C47.1173 24.229 46.0709 23.188 45.0245 22.147C44.4228 21.5485 44.1873 20.8718 44.8413 20.2212C45.4954 19.5706 46.1755 19.7528 46.7772 20.3774C47.5621 21.2102 48.3731 22.069 49.3672 23.11Z" fill="black"/>
</g>
</g>
<defs>
<clipPath id="clip0_969_381">
<rect width="80" height="80" fill="white" transform="translate(0.5)"/>
</clipPath>
</defs>
</svg>
