<svg width="60" height="60" viewBox="0 0 60 60" fill="none" xmlns="http://www.w3.org/2000/svg">
<g id="Group 1000009879">
<circle id="Ellipse 570" opacity="0.5" cx="30" cy="30" r="29.5" stroke="black"/>
<g id="Group">
<path id="Vector" d="M22.2443 16.6059C22.2443 16.1852 22.2443 15.8139 22.2443 15.4427C22.2443 14.7744 22.5136 14.5269 23.2407 14.5021C23.9678 14.4774 24.7218 14.5269 25.4489 14.4774C25.6374 14.4774 25.9336 14.3041 26.0144 14.1556C26.8492 12.6953 28.1688 11.9528 29.9731 12.0023C31.7235 12.0271 33.043 12.6954 33.8509 14.1804C33.9317 14.3289 34.1741 14.4774 34.3626 14.4774C35.1166 14.5021 35.8706 14.4774 36.6247 14.5021C37.4056 14.5021 37.7018 14.7744 37.7018 15.4922C37.7018 15.8387 37.7018 16.1852 37.7018 16.5812C38.7521 16.5812 39.7754 16.5812 40.7718 16.5812C43.357 16.5812 44.9728 18.0415 44.9728 20.4175C44.9728 28.0655 44.9459 35.7381 44.9997 43.3861C45.0267 45.6879 43.0877 46.9997 41.0411 46.9997C35.6821 46.9749 30.3232 46.9997 24.9642 46.9997C22.9714 46.9997 20.9517 46.9749 18.9589 46.9997C16.9392 47.0244 14.9733 45.7126 15.0003 43.3861C15.0541 35.7381 15.0272 28.0655 15.0272 20.4175C15.0272 18.0662 16.643 16.5812 19.1743 16.5812C20.1438 16.6059 21.1402 16.6059 22.2443 16.6059ZM22.2443 18.2395C21.1941 18.2395 20.2515 18.2395 19.309 18.2395C17.5586 18.2395 16.8046 18.9325 16.8046 20.5165C16.8046 28.115 16.8315 35.7134 16.7776 43.3118C16.7776 44.8464 17.8009 45.3166 18.9589 45.3166C26.2837 45.3166 33.6086 45.3166 40.9064 45.3166C42.4414 45.3166 43.0877 44.6979 43.0877 43.2871C43.0877 35.7134 43.0877 28.115 43.0877 20.5413C43.0877 20.3185 43.0877 20.0958 43.0608 19.8978C42.9262 19.0562 42.3068 18.3632 41.3912 18.289C40.1793 18.2147 38.9406 18.2642 37.648 18.2642C37.648 18.883 37.648 19.4523 37.648 20.0215C37.648 20.8135 37.271 21.16 36.4092 21.16C32.0736 21.16 27.711 21.16 23.3753 21.16C22.5944 21.16 22.2174 20.8135 22.1904 20.0958C22.2443 19.5265 22.2443 18.9325 22.2443 18.2395ZM35.8437 16.1604C35.0089 16.1604 34.2818 16.1604 33.5547 16.1604C32.8007 16.1604 32.5583 15.9872 32.3429 15.3684C31.9389 14.2546 30.9964 13.5616 29.8923 13.5616C28.7882 13.5616 27.8187 14.2794 27.4417 15.3932C27.2532 15.9377 26.93 16.2099 26.2837 16.1852C25.5566 16.1604 24.8295 16.1852 24.1294 16.1852C24.1294 17.3485 24.1294 18.4375 24.1294 19.5513C24.3987 19.5513 24.6141 19.5513 24.8295 19.5513C27.1993 19.5513 29.5691 19.5513 31.9659 19.5513C33.0969 19.5513 34.2279 19.5513 35.359 19.5513C35.6552 19.5513 35.8706 19.5513 35.8706 19.18C35.8437 18.19 35.8437 17.2 35.8437 16.1604Z" fill="#0B60FF"/>
<path id="Vector_2" d="M34.286 39.1044C35.9287 39.1044 37.5714 39.1044 39.2141 39.1044C39.9681 39.1044 40.3721 39.4014 40.3721 39.9212C40.3721 40.4409 39.9412 40.7627 39.241 40.7627C35.9018 40.7627 32.5895 40.7627 29.2502 40.7627C28.3885 40.7627 27.8499 40.0944 28.3077 39.5252C28.4962 39.3024 28.9271 39.1291 29.2502 39.1044C30.9198 39.0796 32.6164 39.1044 34.286 39.1044Z" fill="#0B60FF"/>
<path id="Vector_3" d="M34.2818 25.7638C35.9514 25.7638 37.6211 25.7638 39.2638 25.7638C39.9639 25.7638 40.3679 26.036 40.3679 26.5558C40.3948 27.0756 39.9639 27.3973 39.2368 27.3973C35.8976 27.3973 32.5853 27.3973 29.246 27.3973C28.5458 27.3973 28.1688 27.1003 28.1419 26.5805C28.115 26.036 28.5189 25.739 29.2729 25.739C30.9426 25.7638 32.6122 25.7638 34.2818 25.7638Z" fill="#0B60FF"/>
<path id="Vector_4" d="M34.3092 32.446C35.9519 32.446 37.5946 32.446 39.2373 32.446C39.9913 32.446 40.3952 32.743 40.3683 33.2628C40.3683 33.7826 39.9374 34.0796 39.2103 34.0796C35.8711 34.0796 32.5587 34.0796 29.2195 34.0796C28.7617 34.0796 28.3577 33.9558 28.2231 33.535C28.1423 33.2628 28.2231 32.8915 28.3847 32.6935C28.5463 32.5203 28.9233 32.4213 29.2195 32.4213C30.943 32.4213 32.6395 32.446 34.3092 32.446Z" fill="#0B60FF"/>
<path id="Vector_5" d="M22.3265 26.4318C23.2152 25.6397 24.1039 24.8477 25.0464 24.0804C25.2618 23.8824 25.6389 23.7092 25.9082 23.7339C26.1775 23.7587 26.5545 24.0309 26.6353 24.2537C26.743 24.4764 26.6353 24.8972 26.4467 25.0705C25.2888 26.1347 24.1039 27.1743 22.892 28.2138C22.4881 28.5603 22.0303 28.5356 21.6264 28.1643C21.0339 27.6198 20.4415 27.0753 19.8759 26.5307C19.4451 26.11 19.4181 25.5902 19.7952 25.2685C20.1722 24.922 20.6838 24.9467 21.1416 25.3675C21.5456 25.714 21.9226 26.0605 22.3265 26.4318Z" fill="#0B60FF"/>
<path id="Vector_6" d="M22.3032 39.8218C23.2188 39.005 24.1075 38.2377 24.9693 37.4705C25.1308 37.322 25.3193 37.1487 25.5348 37.0992C25.9387 36.9755 26.3157 37.0992 26.585 37.421C26.8274 37.7675 26.8274 38.1387 26.5042 38.411C25.3193 39.4753 24.1075 40.5395 22.8957 41.5791C22.5187 41.9008 22.0609 41.9008 21.6839 41.5296C21.0914 40.9851 20.472 40.4158 19.9065 39.8465C19.5026 39.4505 19.4756 38.906 19.8526 38.5842C20.2566 38.2377 20.7144 38.2872 21.1991 38.7327C21.3876 38.906 21.5492 39.0792 21.7377 39.2525C21.8993 39.4258 22.0609 39.599 22.3032 39.8218Z" fill="#0B60FF"/>
<path id="Vector_7" d="M22.322 33.1148C23.2376 32.298 24.1263 31.5307 25.015 30.7387C25.392 30.3922 25.8229 30.2189 26.3345 30.5159C26.7923 30.7882 26.927 31.3575 26.523 31.704C25.3112 32.793 24.0724 33.882 22.8337 34.9215C22.4836 35.2186 22.0258 35.1691 21.6488 34.8473C21.0563 34.3028 20.437 33.7335 19.8714 33.1642C19.4675 32.7682 19.4406 32.2237 19.8445 31.902C20.2215 31.5802 20.7063 31.6297 21.1641 32.0257C21.5141 32.3722 21.8912 32.7187 22.322 33.1148Z" fill="#0B60FF"/>
</g>
</g>
</svg>
