<svg width="60" height="60" viewBox="0 0 60 60" fill="none" xmlns="http://www.w3.org/2000/svg">
<g id="Group 1000009539">
<g id="Group 1000009878">
<circle id="Ellipse 569" opacity="0.5" cx="30" cy="30" r="29.5" stroke="black"/>
<g id="Group">
<path id="Vector" d="M19.5604 35.7077C20.0808 35.3646 20.5707 35.0787 20.9992 34.7357C23.6014 32.5344 26.4484 32.2485 29.6015 33.5635C30.3975 33.9066 31.3771 33.9066 32.2955 34.0495C33.7955 34.2497 35.1119 33.9066 36.367 33.1061C37.6222 32.3342 38.9385 32.2485 40.2549 32.9918C40.408 33.0775 40.6529 33.0489 40.8365 32.9632C41.7856 32.5915 42.6733 32.7059 43.4387 33.2776C43.7448 33.5064 43.9897 33.5349 44.3571 33.4206C45.551 32.9918 46.8673 33.3348 47.6633 34.2497C48.1531 34.8214 48.1225 35.0501 47.4796 35.479C44.6938 37.2514 41.9386 39.0239 39.1528 40.7964C38.0201 41.5111 36.9487 42.3116 35.5405 42.6261C33.9486 42.9691 32.3873 42.7404 30.7954 42.4545C29.2342 42.1686 27.6729 41.8828 26.1116 41.654C25.7443 41.5969 25.2545 41.6541 24.9483 41.8256C23.9687 42.3402 23.0503 42.9119 22.0707 43.5123C22.3462 44.3985 22.6217 45.2562 22.8973 46.1138C23.1115 46.8 22.9585 47.0001 22.1932 47.0001C19.9278 47.0001 17.6624 47.0001 15.397 47.0001C14.846 47.0001 14.6317 46.8286 14.5705 46.314C14.1113 42.769 13.6215 39.1954 13.1623 35.6505C13.1011 35.1931 13.0704 34.7357 13.0092 34.2782C12.948 33.7922 13.1929 33.5349 13.7133 33.5349C15.2134 33.5349 16.744 33.5064 18.2441 33.5635C18.489 33.5635 18.8257 33.8494 18.9482 34.0781C19.2237 34.5641 19.3461 35.0787 19.5604 35.7077ZM21.7646 42.4831C22.6523 41.9685 23.4483 41.5111 24.2442 41.0251C24.8871 40.6249 25.5912 40.4819 26.3565 40.5963C28.3158 40.9108 30.275 41.2824 32.2649 41.6255C34.1935 41.9685 35.9691 41.6826 37.5916 40.5963C40.4386 38.738 43.3162 36.9084 46.1632 35.0787C46.3163 34.9644 46.5 34.85 46.6837 34.7357C45.8877 34.1639 45.153 34.1925 44.3877 34.5927C42.7958 35.4218 41.1733 36.2223 39.5508 37.0227C39.3977 37.1085 39.1834 37.1943 39.1528 37.3086C39.061 38.0233 38.5099 37.8804 38.0201 37.8804C36.0915 37.8804 34.1323 37.8804 32.2036 37.8518C31.9587 37.8518 31.7138 37.5659 31.4995 37.3944C31.6832 37.1943 31.8057 36.8798 32.02 36.8226C32.4792 36.7083 32.969 36.6797 33.4282 36.6797C34.8976 36.6511 36.3976 36.6797 37.8671 36.6797C37.6222 35.7363 36.7956 35.1073 35.7242 35.0787C34.6527 35.0501 33.6118 35.0501 32.5404 35.0787C31.1934 35.1073 29.9077 34.85 28.6525 34.3068C26.5708 33.392 24.4891 33.5921 22.5911 34.8214C21.6727 35.4218 20.8462 36.0793 19.9278 36.7654C20.5094 38.6237 21.1217 40.5105 21.7646 42.4831ZM21.734 45.9995C20.4788 42.1686 19.2543 38.395 18.0298 34.6785C16.7134 34.6785 15.4889 34.6785 14.2031 34.6785C14.4174 36.2794 14.6317 37.8232 14.846 39.367C15.1215 41.4539 15.3664 43.5123 15.6419 45.5993C15.6726 45.7422 15.9175 45.9709 16.0705 45.9709C17.9379 46.0281 19.8053 45.9995 21.734 45.9995ZM38.9079 36.1365C40.2243 35.479 41.4794 34.85 42.7958 34.1639C42.306 33.8208 41.8774 33.7065 41.4182 33.9352C40.4386 34.4212 39.459 34.9072 38.4793 35.4218C38.6324 35.6505 38.7549 35.8792 38.9079 36.1365ZM36.7038 34.1639C37.714 34.6499 38.2038 34.5355 39.2141 33.7065C38.2957 33.3348 37.5303 33.6493 36.7038 34.1639Z" fill="#0B60FF"/>
<path id="Vector_2" d="M38.3906 15.9244C38.1457 16.2103 37.962 16.4962 37.7171 16.7535C37.3498 17.1251 37.3192 17.4396 37.5028 17.9542C37.809 18.8976 38.36 19.2407 39.3396 19.1549C39.7988 19.1263 39.9825 19.3836 39.9825 19.8124C39.9825 20.5557 39.9825 21.299 39.9825 22.0423C39.9825 22.414 39.8294 22.6713 39.4315 22.6427C38.2682 22.5569 37.7171 23.1001 37.411 24.1007C37.3192 24.4152 37.2579 24.6153 37.5028 24.844C38.758 26.1019 38.4212 26.0161 37.3804 27.0453C37.1355 27.3026 36.86 27.5313 36.6151 27.76C36.0028 28.3318 35.911 28.3318 35.2069 27.7886C34.9313 27.5885 34.5946 27.1882 34.3497 27.2168C33.768 27.3026 33.1864 27.5599 32.6966 27.8744C32.5129 27.9887 32.5129 28.4175 32.4823 28.7034C32.3905 29.6754 32.2986 29.7612 31.2884 29.7612C30.6761 29.7612 30.0945 29.7612 29.4822 29.7612C28.9924 29.7612 28.6557 29.5897 28.6863 29.1037C28.7781 28.1031 28.2271 27.6171 27.2475 27.3312C26.8189 27.2168 26.5433 27.2168 26.2372 27.4741C25.0739 28.4461 25.1658 28.3032 24.1249 27.3598C23.7576 27.0167 23.3902 26.6736 23.0228 26.3306C22.7167 26.0733 22.6249 25.7302 22.9616 25.5015C23.9718 24.7868 23.7576 23.9578 23.2371 23.1001C23.1453 22.9286 22.9004 22.757 22.6861 22.7285C20.9411 22.4426 21.0942 22.7856 21.0942 21.0989C21.0942 20.6415 21.033 20.1555 21.1248 19.6981C21.1554 19.4694 21.4922 19.0977 21.6452 19.1263C22.7779 19.2121 23.3596 18.7547 23.6351 17.7255C23.7269 17.3824 23.7882 17.1537 23.5433 16.8678C22.4106 15.6957 22.5943 15.81 23.6657 14.7809C23.9718 14.495 24.3086 14.1805 24.6147 13.866C24.9515 13.523 25.3494 13.4658 25.6862 13.8089C26.3597 14.5236 27.0332 14.5807 27.8903 14.1233C28.3495 13.8946 28.625 13.7231 28.5944 13.2085C28.5944 13.0656 28.625 12.9226 28.625 12.7797C28.625 12.2079 28.9312 11.9506 29.574 12.0078C30.2475 12.065 30.9516 12.0364 31.6557 12.0078C32.1762 11.9792 32.4211 12.2079 32.4517 12.6653C32.4517 12.8369 32.4823 12.9798 32.4823 13.1513C32.4823 13.6373 32.6966 13.8946 33.217 14.1233C34.0742 14.5236 34.7171 14.5522 35.3905 13.8374C35.7273 13.4658 36.1253 13.4944 36.4926 13.866C36.9824 14.352 37.5028 14.8095 37.9927 15.2955C38.1457 15.5528 38.2376 15.7243 38.3906 15.9244ZM31.319 28.7034C31.3496 28.3032 31.3496 27.9315 31.4721 27.5885C31.5639 27.3312 31.7782 27.0453 32.0537 26.9024C32.666 26.5879 33.3701 26.4164 33.9823 26.1019C34.3497 25.9304 34.6252 25.9303 34.9313 26.1876C35.2375 26.4449 35.5742 26.6737 35.8497 26.8738C36.2477 26.5307 36.6151 26.2162 36.9824 25.9018C36.8906 25.7588 36.7987 25.6731 36.7069 25.5873C36.0028 24.9869 35.7579 24.3294 36.4314 23.5575C36.5538 23.4146 36.6457 23.243 36.6457 23.0715C36.7681 21.928 37.5641 21.6135 38.6355 21.6707C38.6661 21.6707 38.6968 21.6421 38.758 21.6135C38.758 21.1561 38.758 20.6701 38.758 20.2127C38.2988 20.1555 37.8396 20.1555 37.4416 20.0411C37.2273 19.984 36.9824 19.7552 36.8906 19.5551C36.5845 18.9548 36.3089 18.3544 36.0946 17.7255C36.0028 17.4682 36.064 17.0965 36.1865 16.8678C36.3702 16.5248 36.6763 16.2675 36.9212 15.9816C36.5232 15.6385 36.1865 15.324 35.8191 14.981C35.5742 15.1811 35.2681 15.3526 35.0232 15.5813C34.6558 15.9244 34.2885 15.9816 33.8293 15.6957C33.4313 15.4384 32.9721 15.2097 32.4823 15.1239C31.6557 14.981 31.319 14.6093 31.4108 13.8374C31.4414 13.6373 31.319 13.4086 31.2884 13.1799C30.768 13.1799 30.2781 13.1799 29.7271 13.1799C29.9414 14.4378 29.3291 15.0953 28.074 15.2669C28.0434 15.2669 27.9822 15.2955 27.9516 15.324C26.9413 16.1245 26.1148 15.8386 25.3188 15.0096C25.2882 14.981 25.227 14.981 25.2576 14.981C24.8596 15.2955 24.4923 15.6099 24.1249 15.9244C24.3392 16.1817 24.5229 16.439 24.7372 16.6105C25.1964 17.0394 25.1964 17.4396 24.8596 17.9542C24.5535 18.4116 24.3698 18.9262 24.2168 19.4408C24.0943 19.7838 23.9412 20.0125 23.5126 20.0411C23.1147 20.0697 22.7167 20.1269 22.2881 20.1841C22.2881 20.6987 22.2881 21.1561 22.2881 21.6421C22.7167 21.6993 23.0841 21.7564 23.482 21.785C23.9106 21.785 24.0637 22.0137 24.2168 22.3568C24.431 22.9286 24.6759 23.5289 24.9821 24.0721C25.1658 24.4437 25.227 24.7296 24.8902 25.0727C24.6453 25.33 24.4004 25.6159 24.1861 25.8732C24.5535 26.2448 24.8902 26.5593 25.2576 26.9024C25.3494 26.8452 25.4413 26.788 25.5025 26.7308C26.2066 25.9875 26.9719 25.816 27.8291 26.5021C27.9209 26.5879 28.0434 26.6451 28.1658 26.6451C29.4516 26.7594 29.7883 27.5313 29.7883 28.5891C29.7883 28.6177 29.819 28.6462 29.8496 28.7034C30.3088 28.7034 30.768 28.7034 31.319 28.7034Z" fill="#0B60FF"/>
<path id="Vector_3" d="M18.4535 42.9688C19.3107 42.9688 20.0454 43.6263 20.0148 44.3982C19.9842 45.1415 19.2801 45.799 18.4535 45.799C17.5658 45.799 16.8923 45.17 16.9229 44.3696C16.9535 43.5691 17.5964 42.9688 18.4535 42.9688ZM19.0046 44.3696C18.7291 44.198 18.576 44.0551 18.4229 44.0265C18.3311 44.0265 18.0862 44.2838 18.1168 44.3696C18.1474 44.5125 18.3617 44.684 18.5148 44.7126C18.6372 44.7126 18.7903 44.5411 19.0046 44.3696Z" fill="#0B60FF"/>
<path id="Vector_4" d="M30.5153 26.2161C27.4233 26.2161 24.8824 23.8433 24.8518 20.9844C24.8212 18.097 27.3927 15.667 30.5153 15.667C33.6378 15.667 36.2705 18.0398 36.2093 20.9558C36.1481 24.1863 33.3929 26.2447 30.5153 26.2161ZM35.0766 20.9272C35.0766 18.583 33.0562 16.7248 30.5459 16.7248C28.0356 16.7248 26.0151 18.583 26.0151 20.9272C26.0151 23.2429 28.0662 25.1583 30.5459 25.1297C33.0562 25.1297 35.0766 23.2429 35.0766 20.9272Z" fill="#0B60FF"/>
<path id="Vector_5" d="M29.819 21.5563C30.6762 20.7559 31.3803 20.1269 32.0844 19.4694C32.3599 19.2121 32.666 19.012 33.0334 19.3264C33.4007 19.6409 33.1864 19.9268 32.9109 20.2127C32.115 20.956 31.319 21.6707 30.5231 22.414C30.1557 22.7571 29.7884 22.7856 29.421 22.414C28.9924 22.0138 28.5638 21.6135 28.1353 21.2419C27.8597 20.9846 27.7679 20.7273 28.074 20.47C28.3496 20.1841 28.6557 20.2413 28.9312 20.4986C29.2067 20.813 29.4822 21.1561 29.819 21.5563Z" fill="#0B60FF"/>
</g>
</g>
</g>
</svg>
