<svg width="60" height="60" viewBox="0 0 60 60" fill="none" xmlns="http://www.w3.org/2000/svg">
<g id="Group 1000009538">
<g id="Group 1000009877">
<circle id="Ellipse 568" opacity="0.5" cx="30" cy="30" r="29.5" stroke="black"/>
<g id="Group">
<path id="Vector" d="M40.8605 25.3939C42.0231 30.735 41.8117 32.1917 39.1694 36.435C39.7613 36.245 40.2686 36.0761 40.7971 35.9284C41.7906 35.6539 42.763 36.0972 43.1646 36.9839C43.5662 37.8917 43.2703 38.905 42.3825 39.4539C41.3467 40.1084 40.3109 40.7417 39.2751 41.375C37.2458 42.5995 35.2377 43.8239 33.2084 45.0695C32.4051 45.5551 31.5807 45.8084 30.6295 45.8084C26.8457 45.7873 23.0408 45.8084 19.257 45.7873C18.9188 45.7873 18.7074 45.8506 18.5171 46.1884C18.2001 46.7162 17.6927 46.9906 17.0586 46.9906C16.2976 46.9906 15.5366 47.0117 14.7545 46.9906C13.7398 46.9695 13 46.2517 13 45.2173C13 41.5439 13 37.8495 13 34.1761C13 33.1628 13.7187 32.4661 14.7122 32.4239C15.5366 32.4028 16.361 32.4239 17.1643 32.4239C17.7139 32.4239 18.1789 32.6561 18.4537 33.1206C18.6651 33.5006 18.961 33.585 19.3415 33.5639C19.5952 33.5428 19.8489 33.5639 20.1448 33.5639C18.7919 29.6161 19.2781 25.9428 21.8359 22.5227C21.2017 22.7128 20.6521 22.9028 20.1025 23.0505C19.1724 23.3039 18.2212 22.8605 17.8407 21.995C17.4391 21.1083 17.7139 20.095 18.5383 19.5461C19.2993 19.0394 20.0814 18.5961 20.8635 18.1105C23.1676 16.7172 25.4717 15.3238 27.7546 13.9094C28.5579 13.4027 29.4246 13.1494 30.3758 13.1705C34.1385 13.1916 37.88 13.1705 41.6426 13.1916C42.0231 13.1916 42.2768 13.1494 42.4881 12.7694C42.7841 12.2627 43.3125 12.0094 43.9044 12.0094C44.6866 12.0094 45.4687 11.9883 46.2508 12.0094C47.2443 12.0305 47.9841 12.7694 47.9841 13.7616C48.0053 17.4561 48.0053 21.1505 47.9841 24.845C47.9841 25.8161 47.2654 26.5339 46.2931 26.555C45.4687 26.5761 44.6443 26.555 43.841 26.555C43.2914 26.555 42.8052 26.3439 42.5516 25.8794C42.319 25.4783 42.0231 25.3939 41.6215 25.4361C41.3678 25.415 41.1142 25.3939 40.8605 25.3939ZM31.6864 38.9473C33.0181 38.5039 34.3287 38.0817 35.6393 37.6384C35.9986 37.5117 36.4003 37.4272 36.6751 37.195C40.2052 34.535 41.4312 29.2572 39.4654 25.3094C39.3808 25.1617 39.2751 24.9928 39.1271 24.9083C38.5775 24.5283 37.9857 24.1905 37.4361 23.8105C36.6539 23.2828 35.8295 23.0083 34.8783 23.0294C34.0328 23.0505 33.2084 23.0294 32.3628 23.0294C31.4116 23.0294 30.6083 22.6283 30.0376 21.8894C29.636 21.3616 29.4246 20.6861 29.1075 20.0316C28.0929 20.3694 26.9725 20.7494 25.8733 21.1294C25.3449 21.3194 24.753 21.4039 24.3091 21.7205C20.779 24.275 19.4895 29.7428 21.4977 33.6483C21.5822 33.7961 21.709 33.9439 21.857 34.0283C22.3643 34.3661 22.8928 34.6406 23.379 34.9995C24.2457 35.6117 25.1758 35.9284 26.2327 35.8861C27.0782 35.865 27.9026 35.8861 28.7482 35.9072C28.9384 35.9072 29.1498 35.9495 29.34 35.9917C30.7352 36.4561 31.5384 37.4273 31.6864 38.9473ZM18.8131 44.6262C18.9399 44.6473 19.0245 44.6473 19.0879 44.6473C22.9774 44.6473 26.8668 44.6684 30.7352 44.6262C31.2848 44.6262 31.8978 44.4151 32.384 44.1406C35.4702 42.3039 38.5141 40.425 41.5792 38.5672C42.0865 38.2506 42.2556 37.8706 42.0442 37.4484C41.854 37.0472 41.4524 36.9206 40.8605 37.1106C38.8101 37.7861 36.7385 38.4195 34.7303 39.1795C32.088 40.1928 29.3823 40.7628 26.5286 40.5306C25.4506 40.4462 24.4359 40.7206 23.5481 41.375C23.2522 41.5862 22.9139 41.6284 22.6814 41.2906C22.4278 40.9528 22.5546 40.6362 22.8928 40.4039C23.7595 39.7917 24.7107 39.4117 25.7888 39.3906C27.0994 39.3695 28.4099 39.3906 29.7205 39.3906C30.2913 39.3906 30.5449 39.095 30.397 38.525C30.2067 37.7228 29.636 37.2584 28.8961 37.1317C28.2197 37.005 27.5221 37.0472 26.8246 37.0261C26.1058 36.9839 25.3237 37.1106 24.6684 36.8784C23.7383 36.5617 22.8717 36.0128 22.0261 35.5061C21.0326 34.8939 19.9968 34.5984 18.7919 34.7461C18.8131 38.0395 18.8131 41.3117 18.8131 44.6262ZM42.1499 14.3105C42.0231 14.2894 41.9385 14.2894 41.8751 14.2894C37.9857 14.2894 34.1173 14.2683 30.2278 14.3105C29.6782 14.3105 29.0652 14.5216 28.579 14.7961C25.4928 16.6327 22.4489 18.5116 19.3838 20.3694C18.8554 20.6861 18.7074 21.045 18.8976 21.4883C19.0879 21.9105 19.4895 22.0372 20.0602 21.8261C21.7513 21.2561 23.4424 20.7283 25.1123 20.1372C28.1563 19.0394 31.1791 18.0261 34.4978 18.4061C35.5336 18.5327 36.5271 18.195 37.3726 17.5827C37.6897 17.3505 38.0279 17.3083 38.2816 17.6672C38.5141 18.0261 38.3661 18.3216 38.0491 18.5539C37.1824 19.1661 36.2312 19.5461 35.1531 19.5461C33.8425 19.5672 32.5319 19.5461 31.2214 19.5461C30.6506 19.5461 30.397 19.8416 30.5449 20.4116C30.7352 21.1927 31.3059 21.6783 32.0669 21.805C32.7433 21.9316 33.4409 21.8894 34.1385 21.9105C34.8572 21.9528 35.6393 21.8261 36.2946 22.0583C37.2247 22.375 38.0913 22.9239 38.9157 23.4305C39.9093 24.0428 40.945 24.3383 42.1499 24.1905C42.1499 20.8972 42.1499 17.625 42.1499 14.3105ZM46.8004 19.2505C46.8004 17.4561 46.8004 15.6827 46.8004 13.8883C46.8004 13.2761 46.6736 13.1494 46.0606 13.1494C45.4053 13.1494 44.75 13.1494 44.0947 13.1494C43.5239 13.1494 43.3126 13.3183 43.3126 13.8883C43.3126 17.4772 43.3126 21.0661 43.3126 24.655C43.3126 25.1405 43.5662 25.3939 44.0524 25.3939C44.7077 25.3939 45.363 25.3939 46.0183 25.3939C46.6313 25.3939 46.8004 25.2039 46.8004 24.6128C46.8004 22.8183 46.8004 21.045 46.8004 19.2505ZM14.1626 39.665C14.1626 41.4384 14.1626 43.1906 14.1626 44.964C14.1626 45.6817 14.2472 45.7662 14.9447 45.7662C15.6 45.7662 16.2553 45.7451 16.9106 45.7662C17.4179 45.7873 17.6505 45.5339 17.6505 45.0484C17.6505 41.4595 17.6505 37.8706 17.6505 34.2817C17.6505 33.7328 17.4391 33.5428 16.8683 33.5217C16.2342 33.5006 15.6 33.5217 14.9447 33.5217C14.3106 33.5217 14.1415 33.6906 14.1415 34.345C14.1626 36.1395 14.1626 37.8917 14.1626 39.665Z" fill="#0B60FF"/>
<path id="Vector_2" d="M31.075 24.7183C31.7303 24.9927 32.3011 25.2038 32.8295 25.4994C33.4637 25.8583 33.8442 26.4494 33.971 27.1672C34.0344 27.5683 33.9499 27.9272 33.4848 27.9905C33.062 28.0538 32.8718 27.7794 32.7872 27.3994C32.6181 26.6183 32.0263 26.1538 31.0962 26.1116C31.0962 27.0194 31.0962 27.9483 31.0962 28.8983C32.5547 29.2783 33.971 29.8061 33.971 31.685C33.971 32.8672 32.9141 33.7116 31.0962 34.155C31.075 34.345 31.075 34.5561 31.0539 34.7883C31.0116 35.1261 30.8214 35.3161 30.4832 35.3161C30.1238 35.3161 29.8913 35.105 29.9336 34.7672C30.0181 34.1761 29.6799 34.0916 29.236 33.9861C28.1579 33.6905 27.3335 33.0994 27.0164 31.9594C26.8896 31.4527 27.0376 31.0516 27.4392 31.0094C27.9465 30.9461 28.0945 31.2627 28.1791 31.685C28.3059 32.3605 29.0246 32.8883 29.8701 32.8672C29.8701 31.9594 29.8701 31.0516 29.8701 30.1016C29.5742 30.0172 29.2571 29.975 28.9823 29.8272C28.5173 29.595 28.0311 29.3627 27.6506 29.0038C26.7416 28.1383 26.7205 26.8083 27.6506 25.9638C28.0734 25.5627 28.623 25.2672 29.1726 25.0772C29.6376 24.9083 29.997 24.8449 29.9547 24.2116C29.9336 24.0638 30.2718 23.7894 30.4832 23.7472C30.8214 23.6627 31.0328 23.8949 31.0539 24.2327C31.0539 24.3172 31.0539 24.4227 31.075 24.5072C31.075 24.5705 31.075 24.676 31.075 24.7183ZM31.0962 30.1438C31.0962 31.0516 31.0962 31.9383 31.0962 32.825C31.984 32.8039 32.7661 32.2127 32.7872 31.5583C32.8084 30.8616 32.1742 30.3127 31.0962 30.1438ZM29.8701 26.1116C28.9823 26.1116 28.1791 26.7238 28.1791 27.3994C28.1791 28.0961 28.94 28.7083 29.8701 28.7505C29.8701 27.8849 29.8701 26.9983 29.8701 26.1116Z" fill="#0B60FF"/>
<path id="Vector_3" d="M38.1296 29.1942C37.9605 28.4976 37.7702 27.5898 37.5166 26.7031C37.3474 26.0909 37.5377 25.6476 38.045 25.7531C38.2775 25.7954 38.5312 26.0698 38.6158 26.302C39.9475 29.532 39.0385 33.4798 36.4596 35.8654C35.6141 36.6465 34.6629 37.2376 33.6059 37.6387C32.9929 37.8709 32.6758 37.8076 32.549 37.4065C32.3799 36.8787 32.7604 36.7309 33.162 36.562C35.6141 35.5698 37.2206 33.7965 37.8548 31.1998C37.9816 30.6298 38.0239 30.0176 38.1296 29.1942Z" fill="#0B60FF"/>
<path id="Vector_4" d="M21.7344 29.4259C21.7555 28.7503 21.8612 28.0747 22.0092 27.3781C22.0514 27.1881 22.1571 26.977 22.1571 26.787C22.4108 25.9636 22.7913 25.1825 23.2986 24.4647C24.2499 23.0925 25.6027 22.0158 27.1458 21.3825C27.2515 21.3403 27.3572 21.2981 27.4629 21.2558C27.8222 21.1292 28.1393 21.0447 28.3719 21.4247C28.6044 21.7836 28.393 22.1425 27.8434 22.3536C26.3848 22.9025 25.2011 23.7892 24.3133 25.077C22.8124 27.2514 22.5165 29.5948 23.362 32.0648C23.4043 32.1914 23.4466 32.297 23.4889 32.4237C23.5523 32.7614 23.51 33.057 23.1295 33.1625C22.9181 33.2259 22.6645 33.2048 22.5165 33.0148C22.4319 32.9092 22.3897 32.7825 22.3685 32.6559C22.1994 32.0014 22.0303 31.347 21.8823 30.6925C21.7555 30.2703 21.7344 29.8481 21.7344 29.4259Z" fill="#0B60FF"/>
</g>
</g>
</g>
</svg>
