<svg width="60" height="60" viewBox="0 0 60 60" fill="none" xmlns="http://www.w3.org/2000/svg">
<g id="Group 1000009537">
<g id="Group">
<g id="Group 1000009874">
<g id="Group 1000009876">
<circle id="Ellipse 567" opacity="0.5" cx="30" cy="30" r="29.5" stroke="black"/>
<path id="Vector" d="M15.6369 47C14.7717 47 13.8956 47 13.0304 47C12.669 42.557 15.4727 33.8681 24.6723 30.4647C21.551 28.0791 20.0287 24.9493 20.412 21.0316C20.6748 18.3067 21.9562 16.0633 24.07 14.3015C28.2755 10.7777 34.5181 11.3577 38.2309 15.6475C41.7136 19.6746 41.615 26.5361 36.2595 30.4866C39.7641 31.7779 42.6116 33.8899 44.7692 36.8994C46.9158 39.9088 47.9562 43.2683 48 46.9891C47.08 46.9891 46.2039 46.9891 45.2839 46.9891C45.1744 42.4367 43.4221 38.6503 39.9503 35.7065C37.1795 33.3537 33.9267 32.2375 30.2907 32.2485C22.7448 32.2813 15.6808 38.5518 15.6369 47ZM23.0843 22.115C23.0624 26.153 26.3699 29.4907 30.4221 29.5236C34.4962 29.5455 37.8366 26.2406 37.8475 22.1478C37.8694 18.1097 34.5619 14.772 30.5097 14.7392C26.4465 14.7173 23.1062 18.0331 23.0843 22.115Z" fill="#0B60FF"/>
</g>
</g>
</g>
</g>
</svg>
