<svg width="50" height="29" viewBox="0 0 50 29" fill="none" xmlns="http://www.w3.org/2000/svg">
<g id="Frame" clip-path="url(#clip0_969_100)">
<g id="Group">
<path id="Vector" d="M14.7561 18.9246C12.3513 16.7398 8.07275 16.6141 5.13709 18.7046C2.91972 20.2764 1.74858 22.4612 1.57681 25.1962C1.54558 25.7778 1.45189 26.2965 0.76482 26.2807C0.0777497 26.265 -0.031557 25.7149 0.0152888 25.149C0.311978 21.1881 2.21704 18.3274 5.7617 16.5512C5.99593 16.4412 6.23015 16.3311 6.48 16.2211C2.98218 13.2504 3.74733 9.1951 5.85539 7.16746C8.16644 4.96692 11.8985 5.04551 14.0534 7.3718C16.1302 9.60377 16.4738 13.5019 13.2414 16.1582C14.1627 16.6769 15.084 17.1956 15.896 17.6672C17.5512 16.7398 19.1908 15.8124 20.8616 14.8851C18.2539 13.1246 16.8173 10.5626 17.0827 7.24605C17.2701 5.07694 18.2227 3.23792 19.9403 1.85472C23.4069 -0.943111 28.3569 -0.455848 31.1208 2.89212C33.8223 6.1615 33.8379 11.8043 29.1533 14.9165C30.7461 15.8124 32.3857 16.7241 34.119 17.6829C34.8841 17.2428 35.821 16.7084 36.7579 16.1897C33.4787 13.4233 33.9316 9.43087 36.0709 7.26177C38.3507 4.9512 42.1764 4.99835 44.3782 7.38751C46.5331 9.7138 46.658 13.6119 43.5193 16.174C43.7536 16.2997 43.9722 16.4097 44.1908 16.5198C47.6574 18.2173 49.5624 21.0152 49.9684 24.8504C49.9841 25.039 49.9841 25.2119 49.9841 25.4005C49.9841 25.9192 49.7498 26.2807 49.2189 26.2807C48.688 26.2807 48.4538 25.9192 48.4381 25.4005C48.4069 24.0802 48.0946 22.8227 47.4856 21.6439C45.2526 17.3371 39.7405 15.891 35.6961 18.5474C35.5243 18.6574 35.3682 18.7989 35.1652 18.9404C36.7111 20.7008 37.8198 22.6656 38.3039 24.929C38.5225 25.9192 38.6162 26.9409 38.7255 27.9469C38.7879 28.497 38.6474 28.9843 37.9759 29C37.3201 29.0157 37.1952 28.5599 37.1639 27.994C36.8516 22.2412 32.901 17.5729 27.4356 16.4569C20.0965 14.9637 13.2102 20.3864 12.8198 27.9311C12.8042 28.2612 12.648 28.6542 12.4294 28.89C12.3045 29.0314 11.8048 29.0314 11.6486 28.89C11.43 28.7013 11.2739 28.3241 11.2739 28.0255C11.2895 25.6834 11.8829 23.4829 13.054 21.4553C13.5537 20.575 14.1627 19.7891 14.7561 18.9246ZM24.9372 14.3821C28.5131 14.3978 31.3707 11.5843 31.4019 8.04768C31.4175 4.47965 28.6068 1.60323 25.0777 1.57179C21.5331 1.54036 18.6443 4.38534 18.613 7.92193C18.5818 11.49 21.4082 14.3664 24.9372 14.3821ZM5.62116 11.3799C5.62116 13.7376 7.47937 15.6238 9.82166 15.6238C12.1483 15.6238 14.0534 13.7534 14.069 11.4114C14.0846 9.05364 12.1639 7.10459 9.80604 7.1203C7.47937 7.1203 5.62116 9.0222 5.62116 11.3799ZM44.3782 11.3328C44.3782 8.99076 42.4887 7.10459 40.1465 7.10459C37.8354 7.10459 35.9303 9.0222 35.9303 11.3485C35.9303 13.7219 37.851 15.6238 40.2089 15.6081C42.5356 15.6081 44.3938 13.7062 44.3782 11.3328Z" fill="black"/>
</g>
</g>
<defs>
<clipPath id="clip0_969_100">
<rect width="50" height="29" fill="white"/>
</clipPath>
</defs>
</svg>
