<svg width="50" height="50" viewBox="0 0 50 50" fill="none" xmlns="http://www.w3.org/2000/svg">
<g id="Frame" clip-path="url(#clip0_969_167)">
<g id="Group">
<path id="Vector" d="M6.13768 29.8198C5.80233 27.4516 5.45022 25.1167 5.13164 22.7651C5.06457 22.2982 5.0478 21.8312 5.0478 21.3475C5.0478 16.6444 5.06457 11.9579 5.03104 7.2548C5.03104 6.5043 5.33285 6.15407 6.02031 5.95393C12.9452 4.00263 19.8701 2.01798 26.795 0.0833526C27.4153 -0.0834253 28.1699 0.0166414 28.807 0.200097C35.5139 2.10136 42.2208 4.05267 48.9277 5.95393C49.6823 6.17074 50.0176 6.5043 50.0009 7.33819C49.9673 11.9579 49.9841 16.561 49.9841 21.1808C49.9506 34.3562 41.4831 45.8138 28.8573 49.7998C27.9687 50.0834 27.1471 50.1 26.2584 49.8165C21.8318 48.4156 17.9083 46.1808 14.5045 43.0287C14.2363 42.7785 13.7836 42.6117 13.4147 42.595C12.1068 42.545 10.7822 42.6284 9.47436 42.545C8.75337 42.495 8.03238 42.2114 7.31139 42.028C7.14371 41.978 6.92574 41.8612 6.7916 41.9279C4.98074 42.6784 3.1028 42.2615 1.2584 42.2114C0.420038 42.1948 0.000856702 41.5944 0.000856702 40.7271C-0.0159106 37.6084 -0.0159106 34.5063 0.000856702 31.3876C0.000856702 30.4202 0.604478 29.8699 1.57698 29.8532C2.36504 29.8365 3.13634 29.8532 3.9244 29.8532C4.71246 29.8198 5.50052 29.8198 6.13768 29.8198ZM7.51259 28.9359C8.5354 28.2355 9.4073 27.535 9.52467 26.4009C9.64204 25.4002 9.5079 24.3662 9.4576 23.3655C9.39053 22.1981 9.54143 21.114 10.6145 20.4303C11.7044 19.7465 12.8111 19.9966 13.8339 20.6637C15.2255 21.5643 15.8795 22.9152 15.9298 24.533C15.9801 26.0507 15.9465 27.5683 15.9465 29.1694C17.2711 29.1694 18.4952 29.2028 19.7192 29.1361C19.9204 29.1194 20.2222 28.7691 20.2893 28.519C20.6246 27.3182 20.8593 26.084 21.2115 24.8999C21.3959 24.2828 21.2282 23.9326 20.7587 23.549C18.8808 22.0146 17.0364 20.4469 15.2088 18.8625C14.974 18.6624 14.7896 18.2288 14.8567 17.9619C14.907 17.7618 15.3597 17.545 15.6447 17.5283C18.0592 17.3282 20.4905 17.1447 22.9049 17.0113C23.5253 16.978 23.8271 16.7611 24.0451 16.1774C24.9002 13.9926 25.8057 11.8078 26.7446 9.63972C26.8956 9.30617 27.2644 9.07268 27.5327 8.78916C27.801 9.056 28.1866 9.28949 28.3208 9.62305C29.2597 11.8078 30.1484 14.026 31.0371 16.2275C31.2215 16.6611 31.406 16.9613 31.976 16.9946C34.4241 17.1281 36.8721 17.3115 39.3201 17.5116C39.6387 17.545 40.1417 17.7451 40.192 17.9453C40.2591 18.2455 40.0579 18.7124 39.8231 18.9126C38.029 20.4636 36.2349 21.998 34.3738 23.4823C33.7869 23.9493 33.7031 24.3662 33.8707 25.0333C34.4576 27.2848 35.0109 29.5363 35.5307 31.8045C35.6145 32.1381 35.4636 32.505 35.4301 32.8719C35.0444 32.8218 34.6085 32.8719 34.2899 32.6884C32.2108 31.4543 30.1652 30.1534 28.086 28.9026C27.8513 28.7691 27.4489 28.6024 27.2812 28.7191C26.074 29.4029 24.917 30.1534 23.9781 30.7204C23.9781 31.5377 24.0619 32.1214 23.9613 32.6717C23.6092 34.8565 23.1732 37.0247 22.8043 39.2094C22.3852 41.6611 21.3456 42.5617 18.864 42.5617C17.9921 42.5617 17.1202 42.5617 16.0304 42.5617C16.3489 42.8619 16.4831 43.012 16.634 43.1287C19.3167 45.3469 22.3181 46.998 25.5877 48.1988C26.8956 48.6824 28.0525 48.6657 29.3603 48.1988C40.7621 44.2461 48.1062 33.8225 48.5421 22.3816C48.7265 17.5784 48.5756 12.7751 48.5924 7.95527C48.5924 7.4049 48.408 7.20477 47.8882 7.05467C41.3154 5.20343 34.7426 3.30217 28.1531 1.45093C27.7507 1.33419 27.2644 1.33419 26.8788 1.43425C20.3396 3.28549 13.7668 5.18676 7.19402 7.03799C6.62393 7.20477 6.38919 7.4049 6.38919 8.03866C6.42272 12.575 6.37242 17.0947 6.42272 21.6311C6.43949 24.0493 6.77483 26.4343 7.51259 28.9359ZM14.3369 41.1941C15.9801 41.1941 17.64 41.1941 19.2832 41.1941C20.524 41.1941 21.1779 40.7271 21.4127 39.5263C21.8654 37.2248 22.2678 34.9066 22.6367 32.5717C22.8546 31.2541 22.1001 30.4703 20.7587 30.4703C19.082 30.4703 17.4053 30.4703 15.7286 30.4703C14.7728 30.4703 14.6051 30.2868 14.6051 29.3529C14.6051 27.7685 14.6219 26.1841 14.5884 24.5997C14.5548 23.0653 13.6662 21.7978 12.4422 21.4476C11.52 21.1808 10.9331 21.4976 10.8493 22.4483C10.7822 23.1487 10.9163 23.8826 11.017 24.583C11.2517 26.4509 10.7654 28.0353 9.28992 29.2695C8.90428 29.5864 8.50186 29.9032 8.09945 30.1868C7.52936 30.587 7.27785 31.104 7.27785 31.8045C7.31139 34.2561 7.27785 36.6911 7.29462 39.1427C7.29462 40.5437 7.91501 41.1607 9.34023 41.1774C11.0002 41.2108 12.6769 41.1941 14.3369 41.1941ZM17.1705 18.7458C17.4724 19.0293 17.64 19.1961 17.8245 19.3462C19.1155 20.4469 20.3563 21.6144 21.7312 22.615C22.7205 23.3322 22.8546 24.0493 22.5025 25.1501C22.0833 26.4509 21.8318 27.8018 21.53 29.1027C22.0498 29.3529 22.469 29.553 22.9385 29.7698C24.196 28.986 25.5206 28.2021 26.8117 27.3849C27.298 27.0847 27.7172 27.0513 28.2034 27.3849C28.8741 27.8352 29.5616 28.2521 30.2658 28.6691C31.4395 29.3862 32.6132 30.1034 33.9043 30.8872C33.8372 30.5036 33.8037 30.3035 33.7534 30.0867C33.2839 28.1521 32.7809 26.2174 32.3785 24.2661C32.3114 23.9326 32.4958 23.3822 32.7641 23.1487C34.1893 21.8645 35.6816 20.6471 37.1571 19.4129C37.3751 19.2295 37.5763 19.0293 37.8949 18.7458C35.5307 18.5623 33.3677 18.3622 31.2047 18.2288C30.5676 18.1954 30.2825 17.9119 30.0478 17.3615C29.2597 15.3602 28.4214 13.3755 27.5495 11.2408C27.365 11.6411 27.2477 11.9079 27.1303 12.1914C26.4093 13.9259 25.6883 15.6604 24.9841 17.4116C24.7661 17.9453 24.4811 18.2121 23.8942 18.2288C22.7037 18.2788 21.4965 18.3956 20.306 18.479C19.3167 18.5623 18.3275 18.6457 17.1705 18.7458ZM1.39254 31.2041C1.39254 34.4396 1.39254 37.625 1.39254 40.8605C2.90159 40.8605 4.37711 40.8605 5.8694 40.8605C5.8694 37.6084 5.8694 34.4229 5.8694 31.2041C4.37711 31.2041 2.93513 31.2041 1.39254 31.2041Z" fill="black"/>
<path id="Vector_2" d="M46.1099 27.9519C45.3386 29.8365 44.7014 31.6711 43.8295 33.3889C41.13 38.6758 37.0556 42.6284 31.7236 45.2635C31.5727 45.3302 31.405 45.4803 31.2709 45.4636C30.9187 45.4136 30.6002 45.2802 30.248 45.1968C30.399 44.8966 30.4828 44.4629 30.7343 44.2962C32.0757 43.4456 33.5177 42.7618 34.8087 41.8612C39.6042 38.4589 42.79 33.8892 44.4499 28.2688C44.517 28.052 44.517 27.7852 44.6679 27.6517C44.8859 27.4516 45.2212 27.2014 45.456 27.2515C45.6739 27.2681 45.8416 27.6517 46.1099 27.9519Z" fill="black"/>
<path id="Vector_3" d="M27.8014 45.1301C28.12 45.5303 28.5392 45.8972 28.4721 45.9973C28.2877 46.3142 27.9523 46.6644 27.617 46.7645C27.4326 46.8145 27.114 46.3809 26.8457 46.1474C27.114 45.8639 27.3823 45.5804 27.8014 45.1301Z" fill="black"/>
</g>
</g>
<defs>
<clipPath id="clip0_969_167">
<rect width="50" height="50" fill="white"/>
</clipPath>
</defs>
</svg>
