<svg width="48" height="50" viewBox="0 0 48 50" fill="none" xmlns="http://www.w3.org/2000/svg">
<g id="Frame" clip-path="url(#clip0_969_575)">
<g id="Group">
<path id="Vector" d="M17.5148 34.6094C19.4538 37.4334 21.2975 40.0534 23.0777 42.7519C23.6499 43.6304 24.2856 44.6031 24.4446 45.5915C24.7783 47.5683 23.6816 49.1215 21.8856 49.7647C20.1532 50.3923 18.23 49.749 17.1015 48.1174C14.8922 44.9326 12.6989 41.7321 10.5055 38.5316C10.3624 38.312 10.2035 38.108 10.0128 37.857C8.48694 38.7983 6.84986 39.0807 5.1333 38.7199C2.54257 38.1708 0.508134 36.0685 0.0948886 33.3857C-0.302462 30.7814 0.667074 28.6791 2.86045 27.1573C3.94125 26.4042 5.02204 25.6511 6.15052 24.9608C6.92933 24.4902 7.43794 23.8783 7.81939 23.0625C10.1081 18.4186 12.5081 13.8375 14.7174 9.16229C15.8936 6.66778 18.1664 6.21281 20.2167 6.74622C22.5055 7.34239 24.4128 8.5818 26.1293 10.135C30.7704 14.3082 34.0922 19.3129 35.5386 25.4001C35.9518 27.1416 36.0631 28.9144 35.4591 30.6559C34.8075 32.4914 33.4883 33.37 31.5174 33.5112C26.9081 33.8407 22.3148 34.2329 17.5148 34.6094ZM16.1161 12.5197C16.3068 13.4453 16.434 14.5749 16.7836 15.626C18.3412 20.5366 21.1227 24.6941 24.9055 28.2084C26.3042 29.4949 27.8459 30.5931 29.6578 31.2677C31.8194 32.0522 33.5201 31.1108 33.7108 28.8517C33.822 27.5495 33.7426 26.1689 33.4088 24.9138C31.9783 19.7208 28.9744 15.4378 25.0326 11.7823C23.475 10.3546 21.7585 9.1466 19.6446 8.62887C17.928 8.20527 16.6247 8.98971 16.3227 10.6213C16.1797 11.1704 16.1797 11.7509 16.1161 12.5197ZM26.622 31.9423C23.332 29.8244 20.9002 27.173 18.834 24.1764C16.7677 21.1799 15.2101 17.948 14.4313 14.3396C14.3201 14.4494 14.2724 14.4808 14.2406 14.5278C12.6035 17.8225 10.9505 21.1171 9.34522 24.4274C9.23396 24.6628 9.31343 25.0864 9.47237 25.306C11.0618 27.675 12.7148 30.0126 14.3042 32.3816C14.6061 32.8366 14.9399 32.8993 15.4167 32.8523C17.3081 32.6954 19.2154 32.5542 21.1068 32.413C22.871 32.2718 24.6353 32.1149 26.622 31.9423ZM12.8419 33.6524C11.0936 31.1265 9.42469 28.6948 7.72403 26.2316C6.34125 27.1573 5.02204 28.0201 3.73462 28.9458C1.85913 30.2793 1.3982 32.7738 2.65383 34.7349C4.00482 36.8686 6.4684 37.6373 8.53462 36.4607C9.99688 35.6292 11.3638 34.6251 12.8419 33.6524ZM11.634 36.7745C14.1293 40.3672 16.5452 43.9128 19.0088 47.3957C19.4538 48.0233 20.2009 48.2272 20.9956 48.0076C22.5214 47.5683 23.03 46.0936 22.0922 44.713C19.9307 41.5595 17.7532 38.4218 15.6075 35.2683C15.2101 34.6722 14.781 34.6722 14.2883 35.0016C13.4459 35.5507 12.6035 36.1312 11.634 36.7745Z" fill="black"/>
<path id="Vector_2" d="M45.2184 8.42496C45.1072 8.56616 44.9641 8.927 44.6939 9.09957C42.5005 10.5586 40.2913 11.9706 38.082 13.3983C37.5416 13.7434 37.0012 13.6807 36.6356 13.1316C36.2542 12.5511 36.5085 12.0961 37.0489 11.751C39.2264 10.339 41.4038 8.91131 43.5972 7.51501C44.376 7.01297 45.2025 7.3895 45.2184 8.42496Z" fill="black"/>
<path id="Vector_3" d="M39.2269 18.0734C40.9593 18.3715 42.7077 18.6853 44.4401 18.9834C45.2507 19.1246 46.0454 19.2658 46.856 19.407C47.6348 19.5325 48.0958 19.9875 47.9845 20.5522C47.8733 21.1798 47.3329 21.4465 46.5064 21.3053C44.011 20.866 41.5156 20.4267 39.0362 20.0031C38.4322 19.8933 38.0507 19.5482 38.1143 18.9363C38.162 18.3244 38.5752 18.0264 39.2269 18.0734Z" fill="black"/>
<path id="Vector_4" d="M34.2185 1.38066C33.996 3.63984 33.7735 5.88333 33.551 8.14251C33.4874 8.83281 32.9788 9.2721 32.4225 9.19365C31.8503 9.11521 31.5483 8.62886 31.6278 7.89149C31.8503 5.69507 32.0728 3.49864 32.2794 1.28653C32.3589 0.423652 32.7245 -0.0313214 33.3443 5.60646e-05C33.996 0.0314335 34.2662 0.470718 34.2185 1.38066Z" fill="black"/>
<path id="Vector_5" d="M22.8711 15.9712C25.6685 16.1595 27.3214 17.1949 28.1797 19.2501C29.0221 21.2269 28.6565 23.0782 27.2579 24.7255C27.0036 25.0236 26.6857 25.2746 26.3678 25.4943C25.8751 25.8237 25.3347 25.8551 24.9532 25.3687C24.5877 24.8824 24.6671 24.3804 25.1599 23.9881C26.0658 23.2821 26.6062 22.4193 26.6062 21.2426C26.6062 18.8109 24.0791 17.2263 21.838 18.2617C21.6473 18.3559 21.4724 18.4971 21.2817 18.5598C20.7572 18.7167 20.2645 18.7167 19.9784 18.1519C19.7241 17.6342 19.8354 17.1008 20.3599 16.8811C21.3294 16.4575 22.3466 16.1595 22.8711 15.9712Z" fill="black"/>
</g>
</g>
<defs>
<clipPath id="clip0_969_575">
<rect width="48" height="50" fill="white"/>
</clipPath>
</defs>
</svg>
