<svg width="49" height="50" viewBox="0 0 49 50" fill="none" xmlns="http://www.w3.org/2000/svg">
<g id="Frame" clip-path="url(#clip0_969_112)">
<g id="Group">
<path id="Vector" d="M18.7876 48.2202C18.7876 44.3613 18.7876 40.5689 18.7876 36.7099C19.3263 36.7099 19.8323 36.7099 20.3709 36.7099C20.3709 41.0845 20.3709 45.4591 20.3709 50C19.1794 49.9335 17.9715 50.0333 16.8453 49.7671C15.0335 49.3347 13.9072 47.6879 13.9072 45.7585C13.8909 42.9807 13.8909 40.2196 13.9235 37.4418C13.9399 36.6766 14.1031 35.9115 14.201 35.0965C14.1521 35.0798 14.0541 34.9967 13.9562 34.9967C11.5078 35.0133 9.05945 34.9135 6.61108 35.0965C3.95052 35.2961 1.81228 37.6746 1.66538 40.4192C1.58377 41.7498 1.60009 43.0805 1.66538 44.4112C1.74699 46.2408 2.95485 47.638 4.8809 48.2036C4.8809 45.2096 4.8809 42.2322 4.8809 39.2049C5.46851 39.2049 5.95818 39.2049 6.54579 39.2049C6.54579 42.2322 6.54579 45.2096 6.54579 48.2867C9.0268 48.2867 11.4262 48.2867 13.8582 48.2867C13.8582 48.8856 13.8582 49.3679 13.8582 49.9501C13.0911 49.9501 12.3729 49.9501 11.6384 49.9501C9.6797 49.9501 7.72101 49.9168 5.76231 49.9501C2.90589 50 0.343261 47.7711 0.131069 45.01C-0.0321551 42.9807 -0.0974449 40.8683 0.326939 38.9055C1.06145 35.479 3.88523 33.3999 7.4272 33.3167C9.81028 33.2668 12.2097 33.3666 14.6091 33.3666C14.8539 33.3666 15.1967 33.2169 15.3436 33.0339C16.9595 30.8882 19.1141 29.9401 21.7257 29.9734C23.9782 29.99 26.247 29.9567 28.4995 30.0732C30.5888 30.173 32.2863 31.2043 33.5594 32.8842C33.8859 33.3333 34.2287 33.3666 34.7183 33.3666C37.5911 33.3832 40.4965 33.2169 43.3366 33.5995C46.4868 34.0153 48.8536 37.0426 49.0005 40.3027C49.0658 41.9494 49.0821 43.646 48.8536 45.2761C48.5108 47.8377 46.2583 49.8337 43.7283 49.8836C40.9045 49.9501 38.0808 49.9002 35.208 49.9002C35.208 49.3679 35.208 48.8856 35.208 48.2867C37.6074 48.2867 40.0068 48.2867 42.4715 48.2867C42.4715 45.1929 42.4715 42.2156 42.4715 39.1716C43.0428 39.1716 43.5325 39.1716 44.1201 39.1716C44.1201 42.1823 44.1201 45.1597 44.1201 48.1537C45.8992 47.7545 47.1724 46.4737 47.3356 44.6773C47.4662 43.147 47.5151 41.5502 47.3193 40.0366C46.9439 37.0925 44.8546 35.1796 41.9165 34.9967C39.6967 34.8636 37.4605 34.9634 35.2243 34.9634C35.0938 34.9634 34.9795 35.0133 34.8816 35.0466C35.4202 38.7059 35.1101 42.332 35.1427 45.9581C35.159 48.1038 33.4289 49.817 31.3069 49.9168C30.4419 49.9501 29.5768 49.9168 28.679 49.9168C28.679 45.4757 28.679 41.1011 28.679 36.6766C29.2013 36.6766 29.691 36.6766 30.2623 36.6766C30.2623 40.5356 30.2623 44.3613 30.2623 48.1537C32.2536 48.5196 33.5268 47.4883 33.5268 45.509C33.5268 42.9308 33.5268 40.3526 33.5268 37.7744C33.5268 34.3812 31.4212 31.9029 28.1077 31.6866C25.6104 31.5369 23.0968 31.5702 20.6157 31.7365C17.8409 31.9195 15.6374 34.3812 15.5884 37.2255C15.5231 40.0865 15.5558 42.9308 15.5884 45.7917C15.5395 47.5216 16.8126 48.4531 18.7876 48.2202Z" fill="black"/>
<path id="Vector_2" d="M44.1044 27.4285C44.1697 26.7132 43.7943 25.9647 44.692 25.5323C44.8553 25.4491 44.9042 25.0333 44.9042 24.7838C44.9206 23.2868 44.9042 21.7898 44.9206 20.2927C44.9369 19.511 44.5288 19.1783 43.8106 19.1783C42.6354 19.1783 41.4765 19.1617 40.3013 19.1783C39.9096 19.1783 39.681 19.0951 39.5341 18.6627C38.9792 17.0825 38.3589 15.5356 37.6571 13.7059C38.4079 12.9574 39.3709 12.0426 40.3176 11.0945C41.0848 10.3293 41.0685 10.0133 40.3176 9.24817C39.4036 8.30007 38.4732 7.3686 37.5428 6.42049C36.7593 5.62209 36.4982 5.60546 35.731 6.38723C34.9149 7.20226 34.1314 8.05056 33.2826 8.83233C33.1194 8.99867 32.695 9.0652 32.4828 8.9654C30.9485 8.30007 29.4305 7.58483 27.7493 6.81969C27.7493 5.70526 27.7493 4.34132 27.7493 2.99401C27.7493 1.96274 27.5045 1.71324 26.5088 1.69661C25.1541 1.67997 23.783 1.67997 22.4282 1.69661C21.4815 1.71324 21.2204 1.97937 21.2204 2.94411C21.2204 4.29142 21.2204 5.65536 21.2204 6.81969C19.5391 7.58483 18.0048 8.30007 16.4379 8.98204C16.242 9.0652 15.8503 8.99867 15.7034 8.83233C14.8219 8.00066 14.0058 7.11909 13.1407 6.25416C12.5042 5.62209 12.194 5.62209 11.5575 6.25416C10.5291 7.28543 9.51715 8.33333 8.48884 9.3646C7.9502 9.91351 7.96652 10.3959 8.50516 10.9281C9.48451 11.8929 10.4475 12.8743 11.28 13.7226C10.6108 15.5023 10.0068 17.1823 9.35393 18.829C9.28864 18.9953 8.92955 19.1284 8.70103 19.145C7.55846 19.1783 6.41589 19.145 5.27332 19.1617C4.31029 19.1783 4.06546 19.4278 4.04913 20.3925C4.04913 21.8064 4.03281 23.2202 4.06546 24.6341C4.06546 24.9501 4.13074 25.4491 4.31029 25.5323C5.20803 25.998 4.78364 26.7465 4.83261 27.3952C3.51049 27.4451 2.46585 26.4804 2.43321 25.1164C2.38424 23.3699 2.38424 21.6234 2.43321 19.8769C2.46585 18.5462 3.49417 17.5815 4.91422 17.515C5.73035 17.4651 6.54647 17.4817 7.36259 17.515C7.83594 17.5316 8.0971 17.3985 8.26032 16.8995C8.50516 16.1344 8.88058 15.4192 9.12542 14.6707C9.20703 14.4212 9.15806 14.022 8.99484 13.839C8.42355 13.1737 7.77065 12.5749 7.16672 11.9428C6.15473 10.845 6.15473 9.44777 7.16672 8.38323C8.32562 7.18563 9.46819 6.02129 10.6271 4.89022C11.688 3.85895 13.0591 3.85895 14.1201 4.90685C14.8546 5.63872 15.5401 6.43713 16.193 7.15236C17.4172 6.62009 18.4945 6.17099 19.6044 5.68862C19.6044 4.70725 19.6044 3.70925 19.6044 2.71124C19.6208 1.1477 20.5185 0.116434 22.0365 0.0499002C23.7014 -0.0166334 25.3499 -0.0166334 27.0148 0.0499002C28.5002 0.116434 29.3816 1.16434 29.3979 2.66134C29.4142 3.62608 29.0715 4.80705 29.5122 5.50565C29.9202 6.17099 31.1118 6.35396 31.9605 6.75316C32.1727 6.85296 32.4012 6.96939 32.793 7.16899C33.4132 6.48703 34.0661 5.72189 34.7517 5.02329C35.9595 3.79242 37.3306 3.79241 38.5548 5.00665C39.6158 6.07119 40.6767 7.15236 41.7214 8.25017C42.8476 9.4145 42.8476 10.8117 41.7214 12.0093C41.1501 12.6081 40.5788 13.2069 39.9912 13.7725C39.681 14.0719 39.6484 14.3047 39.8443 14.7039C40.2034 15.4192 40.4972 16.1677 40.742 16.9162C40.8889 17.3819 41.1337 17.4983 41.5744 17.4817C42.3416 17.4484 43.0924 17.4651 43.8596 17.4817C45.6061 17.5316 46.5528 18.5296 46.5528 20.3094C46.5528 21.8563 46.5691 23.4198 46.5528 24.9667C46.5038 26.4138 45.5408 27.4118 44.1044 27.4285Z" fill="black"/>
<path id="Vector_3" d="M35.8604 22.455C35.338 22.455 34.8484 22.455 34.3261 22.455C34.1791 19.4444 33.1019 16.8995 30.8494 14.9368C29.0213 13.3399 26.883 12.5415 24.4999 12.5415C20.1418 12.5249 15.0982 15.7019 14.6085 22.455C14.1352 22.455 13.6618 22.455 13.0742 22.455C13.1722 18.5961 14.6412 15.4524 17.6772 13.2069C21.5619 10.3293 25.7731 10.0632 30.0169 12.3419C33.967 14.4544 36.0073 18.7957 35.8604 22.455Z" fill="black"/>
<path id="Vector_4" d="M24.5169 29.1417C21.8074 29.1584 19.6365 26.9794 19.6039 24.2349C19.5712 21.4737 21.7748 19.1949 24.4843 19.1783C27.1448 19.1617 29.381 21.4072 29.3973 24.1184C29.4137 26.8962 27.2591 29.1251 24.5169 29.1417ZM24.5333 27.4784C26.345 27.4617 27.7814 25.9814 27.7651 24.1517C27.7488 22.3387 26.2471 20.825 24.468 20.8417C22.6888 20.8583 21.2198 22.3886 21.2361 24.2016C21.2524 26.0313 22.7051 27.4784 24.5333 27.4784Z" fill="black"/>
<path id="Vector_5" d="M10.5608 32.4684C7.83493 32.4351 5.68037 30.2062 5.72933 27.4118C5.76198 24.7172 8.04712 22.4551 10.675 22.505C13.4009 22.5549 15.5554 24.8336 15.5228 27.5948C15.4738 30.3227 13.2703 32.485 10.5608 32.4684ZM10.6424 30.805C12.4542 30.7884 13.9069 29.3247 13.8906 27.4783C13.8742 25.6653 12.3726 24.1517 10.5934 24.1683C8.81428 24.1849 7.34526 25.7152 7.34526 27.5282C7.36158 29.3579 8.81428 30.805 10.6424 30.805Z" fill="black"/>
<path id="Vector_6" d="M38.3586 32.4684C35.6164 32.4517 33.4619 30.2229 33.4945 27.4451C33.5272 24.7338 35.7633 22.4883 38.4076 22.505C41.1171 22.5216 43.3043 24.817 43.2717 27.5615C43.239 30.306 41.0518 32.4684 38.3586 32.4684ZM38.3912 30.805C40.203 30.805 41.6557 29.3247 41.6394 27.495C41.6231 25.682 40.1377 24.1683 38.3586 24.1849C36.5795 24.2016 35.0941 25.7152 35.1104 27.5283C35.1104 29.3579 36.5631 30.805 38.3912 30.805Z" fill="black"/>
<path id="Vector_7" d="M21.2852 49.9002C21.2852 49.3347 21.2852 48.8523 21.2852 48.3201C23.4397 48.3201 25.5453 48.3201 27.7162 48.3201C27.7162 48.8357 27.7162 49.3513 27.7162 49.9002C25.5616 49.9002 23.456 49.9002 21.2852 49.9002Z" fill="black"/>
</g>
</g>
<defs>
<clipPath id="clip0_969_112">
<rect width="49" height="50" fill="white"/>
</clipPath>
</defs>
</svg>
