<svg width="48" height="48" viewBox="0 0 48 48" fill="none" xmlns="http://www.w3.org/2000/svg">
<g id="Frame" clip-path="url(#clip0_969_317)">
<g id="Group">
<path id="Vector" d="M29.6178 31.7759C30.9285 32.5919 32.2871 33.2639 33.454 34.1919C36.5868 36.6879 38.1373 40.0319 38.3451 44.0159C38.393 44.8639 38.377 45.7279 38.3611 46.5759C38.3451 47.5679 37.9135 47.9999 36.9385 47.9999C28.2751 47.9999 19.6278 47.9999 10.9644 47.9999C10.2292 47.9999 9.65376 47.6959 9.62179 46.9439C9.47793 44.0479 9.58982 41.1999 10.9644 38.5439C12.5948 35.3919 15.0564 33.2159 18.4929 31.9199C15.5199 29.5839 14.0653 26.5919 14.4649 22.8639C14.7367 20.2719 15.9834 18.1439 18.0134 16.4799C21.7217 13.4399 27.38 13.7599 30.8006 17.2479C32.8785 19.3599 33.7896 21.9199 33.5339 24.8799C33.2462 27.7919 31.8396 30.0799 29.6178 31.7759ZM12.0514 45.5359C20.0434 45.5359 27.9874 45.5359 35.9315 45.5359C36.3311 40.5919 33.6138 36.1439 29.1543 34.3679C26.5968 33.3439 23.9275 33.4239 21.2901 33.7439C15.5199 34.4799 11.412 39.7599 12.0514 45.5359ZM23.9754 16.7999C19.9954 16.7999 16.7986 20.0159 16.7986 24.0319C16.7986 27.9679 20.0114 31.1999 23.9595 31.2159C27.9235 31.2319 31.1842 27.9839 31.2002 24.0159C31.1842 20.0479 27.9395 16.7999 23.9754 16.7999Z" fill="black"/>
<path id="Vector_2" d="M0 23.9044C0 12.7844 7.78421 3.07236 18.5415 0.60836C30.8332 -2.19164 43.3167 4.80036 46.9451 17.1204C49.039 24.2244 47.968 30.9604 43.956 37.2004C43.6364 37.6964 43.2687 38.0964 42.5974 38.0004C41.6384 37.8724 41.3666 36.9284 41.8621 35.9684C42.7892 34.1764 43.8282 32.4164 44.4835 30.5284C48.3197 19.3284 41.5744 6.65636 30.2258 3.31236C18.7972 -0.0476398 7.01698 6.28836 3.48452 17.2644C1.40659 23.7124 2.23776 29.8564 5.81818 35.6164C6.50549 36.7204 6.52148 37.3764 5.81818 37.8244C5.13087 38.2724 4.50749 37.9844 3.8042 36.8804C1.26274 32.9284 0.015984 28.6084 0 23.9044Z" fill="black"/>
<path id="Vector_3" d="M7.16016 23.9519C7.22409 15.8719 12.9144 9.03994 20.8904 7.50394C30.0333 5.75994 38.7925 11.7919 40.4868 20.9919C41.0942 24.3039 40.7106 27.5039 39.3999 30.5919C39.1282 31.2319 38.7126 31.6159 37.9933 31.5039C37.2421 31.3919 36.9064 30.6399 37.1142 29.8559C37.5298 28.3839 38.0732 26.9119 38.2491 25.4079C39.0802 17.8719 33.8375 11.0239 26.4049 9.77594C18.6367 8.47994 11.1242 13.7439 9.79752 21.4719C9.33398 24.1759 9.60571 26.8319 10.6447 29.3759C10.7406 29.6159 10.8525 29.8719 10.9004 30.1279C11.0123 30.7999 10.7086 31.2959 10.0692 31.4879C9.46185 31.6639 8.90241 31.4399 8.69462 30.8319C8.2151 29.3759 7.75156 27.9039 7.39992 26.4159C7.19212 25.6319 7.22409 24.7839 7.16016 23.9519Z" fill="black"/>
</g>
</g>
<defs>
<clipPath id="clip0_969_317">
<rect width="48" height="48" fill="white"/>
</clipPath>
</defs>
</svg>
