<svg width="50" height="50" viewBox="0 0 50 50" fill="none" xmlns="http://www.w3.org/2000/svg">
<g id="Frame" clip-path="url(#clip0_969_342)">
<g id="Group">
<path id="Vector" d="M35.625 15.1814C35.625 15.4941 35.625 15.7286 35.625 15.9475C35.625 18.8399 35.625 21.7167 35.625 24.7342C36.7188 24.7342 37.75 24.7498 38.7656 24.7186C38.9062 24.7186 39.0781 24.4215 39.1719 24.2339C39.8281 22.7799 41.0469 22.0607 42.6875 22.2014C44.0156 22.3108 45.1406 23.2958 45.5 24.656C45.9531 26.3759 45.0781 28.0175 43.3906 28.6585C41.8281 29.2527 39.9375 28.5022 39.2656 26.9387C39.0312 26.3759 38.75 26.2039 38.1875 26.2508C37.5156 26.2977 36.8281 26.2664 36.1562 26.2664C34.8125 26.2508 34.1875 25.641 34.1875 24.3121C34.1719 21.576 34.1875 18.8399 34.1875 16.1038C34.1875 15.8224 34.1875 15.541 34.1875 15.2283C32.7188 15.2283 31.3438 15.2283 29.8594 15.2283C29.6875 16.479 28.7188 16.6979 27.6406 16.7605C27.2188 16.7917 27 16.9481 26.875 17.3859C26.7188 17.9331 26.5469 18.4959 26.2344 18.965C25.8125 19.606 25.9688 20.0594 26.4062 20.6066C27.3125 21.7167 27.2344 22.2639 26.2031 23.2958C26.0156 23.4834 25.8438 23.671 25.6562 23.843C24.9219 24.5466 24.3594 24.5779 23.5 23.9837C23.1406 23.7336 22.7812 23.4678 22.4844 23.2489C21.5937 23.6085 20.7344 23.9056 19.9219 24.2808C19.6875 24.3902 19.4375 24.7498 19.4062 25.0156C19.1406 26.97 17.3906 27.9237 15.6875 26.9387C15.2812 26.7042 14.9687 26.0475 14.875 25.5472C14.75 24.7498 14.5469 24.1557 13.6406 24.0932C13.5938 24.0932 13.5312 24.0619 13.5 24.0463C12.4062 23.374 11.3281 23.0144 10.3281 24.2183C10.2812 24.2652 10.1875 24.2964 10.1094 24.3121C8.78125 24.7029 8.3125 23.546 7.57812 22.8737C7.03125 22.3734 6.90625 21.6385 7.40625 21.1226C8.34375 20.1688 8.26562 19.262 7.59375 18.2458C7.5625 18.1989 7.53125 18.152 7.51562 18.1051C7.39062 17.1044 6.8125 16.7136 5.82812 16.6041C4.6875 16.479 4.35938 15.9631 4.35938 14.8061C4.35938 14.5247 4.35938 14.2276 4.35938 13.9462C4.375 12.8987 4.82813 12.2889 5.85938 12.2264C6.78125 12.1795 7.35938 11.8511 7.46875 10.8974C7.48438 10.8036 7.53125 10.6942 7.59375 10.616C8.28125 9.59974 8.35937 8.64602 7.35937 7.77047C7.28125 7.70793 7.23438 7.59849 7.21875 7.50468C6.85938 6.16009 7.96875 5.61287 8.6875 4.89367C9.23438 4.36209 9.98438 4.33082 10.5312 4.84677C11.3594 5.61287 12.1094 5.69105 13.0469 5.06566C13.4844 4.7686 14.0625 4.67479 14.625 4.47154C14.7188 4.00249 14.7812 3.45528 14.9219 2.93933C15.125 2.12632 15.5937 1.76672 16.4219 1.75109C16.6562 1.75109 16.8906 1.75109 17.125 1.75109C18.8125 1.75109 19.2031 2.11069 19.3594 3.81488C19.4062 4.28392 19.5469 4.54971 20.0469 4.69042C20.7188 4.87804 21.3281 5.25327 21.9844 5.47216C22.2188 5.55033 22.5625 5.50343 22.7969 5.39399C23.0781 5.28454 23.2969 5.03439 23.5625 4.86241C23.6875 4.7686 23.8125 4.65915 23.9687 4.62788C25.3281 4.25265 25.9219 5.34708 26.6406 6.11319C27.2031 6.70731 27.1563 7.45778 26.6094 8.02063C25.875 8.7711 25.7813 9.4903 26.4219 10.3189C26.4375 10.3346 26.4375 10.3658 26.4531 10.3971C26.7031 11.5697 27.2344 12.3671 28.6406 12.3671C29 12.3671 29.4375 12.8987 29.6719 13.2739C29.875 13.6179 30.0312 13.7742 30.4219 13.7586C31.4375 13.7273 32.4531 13.7273 33.4688 13.7586C34.0156 13.7742 34.1875 13.5866 34.1719 13.0394C34.1562 10.3033 34.1563 7.56722 34.1563 4.83114C34.1563 3.18948 34.6719 2.68917 36.2969 2.67354C36.6094 2.67354 36.9219 2.64227 37.2344 2.67354C38.2656 2.79862 39 2.64227 39.5469 1.50093C40.1875 0.156339 41.9219 -0.281435 43.3594 0.203243C44.7344 0.672286 45.7344 2.17322 45.6094 3.59599C45.4844 5.15947 44.3281 6.41025 42.7656 6.69167C41.3594 6.94183 39.7969 6.17573 39.25 4.8155C39 4.20574 38.7031 4.0494 38.1094 4.08067C37.4688 4.12757 36.7969 4.0494 36.1562 4.11194C35.9531 4.12757 35.625 4.44027 35.6094 4.62788C35.5781 7.62976 35.5781 10.616 35.5781 13.7273C36.625 13.7273 37.6406 13.7586 38.6406 13.7117C38.8125 13.6961 39.0312 13.4146 39.125 13.2114C39.7969 11.7417 41.0156 11.0069 42.6094 11.1319C43.9375 11.2258 45.0938 12.2577 45.4531 13.6491C45.875 15.3221 44.9844 17.0263 43.375 17.6047C41.7188 18.1989 39.875 17.4797 39.2031 15.8693C38.9688 15.2908 38.6562 15.1657 38.1094 15.197C37.3594 15.2126 36.5469 15.1814 35.625 15.1814ZM25.5469 21.873C25.2031 21.3884 24.9063 20.9506 24.5781 20.5597C24.1563 20.075 24.2031 19.6529 24.5 19.0744C24.9688 18.1832 25.3125 17.2295 25.6406 16.2758C25.7969 15.8067 26 15.5097 26.5313 15.4628C27.1094 15.4002 27.6875 15.2595 28.25 15.1501C28.25 14.6341 28.25 14.1807 28.25 13.6961C27.6875 13.6022 27.1875 13.4928 26.6719 13.4615C26.0938 13.4146 25.8281 13.1488 25.6406 12.586C25.3125 11.6166 24.9219 10.6473 24.4688 9.72482C24.2188 9.20887 24.1875 8.818 24.5469 8.38023C24.9063 7.94245 25.2031 7.47341 25.5625 6.98873C25.1719 6.6135 24.8438 6.3008 24.5156 5.98811C24 6.37898 23.5312 6.70731 23.0781 7.05127C22.7031 7.34833 22.375 7.3327 21.9375 7.12945C20.9375 6.6604 19.875 6.3008 18.8906 5.81613C18.5781 5.65978 18.2812 5.31581 18.1719 4.98748C17.9844 4.44027 17.9375 3.83051 17.8437 3.26766C16.5 3.08004 16.5 3.08004 16.2656 4.31519C16.2187 4.54971 16.2344 4.8155 16.125 4.98748C15.9219 5.30018 15.6875 5.67541 15.375 5.81613C14.375 6.3008 13.3438 6.72294 12.3125 7.09818C12 7.20762 11.5469 7.19199 11.2656 7.05127C10.7187 6.76985 10.25 6.34771 9.70312 5.95684C9.35937 6.31644 9.04688 6.64477 8.70312 7.00437C9.07812 7.50468 9.375 7.95809 9.73438 8.38023C10.1094 8.818 10.0781 9.20887 9.79688 9.72482C9.34375 10.5691 8.9375 11.4446 8.67188 12.3515C8.45312 13.0863 8.14062 13.4146 7.34375 13.4772C5.82813 13.6022 5.82813 13.6491 5.9375 14.9937C5.9375 15.0406 5.98437 15.0719 6.03125 15.1501C6.54687 15.2439 7.07812 15.3846 7.625 15.4159C8.28125 15.4628 8.45312 15.838 8.64062 16.3852C8.96875 17.339 9.35938 18.277 9.8125 19.1682C10.0625 19.6685 10.0781 20.0125 9.73438 20.4346C9.375 20.8724 9.0625 21.3415 8.71875 21.8261C9.09375 22.1701 9.42187 22.4828 9.78125 22.8268C10.2187 22.5141 10.6719 22.2014 11.0938 21.8574C11.5312 21.4978 11.9219 21.5134 12.4375 21.7792C13.3906 22.2483 14.4062 22.561 15.3594 23.0144C15.6719 23.1707 16 23.5147 16.1094 23.843C16.2969 24.3902 16.3281 25 16.4219 25.5941C16.9375 25.5941 17.3906 25.5941 17.8594 25.5941C17.9688 24.9844 18.0937 24.4215 18.1562 23.8587C18.2031 23.3271 18.5 23.1395 18.9688 22.9675C19.9688 22.6079 20.9375 22.2014 21.8906 21.748C22.3438 21.5291 22.7031 21.4822 23.1094 21.7949C23.5781 22.1545 24.0625 22.4984 24.5938 22.8893C24.875 22.561 25.1875 22.2483 25.5469 21.873ZM44.1406 25.5159C44.1406 24.484 43.2969 23.6398 42.2656 23.6398C41.2344 23.6398 40.3906 24.4997 40.3906 25.5316C40.3906 26.5635 41.2344 27.4077 42.2656 27.4077C43.3125 27.3921 44.1406 26.5635 44.1406 25.5159ZM42.2969 16.2914C43.3438 16.2758 44.1562 15.4471 44.125 14.3996C44.1094 13.3677 43.2344 12.5234 42.2188 12.5391C41.1875 12.5703 40.3594 13.4459 40.375 14.4622C40.4062 15.5253 41.2344 16.3071 42.2969 16.2914ZM44.1406 3.36147C44.1406 2.34521 43.2656 1.45403 42.2656 1.45403C41.2812 1.45403 40.3906 2.34521 40.375 3.36147C40.375 4.39336 41.2344 5.25327 42.25 5.25327C43.2812 5.25327 44.1406 4.39336 44.1406 3.36147Z" fill="black"/>
<path id="Vector_2" d="M35.6406 31.1601C36.6719 30.9412 37.6875 30.5191 38.6875 30.5504C39.875 30.5973 40.4531 31.5822 40.7188 32.7861C41.1094 32.5829 41.4531 32.3953 41.7969 32.2233C44.0312 31.0663 45.3594 31.5666 46.2031 33.8962C48.1094 33.521 49.4844 34.2558 49.9062 35.8974C50.2031 37.0388 49.7969 38.2896 48.7656 38.8837C46.375 40.2439 43.9375 41.5416 41.5312 42.8706C41.1094 43.1051 40.75 43.0269 40.5312 42.6204C40.2969 42.1514 40.4375 41.7918 40.9219 41.526C43.1406 40.3377 45.3438 39.1026 47.5625 37.9143C48.1875 37.5704 48.625 37.1326 48.5156 36.3821C48.375 35.3971 47.375 34.975 46.4062 35.5066C44.3594 36.6323 42.3125 37.758 40.2812 38.915C35.9531 41.3696 31.2969 42.4171 26.3438 42.0732C24.25 41.9325 22.1562 41.6041 20.0781 41.2914C19.8125 41.2602 19.4375 40.8537 19.4219 40.6191C19.4062 40.3846 19.7812 39.9469 20.0312 39.8999C21.5625 39.6342 23.1094 39.4622 24.6562 39.2746C27.2031 38.9462 29.7656 38.6492 32.3125 38.3052C33.125 38.1958 33.5781 37.6329 33.5156 36.945C33.4531 36.2414 32.9688 35.8036 32.1094 35.788C29.2656 35.7724 26.4219 35.8505 23.5938 35.7411C22.3281 35.6942 21.0625 35.2877 19.7969 35.0219C17.4844 34.5372 15.2031 34.5841 12.9375 35.2252C12.7656 35.2721 12.5937 35.3502 12.4062 35.3659C11.9844 35.4128 11.5312 35.3659 11.5312 34.8656C11.5312 34.5685 11.8125 34.0682 12.0469 34.0056C13.4531 33.6773 14.875 33.349 16.3125 33.2239C18.1719 33.0676 19.9844 33.4584 21.7656 33.9744C22.1406 34.0838 22.6563 34.0682 22.9844 33.8962C25.7812 32.4734 28.5625 31.0038 31.3438 29.5341C33.5156 28.3928 35.0625 29.0494 35.6406 31.1601ZM27.0156 40.4628C27.0312 40.5566 27.0312 40.6504 27.0469 40.7599C28.6094 40.6348 30.1562 40.5566 31.7188 40.369C36.4062 39.8218 40.2344 37.2577 44.1875 35.0063C44.4687 34.8499 44.6406 34.162 44.5469 33.818C44.4531 33.5053 43.9531 33.2395 43.5625 33.1145C43.3281 33.0519 42.9844 33.2864 42.7031 33.4272C40.3125 34.6779 37.9219 35.9287 35.5469 37.2108C35.25 37.3828 34.9687 37.7111 34.8281 38.0394C34.3906 38.9619 33.7188 39.556 32.7344 39.7436C31.8438 39.9156 30.9375 39.9625 30.0312 40.0719C29.0312 40.1814 28.0312 40.3221 27.0156 40.4628ZM25.7812 34.1151C25.7969 34.162 25.8125 34.2245 25.8281 34.2714C27.25 34.2714 28.6875 34.2714 30.1094 34.2714C30.2656 34.2714 30.4375 34.2714 30.5625 34.2089C31.5938 33.6617 32.625 33.1301 33.625 32.5203C34.1562 32.192 34.3906 31.6604 34.0312 31.0507C33.6875 30.4565 33.1562 30.2689 32.5625 30.566C30.2969 31.723 28.0469 32.9268 25.7812 34.1151ZM34.9844 35.8193C36.1094 35.2252 37.3281 34.5998 38.5312 33.9431C39.0938 33.6304 39.3906 33.177 39.0938 32.5203C38.7969 31.8949 38.2031 31.7386 37.5156 32.1138C36.375 32.7236 35.2344 33.349 34.0938 33.9744C33.8437 34.1151 33.5937 34.2558 33.3437 34.4121C33.4531 34.3652 33.5469 34.3027 33.6562 34.2558C34.0781 34.7405 34.4844 35.2252 34.9844 35.8193Z" fill="black"/>
<path id="Vector_3" d="M1.48437 38.8055C1.48437 41.6041 1.48437 44.2933 1.48437 47.045C1.78125 47.0606 2.04687 47.0919 2.29687 47.0763C6.35937 46.9356 10.3906 47.4515 14.4375 47.8267C17.4375 48.1082 20.4375 48.4521 23.4531 48.5929C26.2031 48.7179 28.7969 47.858 31.2344 46.6698C33.4687 45.591 35.6562 44.3715 37.8594 43.2301C38.1406 43.0894 38.5 43.0112 38.7969 43.0425C38.9687 43.0738 39.2031 43.4021 39.2031 43.6054C39.2031 43.8399 39.0625 44.1995 38.875 44.3089C34.7969 46.5916 30.8125 49.1088 26.0937 49.8593C24.3437 50.1407 22.5156 49.9843 20.7344 49.8749C18.1875 49.7186 15.6719 49.4059 13.125 49.1713C11 48.9837 8.875 48.7805 6.75 48.6554C4.90625 48.5616 3.0625 48.5616 1.21875 48.5459C0.140625 48.5303 0 48.4052 0 47.3264C0 44.3871 0 41.4321 0 38.4928C0 37.5547 0.140625 37.414 1.07812 37.3984C1.23437 37.3984 1.39062 37.3827 1.54687 37.3984C4.0625 37.6172 6.45312 37.4453 8.4375 35.6004C8.64062 35.4127 8.9375 35.2251 9.1875 35.2251C9.5 35.2095 9.96875 35.3033 10.0781 35.5066C10.2031 35.7254 10.0781 36.2883 9.875 36.429C8.75 37.2264 7.59375 37.9612 6.42187 38.6804C6.21875 38.8055 5.92187 38.8055 5.67187 38.8055C4.3125 38.8055 2.9375 38.8055 1.48437 38.8055Z" fill="black"/>
<path id="Vector_4" d="M17.0765 8.92743C21.014 8.92743 23.6859 12.883 22.2015 16.5416C22.1077 16.7605 22.0452 17.0419 21.8734 17.1513C21.6234 17.3077 21.2327 17.4796 21.014 17.3702C20.7952 17.2764 20.6234 16.8386 20.639 16.5728C20.6546 16.1976 20.889 15.8536 20.9984 15.4784C21.4827 13.7117 20.6859 11.8511 19.0921 10.9287C17.4984 10.0062 15.4984 10.2877 14.2171 11.5853C12.9515 12.8674 12.6859 14.853 13.5452 16.4165C14.4515 18.0269 16.3109 18.8242 18.0765 18.3708C18.2952 18.3083 18.5296 18.2301 18.7327 18.1519C19.1859 17.98 19.5921 18.0269 19.7796 18.4959C19.9984 18.9962 19.7171 19.3402 19.2484 19.5278C17.6702 20.1845 16.0921 20.1219 14.5765 19.3715C12.3265 18.2458 11.1234 15.6347 11.7171 13.1957C12.3265 10.6629 14.4984 8.92743 17.0765 8.92743Z" fill="black"/>
</g>
</g>
<defs>
<clipPath id="clip0_969_342">
<rect width="50" height="50" fill="white"/>
</clipPath>
</defs>
</svg>
