<svg width="68" height="68" viewBox="0 0 68 68" fill="none" xmlns="http://www.w3.org/2000/svg">
<rect width="68" height="68" rx="3" fill="#1265FF"/>
<rect x="17" y="17" width="34" height="34" rx="3" fill="#1265FF"/>
<path d="M34.4037 23C39.6911 23.0528 44.3615 25.4059 48.1808 29.5212C49.1276 30.5342 49.8936 31.7055 50.734 32.824C51.0958 33.2989 51.0745 33.7948 50.7553 34.2908C47.7658 38.8704 43.8189 42.226 38.4038 43.5661C32.8398 44.9379 27.7013 43.8404 23.0522 40.5271C20.7542 38.8915 18.8712 36.8444 17.3286 34.4913C16.903 33.8476 16.8818 33.2989 17.3179 32.6552C20.1797 28.371 23.9139 25.2159 28.946 23.7175C30.5631 23.2216 32.244 23.0106 34.4037 23ZM33.9462 24.9944C32.6376 25.2054 31.3078 25.3109 30.0312 25.6275C25.4991 26.7882 22.1266 29.5634 19.4457 33.2672C19.2542 33.5416 19.3499 33.6998 19.4989 33.9109C20.733 35.6309 22.1585 37.1609 23.8501 38.4377C28.3928 41.8566 33.4143 42.9435 38.9038 41.213C42.9891 39.9256 46.0637 37.2559 48.4999 33.8159C48.585 33.6893 48.5531 33.3622 48.4467 33.2356C47.4573 32.0748 46.5211 30.8402 45.4041 29.7956C42.2018 26.8199 38.4144 25.1421 33.9462 24.9944Z" fill="white"/>
<path d="M40.3524 33.5522C40.3524 37.0449 37.4905 39.8834 33.9798 39.894C30.4584 39.894 27.5966 37.0555 27.5859 33.5733C27.5859 30.0805 30.4477 27.242 33.9585 27.2314C37.4905 27.2314 40.3524 30.0594 40.3524 33.5522ZM33.9904 29.3419C31.6499 29.3313 29.7137 31.2307 29.703 33.5416C29.6924 35.8631 31.6074 37.7836 33.9372 37.7941C36.2777 37.8047 38.214 35.9158 38.2246 33.5944C38.2353 31.2624 36.3309 29.3419 33.9904 29.3419Z" fill="white"/>
</svg>
