<svg width="68" height="68" viewBox="0 0 68 68" fill="none" xmlns="http://www.w3.org/2000/svg">
<rect width="68" height="68" rx="3" fill="#1265FF"/>
<rect x="17" y="17" width="34" height="34" fill="#1265FF"/>
<g clip-path="url(#clip0_203_1167)">
<path d="M43.1269 30.26C45.0925 31.0993 46.7394 32.2893 48.0994 33.9468C47.515 34.6056 46.9306 35.2537 46.3144 35.955C43.945 32.9587 40.8 31.7793 37.1025 31.9493C37.1025 32.7037 37.1662 33.5112 37.0919 34.3081C36.7837 37.3256 34.5525 39.9393 31.6306 40.6406C30.7169 40.8637 29.75 40.9062 28.7937 40.9806C24.48 41.2993 20.6656 44.6781 19.8687 48.9281C19.7519 49.5656 19.6881 50.2243 19.6031 50.9043C18.7637 50.9043 17.9137 50.9043 17 50.9043C17.0212 48.3225 17.7331 45.985 19.1675 43.8706C20.5912 41.7668 22.4825 40.2262 24.8625 39.2062C22.185 36.5606 21.4306 33.5431 22.9925 30.09C23.4387 29.1231 24.1187 28.305 24.9687 27.625C25.8081 26.9556 26.7219 26.4031 27.7844 26.2118C28.815 26.0312 29.8669 25.9781 30.9506 25.8612C30.6212 23.8531 30.9825 21.8768 32.2575 20.1025C33.2456 18.7318 34.5419 17.7968 36.1569 17.3081C39.3762 16.3306 42.8187 17.6268 44.6356 20.4318C46.3781 23.1731 46.3781 27.3381 43.1269 30.26ZM24.8625 33.4368C24.8625 36.1037 27.0087 38.25 29.6756 38.25C32.3319 38.25 34.51 36.1037 34.5206 33.4475C34.5312 30.7912 32.3212 28.5812 29.665 28.5812C27.0194 28.6025 24.8625 30.7806 24.8625 33.4368ZM43.1375 24.5012C43.1375 21.8237 41.0019 19.6668 38.3562 19.6456C35.6894 19.635 33.4794 21.8343 33.49 24.4906C33.5006 27.1362 35.6787 29.3143 38.3244 29.3143C40.9806 29.3143 43.1375 27.1681 43.1375 24.5012Z" fill="white"/>
<path d="M32.7578 44.1574C33.3847 43.4986 33.9691 42.8824 34.5959 42.2343C36.3278 43.8811 38.0491 45.5174 39.8022 47.1855C42.8728 43.7643 45.9328 40.3643 49.0247 36.9111C49.6834 37.5061 50.3209 38.0799 51.0009 38.6855C47.3141 42.7974 43.6484 46.8668 39.9509 50.9999C37.5391 48.7155 35.1803 46.463 32.7578 44.1574Z" fill="white"/>
</g>
<defs>
<clipPath id="clip0_203_1167">
<rect width="34" height="34" fill="white" transform="translate(17 17)"/>
</clipPath>
</defs>
</svg>
