<svg width="34" height="34" viewBox="0 0 34 34" fill="none" xmlns="http://www.w3.org/2000/svg">
<rect width="34" height="34" fill="#1265FF"/>
<g clip-path="url(#clip0_203_1157)">
<path d="M30.2892 21.9156C31.1335 23.5311 30.5289 25.1679 28.9862 25.8906C29.3406 26.6133 29.5387 27.3573 29.2572 28.1651C28.9862 28.9622 28.4546 29.5149 27.6624 29.8656C28.0376 30.5458 28.1627 31.2473 27.9959 31.97C27.7041 33.1816 26.6825 33.9894 25.4421 33.9894C22.784 34 20.1259 34 17.4678 33.9788C15.4247 33.9575 13.4442 33.5218 11.4949 32.9372C11.1717 32.8415 10.9528 32.8097 10.7235 33.171C10.3691 33.745 9.78536 33.9894 9.11823 33.9894C7.03345 33.9894 4.94867 33.9894 2.86389 33.9894C2.22803 33.9894 1.98828 33.7449 1.98828 33.086C1.98828 27.9313 1.98828 22.7765 1.98828 17.6218C1.98828 16.9628 2.21761 16.7184 2.86389 16.7184C4.92782 16.7078 7.00218 16.7184 9.06611 16.7184C9.9313 16.7184 10.5567 17.101 10.9945 17.9088C13.7464 17.1541 16.3941 16.2082 18.5102 14.1676C19.6672 13.0516 20.3344 11.6912 20.2405 10.0119C20.1884 9.15101 20.4282 8.36452 21.0745 7.7587C21.8771 7.01472 22.8048 6.79153 23.8159 7.20603C24.8166 7.62054 25.3483 8.3964 25.4525 9.51238C25.6714 11.9463 25.3274 14.2951 24.556 16.6759C24.7749 16.6865 24.9626 16.6971 25.1398 16.6971C26.5262 16.6971 27.923 16.6865 29.3093 16.7077C30.727 16.729 31.6339 17.5155 31.9466 18.9291C32.1551 19.8962 31.6547 21.0441 30.7687 21.6074C30.6123 21.7349 30.4664 21.8093 30.2892 21.9156ZM11.2551 19.3967C11.2239 19.3542 11.1926 19.3117 11.1613 19.2692C11.1613 19.4605 11.1613 19.6518 11.1613 19.8431C11.1613 22.5746 11.1613 25.2954 11.1613 28.0269C11.1613 29.0579 11.1509 30.0782 11.1717 31.1091C11.1717 31.2579 11.2968 31.513 11.4011 31.5343C13.0897 31.9063 14.768 32.4589 16.4775 32.5652C19.4379 32.7459 22.4191 32.6502 25.3899 32.6609C26.203 32.6609 26.7972 32.0763 26.7972 31.3429C26.7972 30.6096 26.203 30.0357 25.3899 30.0144C24.8375 30.0038 24.2746 30.0144 23.7221 30.0038C23.1905 29.9932 22.8674 29.7593 22.8569 29.3661C22.8361 28.9622 23.1905 28.6859 23.7325 28.6859C24.7228 28.6859 25.7131 28.6965 26.7034 28.6859C27.5269 28.6752 28.0689 28.1332 28.0585 27.3361C28.0585 26.5708 27.5164 26.0394 26.7242 26.0288C26.1717 26.0182 25.6089 26.0288 25.0564 26.0288C24.4518 26.0288 24.1912 25.8269 24.2016 25.3592C24.2016 24.9128 24.4726 24.7109 25.0772 24.7002C26.0467 24.6896 27.0265 24.7109 27.9959 24.6896C28.8194 24.679 29.4032 24.1051 29.4136 23.3717C29.4136 22.6384 28.8194 22.0644 28.0064 22.0432C27.4539 22.0325 26.891 22.0432 26.3385 22.0325C25.8069 22.0219 25.4838 21.7881 25.4733 21.3948C25.4525 20.991 25.8069 20.7146 26.349 20.7146C27.3601 20.7146 28.3608 20.7253 29.3719 20.704C30.1954 20.6934 30.7166 20.0876 30.6749 19.2585C30.6332 18.5358 30.0703 18.0575 29.2364 18.0469C26.547 18.0469 23.8472 18.0469 21.1578 18.0469C20.6054 18.0469 20.2614 17.7918 20.2614 17.388C20.2614 16.9841 20.595 16.729 21.1578 16.729C21.6478 16.7184 22.1273 16.7078 22.6172 16.7396C23.0133 16.7609 23.1905 16.6121 23.3364 16.2401C24.1182 14.1144 24.3059 11.9144 24.2016 9.6718C24.1704 9.01285 23.6909 8.48143 23.1384 8.3964C22.4713 8.30075 21.8667 8.60897 21.679 9.22541C21.5852 9.52301 21.6061 9.85248 21.6061 10.1713C21.5852 11.6487 21.1683 12.9772 20.2822 14.1676C19.2711 15.5174 17.9786 16.5483 16.4879 17.2498C14.768 18.0363 12.9959 18.6846 11.2551 19.3967ZM3.37466 32.6502C5.34478 32.6502 7.28363 32.6609 9.2329 32.6396C9.7124 32.629 9.82706 32.257 9.82706 31.8106C9.81663 27.5061 9.82706 23.2017 9.81663 18.8972C9.81663 18.2489 9.61858 18.0469 8.9723 18.0469C7.22108 18.0469 5.45944 18.0469 3.70823 18.0469C3.59356 18.0469 3.4789 18.0788 3.37466 18.0894C3.37466 22.9572 3.37466 27.7825 3.37466 32.6502Z" fill="white"/>
<path d="M22.2195 2.2001C22.2195 1.70057 22.2091 1.21167 22.2195 0.712139C22.2299 0.276378 22.4488 -0.0105869 22.8866 4.13996e-05C23.2931 0.0106697 23.512 0.287006 23.512 0.701511C23.5225 1.68994 23.5225 2.67838 23.512 3.67744C23.5016 4.08132 23.3036 4.34702 22.8762 4.35765C22.4071 4.35765 22.2299 4.07069 22.2299 3.64556C22.2091 3.15665 22.2195 2.67838 22.2195 2.2001Z" fill="white"/>
<path d="M19.8326 5.25047C19.77 5.83502 19.1863 6.13262 18.8214 5.79251C18.1335 5.15481 17.4768 4.4746 16.8409 3.78376C16.6012 3.52868 16.6116 3.13543 16.9034 2.94412C17.1015 2.80595 17.5393 2.74218 17.6748 2.86972C18.3941 3.51805 19.0612 4.24077 19.7283 4.95287C19.8117 5.02727 19.8117 5.19732 19.8326 5.25047Z" fill="white"/>
<path d="M25.8281 5.27157C25.9741 5.03774 26.0575 4.84643 26.193 4.69764C26.735 4.12371 27.2875 3.56041 27.8504 3.00773C28.1839 2.66763 28.6009 2.63574 28.8511 2.92271C29.1429 3.26281 29.0908 3.60292 28.7989 3.91114C28.2152 4.51696 27.6419 5.1334 27.0164 5.6967C26.8497 5.8455 26.4953 5.88801 26.2764 5.82424C26.0991 5.7711 25.9845 5.48413 25.8281 5.27157Z" fill="white"/>
<path d="M16.3216 9.66127C15.9047 9.66127 15.4877 9.66127 15.0708 9.66127C14.6434 9.66127 14.4141 9.41682 14.4141 9.01294C14.4141 8.60907 14.6538 8.37524 15.0812 8.37524C15.9255 8.38587 16.7803 8.37524 17.6246 8.37524C18.052 8.37524 18.2813 8.59844 18.2813 9.02357C18.2813 9.43808 18.0312 9.66127 17.6142 9.66127C17.1868 9.66127 16.749 9.66127 16.3216 9.66127Z" fill="white"/>
<path d="M29.391 9.66127C28.974 9.66127 28.5571 9.65064 28.1401 9.66127C27.6919 9.6719 27.4313 9.4487 27.4417 9.00231C27.4417 8.59844 27.6919 8.37524 28.1193 8.37524C28.9532 8.38587 29.7871 8.38587 30.6106 8.37524C31.0588 8.37524 31.3194 8.57718 31.309 9.0342C31.2986 9.49122 31.0171 9.6719 30.5793 9.66127C30.1832 9.65064 29.7871 9.66127 29.391 9.66127Z" fill="white"/>
<path d="M8.55562 26.7196C8.55562 27.5168 8.55562 28.3139 8.55562 29.1004C8.55562 29.6743 8.31587 29.9932 7.88849 29.9932C7.46111 30.0038 7.21094 29.6849 7.21094 29.1216C7.21094 27.4955 7.21094 25.8694 7.21094 24.2432C7.21094 23.6906 7.48196 23.3505 7.89892 23.3611C8.30545 23.3717 8.55562 23.7012 8.55562 24.2645C8.56605 25.0935 8.55562 25.9119 8.55562 26.7196Z" fill="white"/>
<path d="M7.89696 20.7146C8.24095 20.7252 8.59536 21.076 8.54324 21.4054C8.4807 21.7881 8.2618 22.0431 7.84484 22.0219C7.44873 22.0006 7.2611 21.7349 7.22983 21.3736C7.18813 21.0335 7.55297 20.704 7.89696 20.7146Z" fill="white"/>
</g>
<defs>
<clipPath id="clip0_203_1157">
<rect width="30" height="34" fill="white" transform="translate(2)"/>
</clipPath>
</defs>
</svg>
