<svg width="198" height="35" viewBox="0 0 198 35" fill="none" xmlns="http://www.w3.org/2000/svg">
<g clip-path="url(#clip0_495_176)">
<path d="M25.3214 12.2811H13.4173V15.9207H21.8596C21.4426 21.0245 17.3216 23.2011 13.4316 23.2011C8.45471 23.2011 4.11192 19.1663 4.11192 13.5112C4.11192 8.00221 8.25174 3.75951 13.4426 3.75951C17.4473 3.75951 19.8072 6.39002 19.8072 6.39002L22.2805 3.75103C22.2805 3.75103 19.1059 0.109619 13.3161 0.109619C5.94428 0.109619 0.240723 6.52107 0.240723 13.4463C0.240723 20.2322 5.60594 26.8495 13.5044 26.8495C20.4516 26.8495 25.5369 21.9459 25.5369 14.695C25.5369 13.1652 25.3214 12.2811 25.3214 12.2811Z" fill="#4885ED"/>
<path d="M35.073 9.64551C30.1885 9.64551 26.688 13.5801 26.688 18.1691C26.688 22.826 30.0833 26.8338 35.1303 26.8338C39.6993 26.8338 43.4424 23.2356 43.4424 18.2692C43.4424 12.5771 39.0883 9.64551 35.073 9.64551ZM35.1215 13.0213C37.5236 13.0213 39.7997 15.0222 39.7997 18.2464C39.7997 21.4023 37.5332 23.4603 35.1105 23.4603C32.4485 23.4603 30.3484 21.2635 30.3484 18.2215C30.3484 15.2446 32.4224 13.0213 35.1215 13.0213Z" fill="#DB3236"/>
<path d="M53.3098 9.64551C48.4253 9.64551 44.9248 13.5801 44.9248 18.1691C44.9248 22.826 48.3201 26.8338 53.3672 26.8338C57.9362 26.8338 61.6793 23.2356 61.6793 18.2692C61.6793 12.5771 57.3252 9.64551 53.3098 9.64551ZM53.3583 13.0213C55.7604 13.0213 58.0365 15.0222 58.0365 18.2464C58.0365 21.4023 55.77 23.4603 53.3473 23.4603C50.6853 23.4603 48.5852 21.2635 48.5852 18.2215C48.5852 15.2446 50.6592 13.0213 53.3583 13.0213Z" fill="#F4C20D"/>
<path d="M71.1954 9.65454C66.712 9.65454 63.188 13.7006 63.188 18.2419C63.188 23.4148 67.2736 26.8451 71.1182 26.8451C73.4953 26.8451 74.7594 25.8728 75.6926 24.7569V26.4516C75.6926 29.4167 73.9453 31.1922 71.308 31.1922C68.7603 31.1922 67.4823 29.2403 67.0383 28.1327L63.8326 29.5134C64.9699 31.991 67.2591 34.5749 71.3345 34.5749C75.7921 34.5749 79.1896 31.6818 79.1896 25.6144V10.1709H75.6926V11.6268C74.6181 10.433 73.1476 9.65454 71.1954 9.65454ZM71.52 13.0235C73.7181 13.0235 75.9752 14.9574 75.9752 18.26C75.9752 21.6169 73.7229 23.4671 71.4714 23.4671C69.0812 23.4671 66.8572 21.4673 66.8572 18.2919C66.8572 14.9924 69.167 13.0235 71.52 13.0235Z" fill="#4885ED"/>
<path d="M94.739 9.63428C90.5099 9.63428 86.959 13.1012 86.959 18.217C86.959 23.6302 90.917 26.8408 95.1452 26.8408C98.6742 26.8408 100.84 24.8515 102.133 23.0691L99.2494 21.0924C98.5012 22.2888 97.2504 23.4581 95.1629 23.4581C92.818 23.4581 91.7399 22.1352 91.072 20.8535L102.256 16.0719L101.676 14.6706C100.595 11.9264 98.0742 9.63428 94.739 9.63428ZM94.8847 12.9395C96.4086 12.9395 97.5054 13.7744 97.9711 14.7753L90.5024 17.9918C90.1804 15.5016 92.4701 12.9395 94.8847 12.9395Z" fill="#DB3236"/>
<path d="M81.6274 26.3301H85.3011V0.998047H81.6274V26.3301Z" fill="#3CBA54"/>
<path d="M174.061 26.6997C172.121 26.6997 170.447 25.9109 169.039 24.3332C167.63 22.7556 166.926 20.7994 166.926 18.4645C166.926 16.1297 167.63 14.1733 169.039 12.5953C170.447 11.0174 172.121 10.2284 174.061 10.2284C175.204 10.2284 176.23 10.4809 177.139 10.9857C178.047 11.4907 178.726 12.1219 179.176 12.8794H179.298L179.176 10.7339V3.60229H181.992V26.1951H179.298V24.0497H179.176C178.726 24.8065 178.047 25.4374 177.139 25.9423C176.23 26.4472 175.204 26.6997 174.061 26.6997ZM174.521 24.0497C175.848 24.0497 176.976 23.5447 177.905 22.5349C178.834 21.5251 179.298 20.1683 179.298 18.4645C179.298 16.7607 178.834 15.4039 177.905 14.3941C176.976 13.3843 175.848 12.8794 174.521 12.8794C173.214 12.8794 172.091 13.3895 171.152 14.4095C170.213 15.4296 169.743 16.7811 169.743 18.464C169.743 20.147 170.213 21.4986 171.152 22.519C172.091 23.5394 173.214 24.0497 174.521 24.0497Z" fill="#767676"/>
<path d="M117.802 26.1951H114.984V6.37945H108.859V3.60229H123.926V6.37945H117.802V26.1951Z" fill="#767676"/>
<path d="M127.386 26.1951H124.568V10.7339H127.264V13.2578H127.386C127.671 12.4162 128.258 11.7219 129.146 11.1749C130.034 10.628 130.897 10.3545 131.734 10.3545C132.571 10.3545 133.276 10.481 133.848 10.7339L132.776 13.4475C132.408 13.2999 131.908 13.226 131.275 13.226C130.254 13.226 129.351 13.6415 128.565 14.4726C127.779 15.3036 127.386 16.3922 127.386 17.7384V26.1951Z" fill="#767676"/>
<path d="M141.417 26.6998C139.151 26.6998 137.308 25.9216 135.889 24.3652C134.471 22.8087 133.761 20.8419 133.761 18.4647C133.761 16.2139 134.45 14.2785 135.828 12.6585C137.206 11.0385 138.967 10.2285 141.111 10.2285C143.336 10.2285 145.117 10.9753 146.455 12.4688C147.792 13.9624 148.46 15.961 148.46 18.4647L148.429 19.001H136.578C136.66 20.5578 137.165 21.7885 138.094 22.693C139.023 23.5975 140.11 24.0498 141.355 24.0498C143.377 24.0498 144.745 23.1661 145.459 21.3988L147.97 22.4715C147.48 23.6707 146.673 24.6752 145.551 25.4851C144.428 26.2949 143.05 26.6998 141.417 26.6998ZM145.459 16.6033C145.398 15.7193 145.005 14.8777 144.28 14.0784C143.555 13.2792 142.478 12.8795 141.049 12.8795C140.008 12.8795 139.105 13.2161 138.339 13.8892C137.574 14.5623 137.048 15.467 136.762 16.6033H145.459Z" fill="#767676"/>
<path d="M153.925 10.7341V12.8795H154.047C154.455 12.1432 155.098 11.5173 155.976 11.0018C156.854 10.4863 157.793 10.2285 158.794 10.2285C160.652 10.2285 162.071 10.8175 163.05 11.9955C164.03 13.1736 164.52 14.7515 164.52 16.7294V26.1952H161.703V17.1704C161.703 14.3098 160.468 12.8795 157.998 12.8795C156.834 12.8795 155.884 13.3581 155.15 14.3153C154.415 15.2725 154.047 16.3821 154.047 17.6442V26.1952H151.229V10.7341H153.925Z" fill="#767676"/>
<path d="M191.261 26.6998C189.587 26.6998 188.203 26.2792 187.111 25.4379C186.019 24.5966 185.217 23.5449 184.707 22.2828L187.218 21.21C188.014 23.1449 189.372 24.1124 191.291 24.1124C192.169 24.1124 192.889 23.9126 193.45 23.5129C194.012 23.1133 194.292 22.5874 194.292 21.9351C194.292 20.9253 193.608 20.2416 192.24 19.8841L189.208 19.1272C188.249 18.8749 187.34 18.3963 186.483 17.6914C185.626 16.9865 185.197 16.0348 185.197 14.8362C185.197 13.4689 185.784 12.3591 186.958 11.5068C188.132 10.6546 189.525 10.2285 191.138 10.2285C192.465 10.2285 193.649 10.5389 194.691 11.1597C195.732 11.7805 196.477 12.6693 196.926 13.8261L194.476 14.8671C193.925 13.4997 192.781 12.816 191.046 12.816C190.209 12.816 189.505 12.9948 188.933 13.3523C188.361 13.7099 188.076 14.194 188.076 14.8045C188.076 15.6878 188.739 16.2874 190.066 16.6033L193.036 17.3284C194.445 17.6648 195.486 18.2432 196.16 19.0636C196.834 19.8841 197.171 20.8098 197.171 21.8408C197.171 23.2294 196.62 24.3863 195.517 25.3117C194.415 26.2371 192.996 26.6998 191.261 26.6998Z" fill="#767676"/>
</g>
<defs>
<clipPath id="clip0_495_176">
<rect width="196.979" height="34.6682" fill="white" transform="translate(0.14209 0.00830078)"/>
</clipPath>
</defs>
</svg>
