<svg width="198" height="27" viewBox="0 0 198 27" fill="none" xmlns="http://www.w3.org/2000/svg">
<path d="M136.137 10.2312C136.137 7.03106 134.117 4.73096 130.382 4.73096H118.064V21.3317H122.103V15.6314H126.848L131.493 21.3317H136.036V20.9317L131.493 15.5314C134.421 14.9314 136.137 12.8313 136.137 10.2312ZM129.877 12.2313H122.103V8.1311H129.877C131.29 8.1311 132.2 8.93115 132.2 10.2312C132.3 11.5313 131.391 12.2313 129.877 12.2313Z" fill="black"/>
<path d="M197.121 4.63086H193.385V10.9311H183.188V4.63086H179.149V21.2316H183.188V14.7313H193.385V21.2316H197.121V4.63086Z" fill="black"/>
<path d="M107.265 4.63086L102.823 18.5315H102.621L98.0776 4.63086H90.9092V21.2316H94.7463V7.63099H94.948L99.3903 21.2316H105.549L110.093 7.63099H110.294V21.2316H114.231V4.63086H107.265Z" fill="black"/>
<path d="M63.3454 11.4313C61.932 11.3312 59.307 11.0313 57.7925 10.9313C56.379 10.8312 55.5713 10.3312 55.5713 9.43119C55.5713 8.53115 56.48 7.83112 59.9127 7.83112C62.9416 7.83112 65.7686 8.53115 68.2927 9.63124V5.93103C65.8695 4.73098 63.1436 4.23096 59.7108 4.23096C54.9656 4.23096 51.6338 6.23105 51.6338 9.53117C51.6338 12.3313 53.552 13.9314 57.4896 14.3314C58.9031 14.5314 61.3262 14.7314 62.9416 14.8315C64.759 14.9315 65.2638 15.5315 65.2638 16.3315C65.2638 17.4316 63.9513 18.1316 60.8213 18.1316C57.5906 18.1316 54.2588 17.0316 51.8357 15.6314V19.4316C53.754 20.7317 56.9848 21.7317 60.7204 21.7317C65.8695 21.7317 69.2013 19.7317 69.2013 16.2315C69.2013 13.5314 67.4849 11.8313 63.3454 11.4313Z" fill="black"/>
<path d="M71.9287 4.63086V21.2316H87.4771V17.8314H75.7653V14.4313H87.2754V11.0312H75.7653V8.03104H87.4771V4.63086H71.9287Z" fill="black"/>
<path d="M170.77 11.4313C169.356 11.3312 166.731 11.0313 165.217 10.9313C163.803 10.8312 162.996 10.3312 162.996 9.43119C162.996 8.53115 163.904 7.83112 167.337 7.83112C170.366 7.83112 173.193 8.43116 175.717 9.63124V5.93103C173.294 4.73098 170.567 4.23096 167.135 4.23096C162.39 4.23096 159.058 6.23105 159.058 9.53117C159.058 12.3313 160.976 13.9314 164.913 14.3314C166.327 14.5314 168.751 14.7314 170.366 14.8315C172.183 14.9315 172.688 15.5315 172.688 16.3315C172.688 17.4316 171.375 18.1316 168.245 18.1316C165.015 18.1316 161.683 17.0316 159.26 15.6314V19.4316C161.178 20.7317 164.409 21.7317 168.145 21.7317C173.294 21.7317 176.626 19.7317 176.626 16.2315C176.626 13.5314 174.808 11.8313 170.77 11.4313Z" fill="black"/>
<path d="M152.293 4.63086V13.1312C152.293 16.3314 150.273 18.1315 147.345 18.1315C144.317 18.1315 142.398 16.4314 142.398 13.1312V4.63086H138.36V12.7312C138.36 18.7315 142.196 21.7316 147.345 21.7316C152.393 21.7316 156.231 18.8315 156.231 12.9312V4.63086H152.293Z" fill="black"/>
<path d="M37.9022 12.8314C37.9022 13.6314 37.4984 13.7314 36.4888 13.7314C35.3782 13.7314 35.1762 13.5314 35.0752 12.7313C34.8734 10.6312 33.4599 8.83114 31.0368 8.73115C30.33 8.63117 30.1281 8.43111 30.1281 7.4311C30.1281 6.53106 30.229 6.13104 30.9358 6.13104C34.9743 6.23104 37.9022 9.5312 37.9022 12.8314ZM43.8591 12.8314C43.8591 6.63106 39.6186 0.0307617 29.7242 0.0307617H10.2383C9.83454 0.0307617 9.53167 0.230771 9.53167 0.630789C9.53167 0.830795 9.6326 1.03081 9.83454 1.13081C10.5413 1.73084 11.5509 2.33087 12.9644 3.0309C14.2769 3.73093 15.3875 4.13095 16.3971 4.53097C16.801 4.73097 17.0029 4.93098 17.0029 5.131C17.0029 5.43101 16.801 5.73102 16.2962 5.73102H0.84883C0.344016 5.63102 0.14209 5.93103 0.14209 6.23104C0.14209 6.53106 0.243052 6.73107 0.444978 6.93107C1.65653 8.23114 3.67579 9.83124 6.60371 11.6313C9.12778 13.2313 12.3586 14.9314 14.8827 16.1315C15.2865 16.3315 15.4885 16.5315 15.4885 16.8315C15.4885 17.1315 15.2865 17.3316 14.7817 17.3316H7.61335C7.2095 17.3316 7.00757 17.5315 7.00757 17.8316C7.00757 18.0316 7.10853 18.2316 7.31046 18.4316C8.92584 19.9317 11.5509 21.4317 14.9836 22.9318C19.6279 24.8319 24.2722 26.0319 29.5223 26.0319C39.5177 26.0319 43.8591 18.6316 43.8591 12.8314ZM30.8348 21.7317C25.9886 21.7317 21.8491 17.8316 21.8491 12.8314C21.8491 8.03109 25.8876 4.13095 30.8348 4.13095C35.883 4.13095 39.8205 8.03109 39.8205 12.8314C39.8205 17.7316 35.883 21.7317 30.8348 21.7317Z" fill="#FF642D"/>
</svg>
