<svg width="198" height="27" viewBox="0 0 198 27" fill="none" xmlns="http://www.w3.org/2000/svg">
<g clip-path="url(#clip0_494_147)">
<mask id="mask0_494_147" style="mask-type:luminance" maskUnits="userSpaceOnUse" x="0" y="2" width="198" height="22">
<path d="M197.858 2.39453H0.87915V23.6682H197.858V2.39453Z" fill="white"/>
</mask>
<g mask="url(#mask0_494_147)">
<path d="M74.9508 18.819C73.911 18.819 72.9024 18.4748 71.9247 17.8022C70.9315 17.1139 70.2952 16.1597 69.9849 14.9396L71.6608 14.2513C71.8626 15.0334 72.2661 15.7061 72.8868 16.2379C73.5075 16.7854 74.1904 17.0513 74.9662 17.0513C75.7577 17.0513 76.4405 16.848 76.9991 16.4257C77.5578 16.0033 77.8371 15.4401 77.8371 14.7206C77.8371 13.9229 77.5578 13.2972 76.9991 12.8748C76.4405 12.4368 75.5405 12.0301 74.33 11.6704C73.073 11.2636 72.1109 10.7474 71.4747 10.1217C70.8229 9.48039 70.497 8.68263 70.497 7.68151C70.497 6.64912 70.9005 5.7575 71.7074 4.99102C72.5144 4.22454 73.5696 3.84912 74.8732 3.84912C76.0836 3.84912 77.0612 4.14633 77.8061 4.75638C78.5665 5.36644 79.0475 6.02342 79.2804 6.74297L77.6044 7.44688C77.4802 6.99325 77.1854 6.5709 76.7198 6.17984C76.2543 5.78879 75.649 5.60107 74.9042 5.60107C74.2059 5.60107 73.6007 5.80443 73.1041 6.19548C72.6074 6.58655 72.3592 7.0871 72.3592 7.66587C72.3592 8.19772 72.592 8.65134 73.042 9.01112C73.492 9.3709 74.1748 9.71503 75.0593 9.9966C75.7577 10.2312 76.3474 10.4502 76.8129 10.6536C77.2785 10.8726 77.7595 11.1541 78.2406 11.4983C78.7217 11.858 79.0941 12.296 79.3269 12.8122C79.5752 13.3441 79.6991 13.9541 79.6991 14.6424C79.6991 15.3307 79.5597 15.9564 79.2648 16.5038C78.9855 17.0513 78.5976 17.4894 78.132 17.8022C77.6664 18.115 77.1543 18.3653 76.6112 18.5374C76.068 18.7407 75.5094 18.819 74.9508 18.819Z" fill="#5E5E5E"/>
<path d="M85.6737 18.8188C84.1996 18.8188 83.0043 18.3182 82.0887 17.3327C81.1732 16.3473 80.7075 15.0959 80.7075 13.5943C80.7075 12.1707 81.1582 10.935 82.0422 9.9026C82.9428 8.87021 84.0751 8.354 85.472 8.354C86.9155 8.354 88.0635 8.82328 88.9326 9.77747C89.8016 10.7317 90.2358 11.9987 90.2358 13.5786L90.2208 13.9227H82.5386C82.5859 14.9082 82.9271 15.6903 83.5164 16.2691C84.1215 16.8479 84.8204 17.1294 85.6273 17.1294C86.9305 17.1294 87.8311 16.5663 88.2959 15.44L89.9253 16.1283C89.6157 16.8947 89.0878 17.5204 88.3582 18.0367C87.6293 18.5685 86.7445 18.8188 85.6737 18.8188ZM88.2959 12.421C88.2494 11.8579 88.0012 11.3261 87.5356 10.8255C87.0707 10.325 86.3718 10.059 85.4405 10.059C84.7582 10.059 84.1838 10.278 83.6874 10.7004C83.191 11.1227 82.8491 11.7015 82.6631 12.421H88.2959Z" fill="#5E5E5E"/>
<path d="M94.567 18.819C93.527 18.819 92.6737 18.5218 91.9748 17.9118C91.2767 17.3174 90.9355 16.5196 90.9355 15.5342C90.9355 14.4705 91.339 13.6257 92.1615 13.0157C92.9841 12.4057 93.9927 12.1085 95.2029 12.1085C96.2737 12.1085 97.1585 12.3118 97.8408 12.7029V12.4213C97.8408 11.7017 97.5926 11.1229 97.112 10.685C96.6148 10.247 96.0255 10.028 95.3116 10.028C94.7837 10.028 94.3031 10.1531 93.8682 10.4034C93.434 10.6537 93.1393 10.9978 92.9841 11.4514L91.3082 10.7319C91.5249 10.1375 91.9748 9.60565 92.6422 9.10509C93.3095 8.60453 94.1786 8.35425 95.2651 8.35425C96.5069 8.35425 97.5462 8.71403 98.3687 9.44922C99.1913 10.1844 99.5947 11.2169 99.5947 12.5465V18.5062H97.8408V17.1453H97.7636C97.034 18.2715 95.9632 18.819 94.567 18.819ZM94.8617 17.1453C95.6221 17.1453 96.3044 16.8638 96.9103 16.3006C97.5304 15.7375 97.8408 15.0649 97.8408 14.2827C97.3287 13.8604 96.5534 13.6414 95.5133 13.6414C94.6285 13.6414 93.9611 13.8291 93.5112 14.2201C93.0613 14.6112 92.8289 15.0649 92.8289 15.581C92.8289 16.066 93.0306 16.4414 93.4498 16.723C93.8682 17.0045 94.3338 17.1453 94.8617 17.1453Z" fill="#5E5E5E"/>
<path d="M103.163 18.506H101.332V8.69826H103.086V10.2938H103.163C103.35 9.76194 103.722 9.32396 104.312 8.97982C104.886 8.63569 105.444 8.46362 105.988 8.46362C106.531 8.46362 106.981 8.54183 107.353 8.69826L106.655 10.419C106.422 10.325 106.097 10.2782 105.677 10.2782C105.01 10.2782 104.436 10.5441 103.923 11.0759C103.411 11.6078 103.163 12.296 103.163 13.1407V18.506Z" fill="#5E5E5E"/>
<path d="M112.18 18.819C110.722 18.819 109.526 18.3184 108.58 17.333C107.633 16.3319 107.167 15.0961 107.167 13.5944C107.167 12.0927 107.633 10.8571 108.58 9.8559C109.526 8.85479 110.722 8.36987 112.18 8.36987C113.267 8.36987 114.167 8.63579 114.88 9.16764C115.594 9.69948 116.122 10.3721 116.448 11.1855L114.772 11.8895C114.275 10.6537 113.36 10.0436 112.056 10.0436C111.249 10.0436 110.535 10.3721 109.915 11.0447C109.294 11.7174 108.984 12.562 108.984 13.5944C108.984 14.6268 109.294 15.4716 109.915 16.1442C110.535 16.8168 111.249 17.1452 112.056 17.1452C113.422 17.1452 114.352 16.5352 114.88 15.2995L116.51 16.0034C116.184 16.8012 115.641 17.4738 114.911 18.0212C114.167 18.5531 113.267 18.819 112.18 18.819Z" fill="#5E5E5E"/>
<path d="M119.441 4.17773V8.6984L119.364 10.0593H119.441C119.705 9.59001 120.125 9.19896 120.699 8.87047C121.273 8.54197 121.878 8.38555 122.53 8.38555C123.74 8.38555 124.656 8.76096 125.293 9.51181C125.928 10.2626 126.239 11.2638 126.239 12.5151V18.5062H124.408V12.7811C124.408 10.9666 123.601 10.0593 122.002 10.0593C121.242 10.0593 120.637 10.3565 120.155 10.9666C119.675 11.5766 119.441 12.2805 119.441 13.0783V18.5062H117.61V4.17773H119.441Z" fill="#5E5E5E"/>
<path d="M137.195 18.8189C135.1 18.8189 133.346 18.0994 131.934 16.6759C130.522 15.2525 129.808 13.4692 129.808 11.3262C129.808 9.18321 130.522 7.41562 131.934 5.97651C133.346 4.55305 135.1 3.8335 137.195 3.8335C139.336 3.8335 141.075 4.61562 142.424 6.17986L141.152 7.41562C140.19 6.19551 138.871 5.60109 137.195 5.60109C135.643 5.60109 134.339 6.13293 133.269 7.18098C132.198 8.22902 131.67 9.62119 131.67 11.3262C131.67 13.0312 132.198 14.4234 133.269 15.4715C134.339 16.5195 135.643 17.0513 137.195 17.0513C138.901 17.0513 140.361 16.3631 141.571 14.9709L142.843 16.2536C142.192 17.0357 141.385 17.6614 140.407 18.1307C139.414 18.5999 138.343 18.8189 137.195 18.8189Z" fill="#5E5E5E"/>
<path d="M144.953 9.87152C145.9 8.87041 147.095 8.3855 148.553 8.3855C150.012 8.3855 151.207 8.88605 152.153 9.87152C153.1 10.8726 153.566 12.1084 153.566 13.6101C153.566 15.1118 153.1 16.3475 152.153 17.3486C151.207 18.3497 150.012 18.8346 148.553 18.8346C147.095 18.8346 145.9 18.3341 144.953 17.3486C144.006 16.3475 143.541 15.1118 143.541 13.6101C143.541 12.1084 144.006 10.857 144.953 9.87152ZM146.303 16.1754C146.94 16.8167 147.684 17.1453 148.537 17.1453C149.392 17.1453 150.136 16.8167 150.773 16.1754C151.409 15.5341 151.719 14.6738 151.719 13.6101C151.719 12.5464 151.409 11.6861 150.773 11.0447C150.136 10.4033 149.392 10.0749 148.537 10.0749C147.684 10.0749 146.94 10.4033 146.303 11.0447C145.667 11.6861 145.357 12.5464 145.357 13.6101C145.372 14.6738 145.682 15.5185 146.303 16.1754Z" fill="#5E5E5E"/>
<path d="M156.593 8.69834V10.0592H156.67C156.934 9.58996 157.354 9.1989 157.928 8.87041C158.502 8.54192 159.107 8.3855 159.759 8.3855C160.969 8.3855 161.885 8.76092 162.522 9.51175C163.157 10.2626 163.468 11.2637 163.468 12.5151V18.5062H161.637V12.781C161.637 10.9665 160.83 10.0592 159.231 10.0592C158.471 10.0592 157.866 10.3565 157.384 10.9665C156.904 11.5765 156.67 12.2805 156.67 13.0782V18.5062H154.839V8.69834H156.593Z" fill="#5E5E5E"/>
<path d="M168.789 18.8188C167.704 18.8188 166.803 18.5529 166.105 18.021C165.391 17.4892 164.879 16.8165 164.553 16.0188L166.182 15.3305C166.694 16.5662 167.579 17.1763 168.821 17.1763C169.394 17.1763 169.86 17.0512 170.217 16.8009C170.574 16.5506 170.761 16.2065 170.761 15.7997C170.761 15.1585 170.31 14.7205 169.426 14.5014L167.455 14.0165C166.835 13.8601 166.244 13.5473 165.686 13.1093C165.127 12.6556 164.848 12.0612 164.848 11.2948C164.848 10.4344 165.236 9.73052 165.996 9.18303C166.757 8.63555 167.657 8.36963 168.712 8.36963C169.565 8.36963 170.342 8.57297 171.009 8.96404C171.691 9.3551 172.173 9.91823 172.452 10.6534L170.869 11.3104C170.512 10.45 169.767 10.0121 168.65 10.0121C168.107 10.0121 167.657 10.1216 167.284 10.3562C166.912 10.5908 166.726 10.888 166.726 11.2791C166.726 11.8422 167.16 12.2176 168.014 12.421L169.938 12.8746C170.854 13.0936 171.521 13.4534 171.971 13.9696C172.405 14.4858 172.623 15.0802 172.623 15.7372C172.623 16.6132 172.266 17.3484 171.552 17.9428C170.838 18.5372 169.907 18.8188 168.789 18.8188Z" fill="#5E5E5E"/>
<path d="M174.719 9.87152C175.666 8.87041 176.86 8.3855 178.319 8.3855C179.778 8.3855 180.972 8.88605 181.919 9.87152C182.866 10.8726 183.331 12.1084 183.331 13.6101C183.331 15.1118 182.866 16.3475 181.919 17.3486C180.972 18.3497 179.778 18.8346 178.319 18.8346C176.86 18.8346 175.666 18.3341 174.719 17.3486C173.772 16.3475 173.307 15.1118 173.307 13.6101C173.307 12.1084 173.772 10.857 174.719 9.87152ZM176.084 16.1754C176.721 16.8167 177.465 17.1453 178.319 17.1453C179.173 17.1453 179.917 16.8167 180.554 16.1754C181.19 15.5341 181.5 14.6738 181.5 13.6101C181.5 12.5464 181.19 11.6861 180.554 11.0447C179.917 10.4033 179.173 10.0749 178.319 10.0749C177.465 10.0749 176.721 10.4033 176.084 11.0447C175.448 11.6861 175.138 12.5464 175.138 13.6101C175.138 14.6738 175.448 15.5185 176.084 16.1754Z" fill="#5E5E5E"/>
<path d="M186.464 18.5059H184.633V4.17749H186.464V18.5059Z" fill="#5E5E5E"/>
<path d="M192.75 18.8188C191.275 18.8188 190.081 18.3182 189.165 17.3327C188.25 16.3473 187.784 15.0959 187.784 13.5943C187.784 12.1707 188.234 10.935 189.119 9.9026C190.019 8.87021 191.152 8.354 192.548 8.354C193.991 8.354 195.139 8.82328 196.008 9.77747C196.878 10.7317 197.312 11.9987 197.312 13.5786L197.297 13.9227H189.615C189.662 14.9082 190.003 15.6903 190.593 16.2691C191.198 16.8479 191.896 17.1294 192.703 17.1294C194.007 17.1294 194.907 16.5663 195.373 15.44L197.002 16.1283C196.692 16.8947 196.164 17.5204 195.435 18.0367C194.705 18.5685 193.805 18.8188 192.75 18.8188ZM195.373 12.421C195.326 11.8579 195.078 11.3261 194.612 10.8255C194.147 10.325 193.449 10.059 192.517 10.059C191.834 10.059 191.26 10.278 190.763 10.7004C190.267 11.1227 189.926 11.7015 189.739 12.421H195.373Z" fill="#5E5E5E"/>
<path d="M0.98999 10.6222C0.98999 6.10153 4.76093 2.40991 9.26126 2.40991C11.7441 2.40991 13.5132 3.39539 14.8478 4.67807L13.2805 6.25794C12.3338 5.35068 11.0303 4.66242 9.26126 4.66242C5.98688 4.66242 3.42636 7.32164 3.42636 10.6222C3.42636 13.9227 5.98688 16.582 9.26126 16.582C11.3872 16.582 12.5977 15.7216 13.3735 14.9395C14.0098 14.2982 14.4288 13.3752 14.584 12.1239H9.26126V9.88699H16.7565C16.8341 10.2937 16.8807 10.763 16.8807 11.2948C16.8807 12.9842 16.4307 15.0647 14.9565 16.535C13.5288 18.0367 11.6976 18.8344 9.27678 18.8344C4.76093 18.8188 0.98999 15.1428 0.98999 10.6222Z" fill="#4386F5"/>
<path d="M22.9169 8.2605C20.015 8.2605 17.6562 10.4817 17.6562 13.5476C17.6562 16.5979 20.015 18.8348 22.9169 18.8348C25.8188 18.8348 28.1776 16.5979 28.1776 13.5476C28.1776 10.4817 25.8188 8.2605 22.9169 8.2605ZM22.9169 16.7387C21.3341 16.7387 19.9529 15.4248 19.9529 13.532C19.9529 11.6236 21.3186 10.3253 22.9169 10.3253C24.4998 10.3253 25.8809 11.6236 25.8809 13.532C25.8809 15.4248 24.4998 16.7387 22.9169 16.7387Z" fill="#E94235"/>
<path d="M34.4003 8.2605C31.4984 8.2605 29.1396 10.4817 29.1396 13.5476C29.1396 16.5979 31.4984 18.8348 34.4003 18.8348C37.3023 18.8348 39.6611 16.5979 39.6611 13.5476C39.6611 10.4817 37.3023 8.2605 34.4003 8.2605ZM34.4003 16.7387C32.8175 16.7387 31.4363 15.4248 31.4363 13.532C31.4363 11.6236 32.802 10.3253 34.4003 10.3253C35.9987 10.3253 37.3643 11.6236 37.3643 13.532C37.3643 15.4248 35.9832 16.7387 34.4003 16.7387Z" fill="#FCBD05"/>
<path d="M48.4938 8.57313V9.43346H48.4162C47.904 8.80776 46.9109 8.24463 45.6539 8.24463C43.0313 8.24463 40.626 10.5597 40.626 13.5475C40.626 16.5039 43.0313 18.8189 45.6539 18.8189C46.9109 18.8189 47.904 18.2558 48.4162 17.6144H48.4938V18.3809C48.4938 20.3988 47.423 21.4781 45.7005 21.4781C44.2883 21.4781 43.4193 20.4614 43.0624 19.601L41.0605 20.4457C41.6347 21.8536 43.171 23.5742 45.716 23.5742C48.4162 23.5742 50.6973 21.9787 50.6973 18.0681V8.57313H48.4938ZM45.8557 16.7385C44.2728 16.7385 42.9382 15.3932 42.9382 13.5475C42.9382 11.686 44.2728 10.325 45.8557 10.325C47.423 10.325 48.6489 11.686 48.6489 13.5475C48.6644 15.4089 47.423 16.7385 45.8557 16.7385Z" fill="#4386F5"/>
<path d="M54.575 2.97314H52.2783V18.506H54.575V2.97314Z" fill="#34A853"/>
<path d="M60.8901 16.7387C59.7106 16.7387 58.8882 16.1912 58.345 15.1432L65.3593 12.218L65.1265 11.6236C64.692 10.4348 63.3574 8.2605 60.6417 8.2605C57.9415 8.2605 55.6914 10.4035 55.6914 13.5476C55.6914 16.504 57.9105 18.8348 60.8901 18.8348C63.2953 18.8348 64.6765 17.3488 65.2662 16.4884L63.4816 15.284C62.8764 16.16 62.0694 16.7387 60.8901 16.7387ZM60.7193 10.294C61.6349 10.294 62.4108 10.7476 62.6591 11.4203L57.9726 13.3755C57.9105 11.3421 59.54 10.294 60.7193 10.294Z" fill="#E94235"/>
</g>
</g>
<defs>
<clipPath id="clip0_494_147">
<rect width="196.979" height="26.0012" fill="white" transform="translate(0.87915 0.0307617)"/>
</clipPath>
</defs>
</svg>
